<svg preserveAspectRatio="none" width="100%" height="100%" overflow="visible" style="display: block;" viewBox="0 0 183.865 148.826" fill="none" xmlns="http://www.w3.org/2000/svg">
<g id="Vector">
<path d="M167.119 0C197.409 7.70191 187.757 59.5924 128.754 52.3127C106.097 49.5174 117.108 49.3851 100.811 51.0798C105.769 70.7869 106.501 68.1622 108.286 75.2338C113.855 97.2855 100.393 119.207 65.7944 123.357C45.8926 125.744 30.4065 123.721 20.9592 141.077C18.9621 144.747 15.7065 150.799 10.9574 148.194C1.78797 143.163 13.2996 120.522 31.477 113.681C49.0622 107.063 103.82 113.074 93.4956 75.5651C91.0146 66.5532 73.7236 37.5076 106.451 37.6011C116.887 37.631 133.172 41.3441 150.854 40.3456C165.995 39.4903 176.061 24.3598 171.777 12.4604C170.588 9.1564 169.322 5.88048 167.119 0Z" fill="var(--fill-0, white)"/>
<path d="M3.86 110.063C-7.03624 106.621 7.36214 92.7257 19.5015 90.0095C26.0306 88.5483 44.153 87.0645 55.6922 83.3392C67.5432 79.5146 60.2684 68.5358 57.8405 57.8929C51.1582 28.5917 74.9993 7.00934 103.38 8.7996C106.323 8.98541 153.434 12.4649 159.031 17.3656C162.007 19.9723 161.711 27.5268 155.794 27.6083C137.273 27.8624 59.4016 5.02871 72.1834 57.9103C78.6485 84.6579 84.0321 95.4748 31.4085 98.9246C12.5369 100.162 11.7995 106.071 3.86 110.063Z" fill="var(--fill-0, white)"/>
</g>
</svg>
