<svg preserveAspectRatio="none" width="100%" height="100%" overflow="visible" style="display: block;" viewBox="0 0 30 29" fill="none" xmlns="http://www.w3.org/2000/svg">
<g id="Frame 2147228229">
<rect width="30" height="29" rx="14.5" fill="var(--fill-0, white)" fill-opacity="0.16"/>
<path id="Vector" d="M15 3C8.37346 3 3 8.27897 3 14.7911C3 20.0008 6.43837 24.4206 11.2064 25.9797C11.8061 26.0889 12.0263 25.724 12.0263 25.4125C12.0263 25.1314 12.0151 24.2025 12.01 23.2172C8.67152 23.9305 7.96707 21.826 7.96707 21.826C7.42121 20.4631 6.6347 20.1008 6.6347 20.1008C5.54598 19.3689 6.71676 19.3839 6.71676 19.3839C7.9218 19.4671 8.55632 20.599 8.55632 20.599C9.62659 22.4017 11.3636 21.8805 12.0483 21.5793C12.156 20.8171 12.4671 20.297 12.8102 20.0026C10.1449 19.7043 7.34291 18.6933 7.34291 14.1753C7.34291 12.8881 7.81169 11.8361 8.57938 11.0104C8.45477 10.7134 8.04406 9.51417 8.69561 7.89002C8.69561 7.89002 9.70329 7.57311 11.9965 9.09868C12.9536 8.83734 13.9802 8.7064 15 8.70196C16.0199 8.7064 17.0472 8.83734 18.0062 9.09868C20.2967 7.57311 21.303 7.89002 21.303 7.89002C21.9561 9.51417 21.5452 10.7134 21.4206 11.0104C22.19 11.8361 22.6556 12.888 22.6556 14.1753C22.6556 18.704 19.8483 19.7013 17.1763 19.9931C17.6066 20.3591 17.9902 21.0767 17.9902 22.1767C17.9902 23.7543 17.9762 25.0241 17.9762 25.4125C17.9762 25.7263 18.1922 26.094 18.8006 25.9782C23.566 24.4173 27 19.9991 27 14.7911C27 8.27897 21.6273 3 15 3Z" fill="var(--fill-0, white)"/>
</g>
</svg>
