<svg preserveAspectRatio="none" width="100%" height="100%" overflow="visible" style="display: block;" viewBox="0 0 30 30" fill="none" xmlns="http://www.w3.org/2000/svg">
<g id="Frame 2147228229">
<rect width="30" height="30" rx="15" fill="var(--fill-0, white)" fill-opacity="0.16"/>
<path id="Vector" d="M15 3C8.37253 3 3 8.37254 3 15C3 21.6275 8.37253 27 15 27C21.6274 27 27 21.6275 27 15C27 8.37254 21.6273 3 15 3ZM11.7984 20.8015H9.16364V12.2894H11.7984V20.8015ZM10.4684 11.1747C9.60798 11.1747 8.91041 10.4714 8.91041 9.60409C8.91041 8.73662 9.60807 8.03342 10.4684 8.03342C11.3288 8.03342 12.0264 8.73662 12.0264 9.60409C12.0264 10.4715 11.3289 11.1747 10.4684 11.1747ZM21.672 20.8015H19.05V16.3333C19.05 15.1079 18.5845 14.4238 17.6155 14.4238C16.5609 14.4238 16.01 15.1363 16.01 16.3333V20.8015H13.483V12.2894H16.01V13.4358C16.01 13.4358 16.7701 12.0298 18.575 12.0298C20.3799 12.0298 21.672 13.1319 21.672 15.4118L21.672 20.8015Z" fill="url(#paint0_linear_0_46)"/>
</g>
<defs>
<linearGradient id="paint0_linear_0_46" x1="6.51471" y1="6.51471" x2="23.4853" y2="23.4853" gradientUnits="userSpaceOnUse">
<stop stop-color="white"/>
<stop offset="1" stop-color="#F0F0F0"/>
</linearGradient>
</defs>
</svg>
