<svg preserveAspectRatio="none" width="100%" height="100%" overflow="visible" style="display: block;" viewBox="0 0 1272.5 198.239" fill="none" xmlns="http://www.w3.org/2000/svg">
<g id="Group 1000003538">
<path id="Vector 41" d="M0.156231 91.4336C0.0948651 91.4585 0.0458185 91.5067 0.0199205 91.5677C-0.00597797 91.6287 -0.00661327 91.6974 0.0181612 91.7588C0.0429357 91.8203 0.0910989 91.8693 0.152062 91.8953C0.213026 91.9212 0.28179 91.9219 0.343265 91.8973C0.343265 91.8973 0.343265 91.8973 0.343265 91.8973C21.4195 83.6596 43.6023 76.0582 65.2795 69.2062C147.004 44.45 232.584 22.2202 318.136 32.4498C441.629 50.1481 506.024 192.526 636.25 192.665C636.25 192.665 636.25 192.665 636.25 192.665C766.476 192.526 830.87 50.1481 954.363 32.4498C1039.92 22.2202 1125.5 44.45 1207.22 69.2062C1228.9 76.0582 1251.08 83.6596 1272.16 91.8973C1272.22 91.9219 1272.29 91.9212 1272.35 91.8953C1272.41 91.8693 1272.46 91.8203 1272.48 91.7588C1272.51 91.6974 1272.51 91.6287 1272.48 91.5677C1272.45 91.5067 1272.4 91.4585 1272.34 91.4336C1272.34 91.4336 1272.34 91.4336 1272.34 91.4336C1251.28 83.0934 1229.12 75.4011 1207.46 68.458C1125.75 43.375 1040.25 20.8046 954.136 30.8811C829.451 48.7771 764.799 190.889 636.25 190.665C636.25 190.665 636.25 190.665 636.25 190.665C507.7 190.889 443.049 48.7771 318.363 30.8811C232.25 20.8046 146.746 43.375 65.0419 68.458C43.3759 75.4011 21.22 83.0934 0.156231 91.4336Z" fill="url(#paint0_linear_0_26)"/>
<path id="Vector 42" d="M0.156231 63.0068C0.0948559 63.0317 0.0458018 63.0799 0.0198984 63.1409C-0.0060053 63.2019 -0.00664307 63.2707 0.0181322 63.3321C0.0429074 63.3935 0.0910743 63.4426 0.152043 63.4685C0.213013 63.4945 0.281784 63.4952 0.343265 63.4705C0.343265 63.4705 0.343265 63.4705 0.343265 63.4705C22.0553 54.9887 44.6605 47.2605 67.1002 40.203C148.187 15.7649 233.224 -6.1752 318.137 4.01306C448.586 26.6726 497.919 192.69 636.25 198.239C636.25 198.239 636.25 198.239 636.25 198.239C774.581 192.69 823.913 26.6726 954.362 4.01306C1039.28 -6.1752 1124.31 15.7649 1205.4 40.203C1227.84 47.2605 1250.44 54.9887 1272.16 63.4705C1272.22 63.4952 1272.29 63.4945 1272.35 63.4685C1272.41 63.4426 1272.46 63.3935 1272.48 63.3321C1272.51 63.2707 1272.51 63.2019 1272.48 63.1409C1272.45 63.0799 1272.4 63.0317 1272.34 63.0068C1272.34 63.0068 1272.34 63.0068 1272.34 63.0068C1250.64 54.4223 1228.06 46.6031 1205.64 39.4544C1124.57 14.7 1039.6 -7.5725 954.137 2.4643C822.305 25.4574 772.555 191.246 636.25 196.239C636.25 196.239 636.25 196.239 636.25 196.239C499.945 191.246 450.195 25.4573 318.362 2.4643C232.898 -7.5725 147.933 14.7 66.8639 39.4544C44.4346 46.6031 21.8562 54.4224 0.156231 63.0068Z" fill="url(#paint1_linear_0_26)"/>
</g>
<defs>
<linearGradient id="paint0_linear_0_26" x1="0.249748" y1="110.311" x2="1272.25" y2="110.311" gradientUnits="userSpaceOnUse">
<stop offset="0.0865385" stop-color="white"/>
<stop offset="0.504808" stop-color="#F15C2A" stop-opacity="0.24"/>
<stop offset="0.918269" stop-color="white"/>
</linearGradient>
<linearGradient id="paint1_linear_0_26" x1="0.249748" y1="98.8839" x2="1272.25" y2="98.8839" gradientUnits="userSpaceOnUse">
<stop offset="0.0865385" stop-color="white"/>
<stop offset="0.504808" stop-color="#F15C2A" stop-opacity="0.24"/>
<stop offset="0.918269" stop-color="white"/>
</linearGradient>
</defs>
</svg>
