<svg width="169" height="169" viewBox="0 0 169 169" fill="none" xmlns="http://www.w3.org/2000/svg">
<g filter="url(#filter0_d_24359_2605)">
<rect x="51.0078" y="55.333" width="62" height="62" rx="12" transform="rotate(-4 51.0078 55.333)" fill="white"/>
<rect x="51.8083" y="56.0289" width="60.5" height="60.5" rx="11.25" transform="rotate(-4 51.8083 56.0289)" stroke="#F5F5F5" stroke-width="1.5" stroke-linecap="round" stroke-linejoin="round"/>
<g clip-path="url(#clip0_24359_2605)">
<path d="M66.8438 93.8452L70.2983 87.8452L76.0273 87.8452C79.7864 87.8452 82.9648 90.6279 83.4616 94.354L84.0938 99.0952L76.5938 99.0952L75.5126 96.5726C74.8035 94.918 73.1766 93.8452 71.3765 93.8452L66.8438 93.8452Z" fill="#477BFF"/>
<path d="M101.344 93.8452L97.8892 87.8452L92.1601 87.8452C88.4011 87.8452 85.2227 90.6279 84.7259 94.354L84.0938 99.0952L91.5938 99.0952L92.6749 96.5726C93.384 94.918 95.0109 93.8452 96.8111 93.8452L101.344 93.8452Z" fill="#477BFF"/>
<path d="M70.2969 87.8452L81.0923 69.0952L84.0923 69.0952L83.7947 76.2383C83.5379 82.4007 78.6515 87.3649 72.4939 87.7189L70.2969 87.8452Z" fill="#477BFF"/>
<path d="M97.8892 87.8452L87.0938 69.0952L84.0938 69.0952L84.3913 76.2383C84.6481 82.4007 89.5346 87.3649 95.6922 87.7189L97.8892 87.8452Z" fill="#477BFF"/>
</g>
</g>
<defs>
<filter id="filter0_d_24359_2605" x="-0.992188" y="-0.991699" width="170.176" height="170.174" filterUnits="userSpaceOnUse" color-interpolation-filters="sRGB">
<feFlood flood-opacity="0" result="BackgroundImageFix"/>
<feColorMatrix in="SourceAlpha" type="matrix" values="0 0 0 0 0 0 0 0 0 0 0 0 0 0 0 0 0 0 127 0" result="hardAlpha"/>
<feMorphology radius="16" operator="erode" in="SourceAlpha" result="effect1_dropShadow_24359_2605"/>
<feOffset/>
<feGaussianBlur stdDeviation="34"/>
<feComposite in2="hardAlpha" operator="out"/>
<feColorMatrix type="matrix" values="0 0 0 0 0.945098 0 0 0 0 0.360784 0 0 0 0 0.164706 0 0 0 0.07 0"/>
<feBlend mode="normal" in2="BackgroundImageFix" result="effect1_dropShadow_24359_2605"/>
<feBlend mode="normal" in="SourceGraphic" in2="effect1_dropShadow_24359_2605" result="shape"/>
</filter>
<clipPath id="clip0_24359_2605">
<rect width="34.5" height="30" fill="white" transform="translate(66.8438 69.0952)"/>
</clipPath>
</defs>
</svg>
