<svg width="169" height="169" viewBox="0 0 169 169" fill="none" xmlns="http://www.w3.org/2000/svg">
<g filter="url(#filter0_d_24359_2575)">
<rect x="51.0078" y="55.333" width="62" height="62" rx="12" transform="rotate(-4 51.0078 55.333)" fill="white"/>
<rect x="51.8083" y="56.0289" width="60.5" height="60.5" rx="11.25" transform="rotate(-4 51.8083 56.0289)" stroke="#F5F5F5" stroke-width="1.5" stroke-linecap="round" stroke-linejoin="round"/>
<g clip-path="url(#clip0_24359_2575)">
<path fill-rule="evenodd" clip-rule="evenodd" d="M78.4688 69.0952C78.883 69.0952 79.2188 69.431 79.2188 69.8452L79.2188 75.3926C79.2188 75.5596 79.4207 75.6432 79.5388 75.5251L85.5293 69.5347C85.8106 69.2534 86.1921 69.0953 86.5898 69.0952L93.1582 69.0952C93.3571 69.0952 93.5479 69.1743 93.6885 69.3149L95.9385 71.5649C96.2313 71.8578 96.2313 72.3326 95.9385 72.6255L93.0388 75.5251C92.9207 75.6433 93.0044 75.8452 93.1714 75.8452L99.1582 75.8452C99.3571 75.8452 99.5479 75.9243 99.6885 76.0649L101.938 78.315C102.231 78.6078 102.231 79.0826 101.938 79.3755L98.9839 82.3301C98.8375 82.4765 98.8375 82.7139 98.9839 82.8603L101.408 85.2846C102.087 85.9638 102.469 86.8848 102.469 87.8452C102.469 88.8056 102.087 89.7267 101.408 90.4058L93.1582 98.6558C92.8769 98.937 92.4954 99.0951 92.0977 99.0952L89.7188 99.0952C89.3045 99.0952 88.9688 98.7594 88.9688 98.3452L88.9688 92.7978C88.9688 92.6308 88.7668 92.5472 88.6487 92.6653L82.6582 98.6558C82.3769 98.937 81.9954 99.0951 81.5977 99.0952L75.0293 99.0952C74.8304 99.0952 74.6396 99.0161 74.499 98.8755L72.249 96.6255C71.9562 96.3326 71.9562 95.8578 72.249 95.565L75.1487 92.6653C75.2668 92.5472 75.1831 92.3452 75.0161 92.3452L69.0293 92.3452C68.8304 92.3452 68.6396 92.2661 68.499 92.1255L66.249 89.8755C65.9562 89.5826 65.9562 89.1078 66.249 88.815L69.2036 85.8603C69.35 85.7139 69.35 85.4765 69.2036 85.3301L66.7793 82.9058C66.1002 82.2267 65.7188 81.3056 65.7188 80.3452C65.7188 79.3848 66.1002 78.4638 66.7793 77.7846L75.0293 69.5347C75.3106 69.2534 75.6921 69.0953 76.0898 69.0952L78.4688 69.0952ZM80.7722 75.8452C79.7777 75.8452 78.8234 76.2406 78.1202 76.9438L70.1089 84.9551C69.8727 85.1913 70.04 85.5951 70.374 85.5952L81.3135 85.5952C81.6475 85.5953 81.8147 85.9992 81.5786 86.2353L76.1089 91.7051C75.8727 91.9413 76.0399 92.3451 76.374 92.3452L87.4153 92.3452C88.4098 92.3452 89.3642 91.9498 90.0674 91.2466L98.0786 83.2353C98.3 83.0139 98.1669 82.6449 97.8743 82.5996L97.8135 82.5952L86.874 82.5952C86.54 82.5952 86.3727 82.1913 86.6089 81.9551L92.0786 76.4854C92.3148 76.2491 92.1475 75.8453 91.8135 75.8452L80.7722 75.8452Z" fill="#477BFF"/>
</g>
</g>
<defs>
<filter id="filter0_d_24359_2575" x="-0.992188" y="-0.991699" width="170.176" height="170.174" filterUnits="userSpaceOnUse" color-interpolation-filters="sRGB">
<feFlood flood-opacity="0" result="BackgroundImageFix"/>
<feColorMatrix in="SourceAlpha" type="matrix" values="0 0 0 0 0 0 0 0 0 0 0 0 0 0 0 0 0 0 127 0" result="hardAlpha"/>
<feMorphology radius="16" operator="erode" in="SourceAlpha" result="effect1_dropShadow_24359_2575"/>
<feOffset/>
<feGaussianBlur stdDeviation="34"/>
<feComposite in2="hardAlpha" operator="out"/>
<feColorMatrix type="matrix" values="0 0 0 0 0.945098 0 0 0 0 0.360784 0 0 0 0 0.164706 0 0 0 0.07 0"/>
<feBlend mode="normal" in2="BackgroundImageFix" result="effect1_dropShadow_24359_2575"/>
<feBlend mode="normal" in="SourceGraphic" in2="effect1_dropShadow_24359_2575" result="shape"/>
</filter>
<clipPath id="clip0_24359_2575">
<rect width="36.75" height="30" fill="white" transform="translate(65.7188 69.0952)"/>
</clipPath>
</defs>
</svg>
