<svg width="105" height="83" viewBox="0 0 105 83" fill="none" xmlns="http://www.w3.org/2000/svg">
            <path
              d="M1.44341 13.7564C0.948708 14.0019 0.348625 13.7999 0.103088 13.3052C-0.142448 12.8105 0.0595398 12.2105 0.554245 11.9649L0.998825 12.8607L1.44341 13.7564ZM59.2632 9.37872L60.1715 8.96047L59.2632 9.37872ZM45.3354 50.2333L45.4781 49.2436L45.3354 50.2333ZM26.533 27.4847L25.5458 27.3256L26.533 27.4847ZM64.1378 23.3064L64.6505 22.4478V22.4478L64.1378 23.3064ZM71.566 70.8928L71.5025 71.8908L71.566 70.8928ZM51.3709 57.8936L52.3118 57.5551L51.3709 57.8936ZM88.7435 45.1265L88.2181 45.9774V45.9774L88.7435 45.1265ZM96.8183 82.3857C96.3682 82.7057 95.7439 82.6002 95.4239 82.1501L90.2091 74.8149C89.889 74.3648 89.9945 73.7404 90.4447 73.4204C90.8948 73.1004 91.5191 73.2059 91.8391 73.656L96.4745 80.1762L102.995 75.5408C103.445 75.2208 104.069 75.3263 104.389 75.7764C104.709 76.2266 104.604 76.8509 104.154 77.1709L96.8183 82.3857ZM0.998825 12.8607C0.554245 11.9649 0.554611 11.9647 0.555168 11.9645C0.555603 11.9642 0.556343 11.9639 0.557205 11.9634C0.558929 11.9626 0.561401 11.9614 0.564606 11.9598C0.571007 11.9566 0.580345 11.952 0.592583 11.946C0.61705 11.934 0.653099 11.9163 0.700386 11.8932C0.794968 11.847 0.934532 11.7793 1.11639 11.6922C1.48009 11.518 2.01305 11.266 2.69377 10.9532C4.05504 10.3276 6.00813 9.45823 8.38097 8.48042C13.1229 6.52634 19.5583 4.13206 26.3055 2.38724C33.0361 0.646741 40.1588 -0.469657 46.2458 0.193827C52.3523 0.859451 57.5869 3.34725 60.1715 8.96047L59.2632 9.37872L58.3548 9.79696C56.1727 5.05779 51.7408 2.80464 46.029 2.18205C40.2976 1.55732 33.4501 2.60546 26.8063 4.32354C20.1791 6.03731 13.836 8.39566 9.14297 10.3296C6.79835 11.2957 4.86987 12.1542 3.52892 12.7705C2.85854 13.0785 2.33524 13.326 1.98045 13.4959C1.80308 13.5809 1.66784 13.6465 1.57743 13.6906C1.53223 13.7127 1.49824 13.7294 1.47579 13.7404C1.46456 13.7459 1.45622 13.7501 1.45081 13.7527C1.44811 13.7541 1.44614 13.755 1.4449 13.7557C1.44428 13.756 1.44391 13.7561 1.4436 13.7563C1.44341 13.7564 1.44341 13.7564 0.998825 12.8607ZM59.2632 9.37872L60.1715 8.96047C63.8037 16.8487 64.4971 27.9044 62.1663 36.7054C60.999 41.1127 59.0489 45.0492 56.2325 47.7403C53.3832 50.4629 49.6831 51.8703 45.1928 51.2231L45.3354 50.2333L45.4781 49.2436C49.3298 49.7987 52.4229 48.6142 54.8508 46.2943C57.3115 43.943 59.1224 40.3864 60.2329 36.1934C62.4575 27.7938 61.7728 17.2199 58.3548 9.79696L59.2632 9.37872ZM45.3354 50.2333L45.1928 51.2231C33.3846 49.5213 23.5994 39.397 25.5458 27.3256L26.533 27.4847L27.5203 27.6439C25.7973 38.3299 34.4707 47.6572 45.4781 49.2436L45.3354 50.2333ZM26.533 27.4847L25.5458 27.3256C26.1801 23.3913 28.1996 20.5849 31.0837 18.7666C33.9333 16.97 37.5689 16.1713 41.4376 16.0849C49.1676 15.9123 58.1643 18.5751 64.6505 22.4478L64.1378 23.3064L63.6252 24.165C57.4248 20.4629 48.795 17.9211 41.4823 18.0844C37.8297 18.166 34.5898 18.9205 32.1503 20.4585C29.7453 21.9748 28.062 24.2844 27.5203 27.6439L26.533 27.4847ZM64.1378 23.3064L64.6505 22.4478C68.886 24.9767 72.6476 29.3858 75.6149 34.4735C78.5892 39.5733 80.8127 45.4354 81.9272 50.9652C83.036 56.4669 83.0732 61.7724 81.5251 65.6845C80.7438 67.6588 79.5444 69.3116 77.8459 70.4228C76.1437 71.5364 74.0241 72.051 71.5025 71.8908L71.566 70.8928L71.6294 69.8948C73.8005 70.0328 75.473 69.5852 76.751 68.7492C78.0326 67.9107 79.0015 66.6264 79.6654 64.9486C81.0076 61.5568 81.0425 56.699 79.9666 51.3603C78.8963 46.0496 76.7526 40.3941 73.8872 35.4811C71.0148 30.5561 67.4643 26.4573 63.6252 24.165L64.1378 23.3064ZM71.566 70.8928L71.5025 71.8908C61.9294 71.2824 53.7925 67.5809 50.4299 58.232L51.3709 57.8936L52.3118 57.5551C55.2981 65.8577 62.4817 69.3135 71.6294 69.8948L71.566 70.8928ZM51.3709 57.8936L50.4299 58.232C48.9904 54.2299 49.9598 50.7317 52.4158 47.9718C54.8232 45.2664 58.6276 43.2909 62.9037 42.0675C71.4279 39.6285 82.3911 40.0284 89.269 44.2757L88.7435 45.1265L88.2181 45.9774C81.9734 42.1211 71.6402 41.648 63.4538 43.9903C59.3745 45.1575 55.97 46.9861 53.9099 49.3013C51.8982 51.562 51.1413 54.3008 52.3118 57.5551L51.3709 57.8936ZM88.7435 45.1265L89.269 44.2757C92.6311 46.3518 94.7539 49.8245 96.0772 53.7201C97.4021 57.6202 97.9603 62.0425 98.1265 66.1713C98.2931 70.3074 98.0678 74.1939 97.802 77.0428C97.6689 78.4686 97.5254 79.6378 97.4148 80.4524C97.3595 80.8597 97.3124 81.1786 97.279 81.3968C97.2623 81.5059 97.249 81.5898 97.2397 81.6471C97.2351 81.6757 97.2315 81.6977 97.229 81.7128C97.2278 81.7203 97.2268 81.7262 97.2261 81.7302C97.2258 81.7323 97.2255 81.7339 97.2253 81.7351C97.2252 81.7357 97.2251 81.7362 97.2251 81.7365C97.225 81.737 97.2249 81.7373 96.2389 81.5707C95.2529 81.4041 95.2529 81.4042 95.2529 81.4042C95.2529 81.4041 95.2529 81.404 95.2529 81.4037C95.253 81.4031 95.2532 81.4021 95.2535 81.4006C95.2539 81.3977 95.2547 81.3931 95.2558 81.3868C95.2578 81.3741 95.261 81.3546 95.2653 81.3285C95.2737 81.2763 95.2862 81.1975 95.3021 81.0938C95.3339 80.8862 95.3793 80.5787 95.433 80.1834C95.5403 79.3926 95.6805 78.2514 95.8106 76.857C96.0711 74.0654 96.29 70.2724 96.1281 66.2518C95.9659 62.2238 95.423 58.0122 94.1835 54.3633C92.9424 50.7099 91.0375 47.7184 88.2181 45.9774L88.7435 45.1265Z"
              fill="#0ED70E" />
          </svg>