<svg width="180" height="30" viewBox="0 0 180 30" fill="none" xmlns="http://www.w3.org/2000/svg">
              <g clip-path="url(#clip0_24303_2271)">
                <path
                  d="M156.934 24.0957V9.16163H160.847V11.8199H161.035C161.347 10.9382 161.867 10.2436 162.597 9.73602C163.327 9.22844 164.196 8.97461 165.202 8.97461C166.226 8.97461 167.095 9.2329 167.807 9.74941C168.528 10.257 169.009 10.9471 169.25 11.8199H169.41C169.713 10.9561 170.265 10.2659 171.067 9.74941C171.868 9.2329 172.812 8.97461 173.898 8.97461C175.287 8.97461 176.418 9.41546 177.291 10.2971C178.173 11.1787 178.613 12.4299 178.613 14.0506V24.0957H174.473V14.8788C174.473 14.0417 174.25 13.4183 173.805 13.0087C173.368 12.599 172.82 12.3942 172.162 12.3942C171.413 12.3942 170.826 12.6347 170.398 13.1156C169.98 13.5876 169.771 14.2109 169.771 14.9857V24.0957H165.763V14.7719C165.763 14.0506 165.554 13.4762 165.135 13.0488C164.717 12.6124 164.169 12.3942 163.493 12.3942C163.029 12.3942 162.615 12.51 162.25 12.7416C161.885 12.9731 161.595 13.2937 161.382 13.7033C161.168 14.104 161.061 14.5849 161.061 15.146V24.0957H156.934Z"
                  fill="#2E2E2E" />
                <path
                  d="M151.045 17.7508V9.16162H155.172V24.0957H151.205V21.3841H151.045C150.707 22.2479 150.15 22.9514 149.375 23.4946C148.6 24.029 147.652 24.2916 146.53 24.2827C145.532 24.2827 144.651 24.0601 143.885 23.6148C143.128 23.1606 142.536 22.5151 142.108 21.6779C141.69 20.8408 141.48 19.839 141.48 18.6724V9.16162H145.608V17.9511C145.608 18.8238 145.844 19.5184 146.316 20.0349C146.788 20.5425 147.416 20.7919 148.2 20.783C148.698 20.783 149.161 20.6717 149.589 20.449C150.016 20.2175 150.363 19.8746 150.63 19.4205C150.906 18.9663 151.045 18.4097 151.045 17.7508Z"
                  fill="#2E2E2E" />
                <path
                  d="M140.08 13.4228L136.299 13.6499C136.201 13.1779 135.938 12.7728 135.511 12.4343C135.083 12.087 134.509 11.9134 133.788 11.9134C133.147 11.9134 132.608 12.047 132.171 12.3141C131.744 12.5813 131.53 12.9375 131.53 13.3827C131.53 13.739 131.669 14.0461 131.944 14.3044C132.229 14.5538 132.715 14.7497 133.401 14.8921L136.112 15.4265C137.564 15.7204 138.645 16.1968 139.358 16.8558C140.071 17.5147 140.426 18.383 140.426 19.4606C140.426 20.449 140.142 21.3129 139.572 22.052C139.002 22.7822 138.218 23.3566 137.221 23.7751C136.223 24.1848 135.079 24.3896 133.788 24.3896C131.811 24.3896 130.234 23.9755 129.059 23.1473C127.892 22.3191 127.211 21.197 127.016 19.7811L131.063 19.5674C131.197 20.173 131.499 20.6316 131.971 20.9433C132.443 21.2549 133.049 21.4108 133.788 21.4108C134.509 21.4108 135.092 21.2683 135.538 20.9833C135.991 20.6984 136.219 20.3377 136.219 19.9013C136.219 19.1622 135.578 18.6635 134.295 18.4053L131.718 17.871C130.266 17.5771 129.184 17.074 128.471 16.3616C127.759 15.6491 127.403 14.7363 127.403 13.6231C127.403 12.6614 127.665 11.8332 128.191 11.1386C128.716 10.444 129.451 9.90966 130.395 9.53568C131.348 9.16163 132.461 8.97461 133.734 8.97461C135.622 8.97461 137.105 9.37537 138.182 10.1769C139.269 10.9694 139.901 12.0514 140.08 13.4228Z"
                  fill="#2E2E2E" />
                <path
                  d="M112.02 29.6793V9.16163H116.081V11.6863H116.267C116.454 11.2766 116.721 10.8626 117.069 10.444C117.416 10.0255 117.87 9.67815 118.431 9.40207C118.993 9.11715 119.687 8.97461 120.515 8.97461C121.611 8.97461 122.612 9.25961 123.521 9.82954C124.438 10.3905 125.173 11.241 125.724 12.3809C126.277 13.5208 126.553 14.9456 126.553 16.6554C126.553 18.3118 126.286 19.7143 125.751 20.8631C125.217 22.003 124.491 22.8668 123.574 23.4546C122.666 24.0423 121.641 24.3361 120.501 24.3361C119.7 24.3361 119.019 24.2026 118.458 23.9355C117.897 23.6682 117.439 23.3344 117.082 22.9336C116.735 22.5239 116.463 22.1143 116.267 21.7047H116.147V29.6793H112.02ZM119.192 21.0501C119.869 21.0501 120.439 20.8631 120.902 20.4891C121.366 20.1151 121.718 19.5986 121.958 18.9396C122.198 18.2717 122.318 17.5059 122.318 16.642C122.318 15.7782 122.198 15.0213 121.958 14.3712C121.726 13.7122 121.379 13.1958 120.916 12.8217C120.452 12.4477 119.878 12.2607 119.192 12.2607C118.525 12.2607 117.955 12.4432 117.483 12.8083C117.02 13.1646 116.664 13.6722 116.414 14.3311C116.174 14.9812 116.053 15.7515 116.053 16.642C116.053 17.5237 116.179 18.294 116.427 18.953C116.677 19.612 117.033 20.1285 117.496 20.5024C117.968 20.8676 118.534 21.0501 119.192 21.0501Z"
                  fill="#2E2E2E" />
                <path
                  d="M106.13 24.0958V9.16172H110.258V24.0958H106.13ZM108.187 7.25157C107.573 7.25157 107.047 7.04674 106.611 6.6371C106.175 6.22746 105.957 5.73322 105.957 5.15439C105.957 4.57554 106.175 4.08576 106.611 3.68502C107.047 3.27538 107.573 3.07056 108.187 3.07056C108.811 3.07056 109.34 3.27538 109.777 3.68502C110.213 4.08576 110.431 4.57554 110.431 5.15439C110.431 5.73322 110.213 6.22746 109.777 6.6371C109.34 7.04674 108.811 7.25157 108.187 7.25157Z"
                  fill="#2E2E2E" />
                <path
                  d="M97.6379 24.3896C96.1327 24.3896 94.8281 24.069 93.724 23.4278C92.6286 22.7778 91.7827 21.8783 91.1857 20.7296C90.5981 19.5719 90.3047 18.2272 90.3047 16.6955C90.3047 15.146 90.5981 13.7969 91.1857 12.6481C91.7827 11.4904 92.6286 10.591 93.724 9.94976C94.8281 9.29971 96.1327 8.97461 97.6379 8.97461C99.1518 8.97461 100.456 9.29971 101.552 9.94976C102.656 10.591 103.502 11.4904 104.089 12.6481C104.686 13.7969 104.985 15.146 104.985 16.6955C104.985 18.2272 104.686 19.5719 104.089 20.7296C103.502 21.8783 102.656 22.7778 101.552 23.4278C100.456 24.069 99.1518 24.3896 97.6379 24.3896ZM97.6642 21.157C98.3505 21.157 98.9249 20.9655 99.3874 20.5826C99.8505 20.1908 100.198 19.6564 100.429 18.9797C100.67 18.3029 100.79 17.5326 100.79 16.6687C100.79 15.796 100.67 15.0258 100.429 14.3579C100.198 13.69 99.8505 13.1646 99.3874 12.7816C98.9249 12.3987 98.3505 12.2072 97.6642 12.2072C96.9698 12.2072 96.3866 12.3987 95.9147 12.7816C95.4515 13.1646 95.0996 13.69 94.8596 14.3579C94.6276 15.0258 94.512 15.796 94.512 16.6687C94.512 17.5326 94.6276 18.3029 94.8596 18.9797C95.0996 19.6564 95.4515 20.1908 95.9147 20.5826C96.3866 20.9655 96.9698 21.157 97.6642 21.157Z"
                  fill="#2E2E2E" />
                <path
                  d="M81.8796 29.9999C79.8667 29.9999 78.2906 29.5992 77.1506 28.7977C76.0106 28.0051 75.3162 27.0166 75.0667 25.8323L78.8876 25.3247C79.0033 25.6275 79.1854 25.9079 79.435 26.1662C79.6845 26.4244 80.0181 26.6292 80.4367 26.7806C80.8552 26.941 81.3674 27.0211 81.9733 27.0211C82.8725 27.0211 83.6159 26.803 84.2035 26.3666C84.7918 25.9391 85.0852 25.2133 85.0852 24.1892V21.4509H84.9118C84.7333 21.8605 84.4618 22.2523 84.0967 22.6264C83.7315 23.0004 83.264 23.3032 82.694 23.5347C82.124 23.7662 81.4428 23.882 80.6503 23.882C79.5286 23.882 78.5086 23.6238 77.5918 23.1072C76.683 22.5819 75.9528 21.7804 75.4011 20.7029C74.8574 19.6253 74.5859 18.2628 74.5859 16.6153C74.5859 14.9145 74.8618 13.4985 75.4142 12.3675C75.9755 11.2365 76.7145 10.3905 77.6313 9.82954C78.5489 9.25961 79.555 8.97461 80.6503 8.97461C81.4874 8.97461 82.1869 9.11715 82.7474 9.40207C83.3174 9.67815 83.7806 10.0255 84.1369 10.444C84.4933 10.8626 84.7603 11.2766 84.9381 11.6863H85.0984V9.16163H89.1725V24.256C89.1725 25.5206 88.8608 26.5803 88.2381 27.4352C87.6147 28.2901 86.755 28.9313 85.6596 29.3587C84.5642 29.7862 83.3042 29.9999 81.8796 29.9999ZM81.9594 20.7697C82.9567 20.7697 83.7272 20.4001 84.2708 19.6609C84.8225 18.9218 85.0984 17.8977 85.0984 16.5886C85.0984 15.7159 84.974 14.959 84.7245 14.3178C84.4845 13.6677 84.1325 13.1646 83.6694 12.8083C83.2062 12.4432 82.6362 12.2607 81.9594 12.2607C81.2825 12.2607 80.7081 12.4477 80.2362 12.8217C79.773 13.1868 79.4218 13.6944 79.1811 14.3445C78.9411 14.9946 78.8203 15.7426 78.8203 16.5886C78.8203 17.4435 78.9411 18.1871 79.1811 18.8194C79.4218 19.4428 79.773 19.9237 80.2362 20.262C80.7081 20.6004 81.2825 20.7697 81.9594 20.7697Z"
                  fill="#2E2E2E" />
                <path
                  d="M66.7046 24.3896C65.1996 24.3896 63.8949 24.069 62.7907 23.4278C61.6954 22.7778 60.8494 21.8783 60.2527 20.7296C59.665 19.5719 59.3711 18.2272 59.3711 16.6955C59.3711 15.146 59.665 13.7969 60.2527 12.6481C60.8494 11.4904 61.6954 10.591 62.7907 9.94976C63.8949 9.29971 65.1996 8.97461 66.7046 8.97461C68.2185 8.97461 69.5231 9.29971 70.6185 9.94976C71.7227 10.591 72.5687 11.4904 73.1565 12.6481C73.7532 13.7969 74.0517 15.146 74.0517 16.6955C74.0517 18.2272 73.7532 19.5719 73.1565 20.7296C72.5687 21.8783 71.7227 22.7778 70.6185 23.4278C69.5231 24.069 68.2185 24.3896 66.7046 24.3896ZM66.7313 21.157C67.417 21.157 67.9914 20.9655 68.4544 20.5826C68.9175 20.1908 69.2649 19.6564 69.4964 18.9797C69.7368 18.3029 69.857 17.5326 69.857 16.6687C69.857 15.796 69.7368 15.0258 69.4964 14.3579C69.2649 13.69 68.9175 13.1646 68.4544 12.7816C67.9914 12.3987 67.417 12.2072 66.7313 12.2072C66.0367 12.2072 65.4534 12.3987 64.9814 12.7816C64.5184 13.1646 64.1666 13.69 63.9261 14.3579C63.6946 15.0258 63.5788 15.796 63.5788 16.6687C63.5788 17.5326 63.6946 18.3029 63.9261 18.9797C64.1666 19.6564 64.5184 20.1908 64.9814 20.5826C65.4534 20.9655 66.0367 21.157 66.7313 21.157Z"
                  fill="#2E2E2E" />
                <path d="M46.0977 24.0958V4.19263H50.292V20.6228H58.8277V24.0958H46.0977Z" fill="#2E2E2E" />
                <path
                  d="M27.362 29.2683C32.0689 29.1724 35.8537 25.3224 35.8537 20.5894C35.8537 18.2876 34.9399 16.0801 33.3133 14.4525L18.8704 0V8.98324C18.8704 10.4856 19.4668 11.9265 20.5285 12.9888L23.9118 16.3744L23.921 16.3834L29.594 22.0602C29.7783 22.2446 29.7783 22.5435 29.594 22.7278C29.4099 22.9122 29.1111 22.9122 28.927 22.7278L26.9715 20.771H8.88219L6.92674 22.7278C6.74251 22.9122 6.44381 22.9122 6.25958 22.7278C6.07534 22.5435 6.07534 22.2446 6.25957 22.0602L11.9326 16.3834L11.9418 16.3744L15.3252 12.9888C16.3869 11.9265 16.9833 10.4856 16.9833 8.98324V0L2.5403 14.4525C0.913771 16.0801 0 18.2876 0 20.5894C0 25.3224 3.78477 29.1724 8.49168 29.2683H27.362Z"
                  fill="#FF0A0A" />
              </g>
              <defs>
                <clipPath id="clip0_24303_2271">
                  <rect width="179.268" height="30" fill="white" />
                </clipPath>
              </defs>
            </svg>