<svg width="141" height="30" viewBox="0 0 141 30" fill="none" xmlns="http://www.w3.org/2000/svg">
              <g clip-path="url(#clip0_24303_2310)">
                <path fill-rule="evenodd" clip-rule="evenodd"
                  d="M14.901 3.42525L16.8788 0L22.4858 3.23775L20.5088 6.66225C20.1615 7.263 20.6813 7.9935 21.3623 7.86225L25.1513 7.131L26.3775 13.4888L22.5885 14.2192C16.4595 15.4012 11.7803 8.83125 14.901 3.42525Z"
                  fill="#3A724F" />
                <path fill-rule="evenodd" clip-rule="evenodd"
                  d="M11.4765 26.5748L9.49875 30L3.891 26.763L5.86875 23.3378C6.216 22.737 5.69625 22.0065 5.0145 22.1378L1.22625 22.8683L0 16.5113L3.789 15.7808C9.918 14.5988 14.5965 21.1688 11.4765 26.5748Z"
                  fill="#DC8E43" />
                <path fill-rule="evenodd" clip-rule="evenodd"
                  d="M11.6469 3.42525L9.66988 0L4.06212 3.23775L6.03987 6.66225C6.38637 7.263 5.86737 7.9935 5.18562 7.86225L1.39663 7.131L0.171875 13.4888L3.96013 14.2192C10.0899 15.4012 14.7691 8.83125 11.6476 3.42525H11.6469Z"
                  fill="#14424C" />
                <path fill-rule="evenodd" clip-rule="evenodd"
                  d="M14.7381 26.5748L16.7144 30L22.3221 26.763L20.3444 23.3378C19.9979 22.737 20.5169 22.0065 21.1986 22.1378L24.9869 22.8683L26.2131 16.5113L22.4241 15.7808C16.2951 14.5988 11.6166 21.1688 14.7366 26.5748H14.7381Z"
                  fill="#C85D1B" />
                <path
                  d="M122.335 22.6147V16.2397C122.335 15.3562 122.538 14.5635 122.945 13.8622C123.366 13.1467 123.962 12.5858 124.733 12.1785C125.505 11.772 126.424 11.5687 127.49 11.5687C127.987 11.5639 128.483 11.6275 128.963 11.7577C129.412 11.8702 129.819 12.0315 130.183 12.2415C130.562 12.438 130.884 12.6765 131.151 12.957H131.193C131.479 12.6725 131.805 12.4314 132.161 12.2415C132.552 12.0264 132.969 11.8637 133.403 11.7577C133.89 11.6284 134.393 11.5649 134.897 11.5687C135.963 11.5687 136.881 11.7713 137.653 12.1785C138.424 12.5858 139.02 13.146 139.441 13.8622C139.862 14.5635 140.073 15.3555 140.073 16.2397V22.6147H136.79V16.3447C136.79 15.9945 136.699 15.6787 136.517 15.3982C136.349 15.1049 136.111 14.8587 135.822 14.6827C135.518 14.4978 135.168 14.4028 134.812 14.409C134.433 14.409 134.09 14.5005 133.782 14.6827C133.493 14.8585 133.254 15.1047 133.087 15.3982C132.917 15.6843 132.829 16.0119 132.834 16.3447V22.6147H129.573V16.3447C129.573 15.9945 129.482 15.6787 129.299 15.3982C129.129 15.1006 128.882 14.8537 128.584 14.6827C128.28 14.4978 127.93 14.4028 127.574 14.409C127.195 14.409 126.852 14.5005 126.543 14.6827C126.255 14.8585 126.016 15.1047 125.849 15.3982C125.679 15.6845 125.592 16.012 125.596 16.3447V22.6147H122.335ZM115.202 22.8675C114.094 22.8675 113.132 22.6575 112.319 22.236C111.52 21.801 110.903 21.219 110.468 20.49C110.033 19.7467 109.815 18.9255 109.815 18.0277V11.8207H113.077V17.9437C113.077 18.3225 113.168 18.6735 113.35 18.996C113.532 19.3042 113.778 19.557 114.086 19.7535C114.409 19.9357 114.774 20.0272 115.181 20.0272C115.574 20.0272 115.924 19.9357 116.233 19.7535C116.555 19.557 116.808 19.3042 116.991 18.996C117.173 18.6735 117.264 18.3225 117.264 17.9437V11.8207H120.525V18.0277C120.525 18.9255 120.314 19.7467 119.894 20.49C119.473 21.219 118.863 21.8017 118.064 22.236C117.278 22.6567 116.324 22.8675 115.202 22.8675ZM99.31 22.6147V20.0272H104.507C104.648 20.0272 104.774 19.9987 104.886 19.9425C104.998 19.8727 105.089 19.7812 105.159 19.6695C105.228 19.559 105.264 19.4314 105.264 19.3012C105.264 19.1711 105.228 19.0435 105.159 18.933C105.094 18.8248 104.999 18.7373 104.886 18.6802C104.773 18.6098 104.641 18.5734 104.507 18.5752H102.614C101.912 18.5752 101.274 18.4627 100.699 18.2385C100.153 18.0124 99.6851 17.6322 99.352 17.1442C99.0295 16.6395 98.8682 15.987 98.8682 15.1875C98.8682 14.5702 99.0153 14.0092 99.31 13.5045C99.6166 13.0013 100.043 12.5818 100.551 12.2835C101.082 11.9757 101.685 11.8159 102.298 11.8207H107.495V14.43H102.803C102.616 14.4263 102.436 14.4942 102.298 14.6197C102.236 14.6799 102.188 14.7519 102.155 14.8315C102.123 14.9111 102.107 14.9965 102.108 15.0825C102.108 15.279 102.172 15.447 102.298 15.5873C102.436 15.7128 102.616 15.7807 102.803 15.777H104.654C105.44 15.777 106.113 15.8962 106.674 16.134C107.25 16.359 107.691 16.7235 108 17.229C108.323 17.7337 108.484 18.3855 108.484 19.185C108.484 19.8165 108.323 20.3917 108 20.91C107.694 21.4266 107.259 21.8546 106.737 22.152C106.218 22.461 105.629 22.6147 104.97 22.6147H99.31ZM92.2045 11.5687C93.1165 11.5687 93.9228 11.7157 94.624 12.0105C95.3128 12.2731 95.932 12.6906 96.4337 13.2308C96.9451 13.76 97.3394 14.3909 97.591 15.0825C97.8572 15.7837 97.9907 16.5622 97.9907 17.418C97.9907 18.4837 97.7665 19.431 97.3173 20.2582C96.9023 21.0511 96.2762 21.7137 95.5083 22.173C94.7365 22.6357 93.8387 22.8675 92.815 22.8675C92.38 22.8675 91.966 22.8112 91.573 22.6995C91.2008 22.5901 90.8465 22.4268 90.5215 22.215C90.2151 22.0071 89.9509 21.7429 89.743 21.4365H89.6792V27.1815H86.4182V17.4172C86.4182 16.2247 86.6568 15.1935 87.1338 14.3243C87.5961 13.4686 88.2981 12.7665 89.1535 12.3038C90.0235 11.8133 91.0405 11.568 92.2045 11.568V11.5687ZM92.2045 14.388C91.6998 14.388 91.258 14.514 90.8792 14.7667C90.514 15.0052 90.2335 15.342 90.037 15.777C89.8413 16.197 89.743 16.6747 89.743 17.2072C89.743 17.7405 89.8413 18.2175 90.037 18.6382C90.2335 19.059 90.514 19.3957 90.8792 19.6485C91.258 19.887 91.6998 20.0062 92.2045 20.0062C92.7093 20.0062 93.1443 19.8862 93.5088 19.6485C93.8756 19.394 94.1666 19.0449 94.351 18.6382C94.561 18.2175 94.666 17.7405 94.666 17.2072C94.666 16.6747 94.561 16.1977 94.351 15.777C94.1545 15.342 93.874 15.0045 93.5088 14.7667C93.1443 14.514 92.7093 14.388 92.2045 14.388ZM81.4622 22.6147V11.8207H84.745V22.6147H81.4622ZM83.1033 10.6005C82.5843 10.6005 82.1358 10.4115 81.757 10.0327C81.3783 9.654 81.1885 9.20475 81.1885 8.68575C81.1885 8.16675 81.3783 7.71825 81.757 7.3395C82.1358 6.9465 82.5843 6.75 83.1033 6.75C83.6223 6.75 84.0715 6.9465 84.4502 7.3395C84.829 7.71825 85.018 8.16675 85.018 8.68575C85.018 9.20475 84.829 9.65325 84.4502 10.0327C84.0715 10.4115 83.6223 10.6005 83.1033 10.6005ZM74.3283 22.8675C73.2205 22.8675 72.2245 22.6222 71.3403 22.131C70.4728 21.6555 69.7469 20.9586 69.2365 20.1112C68.7318 19.2555 68.479 18.2947 68.479 17.2282C68.479 16.1482 68.7318 15.1875 69.2365 14.346C69.7469 13.4987 70.4728 12.8017 71.3403 12.3262C72.2245 11.8207 73.2205 11.5687 74.3283 11.5687C75.4368 11.5687 76.4252 11.8207 77.2952 12.3262C78.1596 12.7984 78.8795 13.4965 79.378 14.346C79.897 15.1875 80.1565 16.1482 80.1565 17.2282C80.1565 18.2947 79.897 19.2555 79.378 20.1112C78.8795 20.9607 78.1596 21.6588 77.2952 22.131C76.4117 22.6222 75.4225 22.8675 74.3283 22.8675ZM74.3283 20.0272C74.8473 20.0272 75.2965 19.9005 75.6753 19.6485C76.0541 19.396 76.359 19.0474 76.5588 18.6382C76.7695 18.2175 76.8745 17.7405 76.8745 17.2072C76.8745 16.6882 76.7695 16.2187 76.5588 15.7972C76.3589 15.3884 76.054 15.04 75.6753 14.7877C75.2965 14.535 74.8473 14.409 74.3283 14.409C73.8093 14.409 73.3532 14.535 72.961 14.7877C72.582 15.0402 72.2768 15.3889 72.0767 15.798C71.8624 16.2367 71.7545 16.7198 71.7617 17.208C71.7617 17.7405 71.8667 18.2175 72.0767 18.6382C72.2769 19.0473 72.582 19.396 72.961 19.6485C73.3532 19.9005 73.8093 20.0272 74.3283 20.0272ZM57.88 26.8867V24.0877H63.2658C63.4765 24.0877 63.652 24.018 63.7922 23.8777C63.8606 23.8173 63.9149 23.7426 63.9512 23.6589C63.9875 23.5751 64.0049 23.4845 64.0022 23.3932V21.0157H63.9392C63.6728 21.3256 63.369 21.6012 63.0347 21.8362C62.7257 22.0612 62.3747 22.2292 61.9825 22.3417C61.565 22.4591 61.1328 22.5156 60.6992 22.5097C59.7452 22.5097 58.8895 22.2847 58.132 21.8362C57.3888 21.3735 56.7993 20.7352 56.3643 19.9215C55.9443 19.1085 55.7335 18.1822 55.7335 17.1442C55.7335 16.1205 55.951 15.1875 56.386 14.346C56.8345 13.5045 57.487 12.831 58.3428 12.3262C59.1978 11.8207 60.2433 11.5687 61.4778 11.5687C62.656 11.5687 63.673 11.814 64.5288 12.3052C65.3881 12.7717 66.0907 13.4813 66.5485 14.3453C67.0255 15.2152 67.264 16.2397 67.264 17.418V23.73C67.264 24.6975 66.9768 25.4625 66.4015 26.0235C65.8405 26.5987 65.062 26.886 64.066 26.886L57.88 26.8867ZM61.4988 19.7745C62.0035 19.7745 62.4385 19.662 62.8037 19.4377C63.1641 19.2037 63.4546 18.8767 63.6445 18.4912C63.844 18.0855 63.945 17.6384 63.9392 17.1862C63.9392 16.6815 63.8418 16.2187 63.6453 15.798C63.4488 15.3772 63.1682 15.0472 62.803 14.8087C62.4385 14.556 62.0035 14.43 61.498 14.43C61.0075 14.43 60.5725 14.5492 60.1938 14.7877C59.8293 15.0262 59.5488 15.3487 59.3523 15.7552C59.1565 16.1625 59.0583 16.6177 59.0583 17.1232C59.0583 17.6145 59.1558 18.063 59.3523 18.4702C59.5488 18.8625 59.8293 19.1782 60.1945 19.4167C60.5725 19.6552 61.0075 19.7745 61.4988 19.7745ZM49.1042 22.8675C47.9965 22.8675 47.0005 22.6222 46.117 22.131C45.2493 21.6557 44.5231 20.9587 44.0125 20.1112C43.5077 19.2555 43.255 18.2947 43.255 17.2282C43.255 16.1482 43.5077 15.1875 44.0125 14.346C44.5231 13.4985 45.2493 12.8016 46.117 12.3262C47.0005 11.8207 47.9965 11.5687 49.1042 11.5687C50.2127 11.5687 51.2013 11.8207 52.0713 12.3262C52.9356 12.7985 53.6554 13.4966 54.154 14.346C54.673 15.1875 54.9325 16.1482 54.9325 17.2282C54.9325 18.2947 54.673 19.2555 54.154 20.1112C53.6554 20.9607 52.9356 21.6587 52.0713 22.131C51.1878 22.6222 50.1985 22.8675 49.1042 22.8675ZM49.1042 20.0272C49.6232 20.0272 50.0717 19.9005 50.4512 19.6485C50.8299 19.3959 51.1348 19.0472 51.3347 18.6382C51.5447 18.2175 51.6497 17.7405 51.6497 17.2072C51.6497 16.6882 51.5447 16.2187 51.3347 15.7972C51.1347 15.3885 50.8299 15.0402 50.4512 14.7877C50.0725 14.535 49.6232 14.409 49.1042 14.409C48.5852 14.409 48.1293 14.535 47.737 14.7877C47.358 15.0402 47.0528 15.3889 46.8528 15.798C46.6385 16.2367 46.5306 16.7198 46.5377 17.208C46.5377 17.7405 46.6428 18.2175 46.8528 18.6382C47.0529 19.0473 47.358 19.396 47.737 19.6485C48.1293 19.9005 48.5852 20.0272 49.1042 20.0272ZM38.6598 22.6147C37.7478 22.6147 36.9482 22.4122 36.2612 22.005C35.5931 21.6176 35.0409 21.0582 34.6622 20.385C34.2835 19.7115 34.0938 18.9675 34.0938 18.1545V7.88625H37.6285V18.4065C37.6285 18.744 37.7485 19.038 37.9862 19.2907C38.2247 19.5427 38.5188 19.6695 38.8698 19.6695H42.7622V22.6147H38.6598Z"
                  fill="#14424C" />
              </g>
              <defs>
                <clipPath id="clip0_24303_2310">
                  <rect width="140.25" height="30" fill="white" />
                </clipPath>
              </defs>
            </svg>