<svg width="391" height="242" viewBox="0 0 391 242" fill="none" xmlns="http://www.w3.org/2000/svg">
                <mask id="path-1-inside-1_24349_2515" fill="white">
                  <path
                    d="M329.53 106.239C330.078 98.4019 330.352 94.4833 328.789 91.4814C327.915 89.8016 326.655 88.3527 325.114 87.253C322.358 85.2877 318.44 85.0137 310.603 84.4656L276.133 82.0553C268.296 81.5072 264.377 81.2332 261.375 82.7959C259.695 83.6704 258.246 84.9299 257.147 86.4716C255.181 89.2269 254.907 93.1454 254.359 100.983L251.949 135.453C251.401 143.29 251.127 147.208 252.69 150.21C253.564 151.89 254.824 153.339 256.365 154.439C259.121 156.404 263.039 156.678 270.876 157.226L305.346 159.636C313.183 160.184 317.102 160.458 320.104 158.896C321.784 158.021 323.233 156.762 324.332 155.22C326.298 152.465 326.572 148.546 327.12 140.709L329.53 106.239Z" />
                </mask>
                <path
                  d="M329.53 106.239C330.078 98.4019 330.352 94.4833 328.789 91.4814C327.915 89.8016 326.655 88.3527 325.114 87.253C322.358 85.2877 318.44 85.0137 310.603 84.4656L276.133 82.0553C268.296 81.5072 264.377 81.2332 261.375 82.7959C259.695 83.6704 258.246 84.9299 257.147 86.4716C255.181 89.2269 254.907 93.1454 254.359 100.983L251.949 135.453C251.401 143.29 251.127 147.208 252.69 150.21C253.564 151.89 254.824 153.339 256.365 154.439C259.121 156.404 263.039 156.678 270.876 157.226L305.346 159.636C313.183 160.184 317.102 160.458 320.104 158.896C321.784 158.021 323.233 156.762 324.332 155.22C326.298 152.465 326.572 148.546 327.12 140.709L329.53 106.239Z"
                  fill="url(#paint0_linear_24349_2515)" />
                <path
                  d="M331.612 97.9641C332.132 90.5264 326.525 84.0753 319.087 83.5552L267.858 79.973C260.42 79.4529 253.969 85.0607 253.449 92.4984L256.442 92.7076C256.846 86.9228 261.864 82.5611 267.649 82.9656L318.878 86.5479C324.663 86.9525 329.024 91.9699 328.62 97.7548L331.612 97.9641ZM328.62 97.7548M250.526 155.803L325.697 161.059L250.526 155.803M313.726 160.222C321.164 160.742 327.615 155.135 328.135 147.697L331.612 97.9641C332.132 90.5264 326.525 84.0753 319.087 83.5552L318.878 86.5479C324.663 86.9525 329.024 91.9699 328.62 97.7548L325.037 148.984C324.575 155.595 319.511 160.627 313.726 160.222ZM267.858 79.973C260.42 79.4529 253.969 85.0607 253.449 92.4984L249.971 142.231C249.451 149.669 255.059 156.12 262.497 156.64C256.712 156.235 252.397 150.548 252.859 143.937L256.442 92.7076C256.846 86.9228 261.864 82.5611 267.649 82.9656L267.858 79.973Z"
                  fill="#F5F5F5" mask="url(#path-1-inside-1_24349_2515)" />
                <mask id="path-3-inside-2_24349_2515" fill="white">
                  <path
                    d="M137.55 106.239C138.098 98.4019 138.372 94.4833 136.809 91.4814C135.935 89.8016 134.675 88.3527 133.133 87.253C130.378 85.2877 126.459 85.0137 118.622 84.4656L84.1523 82.0553C76.3152 81.5072 72.3966 81.2332 69.3947 82.7959C67.7149 83.6704 66.2659 84.9299 65.1663 86.4716C63.201 89.2269 62.9269 93.1454 62.3789 100.983L59.9685 135.453C59.4205 143.29 59.1465 147.208 60.7092 150.21C61.5836 151.89 62.8432 153.339 64.3849 154.439C67.1402 156.404 71.0587 156.678 78.8958 157.226L113.366 159.636C121.203 160.184 125.122 160.458 128.123 158.896C129.803 158.021 131.252 156.762 132.352 155.22C134.317 152.465 134.591 148.546 135.139 140.709L137.55 106.239Z" />
                </mask>
                <path
                  d="M137.55 106.239C138.098 98.4019 138.372 94.4833 136.809 91.4814C135.935 89.8016 134.675 88.3527 133.133 87.253C130.378 85.2877 126.459 85.0137 118.622 84.4656L84.1523 82.0553C76.3152 81.5072 72.3966 81.2332 69.3947 82.7959C67.7149 83.6704 66.2659 84.9299 65.1663 86.4716C63.201 89.2269 62.9269 93.1454 62.3789 100.983L59.9685 135.453C59.4205 143.29 59.1465 147.208 60.7092 150.21C61.5836 151.89 62.8432 153.339 64.3849 154.439C67.1402 156.404 71.0587 156.678 78.8958 157.226L113.366 159.636C121.203 160.184 125.122 160.458 128.123 158.896C129.803 158.021 131.252 156.762 132.352 155.22C134.317 152.465 134.591 148.546 135.139 140.709L137.55 106.239Z"
                  fill="url(#paint1_linear_24349_2515)" />
                <path
                  d="M139.632 97.9641C140.152 90.5264 134.544 84.0753 127.107 83.5552L75.8774 79.973C68.4397 79.4529 61.9886 85.0607 61.4685 92.4984L64.4612 92.7076C64.8657 86.9228 69.8832 82.5611 75.6681 82.9656L126.897 86.5479C132.682 86.9525 137.044 91.9699 136.639 97.7548L139.632 97.9641ZM136.639 97.7548M58.5455 155.803L133.716 161.059L58.5455 155.803M121.745 160.222C129.183 160.742 135.634 155.135 136.154 147.697L139.632 97.9641C140.152 90.5264 134.544 84.0753 127.107 83.5552L126.897 86.5479C132.682 86.9525 137.044 91.9699 136.639 97.7548L133.057 148.984C132.595 155.595 127.53 160.627 121.745 160.222ZM75.8774 79.973C68.4397 79.4529 61.9886 85.0607 61.4685 92.4984L57.9909 142.231C57.4708 149.669 63.0786 156.12 70.5163 156.64C64.7314 156.235 60.4166 150.548 60.8789 143.937L64.4612 92.7076C64.8657 86.9228 69.8832 82.5611 75.6681 82.9656L75.8774 79.973Z"
                  fill="#F5F5F5" mask="url(#path-3-inside-2_24349_2515)" />
                <g filter="url(#filter0_d_24349_2515)">
                  <mask id="path-5-inside-3_24349_2515" fill="white">
                    <path
                      d="M261.142 71.8422C260.867 63.9907 260.73 60.065 258.862 57.2428C257.817 55.6637 256.413 54.3543 254.765 53.4218C251.819 51.7553 247.894 51.8924 240.042 52.1665L144.776 55.4933C136.925 55.7675 132.999 55.9046 130.177 57.7725C128.598 58.8177 127.289 60.2218 126.356 61.8701C124.689 64.8156 124.827 68.7414 125.101 76.5928L128.357 169.85C128.632 177.701 128.769 181.627 130.637 184.449C131.682 186.029 133.086 187.338 134.734 188.27C137.68 189.937 141.605 189.8 149.457 189.526L244.723 186.199C252.574 185.925 256.5 185.788 259.322 183.92C260.901 182.874 262.21 181.47 263.143 179.822C264.81 176.877 264.672 172.951 264.398 165.099L261.142 71.8422Z" />
                  </mask>
                  <path
                    d="M261.142 71.8422C260.867 63.9907 260.73 60.065 258.862 57.2428C257.817 55.6637 256.413 54.3543 254.765 53.4218C251.819 51.7553 247.894 51.8924 240.042 52.1665L144.776 55.4933C136.925 55.7675 132.999 55.9046 130.177 57.7725C128.598 58.8177 127.289 60.2218 126.356 61.8701C124.689 64.8156 124.827 68.7414 125.101 76.5928L128.357 169.85C128.632 177.701 128.769 181.627 130.637 184.449C131.682 186.029 133.086 187.338 134.734 188.27C137.68 189.937 141.605 189.8 149.457 189.526L244.723 186.199C252.574 185.925 256.5 185.788 259.322 183.92C260.901 182.874 262.21 181.47 263.143 179.822C264.81 176.877 264.672 172.951 264.398 165.099L261.142 71.8422Z"
                    fill="url(#paint2_linear_24349_2515)" shape-rendering="crispEdges" />
                  <path
                    d="M262.348 63.3949C262.087 55.9436 255.836 50.1141 248.385 50.3743L136.329 54.2874C128.878 54.5476 123.048 60.799 123.308 68.2503L126.307 68.1456C126.104 62.3501 130.638 57.4879 136.434 57.2855L248.489 53.3725C254.285 53.1701 259.147 57.7042 259.349 63.4996L262.348 63.3949ZM259.349 63.4996M129.069 190.238L265.11 185.487L129.069 190.238M253.118 185.906C260.569 185.646 266.398 179.394 266.138 171.943L262.348 63.3949C262.087 55.9436 255.836 50.1141 248.385 50.3743L248.489 53.3725C254.285 53.1701 259.147 57.7042 259.349 63.4996L263.192 173.547C263.424 180.17 258.913 185.703 253.118 185.906ZM136.329 54.2874C128.878 54.5476 123.048 60.799 123.308 68.2503L127.099 176.798C127.359 184.249 133.611 190.079 141.062 189.819C135.267 190.021 130.381 184.816 130.15 178.193L126.307 68.1456C126.104 62.3501 130.638 57.4879 136.434 57.2855L136.329 54.2874Z"
                    fill="#F5F5F5" mask="url(#path-5-inside-3_24349_2515)" />
                </g>
                <path
                  d="M45.9206 171.99C45.3453 172.586 45.3623 173.535 45.9584 174.111C46.5546 174.686 47.5042 174.669 48.0794 174.073L47 173.031L45.9206 171.99ZM149.773 169.484L149.283 168.067L149.773 169.484ZM203.103 139.928L203.887 138.649L203.103 139.928ZM390.562 161.067C391.148 160.481 391.148 159.531 390.562 158.945L381.016 149.399C380.43 148.814 379.481 148.814 378.895 149.399C378.309 149.985 378.309 150.935 378.895 151.521L387.38 160.006L378.895 168.491C378.309 169.077 378.309 170.027 378.895 170.613C379.481 171.198 380.43 171.198 381.016 170.613L390.562 161.067ZM47 173.031L48.0794 174.073C56.8309 165.003 63.5477 161.79 69.5487 161.417C75.6349 161.037 81.3016 163.533 88.1708 166.739C94.9585 169.907 102.749 173.67 112.709 175.26C122.7 176.856 134.787 176.259 150.264 170.901L149.773 169.484L149.283 168.067C134.224 173.279 122.637 173.808 113.182 172.298C103.698 170.783 96.2714 167.209 89.4397 164.021C82.6895 160.87 76.3336 157.988 69.3622 158.422C62.3055 158.862 54.9293 162.653 45.9206 171.99L47 173.031ZM149.773 169.484L150.264 170.901C155.689 169.024 160.124 165.066 164.079 160.655C166.063 158.442 167.959 156.076 169.809 153.758C171.669 151.428 173.479 149.15 175.332 147.054C179.058 142.837 182.783 139.563 187.022 138.22C191.159 136.91 196.05 137.364 202.319 141.207L203.103 139.928L203.887 138.649C197.063 134.467 191.271 133.728 186.116 135.36C181.064 136.96 176.887 140.764 173.084 145.067C171.172 147.231 169.311 149.573 167.464 151.886C165.608 154.212 163.763 156.512 161.845 158.652C157.994 162.948 153.976 166.442 149.283 168.067L149.773 169.484ZM203.103 139.928L202.319 141.207C209.793 145.788 217.33 151.319 225.187 156.851C233.016 162.363 241.133 167.853 249.652 172.244C266.735 181.048 285.551 185.488 307.163 176.941L306.612 175.546L306.06 174.151C285.514 182.276 267.631 178.135 251.027 169.577C242.703 165.287 234.729 159.9 226.914 154.398C219.128 148.916 211.468 143.296 203.887 138.649L203.103 139.928ZM306.612 175.546L307.163 176.941C328.322 168.573 337.475 164.766 347.048 162.999C356.629 161.23 366.618 161.506 389.501 161.506V160.006V158.506C366.809 158.506 356.433 158.216 346.503 160.048C336.565 161.883 327.06 165.846 306.06 174.151L306.612 175.546Z"
                  fill="url(#paint3_linear_24349_2515)" />
                <rect y="130.238" width="60" height="60" rx="30" fill="#0ED70E" />
                <path
                  d="M44.1654 160.238C44.1654 152.414 37.8227 146.071 29.9987 146.071C22.1747 146.071 15.832 152.414 15.832 160.238C15.832 168.062 22.1747 174.405 29.9987 174.405C37.8227 174.405 44.1654 168.062 44.1654 160.238Z"
                  stroke="white" stroke-width="2.5" />
                <path
                  d="M24.332 161.3C24.332 161.3 26.5987 162.593 27.732 164.488C27.732 164.488 31.132 157.05 35.6654 154.571"
                  stroke="white" stroke-width="2.5" stroke-linecap="round" stroke-linejoin="round" />
                <rect x="100" y="130.238" width="60" height="60" rx="30" fill="#477BFF" />
                <path
                  d="M122.952 168.67C121.64 168.67 120.52 168.446 119.592 167.998C118.68 167.534 117.936 166.91 117.36 166.126C116.8 165.342 116.392 164.438 116.136 163.414C115.88 162.374 115.752 161.278 115.752 160.126V158.83C115.752 157.214 116 155.758 116.496 154.462C117.008 153.166 117.792 152.142 118.848 151.39C119.92 150.622 121.288 150.238 122.952 150.238C124.616 150.238 125.976 150.622 127.032 151.39C128.088 152.142 128.864 153.166 129.36 154.462C129.872 155.758 130.128 157.214 130.128 158.83V160.126C130.128 161.278 130 162.374 129.744 163.414C129.488 164.438 129.072 165.342 128.496 166.126C127.936 166.91 127.2 167.534 126.288 167.998C125.376 168.446 124.264 168.67 122.952 168.67ZM122.952 166.558C124.616 166.558 125.832 165.998 126.6 164.878C127.384 163.742 127.776 161.95 127.776 159.502C127.776 156.942 127.376 155.11 126.576 154.006C125.792 152.902 124.584 152.35 122.952 152.35C121.304 152.35 120.08 152.902 119.28 154.006C118.496 155.11 118.104 156.926 118.104 159.454C118.104 161.918 118.496 163.718 119.28 164.854C120.064 165.99 121.288 166.558 122.952 166.558ZM132.964 168.238V165.358C132.964 164.654 133.06 164.054 133.252 163.558C133.46 163.062 133.812 162.614 134.308 162.214C134.804 161.798 135.476 161.398 136.324 161.014L139.612 159.502C140.412 159.134 141.044 158.662 141.508 158.086C141.972 157.494 142.204 156.734 142.204 155.806C142.204 154.686 141.892 153.814 141.268 153.19C140.644 152.566 139.764 152.254 138.628 152.254C137.508 152.254 136.628 152.566 135.988 153.19C135.348 153.814 135.028 154.686 135.028 155.806H132.772C132.772 154.798 132.98 153.87 133.396 153.022C133.828 152.174 134.476 151.502 135.34 151.006C136.204 150.494 137.3 150.238 138.628 150.238C139.956 150.238 141.044 150.494 141.892 151.006C142.756 151.502 143.396 152.158 143.812 152.974C144.244 153.79 144.46 154.678 144.46 155.638V155.974C144.46 157.238 144.092 158.302 143.356 159.166C142.636 160.03 141.66 160.742 140.428 161.302L137.14 162.814C136.404 163.15 135.908 163.486 135.652 163.822C135.396 164.158 135.268 164.606 135.268 165.166V167.374L134.644 166.27H144.676V168.238H132.964Z"
                  fill="white" />
                <rect x="200" y="130.238" width="60" height="60" rx="30" fill="#F5F5F5" />
                <path
                  d="M222.999 168.67C221.687 168.67 220.567 168.446 219.639 167.998C218.727 167.534 217.983 166.91 217.407 166.126C216.847 165.342 216.439 164.438 216.183 163.414C215.927 162.374 215.799 161.278 215.799 160.126V158.83C215.799 157.214 216.047 155.758 216.543 154.462C217.055 153.166 217.839 152.142 218.895 151.39C219.967 150.622 221.335 150.238 222.999 150.238C224.663 150.238 226.023 150.622 227.079 151.39C228.135 152.142 228.911 153.166 229.407 154.462C229.919 155.758 230.175 157.214 230.175 158.83V160.126C230.175 161.278 230.047 162.374 229.791 163.414C229.535 164.438 229.119 165.342 228.543 166.126C227.983 166.91 227.247 167.534 226.335 167.998C225.423 168.446 224.311 168.67 222.999 168.67ZM222.999 166.558C224.663 166.558 225.879 165.998 226.647 164.878C227.431 163.742 227.823 161.95 227.823 159.502C227.823 156.942 227.423 155.11 226.623 154.006C225.839 152.902 224.631 152.35 222.999 152.35C221.351 152.35 220.127 152.902 219.327 154.006C218.543 155.11 218.151 156.926 218.151 159.454C218.151 161.918 218.543 163.718 219.327 164.854C220.111 165.99 221.335 166.558 222.999 166.558ZM238.363 168.67C237.051 168.67 235.939 168.414 235.027 167.902C234.115 167.39 233.419 166.71 232.939 165.862C232.475 165.014 232.243 164.094 232.243 163.102H234.499C234.499 164.19 234.843 165.054 235.531 165.694C236.235 166.334 237.179 166.654 238.363 166.654C239.147 166.654 239.827 166.51 240.403 166.222C240.979 165.934 241.427 165.526 241.747 164.998C242.067 164.454 242.227 163.822 242.227 163.102C242.227 162.014 241.875 161.134 241.171 160.462C240.483 159.79 239.555 159.454 238.387 159.454C237.891 159.454 237.459 159.518 237.091 159.646C236.739 159.758 236.427 159.902 236.155 160.078L235.003 158.014L241.699 153.118L241.459 152.686H232.939V150.718H243.619V153.91L238.075 157.942L236.395 158.014C236.667 157.918 236.963 157.838 237.283 157.774C237.619 157.71 238.011 157.678 238.459 157.678C239.739 157.678 240.827 157.918 241.723 158.398C242.619 158.878 243.299 159.518 243.763 160.318C244.243 161.118 244.483 161.99 244.483 162.934V163.27C244.483 164.198 244.243 165.078 243.763 165.91C243.299 166.726 242.611 167.39 241.699 167.902C240.803 168.414 239.691 168.67 238.363 168.67Z"
                  fill="#AAAAAA" />
                <rect x="300" y="130.238" width="60" height="60" rx="30" fill="#F5F5F5" />
                <path
                  d="M322.671 168.67C321.359 168.67 320.239 168.446 319.311 167.998C318.399 167.534 317.655 166.91 317.079 166.126C316.519 165.342 316.111 164.438 315.855 163.414C315.599 162.374 315.471 161.278 315.471 160.126V158.83C315.471 157.214 315.719 155.758 316.215 154.462C316.727 153.166 317.511 152.142 318.567 151.39C319.639 150.622 321.007 150.238 322.671 150.238C324.335 150.238 325.695 150.622 326.751 151.39C327.807 152.142 328.583 153.166 329.079 154.462C329.591 155.758 329.847 157.214 329.847 158.83V160.126C329.847 161.278 329.719 162.374 329.463 163.414C329.207 164.438 328.791 165.342 328.215 166.126C327.655 166.91 326.919 167.534 326.007 167.998C325.095 168.446 323.983 168.67 322.671 168.67ZM322.671 166.558C324.335 166.558 325.551 165.998 326.319 164.878C327.103 163.742 327.495 161.95 327.495 159.502C327.495 156.942 327.095 155.11 326.295 154.006C325.511 152.902 324.303 152.35 322.671 152.35C321.023 152.35 319.799 152.902 318.999 154.006C318.215 155.11 317.823 156.926 317.823 159.454C317.823 161.918 318.215 163.718 318.999 164.854C319.783 165.99 321.007 166.558 322.671 166.558ZM332.011 164.086V161.254L339.283 150.286L340.891 151.558L334.099 161.83L334.315 162.262H345.643V164.086H332.011ZM341.155 168.238V155.83H343.315V168.238H341.155Z"
                  fill="#AAAAAA" />
                <defs>
                  <filter id="filter0_d_24349_2515" x="72.3906" y="-0.54541" width="244.719" height="242.783"
                    filterUnits="userSpaceOnUse" color-interpolation-filters="sRGB">
                    <feFlood flood-opacity="0" result="BackgroundImageFix" />
                    <feColorMatrix in="SourceAlpha" type="matrix" values="0 0 0 0 0 0 0 0 0 0 0 0 0 0 0 0 0 0 127 0"
                      result="hardAlpha" />
                    <feMorphology radius="16" operator="erode" in="SourceAlpha"
                      result="effect1_dropShadow_24349_2515" />
                    <feOffset />
                    <feGaussianBlur stdDeviation="34" />
                    <feComposite in2="hardAlpha" operator="out" />
                    <feColorMatrix type="matrix"
                      values="0 0 0 0 0.945098 0 0 0 0 0.360784 0 0 0 0 0.164706 0 0 0 0.07 0" />
                    <feBlend mode="normal" in2="BackgroundImageFix" result="effect1_dropShadow_24349_2515" />
                    <feBlend mode="normal" in="SourceGraphic" in2="effect1_dropShadow_24349_2515" result="shape" />
                  </filter>
                  <linearGradient id="paint0_linear_24349_2515" x1="293.368" y1="83.2604" x2="288.111" y2="158.431"
                    gradientUnits="userSpaceOnUse">
                    <stop stop-color="#FAFAFA" />
                    <stop offset="1" stop-color="white" stop-opacity="0.1" />
                  </linearGradient>
                  <linearGradient id="paint1_linear_24349_2515" x1="101.387" y1="83.2604" x2="96.1309" y2="158.431"
                    gradientUnits="userSpaceOnUse">
                    <stop stop-color="#FAFAFA" />
                    <stop offset="1" stop-color="white" stop-opacity="0.1" />
                  </linearGradient>
                  <linearGradient id="paint2_linear_24349_2515" x1="192.409" y1="53.8299" x2="197.09" y2="187.862"
                    gradientUnits="userSpaceOnUse">
                    <stop stop-color="#FAFAFA" />
                    <stop offset="1" stop-color="white" stop-opacity="0.1" />
                  </linearGradient>
                  <linearGradient id="paint3_linear_24349_2515" x1="47" y1="160.238" x2="379.501" y2="160.238"
                    gradientUnits="userSpaceOnUse">
                    <stop stop-color="#0ED70E" />
                    <stop offset="0.429814" stop-color="#477BFF" />
                    <stop offset="0.576829" stop-color="#F5F5F5" />
                    <stop offset="0.928345" stop-color="#F5F5F5" />
                  </linearGradient>
                </defs>
              </svg>