<svg width="171" height="140" viewBox="0 0 171 140" fill="none" xmlns="http://www.w3.org/2000/svg">
<path fill-rule="evenodd" clip-rule="evenodd" d="M133.829 3.28066C138.332 -1.05908 145.431 -1.07881 149.958 3.13539L150.387 3.55411L151.85 5.10076C166.678 21.1711 172.203 39.8989 170.785 58.1889C169.348 76.7368 160.853 94.2277 149.003 108.05C137.16 121.863 121.348 132.741 104.257 137.462C86.9508 142.242 68.0228 140.718 51.5925 129.031C37.657 119.118 32.3514 103.097 31.991 87.5329C24.171 83.6682 15.9429 78.8648 7.30963 73.0233L5.02845 71.4623L4.5425 71.1091C-0.358849 67.3361 -1.47953 60.3529 2.09266 55.2265C5.66593 50.1 12.6237 48.7095 17.8837 51.968L18.3897 52.2984L20.4679 53.7225C25.6396 57.2218 30.5744 60.2556 35.2668 62.8743C38.2939 52.1706 43.3098 41.8936 49.9174 33.4222C59.8169 20.7313 74.6593 10.5821 92.8426 12.0964C109.221 13.4613 121.322 21.9745 127.569 33.989C133.617 45.6228 133.707 59.6176 128.421 71.653C123.031 83.9226 112.091 94.1447 96.3526 98.3566C85.0265 101.388 71.7579 101.179 56.7867 97.1204V97.126C50.8272 95.5097 44.5815 93.2774 38.0541 90.3784C36.5898 89.7281 35.3154 90.7217 38.0541 92.4462C45.7621 97.9587 56.6202 102.579 59.7624 104.13C61.2474 106.551 63.0889 108.536 65.1995 110.038C74.9127 116.947 86.2755 118.213 98.0023 114.974C109.944 111.675 121.913 103.721 131.197 92.8935C140.473 82.0739 146.454 69.1103 147.439 56.3916C148.369 44.3905 144.932 32.0616 134.578 20.858L133.555 19.7785L133.146 19.3341C129.072 14.6864 129.328 7.62009 133.829 3.28066ZM90.8928 35.3507C83.3803 34.7249 75.4519 38.7096 68.407 47.741C63.0418 54.6192 58.9821 63.5565 56.9123 72.7527C71.656 77.8312 82.6436 77.8659 90.2783 75.8233C99.1165 73.458 104.416 68.103 106.967 62.2961C109.62 56.2541 109.348 49.6706 106.775 44.7216C104.4 40.1537 99.6194 36.078 90.8928 35.3507Z" fill="url(#paint0_radial_24487_5593)"/>
<defs>
<radialGradient id="paint0_radial_24487_5593" cx="0" cy="0" r="1" gradientTransform="matrix(174.717 102.5 -11.5966 143.043 85.5 70)" gradientUnits="userSpaceOnUse">
<stop stop-color="#007BFF"/>
<stop offset="1" stop-color="#0056B3"/>
</radialGradient>
</defs>
</svg>
