<svg preserveAspectRatio="none" width="100%" height="100%" overflow="visible" style="display: block;" viewBox="0 0 36 36" fill="none" xmlns="http://www.w3.org/2000/svg">
<g id="flow-connection">
<path id="Vector" d="M3.75 8.25C3.75 5.77512 3.75 4.53769 4.51884 3.76884C5.28769 3 6.52512 3 9 3C11.4749 3 12.7123 3 13.4812 3.76884C14.25 4.53769 14.25 5.77512 14.25 8.25C14.25 10.7249 14.25 11.9623 13.4812 12.7312C12.7123 13.5 11.4749 13.5 9 13.5C6.52512 13.5 5.28769 13.5 4.51884 12.7312C3.75 11.9623 3.75 10.7249 3.75 8.25Z" stroke="var(--stroke-0, white)" stroke-width="2.25"/>
<path id="Vector_2" d="M5.48528 23.4854C7.14213 21.8285 7.97056 21 9 21C10.0294 21 10.8579 21.8285 12.5147 23.4854C14.1716 25.1421 15 25.9706 15 27C15 28.0294 14.1716 28.8579 12.5147 30.5146C10.8579 32.1715 10.0294 33 9 33C7.97056 33 7.14213 32.1715 5.48528 30.5146C3.82842 28.8579 3 28.0294 3 27C3 25.9706 3.82842 25.1421 5.48528 23.4854Z" stroke="var(--stroke-0, white)" stroke-width="2.25"/>
<path id="Vector_3" d="M9 13.5V21M15 27H22.5" stroke="var(--stroke-0, white)" stroke-width="2.25" stroke-linecap="round" stroke-linejoin="round"/>
<path id="Vector_4" d="M22.5 27C22.5 24.5252 22.5 23.2876 23.2689 22.5189C24.0376 21.75 25.2752 21.75 27.75 21.75C30.2248 21.75 31.4624 21.75 32.2311 22.5189C33 23.2876 33 24.5252 33 27C33 29.4748 33 30.7124 32.2311 31.4811C31.4624 32.25 30.2248 32.25 27.75 32.25C25.2752 32.25 24.0376 32.25 23.2689 31.4811C22.5 30.7124 22.5 29.4748 22.5 27Z" stroke="var(--stroke-0, white)" stroke-width="2.25"/>
</g>
</svg>
