<svg width="40" height="40" viewBox="0 0 40 40" fill="none" xmlns="http://www.w3.org/2000/svg">
            <path
              d="M26.6654 36.6668V35.8335C26.6654 33.9925 28.2189 32.501 29.8692 31.6852C31.473 30.8925 32.8225 29.5853 32.9929 28.0523L33.332 25.0002L36.6654 23.3335L32.4987 17.0835C32.4987 9.48958 26.3425 3.3335 18.7487 3.3335C16.8254 3.3335 14.9942 3.7284 13.332 4.44153M10.832 28.3272V36.6668M10.832 28.3272C8.56415 26.7275 6.80183 24.4588 5.83203 21.8085M10.832 28.3272C12.0831 29.2097 13.4881 29.8887 14.9987 30.316"
              stroke="#7B19D8" stroke-width="2.5" stroke-linecap="round" stroke-linejoin="round" />
            <path
              d="M4.58203 5.4165L9.9987 9.1665H16.6654M5.83203 5.4165C5.83203 6.10685 5.27238 6.6665 4.58203 6.6665C3.89168 6.6665 3.33203 6.10685 3.33203 5.4165C3.33203 4.72615 3.89168 4.1665 4.58203 4.1665C5.27238 4.1665 5.83203 4.72615 5.83203 5.4165Z"
              stroke="#7B19D8" stroke-width="2.5" stroke-linecap="round" stroke-linejoin="round" />
            <path
              d="M4.58203 14.5835H16.6654M5.83203 14.5835C5.83203 15.2738 5.27238 15.8335 4.58203 15.8335C3.89168 15.8335 3.33203 15.2738 3.33203 14.5835C3.33203 13.8931 3.89168 13.3335 4.58203 13.3335C5.27238 13.3335 5.83203 13.8931 5.83203 14.5835Z"
              stroke="#7B19D8" stroke-width="2.5" stroke-linecap="round" stroke-linejoin="round" />
          </svg>