 <svg width="62" height="62" viewBox="0 0 62 62" fill="none" xmlns="http://www.w3.org/2000/svg">
            <rect width="62" height="62" rx="14" fill="#0ED70E" fill-opacity="0.08" />
            <path
              d="M27.268 28.1928C27.5407 27.8508 27.8508 27.5407 28.1928 27.268C29.477 26.2439 31.247 26.0429 34.3323 26.0035C35.1202 25.9934 35.514 25.9884 35.7628 26.2372C36.0117 26.486 36.0065 26.8799 35.9965 27.6677C35.9572 30.7528 35.7563 32.5225 34.7322 33.8067C34.4595 34.1487 34.1493 34.4588 33.8075 34.7315C32.5233 35.7557 30.7532 35.957 27.6677 35.9965C26.8799 36.0067 26.486 36.0117 26.2372 35.7628C25.9884 35.514 25.9934 35.1202 26.0035 34.3323C26.0429 31.247 26.2439 29.477 27.268 28.1928Z"
              stroke="#0ED70E" stroke-width="2.5" stroke-linecap="round" stroke-linejoin="round" />
            <path
              d="M26 40.1578C26.0683 42.7395 26.3202 44.3033 27.2487 45.4678C27.5214 45.8097 27.8315 46.1198 28.1735 46.3925C29.7712 47.6667 32.121 47.6667 36.8207 47.6667C41.5202 47.6667 43.87 47.6667 45.4678 46.3925C45.8097 46.1198 46.1198 45.8097 46.3925 45.4678C47.6667 43.87 47.6667 41.5202 47.6667 36.8207C47.6667 32.121 47.6667 29.7712 46.3925 28.1735C46.1198 27.8315 45.8097 27.5214 45.4678 27.2487C44.3033 26.3202 42.7395 26.0683 40.1578 26"
              stroke="#0ED70E" stroke-width="2.5" stroke-linecap="round" />
            <path
              d="M14.332 31.0002C14.4411 32.4675 14.7017 33.4587 15.3241 34.237C15.5533 34.5235 15.8139 34.7835 16.1012 35.012C16.879 35.6305 17.869 35.8907 19.332 36.0002H20.1654M14.332 19.3335C14.4415 17.8704 14.7017 16.8805 15.3203 16.1027C15.5487 15.8154 15.8087 15.5547 16.0952 15.3256C16.8735 14.7032 17.8648 14.4426 19.332 14.3335M30.9987 14.3335C32.4617 14.443 33.4517 14.7032 34.2295 15.3217C34.5169 15.5502 34.7775 15.8101 35.0065 16.0967C35.629 16.875 35.8895 17.8662 35.9987 19.3335V20.1668M14.332 23.5002V26.8335M26.832 14.3335H23.4987"
              stroke="#0ED70E" stroke-width="2.5" stroke-linecap="round" />
          </svg>