<svg width="16" height="16" viewBox="0 0 16 16" fill="none" xmlns="http://www.w3.org/2000/svg">
              <path
                d="M2.33203 5.99992V9.33325C2.33203 11.8474 2.33203 13.1045 3.11308 13.8855C3.89413 14.6666 5.1512 14.6666 7.66536 14.6666H8.33203C10.8462 14.6666 12.1033 14.6666 12.8843 13.8855C13.6654 13.1045 13.6654 11.8474 13.6654 9.33325V6.66658C13.6654 4.15243 13.6654 2.89535 12.8843 2.1143C12.1033 1.33325 10.8462 1.33325 8.33203 1.33325H7.9987"
                stroke="white" stroke-linecap="round" stroke-linejoin="round" />
              <path d="M9 11.3333H11.6667" stroke="white" stroke-linecap="round" stroke-linejoin="round" />
              <path d="M9 4.66675H11.6667" stroke="white" stroke-linecap="round" stroke-linejoin="round" />
              <path d="M9 8H11.6667" stroke="white" stroke-linecap="round" stroke-linejoin="round" />
              <path
                d="M4.33203 10.9999C4.33203 10.9999 4.97708 11.1781 5.33203 11.9999C5.33203 11.9999 5.9987 9.99992 7.33203 9.33325"
                stroke="white" stroke-linecap="round" stroke-linejoin="round" />
              <path
                d="M6.66536 3.33325H2.33203M6.66536 3.33325C6.66536 2.77307 5.11424 1.72648 4.72092 1.33325M6.66536 3.33325C6.66536 3.89343 5.11424 4.94003 4.72092 5.33325"
                stroke="white" stroke-linecap="round" stroke-linejoin="round" />
            </svg>