 <svg width="20" height="20" viewBox="0 0 20 20" fill="none" xmlns="http://www.w3.org/2000/svg">
                <path
                  d="M12.5013 5H6.66797C4.31094 5 3.13244 5 2.4002 5.73223C1.66797 6.46447 1.66797 7.64297 1.66797 10C1.66797 12.357 1.66797 13.5355 2.4002 14.2677C3.13244 15 4.31094 15 6.66797 15H12.5013M17.6024 14.2677C18.3346 13.5355 18.3346 12.357 18.3346 10C18.3346 7.64297 18.3346 6.46447 17.6024 5.73223"
                  stroke="#477BFF" stroke-width="1.25" stroke-linecap="round" stroke-linejoin="round" />
                <path
                  d="M4.16797 12.5L5.41542 7.82207C5.46606 7.63215 5.63807 7.5 5.83464 7.5C6.0312 7.5 6.20321 7.63215 6.25386 7.82207L7.5013 12.5M5.0013 10.8333H6.66797"
                  stroke="#477BFF" stroke-width="1.25" stroke-linecap="round" stroke-linejoin="round" />
                <path
                  d="M10.832 10H9.58203M10.832 10C11.5224 10 12.082 9.44033 12.082 8.75C12.082 8.05964 11.5224 7.5 10.832 7.5H9.58203V10M10.832 10C11.5224 10 12.082 10.5597 12.082 11.25C12.082 11.9403 11.5224 12.5 10.832 12.5H9.58203V10"
                  stroke="#477BFF" stroke-width="1.25" stroke-linecap="round" stroke-linejoin="round" />
                <path
                  d="M14.9987 4.16667V15.8333M14.9987 4.16667C14.9987 3.24619 15.7449 2.5 16.6654 2.5M14.9987 4.16667C14.9987 3.24619 14.2525 2.5 13.332 2.5M14.9987 15.8333C14.9987 16.7538 15.7449 17.5 16.6654 17.5M14.9987 15.8333C14.9987 16.7538 14.2525 17.5 13.332 17.5"
                  stroke="#477BFF" stroke-width="1.25" stroke-linecap="round" stroke-linejoin="round" />
              </svg>