<svg width="140" height="24" viewBox="0 0 140 24" fill="none" xmlns="http://www.w3.org/2000/svg">
<path d="M8.834 6.948L8.834 13.388C8.834 15.698 7.35 17.21 4.942 17.21C2.534 17.21 1.064 15.698 1.064 13.388L1.064 6.948L2.604 6.948L2.604 13.43C2.604 14.886 3.458 15.824 4.942 15.824C6.44 15.824 7.294 14.886 7.294 13.43L7.294 6.948L8.834 6.948ZM18.3268 14.06C18.3268 15.81 16.9268 17.14 14.4908 17.14C12.0688 17.14 10.5988 15.81 10.4728 13.808L12.0408 13.808C12.1108 15.082 12.9228 15.908 14.4628 15.908C15.7368 15.908 16.6888 15.306 16.6888 14.27C16.6888 13.43 16.1428 13.01 14.9808 12.758L13.5248 12.478C12.1108 12.198 10.8228 11.484 10.8228 9.776C10.8228 8.082 12.3068 6.808 14.3928 6.808C16.4788 6.808 18.0608 8.082 18.1868 10.084L16.6188 10.084C16.5348 8.88 15.6668 8.04 14.4068 8.04C13.1048 8.04 12.3908 8.81 12.3908 9.678C12.3908 10.63 13.2168 10.966 14.1548 11.162L15.6388 11.456C17.3608 11.806 18.3268 12.562 18.3268 14.06Z" fill="#F1762A"/>
<path d="M44 13V8H39" stroke="#0ED70E" stroke-width="1.5" stroke-linecap="round" stroke-linejoin="round"/>
<path d="M44 8L39 13C38.1174 13.8826 37.6762 14.3238 37.1346 14.3726C37.045 14.3807 36.955 14.3807 36.8654 14.3726C36.3238 14.3238 35.8826 13.8826 35 13C34.1174 12.1174 33.6762 11.6762 33.1346 11.6274C33.045 11.6193 32.955 11.6193 32.8654 11.6274C32.3238 11.6762 31.8826 12.1174 31 13L28 16" stroke="#0ED70E" stroke-width="1.5" stroke-linecap="round" stroke-linejoin="round"/>
<path d="M59 12C59 12.5523 58.5523 13 58 13C57.4477 13 57 12.5523 57 12C57 11.4477 57.4477 11 58 11C58.5523 11 59 11.4477 59 12Z" stroke="#E7E7E7" stroke-width="0.75" stroke-linecap="round" stroke-linejoin="round"/>
<path d="M56 9.49998C56 9.49998 57.473 7.50001 58 7.5C58.5271 7.5 60 9.5 60 9.5" stroke="#E7E7E7" stroke-width="0.75" stroke-linecap="round" stroke-linejoin="round"/>
<path d="M60 14.5C60 14.5 58.527 16.5 58 16.5C57.4729 16.5 56 14.5 56 14.5" stroke="#E7E7E7" stroke-width="0.75" stroke-linecap="round" stroke-linejoin="round"/>
<path d="M75.462 15.656L75.462 17L69.092 17L69.092 6.948L75.364 6.948L75.364 8.292L70.632 8.292L70.632 11.148L74.944 11.148L74.944 12.492L70.632 12.492L70.632 15.656L75.462 15.656ZM85.0098 6.948L85.0098 13.388C85.0098 15.698 83.5258 17.21 81.1178 17.21C78.7098 17.21 77.2398 15.698 77.2398 13.388L77.2398 6.948L78.7798 6.948L78.7798 13.43C78.7798 14.886 79.6338 15.824 81.1178 15.824C82.6158 15.824 83.4698 14.886 83.4698 13.43L83.4698 6.948L85.0098 6.948Z" fill="#F1762A"/>
<path d="M98 12C98 12.5523 97.5523 13 97 13C96.4477 13 96 12.5523 96 12C96 11.4477 96.4477 11 97 11C97.5523 11 98 11.4477 98 12Z" stroke="#E7E7E7" stroke-width="0.75" stroke-linecap="round" stroke-linejoin="round"/>
<path d="M95 9.49998C95 9.49998 96.473 7.50001 97 7.5C97.5271 7.5 99 9.5 99 9.5" stroke="#E7E7E7" stroke-width="0.75" stroke-linecap="round" stroke-linejoin="round"/>
<path d="M99 14.5C99 14.5 97.527 16.5 97 16.5C96.4729 16.5 95 14.5 95 14.5" stroke="#E7E7E7" stroke-width="0.75" stroke-linecap="round" stroke-linejoin="round"/>
<path d="M115.008 17L114.098 14.508L109.758 14.508L108.834 17L107.28 17L111.13 6.948L112.824 6.948L116.646 17L115.008 17ZM111.942 8.628L110.22 13.262L113.636 13.262L111.942 8.628ZM125.108 14.06C125.108 15.81 123.708 17.14 121.272 17.14C118.85 17.14 117.38 15.81 117.254 13.808L118.822 13.808C118.892 15.082 119.704 15.908 121.244 15.908C122.518 15.908 123.47 15.306 123.47 14.27C123.47 13.43 122.924 13.01 121.762 12.758L120.306 12.478C118.892 12.198 117.604 11.484 117.604 9.776C117.604 8.082 119.088 6.808 121.174 6.808C123.26 6.808 124.842 8.082 124.968 10.084L123.4 10.084C123.316 8.88 122.448 8.04 121.188 8.04C119.886 8.04 119.172 8.81 119.172 9.678C119.172 10.63 119.998 10.966 120.936 11.162L122.42 11.456C124.142 11.806 125.108 12.562 125.108 14.06ZM128.431 17L126.891 17L126.891 6.948L128.431 6.948L128.431 17ZM137.526 17L136.616 14.508L132.276 14.508L131.352 17L129.798 17L133.648 6.948L135.342 6.948L139.164 17L137.526 17ZM134.46 8.628L132.738 13.262L136.154 13.262L134.46 8.628Z" fill="#F1762A"/>
</svg>
