<svg width="37" height="30" viewBox="0 0 37 30" fill="none" xmlns="http://www.w3.org/2000/svg">
<g clip-path="url(#clip0_24216_2827)">
<path fill-rule="evenodd" clip-rule="evenodd" d="M12.75 0C13.1642 0 13.5 0.335786 13.5 0.75V6.29736C13.5 6.46438 13.702 6.54803 13.8201 6.42993L19.8106 0.439453C20.0918 0.158202 20.4734 5.98453e-05 20.8711 0H27.4394C27.6383 3.03014e-05 27.8291 0.079101 27.9697 0.219727L30.2197 2.46973C30.5126 2.7626 30.5126 3.2374 30.2197 3.53027L27.3201 6.42993C27.202 6.54805 27.2856 6.74998 27.4526 6.75H33.4394C33.6383 6.75003 33.8291 6.8291 33.9697 6.96973L36.2197 9.21975C36.5126 9.51262 36.5126 9.98738 36.2197 10.2802L33.2651 13.2349C33.1187 13.3813 33.1187 13.6187 33.2651 13.7651L35.6894 16.1894C36.3685 16.8685 36.75 17.7896 36.75 18.75C36.75 19.7104 36.3685 20.6315 35.6894 21.3106L27.4394 29.5606C27.1582 29.8418 26.7767 29.9999 26.3789 30H24C23.5858 30 23.25 29.6642 23.25 29.25V23.7026C23.25 23.5356 23.048 23.452 22.9299 23.5701L16.9394 29.5606C16.6582 29.8418 16.2766 29.9999 15.8789 30H9.31057C9.11167 30 8.92087 29.9209 8.78025 29.7803L6.53027 27.5303C6.23746 27.2374 6.23746 26.7626 6.53027 26.4697L9.4299 23.5701C9.54803 23.452 9.4644 23.25 9.29737 23.25H3.31054C3.11168 23.25 2.9209 23.1709 2.78027 23.0303L0.530273 20.7803C0.237455 20.4874 0.237455 20.0126 0.530273 19.7197L3.48486 16.7651C3.63128 16.6187 3.63128 16.3813 3.48486 16.2349L1.06054 13.8106C0.381489 13.1315 0 12.2104 0 11.25C0 10.2896 0.381488 9.36855 1.06054 8.68943L9.31057 0.439453C9.59182 0.158202 9.97335 6.00347e-05 10.3711 0H12.75ZM15.0535 6.75C14.0589 6.75 13.1046 7.14537 12.4014 7.8486L4.39014 15.8599C4.15396 16.0961 4.32124 16.4999 4.65527 16.5H15.5947C15.9287 16.5001 16.096 16.9039 15.8599 17.1401L10.3901 22.6099C10.154 22.8461 10.3212 23.2499 10.6552 23.25H21.6965C22.6911 23.25 23.6454 22.8546 24.3486 22.1514L32.3599 14.1401C32.5813 13.9187 32.4482 13.5497 32.1555 13.5044L32.0947 13.5H21.1553C20.8212 13.5 20.6539 13.0961 20.8901 12.8599L26.3599 7.39014C26.5961 7.15391 26.4288 6.75004 26.0947 6.75H15.0535Z" fill="#477BFF"/>
</g>
<defs>
<clipPath id="clip0_24216_2827">
<rect width="36.75" height="30" fill="white"/>
</clipPath>
</defs>
</svg>
