<svg width="41" height="30" viewBox="0 0 41 30" fill="none" xmlns="http://www.w3.org/2000/svg">
          <g clip-path="url(#clip0_24216_2745)">
            <path
              d="M25.9769 0.365723C33.655 0.365723 39.8794 6.59006 39.8794 14.2682V29.634C36.6465 29.634 34.0257 27.0133 34.0257 23.7804V14.2682C34.0257 9.82297 30.4221 6.21938 25.9769 6.21938H22.1712C20.2306 6.21941 18.3693 6.99015 16.9971 8.36233L7.07832 18.2819C6.52947 18.8306 6.22089 19.575 6.22085 20.3512V20.8535C6.22085 22.4699 7.53126 23.7804 9.14768 23.7804H22.3184C22.3184 26.9121 19.8591 29.4692 16.7663 29.6262L16.4647 29.634H9.14768C4.29835 29.634 0.367188 25.7028 0.367188 20.8535V20.3512C0.367233 18.0226 1.29226 15.789 2.93888 14.1424L12.8584 4.22362C15.3283 1.75366 18.6782 0.365755 22.1712 0.365723H25.9769Z"
              fill="#F1762A" />
            <path
              d="M27.4402 9.14648C29.4607 9.14648 31.0987 10.7845 31.0987 12.805V29.6343C27.8658 29.6343 25.2451 27.0135 25.2451 23.7806V15.0001H22.7984L18.0163 19.7822C17.3302 20.4683 16.3997 20.8538 15.4294 20.8538H9.49692C9.19055 20.8538 9.03711 20.4833 9.25377 20.2667L19.3028 10.2183C19.9889 9.53224 20.9192 9.14648 21.8896 9.14648H27.4402Z"
              fill="#F1762A" />
          </g>
          <defs>
            <clipPath id="clip0_24216_2745">
              <rect width="40.2439" height="30" fill="white" />
            </clipPath>
          </defs>
        </svg>