<svg width="35" height="30" viewBox="0 0 35 30" fill="none" xmlns="http://www.w3.org/2000/svg">
<g clip-path="url(#clip0_24216_2818)">
<path d="M0 24.75L3.45455 18.75H9.1836C12.9427 18.75 16.121 21.5327 16.6178 25.2588L17.25 30H9.75L8.66887 27.4774C7.95975 25.8228 6.33284 24.75 4.53271 24.75H0Z" fill="#477BFF"/>
<path d="M34.5 24.75L31.0454 18.75H25.3164C21.5573 18.75 18.379 21.5327 17.8822 25.2588L17.25 30H24.75L25.8311 27.4774C26.5403 25.8228 28.1672 24.75 29.9673 24.75H34.5Z" fill="#477BFF"/>
<path d="M3.45312 18.75L14.2485 0H17.2486L16.951 7.14304C16.6942 13.3054 11.8077 18.2697 5.65011 18.6237L3.45312 18.75Z" fill="#477BFF"/>
<path d="M31.0454 18.75L20.2501 0H17.25L17.5476 7.14304C17.8044 13.3054 22.6909 18.2697 28.8484 18.6237L31.0454 18.75Z" fill="#477BFF"/>
</g>
<defs>
<clipPath id="clip0_24216_2818">
<rect width="34.5" height="30" fill="white"/>
</clipPath>
</defs>
</svg>
