<svg width="30" height="30" viewBox="0 0 30 30" fill="none" xmlns="http://www.w3.org/2000/svg">
<path d="M21.875 22.5C24.9816 22.5 27.5 19.9816 27.5 16.875C27.5 13.7684 24.9816 11.25 21.875 11.25C21.8656 11.25 21.8563 11.25 21.847 11.2501M21.847 11.2501C21.8655 11.0442 21.875 10.8357 21.875 10.625C21.875 6.82804 18.797 3.75 15 3.75C11.404 3.75 8.45291 6.51078 8.15053 10.0284M21.847 11.2501C21.7664 12.1437 21.5149 12.988 21.1254 13.75M8.15053 10.0284C4.97998 10.3301 2.5 13.0004 2.5 16.25C2.5 19.2737 4.6472 21.7959 7.5 22.375M8.15053 10.0284C8.34783 10.0096 8.54779 10 8.75 10C10.1573 10 11.4559 10.4651 12.5006 11.25" stroke="#0ED70E" stroke-width="1.875" stroke-linecap="round" stroke-linejoin="round"/>
<path d="M11.25 23.75C11.25 23.75 12.5 23.75 13.75 26.25C13.75 26.25 17.7206 20 21.25 18.75" stroke="#0ED70E" stroke-width="1.875" stroke-linecap="round" stroke-linejoin="round"/>
</svg>
