<svg width="62" height="62" viewBox="0 0 62 62" fill="none" xmlns="http://www.w3.org/2000/svg">
            <rect width="62" height="62" rx="14" fill="#477BFF" fill-opacity="0.08" />
            <path
              d="M41.7822 14.3753C41.7935 14.3196 41.8732 14.3196 41.8845 14.3753C42.4754 17.2659 44.7344 19.5248 47.6249 20.1157C47.6807 20.127 47.6807 20.2066 47.6249 20.218C44.7344 20.8088 42.4754 23.0678 41.8845 25.9584C41.8732 26.0141 41.7935 26.0141 41.7822 25.9584C41.1914 23.0678 38.9324 20.8088 36.0419 20.218C35.986 20.2066 35.986 20.127 36.0419 20.1157C38.9324 19.5248 41.1914 17.2659 41.7822 14.3753Z"
              stroke="#477BFF" stroke-width="2.5" stroke-linecap="round" stroke-linejoin="round" />
            <path d="M30.9834 29.3335H30.9984M24.3242 29.3335H24.3392" stroke="#477BFF" stroke-width="3.33333"
              stroke-linecap="round" stroke-linejoin="round" />
            <path
              d="M32.6654 16.0079C32.1149 16.0027 31.559 16 30.9987 16C28.5335 16 26.1573 16.0515 23.9257 16.147C19.8582 16.321 17.8244 16.408 16.2155 18.0291C14.6065 19.6502 14.5367 21.6281 14.3972 25.5838C14.3545 26.7947 14.332 28.0487 14.332 29.3333C14.332 30.618 14.3545 31.872 14.3972 33.0828C14.5367 37.0387 14.6065 39.0165 16.2155 40.6375C17.8244 42.2587 19.8582 42.3457 23.9257 42.5197C24.0606 42.5255 24.1961 42.531 24.332 42.5365V46.4502C24.332 47.122 24.8767 47.6667 25.5485 47.6667C25.839 47.6667 26.1199 47.5627 26.3404 47.3737L29.9729 44.2588C30.8862 43.4758 31.3427 43.0843 31.8854 42.8777C32.428 42.671 33.0457 42.6592 34.2809 42.6358C35.5817 42.6112 36.8484 42.572 38.0715 42.5197C42.1392 42.3457 44.173 42.2587 45.7819 40.6377C47.3909 39.0165 47.4607 37.0387 47.6002 33.0828C47.6429 31.872 47.6654 30.618 47.6654 29.3333C47.6654 28.4855 47.6555 27.6509 47.6367 26.8333"
              stroke="#477BFF" stroke-width="2.5" stroke-linecap="round" stroke-linejoin="round" />
          </svg>  