 <svg width="25" height="13" viewBox="0 0 25 13" fill="none" xmlns="http://www.w3.org/2000/svg">
        <path
          d="M0.221865 8.84618C0.02584 9.25026 -0.0324236 9.54918 0.0162905 9.80679C0.0640732 10.1553 0.260859 10.2865 0.550333 10.2263C3.25676 9.8353 8.88857 12.1985 10.9893 12.9071C11.4859 13.0612 11.9583 12.4602 11.6665 11.854C11.2142 11.251 5.63777 8.32658 3.43688 7.98854C2.57392 7.85891 1.04355 7.4953 0.221865 8.84618Z"
          fill="#F15C2A" />
        <path
          d="M23.6238 3.28263C23.8909 3.46841 24.0342 3.63515 24.0961 3.81218C24.1911 4.04571 24.1154 4.19398 23.9133 4.25424C22.0855 4.92465 19.4197 8.30079 18.3635 9.4523C18.1089 9.71611 17.5991 9.50089 17.5639 9.02433C17.6301 8.49548 20.0604 4.78806 21.3119 3.83379C21.8035 3.46149 22.6277 2.71779 23.6238 3.28263Z"
          fill="#F15C2A" />
        <path
          d="M9.86009 0.200515C10.2224 -0.0173766 10.5828 -0.0717641 10.7473 0.1075C13.1788 2.56384 14.2495 6.19195 14.815 9.47436C14.8406 9.55201 14.8326 9.65922 14.796 9.76839C14.7762 9.86279 14.6955 9.95687 14.575 10.0242C14.446 10.0989 14.3394 10.1153 14.2975 10.0365C13.2855 8.38866 7.24228 1.77874 9.86009 0.200515Z"
          fill="#F15C2A" />
      </svg>