<svg width="16" height="16" viewBox="0 0 16 16" fill="none" xmlns="http://www.w3.org/2000/svg">
              <path
                d="M10.6654 6.00016C10.6654 3.42284 8.57603 1.3335 5.9987 1.3335C3.42137 1.3335 1.33203 3.42284 1.33203 6.00016C1.33203 8.5775 3.42137 10.6668 5.9987 10.6668"
                stroke="white" />
              <path
                d="M10.6667 6H10C8.1144 6 7.1716 6 6.58579 6.58579C6 7.1716 6 8.1144 6 10V10.6667C6 12.5523 6 13.4951 6.58579 14.0809C7.1716 14.6667 8.1144 14.6667 10 14.6667H10.6667C12.5523 14.6667 13.4951 14.6667 14.0809 14.0809C14.6667 13.4951 14.6667 12.5523 14.6667 10.6667V10C14.6667 8.1144 14.6667 7.1716 14.0809 6.58579C13.4951 6 12.5523 6 10.6667 6Z"
                stroke="white" />
            </svg>