<svg width="26" height="26" viewBox="0 0 26 26" fill="none" xmlns="http://www.w3.org/2000/svg">
<g clip-path="url(#clip0_24216_1639)">
<path d="M11.9707 0.837079C5.35944 1.29939 0.374769 7.0336 0.837076 13.6449C1.29938 20.2562 7.03359 25.2409 13.6449 24.7786C20.2562 24.3163 25.2409 18.582 24.7786 11.9707C24.3163 5.35944 18.582 0.374779 11.9707 0.837079ZM10.0187 18.8185L7.39039 19.0023L6.79662 10.511L9.42492 10.3272L10.0187 18.8185ZM8.02049 9.30795C7.16212 9.36798 6.4172 8.7151 6.35669 7.84985C6.29618 6.9845 6.94309 6.23435 7.80137 6.17433C8.65964 6.11432 9.40456 6.76715 9.46507 7.63249C9.52563 8.49779 8.87882 9.24793 8.02049 9.30795ZM19.8682 18.1297L17.2527 18.3126L16.941 13.8554C16.8555 12.6329 16.3434 11.983 15.3768 12.0506C14.3247 12.1241 13.8248 12.8733 13.9083 14.0675L14.22 18.5247L11.6992 18.701L11.1054 10.2097L13.6263 10.0334L13.7062 11.177C13.7062 11.177 14.3664 9.72136 16.1669 9.59546C17.9675 9.46955 19.3333 10.4788 19.4923 12.7532L19.8682 18.1297Z" fill="url(#paint0_linear_24216_1639)"/>
</g>
<defs>
<linearGradient id="paint0_linear_24216_1639" x1="3.75132" y1="4.93513" x2="21.8643" y2="20.6805" gradientUnits="userSpaceOnUse">
<stop stop-color="white"/>
<stop offset="1" stop-color="#F0F0F0"/>
</linearGradient>
<clipPath id="clip0_24216_1639">
<rect width="24" height="24" fill="white" transform="translate(0 1.67416) rotate(-4)"/>
</clipPath>
</defs>
</svg>
