<svg width="40" height="40" viewBox="0 0 40 40" fill="none" xmlns="http://www.w3.org/2000/svg">
            <path
              d="M28.332 34.9999C31.4474 34.9999 33.005 34.9999 34.1654 34.3301C34.9255 33.8913 35.5567 33.2601 35.9955 32.4999C36.6654 31.3396 36.6654 29.7819 36.6654 26.6666C36.6654 23.5513 36.6654 21.9936 35.9955 20.8333C35.5567 20.0731 34.9255 19.4419 34.1654 19.0031C33.005 18.3333 31.4474 18.3333 28.332 18.3333H11.6654C8.54998 18.3333 6.99228 18.3333 5.83203 19.0031C5.07193 19.4419 4.44075 20.0731 4.0019 20.8333C3.33203 21.9936 3.33203 23.5513 3.33203 26.6666C3.33203 29.7819 3.33203 31.3396 4.0019 32.4999C4.44075 33.2601 5.07193 33.8913 5.83203 34.3301C6.99228 34.9999 8.54998 34.9999 11.6654 34.9999H28.332Z"
              stroke="#FF0000" stroke-width="2" stroke-linecap="round" stroke-linejoin="round" />
            <path
              d="M26.6654 10.0001C25.0365 7.95598 22.6535 6.66675 19.9987 6.66675C17.3439 6.66675 14.9608 7.95598 13.332 10.0001"
              stroke="#FF0000" stroke-width="2" stroke-linecap="round" stroke-linejoin="round" />
            <path
              d="M23.3346 13.3334C22.5203 12.3114 21.3288 11.6667 20.0013 11.6667C18.6738 11.6667 17.4823 12.3114 16.668 13.3334"
              stroke="#FF0000" stroke-width="2" stroke-linecap="round" stroke-linejoin="round" />
            <path
              d="M8.33203 23.3333V29.9999H10.832M31.6654 29.9999H28.332V26.6666M28.332 26.6666V23.3333H31.6654M28.332 26.6666H30.832M14.9987 23.3333V29.9999M19.1654 23.3333L21.6654 29.9999L24.1654 23.3333"
              stroke="#FF0000" stroke-width="1.7" stroke-linecap="round" stroke-linejoin="round" />
          </svg>