<svg width="30" height="30" viewBox="0 0 30 30" fill="none" xmlns="http://www.w3.org/2000/svg">
          <g clip-path="url(#clip0_24216_2768)">
            <path fill-rule="evenodd" clip-rule="evenodd"
              d="M15 0C20.6076 0 23.4116 -0.000153691 25.5 1.20556C26.8682 1.99548 28.0046 3.13183 28.7945 4.5C30.0002 6.58845 30 9.3924 30 15C30 20.6076 30.0002 23.4116 28.7945 25.5C28.0046 26.8682 26.8682 28.0046 25.5 28.7945C23.4116 30.0002 20.6076 30 15 30C9.3924 30 6.58845 30.0002 4.5 28.7945C3.13183 28.0046 1.99548 26.8682 1.20556 25.5C-0.000153691 23.4116 0 20.6076 0 15C0 9.3924 -0.000153691 6.58845 1.20556 4.5C1.99548 3.13183 3.13183 1.99548 4.5 1.20556C6.58845 -0.000153691 9.3924 0 15 0ZM16.5 3C9.87255 3 4.5 8.37255 4.5 15C4.5 21.6275 9.87255 27 16.5 27C23.1275 27 28.5 21.6275 28.5 15C28.5 8.37255 23.1275 3 16.5 3Z"
              fill="#F1762A" />
            <path
              d="M27 15C27 19.1421 23.6421 22.5 19.5 22.5C15.3579 22.5 12 19.1421 12 15C12 10.8579 15.3579 7.5 19.5 7.5C23.6421 7.5 27 10.8579 27 15Z"
              fill="#F1762A" />
          </g>
          <defs>
            <clipPath id="clip0_24216_2768">
              <rect width="30" height="30" fill="white" />
            </clipPath>
          </defs>
        </svg>