 <svg width="30" height="30" viewBox="0 0 30 30" fill="none" xmlns="http://www.w3.org/2000/svg">
              <path
                d="M5.39752 24.6025C3.75 22.955 3.75 20.3032 3.75 15C3.75 9.6967 3.75 7.04505 5.39752 5.39752C7.04505 3.75 9.6967 3.75 15 3.75C20.3032 3.75 22.955 3.75 24.6025 5.39752C26.25 7.04505 26.25 9.6967 26.25 15C26.25 20.3032 26.25 22.955 24.6025 24.6025C22.955 26.25 20.3032 26.25 15 26.25C9.6967 26.25 7.04505 26.25 5.39752 24.6025Z"
                stroke="#767474" stroke-width="1.875" stroke-linecap="round" stroke-linejoin="round" />
              <path d="M7.5 15L10.625 15L13.125 10L16.875 20L19.375 15L22.5 15" stroke="#767474" stroke-width="1.875"
                stroke-linecap="round" stroke-linejoin="round" />
            </svg>