
              <svg width="27" height="27" viewBox="0 0 27 27" fill="none" xmlns="http://www.w3.org/2000/svg">
                <path
                  d="M23.8824 6.77738C23.8824 6.77738 24.2441 5.02084 23.8605 4.5472M23.8605 4.5472C23.4747 4.07078 21.6837 4.06364 21.6837 4.06364M23.8605 4.5472L20.8826 6.95863"
                  stroke="#F15C2A" stroke-width="1.5" stroke-linecap="round" stroke-linejoin="round" />
                <path
                  d="M22.3154 21.6828C22.3154 21.6828 22.304 23.4761 21.8303 23.8597M21.8303 23.8597C21.3538 24.2455 19.6005 23.8802 19.6005 23.8802M21.8303 23.8597L19.4188 20.8818"
                  stroke="#F15C2A" stroke-width="1.5" stroke-linecap="round" stroke-linejoin="round" />
                <path
                  d="M4.54846 2.51724L6.95991 5.49512M4.54846 2.51724C5.02488 2.13145 6.77826 2.49683 6.77826 2.49683M4.54846 2.51724C4.07482 2.90078 4.06338 4.69413 4.06338 4.69413"
                  stroke="#F15C2A" stroke-width="1.5" stroke-linecap="round" stroke-linejoin="round" />
                <path
                  d="M2.51826 21.83L5.49615 19.4186M2.51826 21.83C2.90406 22.3064 4.69508 22.3136 4.69508 22.3136M2.51826 21.83C2.13471 21.3564 2.49638 19.5999 2.49638 19.5999"
                  stroke="#F15C2A" stroke-width="1.5" stroke-linecap="round" stroke-linejoin="round" />
                <path
                  d="M20.1495 13.9204C19.7454 17.7652 16.301 20.5545 12.4562 20.1504C8.61135 19.7463 5.8221 16.3018 6.2262 12.457C6.63031 8.6122 10.0747 5.82295 13.9196 6.22706C17.7644 6.63117 20.5536 10.0756 20.1495 13.9204Z"
                  stroke="#F15C2A" stroke-width="1.5" />
                <path
                  d="M13.3865 10.4957C12.2879 10.3803 11.4158 10.9343 11.3379 11.6755C11.26 12.4166 11.7303 12.9346 13.2003 13.0891C14.8196 13.2593 15.1118 14.0365 15.0339 14.7776C14.956 15.5188 14.1867 16.0298 12.8199 15.8862M13.3865 10.4957C14.2525 10.5868 14.6784 10.9381 14.997 11.3842M13.3865 10.4957L13.4747 9.65612M12.8199 15.8862C11.9539 15.7952 11.6351 15.5887 11.2035 15.1069M12.8199 15.8862L12.7376 16.6693"
                  stroke="#F15C2A" stroke-width="1.5" stroke-linecap="round" />
              </svg>