<svg width="16" height="16" viewBox="0 0 16 16" fill="none" xmlns="http://www.w3.org/2000/svg">
<path d="M8.9987 8.66634V7.66634C8.9987 6.73001 8.9987 6.26188 8.77396 5.92558C8.6767 5.77999 8.5517 5.65499 8.4061 5.55771C8.11236 5.36141 7.71796 5.3366 6.9987 5.33346C6.89463 5.33301 6.7837 5.33301 6.66536 5.33301C5.72906 5.33301 5.2609 5.33301 4.9246 5.55771C4.77902 5.65499 4.65402 5.77999 4.55674 5.92558C4.33203 6.26188 4.33203 6.73001 4.33203 7.66634V11.6663C4.33203 12.6027 4.33203 13.0708 4.55674 13.4071C4.65402 13.5527 4.77902 13.6777 4.9246 13.7749C5.2609 13.9997 5.72906 13.9997 6.66536 13.9997C7.6017 13.9997 8.06983 13.9997 8.4061 13.7749C8.5517 13.6777 8.6767 13.5527 8.77396 13.4071C8.8989 13.2201 8.95436 12.9925 8.97903 12.6663" stroke="#F15C2A" stroke-linecap="round"/>
<path d="M7 7.33333V8.33333C7 9.26967 7 9.7378 7.22473 10.0741C7.322 10.2197 7.447 10.3447 7.5926 10.4419C7.88633 10.6383 8.28073 10.6631 9 10.6662C9.10407 10.6667 9.215 10.6667 9.33333 10.6667C10.2697 10.6667 10.7378 10.6667 11.0741 10.4419C11.2197 10.3447 11.3447 10.2197 11.4419 10.0741C11.6667 9.7378 11.6667 9.26967 11.6667 8.33333V4.33333C11.6667 3.39703 11.6667 2.92887 11.4419 2.59257C11.3447 2.44699 11.2197 2.32199 11.0741 2.22471C10.7378 2 10.2697 2 9.33333 2C8.397 2 7.92887 2 7.5926 2.22471C7.447 2.32199 7.322 2.44699 7.22473 2.59257C7.0998 2.7795 7.04433 3.00717 7.01967 3.33333" stroke="#F15C2A" stroke-linecap="round"/>
</svg>
