 <svg width="40" height="40" viewBox="0 0 40 40" fill="none" xmlns="http://www.w3.org/2000/svg">
            <path d="M20.8346 13.3335L16.668 20.0002H23.3346L19.168 26.6668" stroke="#F1762A" stroke-width="2.5"
              stroke-linecap="round" stroke-linejoin="round" />
            <path
              d="M35.017 23.565C35.8869 23.3257 36.3219 23.206 36.4935 22.9772C36.6654 22.7483 36.6654 22.3802 36.6654 21.644V18.3558C36.6654 17.6197 36.6654 17.2515 36.4935 17.0227C36.3217 16.7938 35.8869 16.6742 35.017 16.4348C31.7664 15.5404 29.7319 12.0729 30.5709 8.77785C30.8015 7.87169 30.9169 7.4186 30.8067 7.15287C30.6965 6.88714 30.3805 6.704 29.7482 6.33775L26.8737 4.67255C26.2534 4.31317 25.9432 4.13347 25.6649 4.17174C25.3864 4.21 25.0724 4.5297 24.444 5.16912C22.012 7.64465 17.988 7.64455 15.5559 5.16895C14.9277 4.52954 14.6137 4.20984 14.3352 4.17157C14.0568 4.1333 13.7466 4.313 13.1262 4.67239L10.2518 6.3376C9.61958 6.70382 9.30348 6.88693 9.19333 7.15263C9.08316 7.41833 9.19848 7.87147 9.42911 8.77773C10.2676 12.0728 8.23156 15.5404 4.9804 16.4349C4.11056 16.6742 3.67565 16.7938 3.50383 17.0227C3.33203 17.2515 3.33203 17.6195 3.33203 18.3558L3.33203 21.644C3.33203 22.3802 3.33203 22.7483 3.50383 22.9772C3.67561 23.206 4.11055 23.3257 4.9804 23.565C8.23103 24.4595 10.2655 27.927 9.42656 31.222C9.19585 32.1282 9.08048 32.5812 9.19063 32.847C9.3008 33.1127 9.6169 33.2958 10.2491 33.662L13.1236 35.3273C13.744 35.6867 14.0543 35.8663 14.3327 35.8282C14.6111 35.7898 14.9252 35.47 15.5532 34.8307C17.9865 32.353 22.0134 32.353 24.4469 34.8305C25.0749 35.47 25.3889 35.7897 25.6674 35.828C25.9457 35.8662 26.256 35.6865 26.8764 35.3272L29.7509 33.6618C30.3832 33.2957 30.6994 33.1125 30.8094 32.8467C30.9195 32.581 30.8042 32.1278 30.5734 31.2218C29.734 27.927 31.7669 24.4595 35.017 23.565Z"
              stroke="#F1762A" stroke-width="2.5" stroke-linecap="round" />
          </svg>