 <svg width="35" height="35" viewBox="0 0 35 35" fill="none" xmlns="http://www.w3.org/2000/svg">
              <path
                d="M4.37505 26.9867C4.34008 28.9898 4.3226 29.9914 4.93404 30.6246C5.54548 31.2577 6.54707 31.2752 8.55023 31.3102C10.5534 31.3451 11.555 31.3626 12.1881 30.7512C12.8213 30.1397 12.8388 29.1381 12.8738 27.135C12.9087 25.1319 12.9262 24.1303 12.3148 23.497C11.7033 22.8639 10.7017 22.8464 8.69857 22.8115C6.69541 22.7765 5.69383 22.759 5.06066 23.3704C4.42749 23.9819 4.41001 24.9835 4.37505 26.9867Z"
                stroke="#F1762A" stroke-width="2.125" />
              <path
                d="M4.7188 7.15658C4.68383 9.15974 4.66635 10.1613 5.27779 10.7945C5.88923 11.4277 6.89082 11.4451 8.89398 11.4801C10.8971 11.5151 11.8987 11.5326 12.5319 10.9211C13.1651 10.3097 13.1825 9.30808 13.2175 7.30492C13.2525 5.30177 13.2699 4.30018 12.6585 3.66701C12.0471 3.03385 11.0455 3.01636 9.04232 2.9814C7.03916 2.94643 6.03758 2.92895 5.40441 3.54039C4.77124 4.15183 4.75376 5.15342 4.7188 7.15658Z"
                stroke="#F1762A" stroke-width="2.125" />
              <path
                d="M21.4961 20.201C21.4612 22.2042 21.4437 23.2057 22.0551 23.839C22.6666 24.4721 23.6682 24.4896 25.6713 24.5245C27.6745 24.5595 28.676 24.577 29.3093 23.9656C29.9424 23.3541 29.9599 22.3525 29.9948 20.3494C30.0298 18.3462 30.0473 17.3446 29.4359 16.7114C28.8244 16.0783 27.8228 16.0608 25.8197 16.0258C23.8165 15.9909 22.8149 15.9734 22.1817 16.5848C21.5486 17.1963 21.5311 18.1979 21.4961 20.201Z"
                stroke="#F1762A" stroke-width="2.125" />
              <path d="M8.89453 11.48L8.69674 22.8116" stroke="#F1762A" stroke-width="2.125" stroke-linecap="round"
                stroke-linejoin="round" />
              <path d="M21.4942 20.2012L17.2449 20.127C12.5512 20.0451 8.8126 16.1737 8.89453 11.48" stroke="#F1762A"
                stroke-width="2.125" stroke-linecap="round" stroke-linejoin="round" />
            </svg>