<svg width="30" height="30" viewBox="0 0 30 30" fill="none" xmlns="http://www.w3.org/2000/svg">
<path d="M16.875 16.25L21.25 11.25M17.5 18.75C17.5 20.1307 16.3807 21.25 15 21.25C13.6193 21.25 12.5 20.1307 12.5 18.75C12.5 17.3693 13.6193 16.25 15 16.25C16.3807 16.25 17.5 17.3693 17.5 18.75Z" stroke="#F1762A" stroke-width="1.875" stroke-linecap="round"/>
<path d="M7.5 15C7.5 10.8579 10.8579 7.5 15 7.5C16.3661 7.5 17.6469 7.86523 18.75 8.50336" stroke="#F1762A" stroke-width="1.875" stroke-linecap="round"/>
<path d="M3.125 15.0001C3.125 9.40207 3.125 6.60311 4.86405 4.86405C6.60311 3.125 9.40207 3.125 15.0001 3.125C20.5979 3.125 23.3969 3.125 25.1359 4.86405C26.8751 6.60311 26.875 9.40207 26.875 15.0001C26.875 20.5979 26.8751 23.3969 25.1359 25.1359C23.3969 26.8751 20.5979 26.875 15.0001 26.875C9.40207 26.875 6.60311 26.8751 4.86405 25.1359C3.125 23.3969 3.125 20.5979 3.125 15.0001Z" stroke="#F1762A" stroke-width="1.875"/>
</svg>
