<svg width="16" height="16" viewBox="0 0 16 16" fill="none" xmlns="http://www.w3.org/2000/svg">
              <path
                d="M11.2176 4.70823C11.9987 5.41646 11.9987 6.55634 11.9987 8.83607V9.8306C11.9987 12.1103 11.9987 13.2502 11.2176 13.9585C10.4366 14.6667 9.1795 14.6667 6.66536 14.6667C4.1512 14.6667 2.89413 14.6667 2.11308 13.9585C1.33203 13.2502 1.33203 12.1103 1.33203 9.8306V8.83607C1.33203 6.55634 1.33203 5.41646 2.11308 4.70823C2.89413 4 4.1512 4 6.66536 4C9.1795 4 10.4366 4 11.2176 4.70823Z"
                stroke="white" stroke-linecap="round" stroke-linejoin="round" />
              <path
                d="M4.04297 4.00016C4.11432 3.07492 4.29936 2.47686 4.77923 2.04172C5.56028 1.3335 6.81736 1.3335 9.3315 1.3335C11.8457 1.3335 13.1028 1.3335 13.8838 2.04172C14.6648 2.74996 14.6648 3.88984 14.6648 6.16959V7.1641C14.6648 9.44383 14.6648 10.5837 13.8838 11.292C13.4484 11.6868 12.8649 11.8615 11.9982 11.9388"
                stroke="white" stroke-linecap="round" stroke-linejoin="round" />
              <path
                d="M7.1274 7.05163L7.59667 7.99797C7.66067 8.12963 7.83127 8.25603 7.97527 8.28023L8.82587 8.4227C9.3698 8.5141 9.4978 8.91197 9.1058 9.3045L8.44453 9.97123C8.3326 10.0842 8.27127 10.3019 8.30593 10.4578L8.4952 11.2832C8.64453 11.9364 8.3006 12.1892 7.72733 11.8477L6.93007 11.3719C6.78607 11.2858 6.54877 11.2858 6.40212 11.3719L5.60487 11.8477C5.03427 12.1892 4.68764 11.9338 4.83695 11.2832L5.02627 10.4578C5.06093 10.3019 4.99961 10.0842 4.88762 9.97123L4.22636 9.3045C3.83707 8.91197 3.96239 8.5141 4.50633 8.4227L5.3569 8.28023C5.49821 8.25603 5.66887 8.12963 5.73286 7.99797L6.20214 7.05163C6.45811 6.53813 6.87407 6.53813 7.1274 7.05163Z"
                stroke="white" stroke-linecap="round" stroke-linejoin="round" />
            </svg>