<svg preserveAspectRatio="none" width="100%" height="100%" overflow="visible" style="display: block;" viewBox="0 0 189.347 249.488" fill="none" xmlns="http://www.w3.org/2000/svg">
<g id="Vector">
<path fill-rule="evenodd" clip-rule="evenodd" d="M28.7131 34.3677L45.4066 63.7008H12.0195L28.7131 34.3677Z" fill="var(--fill-0, #F1762A)" fill-opacity="0.12"/>
<path fill-rule="evenodd" clip-rule="evenodd" d="M70.2446 63.7007L86.9382 34.3676H53.5511L70.2446 63.7007Z" fill="#1257B8" fill-opacity="0.12"/>
<path fill-rule="evenodd" clip-rule="evenodd" d="M46.9088 24.1242L46.9102 24.1236L50.0036 29.5592H37.634L40.7277 24.1236L40.7289 24.1242L43.8189 18.6948L46.9088 24.1242ZM43.8189 21.6515L40.1653 28.0743H47.4725L43.8189 21.6515Z" fill="#1257B8" fill-opacity="0.12"/>
<path fill-rule="evenodd" clip-rule="evenodd" d="M46.9088 39.7749L46.9102 39.7741L50.0036 45.2098H37.634L40.7277 39.7741L40.7289 39.7749L43.8189 34.3454L46.9088 39.7749ZM43.8189 37.3022L40.1653 43.7249H47.4725L43.8189 37.3022Z" fill="#1257B8" fill-opacity="0.12"/>
<path fill-rule="evenodd" clip-rule="evenodd" d="M46.9088 55.4254L46.9102 55.4246L50.0036 60.8602H37.634L40.7277 55.4246L40.7289 55.4254L43.8189 49.9959L46.9088 55.4254ZM43.8189 52.9526L40.1653 59.3754H47.4725L43.8189 52.9526Z" fill="#1257B8" fill-opacity="0.12"/>
<path fill-rule="evenodd" clip-rule="evenodd" d="M46.9088 71.076L46.9102 71.0753L50.0036 76.5109H37.634L40.7277 71.0753L40.7289 71.076L43.8189 65.6465L46.9088 71.076ZM43.8189 68.6031L40.1653 75.0259H47.4725L43.8189 68.6031Z" fill="#1257B8" fill-opacity="0.12"/>
<path fill-rule="evenodd" clip-rule="evenodd" d="M133.781 35.5521L135.644 33.6626L137.019 35.0572L138.393 33.6626L140.256 35.5521L138.881 36.9467L140.256 38.3412L138.393 40.2307L137.019 38.8362L135.644 40.2307L133.781 38.3412L135.156 36.9467L133.781 35.5521Z" fill="var(--fill-0, #F1762A)" fill-opacity="0.12"/>
<path fill-rule="evenodd" clip-rule="evenodd" d="M133.781 18.7209L135.644 16.8314L137.019 18.2258L138.393 16.8314L140.256 18.7209L138.881 20.1155L140.256 21.5098L138.393 23.3995L137.019 22.005L135.644 23.3995L133.781 21.5098L135.156 20.1155L133.781 18.7209Z" fill="#1257B8" fill-opacity="0.12"/>
<path fill-rule="evenodd" clip-rule="evenodd" d="M133.781 1.88975L135.644 0L137.019 1.39462L138.393 0L140.256 1.88975L138.881 3.28412L140.256 4.67865L138.393 6.56808L137.019 5.17379L135.644 6.56808L133.781 4.67865L135.156 3.28412L133.781 1.88975Z" fill="var(--fill-0, #F1762A)" fill-opacity="0.12"/>
<path fill-rule="evenodd" clip-rule="evenodd" d="M156.08 179.339C159.223 182.542 161.736 186.14 163.623 189.973L145.635 171.636C149.404 173.57 152.938 176.136 156.08 179.339ZM166.15 196.424L139.289 169.042C137.891 168.607 136.476 168.248 135.048 167.969L167.188 200.73C166.919 199.281 166.573 197.843 166.15 196.424ZM167.766 205.195L130.65 167.361C129.545 167.27 128.436 167.223 127.328 167.223L167.886 208.566C167.892 207.442 167.851 206.317 167.766 205.195ZM167.705 212.256L123.69 167.389C122.742 167.476 121.797 167.596 120.856 167.75L167.336 215.129C167.492 214.175 167.615 213.217 167.705 212.256ZM166.681 218.337L117.691 168.399C116.854 168.606 116.022 168.842 115.196 169.104L165.974 220.864C166.236 220.028 166.473 219.185 166.681 218.337ZM164.966 223.711L112.385 170.114C111.634 170.415 110.891 170.741 110.155 171.09L163.993 225.969C164.34 225.224 164.665 224.471 164.966 223.711ZM162.693 228.519L107.635 172.396C106.96 172.778 106.293 173.182 105.635 173.606L161.491 230.542C161.912 229.877 162.314 229.203 162.693 228.519ZM159.935 232.831L103.372 175.174C102.764 175.627 102.166 176.102 101.578 176.594L158.527 234.644C159.014 234.05 159.485 233.446 159.935 232.831ZM156.733 236.691L99.552 178.404C99.2784 178.665 99.0075 178.93 98.7397 179.2C98.4719 179.471 98.2094 179.745 97.9506 180.021L155.131 238.308C155.405 238.046 155.676 237.781 155.944 237.511C156.211 237.241 156.474 236.967 156.733 236.691ZM153.106 240.118L96.157 182.067C95.669 182.661 95.1984 183.265 94.7486 183.88L151.312 241.538C151.92 241.084 152.518 240.61 153.106 240.118ZM149.048 243.105L93.1925 186.169C92.7716 186.834 92.3692 187.508 91.99 188.192L147.048 244.315C147.724 243.934 148.39 243.529 149.048 243.105ZM144.528 245.621C143.792 245.97 143.049 246.296 142.298 246.598L89.7179 193C90.019 192.24 90.3435 191.487 90.6907 190.743L144.528 245.621ZM139.487 247.607C138.662 247.869 137.83 248.105 136.992 248.313L88.002 198.375C88.2104 197.526 88.4469 196.683 88.7095 195.847L139.487 247.607ZM133.827 248.961C132.886 249.115 131.941 249.236 130.994 249.322L86.9787 204.455C87.0683 203.495 87.1919 202.536 87.3479 201.583L133.827 248.961ZM127.356 249.488C126.247 249.488 125.139 249.442 124.033 249.351L86.9172 211.516C86.8324 210.394 86.7919 209.27 86.7973 208.145L127.356 249.488ZM119.635 248.742C118.208 248.463 116.792 248.105 115.395 247.669L88.5333 220.288C88.1107 218.868 87.7639 217.431 87.4957 215.981L119.635 248.742ZM109.049 245.075C105.279 243.142 101.745 240.575 98.6029 237.372C95.4605 234.169 92.947 230.572 91.0602 226.738L109.049 245.075Z" fill="#EBEBEB" fill-opacity="0.12"/>
<path d="M119.042 149.169C123.145 149.169 126.471 145.795 126.471 141.633C126.471 137.47 123.145 134.096 119.042 134.096C114.939 134.096 111.613 137.47 111.613 141.633C111.613 145.795 114.939 149.169 119.042 149.169Z" fill="#1257B8" fill-opacity="0.12"/>
<path fill-rule="evenodd" clip-rule="evenodd" d="M54.7128 148.833L79.215 163.184V191.887L54.7128 206.238L30.2109 191.887V163.184L54.7128 148.833Z" fill="var(--fill-0, #F1762A)" fill-opacity="0.12"/>
<path d="M119.042 128.017C123.145 128.017 126.471 124.643 126.471 120.481C126.471 116.318 123.145 112.944 119.042 112.944C114.939 112.944 111.613 116.318 111.613 120.481C111.613 124.643 114.939 128.017 119.042 128.017Z" fill="var(--fill-0, #F1762A)" fill-opacity="0.12"/>
<path fill-rule="evenodd" clip-rule="evenodd" d="M110.82 119.038C126.743 119.038 141.158 125.585 151.593 136.171C162.027 146.757 168.481 161.382 168.481 177.535C168.481 193.689 162.027 208.313 151.593 218.899C141.158 229.485 126.743 236.033 110.82 236.033C94.897 236.033 80.4813 229.485 70.0465 218.899C59.6117 208.313 53.1577 193.689 53.1577 177.535C53.1577 161.382 59.6117 146.757 70.0465 136.171C80.4814 125.585 94.897 119.038 110.82 119.038ZM150.558 137.221C140.388 126.904 126.338 120.523 110.82 120.523C95.3009 120.523 81.2511 126.904 71.0814 137.221C60.9117 147.538 54.6215 161.792 54.6215 177.535C54.6215 193.279 60.9117 207.532 71.0814 217.849C81.2511 228.166 95.3009 234.548 110.82 234.548C126.338 234.548 140.388 228.167 150.558 217.849C160.727 207.532 167.018 193.279 167.018 177.535C167.018 161.792 160.727 147.538 150.558 137.221Z" fill="#1257B8" fill-opacity="0.12"/>
<path fill-rule="evenodd" clip-rule="evenodd" d="M28.7131 69.8177L45.4066 99.1507H12.0195L28.7131 69.8177Z" fill="#EBEBEB" fill-opacity="0.12"/>
<path d="M18.4056 161.218H0V162.667H18.4056V161.218Z" fill="#1257B8" fill-opacity="0.12"/>
<path d="M18.4056 167.455H0V168.904H18.4056V167.455Z" fill="#1257B8" fill-opacity="0.12"/>
<path d="M18.4056 173.692H0V175.141H18.4056V173.692Z" fill="#1257B8" fill-opacity="0.12"/>
<path d="M18.4056 179.929H0V181.378H18.4056V179.929Z" fill="#1257B8" fill-opacity="0.12"/>
<path d="M18.4056 186.166H0V187.615H18.4056V186.166Z" fill="#1257B8" fill-opacity="0.12"/>
<path d="M18.4056 192.404H0V193.852H18.4056V192.404Z" fill="#1257B8" fill-opacity="0.12"/>
<path d="M189.347 58.2261H173.389V66.0839H189.347V58.2261Z" fill="#1257B8" fill-opacity="0.12"/>
<path d="M189.347 73.3131H173.389V81.171H189.347V73.3131Z" fill="var(--fill-0, #F1762A)" fill-opacity="0.12"/>
</g>
</svg>
