<svg preserveAspectRatio="none" width="100%" height="100%" overflow="visible" style="display: block;" viewBox="0 0 16 16" fill="none" xmlns="http://www.w3.org/2000/svg">
<g id="quotes">
<path id="Vector" d="M14.6667 7.71113C14.6667 11.2333 11.6815 14.0889 8 14.0889C7.56713 14.0895 7.13547 14.0495 6.71027 13.9697C6.40422 13.9121 6.25119 13.8834 6.14435 13.8997C6.03751 13.9161 5.88612 13.9965 5.58333 14.1576C4.72676 14.6131 3.72797 14.774 2.76741 14.5953C3.13249 14.1463 3.38183 13.6075 3.49185 13.0299C3.55852 12.6765 3.39333 12.3333 3.14593 12.0821C2.02222 10.941 1.33333 9.4034 1.33333 7.71113C1.33333 4.18905 4.31852 1.33333 8 1.33333C11.6815 1.33333 14.6667 4.18905 14.6667 7.71113Z" stroke="var(--stroke-0, white)" stroke-linejoin="round"/>
<path id="Vector_2" d="M7.16373 6.66667C7.16373 6.03813 7.16373 5.72386 6.95647 5.52859C6.74927 5.33333 6.41567 5.33333 5.74854 5.33333C5.08141 5.33333 4.74784 5.33333 4.54059 5.52859C4.33333 5.72386 4.33333 6.03813 4.33333 6.66667C4.33333 7.2952 4.33333 7.60947 4.54059 7.80473C4.74784 8 5.08141 8 5.74854 8C6.41567 8 6.74927 8 6.95647 7.80473C7.16373 7.60947 7.16373 7.2952 7.16373 6.66667ZM7.16373 6.66667V8.0458C7.16373 9.26813 6.27368 10.3047 5.04093 10.6667M11.6667 6.66667C11.6667 6.03813 11.6667 5.72386 11.4594 5.52859C11.2521 5.33333 10.9186 5.33333 10.2515 5.33333C9.58433 5.33333 9.25073 5.33333 9.04353 5.52859C8.83627 5.72386 8.83627 6.03813 8.83627 6.66667C8.83627 7.2952 8.83627 7.60947 9.04353 7.80473C9.25073 8 9.58433 8 10.2515 8C10.9186 8 11.2521 8 11.4594 7.80473C11.6667 7.60947 11.6667 7.2952 11.6667 6.66667ZM11.6667 6.66667V8.0458C11.6667 9.26813 10.7766 10.3047 9.54387 10.6667" stroke="var(--stroke-0, white)" stroke-linecap="round"/>
</g>
</svg>
