<svg preserveAspectRatio="none" width="100%" height="100%" overflow="visible" style="display: block;" viewBox="0 0 16 16" fill="none" xmlns="http://www.w3.org/2000/svg">
<g id="stack-star">
<path id="Vector" d="M11.2189 4.70823C12 5.41646 12 6.55634 12 8.83607V9.8306C12 12.1103 12 13.2502 11.2189 13.9585C10.4379 14.6667 9.1808 14.6667 6.66667 14.6667C4.15251 14.6667 2.89543 14.6667 2.11438 13.9585C1.33333 13.2502 1.33333 12.1103 1.33333 9.8306V8.83607C1.33333 6.55634 1.33333 5.41646 2.11438 4.70823C2.89543 4 4.15251 4 6.66667 4C9.1808 4 10.4379 4 11.2189 4.70823Z" stroke="var(--stroke-0, white)" stroke-linecap="round" stroke-linejoin="round"/>
<path id="Vector_2" d="M4.04427 4C4.11562 3.07475 4.30066 2.47669 4.78053 2.04156C5.56158 1.33333 6.81866 1.33333 9.3328 1.33333C11.847 1.33333 13.1041 1.33333 13.8851 2.04156C14.6661 2.74979 14.6661 3.88967 14.6661 6.16943V7.16393C14.6661 9.44367 14.6661 10.5835 13.8851 11.2918C13.4497 11.6866 12.8662 11.8613 11.9995 11.9387" stroke="var(--stroke-0, white)" stroke-linecap="round" stroke-linejoin="round"/>
<path id="Vector_3" d="M7.1274 7.0518L7.59667 7.99813C7.66067 8.1298 7.83127 8.2562 7.97527 8.2804L8.82587 8.42286C9.3698 8.51426 9.4978 8.91213 9.1058 9.30466L8.44453 9.9714C8.3326 10.0843 8.27127 10.3021 8.30593 10.458L8.4952 11.2833C8.64453 11.9366 8.3006 12.1893 7.72733 11.8479L6.93007 11.3721C6.78607 11.286 6.54877 11.286 6.40212 11.3721L5.60487 11.8479C5.03427 12.1893 4.68764 11.9339 4.83695 11.2833L5.02627 10.458C5.06093 10.3021 4.99961 10.0843 4.88762 9.9714L4.22636 9.30466C3.83707 8.91213 3.96239 8.51426 4.50633 8.42286L5.3569 8.2804C5.49821 8.2562 5.66887 8.1298 5.73286 7.99813L6.20214 7.0518C6.45811 6.53829 6.87407 6.53829 7.1274 7.0518Z" stroke="var(--stroke-0, white)" stroke-linecap="round" stroke-linejoin="round"/>
</g>
</svg>
