<svg width="167" height="168" viewBox="0 0 167 168" fill="none" xmlns="http://www.w3.org/2000/svg">
<g filter="url(#filter0_d_24359_2622)">
<rect x="53.6172" y="51.4546" width="62" height="62" rx="12" transform="rotate(2 53.6172 51.4546)" fill="white"/>
<rect x="54.3406" y="52.2303" width="60.5" height="60.5" rx="11.25" transform="rotate(2 54.3406 52.2303)" stroke="#F5F5F5" stroke-width="1.5" stroke-linecap="round" stroke-linejoin="round"/>
<g clip-path="url(#clip0_24359_2622)">
<path d="M91.0156 89.5176V77.5176C91.0156 76.6891 90.3441 76.0176 89.5156 76.0176H89.4402C89.0424 76.0176 88.6609 76.1758 88.3797 76.457L76.4551 88.3816C76.1738 88.6629 76.0156 89.0443 76.0156 89.4421V98.5176H68.5156V89.4421C68.5156 87.0552 69.4638 84.766 71.1516 83.0782L83.0762 71.1536C84.764 69.4658 87.0532 68.5176 89.4402 68.5176H89.5156C94.4862 68.5176 98.5156 72.547 98.5156 77.5176V89.5176C98.5156 94.4881 94.4862 98.5176 89.5156 98.5176H79.0156V91.0176H89.5156C90.3441 91.0176 91.0156 90.346 91.0156 89.5176ZM68.5156 68.5176H81.2656L73.7656 76.0176H68.5156V68.5176Z" fill="#F1762A"/>
</g>
</g>
<defs>
<filter id="filter0_d_24359_2622" x="-0.546875" y="-0.54541" width="168.125" height="168.126" filterUnits="userSpaceOnUse" color-interpolation-filters="sRGB">
<feFlood flood-opacity="0" result="BackgroundImageFix"/>
<feColorMatrix in="SourceAlpha" type="matrix" values="0 0 0 0 0 0 0 0 0 0 0 0 0 0 0 0 0 0 127 0" result="hardAlpha"/>
<feMorphology radius="16" operator="erode" in="SourceAlpha" result="effect1_dropShadow_24359_2622"/>
<feOffset/>
<feGaussianBlur stdDeviation="34"/>
<feComposite in2="hardAlpha" operator="out"/>
<feColorMatrix type="matrix" values="0 0 0 0 0.945098 0 0 0 0 0.360784 0 0 0 0 0.164706 0 0 0 0.07 0"/>
<feBlend mode="normal" in2="BackgroundImageFix" result="effect1_dropShadow_24359_2622"/>
<feBlend mode="normal" in="SourceGraphic" in2="effect1_dropShadow_24359_2622" result="shape"/>
</filter>
<clipPath id="clip0_24359_2622">
<rect width="30" height="30" fill="white" transform="translate(68.5156 68.5176)"/>
</clipPath>
</defs>
</svg>
