<svg width="169" height="169" viewBox="0 0 169 169" fill="none" xmlns="http://www.w3.org/2000/svg">
<g filter="url(#filter0_d_24359_2614)">
<rect x="51.0078" y="55.333" width="62" height="62" rx="12" transform="rotate(-4 51.0078 55.333)" fill="white"/>
<rect x="51.8083" y="56.0289" width="60.5" height="60.5" rx="11.25" transform="rotate(-4 51.8083 56.0289)" stroke="#F5F5F5" stroke-width="1.5" stroke-linecap="round" stroke-linejoin="round"/>
<g clip-path="url(#clip0_24359_2614)">
<path d="M78.9507 84.7206L82.4493 86.0501L82.2876 89.975L76.7095 97.2634C73.0346 95.2454 70.2694 91.7242 69.2964 87.4665L78.9507 84.7206Z" fill="#15E3FF"/>
<path d="M88.2847 88.2676L93.3635 95.7608C91.0518 97.6378 88.1599 98.8471 84.9638 99.0706C83.9262 99.1431 82.906 99.1083 81.9138 98.9756L82.2864 89.9747L84.6496 86.887L88.2847 88.2676Z" fill="#477BFF"/>
<path d="M98.1184 79.2656C98.5263 80.4651 98.7879 81.7363 98.8805 83.0596C99.0958 86.1393 98.3654 89.0668 96.9369 91.5578L88.2838 88.2682L86.08 85.0179L88.3548 82.0446L98.1184 79.2656Z" fill="#FD4873"/>
<path d="M83.1482 69.1246C87.6568 68.8916 91.8185 70.6813 94.7335 73.7114L88.3552 82.0449L84.7602 83.068L82.6978 80.0256L83.1482 69.1246Z" fill="#FFC700"/>
<path d="M82.6976 80.0254L82.545 83.6971L78.951 84.7199L69.2313 81.0252C70.1244 76.7568 72.8454 73.1105 76.5892 71.012L82.6976 80.0254Z" fill="#00E7B9"/>
</g>
</g>
<defs>
<filter id="filter0_d_24359_2614" x="-0.992188" y="-0.991699" width="170.176" height="170.174" filterUnits="userSpaceOnUse" color-interpolation-filters="sRGB">
<feFlood flood-opacity="0" result="BackgroundImageFix"/>
<feColorMatrix in="SourceAlpha" type="matrix" values="0 0 0 0 0 0 0 0 0 0 0 0 0 0 0 0 0 0 127 0" result="hardAlpha"/>
<feMorphology radius="16" operator="erode" in="SourceAlpha" result="effect1_dropShadow_24359_2614"/>
<feOffset/>
<feGaussianBlur stdDeviation="34"/>
<feComposite in2="hardAlpha" operator="out"/>
<feColorMatrix type="matrix" values="0 0 0 0 0.945098 0 0 0 0 0.360784 0 0 0 0 0.164706 0 0 0 0.07 0"/>
<feBlend mode="normal" in2="BackgroundImageFix" result="effect1_dropShadow_24359_2614"/>
<feBlend mode="normal" in="SourceGraphic" in2="effect1_dropShadow_24359_2614" result="shape"/>
</filter>
<clipPath id="clip0_24359_2614">
<rect width="30" height="30" fill="white" transform="translate(68.0859 70.1777) rotate(-4)"/>
</clipPath>
</defs>
</svg>
