<svg width="168" height="169" viewBox="0 0 168 169" fill="none" xmlns="http://www.w3.org/2000/svg">
<g filter="url(#filter0_d_24359_2591)">
<rect x="50.5039" y="55.333" width="62" height="62" rx="12" transform="rotate(-4 50.5039 55.333)" fill="white"/>
<rect x="51.3044" y="56.0289" width="60.5" height="60.5" rx="11.25" transform="rotate(-4 51.3044 56.0289)" stroke="#F5F5F5" stroke-width="1.5" stroke-linecap="round" stroke-linejoin="round"/>
<g clip-path="url(#clip0_24359_2591)">
<path d="M78.4468 84.7206L81.9454 86.0501L81.7837 89.975L76.2056 97.2634C72.5307 95.2454 69.7655 91.7242 68.7925 87.4665L78.4468 84.7206Z" fill="#15E3FF"/>
<path d="M87.7808 88.2676L92.8596 95.7608C90.5479 97.6378 87.656 98.8471 84.4599 99.0706C83.4223 99.1431 82.4021 99.1083 81.4099 98.9756L81.7825 89.9747L84.1457 86.887L87.7808 88.2676Z" fill="#477BFF"/>
<path d="M97.6145 79.2656C98.0224 80.4651 98.284 81.7363 98.3766 83.0596C98.5919 86.1393 97.8615 89.0668 96.4329 91.5578L87.7799 88.2682L85.5761 85.0179L87.8509 82.0446L97.6145 79.2656Z" fill="#FD4873"/>
<path d="M82.6443 69.1246C87.1529 68.8916 91.3146 70.6813 94.2296 73.7114L87.8513 82.0449L84.2563 83.068L82.1939 80.0256L82.6443 69.1246Z" fill="#FFC700"/>
<path d="M82.1937 80.0254L82.041 83.6971L78.4471 84.7199L68.7274 81.0252C69.6205 76.7568 72.3415 73.1105 76.0853 71.012L82.1937 80.0254Z" fill="#00E7B9"/>
</g>
</g>
<defs>
<filter id="filter0_d_24359_2591" x="-1.49609" y="-0.991699" width="170.176" height="170.174" filterUnits="userSpaceOnUse" color-interpolation-filters="sRGB">
<feFlood flood-opacity="0" result="BackgroundImageFix"/>
<feColorMatrix in="SourceAlpha" type="matrix" values="0 0 0 0 0 0 0 0 0 0 0 0 0 0 0 0 0 0 127 0" result="hardAlpha"/>
<feMorphology radius="16" operator="erode" in="SourceAlpha" result="effect1_dropShadow_24359_2591"/>
<feOffset/>
<feGaussianBlur stdDeviation="34"/>
<feComposite in2="hardAlpha" operator="out"/>
<feColorMatrix type="matrix" values="0 0 0 0 0.945098 0 0 0 0 0.360784 0 0 0 0 0.164706 0 0 0 0.07 0"/>
<feBlend mode="normal" in2="BackgroundImageFix" result="effect1_dropShadow_24359_2591"/>
<feBlend mode="normal" in="SourceGraphic" in2="effect1_dropShadow_24359_2591" result="shape"/>
</filter>
<clipPath id="clip0_24359_2591">
<rect width="30" height="30" fill="white" transform="translate(67.582 70.1777) rotate(-4)"/>
</clipPath>
</defs>
</svg>
