<svg width="168" height="168" viewBox="0 0 168 168" fill="none" xmlns="http://www.w3.org/2000/svg">
<g filter="url(#filter0_d_24359_2571)">
<rect x="53.6172" y="51.4546" width="62" height="62" rx="12" transform="rotate(2 53.6172 51.4546)" fill="white"/>
<rect x="54.3406" y="52.2303" width="60.5" height="60.5" rx="11.25" transform="rotate(2 54.3406 52.2303)" stroke="#F5F5F5" stroke-width="1.5" stroke-linecap="round" stroke-linejoin="round"/>
<g clip-path="url(#clip0_24359_2571)">
<path d="M87.0398 68.6316L81.0435 68.4222L80.7277 77.4641C80.6454 79.0974 79.2669 80.3675 77.6269 80.3102L68.632 79.9961L68.4226 85.9925L74.9333 86.2198C76.5237 86.2753 78.071 85.6968 79.2347 84.6116L84.9081 79.3211C86.0719 78.2359 86.7569 76.7327 86.8125 75.1424L87.0398 68.6316Z" fill="url(#paint0_linear_24359_2571)"/>
<path d="M79.9968 98.4041L85.9932 98.6135L86.3089 89.5716C86.3912 87.9383 87.7697 86.6682 89.4097 86.7255L98.4046 87.0396L98.614 81.0432L92.1033 80.8159C90.513 80.7603 88.9657 81.3389 87.8019 82.4241L82.1285 87.7146C80.9648 88.7998 80.2797 90.303 80.2242 91.8933L79.9968 98.4041Z" fill="url(#paint1_linear_24359_2571)"/>
</g>
</g>
<defs>
<filter id="filter0_d_24359_2571" x="-0.546875" y="-0.54541" width="168.125" height="168.126" filterUnits="userSpaceOnUse" color-interpolation-filters="sRGB">
<feFlood flood-opacity="0" result="BackgroundImageFix"/>
<feColorMatrix in="SourceAlpha" type="matrix" values="0 0 0 0 0 0 0 0 0 0 0 0 0 0 0 0 0 0 127 0" result="hardAlpha"/>
<feMorphology radius="16" operator="erode" in="SourceAlpha" result="effect1_dropShadow_24359_2571"/>
<feOffset/>
<feGaussianBlur stdDeviation="34"/>
<feComposite in2="hardAlpha" operator="out"/>
<feColorMatrix type="matrix" values="0 0 0 0 0.945098 0 0 0 0 0.360784 0 0 0 0 0.164706 0 0 0 0.07 0"/>
<feBlend mode="normal" in2="BackgroundImageFix" result="effect1_dropShadow_24359_2571"/>
<feBlend mode="normal" in="SourceGraphic" in2="effect1_dropShadow_24359_2571" result="shape"/>
</filter>
<linearGradient id="paint0_linear_24359_2571" x1="84.0677" y1="67.7795" x2="83.1571" y2="93.8563" gradientUnits="userSpaceOnUse">
<stop stop-color="#75D8FC"/>
<stop offset="1" stop-color="#477BFF"/>
</linearGradient>
<linearGradient id="paint1_linear_24359_2571" x1="84.0681" y1="67.7797" x2="83.1574" y2="93.8564" gradientUnits="userSpaceOnUse">
<stop stop-color="#75D8FC"/>
<stop offset="1" stop-color="#477BFF"/>
</linearGradient>
<clipPath id="clip0_24359_2571">
<rect width="30" height="30" fill="white" transform="translate(69.0508 68.0034) rotate(2)"/>
</clipPath>
</defs>
</svg>
