<svg width="30" height="30" viewBox="0 0 30 30" fill="none" xmlns="http://www.w3.org/2000/svg">
<g clip-path="url(#clip0_24216_2925)">
<path d="M9.8223 15.2656L13.2197 16.8359L12.7845 20.74L6.71157 27.6216C3.18645 25.3522 0.673633 21.6466 0 17.3314L9.8223 15.2656Z" fill="#15E3FF"/>
<path d="M18.8874 19.455L23.4312 27.2842C20.9942 28.9954 18.025 30 14.8211 30C13.781 30 12.7656 29.894 11.7852 29.6925L12.7847 20.7395L15.3576 17.8242L18.8874 19.455Z" fill="#477BFF"/>
<path d="M29.3283 11.1611C29.6515 12.3861 29.8239 13.6724 29.8239 14.999C29.8239 18.0863 28.891 20.9556 27.2922 23.3409L18.8896 19.4558L16.918 16.0596L19.3947 13.2523L29.3283 11.1611Z" fill="#FD4873"/>
<path d="M15.1004 0C19.6143 0.0820613 23.6409 2.15775 26.3375 5.38381L19.3935 13.252L15.7358 14.0219L13.8906 10.8431L15.1004 0Z" fill="#FFC700"/>
<path d="M13.8899 10.8433L13.4816 14.4954L9.82501 15.265L0.386719 10.9013C1.57542 6.70559 4.54414 3.25796 8.42521 1.42578L13.8899 10.8433Z" fill="#00E7B9"/>
</g>
<defs>
<clipPath id="clip0_24216_2925">
<rect width="30" height="30" fill="white"/>
</clipPath>
</defs>
</svg>
