<svg width="154" height="154" viewBox="0 0 154 154" fill="none" xmlns="http://www.w3.org/2000/svg">
<g filter="url(#filter0_d_24389_2713)">
<rect x="52" y="52" width="50" height="50" rx="12" fill="white"/>
<rect x="52.75" y="52.75" width="48.5" height="48.5" rx="11.25" stroke="#F5F5F5" stroke-width="1.5" stroke-linecap="round" stroke-linejoin="round"/>
<g clip-path="url(#clip0_24389_2713)">
<path d="M71.8223 77.2656L75.2196 78.8359L74.7845 82.74L68.7116 89.6216C65.1865 87.3522 62.6736 83.6466 62 79.3314L71.8223 77.2656Z" fill="#15E3FF"/>
<path d="M80.8874 81.455L85.4312 89.2842C82.9942 90.9954 80.025 92 76.8211 92C75.781 92 74.7656 91.894 73.7852 91.6925L74.7847 82.7395L77.3576 79.8242L80.8874 81.455Z" fill="#477BFF"/>
<path d="M91.3283 73.1611C91.6515 74.3861 91.8239 75.6724 91.8239 76.999C91.8239 80.0863 90.891 82.9556 89.2922 85.3409L80.8896 81.4558L78.918 78.0596L81.3947 75.2523L91.3283 73.1611Z" fill="#FD4873"/>
<path d="M77.1004 62C81.6143 62.0821 85.6409 64.1577 88.3375 67.3838L81.3935 75.252L77.7358 76.0219L75.8906 72.8431L77.1004 62Z" fill="#FFC700"/>
<path d="M75.8899 72.8433L75.4816 76.4954L71.825 77.265L62.3867 72.9013C63.5754 68.7056 66.5441 65.258 70.4252 63.4258L75.8899 72.8433Z" fill="#00E7B9"/>
</g>
</g>
<defs>
<filter id="filter0_d_24389_2713" x="0" y="0" width="154" height="154" filterUnits="userSpaceOnUse" color-interpolation-filters="sRGB">
<feFlood flood-opacity="0" result="BackgroundImageFix"/>
<feColorMatrix in="SourceAlpha" type="matrix" values="0 0 0 0 0 0 0 0 0 0 0 0 0 0 0 0 0 0 127 0" result="hardAlpha"/>
<feMorphology radius="16" operator="erode" in="SourceAlpha" result="effect1_dropShadow_24389_2713"/>
<feOffset/>
<feGaussianBlur stdDeviation="34"/>
<feComposite in2="hardAlpha" operator="out"/>
<feColorMatrix type="matrix" values="0 0 0 0 0.945098 0 0 0 0 0.360784 0 0 0 0 0.164706 0 0 0 0.07 0"/>
<feBlend mode="normal" in2="BackgroundImageFix" result="effect1_dropShadow_24389_2713"/>
<feBlend mode="normal" in="SourceGraphic" in2="effect1_dropShadow_24389_2713" result="shape"/>
</filter>
<clipPath id="clip0_24389_2713">
<rect width="30" height="30" fill="white" transform="translate(62 62)"/>
</clipPath>
</defs>
</svg>
