<svg width="685" height="474" viewBox="0 0 685 474" fill="none" xmlns="http://www.w3.org/2000/svg">
              <path
                d="M250.649 473.439C250.649 473.439 290.105 381.158 338.66 345.053C387.215 308.949 457.23 335.58 501.344 291.644C545.459 247.709 519.111 177.586 555.413 129.177C591.714 80.7693 684.155 41.688 684.155 41.688M241 463.751C241 463.751 280.456 371.47 329.011 335.365C377.566 299.261 459.122 337.479 503.236 293.544C547.35 249.608 509.463 167.898 545.764 119.489C582.065 71.0813 674.506 32 674.506 32"
                stroke="url(#paint0_linear_0_1)" stroke-width="0.5" stroke-linecap="round" />
              <g filter="url(#filter0_d_0_1)">
                <path
                  d="M60 81.6056C81.4641 78.6278 110.574 70.1548 142.293 90.5391C159.517 101.608 181.541 120.714 209.171 110.491C233.797 101.379 265.608 65.2275 312.348 90.5391C330 100.068 364.157 118.179 396.63 90.5391C431.964 60.4643 433.166 36.6416 496.813 60.4643C528.625 72.3717 556.243 71.4805 600 42"
                  stroke="#477BFF" stroke-width="4" stroke-linecap="round" />
              </g>
              <g filter="url(#filter1_d_0_1)">
                <path
                  d="M60 137.492C130.13 119.033 168.701 188.672 226.909 129.94C254.471 102.129 268.286 73.7262 313.519 67.0134C370.513 58.5554 420.544 159.709 482.946 109.76C545.347 59.812 549.834 129.94 600 103.51"
                  stroke="#13C296" stroke-width="4" stroke-linecap="round" />
              </g>
              <g filter="url(#filter2_d_0_1)">
                <circle cx="455.109" cy="50" r="8" fill="#477BFF" />
                <circle cx="455.109" cy="50" r="6" stroke="white" stroke-width="4" />
              </g>
              <defs>
                <filter id="filter0_d_0_1" x="0" y="0" width="660" height="191.404" filterUnits="userSpaceOnUse"
                  color-interpolation-filters="sRGB">
                  <feFlood flood-opacity="0" result="BackgroundImageFix" />
                  <feColorMatrix in="SourceAlpha" type="matrix" values="0 0 0 0 0 0 0 0 0 0 0 0 0 0 0 0 0 0 127 0"
                    result="hardAlpha" />
                  <feOffset dy="18" />
                  <feGaussianBlur stdDeviation="29" />
                  <feComposite in2="hardAlpha" operator="out" />
                  <feColorMatrix type="matrix"
                    values="0 0 0 0 0.188235 0 0 0 0 0.337255 0 0 0 0 0.827451 0 0 0 0.5 0" />
                  <feBlend mode="normal" in2="BackgroundImageFix" result="effect1_dropShadow_0_1" />
                  <feBlend mode="normal" in="SourceGraphic" in2="effect1_dropShadow_0_1" result="shape" />
                </filter>
                <filter id="filter1_d_0_1" x="0" y="24.5078" width="660" height="207.492" filterUnits="userSpaceOnUse"
                  color-interpolation-filters="sRGB">
                  <feFlood flood-opacity="0" result="BackgroundImageFix" />
                  <feColorMatrix in="SourceAlpha" type="matrix" values="0 0 0 0 0 0 0 0 0 0 0 0 0 0 0 0 0 0 127 0"
                    result="hardAlpha" />
                  <feOffset dy="18" />
                  <feGaussianBlur stdDeviation="29" />
                  <feComposite in2="hardAlpha" operator="out" />
                  <feColorMatrix type="matrix"
                    values="0 0 0 0 0.0745098 0 0 0 0 0.760784 0 0 0 0 0.588235 0 0 0 0.5 0" />
                  <feBlend mode="normal" in2="BackgroundImageFix" result="effect1_dropShadow_0_1" />
                  <feBlend mode="normal" in="SourceGraphic" in2="effect1_dropShadow_0_1" result="shape" />
                </filter>
                <filter id="filter2_d_0_1" x="437.109" y="36" width="36" height="36" filterUnits="userSpaceOnUse"
                  color-interpolation-filters="sRGB">
                  <feFlood flood-opacity="0" result="BackgroundImageFix" />
                  <feColorMatrix in="SourceAlpha" type="matrix" values="0 0 0 0 0 0 0 0 0 0 0 0 0 0 0 0 0 0 127 0"
                    result="hardAlpha" />
                  <feOffset dy="4" />
                  <feGaussianBlur stdDeviation="5" />
                  <feComposite in2="hardAlpha" operator="out" />
                  <feColorMatrix type="matrix" values="0 0 0 0 0 0 0 0 0 0 0 0 0 0 0 0 0 0 0.12 0" />
                  <feBlend mode="normal" in2="BackgroundImageFix" result="effect1_dropShadow_0_1" />
                  <feBlend mode="normal" in="SourceGraphic" in2="effect1_dropShadow_0_1" result="shape" />
                </filter>
                <linearGradient id="paint0_linear_0_1" x1="253.099" y1="475.9" x2="686.605" y2="44.1482"
                  gradientUnits="userSpaceOnUse">
                  <stop offset="0.0865385" stop-color="white" />
                  <stop offset="0.504808" stop-color="#F15C2A" stop-opacity="0.24" />
                  <stop offset="0.918269" stop-color="white" />
                </linearGradient>
              </defs>
            </svg>