<svg width="768" height="442" viewBox="0 0 768 442" fill="none" xmlns="http://www.w3.org/2000/svg">
<g filter="url(#filter0_d_24357_2557)">
<path d="M60 104.295C81.4641 101.317 110.574 92.8443 142.293 113.229C159.517 124.298 181.541 143.403 209.171 133.18C233.797 124.068 265.608 87.917 312.348 113.229C330 122.758 364.157 140.868 396.63 113.229C431.964 83.1538 433.166 59.3311 496.813 83.1538C528.625 95.0611 556.243 94.17 600 64.6895" stroke="#477BFF" stroke-width="4" stroke-linecap="round"/>
</g>
<g filter="url(#filter1_d_24357_2557)">
<path d="M60 160.181C130.13 141.723 168.701 211.362 226.909 152.629C254.471 124.818 268.286 96.4157 313.519 89.7029C370.513 81.2448 420.544 182.398 482.946 132.45C545.347 82.5015 549.834 152.629 600 126.2" stroke="#13C296" stroke-width="4" stroke-linecap="round"/>
</g>
<g filter="url(#filter2_d_24357_2557)">
<circle cx="455.109" cy="72.6895" r="8" fill="#477BFF"/>
<circle cx="455.109" cy="72.6895" r="6" stroke="white" stroke-width="4"/>
</g>
<path d="M333.977 441.689C333.977 441.689 373.433 349.408 421.988 313.303C470.543 277.199 540.559 303.83 584.673 259.894C628.787 215.959 602.44 145.836 638.741 97.4275C675.042 49.0193 767.483 9.93801 767.483 9.93801M324.328 432.001C324.328 432.001 363.784 339.72 412.339 303.615C460.894 267.511 542.45 305.729 586.564 261.794C630.678 217.858 592.791 136.148 629.092 87.7395C665.393 39.3313 757.834 0.25 757.834 0.25" stroke="url(#paint0_linear_24357_2557)" stroke-width="0.5" stroke-linecap="round"/>
<defs>
<filter id="filter0_d_24357_2557" x="0" y="22.6895" width="660" height="191.404" filterUnits="userSpaceOnUse" color-interpolation-filters="sRGB">
<feFlood flood-opacity="0" result="BackgroundImageFix"/>
<feColorMatrix in="SourceAlpha" type="matrix" values="0 0 0 0 0 0 0 0 0 0 0 0 0 0 0 0 0 0 127 0" result="hardAlpha"/>
<feOffset dy="18"/>
<feGaussianBlur stdDeviation="29"/>
<feComposite in2="hardAlpha" operator="out"/>
<feColorMatrix type="matrix" values="0 0 0 0 0.188235 0 0 0 0 0.337255 0 0 0 0 0.827451 0 0 0 0.5 0"/>
<feBlend mode="normal" in2="BackgroundImageFix" result="effect1_dropShadow_24357_2557"/>
<feBlend mode="normal" in="SourceGraphic" in2="effect1_dropShadow_24357_2557" result="shape"/>
</filter>
<filter id="filter1_d_24357_2557" x="0" y="47.1973" width="660" height="207.492" filterUnits="userSpaceOnUse" color-interpolation-filters="sRGB">
<feFlood flood-opacity="0" result="BackgroundImageFix"/>
<feColorMatrix in="SourceAlpha" type="matrix" values="0 0 0 0 0 0 0 0 0 0 0 0 0 0 0 0 0 0 127 0" result="hardAlpha"/>
<feOffset dy="18"/>
<feGaussianBlur stdDeviation="29"/>
<feComposite in2="hardAlpha" operator="out"/>
<feColorMatrix type="matrix" values="0 0 0 0 0.0745098 0 0 0 0 0.760784 0 0 0 0 0.588235 0 0 0 0.5 0"/>
<feBlend mode="normal" in2="BackgroundImageFix" result="effect1_dropShadow_24357_2557"/>
<feBlend mode="normal" in="SourceGraphic" in2="effect1_dropShadow_24357_2557" result="shape"/>
</filter>
<filter id="filter2_d_24357_2557" x="437.109" y="58.6895" width="36" height="36" filterUnits="userSpaceOnUse" color-interpolation-filters="sRGB">
<feFlood flood-opacity="0" result="BackgroundImageFix"/>
<feColorMatrix in="SourceAlpha" type="matrix" values="0 0 0 0 0 0 0 0 0 0 0 0 0 0 0 0 0 0 127 0" result="hardAlpha"/>
<feOffset dy="4"/>
<feGaussianBlur stdDeviation="5"/>
<feComposite in2="hardAlpha" operator="out"/>
<feColorMatrix type="matrix" values="0 0 0 0 0 0 0 0 0 0 0 0 0 0 0 0 0 0 0.12 0"/>
<feBlend mode="normal" in2="BackgroundImageFix" result="effect1_dropShadow_24357_2557"/>
<feBlend mode="normal" in="SourceGraphic" in2="effect1_dropShadow_24357_2557" result="shape"/>
</filter>
<linearGradient id="paint0_linear_24357_2557" x1="336.427" y1="444.15" x2="769.933" y2="12.3982" gradientUnits="userSpaceOnUse">
<stop offset="0.0865385" stop-color="white"/>
<stop offset="0.504808" stop-color="#F15C2A" stop-opacity="0.24"/>
<stop offset="0.918269" stop-color="white"/>
</linearGradient>
</defs>
</svg>
