<svg width="790" height="274" viewBox="0 0 790 274" fill="none" xmlns="http://www.w3.org/2000/svg">
          <line x1="73.5" y1="-2.39774e-08" x2="73.5" y2="224.078" stroke="url(#paint0_linear_24292_1680)" />
          <path
            d="M68.6252 247.292C68.6252 248.888 67.3232 250.218 64.9852 250.218C62.6472 250.218 61.2752 248.916 61.1772 247.012H62.2412C62.3392 248.44 63.2352 249.364 64.9712 249.364C66.3992 249.364 67.5192 248.636 67.5192 247.432C67.5192 246.396 66.9312 245.92 65.5032 245.626L64.2292 245.374C62.8992 245.108 61.4992 244.492 61.4992 242.742C61.4992 241.132 62.9132 239.886 64.9152 239.886C66.8752 239.886 68.3872 241.118 68.4992 243.036H67.4212C67.3512 241.706 66.3712 240.74 64.9292 240.74C63.3892 240.74 62.5632 241.678 62.5632 242.686C62.5632 243.876 63.5712 244.24 64.6912 244.464L65.9652 244.73C67.6592 245.08 68.6252 245.78 68.6252 247.292ZM73.4073 250.218C71.3353 250.218 69.9633 248.664 69.9633 246.326C69.9633 244.17 71.3913 242.56 73.3513 242.56C75.4513 242.56 76.8233 244.254 76.6553 246.62H70.9433C71.0273 248.37 71.9513 249.448 73.3933 249.448C74.6253 249.448 75.4793 248.762 75.7173 247.586H76.6833C76.3473 249.224 75.1013 250.218 73.4073 250.218ZM73.3373 243.316C72.0073 243.316 71.0693 244.338 70.9433 245.948H75.6333C75.5493 244.296 74.6953 243.316 73.3373 243.316ZM85.0369 246.382C85.0369 248.664 83.7629 250.218 81.8029 250.218C80.6969 250.218 79.7589 249.616 79.2549 248.566V252.78H78.2749V242.7H79.1849V244.296C79.6889 243.204 80.6689 242.56 81.8029 242.56C83.7629 242.56 85.0369 244.128 85.0369 246.382ZM84.0429 246.382C84.0429 244.52 83.0769 243.414 81.6349 243.414C80.2629 243.414 79.2409 244.506 79.2409 246.382C79.2409 248.216 80.2349 249.364 81.6349 249.364C83.0769 249.364 84.0429 248.272 84.0429 246.382Z"
            fill="#637381" />
          <line x1="133.273" y1="-2.39774e-08" x2="133.273" y2="224.078" stroke="url(#paint1_linear_24292_1680)" />
          <path
            d="M126.309 250.288C123.397 250.288 121.241 247.964 121.241 245.038C121.241 242.112 123.397 239.816 126.309 239.816C129.221 239.816 131.391 242.112 131.391 245.038C131.391 247.964 129.221 250.288 126.309 250.288ZM126.309 249.35C128.689 249.35 130.299 247.446 130.299 245.038C130.299 242.63 128.689 240.754 126.309 240.754C123.943 240.754 122.319 242.63 122.319 245.038C122.319 247.446 123.943 249.35 126.309 249.35ZM135.755 250.232C133.809 250.232 132.451 248.65 132.451 246.382C132.451 244.142 133.823 242.56 135.755 242.56C137.477 242.56 138.709 243.708 139.003 245.556H138.009C137.785 244.212 136.945 243.414 135.755 243.414C134.383 243.414 133.445 244.618 133.445 246.382C133.445 248.174 134.383 249.378 135.755 249.378C136.959 249.378 137.785 248.594 138.009 247.222H139.003C138.737 249.098 137.491 250.232 135.755 250.232ZM144.379 249.14V250.008C144.001 250.162 143.679 250.218 143.315 250.218C142.097 250.218 141.159 249.588 141.159 247.992V243.526H139.423V242.7H141.159V240.516H142.139V242.7H144.449V243.526H142.139V247.782C142.139 248.93 142.699 249.322 143.511 249.322C143.819 249.322 144.071 249.266 144.379 249.14Z"
            fill="#637381" />
          <line x1="192.547" y1="-2.39774e-08" x2="192.547" y2="224.078" stroke="url(#paint2_linear_24292_1680)" />
          <path
            d="M187.579 250.078L181.713 241.51V250.078H180.733V240.026H181.895L187.705 248.482V240.026H188.699V250.078H187.579ZM193.857 250.218C191.827 250.218 190.357 248.608 190.357 246.382C190.357 244.17 191.827 242.574 193.857 242.574C195.901 242.574 197.371 244.17 197.371 246.382C197.371 248.608 195.901 250.218 193.857 250.218ZM193.857 249.364C195.299 249.364 196.377 248.216 196.377 246.382C196.377 244.576 195.299 243.428 193.857 243.428C192.429 243.428 191.351 244.576 191.351 246.382C191.351 248.216 192.429 249.364 193.857 249.364ZM204.421 242.7L201.579 250.078H200.557L197.743 242.7H198.793L201.103 248.93L203.413 242.7H204.421Z"
            fill="#637381" />
          <line x1="251.816" y1="-2.39774e-08" x2="251.816" y2="224.078" stroke="url(#paint3_linear_24292_1680)" />
          <path
            d="M242.927 250.078H240.071V240.026H242.927C246.147 240.026 247.925 242.07 247.925 245.01C247.925 247.908 246.077 250.078 242.927 250.078ZM241.121 240.936V249.168H242.899C245.447 249.168 246.861 247.502 246.861 245.01C246.861 242.532 245.475 240.936 242.899 240.936H241.121ZM252.441 250.218C250.369 250.218 248.997 248.664 248.997 246.326C248.997 244.17 250.425 242.56 252.385 242.56C254.485 242.56 255.857 244.254 255.689 246.62H249.977C250.061 248.37 250.985 249.448 252.427 249.448C253.659 249.448 254.513 248.762 254.751 247.586H255.717C255.381 249.224 254.135 250.218 252.441 250.218ZM252.371 243.316C251.041 243.316 250.103 244.338 249.977 245.948H254.667C254.583 244.296 253.729 243.316 252.371 243.316ZM259.93 250.232C257.984 250.232 256.626 248.65 256.626 246.382C256.626 244.142 257.998 242.56 259.93 242.56C261.652 242.56 262.884 243.708 263.178 245.556H262.184C261.96 244.212 261.12 243.414 259.93 243.414C258.558 243.414 257.62 244.618 257.62 246.382C257.62 248.174 258.558 249.378 259.93 249.378C261.134 249.378 261.96 248.594 262.184 247.222H263.178C262.912 249.098 261.666 250.232 259.93 250.232Z"
            fill="#637381" />
          <line x1="310.59" y1="-2.39774e-08" x2="310.59" y2="224.078" stroke="url(#paint4_linear_24292_1680)" />
          <path
            d="M305.359 240.026V246.746C305.359 249.042 304.043 250.288 301.985 250.288C300.025 250.288 298.737 249.056 298.639 247.096H299.689C299.773 248.538 300.683 249.35 301.985 249.35C303.371 249.35 304.309 248.552 304.309 246.83V240.026H305.359ZM312.026 250.078V248.734C311.592 249.658 310.696 250.218 309.548 250.218C308.022 250.218 307.028 249.364 307.028 248.034C307.028 246.592 308.176 245.836 310.416 245.836C310.864 245.836 311.2 245.864 311.928 245.92V245.304C311.928 244.072 311.27 243.344 310.15 243.344C308.946 243.344 308.19 244.086 308.176 245.29H307.28C307.322 243.652 308.456 242.56 310.136 242.56C311.858 242.56 312.866 243.568 312.866 245.276V250.078H312.026ZM307.966 248.006C307.966 248.902 308.652 249.504 309.688 249.504C311.06 249.504 311.928 248.608 311.928 247.222V246.564C311.298 246.508 310.864 246.494 310.458 246.494C308.778 246.494 307.966 246.984 307.966 248.006ZM315.907 245.78V250.078H314.927V242.7H315.837V244.086C316.313 243.176 317.209 242.56 318.273 242.56C319.813 242.56 320.807 243.54 320.807 245.29V250.078H319.827V245.626C319.827 244.212 319.183 243.414 317.979 243.414C316.831 243.414 315.907 244.408 315.907 245.78Z"
            fill="#637381" />
          <line x1="368.863" y1="-2.39774e-08" x2="368.863" y2="224.078" stroke="url(#paint5_linear_24292_1680)" />
          <path
            d="M358.919 250.078H357.869V240.026H363.637V240.936H358.919V244.856H362.979V245.766H358.919V250.078ZM367.848 250.218C365.776 250.218 364.404 248.664 364.404 246.326C364.404 244.17 365.832 242.56 367.792 242.56C369.892 242.56 371.264 244.254 371.096 246.62H365.384C365.468 248.37 366.392 249.448 367.834 249.448C369.066 249.448 369.92 248.762 370.158 247.586H371.124C370.788 249.224 369.542 250.218 367.848 250.218ZM367.778 243.316C366.448 243.316 365.51 244.338 365.384 245.948H370.074C369.99 244.296 369.136 243.316 367.778 243.316ZM379.477 246.382C379.477 248.65 378.203 250.218 376.229 250.218C375.095 250.218 374.143 249.602 373.625 248.524V250.078H372.715V240.026H373.695V244.254C374.171 243.176 375.109 242.56 376.229 242.56C378.203 242.56 379.477 244.114 379.477 246.382ZM378.483 246.382C378.483 244.506 377.517 243.414 376.075 243.414C374.689 243.414 373.681 244.492 373.681 246.354C373.681 248.202 374.661 249.364 376.075 249.364C377.517 249.364 378.483 248.258 378.483 246.382Z"
            fill="#637381" />
          <line x1="427.637" y1="-2.39774e-08" x2="427.637" y2="224.078" stroke="url(#paint6_linear_24292_1680)" />
          <path
            d="M420.49 250.078L416.85 241.552V250.078H415.87V240.026H417.228L420.952 248.79L424.704 240.026H426.048V250.078H425.082V241.552L421.414 250.078H420.49ZM432.778 250.078V248.734C432.344 249.658 431.448 250.218 430.3 250.218C428.774 250.218 427.78 249.364 427.78 248.034C427.78 246.592 428.928 245.836 431.168 245.836C431.616 245.836 431.952 245.864 432.68 245.92V245.304C432.68 244.072 432.022 243.344 430.902 243.344C429.698 243.344 428.942 244.086 428.928 245.29H428.032C428.074 243.652 429.208 242.56 430.888 242.56C432.61 242.56 433.618 243.568 433.618 245.276V250.078H432.778ZM428.718 248.006C428.718 248.902 429.404 249.504 430.44 249.504C431.812 249.504 432.68 248.608 432.68 247.222V246.564C432.05 246.508 431.616 246.494 431.21 246.494C429.53 246.494 428.718 246.984 428.718 248.006ZM436.659 246.13V250.078H435.679V242.7H436.589V244.38C437.093 243.288 438.185 242.588 439.403 242.588V243.61C437.849 243.554 436.659 244.52 436.659 246.13Z"
            fill="#637381" />
          <line x1="485.91" y1="-2.39774e-08" x2="485.91" y2="224.078" stroke="url(#paint7_linear_24292_1680)" />
          <path
            d="M482.144 250.078L481.094 247.292H476.404L475.34 250.078H474.304L478.21 240.026H479.358L483.25 250.078H482.144ZM478.756 241.146L476.726 246.438H480.758L478.756 241.146ZM491.459 246.382C491.459 248.664 490.185 250.218 488.225 250.218C487.119 250.218 486.181 249.616 485.677 248.566V252.78H484.697V242.7H485.607V244.296C486.111 243.204 487.091 242.56 488.225 242.56C490.185 242.56 491.459 244.128 491.459 246.382ZM490.465 246.382C490.465 244.52 489.499 243.414 488.057 243.414C486.685 243.414 485.663 244.506 485.663 246.382C485.663 248.216 486.657 249.364 488.057 249.364C489.499 249.364 490.465 248.272 490.465 246.382ZM494.017 246.13V250.078H493.037V242.7H493.947V244.38C494.451 243.288 495.543 242.588 496.761 242.588V243.61C495.207 243.554 494.017 244.52 494.017 246.13Z"
            fill="#637381" />
          <line x1="545.184" y1="-2.39774e-08" x2="545.184" y2="224.078" stroke="url(#paint8_linear_24292_1680)" />
          <path
            d="M537.196 250.078L533.556 241.552V250.078H532.576V240.026H533.934L537.658 248.79L541.41 240.026H542.754V250.078H541.788V241.552L538.12 250.078H537.196ZM549.484 250.078V248.734C549.05 249.658 548.154 250.218 547.006 250.218C545.48 250.218 544.486 249.364 544.486 248.034C544.486 246.592 545.634 245.836 547.874 245.836C548.322 245.836 548.658 245.864 549.386 245.92V245.304C549.386 244.072 548.728 243.344 547.608 243.344C546.404 243.344 545.648 244.086 545.634 245.29H544.738C544.78 243.652 545.914 242.56 547.594 242.56C549.316 242.56 550.324 243.568 550.324 245.276V250.078H549.484ZM545.424 248.006C545.424 248.902 546.11 249.504 547.146 249.504C548.518 249.504 549.386 248.608 549.386 247.222V246.564C548.756 246.508 548.322 246.494 547.916 246.494C546.236 246.494 545.424 246.984 545.424 248.006ZM557.851 242.7L554.071 252.78H553.021L554.099 249.98L551.173 242.7H552.223L554.603 248.804L556.857 242.7H557.851Z"
            fill="#637381" />
          <line x1="604.953" y1="-2.39774e-08" x2="604.953" y2="224.078" stroke="url(#paint9_linear_24292_1680)" />
          <path
            d="M599.538 240.026V246.746C599.538 249.042 598.222 250.288 596.164 250.288C594.204 250.288 592.916 249.056 592.818 247.096H593.868C593.952 248.538 594.862 249.35 596.164 249.35C597.55 249.35 598.488 248.552 598.488 246.83V240.026H599.538ZM606.386 247.096V242.7H607.352V250.078H606.442V248.748C606.064 249.602 605.168 250.218 604.09 250.218C602.592 250.218 601.598 249.364 601.598 247.502V242.7H602.578V247.292C602.578 248.79 603.32 249.364 604.356 249.364C605.532 249.364 606.386 248.412 606.386 247.096ZM610.455 245.78V250.078H609.475V242.7H610.385V244.086C610.861 243.176 611.757 242.56 612.821 242.56C614.361 242.56 615.355 243.54 615.355 245.29V250.078H614.375V245.626C614.375 244.212 613.731 243.414 612.527 243.414C611.379 243.414 610.455 244.408 610.455 245.78Z"
            fill="#637381" />
          <line x1="660.727" y1="-2.39774e-08" x2="660.727" y2="224.078" stroke="url(#paint10_linear_24292_1680)" />
          <path
            d="M657.731 240.026V246.746C657.731 249.042 656.415 250.288 654.357 250.288C652.397 250.288 651.109 249.056 651.011 247.096H652.061C652.145 248.538 653.055 249.35 654.357 249.35C655.743 249.35 656.681 248.552 656.681 246.83V240.026H657.731ZM664.58 247.096V242.7H665.546V250.078H664.636V248.748C664.258 249.602 663.362 250.218 662.284 250.218C660.786 250.218 659.792 249.364 659.792 247.502V242.7H660.772V247.292C660.772 248.79 661.514 249.364 662.55 249.364C663.726 249.364 664.58 248.412 664.58 247.096ZM668.648 250.078H667.668V240.026H668.648V250.078Z"
            fill="#637381" />
          <line x1="717.5" y1="-2.39774e-08" x2="717.5" y2="224.078" stroke="url(#paint11_linear_24292_1680)" />
          <path
            d="M712.551 250.078L711.501 247.292H706.811L705.747 250.078H704.711L708.617 240.026H709.765L713.657 250.078H712.551ZM709.163 241.146L707.133 246.438H711.165L709.163 241.146ZM719.549 247.096V242.7H720.515V250.078H719.605V248.748C719.227 249.602 718.331 250.218 717.253 250.218C715.755 250.218 714.761 249.364 714.761 247.502V242.7H715.741V247.292C715.741 248.79 716.483 249.364 717.519 249.364C718.695 249.364 719.549 248.412 719.549 247.096ZM725.423 252.934C723.547 252.934 722.371 251.954 722.287 250.302H723.225C723.309 251.506 724.093 252.15 725.409 252.15C726.865 252.15 727.635 251.38 727.635 249.924V248.384C727.187 249.42 726.291 250.022 725.199 250.022C723.337 250.022 722.091 248.524 722.091 246.284C722.091 244.044 723.323 242.56 725.185 242.56C726.291 242.56 727.215 243.19 727.691 244.268V242.7H728.601V249.91C728.601 251.814 727.439 252.934 725.423 252.934ZM723.071 246.284C723.071 248.09 723.925 249.182 725.339 249.182C726.725 249.182 727.649 248.062 727.649 246.354C727.649 244.548 726.739 243.4 725.339 243.4C723.939 243.4 723.071 244.492 723.071 246.284Z"
            fill="#637381" />
          <g filter="url(#filter0_d_24292_1680)">
            <path
              d="M60 109.385C86.6314 105.823 122.749 95.6852 162.104 120.074C183.474 133.317 210.801 156.176 245.083 143.944C275.637 133.043 315.106 89.7901 373.099 120.074C395 131.475 437.38 153.142 477.67 120.074C521.511 84.0912 523.003 55.5891 601.971 84.0912C641.443 98.3376 675.709 97.2714 730 62"
              stroke="#477BFF" stroke-width="4" stroke-linecap="round" />
          </g>
          <g filter="url(#filter1_d_24292_1680)">
            <path
              d="M60 176.249C147.013 154.165 194.87 237.482 267.091 167.213C301.289 133.939 318.429 99.9579 374.552 91.9264C445.266 81.807 507.341 202.83 584.766 143.07C662.19 83.3105 667.757 167.213 730 135.593"
              stroke="#13C296" stroke-width="4" stroke-linecap="round" />
          </g>
          <g filter="url(#filter2_d_24292_1680)">
            <circle cx="550.758" cy="72" r="10" fill="#477BFF" />
            <circle cx="550.758" cy="72" r="7" stroke="white" stroke-width="6" />
          </g>
          <defs>
            <filter id="filter0_d_24292_1680" x="0" y="19.9998" width="790" height="205.43" filterUnits="userSpaceOnUse"
              color-interpolation-filters="sRGB">
              <feFlood flood-opacity="0" result="BackgroundImageFix" />
              <feColorMatrix in="SourceAlpha" type="matrix" values="0 0 0 0 0 0 0 0 0 0 0 0 0 0 0 0 0 0 127 0"
                result="hardAlpha" />
              <feOffset dy="18" />
              <feGaussianBlur stdDeviation="29" />
              <feComposite in2="hardAlpha" operator="out" />
              <feColorMatrix type="matrix" values="0 0 0 0 0.188235 0 0 0 0 0.337255 0 0 0 0 0.827451 0 0 0 0.5 0" />
              <feBlend mode="normal" in2="BackgroundImageFix" result="effect1_dropShadow_24292_1680" />
              <feBlend mode="normal" in="SourceGraphic" in2="effect1_dropShadow_24292_1680" result="shape" />
            </filter>
            <filter id="filter1_d_24292_1680" x="0" y="49.3213" width="790" height="224.678"
              filterUnits="userSpaceOnUse" color-interpolation-filters="sRGB">
              <feFlood flood-opacity="0" result="BackgroundImageFix" />
              <feColorMatrix in="SourceAlpha" type="matrix" values="0 0 0 0 0 0 0 0 0 0 0 0 0 0 0 0 0 0 127 0"
                result="hardAlpha" />
              <feOffset dy="18" />
              <feGaussianBlur stdDeviation="29" />
              <feComposite in2="hardAlpha" operator="out" />
              <feColorMatrix type="matrix" values="0 0 0 0 0.0745098 0 0 0 0 0.760784 0 0 0 0 0.588235 0 0 0 0.5 0" />
              <feBlend mode="normal" in2="BackgroundImageFix" result="effect1_dropShadow_24292_1680" />
              <feBlend mode="normal" in="SourceGraphic" in2="effect1_dropShadow_24292_1680" result="shape" />
            </filter>
            <filter id="filter2_d_24292_1680" x="530.758" y="56" width="40" height="40" filterUnits="userSpaceOnUse"
              color-interpolation-filters="sRGB">
              <feFlood flood-opacity="0" result="BackgroundImageFix" />
              <feColorMatrix in="SourceAlpha" type="matrix" values="0 0 0 0 0 0 0 0 0 0 0 0 0 0 0 0 0 0 127 0"
                result="hardAlpha" />
              <feOffset dy="4" />
              <feGaussianBlur stdDeviation="5" />
              <feComposite in2="hardAlpha" operator="out" />
              <feColorMatrix type="matrix" values="0 0 0 0 0 0 0 0 0 0 0 0 0 0 0 0 0 0 0.12 0" />
              <feBlend mode="normal" in2="BackgroundImageFix" result="effect1_dropShadow_24292_1680" />
              <feBlend mode="normal" in="SourceGraphic" in2="effect1_dropShadow_24292_1680" result="shape" />
            </filter>
            <linearGradient id="paint0_linear_24292_1680" x1="71.9996" y1="224.078" x2="71.9996" y2="-3.95115e-08"
              gradientUnits="userSpaceOnUse">
              <stop stop-color="#E7E7E7" />
              <stop offset="1" stop-color="#E7E7E7" stop-opacity="0" />
            </linearGradient>
            <linearGradient id="paint1_linear_24292_1680" x1="131.773" y1="224.078" x2="131.773" y2="-3.95115e-08"
              gradientUnits="userSpaceOnUse">
              <stop stop-color="#E7E7E7" />
              <stop offset="1" stop-color="#E7E7E7" stop-opacity="0" />
            </linearGradient>
            <linearGradient id="paint2_linear_24292_1680" x1="191.046" y1="224.078" x2="191.046" y2="-3.95115e-08"
              gradientUnits="userSpaceOnUse">
              <stop stop-color="#E7E7E7" />
              <stop offset="1" stop-color="#E7E7E7" stop-opacity="0" />
            </linearGradient>
            <linearGradient id="paint3_linear_24292_1680" x1="250.316" y1="224.078" x2="250.316" y2="-3.95115e-08"
              gradientUnits="userSpaceOnUse">
              <stop stop-color="#E7E7E7" />
              <stop offset="1" stop-color="#E7E7E7" stop-opacity="0" />
            </linearGradient>
            <linearGradient id="paint4_linear_24292_1680" x1="309.089" y1="224.078" x2="309.089" y2="-3.95115e-08"
              gradientUnits="userSpaceOnUse">
              <stop stop-color="#E7E7E7" />
              <stop offset="1" stop-color="#E7E7E7" stop-opacity="0" />
            </linearGradient>
            <linearGradient id="paint5_linear_24292_1680" x1="367.363" y1="224.078" x2="367.363" y2="-3.95115e-08"
              gradientUnits="userSpaceOnUse">
              <stop stop-color="#E7E7E7" />
              <stop offset="1" stop-color="#E7E7E7" stop-opacity="0" />
            </linearGradient>
            <linearGradient id="paint6_linear_24292_1680" x1="426.136" y1="224.078" x2="426.136" y2="-3.95115e-08"
              gradientUnits="userSpaceOnUse">
              <stop stop-color="#E7E7E7" />
              <stop offset="1" stop-color="#E7E7E7" stop-opacity="0" />
            </linearGradient>
            <linearGradient id="paint7_linear_24292_1680" x1="484.41" y1="224.078" x2="484.41" y2="-3.95115e-08"
              gradientUnits="userSpaceOnUse">
              <stop stop-color="#E7E7E7" />
              <stop offset="1" stop-color="#E7E7E7" stop-opacity="0" />
            </linearGradient>
            <linearGradient id="paint8_linear_24292_1680" x1="543.683" y1="224.078" x2="543.683" y2="-3.95115e-08"
              gradientUnits="userSpaceOnUse">
              <stop stop-color="#E7E7E7" />
              <stop offset="1" stop-color="#E7E7E7" stop-opacity="0" />
            </linearGradient>
            <linearGradient id="paint9_linear_24292_1680" x1="603.453" y1="224.078" x2="603.453" y2="-3.95115e-08"
              gradientUnits="userSpaceOnUse">
              <stop stop-color="#E7E7E7" />
              <stop offset="1" stop-color="#E7E7E7" stop-opacity="0" />
            </linearGradient>
            <linearGradient id="paint10_linear_24292_1680" x1="659.226" y1="224.078" x2="659.226" y2="-3.95115e-08"
              gradientUnits="userSpaceOnUse">
              <stop stop-color="#E7E7E7" />
              <stop offset="1" stop-color="#E7E7E7" stop-opacity="0" />
            </linearGradient>
            <linearGradient id="paint11_linear_24292_1680" x1="716" y1="224.078" x2="716" y2="-3.95115e-08"
              gradientUnits="userSpaceOnUse">
              <stop stop-color="#E7E7E7" />
              <stop offset="1" stop-color="#E7E7E7" stop-opacity="0" />
            </linearGradient>
          </defs>
        </svg>