<svg width="161" height="30" viewBox="0 0 161 30" fill="none" xmlns="http://www.w3.org/2000/svg">
<g clip-path="url(#clip0_62_7683)">
<path d="M154.666 7.677L154.755 7.70655C155.905 7.73603 156.909 8.53275 157.203 9.62445L157.233 9.7425L160.213 21.8401H156.259L154.489 14.6405L153.102 19.037C152.689 20.2468 151.568 21.1025 150.27 21.1025C149.031 21.1025 147.909 20.3057 147.496 19.155L147.437 19.037L146.05 14.6405L144.28 21.8401H140.355L143.306 9.7425L143.336 9.62445C143.661 8.47373 144.693 7.677 145.903 7.677L145.992 7.70655C147.083 7.73603 148.027 8.44418 148.411 9.44745L148.44 9.53595L150.27 15.2897L152.099 9.53595L152.129 9.44745C152.512 8.38515 153.516 7.677 154.666 7.677Z" fill="#B1B1B1"/>
<path d="M133.105 21.8401C129.18 21.8401 126.023 18.6829 126.023 14.7586V7.677H129.83V14.7586C129.83 16.5584 131.305 18.0338 133.105 18.0338C134.875 18.0338 136.35 16.5584 136.35 14.7586V7.677H140.186V14.7586C140.186 18.6829 137 21.8401 133.105 21.8401Z" fill="#B1B1B1"/>
<path d="M125.33 7.677V11.5129C123.677 11.5129 122.231 12.6046 121.76 14.198L121.081 16.4405C120.137 19.6566 117.186 21.8401 113.852 21.8401V18.0338C115.475 18.0338 116.95 16.9421 117.422 15.3487L118.071 13.1062C119.015 9.89003 121.966 7.677 125.33 7.677Z" fill="#B1B1B1"/>
<path d="M110.03 13.8143C110.649 13.8143 111.18 13.3127 111.18 12.6636C111.18 12.044 110.649 11.5129 110.03 11.5129H105.81V13.8143H110.03ZM110.03 7.677C112.774 7.677 115.016 9.9195 115.016 12.6636C115.016 15.4077 112.774 17.6502 110.03 17.6502H105.81V21.8401H102.004V11.1293C102.004 9.2409 103.538 7.677 105.427 7.677H110.03Z" fill="#B1B1B1"/>
<path d="M96.332 7.677H100.138V21.8401H96.332V7.677Z" fill="#B1B1B1"/>
<path d="M87.7484 11.3358H86.9812C85.0634 11.3358 83.5289 12.8702 83.5289 14.7586C83.5289 16.6765 85.0634 18.2108 86.9812 18.2108H87.7484C89.6662 18.2108 91.2007 16.6765 91.2007 14.7586C91.2007 12.8702 89.6662 11.3358 87.7484 11.3358ZM86.9812 7.5H87.7484C91.7609 7.5 95.0069 10.7457 95.0069 14.7586C95.0069 18.8009 91.7609 22.0466 87.7484 22.0466H86.9812C82.9687 22.0466 79.7227 18.8009 79.7227 14.7586C79.7227 10.7457 82.9687 7.5 86.9812 7.5Z" fill="#B1B1B1"/>
<path d="M78.1068 11.5129H70.6713C68.8714 11.5129 67.3962 12.9882 67.3962 14.7586C67.3962 16.5584 68.8714 18.0338 70.6713 18.0338H74.3596C74.7432 17.9747 75.0678 17.6502 75.0678 17.2371V16.883H69.3141V13.0472H75.7173C77.4873 13.0472 78.874 14.4635 78.874 16.2044V17.2371C78.874 19.7452 76.897 21.7811 74.3892 21.8401H70.6713C66.747 21.8401 63.5898 18.6829 63.5898 14.7586C63.5898 10.8638 66.747 7.677 70.6713 7.677H78.1068V11.5129Z" fill="#B1B1B1"/>
<path d="M55.6547 11.3358H54.8875C52.9695 11.3358 51.4352 12.8702 51.4352 14.7586C51.4352 16.6765 52.9695 18.2108 54.8875 18.2108H55.6547C57.5726 18.2108 59.1068 16.6765 59.1068 14.7586C59.1068 12.8702 57.5726 11.3358 55.6547 11.3358ZM54.8875 7.5H55.6547C59.6675 7.5 62.9132 10.7457 62.9132 14.7586C62.9132 18.8009 59.6675 22.0466 55.6547 22.0466H54.8875C50.8746 22.0466 47.6289 18.8009 47.6289 14.7586C47.6289 10.7457 50.8746 7.5 54.8875 7.5Z" fill="#B1B1B1"/>
<path d="M35.25 16.1159V7.677H39.0563V16.1159C39.0563 17.1781 39.912 18.0338 40.9742 18.0338H46.728V21.8401H40.9742C37.817 21.8401 35.25 19.2731 35.25 16.1159Z" fill="#B1B1B1"/>
<path d="M5.70923 1.88338C8.28082 0.456703 11.2154 -0.182604 14.1475 0.0449984C17.0794 0.27261 19.8799 1.35728 22.2004 3.16365C24.521 4.97009 26.2592 7.41939 27.1992 10.2058C28.1392 12.9923 28.2399 15.9938 27.4878 18.8368L27.3369 19.3663C26.5365 21.997 25.0271 24.3613 22.9695 26.1961L22.5513 26.555C20.4331 28.3085 17.8703 29.4482 15.1421 29.8443L14.5957 29.9139C12.7489 30.1132 10.8875 29.9653 9.1047 29.4876L11.666 26.9263C12.6738 27.0379 13.6968 27.023 14.7107 26.8758C17.0389 26.5378 19.2169 25.5228 20.9729 23.9571C22.7288 22.3914 23.9857 20.3434 24.5874 18.0691C25.1514 15.937 25.1162 13.6932 24.49 11.5843L24.3567 11.1646C23.6047 8.9355 22.2141 6.97598 20.3577 5.53084C18.6173 4.17616 16.5394 3.32937 14.354 3.07869L13.9153 3.03621C11.5696 2.85412 9.22185 3.36558 7.16456 4.50692C5.79429 5.26716 4.5946 6.28603 3.62402 7.49739H0C1.35782 5.14714 3.32863 3.20413 5.70923 1.88338Z" fill="#477BFF"/>
<path d="M8.03561 5.73833C9.76399 4.81458 11.7168 4.3936 13.6724 4.52178C15.6279 4.65001 17.5089 5.32269 19.1018 6.46416C20.6945 7.6056 21.9363 9.17002 22.6863 10.9803C23.4362 12.7907 23.6639 14.7758 23.3448 16.7092C23.0254 18.6426 22.1714 20.4486 20.8794 21.9219C19.5873 23.3952 17.9082 24.4776 16.0329 25.0464L15.6799 25.1475C14.8329 25.3724 13.9644 25.4872 13.0945 25.4962L18.1423 20.449C18.3109 20.2895 18.4734 20.1227 18.6272 19.9473C19.5507 18.8944 20.1612 17.6033 20.3894 16.2214C20.6175 14.8396 20.4544 13.4212 19.9185 12.1273C19.3825 10.8333 18.4949 9.71527 17.3565 8.8995L17.1411 8.75002C16.0503 8.02462 14.7864 7.59675 13.4761 7.5108L13.2146 7.49761C13.0977 7.49404 12.9804 7.49425 12.8637 7.49614H5.64062C6.34848 6.8032 7.15367 6.20977 8.03561 5.73833Z" fill="#477BFF"/>
<path d="M6.38227 23.74C6.0573 24.0652 6.10223 24.605 6.47653 24.8721C6.77242 25.0831 7.17754 25.0492 7.43465 24.7924L15.1011 17.1259C16.2758 15.9512 16.2758 14.0465 15.1011 12.8719C14.5371 12.3079 13.7718 11.9909 12.9741 11.9909H4.59338C4.25852 11.9909 3.96333 12.2119 3.86883 12.5331C3.7269 13.0163 4.08921 13.5002 4.59286 13.5006L12.5422 13.5073C14.045 13.508 14.7972 15.325 13.7344 16.3879L6.38227 23.74ZM9.55594 26.9137C8.26219 28.2072 6.22302 28.3767 4.73379 27.314C2.8501 25.9697 2.62477 23.2551 4.26095 21.6187L9.37474 16.5049L4.59131 16.5007C2.08553 16.4992 0.283818 14.0903 0.990868 11.6863C1.46087 10.0884 2.92771 8.99121 4.59338 8.99121H12.9741C14.5674 8.99121 16.0958 9.62391 17.2224 10.7505C19.5687 13.0968 19.5687 16.9009 17.2224 19.2472L9.55594 26.9137Z" fill="#477BFF"/>
</g>
<defs>
<clipPath id="clip0_62_7683">
<rect width="160.5" height="30" fill="white"/>
</clipPath>
</defs>
</svg>
