<svg width="115" height="30" viewBox="0 0 115 30" fill="none" xmlns="http://www.w3.org/2000/svg">
<g clip-path="url(#clip0_62_7728)">
<path fill-rule="evenodd" clip-rule="evenodd" d="M17.4981 6.40137C16.468 6.40137 15.448 6.60372 14.4964 6.99683C13.5447 7.38994 12.68 7.9661 11.9516 8.69249C11.2232 9.41884 10.6454 10.2812 10.2512 11.2302C9.9006 12.0743 9.70134 12.9722 9.66154 13.8832C9.65243 14.0917 9.53606 14.2826 9.34926 14.3757L6.82134 15.6362C6.63454 15.7293 6.51481 15.9201 6.52392 16.1287C6.56372 17.0396 6.76299 17.9376 7.11357 18.7816C7.50779 19.7307 8.08558 20.593 8.81397 21.3194C9.54234 22.0457 10.4071 22.6219 11.3587 23.015C12.3104 23.4081 13.3304 23.6105 14.3605 23.6105C15.3906 23.6105 16.4106 23.4081 17.3623 23.015C18.314 22.6219 19.1787 22.0457 19.9071 21.3194C20.6355 20.593 21.2133 19.7307 21.6075 18.7816C21.9581 17.9376 22.1573 17.0396 22.1971 16.1287C22.2062 15.9201 22.3226 15.7293 22.5094 15.6362L25.0373 14.3757C25.2241 14.2826 25.3439 14.0917 25.3348 13.8832C25.295 12.9722 25.0957 12.0743 24.7451 11.2302C24.3509 10.2812 23.7731 9.41884 23.0447 8.69249C22.3163 7.9661 21.4516 7.38994 20.4999 6.99683C19.5482 6.60372 18.5282 6.40137 17.4981 6.40137ZM21.1216 12.727C21.2751 13.0964 21.3705 13.4865 21.4053 13.8835C21.4235 14.0914 21.3021 14.2826 21.1153 14.3757L18.5874 15.6362C18.4006 15.7293 18.2859 15.9204 18.2677 16.1283C18.2329 16.5254 18.1374 16.9155 17.984 17.2849C17.7869 17.7594 17.498 18.1906 17.1338 18.5538C16.7696 18.9169 16.3373 19.205 15.8614 19.4016C15.3856 19.5981 14.8756 19.6993 14.3605 19.6993C13.8455 19.6993 13.3355 19.5981 12.8596 19.4016C12.3838 19.205 11.9514 18.9169 11.5872 18.5538C11.2231 18.1906 10.9342 17.7594 10.7371 17.2849C10.5836 16.9155 10.4881 16.5254 10.4534 16.1283C10.4352 15.9204 10.5566 15.7293 10.7434 15.6362L13.2713 14.3757C13.4581 14.2826 13.5728 14.0914 13.591 13.8835C13.6257 13.4865 13.7212 13.0964 13.8747 12.727C14.0718 12.2524 14.3607 11.8213 14.7249 11.4581C15.0891 11.0949 15.5214 10.8068 15.9973 10.6103C16.4731 10.4137 16.9831 10.3125 17.4981 10.3125C18.0132 10.3125 18.5232 10.4137 18.999 10.6103C19.4749 10.8068 19.9072 11.0949 20.2714 11.4581C20.6356 11.8213 20.9245 12.2524 21.1216 12.727Z" fill="#FF0A0A"/>
<path fill-rule="evenodd" clip-rule="evenodd" d="M17.499 0.143555C15.6448 0.143555 13.8088 0.507748 12.0958 1.21534C10.3827 1.92294 8.82627 2.96008 7.51516 4.26753C6.20408 5.57501 5.16407 7.1272 4.4545 8.83546C3.78853 10.4388 3.42591 12.1502 3.38386 13.8831C3.3788 14.0918 3.26169 14.2826 3.07489 14.3757L0.546949 15.6362C0.360162 15.7293 0.241187 15.9201 0.246249 16.1288C0.288297 17.8617 0.65092 19.5731 1.31688 21.1764C2.02644 22.8847 3.06646 24.4369 4.37755 25.7443C5.68866 27.0518 7.24513 28.0891 8.95819 28.7964C10.6712 29.504 12.5072 29.8684 14.3614 29.8684C16.2155 29.8684 18.0516 29.504 19.7646 28.7964C21.4776 28.0891 23.0341 27.0518 24.3452 25.7443C25.6563 24.4369 26.6963 22.8847 27.4059 21.1764C28.072 19.5731 28.4344 17.8617 28.4765 16.1288C28.4815 15.9201 28.5988 15.7293 28.7854 15.6362L31.3133 14.3757C31.5002 14.2826 31.6191 14.0918 31.6142 13.8831C31.5721 12.1502 31.2096 10.4388 30.5435 8.83546C29.834 7.1272 28.7939 5.57501 27.4828 4.26753C26.1717 2.96008 24.6152 1.92294 22.9022 1.21534C21.1892 0.50775 19.3532 0.143555 17.499 0.143555ZM24.5529 16.1287C24.5599 15.9201 24.6767 15.7293 24.8635 15.6362L27.3914 14.3757C27.5782 14.2826 27.6977 14.0917 27.6905 13.8831C27.6495 12.6639 27.3889 11.461 26.92 10.3322C26.4076 9.09844 25.6564 7.97741 24.7095 7.03315C23.7626 6.08887 22.6385 5.33983 21.4013 4.82878C20.1641 4.31774 18.8381 4.0547 17.499 4.0547C16.1599 4.0547 14.8339 4.31774 13.5967 4.82878C12.3595 5.33983 11.2354 6.08887 10.2885 7.03315C9.34156 7.97741 8.59043 9.09844 8.07798 10.3322C7.60913 11.461 7.34843 12.6639 7.30747 13.8831C7.30046 14.0917 7.1837 14.2826 6.99691 14.3757L4.46898 15.6362C4.28218 15.7293 4.16284 15.9201 4.16986 16.1287C4.21081 17.348 4.47151 18.5509 4.94036 19.6797C5.45281 20.9134 6.20394 22.0345 7.15084 22.9787C8.09774 23.923 9.22189 24.672 10.4591 25.1831C11.6963 25.6941 13.0223 25.9572 14.3614 25.9572C15.7005 25.9572 17.0265 25.6941 18.2637 25.1831C19.5009 24.672 20.625 23.923 21.5719 22.9787C22.5188 22.0345 23.27 20.9134 23.7824 19.6797C24.2513 18.5509 24.512 17.348 24.5529 16.1287Z" fill="#FF0A0A"/>
<path d="M73.4158 4.77513C72.9977 4.77513 72.6444 4.63063 72.3554 4.34164C72.0664 4.05265 71.9219 3.70174 71.9219 3.28889C71.9219 2.86573 72.0664 2.51224 72.3554 2.22841C72.6444 1.93942 72.9977 1.79492 73.4158 1.79492C73.8339 1.79492 74.1848 1.93942 74.4686 2.22841C74.7576 2.51224 74.9021 2.86573 74.9021 3.28889C74.9021 3.70174 74.7576 4.05265 74.4686 4.34164C74.1848 4.63063 73.8339 4.77513 73.4158 4.77513Z" fill="#B1B1B1"/>
<path d="M72.1836 14.0564V5.72729H74.6298V14.0564H72.1836Z" fill="#B1B1B1"/>
<path fill-rule="evenodd" clip-rule="evenodd" d="M76.0117 16.5071V5.72721H78.3338V6.55549H78.3641C78.5105 6.41135 78.6682 6.27976 78.837 6.1607C79.3841 5.77882 80.0136 5.58789 80.7258 5.58789C81.3503 5.58789 81.9462 5.75044 82.514 6.07554C83.0868 6.40067 83.5511 6.88318 83.9072 7.52308C84.2634 8.16299 84.4362 8.9603 84.426 9.91499C84.431 10.6375 84.3305 11.2671 84.1241 11.8038C83.9177 12.3353 83.6389 12.7765 83.288 13.1274C82.937 13.4784 82.5448 13.7416 82.1114 13.917C81.6779 14.0925 81.2392 14.1802 80.7955 14.1802C80.0936 14.1802 79.4639 13.9841 78.9066 13.5919C78.7665 13.4919 78.6336 13.3835 78.5078 13.2668H78.4577V15.1093L76.0117 16.5071ZM80.2227 12.1366C80.5838 12.1315 80.9012 12.036 81.1747 11.8502C81.4483 11.6644 81.6625 11.4012 81.8171 11.0606C81.9721 10.72 82.0469 10.3227 82.0417 9.86856C82.0469 9.40411 81.9696 9.00673 81.8094 8.67646C81.6547 8.34104 81.4354 8.0856 81.1516 7.91014C80.8676 7.72951 80.5425 7.64179 80.1762 7.64694C79.8305 7.64179 79.5209 7.72692 79.2473 7.90238C78.9737 8.07784 78.7571 8.3333 78.5969 8.66873C78.437 8.999 78.3572 9.39894 78.3572 9.86856C78.3572 10.3227 78.437 10.72 78.5969 11.0606C78.7621 11.4012 78.9842 11.6644 79.2627 11.8502C79.5415 12.036 79.8613 12.1315 80.2227 12.1366Z" fill="#B1B1B1"/>
<path d="M88.2027 14.1804C87.7073 14.1804 87.2325 14.0952 86.7784 13.9249C86.3295 13.7546 85.932 13.5146 85.5863 13.205C85.2406 12.8902 84.98 12.5238 84.8047 12.1058L86.7244 11.262C86.8532 11.5046 87.0467 11.7342 87.3049 11.951C87.5628 12.1677 87.8674 12.2761 88.2184 12.2761C88.4041 12.2761 88.5665 12.2451 88.7061 12.1832C88.8453 12.1161 88.9538 12.031 89.0311 11.9278C89.1137 11.8246 89.155 11.7136 89.155 11.5949C89.155 11.4453 89.0955 11.3162 88.9769 11.2079C88.8583 11.0995 88.7061 11.0066 88.5203 10.9292C88.3345 10.8518 88.1383 10.7847 87.9318 10.7279C87.7307 10.6712 87.5449 10.6196 87.3745 10.5731C86.9823 10.4544 86.6107 10.2919 86.2598 10.0854C85.9141 9.87386 85.6329 9.60552 85.416 9.28039C85.1994 8.95529 85.0909 8.5605 85.0909 8.09605C85.0909 7.60581 85.2175 7.17488 85.4702 6.80332C85.7284 6.42662 86.0765 6.13245 86.5152 5.92088C86.9592 5.70929 87.4648 5.60352 88.0326 5.60352C88.7394 5.60352 89.3743 5.76607 89.9366 6.09117C90.5044 6.4163 90.9068 6.84719 91.1443 7.38389L89.2634 8.19667C89.1651 8.03153 89.0207 7.87157 88.8299 7.71675C88.6441 7.56194 88.4066 7.48452 88.1176 7.48452C87.8751 7.48452 87.6739 7.54644 87.5138 7.6703C87.3539 7.79415 87.2738 7.94897 87.2738 8.13475C87.2738 8.32052 87.3539 8.47019 87.5138 8.58373C87.6739 8.69726 87.8776 8.7953 88.1253 8.87786C88.373 8.96043 88.6312 9.04044 88.8995 9.11784C89.106 9.17462 89.346 9.25719 89.6193 9.36554C89.8928 9.46875 90.1587 9.61066 90.4166 9.7913C90.6797 9.9719 90.8966 10.2041 91.067 10.488C91.2423 10.7718 91.3301 11.1201 91.3301 11.533C91.3301 12.0542 91.1856 12.5161 90.8966 12.9186C90.6129 13.3159 90.2336 13.6256 89.7588 13.8475C89.289 14.0694 88.7705 14.1804 88.2027 14.1804Z" fill="#B1B1B1"/>
<path d="M101.273 14.0565V5.72737H103.604V6.78786H103.646C103.828 6.53445 104.033 6.3203 104.261 6.14536C104.726 5.78412 105.276 5.60352 105.91 5.60352C106.437 5.60352 106.883 5.73252 107.249 5.99054C107.532 6.1829 107.763 6.44093 107.941 6.76463H107.984C108.248 6.42843 108.568 6.16526 108.945 5.97508C109.435 5.72737 109.969 5.60352 110.547 5.60352C111.099 5.60352 111.553 5.70155 111.909 5.89765C112.266 6.08861 112.544 6.34146 112.745 6.65627C112.947 6.9659 113.088 7.3065 113.171 7.67806C113.254 8.04444 113.295 8.40053 113.295 8.74628V14.0565H110.834V9.04818C110.834 8.59405 110.738 8.24572 110.547 8.00316C110.361 7.75545 110.088 7.6316 109.727 7.6316C109.489 7.6316 109.277 7.68579 109.092 7.79415C108.911 7.89736 108.767 8.05476 108.658 8.26636C108.555 8.47793 108.503 8.73854 108.503 9.04818V14.0565H106.057V9.04818C106.057 8.59405 105.962 8.24572 105.771 8.00316C105.58 7.75545 105.304 7.6316 104.943 7.6316C104.592 7.6316 104.3 7.75286 104.068 7.99542C103.836 8.23281 103.72 8.58887 103.72 9.06364V14.0565H101.273Z" fill="#B1B1B1"/>
<path d="M93.7239 13.8165C94.1937 14.059 94.7147 14.1803 95.2877 14.1803C95.9637 14.1803 96.5623 14.0151 97.0836 13.6849C97.3473 13.5151 97.5873 13.3216 97.8033 13.1043H97.8655C97.9393 13.2736 98.0475 13.4233 98.1906 13.5533C98.4743 13.8113 98.9232 14.0203 99.5373 14.1803L100.404 12.1367C100.136 12.0386 99.9578 11.9225 99.8703 11.7884C99.7825 11.6542 99.7387 11.4375 99.7387 11.1381V5.72729H97.2925V10.635C97.2925 10.9395 97.2331 11.2026 97.1144 11.4245C97.001 11.6413 96.8409 11.809 96.6344 11.9277C96.4332 12.0464 96.1985 12.1057 95.9301 12.1057C95.569 12.1057 95.2619 11.9819 95.0089 11.7342C94.7612 11.4813 94.6374 11.1149 94.6374 10.635V5.72729H92.1914V10.9601C92.1914 11.6619 92.3282 12.2528 92.6015 12.7327C92.8803 13.2075 93.2543 13.5687 93.7239 13.8165Z" fill="#B1B1B1"/>
<path fill-rule="evenodd" clip-rule="evenodd" d="M66.8894 14.1804C66.0894 14.1804 65.3592 13.9971 64.6986 13.6307C64.0433 13.2643 63.5195 12.7586 63.1273 12.1135C62.7404 11.4685 62.5469 10.7253 62.5469 9.88419C62.5469 9.043 62.7404 8.29988 63.1273 7.65483C63.5195 7.00975 64.0433 6.5066 64.6986 6.14536C65.3592 5.78412 66.0894 5.60352 66.8894 5.60352C67.7047 5.60352 68.4401 5.78412 69.0954 6.14536C69.751 6.5066 70.2695 7.00975 70.6513 7.65483C71.0385 8.29988 71.232 9.043 71.232 9.88419C71.232 10.7253 71.0385 11.4685 70.6513 12.1135C70.2695 12.7586 69.7483 13.2643 69.0877 13.6307C68.4324 13.9971 67.6994 14.1804 66.8894 14.1804ZM66.8894 12.0903C67.2712 12.0903 67.6144 11.9974 67.9188 11.8116C68.2235 11.6259 68.4632 11.3678 68.6388 11.0376C68.8141 10.7073 68.9019 10.3228 68.9019 9.88419C68.9019 9.46102 68.8169 9.08429 68.6465 8.75401C68.4761 8.42374 68.2414 8.16571 67.9422 7.97993C67.6427 7.789 67.2971 7.69353 66.9049 7.69353C66.5179 7.69353 66.1694 7.78641 65.8598 7.97219C65.5554 8.15283 65.3154 8.40827 65.1398 8.73854C64.9645 9.06882 64.8767 9.4507 64.8767 9.88419C64.8767 10.3228 64.9645 10.7073 65.1398 11.0376C65.3206 11.3678 65.5631 11.6259 65.8675 11.8116C66.1719 11.9974 66.5127 12.0903 66.8894 12.0903Z" fill="#B1B1B1"/>
<path fill-rule="evenodd" clip-rule="evenodd" d="M57.2095 17.4314C56.5178 17.4314 55.8832 17.3463 55.3052 17.176C54.7324 17.0108 54.2808 16.8405 53.9505 16.6651L54.7556 14.7453C55.0446 14.9208 55.3801 15.0705 55.7618 15.1943C56.1488 15.3233 56.541 15.3878 56.9384 15.3878C57.2791 15.3878 57.6325 15.3311 57.9989 15.2176C58.3655 15.104 58.6776 14.9234 58.9355 14.6757C59.1936 14.4332 59.3227 14.1132 59.3227 13.7158V12.9108H59.2856C59.1342 13.0602 58.971 13.197 58.7962 13.321C58.2441 13.7081 57.6144 13.9016 56.9076 13.9016C56.4689 13.9016 56.0329 13.819 55.5994 13.6539C55.1659 13.4836 54.771 13.2281 54.4148 12.8875C54.0639 12.5418 53.7829 12.1109 53.5712 11.5949C53.3596 11.0788 53.2539 10.4724 53.2539 9.77575C53.2539 8.84685 53.4345 8.07535 53.7956 7.46124C54.1622 6.84197 54.6317 6.37752 55.2045 6.06789C55.7772 5.75311 56.3734 5.5957 56.9926 5.5957C57.7099 5.5957 58.3368 5.7789 58.8735 6.14531C59.0458 6.26179 59.206 6.39081 59.3538 6.53234H59.4001V5.71956H61.6217V13.5765C61.6217 14.2112 61.5133 14.7686 61.2967 15.2485C61.0798 15.7284 60.7726 16.131 60.3755 16.4561C59.9833 16.7812 59.5187 17.0238 58.982 17.1837C58.4453 17.3489 57.8544 17.4314 57.2095 17.4314ZM57.5112 11.9122C57.8827 11.9122 58.2105 11.8193 58.4943 11.6335C58.7783 11.4478 59.0026 11.1897 59.1678 10.8595C59.3329 10.524 59.4155 10.137 59.4155 9.69833C59.4155 9.25452 59.3356 8.87523 59.1755 8.56045C59.0156 8.24049 58.7962 7.99535 58.5177 7.82506C58.2389 7.65475 57.9163 7.56962 57.55 7.56962C57.1836 7.56962 56.8558 7.65734 56.5668 7.8328C56.2779 8.00311 56.0508 8.24823 55.8856 8.56818C55.7257 8.88813 55.6456 9.26484 55.6456 9.69833C55.6456 10.1318 55.7257 10.5163 55.8856 10.8517C56.0456 11.182 56.2649 11.4426 56.5437 11.6335C56.8223 11.8193 57.1448 11.9122 57.5112 11.9122Z" fill="#B1B1B1"/>
<path fill-rule="evenodd" clip-rule="evenodd" d="M48.2879 14.1804C47.4878 14.1804 46.7576 13.9971 46.0971 13.6307C45.4417 13.2643 44.918 12.7586 44.5258 12.1135C44.1388 11.4685 43.9453 10.7253 43.9453 9.88419C43.9453 9.043 44.1388 8.29988 44.5258 7.65483C44.918 7.00975 45.4417 6.5066 46.0971 6.14536C46.7576 5.78412 47.4878 5.60352 48.2879 5.60352C49.1031 5.60352 49.8385 5.78412 50.4938 6.14536C51.1494 6.5066 51.668 7.00975 52.0497 7.65483C52.437 8.29988 52.6305 9.043 52.6305 9.88419C52.6305 10.7253 52.437 11.4685 52.0497 12.1135C51.668 12.7586 51.1467 13.2643 50.4861 13.6307C49.8308 13.9971 49.0979 14.1804 48.2879 14.1804ZM48.2879 12.0903C48.6696 12.0903 49.0128 11.9974 49.3172 11.8116C49.6219 11.6259 49.8616 11.3678 50.0372 11.0376C50.2126 10.7073 50.3004 10.3228 50.3004 9.88419C50.3004 9.46102 50.2153 9.08429 50.0449 8.75401C49.8746 8.42374 49.6398 8.16571 49.3406 7.97993C49.0412 7.789 48.6955 7.69353 48.3033 7.69353C47.9163 7.69353 47.5679 7.78641 47.2582 7.97219C46.9538 8.15283 46.7138 8.40827 46.5382 8.73854C46.3629 9.06882 46.2751 9.4507 46.2751 9.88419C46.2751 10.3228 46.3629 10.7073 46.5382 11.0376C46.7191 11.3678 46.9616 11.6259 47.266 11.8116C47.5704 11.9974 47.9111 12.0903 48.2879 12.0903Z" fill="#B1B1B1"/>
<path d="M37.3359 14.0565V2.64648H39.8749V11.7961H43.9852V14.0565H37.3359Z" fill="#B1B1B1"/>
<path fill-rule="evenodd" clip-rule="evenodd" d="M76.0124 18.1566V20.4451H75.9428C75.8417 20.3572 75.7361 20.2747 75.6251 20.1974C75.0835 19.8155 74.459 19.6246 73.7519 19.6246C73.1274 19.6246 72.5288 19.7871 71.9561 20.1122C71.3833 20.4374 70.9187 20.9199 70.5628 21.5598C70.2067 22.1997 70.0363 22.997 70.0517 23.9517C70.0416 24.6742 70.1395 25.3038 70.346 25.8405C70.5524 26.372 70.8312 26.8132 71.1821 27.1641C71.533 27.5151 71.9252 27.7783 72.3587 27.9536C72.7922 28.1292 73.2306 28.217 73.6746 28.217C74.3764 28.217 75.0059 28.0208 75.5632 27.6286C75.8426 27.4294 76.0927 27.1972 76.3138 26.9319H76.39C76.4481 27.0814 76.5361 27.2233 76.6548 27.3577C76.8147 27.5278 77.0263 27.6853 77.2895 27.8298C77.5578 27.9693 77.8831 28.0981 78.2649 28.217L79.1241 26.1733C78.8866 26.0856 78.7165 25.9798 78.6133 25.8559C78.5101 25.7321 78.4584 25.5179 78.4584 25.2135V16.7588L76.0124 18.1566ZM75.2073 25.8869C74.9285 26.0727 74.6087 26.1682 74.2473 26.1733C73.8912 26.1682 73.5739 26.0727 73.2953 25.8869C73.0165 25.7011 72.7999 25.4379 72.645 25.0973C72.4955 24.7567 72.4231 24.3594 72.4283 23.9053C72.4231 23.4408 72.5005 23.0434 72.6606 22.7132C72.8206 22.3777 73.0399 22.1223 73.3184 21.9468C73.6022 21.7662 73.9275 21.6785 74.2939 21.6836C74.6395 21.6785 74.9492 21.7636 75.2228 21.9391C75.4963 22.1145 75.7129 22.37 75.8728 22.7054C76.033 23.0357 76.1156 23.4356 76.1205 23.9053C76.1156 24.3594 76.033 24.7567 75.8728 25.0973C75.7129 25.4379 75.4911 25.7011 75.2073 25.8869Z" fill="#AAAAAA"/>
<path d="M106.379 28.0932V19.764H108.748V20.8554H108.785C108.85 20.7568 108.923 20.6639 109.003 20.5768C109.292 20.2671 109.638 20.0349 110.041 19.8801C110.443 19.7201 110.874 19.6401 111.333 19.6401C111.89 19.6401 112.37 19.7691 112.773 20.0272C113.175 20.2852 113.485 20.6387 113.702 21.0877C113.919 21.5366 114.027 22.0553 114.027 22.6436V28.0932H111.581V23.1777C111.581 22.6771 111.462 22.303 111.225 22.0553C110.987 21.8024 110.665 21.676 110.257 21.676C109.989 21.676 109.746 21.7353 109.529 21.854C109.313 21.9675 109.14 22.1378 109.011 22.3649C108.887 22.5868 108.825 22.8655 108.825 23.2009V28.0932H106.379Z" fill="#AAAAAA"/>
<path fill-rule="evenodd" clip-rule="evenodd" d="M101.351 28.2171C100.551 28.2171 99.8204 28.0338 99.1598 27.6674C98.5045 27.301 97.9808 26.7952 97.5886 26.1502C97.2016 25.5051 97.0078 24.762 97.0078 23.9208C97.0078 23.0797 97.2016 22.3365 97.5886 21.6914C97.9808 21.0464 98.5045 20.5432 99.1598 20.182C99.8204 19.8207 100.551 19.6401 101.351 19.6401C102.166 19.6401 102.901 19.8207 103.557 20.182C104.212 20.5432 104.731 21.0464 105.112 21.6914C105.5 22.3365 105.693 23.0797 105.693 23.9208C105.693 24.762 105.5 25.5051 105.112 26.1502C104.731 26.7952 104.209 27.301 103.549 27.6674C102.894 28.0338 102.161 28.2171 101.351 28.2171ZM101.351 26.1269C101.732 26.1269 102.076 26.034 102.38 25.8483C102.684 25.6625 102.924 25.4045 103.1 25.0742C103.275 24.7439 103.363 24.3595 103.363 23.9208C103.363 23.4976 103.278 23.1209 103.108 22.7907C102.937 22.4604 102.703 22.2024 102.403 22.0166C102.104 21.8256 101.758 21.7301 101.366 21.7301C100.979 21.7301 100.631 21.823 100.321 22.0088C100.017 22.1894 99.7766 22.4449 99.601 22.7752C99.4257 23.1054 99.3379 23.4873 99.3379 23.9208C99.3379 24.3595 99.4257 24.7439 99.601 25.0742C99.7818 25.4045 100.024 25.6625 100.329 25.8483C100.633 26.034 100.974 26.1269 101.351 26.1269Z" fill="#AAAAAA"/>
<path d="M93.8477 28.0932V19.7639H96.2936V28.0932H93.8477Z" fill="#AAAAAA"/>
<path d="M94.0155 18.3783C94.3045 18.6673 94.6582 18.8118 95.0762 18.8118C95.494 18.8118 95.845 18.6673 96.129 18.3783C96.418 18.0893 96.5625 17.7384 96.5625 17.3255C96.5625 16.9024 96.418 16.5489 96.129 16.265C95.845 15.976 95.494 15.8315 95.0762 15.8315C94.6582 15.8315 94.3045 15.976 94.0155 16.265C93.7265 16.5489 93.582 16.9024 93.582 17.3255C93.582 17.7384 93.7265 18.0893 94.0155 18.3783Z" fill="#AAAAAA"/>
<path d="M89.3511 27.3654C89.8517 27.933 90.6155 28.217 91.6424 28.217C91.9572 28.217 92.2669 28.1884 92.5713 28.1317C92.8809 28.075 93.152 27.99 93.3843 27.8763L92.5946 25.9489C92.5069 25.9953 92.4061 26.034 92.2927 26.0649C92.1791 26.0959 92.0632 26.1114 91.9443 26.1114C91.6916 26.1114 91.4772 26.034 91.3019 25.8792C91.1315 25.7192 91.0465 25.4612 91.0465 25.1051V21.792H92.9739V19.7639H91.0465V17.3643H88.6002V19.7639H87.207V21.792H88.6002V25.167C88.6002 26.0598 88.8507 26.7926 89.3511 27.3654Z" fill="#AAAAAA"/>
<path fill-rule="evenodd" clip-rule="evenodd" d="M80.8117 27.8763C81.24 28.1034 81.7354 28.2171 82.2979 28.2171C82.948 28.2171 83.5211 28.088 84.0165 27.8298C84.4169 27.6234 84.7101 27.3938 84.8958 27.141H84.9335C85.0059 27.2648 85.1025 27.3887 85.2239 27.5125C85.4664 27.7602 85.8278 27.9641 86.3078 28.1241L86.594 28.2171L87.4533 26.1734L87.2675 26.1115C87.0869 26.0547 86.9603 25.9541 86.8882 25.8096C86.8211 25.6599 86.7875 25.4432 86.7875 25.1593V22.6513C86.7875 22.352 86.7514 22.0295 86.6793 21.6837C86.6122 21.3328 86.4677 21.0051 86.2458 20.7006C86.0237 20.391 85.6833 20.1381 85.2239 19.942C84.7646 19.7408 84.1453 19.6401 83.3661 19.6401C82.8655 19.6401 82.3959 19.6814 81.9572 19.764C81.5237 19.8414 81.1368 19.9394 80.7963 20.0581C80.4608 20.1768 80.1897 20.2955 79.9833 20.4142L80.7963 22.2565C80.987 22.1327 81.2141 22.0243 81.4775 21.9314C81.7406 21.8334 82.0142 21.7585 82.2979 21.7069C82.5817 21.6502 82.8476 21.6218 83.0953 21.6218C83.3119 21.6218 83.5054 21.6476 83.6757 21.6992C83.8461 21.7456 83.9906 21.8153 84.1092 21.9082C84.2279 22.0011 84.3156 22.1146 84.3723 22.2488C84.4343 22.3778 84.4654 22.5223 84.4654 22.6823V23.1003H82.8938C82.1713 23.1003 81.5521 23.2112 81.036 23.4331C80.5252 23.655 80.133 23.9595 79.8594 24.3466C79.5911 24.7336 79.457 25.1774 79.457 25.678C79.457 26.1528 79.5756 26.5811 79.8132 26.9629C80.0556 27.3448 80.3884 27.6493 80.8117 27.8763ZM83.188 24.633H84.5815V25.1516C84.5815 25.4561 84.4833 25.6986 84.2873 25.8792C84.0963 26.0599 83.8692 26.1889 83.6061 26.2663C83.343 26.3437 83.1132 26.3824 82.9172 26.3824C82.7056 26.3824 82.5146 26.3489 82.3445 26.2818C82.1793 26.2095 82.0502 26.1115 81.9572 25.9876C81.8645 25.8586 81.8179 25.7038 81.8179 25.5232C81.8179 25.2187 81.9341 24.9942 82.1664 24.8497C82.4036 24.7052 82.7444 24.633 83.188 24.633Z" fill="#AAAAAA"/>
<path d="M61.8438 28.0932V19.764H64.2124V20.8554H64.2498C64.3153 20.7568 64.388 20.6639 64.4681 20.5768C64.757 20.2671 65.1027 20.0349 65.5051 19.8801C65.9078 19.7201 66.3385 19.6401 66.7979 19.6401C67.3552 19.6401 67.8352 19.7691 68.2376 20.0272C68.6403 20.2852 68.9499 20.6387 69.1665 21.0877C69.3834 21.5366 69.4918 22.0553 69.4918 22.6436V28.0932H67.0456V23.1777C67.0456 22.6771 66.927 22.303 66.6894 22.0553C66.4522 21.8024 66.1296 21.676 65.722 21.676C65.4537 21.676 65.2112 21.7353 64.9943 21.854C64.7777 21.9675 64.6046 22.1378 64.4758 22.3649C64.3519 22.5868 64.29 22.8655 64.29 23.2009V28.0932H61.8438Z" fill="#AAAAAA"/>
<path d="M56.0885 28.217C55.5155 28.217 54.9945 28.0956 54.5247 27.8532C54.0551 27.6054 53.6811 27.2441 53.4023 26.7694C53.1287 26.2894 52.9922 25.6986 52.9922 24.9967V19.7639H55.4381V24.6716C55.4381 25.1515 55.562 25.5179 55.8097 25.7708C56.0626 26.0185 56.3695 26.1424 56.7309 26.1424C56.9993 26.1424 57.234 26.083 57.4352 25.9643C57.6416 25.8456 57.8018 25.6779 57.9152 25.4612C58.0338 25.2392 58.0933 24.9761 58.0933 24.6716V19.7639H60.5392V25.1748C60.5392 25.4741 60.5833 25.6908 60.6711 25.825C60.7586 25.9592 60.9367 26.0753 61.205 26.1733L60.3381 28.217C59.724 28.0568 59.2751 27.8479 58.9911 27.5898C58.8482 27.4599 58.7398 27.3102 58.6663 27.1409H58.6041C58.3881 27.3582 58.1481 27.5518 57.8844 27.7216C57.3631 28.0519 56.7645 28.217 56.0885 28.217Z" fill="#AAAAAA"/>
<path fill-rule="evenodd" clip-rule="evenodd" d="M48.0186 28.2171C47.2185 28.2171 46.4884 28.0338 45.8278 27.6674C45.1725 27.301 44.6487 26.7952 44.2565 26.1502C43.8695 25.5051 43.6758 24.762 43.6758 23.9208C43.6758 23.0797 43.8695 22.3365 44.2565 21.6914C44.6487 21.0464 45.1725 20.5432 45.8278 20.182C46.4884 19.8207 47.2185 19.6401 48.0186 19.6401C48.8339 19.6401 49.5693 19.8207 50.2246 20.182C50.8799 20.5432 51.3987 21.0464 51.7805 21.6914C52.1677 22.3365 52.3612 23.0797 52.3612 23.9208C52.3612 24.762 52.1677 25.5051 51.7805 26.1502C51.3987 26.7952 50.8774 27.301 50.2169 27.6674C49.5616 28.0338 48.8286 28.2171 48.0186 28.2171ZM48.0186 26.1269C48.4004 26.1269 48.7436 26.034 49.048 25.8483C49.3524 25.6625 49.5924 25.4045 49.768 25.0742C49.9433 24.7439 50.0311 24.3595 50.0311 23.9208C50.0311 23.4976 49.9461 23.1209 49.7757 22.7907C49.6053 22.4604 49.3705 22.2024 49.0714 22.0166C48.7719 21.8256 48.4262 21.7301 48.034 21.7301C47.6471 21.7301 47.2986 21.823 46.989 22.0088C46.6846 22.1894 46.4446 22.4449 46.269 22.7752C46.0937 23.1054 46.0059 23.4873 46.0059 23.9208C46.0059 24.3595 46.0937 24.7439 46.269 25.0742C46.4498 25.4045 46.6923 25.6625 46.9967 25.8483C47.3011 26.034 47.6418 26.1269 48.0186 26.1269Z" fill="#AAAAAA"/>
<path d="M37.3164 28.0932V16.6831H43.9657V18.9434H39.8554V21.5675H43.2768V23.8279H39.8554V28.0932H37.3164Z" fill="#AAAAAA"/>
<path d="M31.6148 13.905H27.6914C27.6897 14.105 27.5722 14.2858 27.3921 14.3757L24.8641 15.6362C24.6839 15.7261 24.5688 15.9069 24.5547 16.1069H28.478C28.4906 15.9069 28.606 15.7261 28.7862 15.6362L31.3142 14.3757C31.4942 14.2859 31.6115 14.1051 31.6148 13.905Z" fill="#FF6670"/>
<path d="M0.246094 16.1069H4.16952C4.17122 15.9069 4.28866 15.7261 4.46888 15.6362L6.99684 14.3757C7.17708 14.2858 7.2921 14.105 7.30625 13.905H3.38283C3.37042 14.1051 3.25504 14.2859 3.07482 14.3757L0.54687 15.6362C0.366642 15.7261 0.249546 15.9069 0.246094 16.1069Z" fill="#FF6670"/>
<path d="M9.6602 13.905C9.64421 14.105 9.52952 14.2858 9.34927 14.3757L6.82132 15.6362C6.64107 15.7261 6.52327 15.9069 6.52344 16.1069H10.452C10.4436 15.9074 10.563 15.7261 10.7433 15.6362L13.2713 14.3757C13.4516 14.2858 13.5648 14.1045 13.5888 13.905H9.6602Z" fill="#FF6670"/>
<path d="M21.4063 13.905C21.4146 14.1045 21.2953 14.2858 21.1149 14.3757L18.587 15.6362C18.4066 15.7261 18.2935 15.9074 18.2695 16.1069H22.1981C22.2141 15.9069 22.3288 15.7261 22.509 15.6362L25.037 14.3757C25.2172 14.2858 25.335 14.105 25.3348 13.905H21.4063Z" fill="#FF6670"/>
</g>
<defs>
<clipPath id="clip0_62_7728">
<rect width="114.22" height="30" fill="white"/>
</clipPath>
</defs>
</svg>
