<svg width="165" height="30" viewBox="0 0 165 30" fill="none" xmlns="http://www.w3.org/2000/svg">
              <g clip-path="url(#clip0_24303_2207)">
                <path
                  d="M9.8223 15.2651L13.2196 16.8354L12.7845 20.7395L6.71157 27.6211C3.18645 25.3517 0.673633 21.6461 0 17.3309L9.8223 15.2651Z"
                  fill="#15E3FF" />
                <path
                  d="M18.8874 19.455L23.4312 27.2842C20.9942 28.9954 18.025 30 14.8211 30C13.781 30 12.7656 29.894 11.7852 29.6925L12.7847 20.7395L15.3576 17.8242L18.8874 19.455Z"
                  fill="#477BFF" />
                <path
                  d="M29.3283 11.1606C29.6515 12.3856 29.8239 13.6719 29.8239 14.9985C29.8239 18.0858 28.891 20.9551 27.2922 23.3404L18.8896 19.4553L16.918 16.0591L19.3947 13.2518L29.3283 11.1606Z"
                  fill="#FD4873" />
                <path
                  d="M15.1004 0C19.6143 0.0820613 23.6409 2.15775 26.3375 5.38382L19.3935 13.252L15.7358 14.0219L13.8906 10.8431L15.1004 0Z"
                  fill="#FFC700" />
                <path
                  d="M13.8899 10.8431L13.4816 14.4952L9.82501 15.2648L0.386719 10.901C1.57542 6.70534 4.54414 3.25771 8.42521 1.42554L13.8899 10.8431Z"
                  fill="#00E7B9" />
                <path
                  d="M144.684 22.0036V14.8219C144.684 10.7143 147.065 8.90601 150.17 8.90601C151.982 8.90601 153.509 9.60351 154.467 10.9468C155.424 9.60351 156.925 8.90601 158.763 8.90601C161.868 8.90601 164.249 10.7143 164.249 14.8219V22.0036H160.367V14.8219C160.367 13.1169 159.539 12.5227 158.374 12.5227C157.236 12.5227 156.408 13.1169 156.408 14.8219V22.0036H152.526V14.8219C152.526 13.1169 151.697 12.5227 150.558 12.5227C149.394 12.5227 148.566 13.1169 148.566 14.8219V22.0036H144.684Z"
                  fill="#2E2E2E" />
                <path
                  d="M136.725 22.2201C132.947 22.2201 130.41 20.0501 130.41 15.7359V9.12256H134.292V15.7359C134.292 17.7509 135.275 18.6034 136.725 18.6034C138.174 18.6034 139.157 17.7509 139.157 15.7359V9.12256H143.039V15.7359C143.039 20.0243 140.504 22.2201 136.725 22.2201Z"
                  fill="#2E2E2E" />
                <path
                  d="M123.804 22.2203C120.517 22.2203 118.395 20.4636 118.344 18.0094H122.174C122.199 18.6811 122.691 19.0169 123.753 19.0169C124.943 19.0169 125.331 18.6036 125.331 18.0611C125.331 17.2086 124.399 17.1311 123.209 16.9502C121.449 16.6919 118.551 16.2527 118.551 13.1786C118.551 10.5952 120.595 8.78687 123.778 8.78687C126.962 8.78687 128.928 10.6211 129.006 12.9203H125.228C125.124 12.326 124.606 11.9902 123.83 11.9902C122.873 11.9902 122.484 12.4811 122.484 12.9977C122.484 13.7727 123.416 13.8761 124.607 14.0569C126.444 14.3153 129.265 14.8061 129.265 17.8286C129.265 20.4636 127.091 22.2203 123.804 22.2203Z"
                  fill="#2E2E2E" />
                <path
                  d="M104.004 27.3353V15.6327C104.004 11.3444 106.902 8.78687 110.81 8.78687C114.873 8.78687 117.72 11.5511 117.72 15.6586C117.72 20.102 114.407 22.2203 111.509 22.2203C109.982 22.2203 108.688 21.6261 107.886 20.4894V27.3353H104.004ZM110.836 18.6036C112.596 18.6036 113.786 17.3378 113.786 15.5036C113.786 13.6694 112.596 12.4036 110.836 12.4036C109.076 12.4036 107.886 13.6694 107.886 15.5036C107.886 17.3378 109.076 18.6036 110.836 18.6036Z"
                  fill="#2E2E2E" />
                <path
                  d="M99.9926 7.96005C98.5691 7.96005 97.5078 6.90086 97.5078 5.48001C97.5078 4.05917 98.5691 3 99.9926 3C101.415 3 102.477 4.05917 102.477 5.48001C102.477 6.90086 101.415 7.96005 99.9926 7.96005ZM98.0516 21.8843V9.12255H101.934V21.8843H98.0516Z"
                  fill="#2E2E2E" />
                <path
                  d="M89.6264 22.2203C85.5892 22.2203 82.7422 19.3786 82.7422 15.5036C82.7422 11.6285 85.5892 8.78687 89.6264 8.78687C93.6637 8.78687 96.5107 11.6285 96.5107 15.5036C96.5107 19.3786 93.6637 22.2203 89.6264 22.2203ZM89.6264 18.6036C91.3867 18.6036 92.5769 17.3378 92.5769 15.5036C92.5769 13.6694 91.3867 12.4036 89.6264 12.4036C87.8669 12.4036 86.6759 13.6694 86.6759 15.5036C86.6759 17.3378 87.8669 18.6036 89.6264 18.6036Z"
                  fill="#2E2E2E" />
                <path
                  d="M75.2475 22.2203C71.2101 22.2203 68.3633 19.3786 68.3633 15.5036C68.3633 11.6285 71.2101 8.78687 75.2475 8.78687C79.2847 8.78687 82.1317 11.6285 82.1317 15.5036C82.1317 19.3786 79.2847 22.2203 75.2475 22.2203ZM75.2475 18.6036C77.007 18.6036 78.198 17.3378 78.198 15.5036C78.198 13.6694 77.007 12.4036 75.2475 12.4036C73.4875 12.4036 72.297 13.6694 72.297 15.5036C72.297 17.3378 73.4875 18.6036 75.2475 18.6036Z"
                  fill="#2E2E2E" />
                <path
                  d="M60.8723 22.2203C56.8351 22.2203 53.9883 19.3786 53.9883 15.5036C53.9883 11.6285 56.8351 8.78687 60.8723 8.78687C64.9096 8.78687 67.7563 11.6285 67.7563 15.5036C67.7563 19.3786 64.9096 22.2203 60.8723 22.2203ZM60.8723 18.6036C62.6322 18.6036 63.8227 17.3378 63.8227 15.5036C63.8227 13.6694 62.6322 12.4036 60.8723 12.4036C59.1125 12.4036 57.922 13.6694 57.922 15.5036C57.922 17.3378 59.1125 18.6036 60.8723 18.6036Z"
                  fill="#2E2E2E" />
                <path d="M41.25 21.8844V4.98926H45.4426V18.0093H53.4395V21.8844H41.25Z" fill="#2E2E2E" />
                <path
                  d="M81.6172 23.0803C81.2257 26.6671 78.8114 28.5 75.3599 28.5C71.9058 28.5 69.4912 26.6868 69.1016 23.0803H73.0397C73.3363 24.3354 74.1979 24.8832 75.3599 24.8832C76.5209 24.8832 77.3827 24.3355 77.6797 23.0803H81.6172Z"
                  fill="#2E2E2E" />
              </g>
              <defs>
                <clipPath id="clip0_24303_2207">
                  <rect width="164.25" height="30" fill="white" />
                </clipPath>
              </defs>
            </svg>