<svg width="167" height="30" viewBox="0 0 167 30" fill="none" xmlns="http://www.w3.org/2000/svg">
              <g clip-path="url(#clip0_24303_2224)">
                <path fill-rule="evenodd" clip-rule="evenodd"
                  d="M15 0C20.6076 0 23.4115 -0.000153691 25.5 1.20556C26.8682 1.99548 28.0046 3.13183 28.7945 4.5C30.0002 6.58845 30 9.3924 30 15C30 20.6076 30.0002 23.4115 28.7945 25.5C28.0046 26.8682 26.8682 28.0046 25.5 28.7945C23.4115 30.0002 20.6076 30 15 30C9.3924 30 6.58845 30.0002 4.5 28.7945C3.13183 28.0046 1.99548 26.8682 1.20556 25.5C-0.000153691 23.4115 0 20.6076 0 15C0 9.3924 -0.000153691 6.58845 1.20556 4.5C1.99548 3.13183 3.13183 1.99548 4.5 1.20556C6.58845 -0.000153691 9.3924 0 15 0ZM16.5 3C9.87255 3 4.5 8.37255 4.5 15C4.5 21.6275 9.87255 27 16.5 27C23.1275 27 28.5 21.6275 28.5 15C28.5 8.37255 23.1275 3 16.5 3Z"
                  fill="#F1762A" />
                <path
                  d="M27 15C27 19.1421 23.6421 22.5 19.5 22.5C15.3579 22.5 12 19.1421 12 15C12 10.8579 15.3579 7.5 19.5 7.5C23.6421 7.5 27 10.8579 27 15Z"
                  fill="#F1762A" />
                <path
                  d="M160.9 8.44409C162.577 8.44409 163.925 8.95904 164.945 9.98902C165.98 11.0026 166.499 12.4249 166.499 14.2559V22.2258H163.046V14.7219C163.046 13.6592 162.774 12.85 162.232 12.2941C161.689 11.722 160.949 11.4358 160.012 11.4358C159.074 11.4358 158.326 11.722 157.767 12.2941C157.224 12.85 156.953 13.6592 156.953 14.7219V22.2258H153.5V14.7219C153.5 13.6592 153.229 12.85 152.686 12.2941C152.144 11.722 151.403 11.4358 150.466 11.4358C149.513 11.4358 148.756 11.722 148.197 12.2941C147.654 12.85 147.383 13.6592 147.383 14.7219V22.2258H143.93V8.64029H147.383V10.2832C147.827 9.71107 148.394 9.26152 149.085 8.93452C149.792 8.60759 150.565 8.44409 151.403 8.44409C152.472 8.44409 153.426 8.67299 154.265 9.13072C155.103 9.57209 155.753 10.2097 156.213 11.0434C156.657 10.2587 157.298 9.62932 158.137 9.15524C158.992 8.68109 159.913 8.44409 160.9 8.44409Z"
                  fill="#2E2E2E" />
                <path
                  d="M141.386 8.64014V22.2257H137.909V20.5091C137.465 21.0976 136.881 21.5635 136.157 21.9069C135.451 22.2339 134.678 22.3973 133.839 22.3973C132.77 22.3973 131.825 22.1767 131.003 21.7352C130.181 21.2775 129.531 20.6154 129.054 19.7489C128.594 18.8661 128.363 17.8198 128.363 16.61V8.64014H131.816V16.1196C131.816 17.1985 132.088 18.0323 132.63 18.6208C133.173 19.1931 133.913 19.4791 134.85 19.4791C135.804 19.4791 136.553 19.1931 137.095 18.6208C137.638 18.0323 137.909 17.1985 137.909 16.1196V8.64014H141.386Z"
                  fill="#2E2E2E" />
                <path
                  d="M121.141 22.4463C120.023 22.4463 119.019 22.2502 118.131 21.8578C117.243 21.4491 116.537 20.9014 116.01 20.2148C115.5 19.5281 115.221 18.7679 115.172 17.9342H118.65C118.716 18.4574 118.971 18.8906 119.414 19.2339C119.874 19.5772 120.442 19.7489 121.116 19.7489C121.774 19.7489 122.283 19.6181 122.646 19.3565C123.024 19.0949 123.213 18.7598 123.213 18.3511C123.213 17.9096 122.982 17.5827 122.522 17.3702C122.078 17.1413 121.363 16.8961 120.376 16.6345C119.357 16.3892 118.518 16.1359 117.861 15.8743C117.219 15.6127 116.66 15.2122 116.183 14.6727C115.722 14.1332 115.492 13.4057 115.492 12.4902C115.492 11.7381 115.706 11.0515 116.134 10.4303C116.577 9.80903 117.203 9.31861 118.008 8.95891C118.83 8.59928 119.793 8.41943 120.894 8.41943C122.522 8.41943 123.821 8.82811 124.791 9.64553C125.761 10.4466 126.296 11.5338 126.395 12.9071H123.09C123.04 12.3676 122.81 11.9425 122.399 11.6319C122.004 11.3049 121.47 11.1414 120.795 11.1414C120.171 11.1414 119.685 11.2559 119.34 11.4848C119.011 11.7137 118.847 12.0324 118.847 12.4412C118.847 12.8989 119.077 13.2504 119.538 13.4956C119.998 13.7245 120.714 13.9616 121.683 14.2067C122.67 14.452 123.484 14.7054 124.125 14.9669C124.767 15.2285 125.318 15.6372 125.778 16.1931C126.255 16.7326 126.501 17.4519 126.518 18.3511C126.518 19.1358 126.296 19.8388 125.852 20.46C125.424 21.0812 124.8 21.5717 123.978 21.9314C123.171 22.2747 122.226 22.4463 121.141 22.4463Z"
                  fill="#2E2E2E" />
                <path
                  d="M103.512 10.6019C103.956 9.98071 104.564 9.46568 105.337 9.05701C106.126 8.63198 107.022 8.41943 108.025 8.41943C109.193 8.41943 110.245 8.70548 111.183 9.27773C112.136 9.84991 112.884 10.6673 113.427 11.7299C113.986 12.7763 114.266 13.9943 114.266 15.3839C114.266 16.7735 113.986 18.0077 113.427 19.0868C112.884 20.1494 112.136 20.975 111.183 21.5636C110.245 22.1521 109.193 22.4463 108.025 22.4463C107.022 22.4463 106.134 22.242 105.361 21.8333C104.605 21.4246 103.989 20.9096 103.512 20.2883V28.6996H100.059V8.64016H103.512V10.6019ZM110.739 15.3839C110.739 14.5664 110.566 13.8635 110.22 13.2749C109.892 12.67 109.448 12.2123 108.888 11.9016C108.346 11.591 107.754 11.4357 107.112 11.4357C106.488 11.4357 105.896 11.5992 105.337 11.9261C104.794 12.2368 104.35 12.6945 104.005 13.2994C103.676 13.9043 103.512 14.6155 103.512 15.4329C103.512 16.2503 103.676 16.9615 104.005 17.5664C104.35 18.1712 104.794 18.6371 105.337 18.9641C105.896 19.2748 106.488 19.43 107.112 19.43C107.754 19.43 108.346 19.2666 108.888 18.9396C109.448 18.6126 109.892 18.1467 110.22 17.5418C110.566 16.937 110.739 16.2176 110.739 15.3839Z"
                  fill="#2E2E2E" />
                <path
                  d="M95.8053 7.0217C95.1963 7.0217 94.6871 6.8337 94.2761 6.45769C93.8808 6.06533 93.6836 5.58304 93.6836 5.01085C93.6836 4.43866 93.8808 3.96455 94.2761 3.58854C94.6871 3.19618 95.1963 3 95.8053 3C96.4136 3 96.9153 3.19618 97.3098 3.58854C97.7208 3.96455 97.9263 4.43866 97.9263 5.01085C97.9263 5.58304 97.7208 6.06533 97.3098 6.45769C96.9153 6.8337 96.4136 7.0217 95.8053 7.0217ZM97.5071 8.64022V22.2257H94.0541V8.64022H97.5071Z"
                  fill="#2E2E2E" />
                <path
                  d="M85.2589 22.4463C83.9434 22.4463 82.7591 22.1603 81.7069 21.5881C80.6546 20.9995 79.8244 20.1739 79.2154 19.1113C78.6236 18.0486 78.3281 16.8225 78.3281 15.4329C78.3281 14.0432 78.6319 12.8171 79.2401 11.7545C79.8656 10.6919 80.7124 9.87443 81.7811 9.30226C82.8499 8.71366 84.0416 8.41943 85.3571 8.41943C86.6726 8.41943 87.8651 8.71366 88.9339 9.30226C90.0026 9.87443 90.8411 10.6919 91.4501 11.7545C92.0749 12.8171 92.3869 14.0432 92.3869 15.4329C92.3869 16.8225 92.0666 18.0486 91.4254 19.1113C90.8006 20.1739 89.9449 20.9995 88.8596 21.5881C87.7909 22.1603 86.5909 22.4463 85.2589 22.4463ZM85.2589 19.4546C85.8836 19.4546 86.4671 19.3075 87.0101 19.0132C87.5689 18.7025 88.0129 18.2448 88.3421 17.6399C88.6706 17.0351 88.8356 16.2994 88.8356 15.4329C88.8356 14.1413 88.4899 13.1523 87.7991 12.4657C87.1249 11.7626 86.2946 11.4112 85.3084 11.4112C84.3214 11.4112 83.4911 11.7626 82.8169 12.4657C82.1591 13.1523 81.8306 14.1413 81.8306 15.4329C81.8306 16.7244 82.1509 17.7217 82.7921 18.4247C83.4499 19.1113 84.2719 19.4546 85.2589 19.4546Z"
                  fill="#2E2E2E" />
                <path
                  d="M70.3919 22.4463C69.0764 22.4463 67.8925 22.1603 66.8401 21.5881C65.7877 20.9995 64.9573 20.1739 64.3489 19.1113C63.7569 18.0486 63.4609 16.8225 63.4609 15.4329C63.4609 14.0432 63.7651 12.8171 64.3735 11.7545C64.9984 10.6919 65.8453 9.87443 66.9141 9.30226C67.9829 8.71366 69.1751 8.41943 70.4906 8.41943C71.806 8.41943 72.9982 8.71366 74.0671 9.30226C75.1357 9.87443 75.9742 10.6919 76.5832 11.7545C77.208 12.8171 77.52 14.0432 77.52 15.4329C77.52 16.8225 77.1997 18.0486 76.5585 19.1113C75.9337 20.1739 75.078 20.9995 73.993 21.5881C72.9242 22.1603 71.7238 22.4463 70.3919 22.4463ZM70.3919 19.4546C71.0167 19.4546 71.6005 19.3075 72.1432 19.0132C72.7022 18.7025 73.1462 18.2448 73.4751 17.6399C73.804 17.0351 73.9684 16.2994 73.9684 15.4329C73.9684 14.1413 73.6231 13.1523 72.9325 12.4657C72.2583 11.7626 71.4279 11.4112 70.4413 11.4112C69.4546 11.4112 68.6242 11.7626 67.9501 12.4657C67.2923 13.1523 66.9634 14.1413 66.9634 15.4329C66.9634 16.7244 67.2841 17.7217 67.9254 18.4247C68.5831 19.1113 69.4053 19.4546 70.3919 19.4546Z"
                  fill="#2E2E2E" />
                <path
                  d="M55.5247 22.4463C54.2093 22.4463 53.0254 22.1603 51.9729 21.5881C50.9205 20.9995 50.0901 20.1739 49.4817 19.1113C48.8898 18.0486 48.5938 16.8225 48.5938 15.4329C48.5938 14.0432 48.8979 12.8171 49.5064 11.7545C50.1312 10.6919 50.9781 9.87443 52.0469 9.30226C53.1158 8.71366 54.3079 8.41943 55.6234 8.41943C56.9389 8.41943 58.131 8.71366 59.1999 9.30226C60.2688 9.87443 61.1073 10.6919 61.7157 11.7545C62.3406 12.8171 62.6531 14.0432 62.6531 15.4329C62.6531 16.8225 62.3324 18.0486 61.6911 19.1113C61.0662 20.1739 60.2112 20.9995 59.1259 21.5881C58.0571 22.1603 56.8567 22.4463 55.5247 22.4463ZM55.5247 19.4546C56.1496 19.4546 56.7333 19.3075 57.276 19.0132C57.8351 18.7025 58.2791 18.2448 58.6079 17.6399C58.9368 17.0351 59.1012 16.2994 59.1012 15.4329C59.1012 14.1413 58.756 13.1523 58.0653 12.4657C57.3911 11.7626 56.5607 11.4112 55.5741 11.4112C54.5874 11.4112 53.757 11.7626 53.0829 12.4657C52.4251 13.1523 52.0962 14.1413 52.0962 15.4329C52.0962 16.7244 52.4169 17.7217 53.0582 18.4247C53.7159 19.1113 54.5382 19.4546 55.5247 19.4546Z"
                  fill="#2E2E2E" />
                <path d="M42.4531 19.5036H48.1262V22.2256H39V5.10889H42.4531V19.5036Z" fill="#2E2E2E" />
                <path
                  d="M73.7439 23.0171C74.0222 22.9055 74.2945 22.7786 74.5606 22.6361L74.5663 22.633C75.741 21.996 76.6935 21.1161 77.4105 20.0066V22.7026C77.334 26.3316 74.3628 29.25 70.7092 29.25H70.3416C66.688 29.25 63.7171 26.3316 63.6406 22.7026H67.2761C67.3512 24.3279 68.695 25.6226 70.3416 25.6226H70.7092C72.2481 25.6226 73.5225 24.4917 73.7439 23.0171Z"
                  fill="#2E2E2E" />
              </g>
              <defs>
                <clipPath id="clip0_24303_2224">
                  <rect width="166.5" height="30" fill="white" />
                </clipPath>
              </defs>
            </svg>