<svg width="166" height="30" viewBox="0 0 166 30" fill="none" xmlns="http://www.w3.org/2000/svg">
<g clip-path="url(#clip0_62_7696)">
<path fill-rule="evenodd" clip-rule="evenodd" d="M28.7615 0.702999C29.7293 -0.226945 31.2549 -0.231174 32.2277 0.67187L32.3199 0.761595L32.6344 1.09302C35.821 4.53667 37.0084 8.54978 36.7039 12.4691C36.3949 16.4436 34.5693 20.1917 32.0225 23.1535C29.4773 26.1134 26.0792 28.4444 22.4061 29.4562C18.6868 30.4804 14.6189 30.1539 11.0879 27.6495C8.09295 25.5252 6.95271 22.0921 6.87525 18.757C5.19464 17.9289 3.42631 16.8996 1.57093 15.6479L1.08068 15.3134L0.976238 15.2377C-0.0771209 14.4292 -0.31797 12.9328 0.449738 11.8343C1.21768 10.7357 2.71298 10.4377 3.84342 11.136L3.95216 11.2068L4.3988 11.512C5.51026 12.2618 6.57082 12.9119 7.57927 13.4731C8.22983 11.1794 9.3078 8.9772 10.7278 7.1619C12.8554 4.44242 16.0452 2.2676 19.953 2.59208C23.4729 2.88456 26.0737 4.70882 27.4161 7.28336C28.7159 9.77633 28.7352 12.7752 27.5992 15.3542C26.441 17.9834 24.0897 20.1739 20.7073 21.0764C18.2732 21.7259 15.4216 21.6813 12.2041 20.8115V20.8127C10.9234 20.4664 9.5811 19.988 8.1783 19.3668C7.8636 19.2274 7.5897 19.4404 8.1783 19.8099C9.83482 20.9911 12.1684 21.9813 12.8437 22.3136C13.1628 22.8323 13.5586 23.2578 14.0122 23.5795C16.0996 25.0601 18.5417 25.3314 21.0619 24.6373C23.6283 23.9304 26.2006 22.226 28.1957 19.9058C30.1893 17.5873 31.4746 14.8094 31.6865 12.0839C31.8863 9.51225 31.1477 6.87034 28.9225 4.46957L28.7026 4.23824L28.6147 4.14302C27.7391 3.14709 27.7943 1.63288 28.7615 0.702999ZM19.534 7.57515C17.9194 7.44106 16.2155 8.29492 14.7015 10.2302C13.5484 11.7041 12.676 13.6193 12.2312 15.5899C15.3998 16.6781 17.7611 16.6855 19.4019 16.2478C21.3013 15.741 22.4403 14.5935 22.9885 13.3492C23.5587 12.0545 23.5003 10.6437 22.9473 9.5832C22.4369 8.60437 21.4094 7.731 19.534 7.57515Z" fill="#0ED70E"/>
<path d="M103.282 10.202C101.88 10.202 100.98 9.14453 101.175 7.72598C101.37 6.30745 102.561 5.25 103.963 5.25C105.365 5.25 106.265 6.30745 106.07 7.72598C105.875 9.14453 104.684 10.202 103.282 10.202Z" fill="#B1B1B1"/>
<path d="M99.457 24.1035L101.21 11.3625H105.034L103.281 24.1035H99.457Z" fill="#B1B1B1"/>
<path fill-rule="evenodd" clip-rule="evenodd" d="M106.178 17.8623L104.57 29.5458H108.395L109.335 22.7111C109.97 23.8459 111.163 24.4392 112.667 24.4392C115.523 24.4392 119.077 22.3242 119.687 17.8881C120.251 13.7872 117.827 11.0276 113.824 11.0276C109.974 11.0276 106.767 13.5809 106.178 17.8623ZM115.833 17.7333C115.581 19.5645 114.234 20.8283 112.501 20.8283C110.767 20.8283 109.768 19.5645 110.02 17.7333C110.272 15.9021 111.619 14.6384 113.352 14.6384C115.086 14.6384 116.085 15.9021 115.833 17.7333Z" fill="#B1B1B1"/>
<path d="M124.78 24.4392C121.542 24.4392 119.692 22.6853 119.978 20.2351H123.751C123.685 20.9057 124.123 21.241 125.168 21.241C126.341 21.241 126.781 20.8283 126.855 20.2867C126.964 19.4921 126.181 19.3719 125.142 19.2126L125.138 19.2119C125.065 19.2007 124.992 19.1894 124.917 19.1777C123.219 18.9198 120.424 18.4813 120.846 15.4121C121.201 12.833 123.463 11.0276 126.599 11.0276C129.735 11.0276 131.421 12.8588 131.182 15.1542H127.459C127.438 14.561 126.975 14.2257 126.21 14.2257C125.267 14.2257 124.817 14.7157 124.746 15.2316C124.645 15.9702 125.464 16.0977 126.536 16.2648L126.691 16.289C128.466 16.5469 131.177 17.037 130.762 20.0546C130.4 22.6853 128.017 24.4392 124.78 24.4392Z" fill="#B1B1B1"/>
<path d="M146.385 16.9338L145.398 24.1038H149.223L150.209 16.9338C150.444 15.2316 151.341 14.6384 152.488 14.6384C153.61 14.6384 154.344 15.2316 154.11 16.9338L153.123 24.1038H156.948L157.934 16.9338C158.169 15.2316 159.066 14.6384 160.188 14.6384C161.335 14.6384 162.069 15.2316 161.835 16.9338L160.848 24.1038H164.673L165.66 16.9338C166.224 12.833 164.127 11.0276 161.067 11.0276C159.257 11.0276 157.682 11.724 156.555 13.0651C155.796 11.724 154.387 11.0276 152.602 11.0276C149.543 11.0276 146.949 12.833 146.385 16.9338Z" fill="#B1B1B1"/>
<path d="M132.178 17.9652C131.585 22.2723 133.786 24.4388 137.508 24.4388C141.23 24.4388 144.03 22.2465 144.62 17.9652L145.528 11.3625H141.704L140.795 17.9652C140.519 19.9769 139.433 20.828 138.005 20.828C136.577 20.828 135.725 19.9769 136.002 17.9652L136.91 11.3625H133.086L132.178 17.9652Z" fill="#B1B1B1"/>
<path fill-rule="evenodd" clip-rule="evenodd" d="M85.2527 17.7333C84.721 21.6021 87.1352 24.4392 91.1125 24.4392C95.0897 24.4392 98.284 21.6021 98.8165 17.7333C99.349 13.8646 96.9347 11.0276 92.9575 11.0276C88.9802 11.0276 85.7852 13.8646 85.2527 17.7333ZM94.9412 17.7333C94.6892 19.5645 93.3422 20.8283 91.609 20.8283C89.875 20.8283 88.876 19.5645 89.128 17.7333C89.38 15.9021 90.727 14.6384 92.4602 14.6384C94.1942 14.6384 95.1932 15.9021 94.9412 17.7333Z" fill="#B1B1B1"/>
<path fill-rule="evenodd" clip-rule="evenodd" d="M73.075 23.2412C71.5302 22.0576 70.7641 20.0863 71.0878 17.7333C71.62 13.8646 74.8147 11.0276 78.7917 11.0276C82.7689 11.0276 85.1832 13.8646 84.6514 17.7333C84.1369 21.4703 81.1384 24.2446 77.3509 24.4293C78.2427 24.9423 79.5387 25.3572 80.4912 25.662C80.8092 25.7639 81.0889 25.8535 81.3027 25.9304C82.1674 26.1491 82.7194 26.9643 82.5859 27.9364C82.4292 29.0762 81.3889 30.0001 80.2617 30.0001H74.1419C71.8885 30.0001 70.3161 28.1522 70.6297 25.8726H77.1559C75.6649 25.2892 74.089 24.1223 73.075 23.2412ZM77.4439 20.8283C79.1772 20.8283 80.5242 19.5645 80.7762 17.7333C81.0282 15.9021 80.0292 14.6384 78.2952 14.6384C76.5619 14.6384 75.2149 15.9021 74.963 17.7333C74.7111 19.5645 75.7099 20.8283 77.4439 20.8283Z" fill="#B1B1B1"/>
<path fill-rule="evenodd" clip-rule="evenodd" d="M56.9247 17.7333C56.3925 21.6021 58.8066 24.4392 62.7839 24.4392C66.7612 24.4392 69.956 21.6021 70.4882 17.7333C71.0205 13.8646 68.6063 11.0276 64.629 11.0276C60.6518 11.0276 57.4569 13.8646 56.9247 17.7333ZM66.6129 17.7333C66.361 19.5645 65.0144 20.8283 63.2807 20.8283C61.547 20.8283 60.5481 19.5645 60.8 17.7333C61.0519 15.9021 62.3986 14.6384 64.1322 14.6384C65.8659 14.6384 66.8649 15.9021 66.6129 17.7333Z" fill="#B1B1B1"/>
<path d="M43.5 24.1037L45.8206 7.23608H49.9507L48.1624 20.235H56.0405L55.5083 24.1037H43.5Z" fill="#B1B1B1"/>
</g>
<defs>
<clipPath id="clip0_62_7696">
<rect width="165.75" height="30" fill="white"/>
</clipPath>
</defs>
</svg>
