 <svg width="83" height="105" viewBox="0 0 83 105" fill="none" xmlns="http://www.w3.org/2000/svg">
            <path
              d="M13.7564 103.131C14.0019 103.626 13.7999 104.226 13.3052 104.471C12.8105 104.717 12.2105 104.515 11.9649 104.02L12.8607 103.575L13.7564 103.131ZM9.37872 45.311L8.96047 44.4027L9.37872 45.311ZM50.2333 59.2388L49.2436 59.0961L50.2333 59.2388ZM27.4847 78.0412L27.3256 79.0284L27.4847 78.0412ZM23.3064 40.4364L22.4478 39.9237V39.9237L23.3064 40.4364ZM70.8928 33.0083L71.8908 33.0717L70.8928 33.0083ZM57.8936 53.2034L57.5551 52.2624L57.8936 53.2034ZM45.1265 15.8307L45.9774 16.3561V16.3561L45.1265 15.8307ZM82.3857 7.7559C82.7057 8.20602 82.6002 8.83034 82.1501 9.15035L74.8149 14.3652C74.3648 14.6852 73.7404 14.5797 73.4204 14.1296C73.1004 13.6794 73.2059 13.0551 73.656 12.7351L80.1762 8.09972L75.5408 1.57951C75.2208 1.12938 75.3263 0.505067 75.7764 0.185061C76.2266 -0.134947 76.8509 -0.0294642 77.1709 0.420662L82.3857 7.7559ZM12.8607 103.575C11.9649 104.02 11.9647 104.02 11.9645 104.019C11.9642 104.019 11.9639 104.018 11.9634 104.017C11.9626 104.015 11.9614 104.013 11.9598 104.01C11.9566 104.003 11.952 103.994 11.946 103.982C11.934 103.957 11.9163 103.921 11.8932 103.874C11.847 103.779 11.7793 103.64 11.6922 103.458C11.518 103.094 11.266 102.561 10.9532 101.88C10.3276 100.519 9.45823 98.5661 8.48042 96.1932C6.52634 91.4513 4.13206 85.0159 2.38724 78.2687C0.646741 71.5381 -0.469657 64.4154 0.193827 58.3285C0.859451 52.2219 3.34725 46.9873 8.96047 44.4027L9.37872 45.311L9.79696 46.2194C5.05779 48.4015 2.80464 52.8334 2.18205 58.5452C1.55732 64.2766 2.60546 71.1241 4.32354 77.7679C6.03731 84.3951 8.39566 90.7383 10.3296 95.4312C11.2957 97.7759 12.1542 99.7044 12.7705 101.045C13.0785 101.716 13.326 102.239 13.4959 102.594C13.5809 102.771 13.6465 102.906 13.6906 102.997C13.7127 103.042 13.7294 103.076 13.7404 103.098C13.7459 103.11 13.7501 103.118 13.7527 103.123C13.7541 103.126 13.755 103.128 13.7557 103.129C13.756 103.13 13.7561 103.13 13.7563 103.131C13.7564 103.131 13.7564 103.131 12.8607 103.575ZM9.37872 45.311L8.96047 44.4027C16.8487 40.7705 27.9044 40.0771 36.7054 42.408C41.1127 43.5752 45.0492 45.5254 47.7403 48.3417C50.4629 51.191 51.8703 54.8911 51.2231 59.3814L50.2333 59.2388L49.2436 59.0961C49.7987 55.2444 48.6142 52.1513 46.2943 49.7234C43.943 47.2627 40.3864 45.4518 36.1934 44.3413C27.7938 42.1168 17.2199 42.8015 9.79696 46.2194L9.37872 45.311ZM50.2333 59.2388L51.2231 59.3814C49.5213 71.1896 39.397 80.9748 27.3256 79.0284L27.4847 78.0412L27.6439 77.0539C38.3299 78.7769 47.6572 70.1035 49.2436 59.0961L50.2333 59.2388ZM27.4847 78.0412L27.3256 79.0284C23.3913 78.3941 20.5849 76.3746 18.7666 73.4905C16.97 70.6409 16.1713 67.0053 16.0849 63.1366C15.9123 55.4066 18.5751 46.4099 22.4478 39.9237L23.3064 40.4364L24.165 40.949C20.4629 47.1495 17.9211 55.7792 18.0844 63.0919C18.166 66.7445 18.9205 69.9844 20.4585 72.4239C21.9748 74.829 24.2844 76.5123 27.6439 77.0539L27.4847 78.0412ZM23.3064 40.4364L22.4478 39.9237C24.9767 35.6883 29.3858 31.9266 34.4735 28.9594C39.5733 25.985 45.4354 23.7615 50.9652 22.6471C56.4669 21.5382 61.7724 21.5011 65.6845 23.0492C67.6588 23.8304 69.3116 25.0298 70.4228 26.7283C71.5364 28.4305 72.051 30.5501 71.8908 33.0717L70.8928 33.0083L69.8948 32.9448C70.0328 30.7737 69.5852 29.1012 68.7492 27.8233C67.9107 26.5416 66.6264 25.5728 64.9486 24.9088C61.5568 23.5666 56.699 23.5317 51.3603 24.6076C46.0496 25.6779 40.3941 27.8216 35.4811 30.687C30.5561 33.5594 26.4573 37.1099 24.165 40.949L23.3064 40.4364ZM70.8928 33.0083L71.8908 33.0717C71.2824 42.6448 67.5809 50.7818 58.232 54.1443L57.8936 53.2034L57.5551 52.2624C65.8577 49.2761 69.3135 42.0925 69.8948 32.9448L70.8928 33.0083ZM57.8936 53.2034L58.232 54.1443C54.2299 55.5838 50.7317 54.6144 47.9718 52.1585C45.2664 49.751 43.2909 45.9466 42.0675 41.6706C39.6285 33.1463 40.0284 22.1831 44.2757 15.3053L45.1265 15.8307L45.9774 16.3561C42.1211 22.6009 41.648 32.934 43.9903 41.1204C45.1575 45.1997 46.9861 48.6042 49.3013 50.6644C51.562 52.676 54.3008 53.4329 57.5551 52.2624L57.8936 53.2034ZM45.1265 15.8307L44.2757 15.3053C46.3518 11.9432 49.8245 9.82037 53.7201 8.49705C57.6202 7.17216 62.0425 6.61397 66.1713 6.4477C70.3074 6.28114 74.1939 6.50642 77.0428 6.77226C78.4686 6.9053 79.6378 7.04883 80.4524 7.1594C80.8597 7.21469 81.1786 7.26177 81.3968 7.29522C81.5059 7.31195 81.5898 7.32526 81.6471 7.3345C81.6757 7.33912 81.6977 7.34272 81.7128 7.34521C81.7203 7.34646 81.7262 7.34743 81.7302 7.34811C81.7323 7.34846 81.7339 7.34873 81.7351 7.34892C81.7357 7.34902 81.7362 7.34912 81.7365 7.34916C81.737 7.34924 81.7373 7.3493 81.5707 8.33532C81.4041 9.32135 81.4042 9.32136 81.4042 9.32137C81.4041 9.32134 81.404 9.32132 81.4037 9.32127C81.4031 9.32118 81.4021 9.32101 81.4006 9.32077C81.3977 9.32028 81.3931 9.31951 81.3868 9.31847C81.3741 9.31638 81.3546 9.31318 81.3285 9.30897C81.2763 9.30054 81.1975 9.28803 81.0938 9.27213C80.8862 9.24031 80.5787 9.19488 80.1834 9.14123C79.3926 9.03389 78.2514 8.89372 76.857 8.7636C74.0654 8.50311 70.2724 8.28417 66.2518 8.44608C62.2238 8.60829 58.0122 9.15125 54.3633 10.3908C50.7099 11.6319 47.7184 13.5367 45.9774 16.3561L45.1265 15.8307Z"
              fill="#F15C2A" />
          </svg>