<svg preserveAspectRatio="none" width="100%" height="100%" overflow="visible" style="display: block;" viewBox="0 0 240.815 348" fill="none" xmlns="http://www.w3.org/2000/svg">
<g id="Vector">
<path d="M3.60361 347.51C2.52134 347.51 1.53148 346.95 0.955578 346.011C0.375757 345.067 0.331988 343.956 0.83574 342.964L15.0087 315.04L84.9428 305.754L70.3745 332.021C67.9641 336.366 63.5864 339.36 58.6631 340.032L4.04793 347.48C3.89971 347.5 3.74987 347.51 3.60361 347.51Z" fill="var(--fill-0, white)"/>
<path d="M84.0423 306.368L69.9457 331.783C67.6104 335.994 63.3675 338.896 58.5967 339.547L3.98123 346.994C3.85488 347.011 3.72757 347.02 3.60318 347.02C2.69264 347.02 1.85881 346.548 1.37269 345.755C0.883953 344.959 0.847074 344.023 1.27182 343.186L15.3282 315.492L84.0423 306.368ZM85.8431 305.141C62.125 308.29 38.4068 311.439 14.6887 314.588C9.92537 323.973 5.16208 333.358 0.398799 342.742C-0.842789 345.189 0.978307 348 3.6035 348C3.77066 348 3.94107 347.989 4.11378 347.965L58.7293 340.518C63.8305 339.822 68.3052 336.761 70.8024 332.259C75.8157 323.219 80.8294 314.18 85.8431 305.141Z" fill="#2E2E2E"/>
<path d="M165.51 96.084C164.995 97.5195 164.537 99.1026 164.192 100.827C162.667 108.456 164.118 115.075 165.51 119.271C168.935 119.007 172.36 118.744 175.785 118.48C174.819 110.312 173.853 102.144 172.887 93.9763C170.428 94.6785 167.969 95.3811 165.51 96.084Z" fill="#2E2E2E"/>
<path d="M178.384 83.3455C177.264 78.6312 173.29 75.1242 168.528 74.6243C163.588 74.1055 158.824 76.9306 156.87 81.5675C153.88 80.6906 151.995 77.7578 152.421 74.796C152.646 73.2316 153.489 71.8483 154.703 70.8956C156.611 69.3978 158.386 67.7455 159.951 65.8917C160.244 65.545 160.574 65.2042 160.945 64.8784C163.295 62.816 166.573 62.0031 169.963 62.4575C172.157 62.7517 174.364 62.944 176.577 62.8983C178.941 62.8496 182.198 63.3563 184.933 65.8682C187.188 67.9397 188.093 70.4614 188.456 72.2887C188.778 73.9035 189.288 75.4768 190.042 76.94C191.275 79.3308 192.608 82.8401 192.799 87.2008C192.806 87.3595 192.812 87.5165 192.815 87.6726C192.937 92.6579 194.218 97.5253 196.532 101.943C197.982 104.709 198.547 107.775 198.022 110.744C197.355 114.518 195.122 117.034 193.97 118.155C191.824 119.306 184.106 123.326 178.753 120.34C171.751 116.435 169.769 101.095 178.384 83.3455Z" fill="#2E2E2E"/>
<path d="M221.448 338.411C221.264 338.411 221.087 338.307 221.004 338.128L183.251 256.865C183.137 256.62 183.244 256.328 183.489 256.215C183.734 256.101 184.026 256.207 184.14 256.453L221.892 337.716C222.006 337.961 221.899 338.252 221.654 338.366C221.587 338.397 221.517 338.411 221.448 338.411Z" fill="#2E2E2E"/>
<path d="M88.6743 338.411C88.6051 338.411 88.5349 338.397 88.4683 338.366C88.2232 338.252 88.1167 337.96 88.2303 337.715L125.983 256.452C126.097 256.207 126.389 256.101 126.633 256.214C126.878 256.328 126.985 256.619 126.871 256.864L89.1187 338.128C89.0357 338.306 88.8588 338.411 88.6743 338.411Z" fill="#2E2E2E"/>
<path d="M224.557 347.682C226.621 347.194 227.899 345.126 227.412 343.063C226.924 340.999 224.856 339.721 222.793 340.209C220.729 340.696 219.451 342.764 219.939 344.827C220.426 346.891 222.494 348.169 224.557 347.682Z" fill="#2E2E2E"/>
<path d="M86.915 348C89.0355 348 90.7544 346.281 90.7544 344.161C90.7544 342.04 89.0355 340.321 86.915 340.321C84.7946 340.321 83.0757 342.04 83.0757 344.161C83.0757 346.281 84.7946 348 86.915 348Z" fill="#2E2E2E"/>
<path d="M118.542 258.258H191.9C196.027 258.258 199.372 254.913 199.372 250.787V250.053C199.372 245.926 196.027 242.581 191.9 242.581H118.542C114.415 242.581 111.07 245.926 111.07 250.053V250.787C111.07 254.913 114.415 258.258 118.542 258.258Z" fill="#2E2E2E"/>
<path d="M99.6424 301.804L106.145 314.307C107.442 316.804 110.911 317.041 112.536 314.742L141.694 273.446C144.934 268.86 144.963 262.73 141.77 258.113L136.316 250.221L136.128 250.352C124.034 267.466 111.943 284.581 99.8491 301.695L99.6424 301.804Z" fill="var(--fill-0, white)"/>
<path d="M109.479 316.822C109.381 316.822 109.282 316.818 109.183 316.812C107.696 316.71 106.398 315.858 105.71 314.533L99.2075 302.03C99.1232 301.868 99.136 301.672 99.2414 301.522L134.899 250.744C134.926 250.705 134.959 250.67 134.996 250.641L136.012 249.837C136.118 249.753 136.254 249.718 136.388 249.737C136.522 249.757 136.642 249.831 136.719 249.943L142.173 257.835C145.472 262.606 145.44 268.994 142.094 273.729L112.936 315.025C112.131 316.164 110.855 316.822 109.479 316.822ZM100.214 301.841L106.579 314.081C107.109 315.101 108.107 315.756 109.25 315.834C110.392 315.911 111.473 315.398 112.136 314.459L141.294 273.164C144.404 268.763 144.434 262.826 141.368 258.391L136.21 250.929L135.659 251.365L100.214 301.841Z" fill="#2E2E2E"/>
<path d="M54.2589 215.783L99.9639 303.327L100.173 303.218C112.382 286.004 124.589 268.79 136.798 251.575C127.751 238.401 118.705 225.226 109.658 212.052H190.55L136.534 172.001H80.7907C58.3147 172.002 43.8571 195.858 54.2589 215.783Z" fill="#F15C2A"/>
<path d="M7.962 327.843L77.6613 319.876L77.6679 319.879C91.8843 294.244 106.104 268.61 120.321 242.978C143.685 242.891 167.048 242.805 190.409 242.721C191.31 242.718 191.937 241.823 191.631 240.978C185.823 224.738 180.014 208.495 174.205 192.256L110.025 192.169C89.675 192.143 71.0424 203.564 61.8308 221.708C43.8763 257.085 25.9159 292.465 7.962 327.843Z" fill="#F15C2A"/>
<path d="M189.508 243.213C189.239 243.213 189.02 242.994 189.019 242.724C189.018 242.454 189.236 242.234 189.507 242.233L190.408 242.23C190.409 242.23 190.409 242.23 190.41 242.23C190.679 242.23 190.899 242.448 190.9 242.718C190.901 242.988 190.682 243.208 190.411 243.209L189.51 243.213C189.509 243.213 189.509 243.213 189.508 243.213Z" fill="#2E2E2E"/>
<path d="M98.7932 243.466C98.5236 243.466 98.3042 243.248 98.3035 242.978C98.3029 242.708 98.5213 242.488 98.7919 242.487L189.507 242.234H189.508C189.778 242.234 189.998 242.452 189.998 242.722C189.999 242.992 189.78 243.212 189.51 243.213L98.7946 243.466H98.7932Z" fill="#2E2E2E"/>
<path d="M229.273 190.675C229.607 195.067 230.032 208.178 221.632 221.239C211.252 237.378 194.943 241.713 191.331 242.582C188.82 234.078 184.678 223.43 177.63 212.281C163.906 190.573 146.293 178.24 135.736 172.053C156.786 171.778 177.836 171.503 198.886 171.228C209.015 177.71 219.144 184.192 229.273 190.675Z" fill="var(--fill-0, white)"/>
<path d="M191.331 243.071C191.119 243.071 190.924 242.932 190.861 242.72C187.702 232.021 183.111 221.868 177.216 212.542C166.959 196.318 152.53 182.463 135.488 172.475C135.298 172.364 135.206 172.14 135.262 171.927C135.319 171.715 135.51 171.566 135.73 171.563L198.88 170.738C198.975 170.732 199.07 170.763 199.151 170.815L229.537 190.262C229.666 190.345 229.75 190.484 229.762 190.637C230.241 196.937 229.876 209.325 222.044 221.504C212.295 236.663 197.398 241.627 191.446 243.057C191.407 243.067 191.369 243.071 191.331 243.071ZM137.478 172.52C154.004 182.512 168.005 196.139 178.044 212.019C183.905 221.29 188.488 231.373 191.667 241.994C197.776 240.454 211.9 235.466 221.22 220.974C228.798 209.19 229.244 197.204 228.802 190.955L198.746 171.719L137.478 172.52Z" fill="#2E2E2E"/>
<path d="M154.311 111.498C146.695 110.715 131.902 166.18 131.901 166.182C134.988 167.727 138.974 169.365 143.772 170.518C150.996 172.255 157.277 172.223 161.689 171.836C161.419 144.333 160.029 112.085 154.311 111.498Z" fill="var(--fill-0, white)"/>
<path d="M156.746 172.543C152.329 172.543 147.945 172.025 143.657 170.995C139.527 170.002 135.498 168.53 131.682 166.62C131.474 166.516 131.368 166.28 131.428 166.056C131.581 165.483 135.222 151.889 139.818 138.294C142.519 130.305 144.994 123.969 147.172 119.464C150.061 113.49 152.345 110.806 154.361 111.011C157.464 111.33 161.65 117.982 162.178 171.832C162.181 172.087 161.986 172.302 161.732 172.324C160.068 172.47 158.404 172.543 156.746 172.543ZM132.478 165.921C136.121 167.712 139.957 169.097 143.886 170.042C149.535 171.4 155.355 171.851 161.195 171.386C160.67 120.279 156.629 112.228 154.261 111.985C152.623 111.813 148.709 115.056 140.747 138.607C136.531 151.076 133.12 163.545 132.478 165.921Z" fill="#2E2E2E"/>
<path d="M201.573 110.907C201.36 109.856 200.458 109.088 199.387 109.043C191.983 108.733 183.954 108.707 175.39 109.126C167.989 109.488 161.034 110.14 154.575 110.971C153.697 119.351 153.076 128.376 152.863 137.978C152.57 151.099 153.084 163.234 154.048 174.207C161.756 177.067 171.917 180.039 184.086 181.584C196.689 183.185 207.612 182.768 215.967 181.848C211.169 158.201 206.371 134.554 201.573 110.907Z" fill="var(--fill-0, white)"/>
<path d="M201.137 183.152C195.417 183.152 189.697 182.791 184.023 182.071C173.741 180.764 163.598 178.273 153.878 174.666C153.7 174.601 153.577 174.438 153.56 174.25C152.504 162.23 152.104 150.022 152.372 137.967C152.573 128.969 153.15 119.869 154.088 110.92C154.112 110.694 154.287 110.514 154.512 110.485C161.409 109.598 168.425 108.977 175.366 108.637C183.34 108.247 191.429 108.219 199.408 108.554C200.707 108.609 201.795 109.536 202.053 110.81L216.447 181.751C216.474 181.885 216.444 182.026 216.363 182.137C216.281 182.248 216.157 182.32 216.021 182.335C211.079 182.88 206.108 183.152 201.137 183.152ZM154.509 173.856C164.071 177.379 174.041 179.815 184.147 181.099C194.497 182.413 205.002 182.521 215.38 181.419L201.093 111.004C200.924 110.174 200.215 109.569 199.367 109.533C191.417 109.2 183.359 109.228 175.414 109.616C168.627 109.948 161.769 110.55 155.022 111.408C154.111 120.206 153.549 129.148 153.352 137.989C153.086 149.905 153.476 161.971 154.509 173.856Z" fill="#2E2E2E"/>
<path d="M180.397 90.4189C181.218 92.8514 182.175 95.408 183.295 98.06C184.982 102.057 186.78 105.659 188.565 108.863C181.101 117.466 174.218 122.02 171.175 120.192C170.672 119.89 168.274 118.214 169.857 109.39C169.155 105.262 168.452 101.134 167.749 97.0058C171.965 94.8103 176.181 92.6144 180.397 90.4189Z" fill="var(--fill-0, white)"/>
<path d="M172.747 121.078C172.055 121.078 171.443 120.925 170.922 120.612C169.721 119.891 167.925 117.473 169.36 109.388L167.267 97.0881C167.231 96.8785 167.334 96.6699 167.523 96.5713L180.17 89.984C180.297 89.9177 180.446 89.9105 180.579 89.9641C180.712 90.0176 180.815 90.1263 180.86 90.2618C181.724 92.822 182.695 95.3816 183.746 97.869C185.291 101.53 187.057 105.148 188.992 108.624C189.092 108.804 189.069 109.028 188.934 109.183C182.35 116.774 176.419 121.078 172.747 121.078ZM168.292 97.2755L170.34 109.307C170.349 109.363 170.349 109.42 170.339 109.476C168.89 117.555 170.805 119.4 171.426 119.773C174.161 121.416 180.79 117.011 187.97 108.8C186.082 105.386 184.358 101.838 182.844 98.2507C181.858 95.916 180.942 93.519 180.117 91.1168L168.292 97.2755Z" fill="#2E2E2E"/>
<path d="M163.797 72.2387C166.921 70.5975 170.816 70.6154 173.88 72.0013C177.757 73.7558 180.32 77.7114 181.249 82.0904C182.233 81.745 183.288 81.7221 184.272 82.11C186.708 83.0715 187.774 86.1553 186.653 88.998C185.532 91.8377 182.652 93.362 180.217 92.4064C176.83 99.6816 167.874 103.755 162.216 101.749C161.384 101.454 160.854 101.109 160.635 100.958C153.705 96.1919 154.404 77.1724 163.797 72.2387Z" fill="var(--fill-0, white)"/>
<path d="M165.345 102.736C164.164 102.736 163.05 102.564 162.053 102.21C161.422 101.987 160.851 101.701 160.358 101.362C157.07 99.1002 155.189 93.539 155.567 87.1933C155.899 81.6119 158.176 74.6383 163.569 71.8052C166.727 70.1464 170.756 70.0507 174.082 71.5554C177.711 73.1973 180.498 76.8822 181.611 81.4734C182.582 81.24 183.554 81.3007 184.452 81.6546C187.136 82.7137 188.327 86.0888 187.109 89.1779C185.956 92.0976 183.053 93.7346 180.471 93.0078C177.382 99.2001 170.695 102.736 165.345 102.736ZM164.024 72.672C158.992 75.3154 156.861 81.9367 156.545 87.2511C156.187 93.2615 157.901 98.4835 160.912 100.555C161.336 100.846 161.83 101.092 162.38 101.287C163.255 101.597 164.241 101.748 165.29 101.748C170.379 101.748 176.973 98.2122 179.773 92.1991C179.882 91.9647 180.155 91.8557 180.396 91.95C182.576 92.8057 185.177 91.4003 186.197 88.8178C187.218 86.2312 186.273 83.4261 184.092 82.5655C183.254 82.2344 182.327 82.2302 181.411 82.5524C181.277 82.5991 181.131 82.5861 181.009 82.5172C180.886 82.4483 180.799 82.3294 180.77 82.1917C179.81 77.6651 177.159 74.0223 173.678 72.4473C170.62 71.0641 166.922 71.1506 164.024 72.672Z" fill="#2E2E2E"/>
<path d="M80.8478 175.309H174.682C176.539 175.309 178.045 173.804 178.045 171.946V171.616C178.045 169.758 176.539 168.252 174.682 168.252H80.8478C78.9902 168.252 77.4845 169.758 77.4845 171.616V171.946C77.4845 173.803 78.9905 175.309 80.8478 175.309Z" fill="#2E2E2E"/>
<path d="M64.8678 124.187L76.3261 172.886C76.6601 174.306 77.9272 175.309 79.3855 175.309H138.204C140.231 175.309 141.727 173.419 141.264 171.446L129.805 122.748C129.471 121.328 128.204 120.325 126.746 120.325H67.9275C65.9008 120.325 64.4035 122.215 64.8678 124.187Z" fill="#2E2E2E"/>
<path d="M98.6551 140.172C99.873 140.172 100.86 139.185 100.86 137.967C100.86 136.749 99.873 135.761 98.6551 135.761C97.4371 135.761 96.4497 136.749 96.4497 137.967C96.4497 139.185 97.4371 140.172 98.6551 140.172Z" fill="#F15C2A"/>
<path d="M149.964 168.215H105.631C105.361 168.215 105.142 167.996 105.142 167.725C105.142 167.455 105.361 167.236 105.631 167.236H149.964C150.234 167.236 150.454 167.455 150.454 167.725C150.454 167.996 150.234 168.215 149.964 168.215Z" fill="var(--fill-0, white)"/>
<path d="M203.583 142.062C202.788 138.226 202.098 134.044 201.607 129.546C200.795 122.115 200.691 115.331 200.948 109.39C205.365 112.351 211.616 117.106 217.811 124.145C232.515 140.853 248.033 171.711 235.991 190.806C234.691 192.868 232.063 197.036 227.033 199.238C213.984 204.951 193.373 193.669 174.875 170.356C174.033 169.295 172.752 168.674 171.397 168.674H155.892C156.718 166.517 158.565 162.551 162.48 158.925C162.522 158.886 162.565 158.846 162.608 158.807C167.466 154.366 174.538 153.325 180.509 156.095C190.308 160.639 200.108 165.184 209.907 169.728C207.799 160.506 205.691 151.284 203.583 142.062Z" fill="var(--fill-0, white)"/>
<path d="M211.883 176.146C211.677 176.146 211.485 176.016 211.418 175.809C209.781 170.841 208.289 165.758 206.982 160.701C202.715 144.193 200.184 127.083 199.459 109.846C199.448 109.576 199.658 109.348 199.928 109.336C200.2 109.326 200.427 109.535 200.438 109.805C201.16 126.973 203.681 144.014 207.93 160.456C209.232 165.492 210.719 170.555 212.348 175.504C212.433 175.76 212.293 176.037 212.036 176.122C211.985 176.138 211.933 176.146 211.883 176.146Z" fill="#2E2E2E"/>
<path d="M219.604 201.207C206.676 201.208 189.884 190.06 174.492 170.661C173.737 169.709 172.609 169.164 171.397 169.164H155.892C155.731 169.164 155.58 169.084 155.489 168.952C155.398 168.819 155.378 168.649 155.435 168.499C156.876 164.733 159.197 161.298 162.147 158.566L162.278 158.445C167.28 153.873 174.518 152.776 180.715 155.65L210.113 169.284C210.358 169.398 210.465 169.689 210.351 169.934C210.238 170.18 209.946 170.287 209.701 170.172L180.303 156.538C174.464 153.831 167.649 154.864 162.938 159.169L162.812 159.284C160.147 161.753 158.015 164.819 156.616 168.184H171.398C172.91 168.184 174.317 168.865 175.259 170.052C184.274 181.413 193.947 190.127 203.234 195.253C212.402 200.313 220.564 201.536 226.837 198.789C231.73 196.647 234.328 192.526 235.577 190.545C242.304 179.879 239.825 166.296 236.562 156.78C232.771 145.729 225.625 133.65 217.446 124.471C212.386 118.792 206.518 113.787 200.005 109.594C199.778 109.448 199.712 109.145 199.858 108.917C200.005 108.689 200.309 108.625 200.535 108.77C207.123 113.012 213.058 118.075 218.177 123.819C226.438 133.091 233.657 145.294 237.488 156.462C240.821 166.18 243.339 180.073 236.406 191.068C235.105 193.131 232.398 197.424 227.23 199.686C224.894 200.709 222.334 201.207 219.604 201.207Z" fill="#2E2E2E"/>
<path d="M184.612 89.328C184.564 89.328 184.515 89.3208 184.467 89.3058C184.209 89.2255 184.064 88.9512 184.145 88.6927C184.268 88.2979 184.431 87.5036 184.146 86.6163C183.726 85.3068 182.622 84.694 182.294 84.5373C182.05 84.4207 181.946 84.1285 182.063 83.8843C182.179 83.6401 182.472 83.5373 182.715 83.6532C183.133 83.8527 184.539 84.6336 185.079 86.3172C185.445 87.4605 185.237 88.4785 185.08 88.9835C185.014 89.1931 184.821 89.328 184.612 89.328Z" fill="#2E2E2E"/>
<path d="M184.48 82.3826C183.559 82.1828 182.28 82.0718 181.055 82.6461C179.976 83.1522 179.789 83.7907 179.079 84.0953C177.173 84.9128 174.139 82.1929 172.887 80.8018C168.915 76.3889 169.229 70.1826 169.461 67.891C170.283 67.7036 175.138 66.6785 179.474 69.7353C183.353 72.4702 185.297 77.4009 184.48 82.3826Z" fill="#2E2E2E"/>
<path d="M160.375 171.717C160.349 171.717 160.321 171.715 160.294 171.71C160.027 171.665 159.847 171.413 159.892 171.146C160.23 169.122 160.962 167.225 162.068 165.51C163.016 164.039 164.208 162.756 165.61 161.695C165.826 161.532 166.133 161.575 166.296 161.79C166.459 162.006 166.416 162.313 166.201 162.477C164.891 163.468 163.777 164.667 162.892 166.04C161.858 167.643 161.174 169.415 160.858 171.308C160.818 171.548 160.61 171.717 160.375 171.717Z" fill="#2E2E2E"/>
<path d="M167.505 171.717C167.478 171.717 167.451 171.715 167.424 171.71C167.157 171.665 166.977 171.413 167.021 171.146C167.327 169.319 167.987 167.608 168.985 166.06C169.841 164.733 170.916 163.575 172.181 162.618C172.397 162.455 172.704 162.497 172.868 162.713C173.031 162.929 172.988 163.236 172.773 163.399C171.599 164.287 170.602 165.361 169.809 166.59C168.884 168.026 168.271 169.613 167.988 171.308C167.947 171.548 167.74 171.717 167.505 171.717Z" fill="#2E2E2E"/>
<path d="M100.224 303.773C100.048 303.773 99.8778 303.677 99.7903 303.511L53.8251 216.011C51.9485 212.416 50.8146 208.599 50.4549 204.666C50.4304 204.396 50.6286 204.158 50.8979 204.133C51.1676 204.11 51.4056 204.307 51.4304 204.577C51.7784 208.382 52.8763 212.076 54.6928 215.557L100.657 303.055C100.783 303.295 100.691 303.591 100.451 303.717C100.379 303.755 100.301 303.773 100.224 303.773Z" fill="#2E2E2E"/>
<path d="M116.493 32.8306C116.222 32.8306 116.003 32.6115 116.003 32.3409V29.5658H113.228C112.958 29.5658 112.738 29.3468 112.738 29.0761C112.738 28.8055 112.958 28.5864 113.228 28.5864H116.493C116.763 28.5864 116.982 28.8055 116.982 29.0761V32.3409C116.982 32.6112 116.763 32.8306 116.493 32.8306Z" fill="#2E2E2E"/>
<path d="M116.493 84.751C116.222 84.751 116.003 84.532 116.003 84.2613V77.7713C116.003 77.5006 116.222 77.2816 116.493 77.2816C116.763 77.2816 116.982 77.5006 116.982 77.7713V84.2613C116.982 84.5316 116.763 84.751 116.493 84.751ZM116.493 71.771C116.222 71.771 116.003 71.5519 116.003 71.2813V64.7913C116.003 64.5206 116.222 64.3016 116.493 64.3016C116.763 64.3016 116.982 64.5206 116.982 64.7913V71.2813C116.982 71.5516 116.763 71.771 116.493 71.771ZM116.493 58.7906C116.222 58.7906 116.003 58.5716 116.003 58.3009V51.8109C116.003 51.5403 116.222 51.3212 116.493 51.3212C116.763 51.3212 116.982 51.5403 116.982 51.8109V58.3009C116.982 58.5716 116.763 58.7906 116.493 58.7906ZM116.493 45.8106C116.222 45.8106 116.003 45.5915 116.003 45.3209V38.8309C116.003 38.5602 116.222 38.3412 116.493 38.3412C116.763 38.3412 116.982 38.5602 116.982 38.8309V45.3209C116.982 45.5915 116.763 45.8106 116.493 45.8106Z" fill="#2E2E2E"/>
<path d="M116.493 94.5059C116.222 94.5059 116.003 94.2868 116.003 94.0161V90.7514C116.003 90.4807 116.222 90.2617 116.493 90.2617C116.763 90.2617 116.982 90.4807 116.982 90.7514V94.0161C116.982 94.2865 116.763 94.5059 116.493 94.5059Z" fill="#2E2E2E"/>
<path d="M116.635 68.3843C135.519 68.3843 150.828 53.076 150.828 34.1922C150.828 15.3084 135.519 0 116.635 0C97.7517 0 82.4433 15.3084 82.4433 34.1922C82.4433 53.076 97.7517 68.3843 116.635 68.3843Z" fill="#F15C2A"/>
<path d="M113.982 44.9984C113.633 44.9984 113.294 44.8737 113.026 44.6448L100.646 34.0334C100.03 33.5054 99.959 32.5779 100.487 31.9619C101.015 31.3458 101.943 31.275 102.559 31.8026L113.815 41.4509L135.262 16.053C135.786 15.4334 136.712 15.355 137.332 15.8784C137.952 16.4017 138.031 17.3286 137.507 17.9486L115.105 44.477C114.853 44.7761 114.491 44.9622 114.101 44.9935C114.061 44.9968 114.022 44.9984 113.982 44.9984Z" fill="var(--fill-0, white)"/>
</g>
</svg>
