<svg width="16" height="16" viewBox="0 0 16 16" fill="none" xmlns="http://www.w3.org/2000/svg">
<path d="M14.6654 7.71081C14.6654 11.2329 11.6802 14.0886 7.9987 14.0886C7.56583 14.0892 7.13416 14.0491 6.70896 13.9693C6.40292 13.9118 6.24988 13.8831 6.14305 13.8994C6.03621 13.9157 5.88482 13.9962 5.58202 14.1573C4.72546 14.6128 3.72666 14.7737 2.7661 14.595C3.13119 14.1459 3.38053 13.6071 3.49055 13.0295C3.55722 12.6762 3.39203 12.333 3.14462 12.0817C2.02092 10.9407 1.33203 9.40307 1.33203 7.71081C1.33203 4.18872 4.31722 1.33301 7.9987 1.33301C11.6802 1.33301 14.6654 4.18872 14.6654 7.71081Z" stroke="white" stroke-linejoin="round"/>
<path d="M7.16243 6.66634C7.16243 6.0378 7.16243 5.72353 6.95516 5.52827C6.74796 5.33301 6.41437 5.33301 5.74724 5.33301C5.0801 5.33301 4.74654 5.33301 4.53928 5.52827C4.33203 5.72353 4.33203 6.0378 4.33203 6.66634C4.33203 7.29487 4.33203 7.60914 4.53928 7.80441C4.74654 7.99967 5.0801 7.99967 5.74724 7.99967C6.41437 7.99967 6.74796 7.99967 6.95516 7.80441C7.16243 7.60914 7.16243 7.29487 7.16243 6.66634ZM7.16243 6.66634V8.04547C7.16243 9.26781 6.27238 10.3044 5.03963 10.6663M11.6654 6.66634C11.6654 6.0378 11.6654 5.72353 11.4581 5.52827C11.2508 5.33301 10.9173 5.33301 10.2502 5.33301C9.58303 5.33301 9.24943 5.33301 9.04223 5.52827C8.83496 5.72353 8.83496 6.0378 8.83496 6.66634C8.83496 7.29487 8.83496 7.60914 9.04223 7.80441C9.24943 7.99967 9.58303 7.99967 10.2502 7.99967C10.9173 7.99967 11.2508 7.99967 11.4581 7.80441C11.6654 7.60914 11.6654 7.29487 11.6654 6.66634ZM11.6654 6.66634V8.04547C11.6654 9.26781 10.7753 10.3044 9.54256 10.6663" stroke="white" stroke-linecap="round"/>
</svg>
