<svg preserveAspectRatio="none" width="100%" height="100%" overflow="visible" style="display: block;" viewBox="0 0 55 55" fill="none" xmlns="http://www.w3.org/2000/svg">
<path id="Vector" d="M35.8112 0C41.3112 0 44.0612 0 47.0556 0.916667C50.2944 2.07778 52.8612 4.64444 54.0224 7.88332C55 10.8778 55 13.6889 55 19.1889V35.8112C55 41.3112 55 44.0612 54.0832 47.0556C52.9224 50.2944 50.3556 52.8612 47.1168 54.0224C44.0612 55 41.3112 55 35.8112 55H19.1889C13.6889 55 10.9389 55 7.94444 54.0832C4.64444 52.8612 2.13889 50.3556 0.916668 47.0556C0 44.1224 0 41.3724 0 35.8112V19.1889C0 13.6889 0 10.9389 0.916668 7.94444C2.13889 4.70556 4.64444 2.13889 7.94444 0.977779C10.8778 -6.55651e-08 13.6278 0 19.1889 0H35.8112Z" fill="url(#paint0_linear_0_39)"/>
<defs>
<linearGradient id="paint0_linear_0_39" x1="27.4878" y1="0.0244445" x2="27.4878" y2="54.9876" gradientUnits="userSpaceOnUse">
<stop stop-color="#19E6FF"/>
<stop offset="1" stop-color="#1E51EE"/>
</linearGradient>
</defs>
</svg>
