<svg preserveAspectRatio="none" width="100%" height="100%" overflow="visible" style="display: block;" viewBox="0 0 210.614 85.4823" fill="none" xmlns="http://www.w3.org/2000/svg">
<path id="Vector" d="M204.011 26.0187C181.266 -8.27639 139.03 -4.9492 120.908 14.5834C106.397 30.224 91.2621 33.3848 69.7166 19.4911C43.7243 2.72954 8.37977 23.1798 1.3824 50.352C-5.84158 78.4046 17.0143 95.5111 29.0644 79.0367C36.2977 69.1477 50.4398 22.6606 68.2099 47.3437C69.7404 49.469 70.986 51.799 72.4712 53.96C82.6328 68.7458 99.1467 72.6908 114.996 64.0709C128.168 56.9073 128.369 49.7038 134.422 43.259C163.287 12.5282 173.036 47.137 187.685 57.0917C199.241 64.9441 221.814 52.8607 204.011 26.0187Z" fill="var(--fill-0, white)"/>
</svg>
