<svg preserveAspectRatio="none" width="100%" height="100%" overflow="visible" style="display: block;" viewBox="0 0 49 55" fill="none" xmlns="http://www.w3.org/2000/svg">
<g id="Google Play" clip-path="url(#clip0_0_43)">
<path id="Vector" d="M36.273 18.582L4.7131 0.626268C3.1493 -0.266546 1.75791 -0.171385 0.896043 0.699573L27.3531 27.5349L32.371 25.1342C34.9785 23.6537 38.8777 20.0688 36.273 18.582Z" fill="var(--fill-0, #34A853)"/>
<path id="Vector_2" d="M27.2887 27.4683L33.7686 31.5665C36.3726 33.0532 38.6706 34.5046 36.0786 36.3904L4.75957 54.3654C3.0775 55.3204 1.63619 55.1678 0.792366 54.108L9.15821 43.9948L27.2887 27.4683Z" fill="var(--fill-0, #EA4335)"/>
<path id="Vector_3" d="M47.0486 24.7019L36.1686 18.5348L27.2924 27.4737L36.0783 36.3938L47.0421 30.0969C47.3682 29.9118 47.6535 29.712 47.8978 29.5009C48.1425 29.2899 48.3464 29.0679 48.5097 28.8383C48.5504 28.7811 48.5887 28.723 48.6243 28.665C49.4455 27.3252 48.9206 25.7705 47.0486 24.7019Z" fill="var(--fill-0, #FBBC04)"/>
<path id="Vector_4" d="M0.913135 0.685455C0.33926 1.26435 -0.00134001 2.18502 3.96257e-06 3.39001L0.0520348 51.5587C0.0531869 52.6295 0.324093 53.5246 0.78853 54.108L27.2903 27.466L0.913135 0.685455Z" fill="var(--fill-0, #4285F4)"/>
<path id="Vector_5" d="M48.315 25.7214C49.1837 27.0761 48.7362 28.8464 46.7142 29.9595L4.4733 54.2204C2.84787 55.143 1.444 54.7862 0.587316 53.8196C1.38909 55.0949 2.8832 55.4256 4.77456 54.3575L47.0154 30.0969C49.1345 28.9545 49.5273 27.1457 48.315 25.7214Z" fill="var(--fill-0, #CCCCCC)"/>
</g>
<defs>
<clipPath id="clip0_0_43">
<rect width="49" height="55" fill="white"/>
</clipPath>
</defs>
</svg>
