<svg preserveAspectRatio="none" width="100%" height="100%" overflow="visible" style="display: block;" viewBox="0 0 48 48" fill="none" xmlns="http://www.w3.org/2000/svg">
<g id="typcn:social-github-circular">
<path id="Vector" d="M24 42C14.074 42 6 33.924 6 24C6 14.076 14.074 6 24 6C33.926 6 42 14.076 42 24C42 33.924 33.926 42 24 42ZM24 10C16.282 10 10 16.28 10 24C10 31.72 16.282 38 24 38C31.718 38 38 31.72 38 24C38 16.28 31.718 10 24 10ZM27.13 25.252C27.47 25.252 27.764 25.422 28.012 25.762C28.2613 26.1007 28.386 26.5173 28.386 27.012C28.386 27.508 28.2613 27.9253 28.012 28.264C27.7627 28.6027 27.4687 28.772 27.13 28.772C26.766 28.772 26.4587 28.6027 26.208 28.264C25.9587 27.9253 25.834 27.508 25.834 27.012C25.834 26.268 25.958 26.1 26.208 25.762C26.4613 25.4207 26.7687 25.2507 27.13 25.252ZM31.55 20.674C32.5153 21.718 32.9987 22.9833 33 24.47C32.9987 25.4327 32.888 26.3 32.668 27.072C32.4911 27.7392 32.2074 28.3734 31.828 28.95C31.4833 29.44 31.0595 29.8692 30.574 30.22C30.1513 30.5415 29.6913 30.8108 29.204 31.022C28.788 31.1913 28.3107 31.322 27.772 31.414C27.3716 31.4913 26.9668 31.5441 26.56 31.572L25.68 31.59L24.976 31.61L24 31.632L23.024 31.61L22.32 31.59L21.44 31.572C21.0332 31.5441 20.6284 31.4913 20.228 31.414C19.7374 31.3376 19.2571 31.2061 18.796 31.022C18.3085 30.8124 17.849 30.543 17.428 30.22C16.9417 29.8693 16.5173 29.4401 16.172 28.95C15.7926 28.3734 15.5089 27.7392 15.332 27.072C15.1028 26.2239 14.9911 25.3484 15 24.47C15 22.9833 15.4833 21.718 16.45 20.674C16.3433 20.6233 16.338 20.102 16.434 19.11C16.508 18.1698 16.7231 17.2462 17.072 16.37C18.2733 16.4993 19.76 17.1773 21.532 18.404C22.132 18.248 22.954 18.1693 23.998 18.168C25.094 18.168 25.9167 18.2467 26.466 18.404C27.2008 17.896 27.9768 17.4505 28.786 17.072C29.5327 16.7347 30.0753 16.5393 30.414 16.486L30.922 16.37C31.2647 17.206 31.478 18.1193 31.562 19.11C31.6607 20.102 31.6567 20.6233 31.55 20.674ZM24.042 30.728C26.206 30.728 27.842 30.468 28.95 29.948C30.058 29.428 30.6133 28.358 30.616 26.738C30.616 25.7993 30.2633 25.0167 29.558 24.39C29.2056 24.0573 28.7608 23.8391 28.282 23.764C27.8047 23.6853 27.0687 23.6853 26.074 23.764C25.0833 23.8427 24.406 23.8813 24.042 23.88C23.546 23.88 23.008 23.854 22.34 23.802L20.774 23.704C20.3591 23.6966 19.945 23.7429 19.542 23.842C19.1354 23.9289 18.7571 24.1167 18.442 24.388C17.7687 24.988 17.4307 25.7707 17.428 26.736C17.428 28.3547 17.9753 29.4247 19.07 29.946C20.1633 30.466 21.7927 30.726 23.958 30.726M20.91 25.252C21.25 25.252 21.5433 25.422 21.79 25.762C22.0393 26.1007 22.164 26.5173 22.164 27.012C22.164 27.508 22.0393 27.9253 21.79 28.264C21.542 28.6027 21.2487 28.772 20.91 28.772C20.5447 28.772 20.2367 28.6027 19.986 28.264C19.738 27.9253 19.6133 27.508 19.612 27.012C19.61 26.268 19.736 26.1 19.986 25.762C20.2367 25.4207 20.5447 25.2507 20.91 25.252Z" fill="var(--fill-0, black)"/>
</g>
</svg>
