<svg preserveAspectRatio="none" width="100%" height="100%" overflow="visible" style="display: block;" viewBox="0 0 48 48" fill="none" xmlns="http://www.w3.org/2000/svg">
<g id="typcn:social-vimeo-circular">
<path id="Vector" d="M28.926 18.282C27.902 18.282 26.9487 18.7587 26.066 19.712C25.4433 20.3347 25.066 21.0687 24.934 21.914C25.3473 21.6527 25.708 21.522 26.016 21.522C26.3333 21.522 26.5953 21.6633 26.802 21.946C27.2007 22.502 27.1787 23.2027 26.736 24.048C25.756 25.9147 25.0453 26.848 24.604 26.848C24.2933 26.848 23.892 25.8033 23.4 23.714C23.2862 23.2747 23.1974 22.8293 23.134 22.38C23.058 21.8778 22.9693 21.3777 22.868 20.88C22.7787 20.4573 22.6453 20.0247 22.468 19.582C22.202 18.918 22.068 18.814 21.802 18.616C21.6124 18.4774 21.3828 18.4044 21.148 18.408L20.802 18.45C20.2233 18.5833 19.5567 18.9393 18.802 19.518C18.1308 20.0164 17.5057 20.574 16.934 21.184L16.266 21.984L16.868 22.782L17.2 22.516C17.3333 22.4253 17.578 22.314 17.934 22.182L18.316 22.096C18.4533 22.096 18.5487 22.1467 18.602 22.248C18.734 22.4253 19.144 23.6813 19.832 26.016C20.5227 28.3493 20.956 29.694 21.132 30.05C21.444 30.6713 21.866 31.1493 22.398 31.484C22.6567 31.644 22.9413 31.7247 23.252 31.726C23.5827 31.726 23.9427 31.6333 24.332 31.448C25.532 30.6493 26.91 29.316 28.466 27.448C30.022 25.5813 30.9773 23.604 31.332 21.516C31.644 19.6933 31.1113 18.6487 29.734 18.382C29.47 18.3144 29.1985 18.2808 28.926 18.282ZM24 42C14.074 42 6 33.926 6 24C6 14.074 14.074 6 24 6C33.926 6 42 14.074 42 24C42 33.926 33.926 42 24 42ZM24 10C16.282 10 10 16.282 10 24C10 31.718 16.282 38 24 38C31.718 38 38 31.718 38 24C38 16.282 31.718 10 24 10Z" fill="var(--fill-0, black)"/>
</g>
</svg>
