<svg width="330" height="60" viewBox="0 0 330 60" fill="none" xmlns="http://www.w3.org/2000/svg">
<g clip-path="url(#clip0_24487_7484)">
<path fill-rule="evenodd" clip-rule="evenodd" d="M57.2628 1.406C59.1896 -0.453891 62.227 -0.462348 64.1638 1.34374L64.3473 1.52319L64.9736 2.18604C71.3179 9.07335 73.682 17.0996 73.0756 24.9381C72.4604 32.8872 68.8258 40.3833 63.7553 46.3069C58.6879 52.2268 51.9224 56.8888 44.6094 58.9123C37.2044 60.9609 29.1056 60.3078 22.0754 55.299C16.1127 51.0504 13.8425 44.1843 13.6883 37.5141C10.3423 35.8578 6.82162 33.7992 3.12764 31.2957L2.15157 30.6267L1.94364 30.4753C-0.153544 28.8584 -0.633062 25.8656 0.895405 23.6685C2.42434 21.4715 5.40141 20.8755 7.65206 22.272L7.86856 22.4136L8.75778 23.024C10.9707 24.5237 13.0822 25.8239 15.09 26.9461C16.3852 22.3589 18.5314 17.9544 21.3586 14.3238C25.5944 8.88483 31.9452 4.53521 39.7254 5.18417C46.7334 5.76912 51.9114 9.41763 54.5841 14.5667C57.172 19.5527 57.2104 25.5504 54.9486 30.7085C52.6426 35.9669 47.9614 40.3478 41.2273 42.1529C36.3811 43.4519 30.7037 43.3626 24.2979 41.623V41.6255C21.7479 40.9328 19.0755 39.976 16.2826 38.7336C15.656 38.4549 15.1107 38.8807 16.2826 39.6198C19.5806 41.9823 24.2266 43.9626 25.5711 44.6273C26.2065 45.6646 26.9944 46.5156 27.8975 47.1591C32.0536 50.1203 36.9155 50.6628 41.9331 49.2746C47.0428 47.8608 52.164 44.4519 56.1363 39.8115C60.1054 35.1745 62.6645 29.6187 63.0861 24.1679C63.4841 19.0245 62.0134 13.7407 57.5832 8.93915L57.1454 8.47649L56.9705 8.28605C55.2272 6.29418 55.337 3.26576 57.2628 1.406ZM38.8912 15.1503C35.6767 14.8821 32.2843 16.5898 29.27 20.4604C26.9743 23.4082 25.2372 27.2385 24.3516 31.1798C30.6601 33.3563 35.3615 33.3711 38.6282 32.4957C42.4099 31.482 44.6775 29.187 45.7689 26.6984C46.9042 24.1089 46.7879 21.2874 45.6869 19.1664C44.6708 17.2087 42.6251 15.462 38.8912 15.1503Z" fill="url(#paint0_radial_24487_7484)"/>
<path d="M205.63 20.4039C202.839 20.4039 201.047 18.2891 201.436 15.452C201.824 12.6149 204.195 10.5 206.987 10.5C209.778 10.5 211.57 12.6149 211.182 15.452C210.794 18.2891 208.422 20.4039 205.63 20.4039Z" fill="#1A1A1A"/>
<path d="M198.016 48.2086L201.505 22.7266H209.119L205.63 48.2086H198.016Z" fill="#1A1A1A"/>
<path fill-rule="evenodd" clip-rule="evenodd" d="M211.397 35.7242L208.195 59.0912H215.809L217.682 45.4217C218.945 47.6913 221.321 48.8778 224.315 48.8778C230.001 48.8778 237.077 44.648 238.291 35.7756C239.415 27.5739 234.588 22.0547 226.619 22.0547C218.954 22.0547 212.569 27.1613 211.397 35.7242ZM230.619 35.4662C230.117 39.1286 227.435 41.6561 223.985 41.6561C220.532 41.6561 218.543 39.1286 219.045 35.4662C219.547 31.8038 222.229 29.2763 225.679 29.2763C229.132 29.2763 231.121 31.8038 230.619 35.4662Z" fill="#1A1A1A"/>
<path d="M248.433 48.8778C241.987 48.8778 238.305 45.3701 238.874 40.4697H246.386C246.253 41.8109 247.127 42.4815 249.207 42.4815C251.542 42.4815 252.417 41.6561 252.565 40.5729C252.783 38.9837 251.223 38.7432 249.155 38.4246L249.147 38.4233C249.002 38.4009 248.856 38.3783 248.707 38.3549C245.326 37.839 239.761 36.9621 240.602 30.8237C241.308 25.6655 245.813 22.0547 252.056 22.0547C258.299 22.0547 261.656 25.7171 261.18 30.3078H253.769C253.727 29.1215 252.804 28.451 251.281 28.451C249.404 28.451 248.508 29.4309 248.366 30.4626C248.165 31.94 249.795 32.195 251.931 32.5292L252.24 32.5775C255.773 33.0933 261.171 34.0734 260.345 40.1087C259.624 45.3701 254.88 48.8778 248.433 48.8778Z" fill="#1A1A1A"/>
<path d="M291.444 33.8672L289.48 48.2072H297.094L299.058 33.8672C299.525 30.4626 301.311 29.2763 303.596 29.2763C305.83 29.2763 307.291 30.4626 306.824 33.8672L304.861 48.2072H312.474L314.438 33.8672C314.905 30.4626 316.691 29.2763 318.925 29.2763C321.21 29.2763 322.672 30.4626 322.206 33.8672L320.241 48.2072H327.855L329.82 33.8672C330.943 25.6655 326.767 22.0547 320.675 22.0547C317.072 22.0547 313.936 23.4474 311.692 26.1297C310.181 23.4474 307.377 22.0547 303.823 22.0547C297.732 22.0547 292.568 25.6655 291.444 33.8672Z" fill="#1A1A1A"/>
<path d="M263.16 35.9318C261.98 44.5462 266.361 48.8791 273.772 48.8791C281.183 48.8791 286.757 44.4946 287.93 35.9318L289.739 22.7266H282.125L280.317 35.9318C279.766 39.9553 277.603 41.6575 274.76 41.6575C271.917 41.6575 270.222 39.9553 270.773 35.9318L272.582 22.7266H264.968L263.16 35.9318Z" fill="#1A1A1A"/>
<path fill-rule="evenodd" clip-rule="evenodd" d="M169.731 35.4662C168.673 43.2036 173.479 48.8778 181.398 48.8778C189.316 48.8778 195.676 43.2036 196.736 35.4662C197.796 27.7287 192.99 22.0547 185.071 22.0547C177.153 22.0547 170.792 27.7287 169.731 35.4662ZM189.021 35.4662C188.519 39.1286 185.837 41.6561 182.386 41.6561C178.934 41.6561 176.945 39.1286 177.447 35.4662C177.948 31.8038 180.63 29.2763 184.081 29.2763C187.533 29.2763 189.522 31.8038 189.021 35.4662Z" fill="#1A1A1A"/>
<path fill-rule="evenodd" clip-rule="evenodd" d="M145.491 46.4819C142.415 44.1147 140.89 40.1721 141.534 35.4662C142.594 27.7287 148.955 22.0547 156.872 22.0547C164.791 22.0547 169.598 27.7287 168.539 35.4662C167.515 42.9401 161.545 48.4887 154.004 48.8582C155.779 49.8842 158.36 50.7138 160.256 51.3236C160.889 51.5273 161.446 51.7065 161.872 51.8603C163.593 52.2977 164.692 53.928 164.427 55.8723C164.115 58.1519 162.043 59.9997 159.799 59.9997H147.615C143.129 59.9997 139.998 56.3039 140.622 51.7448H153.616C150.647 50.5779 147.51 48.2441 145.491 46.4819ZM154.189 41.6561C157.64 41.6561 160.322 39.1286 160.823 35.4662C161.325 31.8038 159.336 29.2763 155.884 29.2763C152.433 29.2763 149.751 31.8038 149.25 35.4662C148.748 39.1286 150.737 41.6561 154.189 41.6561Z" fill="#1A1A1A"/>
<path fill-rule="evenodd" clip-rule="evenodd" d="M113.333 35.4662C112.273 43.2036 117.08 48.8778 124.998 48.8778C132.917 48.8778 139.278 43.2036 140.337 35.4662C141.397 27.7287 136.591 22.0547 128.672 22.0547C120.754 22.0547 114.393 27.7287 113.333 35.4662ZM132.622 35.4662C132.12 39.1286 129.439 41.6561 125.988 41.6561C122.536 41.6561 120.547 39.1286 121.049 35.4662C121.55 31.8038 124.231 29.2763 127.683 29.2763C131.135 29.2763 133.123 31.8038 132.622 35.4662Z" fill="#1A1A1A"/>
<path d="M86.6055 48.208L91.2256 14.4727H99.4486L95.8882 40.4705H111.573L110.513 48.208H86.6055Z" fill="#1A1A1A"/>
</g>
<defs>
<radialGradient id="paint0_radial_24487_7484" cx="0" cy="0" r="1" gradientTransform="matrix(74.758 43.9286 -4.96197 61.3044 36.5837 30)" gradientUnits="userSpaceOnUse">
<stop stop-color="#007BFF"/>
<stop offset="1" stop-color="#0056B3"/>
</radialGradient>
<clipPath id="clip0_24487_7484">
<rect width="330" height="60" fill="white"/>
</clipPath>
</defs>
</svg>
