<svg preserveAspectRatio="none" width="100%" height="100%" overflow="visible" style="display: block;" viewBox="0 0 330 60" fill="none" xmlns="http://www.w3.org/2000/svg">
<g id="Frame" clip-path="url(#clip0_0_18)">
<path id="Vector" fill-rule="evenodd" clip-rule="evenodd" d="M57.2628 1.406C59.1896 -0.453891 62.2269 -0.462348 64.1638 1.34374L64.3473 1.52319L64.9736 2.18604C71.3179 9.07335 73.682 17.0996 73.0756 24.9381C72.4604 32.8872 68.8258 40.3833 63.7553 46.3069C58.6879 52.2268 51.9224 56.8888 44.6094 58.9123C37.2044 60.9609 29.1056 60.3078 22.0754 55.299C16.1127 51.0504 13.8425 44.1843 13.6883 37.5141C10.3423 35.8578 6.82162 33.7992 3.12764 31.2957L2.15157 30.6267L1.94364 30.4754C-0.153544 28.8584 -0.633062 25.8656 0.895405 23.6685C2.42434 21.4715 5.40141 20.8755 7.65206 22.272L7.86856 22.4136L8.75778 23.024C10.9707 24.5237 13.0822 25.8238 15.09 26.9461C16.3852 22.3589 18.5314 17.9544 21.3586 14.3238C25.5944 8.88483 31.9452 4.53521 39.7254 5.18417C46.7334 5.76912 51.9114 9.41763 54.5841 14.5667C57.172 19.5527 57.2104 25.5504 54.9486 30.7084C52.6426 35.9668 47.9614 40.3478 41.2273 42.1529C36.3811 43.4519 30.7037 43.3626 24.2979 41.623V41.6254C21.7479 40.9327 19.0755 39.976 16.2826 38.7336C15.656 38.4549 15.1107 38.8808 16.2826 39.6198C19.5806 41.9823 24.2266 43.9626 25.5711 44.6272C26.2065 45.6646 26.9944 46.5156 27.8975 47.1591C32.0536 50.1202 36.9155 50.6628 41.9331 49.2746C47.0428 47.8608 52.164 44.4519 56.1363 39.8115C60.1054 35.1746 62.6645 29.6187 63.0861 24.1679C63.4841 19.0245 62.0134 13.7407 57.5832 8.93915L57.1454 8.47649L56.9705 8.28605C55.2272 6.29418 55.337 3.26576 57.2628 1.406ZM38.8912 15.1503C35.6767 14.8821 32.2843 16.5898 29.27 20.4604C26.9743 23.4082 25.2372 27.2385 24.3516 31.1798C30.6601 33.3563 35.3615 33.3711 38.6282 32.4957C42.4099 31.482 44.6775 29.187 45.7689 26.6984C46.9042 24.1089 46.7879 21.2874 45.6869 19.1664C44.6708 17.2088 42.6251 15.462 38.8912 15.1503Z" fill="url(#paint0_radial_0_18)"/>
<path id="Vector_2" d="M205.629 20.4039C202.838 20.4039 201.046 18.2891 201.434 15.452C201.823 12.6149 204.194 10.5 206.986 10.5C209.777 10.5 211.569 12.6149 211.181 15.452C210.792 18.2891 208.421 20.4039 205.629 20.4039Z" fill="var(--fill-0, #1A1A1A)"/>
<path id="Vector_3" d="M198.015 48.2071L201.504 22.7251H209.118L205.629 48.2071H198.015Z" fill="var(--fill-0, #1A1A1A)"/>
<path id="Vector_4" fill-rule="evenodd" clip-rule="evenodd" d="M211.399 35.7244L208.197 59.0914H215.811L217.684 45.4219C218.947 47.6916 221.322 48.8781 224.316 48.8781C230.003 48.8781 237.079 44.6482 238.293 35.7759C239.417 27.5742 234.59 22.055 226.62 22.055C218.956 22.055 212.571 27.1615 211.399 35.7244ZM230.621 35.4664C230.119 39.1288 227.437 41.6563 223.986 41.6563C220.534 41.6563 218.545 39.1288 219.047 35.4664C219.549 31.804 222.23 29.2765 225.681 29.2765C229.133 29.2765 231.122 31.804 230.621 35.4664Z" fill="var(--fill-0, #1A1A1A)"/>
<path id="Vector_5" d="M248.433 48.8781C241.987 48.8781 238.305 45.3703 238.874 40.47H246.386C246.253 41.8111 247.127 42.4818 249.207 42.4818C251.542 42.4818 252.417 41.6563 252.565 40.5732C252.783 38.9839 251.223 38.7435 249.155 38.4249L249.147 38.4235C249.002 38.4012 248.856 38.3785 248.707 38.3551C245.326 37.8393 239.761 36.9624 240.601 30.8239C241.308 25.6657 245.813 22.055 252.056 22.055C258.299 22.055 261.656 25.7174 261.179 30.3081H253.769C253.727 29.1218 252.804 28.4513 251.281 28.4513C249.404 28.4513 248.508 29.4312 248.366 30.4629C248.165 31.9402 249.795 32.1952 251.93 32.5294L252.239 32.5777C255.772 33.0936 261.17 34.0737 260.345 40.1089C259.623 45.3703 254.879 48.8781 248.433 48.8781Z" fill="var(--fill-0, #1A1A1A)"/>
<path id="Vector_6" d="M291.442 33.8674L289.479 48.2075H297.093L299.056 33.8674C299.524 30.4629 301.309 29.2765 303.594 29.2765C305.828 29.2765 307.29 30.4629 306.822 33.8674L304.859 48.2075H312.473L314.436 33.8674C314.904 30.4629 316.69 29.2765 318.923 29.2765C321.208 29.2765 322.67 30.4629 322.204 33.8674L320.239 48.2075H327.853L329.818 33.8674C330.941 25.6658 326.766 22.055 320.673 22.055C317.07 22.055 313.935 23.4477 311.69 26.13C310.179 23.4477 307.375 22.055 303.821 22.055C297.73 22.055 292.567 25.6658 291.442 33.8674Z" fill="var(--fill-0, #1A1A1A)"/>
<path id="Vector_7" d="M263.16 35.9303C261.98 44.5447 266.361 48.8776 273.772 48.8776C281.183 48.8776 286.757 44.4931 287.93 35.9303L289.739 22.7251H282.125L280.317 35.9303C279.766 39.9538 277.603 41.656 274.76 41.656C271.917 41.656 270.222 39.9538 270.773 35.9303L272.582 22.7251H264.968L263.16 35.9303Z" fill="var(--fill-0, #1A1A1A)"/>
<path id="Vector_8" fill-rule="evenodd" clip-rule="evenodd" d="M169.732 35.4664C168.674 43.2039 173.48 48.8781 181.399 48.8781C189.317 48.8781 195.677 43.2039 196.737 35.4664C197.797 27.729 192.991 22.0549 185.072 22.0549C177.154 22.0549 170.793 27.729 169.732 35.4664ZM189.022 35.4664C188.52 39.1288 185.838 41.6563 182.387 41.6563C178.935 41.6563 176.946 39.1288 177.448 35.4664C177.949 31.804 180.631 29.2765 184.082 29.2765C187.534 29.2765 189.523 31.804 189.022 35.4664Z" fill="var(--fill-0, #1A1A1A)"/>
<path id="Vector_9" fill-rule="evenodd" clip-rule="evenodd" d="M145.489 46.4821C142.413 44.115 140.888 40.1724 141.532 35.4664C142.592 27.729 148.953 22.0549 156.87 22.0549C164.789 22.0549 169.596 27.729 168.537 35.4664C167.513 42.9403 161.543 48.489 154.002 48.8584C155.777 49.8844 158.358 50.7141 160.254 51.3238C160.887 51.5275 161.444 51.7068 161.87 51.8605C163.591 52.2979 164.69 53.9283 164.425 55.8726C164.113 58.1521 162.041 60 159.797 60H147.613C143.127 60 139.996 56.3041 140.62 51.745H153.614C150.645 50.5782 147.508 48.2443 145.489 46.4821ZM154.187 41.6563C157.638 41.6563 160.32 39.1288 160.822 35.4664C161.323 31.804 159.334 29.2765 155.882 29.2765C152.431 29.2765 149.749 31.804 149.248 35.4664C148.746 39.1288 150.735 41.6563 154.187 41.6563Z" fill="var(--fill-0, #1A1A1A)"/>
<path id="Vector_10" fill-rule="evenodd" clip-rule="evenodd" d="M113.333 35.4664C112.273 43.2039 117.08 48.8781 124.998 48.8781C132.917 48.8781 139.278 43.2039 140.337 35.4664C141.397 27.729 136.591 22.055 128.672 22.055C120.754 22.055 114.393 27.729 113.333 35.4664ZM132.622 35.4664C132.12 39.1288 129.439 41.6563 125.988 41.6563C122.536 41.6563 120.547 39.1288 121.049 35.4664C121.55 31.804 124.231 29.2765 127.683 29.2765C131.135 29.2765 133.123 31.804 132.622 35.4664Z" fill="var(--fill-0, #1A1A1A)"/>
<path id="Vector_11" d="M86.6063 48.2073L91.2265 14.472H99.4495L95.889 40.4699H111.574L110.514 48.2073H86.6063Z" fill="var(--fill-0, #1A1A1A)"/>
</g>
<defs>
<radialGradient id="paint0_radial_0_18" cx="0" cy="0" r="1" gradientTransform="matrix(74.758 43.9286 -4.96197 61.3044 36.5837 30)" gradientUnits="userSpaceOnUse">
<stop stop-color="#007BFF"/>
<stop offset="1" stop-color="#0056B3"/>
</radialGradient>
<clipPath id="clip0_0_18">
<rect width="330" height="60" fill="white"/>
</clipPath>
</defs>
</svg>
