<svg preserveAspectRatio="none" width="100%" height="100%" overflow="visible" style="display: block;" viewBox="0 0 20 20" fill="none" xmlns="http://www.w3.org/2000/svg">
<g id="thumbs-up">
<path id="Vector" d="M1.66699 10.4167C1.66699 9.49617 2.41318 8.75 3.33366 8.75C4.71437 8.75 5.83366 9.86925 5.83366 11.25V14.5833C5.83366 15.9641 4.71437 17.0833 3.33366 17.0833C2.41318 17.0833 1.66699 16.3372 1.66699 15.4167V10.4167Z" stroke="var(--stroke-0, #666666)" stroke-width="1.25" stroke-linecap="round" stroke-linejoin="round"/>
<path id="Vector_2" d="M12.8986 6.50524L12.6767 7.22197C12.4948 7.80928 12.4039 8.10293 12.4738 8.33485C12.5304 8.52244 12.6546 8.68419 12.8238 8.79061C13.033 8.92211 13.3494 8.9221 13.9823 8.9221H14.3189C16.4607 8.9221 17.5315 8.92211 18.0373 9.55611C18.0951 9.62852 18.1465 9.7056 18.191 9.78644C18.5801 10.4934 18.1378 11.4459 17.253 13.3509C16.4411 15.0991 16.0351 15.9732 15.2813 16.4877C15.2084 16.5374 15.1334 16.5844 15.0566 16.6284C14.263 17.0834 13.2798 17.0834 11.3133 17.0834H10.8868C8.50442 17.0834 7.31324 17.0834 6.57312 16.3663C5.83301 15.6491 5.83301 14.4949 5.83301 12.1866V11.3753C5.83301 10.1622 5.83301 9.55569 6.04829 9.00052C6.26357 8.44535 6.6758 7.98889 7.50025 7.07595L10.9098 3.30049C10.9953 3.2058 11.038 3.15845 11.0758 3.12565C11.4276 2.81942 11.9707 2.85389 12.2783 3.20198C12.3113 3.23927 12.3473 3.29161 12.4193 3.3963C12.532 3.56006 12.5883 3.64195 12.6375 3.72306C13.077 4.4493 13.21 5.31199 13.0087 6.13098C12.9862 6.22245 12.957 6.31677 12.8986 6.50524Z" stroke="var(--stroke-0, #666666)" stroke-width="1.25" stroke-linecap="round" stroke-linejoin="round"/>
</g>
</svg>
