<svg preserveAspectRatio="none" width="100%" height="100%" overflow="visible" style="display: block;" viewBox="0 0 20 20" fill="none" xmlns="http://www.w3.org/2000/svg">
<g id="thumbs-up">
<path id="Vector" d="M1.66699 10.4167C1.66699 9.49617 2.41318 8.75 3.33366 8.75C4.71437 8.75 5.83366 9.86925 5.83366 11.25V14.5833C5.83366 15.9641 4.71437 17.0833 3.33366 17.0833C2.41318 17.0833 1.66699 16.3372 1.66699 15.4167V10.4167Z" stroke="var(--stroke-0, #666666)" stroke-width="1.25" stroke-linecap="round" stroke-linejoin="round"/>
<path id="Vector_2" d="M12.8986 6.50518L12.6767 7.22191C12.4948 7.80922 12.4039 8.10287 12.4738 8.33479C12.5304 8.52238 12.6546 8.68413 12.8238 8.79054C13.033 8.92204 13.3494 8.92204 13.9823 8.92204H14.3189C16.4607 8.92204 17.5315 8.92204 18.0373 9.55604C18.0951 9.62846 18.1465 9.70554 18.191 9.78638C18.5801 10.4934 18.1378 11.4459 17.253 13.3509C16.4411 15.099 16.0351 15.9731 15.2813 16.4876C15.2084 16.5374 15.1334 16.5844 15.0566 16.6284C14.263 17.0833 13.2798 17.0833 11.3133 17.0833H10.8868C8.50442 17.0833 7.31324 17.0833 6.57312 16.3662C5.83301 15.649 5.83301 14.4949 5.83301 12.1865V11.3752C5.83301 10.1621 5.83301 9.55563 6.04829 9.00046C6.26357 8.44529 6.6758 7.98883 7.50025 7.07589L10.9098 3.30043C10.9953 3.20574 11.038 3.15839 11.0758 3.12559C11.4276 2.81936 11.9707 2.85383 12.2783 3.20192C12.3113 3.23921 12.3473 3.29155 12.4193 3.39624C12.532 3.56 12.5883 3.64188 12.6375 3.723C13.077 4.44923 13.21 5.31193 13.0087 6.13092C12.9862 6.22239 12.957 6.31671 12.8986 6.50518Z" stroke="var(--stroke-0, #666666)" stroke-width="1.25" stroke-linecap="round" stroke-linejoin="round"/>
</g>
</svg>
