<svg width="40" height="40" viewBox="0 0 40 40" fill="none" xmlns="http://www.w3.org/2000/svg">
<g clip-path="url(#clip0_315_674)">
<path d="M13.0964 20.3536L17.6262 22.4473L17.046 27.6527L8.94876 36.8282C4.2486 33.8023 0.898178 28.8615 0 23.108L13.0964 20.3536Z" fill="#15E3FF"/>
<path d="M25.1831 25.94L31.2415 36.3789C27.9921 38.6605 24.0332 40 19.7613 40C18.3745 40 17.0207 39.8587 15.7134 39.59L17.0461 27.6527L20.4766 23.7656L25.1831 25.94Z" fill="#348DFC"/>
<path d="M39.1023 14.881C39.5333 16.5143 39.7631 18.2294 39.7631 19.9982C39.7631 24.1145 38.5193 27.9403 36.3875 31.1207L25.1841 25.9405L22.5552 21.4123L25.8575 17.6692L39.1023 14.881Z" fill="#FD4873"/>
<path d="M20.132 0C26.1505 0.109415 31.5194 2.877 35.1148 7.17842L25.8561 17.6694L20.9792 18.6959L18.519 14.4574L20.132 0Z" fill="#FFC700"/>
<path d="M18.5189 14.4575L17.9744 19.327L13.099 20.3531L0.514648 14.5348C2.09958 8.9405 6.05788 4.34366 11.2326 1.90076L18.5189 14.4575Z" fill="#00E7B9"/>
</g>
<defs>
<clipPath id="clip0_315_674">
<rect width="40" height="40" fill="white"/>
</clipPath>
</defs>
</svg>
