<svg width="256" height="87" viewBox="0 0 256 87" fill="none" xmlns="http://www.w3.org/2000/svg">
<rect x="1" y="1" width="254" height="85" rx="11" fill="white"/>
<rect x="1" y="1" width="254" height="85" rx="11" stroke="#F5F5F5" stroke-width="2" stroke-linecap="round"/>
<g clip-path="url(#clip0_315_580)">
<path d="M51.8112 16C57.3112 16 60.0612 16 63.0556 16.9167C66.2944 18.0778 68.8612 20.6444 70.0224 23.8833C71 26.8778 71 29.6889 71 35.1889V51.8112C71 57.3112 71 60.0612 70.0832 63.0556C68.9224 66.2944 66.3556 68.8612 63.1168 70.0224C60.0612 71 57.3112 71 51.8112 71H35.1889C29.6889 71 26.9389 71 23.9444 70.0832C20.6444 68.8612 18.1389 66.3556 16.9167 63.0556C16 60.1224 16 57.3724 16 51.8112V35.1889C16 29.6889 16 26.9389 16.9167 23.9444C18.1389 20.7056 20.6444 18.1389 23.9444 16.9778C26.8778 16 29.6278 16 35.1889 16H51.8112Z" fill="url(#paint0_linear_315_580)"/>
<mask id="mask0_315_580" style="mask-type:luminance" maskUnits="userSpaceOnUse" x="16" y="16" width="55" height="55">
<path d="M51.8112 16C57.3112 16 60.0612 16 63.0556 16.9167C66.2944 18.0778 68.8612 20.6444 70.0224 23.8833C71 26.8778 71 29.6889 71 35.1889V51.8112C71 57.3112 71 60.0612 70.0832 63.0556C68.9224 66.2944 66.3556 68.8612 63.1168 70.0224C60.0612 71 57.3112 71 51.8112 71H35.1889C29.6889 71 26.9389 71 23.9444 70.0832C20.6444 68.8612 18.1389 66.3556 16.9167 63.0556C16 60.1224 16 57.3724 16 51.8112V35.1889C16 29.6889 16 26.9389 16.9167 23.9444C18.1389 20.7056 20.6444 18.1389 23.9444 16.9778C26.8778 16 29.6278 16 35.1889 16H51.8112Z" fill="white"/>
</mask>
<g mask="url(#mask0_315_580)">
<path d="M28.4055 54.6832C28.4667 54.5612 28.5889 54.5 28.7111 54.4388C29.2 54.3168 29.6889 54.1944 30.1778 54.1944C31.5222 54.1944 32.7445 54.6832 33.7222 55.5388C33.8445 55.6612 33.8445 55.8444 33.7833 55.9668L31.2778 60.2444C30.7889 61.1 29.8722 61.5888 28.9555 61.5888C28.4055 61.5888 27.8555 61.4056 27.3667 61.0388C26.2667 60.2444 26.0222 58.6556 26.6945 57.4944L28.4055 54.6832ZM60.9776 48.1445C62.3832 48.1445 63.6056 49.1834 63.7276 50.5276C63.85 52.1168 62.6276 53.4612 61.1 53.4612H57.8612L60.2444 57.5556C60.9168 58.7168 60.6724 60.3056 59.5724 61.1C59.0832 61.4668 58.5332 61.65 57.9832 61.65C57.0668 61.65 56.15 61.1612 55.6612 60.3056L49.9167 50.3445L45.3945 42.5223C45.3333 42.4611 45.3333 42.4 45.3333 42.2778C45.3333 41.9723 45.2722 41.6667 45.2722 41.3611C45.2722 39.2223 45.7611 37.0834 46.7389 35.3723C46.8611 35.1889 47.1667 35.1889 47.2889 35.3723L54.7444 48.0834H60.9776V48.1445ZM46.9222 48.2667C48.2667 49.0611 49.1222 50.5888 49.1222 52.3C49.1222 52.6668 49.0611 52.9724 49 53.3388C49 53.4 48.8778 53.4612 48.8167 53.4612H26.0222C24.4945 53.4612 23.2111 52.1168 23.3945 50.5276C23.5167 49.1223 24.7389 48.1445 26.1445 48.1445H32.1945L40.4445 33.9667L38.1833 30.1167C37.3889 28.7723 37.9389 27 39.4055 26.3889C40.6889 25.8389 42.1555 26.3889 42.8889 27.55L43.5611 28.7111L44.2945 27.4889C45.0889 26.1445 46.8611 25.7167 48.1445 26.6334C49.3055 27.4278 49.55 29.0167 48.8167 30.2389L38.3055 48.1445H46.4945C46.6778 48.1445 46.8 48.2056 46.9222 48.2667Z" fill="white"/>
</g>
</g>
<path d="M93.944 34.064V32.624H96.856C97.56 32.624 98.184 32.512 98.728 32.288C99.2827 32.0533 99.752 31.7333 100.136 31.328C100.531 30.9227 100.829 30.448 101.032 29.904C101.235 29.36 101.336 28.7733 101.336 28.144C101.336 27.4827 101.235 26.8853 101.032 26.352C100.829 25.808 100.531 25.3387 100.136 24.944C99.752 24.5387 99.2827 24.2293 98.728 24.016C98.184 23.8027 97.56 23.696 96.856 23.696H93.944V22.256H96.696C97.752 22.256 98.6693 22.4213 99.448 22.752C100.227 23.072 100.872 23.5093 101.384 24.064C101.907 24.608 102.296 25.2213 102.552 25.904C102.808 26.576 102.936 27.264 102.936 27.968V28.32C102.936 29.0027 102.808 29.6853 102.552 30.368C102.296 31.0507 101.907 31.6693 101.384 32.224C100.872 32.7787 100.227 33.2267 99.448 33.568C98.6693 33.8987 97.752 34.064 96.696 34.064H93.944ZM92.696 34.064V22.256H94.264V34.064H92.696ZM109.064 34.288C108.318 34.288 107.662 34.16 107.096 33.904C106.531 33.648 106.051 33.312 105.656 32.896C105.272 32.4693 104.979 31.9947 104.776 31.472C104.584 30.9493 104.488 30.416 104.488 29.872V29.584C104.488 29.04 104.59 28.5067 104.792 27.984C104.995 27.4507 105.294 26.976 105.688 26.56C106.083 26.1333 106.563 25.7973 107.128 25.552C107.694 25.296 108.339 25.168 109.064 25.168C109.79 25.168 110.435 25.296 111 25.552C111.566 25.7973 112.046 26.1333 112.44 26.56C112.835 26.976 113.134 27.4507 113.336 27.984C113.539 28.5067 113.64 29.04 113.64 29.584V29.872C113.64 30.416 113.539 30.9493 113.336 31.472C113.144 31.9947 112.851 32.4693 112.456 32.896C112.072 33.312 111.598 33.648 111.032 33.904C110.467 34.16 109.811 34.288 109.064 34.288ZM109.064 32.912C109.704 32.912 110.248 32.7733 110.696 32.496C111.155 32.208 111.502 31.824 111.736 31.344C111.982 30.864 112.104 30.3253 112.104 29.728C112.104 29.12 111.982 28.576 111.736 28.096C111.491 27.616 111.139 27.2373 110.68 26.96C110.232 26.6827 109.694 26.544 109.064 26.544C108.446 26.544 107.907 26.6827 107.448 26.96C106.99 27.2373 106.638 27.616 106.392 28.096C106.147 28.576 106.024 29.12 106.024 29.728C106.024 30.3253 106.142 30.864 106.376 31.344C106.622 31.824 106.968 32.208 107.416 32.496C107.875 32.7733 108.424 32.912 109.064 32.912ZM118.281 34L120.009 25.744H122.089L124.105 34H122.793L120.777 25.776H121.289L119.545 34H118.281ZM117.497 34V32.784H119.273V34H117.497ZM117.145 34L114.729 25.456H116.201L118.553 34H117.145ZM123.113 34V32.784H124.889V34H123.113ZM123.833 34L125.881 25.456H127.273L125.177 34H123.833ZM129.347 34V25.456H130.563V29.12H130.371C130.371 28.2773 130.483 27.568 130.707 26.992C130.942 26.4053 131.294 25.9627 131.763 25.664C132.232 25.3547 132.824 25.2 133.539 25.2H133.603C134.68 25.2 135.475 25.536 135.987 26.208C136.51 26.88 136.771 27.8507 136.771 29.12V34H135.235V28.8C135.235 28.1387 135.048 27.6107 134.675 27.216C134.302 26.8107 133.79 26.608 133.139 26.608C132.467 26.608 131.923 26.816 131.507 27.232C131.091 27.648 130.883 28.2027 130.883 28.896V34H129.347ZM139.677 34V22.32H141.213V34H139.677ZM138.493 23.536V22.32H141.213V23.536H138.493ZM148.096 34.288C147.349 34.288 146.693 34.16 146.128 33.904C145.562 33.648 145.082 33.312 144.688 32.896C144.304 32.4693 144.01 31.9947 143.808 31.472C143.616 30.9493 143.52 30.416 143.52 29.872V29.584C143.52 29.04 143.621 28.5067 143.824 27.984C144.026 27.4507 144.325 26.976 144.72 26.56C145.114 26.1333 145.594 25.7973 146.16 25.552C146.725 25.296 147.37 25.168 148.096 25.168C148.821 25.168 149.466 25.296 150.032 25.552C150.597 25.7973 151.077 26.1333 151.472 26.56C151.866 26.976 152.165 27.4507 152.368 27.984C152.57 28.5067 152.672 29.04 152.672 29.584V29.872C152.672 30.416 152.57 30.9493 152.368 31.472C152.176 31.9947 151.882 32.4693 151.488 32.896C151.104 33.312 150.629 33.648 150.064 33.904C149.498 34.16 148.842 34.288 148.096 34.288ZM148.096 32.912C148.736 32.912 149.28 32.7733 149.728 32.496C150.186 32.208 150.533 31.824 150.767 31.344C151.013 30.864 151.135 30.3253 151.135 29.728C151.135 29.12 151.013 28.576 150.767 28.096C150.522 27.616 150.17 27.2373 149.712 26.96C149.264 26.6827 148.725 26.544 148.096 26.544C147.477 26.544 146.938 26.6827 146.48 26.96C146.021 27.2373 145.669 27.616 145.424 28.096C145.178 28.576 145.056 29.12 145.056 29.728C145.056 30.3253 145.173 30.864 145.408 31.344C145.653 31.824 146 32.208 146.448 32.496C146.906 32.7733 147.456 32.912 148.096 32.912ZM160.14 34V31.44H159.884V28.48C159.884 27.8933 159.729 27.4507 159.42 27.152C159.121 26.8533 158.679 26.704 158.092 26.704C157.761 26.704 157.42 26.7093 157.068 26.72C156.716 26.7307 156.38 26.7413 156.06 26.752C155.74 26.7627 155.463 26.7787 155.228 26.8V25.456C155.463 25.4347 155.708 25.4187 155.964 25.408C156.231 25.3867 156.503 25.376 156.78 25.376C157.057 25.3653 157.324 25.36 157.58 25.36C158.455 25.36 159.169 25.4667 159.724 25.68C160.279 25.8827 160.689 26.2187 160.956 26.688C161.223 27.1573 161.356 27.792 161.356 28.592V34H160.14ZM157.34 34.224C156.7 34.224 156.145 34.1173 155.676 33.904C155.217 33.68 154.86 33.36 154.604 32.944C154.359 32.528 154.236 32.0267 154.236 31.44C154.236 30.832 154.369 30.3253 154.636 29.92C154.913 29.5147 155.313 29.2107 155.836 29.008C156.359 28.7947 156.988 28.688 157.724 28.688H160.044V29.84H157.66C157.041 29.84 156.567 29.9893 156.236 30.288C155.905 30.5867 155.74 30.9707 155.74 31.44C155.74 31.9093 155.905 32.288 156.236 32.576C156.567 32.864 157.041 33.008 157.66 33.008C158.023 33.008 158.369 32.944 158.7 32.816C159.031 32.6773 159.303 32.4533 159.516 32.144C159.74 31.824 159.863 31.3867 159.884 30.832L160.3 31.44C160.247 32.048 160.097 32.56 159.852 32.976C159.617 33.3813 159.287 33.6907 158.86 33.904C158.444 34.1173 157.937 34.224 157.34 34.224ZM167.743 34.288C167.135 34.288 166.575 34.176 166.063 33.952C165.551 33.728 165.103 33.4133 164.719 33.008C164.346 32.6027 164.052 32.1333 163.839 31.6C163.636 31.0667 163.535 30.4907 163.535 29.872V29.584C163.535 28.976 163.636 28.4053 163.839 27.872C164.042 27.3387 164.324 26.8693 164.687 26.464C165.06 26.0587 165.498 25.744 165.999 25.52C166.511 25.2853 167.076 25.168 167.695 25.168C168.346 25.168 168.938 25.3067 169.471 25.584C170.004 25.8507 170.442 26.272 170.783 26.848C171.124 27.424 171.316 28.1707 171.359 29.088L170.719 28.064V22.32H172.255V34H171.039V30.208H171.487C171.444 31.1787 171.242 31.968 170.879 32.576C170.516 33.1733 170.058 33.6107 169.503 33.888C168.959 34.1547 168.372 34.288 167.743 34.288ZM167.951 32.944C168.474 32.944 168.948 32.8267 169.375 32.592C169.802 32.3573 170.143 32.0213 170.399 31.584C170.655 31.136 170.783 30.6133 170.783 30.016V29.28C170.783 28.6933 170.65 28.1973 170.383 27.792C170.127 27.376 169.78 27.0613 169.343 26.848C168.916 26.624 168.447 26.512 167.935 26.512C167.37 26.512 166.868 26.6453 166.431 26.912C166.004 27.1787 165.668 27.552 165.423 28.032C165.188 28.512 165.071 29.0773 165.071 29.728C165.071 30.3787 165.194 30.9493 165.439 31.44C165.684 31.92 166.026 32.2933 166.463 32.56C166.9 32.816 167.396 32.944 167.951 32.944ZM182.175 34.096C181.535 34.096 180.98 34.0053 180.511 33.824C180.052 33.6427 179.695 33.3333 179.439 32.896C179.194 32.448 179.071 31.8453 179.071 31.088V22.864H180.543V31.28C180.543 31.7387 180.666 32.096 180.911 32.352C181.167 32.5973 181.524 32.72 181.983 32.72H183.487V34.096H182.175ZM177.599 26.608V25.456H183.487V26.608H177.599ZM185.66 34V22.32H187.196V29.296H186.812C186.812 28.4533 186.918 27.728 187.132 27.12C187.356 26.5013 187.697 26.0267 188.156 25.696C188.614 25.3653 189.201 25.2 189.916 25.2H189.98C191.004 25.2 191.777 25.5413 192.3 26.224C192.822 26.896 193.084 27.8613 193.084 29.12V34H191.548V28.8C191.548 28.1067 191.35 27.568 190.956 27.184C190.572 26.8 190.07 26.608 189.452 26.608C188.769 26.608 188.22 26.8373 187.804 27.296C187.398 27.744 187.196 28.336 187.196 29.072V34H185.66ZM199.526 34.288C198.779 34.288 198.134 34.16 197.59 33.904C197.046 33.648 196.603 33.312 196.262 32.896C195.921 32.4693 195.665 31.9947 195.494 31.472C195.334 30.9493 195.254 30.416 195.254 29.872V29.584C195.254 29.0293 195.334 28.4907 195.494 27.968C195.665 27.4453 195.921 26.976 196.262 26.56C196.603 26.1333 197.035 25.7973 197.558 25.552C198.091 25.296 198.715 25.168 199.43 25.168C200.358 25.168 201.121 25.3707 201.718 25.776C202.326 26.1707 202.774 26.6827 203.062 27.312C203.361 27.9413 203.51 28.6133 203.51 29.328V30.016H195.926V28.864H202.39L202.038 29.488C202.038 28.88 201.942 28.3573 201.75 27.92C201.558 27.472 201.27 27.1253 200.886 26.88C200.502 26.6347 200.017 26.512 199.43 26.512C198.822 26.512 198.315 26.6507 197.91 26.928C197.515 27.2053 197.217 27.584 197.014 28.064C196.822 28.544 196.726 29.0987 196.726 29.728C196.726 30.336 196.822 30.8853 197.014 31.376C197.217 31.856 197.526 32.24 197.942 32.528C198.358 32.8053 198.886 32.944 199.526 32.944C200.198 32.944 200.742 32.7947 201.158 32.496C201.585 32.1973 201.841 31.8507 201.926 31.456H203.366C203.249 32.0427 203.014 32.5493 202.662 32.976C202.31 33.4027 201.867 33.728 201.334 33.952C200.801 34.176 200.198 34.288 199.526 34.288ZM214.499 34V31.44H214.243V28.48C214.243 27.8933 214.089 27.4507 213.779 27.152C213.481 26.8533 213.038 26.704 212.451 26.704C212.121 26.704 211.779 26.7093 211.427 26.72C211.075 26.7307 210.739 26.7413 210.419 26.752C210.099 26.7627 209.822 26.7787 209.587 26.8V25.456C209.822 25.4347 210.067 25.4187 210.323 25.408C210.59 25.3867 210.862 25.376 211.139 25.376C211.417 25.3653 211.683 25.36 211.939 25.36C212.814 25.36 213.529 25.4667 214.083 25.68C214.638 25.8827 215.049 26.2187 215.315 26.688C215.582 27.1573 215.715 27.792 215.715 28.592V34H214.499ZM211.699 34.224C211.059 34.224 210.505 34.1173 210.035 33.904C209.577 33.68 209.219 33.36 208.963 32.944C208.718 32.528 208.595 32.0267 208.595 31.44C208.595 30.832 208.729 30.3253 208.995 29.92C209.273 29.5147 209.673 29.2107 210.195 29.008C210.718 28.7947 211.347 28.688 212.083 28.688H214.403V29.84H212.019C211.401 29.84 210.926 29.9893 210.595 30.288C210.265 30.5867 210.099 30.9707 210.099 31.44C210.099 31.9093 210.265 32.288 210.595 32.576C210.926 32.864 211.401 33.008 212.019 33.008C212.382 33.008 212.729 32.944 213.059 32.816C213.39 32.6773 213.662 32.4533 213.875 32.144C214.099 31.824 214.222 31.3867 214.243 30.832L214.659 31.44C214.606 32.048 214.457 32.56 214.211 32.976C213.977 33.3813 213.646 33.6907 213.219 33.904C212.803 34.1173 212.297 34.224 211.699 34.224ZM218.535 37.2V25.456H219.751V29.152L219.463 29.12C219.516 28.2027 219.708 27.456 220.039 26.88C220.38 26.2933 220.823 25.8613 221.367 25.584C221.911 25.3067 222.503 25.168 223.143 25.168C223.761 25.168 224.321 25.2853 224.823 25.52C225.335 25.7547 225.772 26.0747 226.135 26.48C226.497 26.8853 226.775 27.3547 226.967 27.888C227.159 28.4213 227.255 28.9867 227.255 29.584V29.872C227.255 30.4693 227.153 31.0347 226.951 31.568C226.748 32.1013 226.46 32.5707 226.087 32.976C225.724 33.3813 225.287 33.7013 224.775 33.936C224.273 34.1707 223.719 34.288 223.111 34.288C222.503 34.288 221.921 34.1547 221.367 33.888C220.812 33.6213 220.353 33.1893 219.991 32.592C219.628 31.9947 219.42 31.2107 219.367 30.24L220.071 31.52V37.2H218.535ZM222.871 32.944C223.447 32.944 223.948 32.8107 224.375 32.544C224.801 32.2667 225.132 31.888 225.367 31.408C225.601 30.9173 225.719 30.3573 225.719 29.728C225.719 29.088 225.601 28.528 225.367 28.048C225.132 27.568 224.801 27.1947 224.375 26.928C223.948 26.6507 223.447 26.512 222.871 26.512C222.359 26.512 221.884 26.6293 221.447 26.864C221.009 27.088 220.657 27.4187 220.391 27.856C220.135 28.2827 220.007 28.8 220.007 29.408V30.144C220.007 30.7307 220.14 31.232 220.407 31.648C220.673 32.064 221.025 32.384 221.463 32.608C221.9 32.832 222.369 32.944 222.871 32.944ZM229.566 37.2V25.456H230.782V29.152L230.494 29.12C230.547 28.2027 230.739 27.456 231.07 26.88C231.411 26.2933 231.854 25.8613 232.398 25.584C232.942 25.3067 233.534 25.168 234.174 25.168C234.792 25.168 235.352 25.2853 235.854 25.52C236.366 25.7547 236.803 26.0747 237.166 26.48C237.528 26.8853 237.806 27.3547 237.998 27.888C238.19 28.4213 238.286 28.9867 238.286 29.584V29.872C238.286 30.4693 238.184 31.0347 237.982 31.568C237.779 32.1013 237.491 32.5707 237.118 32.976C236.755 33.3813 236.318 33.7013 235.806 33.936C235.304 34.1707 234.75 34.288 234.142 34.288C233.534 34.288 232.952 34.1547 232.398 33.888C231.843 33.6213 231.384 33.1893 231.022 32.592C230.659 31.9947 230.451 31.2107 230.398 30.24L231.102 31.52V37.2H229.566ZM233.902 32.944C234.478 32.944 234.979 32.8107 235.406 32.544C235.832 32.2667 236.163 31.888 236.398 31.408C236.632 30.9173 236.75 30.3573 236.75 29.728C236.75 29.088 236.632 28.528 236.398 28.048C236.163 27.568 235.832 27.1947 235.406 26.928C234.979 26.6507 234.478 26.512 233.902 26.512C233.39 26.512 232.915 26.6293 232.478 26.864C232.04 27.088 231.688 27.4187 231.422 27.856C231.166 28.2827 231.038 28.8 231.038 29.408V30.144C231.038 30.7307 231.171 31.232 231.438 31.648C231.704 32.064 232.056 32.384 232.494 32.608C232.931 32.832 233.4 32.944 233.902 32.944Z" fill="#666666"/>
<path d="M91.26 65L96.08 50.4H101.38L106.38 65H102.98L98.94 52.66L99.98 53.08H97.4L98.48 52.66L94.54 65H91.26ZM94.92 61.38L95.92 58.66H101.64L102.66 61.38H94.92ZM107.505 69V54.04H110.045V58.78L109.705 58.76C109.758 57.6667 109.985 56.7467 110.385 56C110.785 55.24 111.325 54.6733 112.005 54.3C112.685 53.9133 113.451 53.72 114.305 53.72C115.065 53.72 115.751 53.86 116.365 54.14C116.991 54.42 117.525 54.8133 117.965 55.32C118.418 55.8133 118.758 56.4 118.985 57.08C119.225 57.7467 119.345 58.48 119.345 59.28V59.74C119.345 60.5267 119.231 61.2667 119.005 61.96C118.778 62.64 118.445 63.2333 118.005 63.74C117.578 64.2467 117.051 64.6467 116.425 64.94C115.811 65.22 115.105 65.36 114.305 65.36C113.478 65.36 112.731 65.1933 112.065 64.86C111.411 64.5133 110.885 63.9933 110.485 63.3C110.085 62.5933 109.865 61.7 109.825 60.62L110.705 61.82V69H107.505ZM113.405 62.68C113.951 62.68 114.425 62.5467 114.825 62.28C115.238 62.0133 115.558 61.64 115.785 61.16C116.011 60.68 116.125 60.1267 116.125 59.5C116.125 58.8733 116.011 58.3267 115.785 57.86C115.558 57.3933 115.245 57.0333 114.845 56.78C114.445 56.5133 113.965 56.38 113.405 56.38C112.925 56.38 112.471 56.4933 112.045 56.72C111.618 56.9467 111.271 57.2733 111.005 57.7C110.751 58.1133 110.625 58.62 110.625 59.22V59.96C110.625 60.5333 110.758 61.0267 111.025 61.44C111.305 61.84 111.658 62.1467 112.085 62.36C112.511 62.5733 112.951 62.68 113.405 62.68ZM120.967 69V54.04H123.507V58.78L123.167 58.76C123.22 57.6667 123.447 56.7467 123.847 56C124.247 55.24 124.787 54.6733 125.467 54.3C126.147 53.9133 126.914 53.72 127.767 53.72C128.527 53.72 129.214 53.86 129.827 54.14C130.454 54.42 130.987 54.8133 131.427 55.32C131.88 55.8133 132.22 56.4 132.447 57.08C132.687 57.7467 132.807 58.48 132.807 59.28V59.74C132.807 60.5267 132.694 61.2667 132.467 61.96C132.24 62.64 131.907 63.2333 131.467 63.74C131.04 64.2467 130.514 64.6467 129.887 64.94C129.274 65.22 128.567 65.36 127.767 65.36C126.94 65.36 126.194 65.1933 125.527 64.86C124.874 64.5133 124.347 63.9933 123.947 63.3C123.547 62.5933 123.327 61.7 123.287 60.62L124.167 61.82V69H120.967ZM126.867 62.68C127.414 62.68 127.887 62.5467 128.287 62.28C128.7 62.0133 129.02 61.64 129.247 61.16C129.474 60.68 129.587 60.1267 129.587 59.5C129.587 58.8733 129.474 58.3267 129.247 57.86C129.02 57.3933 128.707 57.0333 128.307 56.78C127.907 56.5133 127.427 56.38 126.867 56.38C126.387 56.38 125.934 56.4933 125.507 56.72C125.08 56.9467 124.734 57.2733 124.467 57.7C124.214 58.1133 124.087 58.62 124.087 59.22V59.96C124.087 60.5333 124.22 61.0267 124.487 61.44C124.767 61.84 125.12 62.1467 125.547 62.36C125.974 62.5733 126.414 62.68 126.867 62.68ZM143.289 65.38C141.969 65.38 140.855 65.1733 139.949 64.76C139.042 64.3333 138.355 63.76 137.889 63.04C137.422 62.3067 137.189 61.4667 137.189 60.52H140.369C140.369 60.8933 140.469 61.24 140.669 61.56C140.882 61.88 141.202 62.14 141.629 62.34C142.055 62.5267 142.609 62.62 143.289 62.62C143.902 62.62 144.415 62.54 144.829 62.38C145.242 62.22 145.555 62 145.769 61.72C145.982 61.4267 146.089 61.0933 146.089 60.72C146.089 60.2533 145.889 59.8867 145.489 59.62C145.089 59.34 144.442 59.16 143.549 59.08L142.449 58.98C140.995 58.86 139.835 58.4067 138.969 57.62C138.102 56.8333 137.669 55.7933 137.669 54.5C137.669 53.5667 137.889 52.76 138.329 52.08C138.782 51.4 139.409 50.88 140.209 50.52C141.009 50.1467 141.955 49.96 143.049 49.96C144.195 49.96 145.175 50.16 145.989 50.56C146.815 50.9467 147.449 51.5 147.889 52.22C148.329 52.9267 148.549 53.76 148.549 54.72H145.349C145.349 54.36 145.262 54.0333 145.089 53.74C144.915 53.4333 144.655 53.1867 144.309 53C143.975 52.8133 143.555 52.72 143.049 52.72C142.569 52.72 142.162 52.8 141.829 52.96C141.509 53.12 141.269 53.34 141.109 53.62C140.949 53.8867 140.869 54.18 140.869 54.5C140.869 54.9133 141.015 55.2733 141.309 55.58C141.602 55.8867 142.082 56.0667 142.749 56.12L143.869 56.22C144.935 56.3133 145.875 56.5467 146.689 56.92C147.502 57.28 148.135 57.78 148.589 58.42C149.055 59.0467 149.289 59.8133 149.289 60.72C149.289 61.6533 149.042 62.4733 148.549 63.18C148.069 63.8733 147.382 64.4133 146.489 64.8C145.595 65.1867 144.529 65.38 143.289 65.38ZM155.749 65.14C154.642 65.14 153.749 65.0067 153.069 64.74C152.389 64.46 151.889 64 151.569 63.36C151.262 62.7067 151.109 61.8267 151.109 60.72V51.08H154.089V60.84C154.089 61.36 154.222 61.76 154.489 62.04C154.769 62.3067 155.162 62.44 155.669 62.44H157.289V65.14H155.749ZM149.449 56.38V54.04H157.289V56.38H149.449ZM164.141 65.38C163.181 65.38 162.328 65.2333 161.581 64.94C160.835 64.6333 160.201 64.22 159.681 63.7C159.175 63.18 158.788 62.5867 158.521 61.92C158.255 61.24 158.121 60.5267 158.121 59.78V59.32C158.121 58.56 158.255 57.84 158.521 57.16C158.801 56.4667 159.201 55.86 159.721 55.34C160.255 54.82 160.895 54.4133 161.641 54.12C162.388 53.8133 163.221 53.66 164.141 53.66C165.088 53.66 165.928 53.8133 166.661 54.12C167.408 54.4133 168.041 54.82 168.561 55.34C169.081 55.86 169.481 56.4667 169.761 57.16C170.041 57.84 170.181 58.56 170.181 59.32V59.78C170.181 60.5267 170.048 61.24 169.781 61.92C169.515 62.5867 169.121 63.18 168.601 63.7C168.095 64.22 167.468 64.6333 166.721 64.94C165.975 65.2333 165.115 65.38 164.141 65.38ZM164.141 62.68C164.768 62.68 165.288 62.5467 165.701 62.28C166.115 62.0133 166.428 61.64 166.641 61.16C166.868 60.68 166.981 60.1467 166.981 59.56C166.981 58.9333 166.868 58.3867 166.641 57.92C166.415 57.44 166.088 57.06 165.661 56.78C165.248 56.5 164.741 56.36 164.141 56.36C163.555 56.36 163.048 56.5 162.621 56.78C162.195 57.06 161.868 57.44 161.641 57.92C161.428 58.3867 161.321 58.9333 161.321 59.56C161.321 60.1467 161.428 60.68 161.641 61.16C161.855 61.64 162.175 62.0133 162.601 62.28C163.028 62.5467 163.541 62.68 164.141 62.68ZM171.815 65V54.04H174.355V58.74H174.295C174.295 57.1933 174.621 56 175.275 55.16C175.941 54.32 176.901 53.9 178.155 53.9H178.575V56.66H177.775C176.895 56.66 176.215 56.9 175.735 57.38C175.255 57.8467 175.015 58.5267 175.015 59.42V65H171.815ZM184.594 65.38C183.661 65.38 182.834 65.22 182.114 64.9C181.407 64.58 180.814 64.1533 180.334 63.62C179.867 63.0733 179.507 62.4667 179.254 61.8C179.014 61.12 178.894 60.4267 178.894 59.72V59.32C178.894 58.5867 179.014 57.8867 179.254 57.22C179.507 56.54 179.867 55.9333 180.334 55.4C180.801 54.8667 181.381 54.4467 182.074 54.14C182.781 53.82 183.581 53.66 184.474 53.66C185.647 53.66 186.634 53.9267 187.434 54.46C188.247 54.98 188.867 55.6667 189.294 56.52C189.721 57.36 189.934 58.28 189.934 59.28V60.36H180.234V58.54H187.994L186.954 59.38C186.954 58.7267 186.861 58.1667 186.674 57.7C186.487 57.2333 186.207 56.88 185.834 56.64C185.474 56.3867 185.021 56.26 184.474 56.26C183.914 56.26 183.441 56.3867 183.054 56.64C182.667 56.8933 182.374 57.2667 182.174 57.76C181.974 58.24 181.874 58.8333 181.874 59.54C181.874 60.1933 181.967 60.7667 182.154 61.26C182.341 61.74 182.634 62.1133 183.034 62.38C183.434 62.6467 183.954 62.78 184.594 62.78C185.181 62.78 185.661 62.6667 186.034 62.44C186.407 62.2133 186.661 61.9333 186.794 61.6H189.734C189.574 62.3333 189.261 62.9867 188.794 63.56C188.327 64.1333 187.741 64.58 187.034 64.9C186.327 65.22 185.514 65.38 184.594 65.38Z" fill="#1A1A1A"/>
<defs>
<linearGradient id="paint0_linear_315_580" x1="43.4878" y1="16.0244" x2="43.4878" y2="70.9876" gradientUnits="userSpaceOnUse">
<stop stop-color="#19E6FF"/>
<stop offset="1" stop-color="#1E51EE"/>
</linearGradient>
<clipPath id="clip0_315_580">
<rect width="55" height="55" fill="white" transform="translate(16 16)"/>
</clipPath>
</defs>
</svg>
