 <svg width="40" height="40" viewBox="0 0 40 40" fill="none" xmlns="http://www.w3.org/2000/svg">
              <path
                d="M21.668 5C29.0318 5 35.0013 10.9695 35.0013 18.3333M22.5013 10.8333C26.1831 10.8333 29.168 13.8181 29.168 17.5"
                stroke="#477BFF" stroke-width="2.5" stroke-linecap="round" stroke-linejoin="round" />
              <path
                d="M15.2638 9.52038L14.5927 8.01042C14.1539 7.02313 13.9345 6.52947 13.6063 6.15168C13.1951 5.67823 12.6591 5.3299 12.0595 5.14642C11.581 5 11.0408 5 9.96035 5C8.37985 5 7.58958 5 6.92622 5.30382C6.14478 5.6617 5.43905 6.4388 5.15788 7.251C4.91918 7.94048 4.98755 8.64905 5.1243 10.0662C6.57985 25.1503 14.8497 33.4202 29.9338 34.8757C31.351 35.0125 32.0595 35.0808 32.749 34.8422C33.5612 34.561 34.3383 33.8552 34.6962 33.0738C35 32.4103 35 31.6202 35 30.0397C35 28.9592 35 28.419 34.8537 27.9405C34.6702 27.3408 34.3218 26.8048 33.8483 26.3937C33.4705 26.0655 32.9768 25.8462 31.9895 25.4073L30.4797 24.7362C29.4103 24.261 28.8758 24.0235 28.3325 23.9718C27.8127 23.9223 27.2885 23.9953 26.8018 24.1848C26.2933 24.3828 25.8438 24.7573 24.945 25.5063C24.0502 26.252 23.6028 26.6248 23.0562 26.8245C22.5717 27.0015 21.931 27.0672 21.4205 26.9918C20.8448 26.907 20.4038 26.6715 19.5222 26.2002C16.7787 24.7342 15.2659 23.2213 13.7998 20.4778C13.3286 19.5962 13.093 19.1552 13.0081 18.5795C12.9329 18.069 12.9985 17.4283 13.1755 16.9438C13.3752 16.3971 13.748 15.9498 14.4937 15.055C15.2427 14.1561 15.6172 13.7067 15.8153 13.1982C16.0048 12.7116 16.0777 12.1873 16.0282 11.6675C15.9766 11.1242 15.739 10.5896 15.2638 9.52038Z"
                stroke="#477BFF" stroke-width="2.5" stroke-linecap="round" />
            </svg>