<svg preserveAspectRatio="none" width="100%" height="100%" overflow="visible" style="display: block;" viewBox="0 0 588 476" fill="none" xmlns="http://www.w3.org/2000/svg">
<g id="Chart 3">
<g id="Group" filter="url(#filter0_d_1304_248)">
<path id="Vector" d="M558.714 4.51196H29.2885C16.8462 4.51196 6.75977 14.6121 6.75977 27.0712V444.417C6.75977 456.876 16.8462 466.976 29.2885 466.976H558.714C571.156 466.976 581.242 456.876 581.242 444.417V27.0712C581.242 14.6121 571.156 4.51196 558.714 4.51196Z" fill="var(--fill-0, white)"/>
</g>
<path id="Vector_2" d="M85.017 427.498L81.8809 416.013H83.2921L85.689 425.367H85.801L88.2426 416.013H89.8106L92.2524 425.367H92.3644L94.7612 416.013H96.1725L93.0364 427.498H91.6028L89.0715 418.345H88.9819L86.4506 427.498H85.017ZM100.529 427.677C99.7006 427.677 98.9857 427.494 98.3846 427.128C97.7872 426.758 97.3261 426.241 97.0013 425.58C96.6802 424.915 96.5197 424.141 96.5197 423.259C96.5197 422.376 96.6802 421.598 97.0013 420.925C97.3261 420.249 97.7779 419.721 98.3566 419.344C98.9389 418.962 99.6185 418.772 100.395 418.772C100.843 418.772 101.285 418.847 101.722 418.996C102.159 419.146 102.557 419.389 102.915 419.725C103.274 420.058 103.559 420.5 103.772 421.049C103.985 421.598 104.091 422.275 104.091 423.079V423.64H97.4605V422.495H102.747C102.747 422.01 102.65 421.576 102.456 421.195C102.266 420.813 101.993 420.512 101.638 420.292C101.287 420.071 100.873 419.961 100.395 419.961C99.8686 419.961 99.4132 420.091 99.0286 420.353C98.6478 420.611 98.3547 420.948 98.1493 421.363C97.9441 421.778 97.8413 422.223 97.8413 422.697V423.461C97.8413 424.11 97.9533 424.662 98.1774 425.114C98.4051 425.563 98.7205 425.905 99.1238 426.141C99.527 426.372 99.9955 426.488 100.529 426.488C100.877 426.488 101.19 426.44 101.47 426.343C101.754 426.241 101.999 426.092 102.204 425.894C102.409 425.692 102.568 425.441 102.68 425.142L103.957 425.501C103.822 425.935 103.596 426.317 103.279 426.645C102.962 426.971 102.57 427.225 102.103 427.408C101.636 427.588 101.112 427.677 100.529 427.677ZM109.708 427.677C108.879 427.677 108.164 427.494 107.563 427.128C106.966 426.758 106.505 426.241 106.18 425.58C105.859 424.915 105.698 424.141 105.698 423.259C105.698 422.376 105.859 421.598 106.18 420.925C106.505 420.249 106.957 419.721 107.535 419.344C108.118 418.962 108.797 418.772 109.574 418.772C110.022 418.772 110.464 418.847 110.901 418.996C111.338 419.146 111.735 419.389 112.094 419.725C112.452 420.058 112.737 420.5 112.95 421.049C113.163 421.598 113.27 422.275 113.27 423.079V423.64H106.639V422.495H111.926C111.926 422.01 111.829 421.576 111.635 421.195C111.444 420.813 111.172 420.512 110.817 420.292C110.466 420.071 110.052 419.961 109.574 419.961C109.047 419.961 108.592 420.091 108.207 420.353C107.827 420.611 107.533 420.948 107.328 421.363C107.123 421.778 107.02 422.223 107.02 422.697V423.461C107.02 424.11 107.132 424.662 107.356 425.114C107.584 425.563 107.899 425.905 108.302 426.141C108.706 426.372 109.174 426.488 109.708 426.488C110.055 426.488 110.369 426.44 110.649 426.343C110.933 426.241 111.177 426.092 111.383 425.894C111.588 425.692 111.747 425.441 111.859 425.142L113.135 425.501C113.001 425.935 112.775 426.317 112.458 426.645C112.14 426.971 111.748 427.225 111.282 427.408C110.815 427.588 110.291 427.677 109.708 427.677ZM116.512 424.357L116.49 422.72H116.759L120.522 418.885H122.158L118.148 422.944H118.035L116.512 424.357ZM115.28 427.498V416.013H116.602V427.498H115.28ZM120.746 427.498L117.386 423.236L118.327 422.316L122.426 427.498H120.746ZM132.304 416.013V427.498H130.915V417.471H130.847L128.047 419.332V417.92L130.915 416.013H132.304Z" fill="var(--fill-0, #615E83)"/>
<path id="Vector_3" d="M211.013 427.498L207.877 416.013H209.288L211.685 425.367H211.798L214.239 416.013H215.807L218.249 425.367H218.361L220.758 416.013H222.169L219.033 427.498H217.599L215.068 418.345H214.978L212.447 427.498H211.013ZM226.526 427.677C225.697 427.677 224.982 427.494 224.381 427.128C223.783 426.758 223.322 426.241 222.998 425.58C222.677 424.915 222.516 424.141 222.516 423.259C222.516 422.376 222.677 421.598 222.998 420.925C223.322 420.249 223.774 419.722 224.353 419.344C224.936 418.962 225.615 418.772 226.391 418.772C226.839 418.772 227.282 418.847 227.719 418.996C228.156 419.146 228.554 419.389 228.912 419.725C229.27 420.058 229.555 420.5 229.768 421.049C229.981 421.598 230.088 422.275 230.088 423.079V423.64H223.457V422.495H228.744C228.744 422.01 228.646 421.576 228.452 421.195C228.262 420.813 227.989 420.512 227.634 420.292C227.284 420.071 226.87 419.961 226.391 419.961C225.865 419.961 225.41 420.091 225.025 420.353C224.644 420.611 224.351 420.948 224.146 421.363C223.941 421.778 223.837 422.223 223.837 422.697V423.461C223.837 424.11 223.95 424.662 224.174 425.114C224.402 425.563 224.717 425.905 225.12 426.141C225.524 426.372 225.992 426.488 226.526 426.488C226.873 426.488 227.186 426.44 227.467 426.343C227.75 426.241 227.995 426.092 228.2 425.894C228.406 425.692 228.564 425.441 228.676 425.143L229.953 425.501C229.819 425.935 229.593 426.317 229.276 426.645C228.958 426.971 228.566 427.225 228.1 427.409C227.633 427.588 227.108 427.677 226.526 427.677ZM235.704 427.677C234.875 427.677 234.161 427.494 233.56 427.128C232.963 426.758 232.501 426.241 232.176 425.58C231.855 424.915 231.695 424.141 231.695 423.259C231.695 422.376 231.855 421.598 232.176 420.925C232.501 420.249 232.954 419.722 233.531 419.344C234.114 418.962 234.794 418.772 235.57 418.772C236.019 418.772 236.46 418.847 236.897 418.996C237.334 419.146 237.732 419.389 238.09 419.725C238.448 420.058 238.734 420.5 238.947 421.049C239.16 421.598 239.266 422.275 239.266 423.079V423.64H232.636V422.495H237.922C237.922 422.01 237.825 421.576 237.63 421.195C237.44 420.813 237.168 420.512 236.814 420.292C236.462 420.071 236.048 419.961 235.57 419.961C235.044 419.961 234.588 420.091 234.204 420.353C233.823 420.611 233.53 420.948 233.324 421.363C233.119 421.778 233.017 422.223 233.017 422.697V423.461C233.017 424.11 233.128 424.662 233.352 425.114C233.58 425.563 233.895 425.905 234.298 426.141C234.702 426.372 235.17 426.488 235.704 426.488C236.051 426.488 236.365 426.44 236.645 426.343C236.929 426.241 237.173 426.092 237.379 425.894C237.584 425.692 237.743 425.441 237.855 425.143L239.132 425.501C238.998 425.935 238.772 426.317 238.454 426.645C238.137 426.971 237.745 427.225 237.278 427.409C236.812 427.588 236.287 427.677 235.704 427.677ZM242.509 424.357L242.487 422.72H242.755L246.518 418.885H248.154L244.144 422.944H244.032L242.509 424.357ZM241.277 427.498V416.013H242.598V427.498H241.277ZM246.742 427.498L243.382 423.236L244.324 422.316L248.423 427.498H246.742ZM254.268 427.498V426.488L258.054 422.338C258.498 421.852 258.864 421.43 259.151 421.072C259.438 420.709 259.651 420.369 259.79 420.051C259.932 419.729 260.003 419.393 260.003 419.041C260.003 418.638 259.906 418.288 259.711 417.992C259.521 417.697 259.259 417.469 258.927 417.309C258.595 417.148 258.222 417.067 257.807 417.067C257.367 417.067 256.982 417.159 256.654 417.343C256.328 417.522 256.077 417.774 255.898 418.1C255.722 418.424 255.634 418.806 255.634 419.243H254.313C254.313 418.57 254.467 417.98 254.777 417.471C255.087 416.963 255.509 416.567 256.043 416.282C256.581 415.998 257.183 415.856 257.852 415.856C258.524 415.856 259.12 415.998 259.639 416.282C260.157 416.567 260.565 416.95 260.859 417.432C261.154 417.915 261.301 418.45 261.301 419.041C261.301 419.463 261.225 419.877 261.072 420.281C260.923 420.68 260.662 421.127 260.288 421.621C259.918 422.111 259.404 422.708 258.748 423.416L256.172 426.175V426.264H261.503V427.498H254.268Z" fill="var(--fill-0, #615E83)"/>
<path id="Vector_4" d="M364.343 427.498L361.207 416.013H362.617L365.014 425.367H365.127L367.568 416.013H369.136L371.578 425.367H371.69L374.087 416.013H375.498L372.362 427.498H370.928L368.397 418.345H368.308L365.776 427.498H364.343ZM379.855 427.677C379.026 427.677 378.311 427.494 377.71 427.128C377.113 426.758 376.652 426.241 376.327 425.58C376.006 424.915 375.845 424.141 375.845 423.259C375.845 422.376 376.006 421.598 376.327 420.925C376.652 420.249 377.103 419.721 377.682 419.344C378.265 418.962 378.944 418.772 379.721 418.772C380.168 418.772 380.611 418.847 381.048 418.996C381.485 419.146 381.883 419.389 382.241 419.725C382.599 420.058 382.885 420.5 383.097 421.049C383.31 421.598 383.417 422.275 383.417 423.079V423.64H376.786V422.495H382.073C382.073 422.01 381.976 421.576 381.781 421.195C381.591 420.813 381.318 420.512 380.964 420.292C380.613 420.071 380.199 419.961 379.721 419.961C379.194 419.961 378.739 420.091 378.355 420.353C377.973 420.611 377.68 420.948 377.475 421.363C377.27 421.778 377.168 422.223 377.168 422.697V423.461C377.168 424.11 377.279 424.662 377.503 425.114C377.731 425.563 378.046 425.905 378.449 426.141C378.853 426.372 379.321 426.488 379.855 426.488C380.202 426.488 380.516 426.44 380.796 426.343C381.08 426.241 381.324 426.092 381.529 425.894C381.735 425.692 381.894 425.441 382.006 425.142L383.283 425.501C383.148 425.935 382.922 426.317 382.605 426.645C382.287 426.971 381.895 427.225 381.429 427.409C380.962 427.588 380.438 427.677 379.855 427.677ZM389.033 427.677C388.205 427.677 387.49 427.494 386.889 427.128C386.292 426.758 385.831 426.241 385.505 425.58C385.184 424.915 385.024 424.141 385.024 423.259C385.024 422.376 385.184 421.598 385.505 420.925C385.831 420.249 386.283 419.721 386.86 419.344C387.443 418.962 388.123 418.772 388.899 418.772C389.348 418.772 389.79 418.847 390.226 418.996C390.663 419.146 391.061 419.389 391.419 419.725C391.777 420.058 392.064 420.5 392.276 421.049C392.489 421.598 392.595 422.275 392.595 423.079V423.64H385.965V422.495H391.251C391.251 422.01 391.154 421.576 390.961 421.195C390.77 420.813 390.498 420.512 390.143 420.292C389.791 420.071 389.377 419.961 388.899 419.961C388.373 419.961 387.917 420.091 387.533 420.353C387.152 420.611 386.859 420.948 386.653 421.363C386.448 421.778 386.346 422.223 386.346 422.697V423.461C386.346 424.11 386.457 424.662 386.681 425.114C386.909 425.563 387.225 425.905 387.628 426.141C388.031 426.372 388.499 426.488 389.033 426.488C389.381 426.488 389.695 426.44 389.975 426.343C390.258 426.241 390.503 426.092 390.708 425.894C390.913 425.692 391.072 425.441 391.184 425.142L392.461 425.501C392.327 425.935 392.101 426.317 391.783 426.645C391.467 426.971 391.075 427.225 390.607 427.409C390.141 427.588 389.616 427.677 389.033 427.677ZM395.838 424.357L395.816 422.72H396.085L399.848 418.885H401.483L397.474 422.944H397.361L395.838 424.357ZM394.606 427.498V416.013H395.927V427.498H394.606ZM400.071 427.498L396.711 423.236L397.653 422.316L401.752 427.498H400.071ZM411.472 427.654C410.733 427.654 410.074 427.528 409.495 427.273C408.921 427.019 408.463 426.666 408.123 426.214C407.787 425.757 407.605 425.228 407.575 424.627H408.986C409.015 424.997 409.143 425.316 409.367 425.586C409.591 425.851 409.884 426.056 410.246 426.203C410.608 426.348 411.009 426.422 411.449 426.422C411.943 426.422 412.38 426.335 412.761 426.163C413.141 425.991 413.44 425.752 413.656 425.446C413.872 425.139 413.982 424.784 413.982 424.38C413.982 423.957 413.877 423.586 413.667 423.264C413.459 422.938 413.153 422.685 412.749 422.501C412.346 422.318 411.853 422.227 411.27 422.227H410.352V420.993H411.27C411.727 420.993 412.125 420.91 412.469 420.746C412.816 420.581 413.087 420.35 413.281 420.051C413.479 419.752 413.578 419.4 413.578 418.996C413.578 418.607 413.492 418.27 413.321 417.981C413.148 417.693 412.906 417.469 412.593 417.309C412.283 417.148 411.917 417.067 411.495 417.067C411.099 417.067 410.725 417.141 410.375 417.286C410.028 417.428 409.744 417.636 409.523 417.909C409.304 418.177 409.184 418.503 409.165 418.885H407.821C407.844 418.282 408.024 417.755 408.364 417.303C408.704 416.846 409.148 416.492 409.697 416.237C410.25 415.983 410.856 415.856 411.517 415.856C412.227 415.856 412.835 416 413.343 416.288C413.851 416.572 414.241 416.948 414.513 417.415C414.786 417.883 414.922 418.387 414.922 418.93C414.922 419.576 414.752 420.128 414.412 420.583C414.076 421.04 413.619 421.356 413.04 421.531V421.621C413.764 421.741 414.33 422.048 414.738 422.546C415.144 423.04 415.348 423.651 415.348 424.38C415.348 425.004 415.178 425.565 414.838 426.062C414.502 426.556 414.043 426.945 413.46 427.228C412.878 427.512 412.215 427.654 411.472 427.654Z" fill="var(--fill-0, #615E83)"/>
<path id="Vector_5" d="M491.478 427.498L488.342 416.013H489.753L492.149 425.367H492.262L494.704 416.013H496.272L498.713 425.367H498.826L501.222 416.013H502.633L499.497 427.498H498.063L495.532 418.345H495.443L492.912 427.498H491.478ZM506.99 427.677C506.161 427.677 505.447 427.494 504.845 427.128C504.248 426.758 503.786 426.241 503.462 425.58C503.141 424.915 502.981 424.141 502.981 423.259C502.981 422.376 503.141 421.598 503.462 420.925C503.786 420.249 504.238 419.721 504.817 419.344C505.4 418.962 506.079 418.772 506.856 418.772C507.304 418.772 507.746 418.847 508.183 418.996C508.62 419.146 509.018 419.389 509.376 419.725C509.734 420.058 510.02 420.5 510.233 421.049C510.446 421.598 510.552 422.275 510.552 423.079V423.64H503.922V422.495H509.208C509.208 422.01 509.111 421.576 508.916 421.195C508.726 420.813 508.453 420.512 508.1 420.292C507.748 420.071 507.334 419.961 506.856 419.961C506.33 419.961 505.874 420.091 505.49 420.353C505.109 420.611 504.816 420.948 504.61 421.363C504.405 421.778 504.302 422.223 504.302 422.697V423.461C504.302 424.11 504.414 424.662 504.638 425.114C504.866 425.563 505.181 425.905 505.584 426.141C505.988 426.372 506.456 426.488 506.99 426.488C507.337 426.488 507.651 426.44 507.931 426.343C508.215 426.241 508.459 426.092 508.665 425.894C508.87 425.692 509.029 425.441 509.14 425.142L510.418 425.501C510.283 425.935 510.057 426.317 509.74 426.645C509.423 426.971 509.031 427.225 508.564 427.409C508.097 427.588 507.572 427.677 506.99 427.677ZM516.169 427.677C515.34 427.677 514.625 427.494 514.025 427.128C513.427 426.758 512.966 426.241 512.641 425.58C512.319 424.915 512.159 424.141 512.159 423.259C512.159 422.376 512.319 421.598 512.641 420.925C512.966 420.249 513.418 419.721 513.997 419.344C514.579 418.962 515.258 418.772 516.034 418.772C516.483 418.772 516.925 418.847 517.362 418.996C517.798 419.146 518.196 419.389 518.555 419.725C518.913 420.058 519.198 420.5 519.411 421.049C519.624 421.598 519.731 422.275 519.731 423.079V423.64H513.1V422.495H518.386C518.386 422.01 518.289 421.576 518.096 421.195C517.905 420.813 517.633 420.512 517.278 420.292C516.926 420.071 516.513 419.961 516.034 419.961C515.508 419.961 515.053 420.091 514.668 420.353C514.287 420.611 513.994 420.948 513.789 421.363C513.583 421.778 513.481 422.223 513.481 422.697V423.461C513.481 424.11 513.593 424.662 513.817 425.114C514.045 425.563 514.36 425.905 514.764 426.141C515.167 426.372 515.635 426.488 516.169 426.488C516.516 426.488 516.83 426.44 517.11 426.343C517.394 426.241 517.638 426.092 517.843 425.894C518.048 425.692 518.207 425.441 518.32 425.142L519.596 425.501C519.462 425.935 519.236 426.317 518.919 426.645C518.601 426.971 518.209 427.225 517.743 427.409C517.276 427.588 516.752 427.677 516.169 427.677ZM522.973 424.357L522.951 422.72H523.22L526.983 418.885H528.618L524.609 422.944H524.496L522.973 424.357ZM521.741 427.498V416.013H523.063V427.498H521.741ZM527.207 427.498L523.847 423.236L524.788 422.316L528.887 427.498H527.207ZM534.464 425.142V423.999L539.504 416.013H540.333V417.785H539.773L535.964 423.819V423.908H542.752V425.142H534.464ZM539.862 427.498V424.795V424.263V416.013H541.183V427.498H539.862Z" fill="var(--fill-0, #615E83)"/>
<path id="Vector_6" d="M65.3155 374.207C64.4717 374.207 63.753 373.977 63.1594 373.518C62.5657 373.054 62.1121 372.383 61.7985 371.505C61.4849 370.623 61.3281 369.557 61.3281 368.308C61.3281 367.067 61.4849 366.007 61.7985 365.128C62.1158 364.246 62.5714 363.573 63.165 363.11C63.7624 362.642 64.4791 362.409 65.3155 362.409C66.1518 362.409 66.8667 362.642 67.4603 363.11C68.0577 363.573 68.5131 364.246 68.8267 365.128C69.1441 366.007 69.3027 367.067 69.3027 368.308C69.3027 369.557 69.1459 370.623 68.8323 371.505C68.5187 372.383 68.0651 373.054 67.4715 373.518C66.8779 373.977 66.1592 374.207 65.3155 374.207ZM65.3155 372.974C66.1518 372.974 66.8014 372.571 67.2643 371.763C67.7273 370.955 67.9587 369.804 67.9587 368.308C67.9587 367.314 67.8523 366.467 67.6396 365.768C67.4305 365.068 67.128 364.536 66.7323 364.169C66.3403 363.803 65.868 363.62 65.3155 363.62C64.4867 363.62 63.8388 364.03 63.3722 364.848C62.9055 365.663 62.6722 366.817 62.6722 368.308C62.6722 369.303 62.7767 370.148 62.9858 370.842C63.1949 371.538 63.4954 372.067 63.8874 372.429C64.2831 372.793 64.7591 372.974 65.3155 372.974Z" fill="var(--fill-0, #615E83)"/>
<path id="Vector_7" d="M59.555 295.981V307.464H58.1662V297.438H58.0989L55.2988 299.3V297.887L58.1662 295.981H59.555ZM64.1079 304.324L64.0855 302.688H64.3544L68.1177 298.851H69.7529L65.7431 302.911H65.6312L64.1079 304.324ZM62.8759 307.464V295.981H64.1976V307.464H62.8759ZM68.3417 307.464L64.9816 303.203L65.9224 302.284L70.0217 307.464H68.3417Z" fill="var(--fill-0, #615E83)"/>
<path id="Vector_8" d="M56.8449 241.022C56.1878 241.022 55.5961 240.891 55.0696 240.629C54.5432 240.368 54.1214 240.009 53.8041 239.552C53.4866 239.096 53.3131 238.576 53.2832 237.993H54.6273C54.6795 238.513 54.9147 238.943 55.3329 239.284C55.7547 239.62 56.2588 239.788 56.8449 239.788C57.3153 239.788 57.7335 239.677 58.0994 239.457C58.469 239.236 58.7584 238.934 58.9674 238.548C59.1802 238.16 59.2866 237.72 59.2866 237.231C59.2866 236.73 59.1765 236.283 58.9562 235.891C58.7397 235.495 58.4409 235.182 58.0602 234.955C57.6793 234.726 57.2444 234.61 56.7553 234.606C56.4043 234.603 56.0441 234.657 55.6745 234.77C55.3048 234.878 55.0006 235.018 54.7617 235.189L53.4624 235.032L54.1569 229.38H60.1154V230.614H55.3217L54.9185 234H54.9857C55.2209 233.814 55.5158 233.658 55.8705 233.536C56.2251 233.411 56.5948 233.351 56.9794 233.351C57.6813 233.351 58.3065 233.519 58.8553 233.855C59.408 234.187 59.841 234.644 60.1546 235.223C60.472 235.803 60.6306 236.465 60.6306 237.208C60.6306 237.941 60.4664 238.596 60.1378 239.171C59.813 239.743 59.3651 240.195 58.7937 240.528C58.2225 240.857 57.5729 241.022 56.8449 241.022ZM64.1097 237.725L64.0873 236.087H64.3562L68.1195 232.251H69.7548L65.745 236.311H65.633L64.1097 237.725ZM62.8777 240.865V229.38H64.1994V240.865H62.8777ZM68.3436 240.865L64.9834 236.602L65.9242 235.683L70.0235 240.865H68.3436Z" fill="var(--fill-0, #615E83)"/>
<path id="Vector_9" d="M49.6975 162.78V174.264H48.3088V164.238H48.2415L45.4414 166.099V164.686L48.3088 162.78H49.6975ZM56.737 174.421C55.8933 174.421 55.1745 174.191 54.581 173.731C53.9873 173.267 53.5337 172.597 53.2201 171.719C52.9064 170.836 52.7496 169.771 52.7496 168.522C52.7496 167.28 52.9064 166.221 53.2201 165.342C53.5374 164.46 53.9929 163.787 54.5865 163.323C55.1838 162.856 55.9007 162.623 56.737 162.623C57.5732 162.623 58.2882 162.856 58.8818 163.323C59.4792 163.787 59.9347 164.46 60.2483 165.342C60.5656 166.221 60.7243 167.28 60.7243 168.522C60.7243 169.771 60.5675 170.836 60.2539 171.719C59.9403 172.597 59.4867 173.267 58.8931 173.731C58.2995 174.191 57.5808 174.421 56.737 174.421ZM56.737 173.187C57.5732 173.187 58.2229 172.783 58.6858 171.976C59.1488 171.168 59.3803 170.018 59.3803 168.522C59.3803 167.527 59.2738 166.681 59.061 165.982C58.852 165.283 58.5496 164.75 58.1538 164.384C57.7618 164.017 57.2895 163.834 56.737 163.834C55.9081 163.834 55.2604 164.244 54.7938 165.061C54.3271 165.877 54.0937 167.03 54.0937 168.522C54.0937 169.516 54.1982 170.362 54.4073 171.057C54.6163 171.751 54.917 172.28 55.309 172.644C55.7047 173.006 56.1807 173.187 56.737 173.187ZM64.1068 171.124L64.0844 169.486H64.3533L68.1166 165.65H69.7518L65.742 169.711H65.6301L64.1068 171.124ZM62.8748 174.264V162.78H64.1965V174.264H62.8748ZM68.3406 174.264L64.9805 170.002L65.9213 169.083L70.0206 174.264H68.3406Z" fill="var(--fill-0, #615E83)"/>
<path id="Vector_10" d="M82.0723 168.625V397.167" stroke="var(--stroke-0, #E5E5EF)"/>
<path id="Vector_11" d="M235.646 168.625V397.167" stroke="var(--stroke-0, #E5E5EF)"/>
<path id="Vector_12" d="M389.225 168.625V397.167" stroke="var(--stroke-0, #E5E5EF)"/>
<path id="Vector_13" d="M542.799 168.625V397.167" stroke="var(--stroke-0, #E5E5EF)"/>
<path id="Vector_14" d="M543.664 397.731H81.5098" stroke="var(--stroke-0, #E5E5EF)"/>
<path id="Vector_15" d="M82.3555 300.393H542.82" stroke="var(--stroke-0, #E5E5EF)" stroke-width="1.5" stroke-linecap="round" stroke-dasharray="4 7"/>
<path id="Vector_16" d="M82.3555 233.843H542.82" stroke="var(--stroke-0, #E5E5EF)" stroke-width="1.5" stroke-linecap="round" stroke-dasharray="4 7"/>
<path id="Vector_17" d="M82.3555 167.779H542.82" stroke="var(--stroke-0, #E5E5EF)" stroke-width="1.5" stroke-linecap="round" stroke-dasharray="4 7"/>
<path id="Vector_18" d="M83.1426 240.669L100.56 223.766L156.707 236.963L175.27 318.003L193.145 313.14L211.709 227.47L229.126 245.763L266.481 209.874L284.356 227.47L303.378 337.221L319.878 340.232L339.816 245.763L357.463 213.347L393.672 204.085L411.548 188.109L430.569 319.161L448.903 331.201L466.091 204.085L485.113 209.874L521.551 184.405L539.656 201.539" stroke="var(--stroke-0, #FCB5C3)" stroke-width="3" stroke-linecap="round" stroke-linejoin="round"/>
<path id="Vector_19" d="M83.1426 241.37L99.2978 219.2L131.352 237.699L147.122 240.382L162.8 326.107L178.778 313.373L193.913 211.726L224.817 230.945L241.636 216.125L257.403 240.382L273.38 337.685L289.358 355.05L305.335 230.945L321.103 201.539L352.427 216.125L367.353 201.539L383.961 312.91L398.677 333.979L415.075 209.179L429.581 230.945L447.66 237.659L478.144 221.914L494.491 341.493H510.823L526.712 240.382L541.719 230.945" stroke="var(--stroke-0, #962DFF)" stroke-width="3" stroke-linecap="round" stroke-linejoin="round"/>
<path id="Vector_20" d="M44.3379 123.636H543.664" stroke="var(--stroke-0, #E5E5EF)"/>
<path id="Vector_21" d="M447.616 55.216C447.616 52.1012 445.094 49.5762 441.984 49.5762C438.873 49.5762 436.352 52.1012 436.352 55.216C436.352 58.3308 438.873 60.8558 441.984 60.8558C445.094 60.8558 447.616 58.3308 447.616 55.216Z" fill="var(--fill-0, #962DFF)"/>
<path id="Vector_22" d="M458.016 60.856V49.3713H459.405V59.6224H464.736V60.856H458.016ZM469.238 61.0579C468.693 61.0579 468.199 60.9552 467.755 60.7495C467.31 60.5402 466.957 60.2393 466.696 59.8467C466.435 59.4504 466.304 58.9719 466.304 58.411C466.304 57.9176 466.401 57.5176 466.595 57.211C466.789 56.9007 467.049 56.6577 467.374 56.482C467.698 56.3063 468.057 56.1754 468.449 56.0895C468.844 55.9998 469.242 55.9287 469.642 55.8764C470.164 55.8091 470.588 55.7586 470.913 55.7249C471.241 55.6876 471.48 55.6259 471.63 55.5399C471.783 55.4539 471.86 55.3044 471.86 55.0913V55.0465C471.86 54.4931 471.709 54.0632 471.406 53.7566C471.107 53.45 470.653 53.2968 470.045 53.2968C469.414 53.2968 468.92 53.4352 468.56 53.7117C468.202 53.9884 467.951 54.2837 467.804 54.5979L466.551 54.1492C466.775 53.6258 467.073 53.2182 467.446 52.9267C467.824 52.6314 468.234 52.4257 468.678 52.3098C469.127 52.1902 469.567 52.1304 470 52.1304C470.276 52.1304 470.593 52.1641 470.952 52.2313C471.314 52.2949 471.664 52.4275 471.999 52.6295C472.339 52.8314 472.621 53.136 472.845 53.5436C473.069 53.9511 473.181 54.4969 473.181 55.181V60.856H471.86V59.6897H471.792C471.703 59.8766 471.553 60.0766 471.344 60.2897C471.135 60.5027 470.857 60.6841 470.51 60.8337C470.162 60.9831 469.738 61.0579 469.238 61.0579ZM469.44 59.8691C469.963 59.8691 470.403 59.7663 470.761 59.5607C471.124 59.355 471.397 59.0896 471.579 58.7643C471.766 58.4391 471.86 58.097 471.86 57.7381V56.5269C471.803 56.5941 471.68 56.6558 471.49 56.7119C471.303 56.7642 471.087 56.811 470.84 56.8521C470.597 56.8895 470.36 56.9232 470.129 56.953C469.901 56.9792 469.716 57.0017 469.574 57.0204C469.23 57.0653 468.909 57.1381 468.611 57.2391C468.316 57.3362 468.077 57.484 467.894 57.682C467.715 57.8765 467.625 58.1419 467.625 58.4784C467.625 58.9383 467.795 59.2859 468.136 59.5214C468.479 59.7532 468.914 59.8691 469.44 59.8691ZM481.687 54.1716L480.499 54.5081C480.424 54.3099 480.315 54.1175 480.168 53.9304C480.026 53.7398 479.832 53.5828 479.586 53.4594C479.34 53.336 479.024 53.2744 478.64 53.2744C478.114 53.2744 477.674 53.3959 477.324 53.6389C476.977 53.8781 476.802 54.1829 476.802 54.553C476.802 54.8819 476.922 55.1418 477.162 55.3324C477.4 55.5231 477.773 55.6819 478.281 55.8091L479.558 56.1231C480.327 56.31 480.9 56.596 481.278 56.9811C481.654 57.3624 481.843 57.8541 481.843 58.4559C481.843 58.9494 481.701 59.3906 481.417 59.7794C481.137 60.1682 480.745 60.4748 480.241 60.699C479.738 60.9234 479.151 61.0355 478.483 61.0355C477.606 61.0355 476.879 60.8449 476.304 60.4635C475.73 60.0822 475.365 59.5251 475.212 58.7924L476.467 58.4784C476.586 58.942 476.812 59.2896 477.145 59.5214C477.48 59.7532 477.919 59.8691 478.46 59.8691C479.077 59.8691 479.565 59.7382 479.928 59.4765C480.293 59.2111 480.477 58.8934 480.477 58.5233C480.477 58.2241 480.372 57.9737 480.163 57.7718C479.954 57.5662 479.633 57.4129 479.199 57.312L477.767 56.9755C476.978 56.7886 476.399 56.4988 476.03 56.1063C475.665 55.71 475.481 55.2146 475.481 54.6202C475.481 54.1343 475.617 53.7043 475.89 53.3305C476.166 52.9566 476.541 52.6632 477.015 52.45C477.494 52.2369 478.035 52.1304 478.64 52.1304C479.491 52.1304 480.159 52.3173 480.645 52.6912C481.134 53.0651 481.48 53.5586 481.687 54.1716ZM487.573 52.2426V53.3641H483.116V52.2426H487.573ZM484.415 50.1788H485.736V58.3886C485.736 58.7625 485.79 59.0429 485.899 59.2298C486.011 59.413 486.153 59.5364 486.324 59.5999C486.5 59.6597 486.685 59.6897 486.879 59.6897C487.025 59.6897 487.144 59.6822 487.238 59.6673C487.331 59.6485 487.405 59.6335 487.462 59.6224L487.73 60.8112C487.641 60.8449 487.516 60.8785 487.355 60.9122C487.195 60.9495 486.991 60.9683 486.744 60.9683C486.371 60.9683 486.005 60.8878 485.647 60.7271C485.292 60.5664 484.997 60.3215 484.762 59.9925C484.531 59.6635 484.415 59.2486 484.415 58.7475V50.1788ZM494.177 49.3713H495.833L499.731 58.9045H499.866L503.764 49.3713H505.421V60.856H504.122V52.1304H504.01L500.426 60.856H499.171L495.587 52.1304H495.475V60.856H494.177V49.3713ZM511.521 61.0355C510.744 61.0355 510.064 60.8505 509.477 60.4804C508.895 60.1102 508.439 59.5925 508.111 58.927C507.786 58.2616 507.624 57.484 507.624 56.5941C507.624 55.6969 507.786 54.9137 508.111 54.2445C508.439 53.5754 508.895 53.0557 509.477 52.6855C510.064 52.3154 510.744 52.1304 511.521 52.1304C512.297 52.1304 512.977 52.3154 513.559 52.6855C514.146 53.0557 514.601 53.5754 514.927 54.2445C515.254 54.9137 515.419 55.6969 515.419 56.5941C515.419 57.484 515.254 58.2616 514.927 58.927C514.601 59.5925 514.146 60.1102 513.559 60.4804C512.977 60.8505 512.297 61.0355 511.521 61.0355ZM511.521 59.8467C512.111 59.8467 512.596 59.6952 512.977 59.3925C513.357 59.0896 513.64 58.6915 513.823 58.198C514.006 57.7045 514.098 57.17 514.098 56.5941C514.098 56.0184 514.006 55.482 513.823 54.9847C513.64 54.4875 513.357 54.0857 512.977 53.7791C512.596 53.4725 512.111 53.3192 511.521 53.3192C510.931 53.3192 510.446 53.4725 510.065 53.7791C509.684 54.0857 509.403 54.4875 509.219 54.9847C509.036 55.482 508.945 56.0184 508.945 56.5941C508.945 57.17 509.036 57.7045 509.219 58.198C509.403 58.6915 509.684 59.0896 510.065 59.3925C510.446 59.6952 510.931 59.8467 511.521 59.8467ZM518.758 55.6745V60.856H517.436V52.2426H518.714V53.5884H518.825C519.027 53.151 519.333 52.7995 519.743 52.5341C520.154 52.265 520.685 52.1304 521.334 52.1304C521.916 52.1304 522.426 52.25 522.863 52.4892C523.299 52.7248 523.64 53.0837 523.882 53.566C524.125 54.0445 524.246 54.6502 524.246 55.3829V60.856H522.924V55.4726C522.924 54.7959 522.749 54.2688 522.398 53.8912C522.047 53.5099 521.566 53.3192 520.953 53.3192C520.532 53.3192 520.154 53.4108 519.822 53.594C519.493 53.7772 519.234 54.0445 519.044 54.396C518.853 54.7473 518.758 55.1736 518.758 55.6745ZM530.403 52.2426V53.3641H525.944V52.2426H530.403ZM527.244 50.1788H528.566V58.3886C528.566 58.7625 528.62 59.0429 528.728 59.2298C528.839 59.413 528.981 59.5364 529.154 59.5999C529.329 59.6597 529.514 59.6897 529.708 59.6897C529.853 59.6897 529.972 59.6822 530.066 59.6673C530.159 59.6485 530.234 59.6335 530.29 59.6224L530.559 60.8112C530.469 60.8449 530.344 60.8785 530.184 60.9122C530.023 60.9495 529.819 60.9683 529.574 60.9683C529.2 60.9683 528.834 60.8878 528.475 60.7271C528.121 60.5664 527.827 60.3215 527.591 59.9925C527.359 59.6635 527.244 59.2486 527.244 58.7475V50.1788ZM533.897 55.6745V60.856H532.574V49.3713H533.897V53.5884H534.008C534.21 53.1436 534.513 52.7902 534.916 52.5285C535.323 52.2631 535.864 52.1304 536.54 52.1304C537.126 52.1304 537.639 52.2482 538.081 52.4837C538.521 52.7155 538.862 53.0725 539.104 53.5547C539.351 54.0333 539.474 54.6426 539.474 55.3829V60.856H538.153V55.4726C538.153 54.7885 537.976 54.2595 537.621 53.8857C537.269 53.508 536.783 53.3192 536.159 53.3192C535.726 53.3192 535.338 53.4108 534.994 53.594C534.655 53.7772 534.386 54.0445 534.188 54.396C533.994 54.7473 533.897 55.1736 533.897 55.6745Z" fill="var(--fill-0, #615E83)"/>
<path id="Vector_23" d="M447.616 82.9403C447.616 79.8256 445.094 77.3005 441.984 77.3005C438.873 77.3005 436.352 79.8256 436.352 82.9403C436.352 86.0551 438.873 88.5802 441.984 88.5802C445.094 88.5802 447.616 86.0551 447.616 82.9403Z" fill="var(--fill-0, #FCB5C3)"/>
<path id="Vector_24" d="M458.516 78.3293V77.0955H467.118V78.3293H463.511V88.5802H462.123V78.3293H458.516ZM470.404 83.3987V88.5802H469.082V77.0955H470.404V81.3126H470.516C470.717 80.8677 471.019 80.5143 471.422 80.2527C471.83 79.9872 472.371 79.8546 473.047 79.8546C473.634 79.8546 474.146 79.9724 474.586 80.2079C475.027 80.4397 475.369 80.7967 475.612 81.2789C475.858 81.7575 475.981 82.3668 475.981 83.1071V88.5802H474.66V83.1968C474.66 82.5126 474.483 81.9836 474.128 81.6098C473.777 81.2322 473.29 81.0434 472.666 81.0434C472.233 81.0434 471.845 81.135 471.501 81.3181C471.161 81.5013 470.893 81.7686 470.695 82.1201C470.501 82.4715 470.404 82.8977 470.404 83.3987ZM478.399 88.5802V79.9667H479.721V88.5802H478.399ZM479.071 78.5312C478.814 78.5312 478.591 78.4433 478.405 78.2676C478.222 78.0918 478.13 77.8807 478.13 77.6339C478.13 77.3872 478.222 77.1759 478.405 77.0002C478.591 76.8244 478.814 76.7366 479.071 76.7366C479.329 76.7366 479.55 76.8244 479.732 77.0002C479.919 77.1759 480.013 77.3872 480.013 77.6339C480.013 77.8807 479.919 78.0918 479.732 78.2676C479.55 78.4433 479.329 78.5312 479.071 78.5312ZM488.234 81.8958L487.047 82.2322C486.973 82.034 486.862 81.8416 486.717 81.6546C486.575 81.464 486.381 81.307 486.135 81.1836C485.888 81.0602 485.573 80.9986 485.189 80.9986C484.661 80.9986 484.223 81.1201 483.872 81.363C483.525 81.6023 483.351 81.907 483.351 82.2771C483.351 82.606 483.471 82.8659 483.71 83.0565C483.948 83.2473 484.322 83.4061 484.829 83.5332L486.107 83.8472C486.876 84.0342 487.448 84.3202 487.826 84.7053C488.203 85.0865 488.391 85.5782 488.391 86.1801C488.391 86.6736 488.249 87.1147 487.966 87.5035C487.686 87.8923 487.294 88.1989 486.789 88.4232C486.286 88.6475 485.7 88.7596 485.031 88.7596C484.154 88.7596 483.428 88.569 482.852 88.1876C482.278 87.8064 481.914 87.2493 481.761 86.5166L483.016 86.2025C483.135 86.6661 483.36 87.0138 483.693 87.2456C484.028 87.4774 484.468 87.5932 485.009 87.5932C485.624 87.5932 486.114 87.4624 486.476 87.2007C486.842 86.9353 487.025 86.6175 487.025 86.2474C487.025 85.9483 486.92 85.6979 486.711 85.496C486.502 85.2904 486.181 85.1371 485.748 85.0361L484.314 84.6996C483.527 84.5127 482.948 84.223 482.579 83.8304C482.212 83.4342 482.03 82.9388 482.03 82.3444C482.03 81.8584 482.166 81.4284 482.439 81.0546C482.715 80.6807 483.09 80.3873 483.564 80.1741C484.042 79.9611 484.584 79.8546 485.189 79.8546C486.039 79.8546 486.708 80.0415 487.192 80.4153C487.682 80.7892 488.029 81.2827 488.234 81.8958ZM494.995 77.0955H496.653L500.551 86.6287H500.685L504.582 77.0955H506.241V88.5802H504.942V79.8546H504.829L501.245 88.5802H499.991L496.407 79.8546H496.295V88.5802H494.995V77.0955ZM512.34 88.7596C511.564 88.7596 510.883 88.5746 510.297 88.2046C509.714 87.8344 509.258 87.3166 508.93 86.6511C508.605 85.9858 508.443 85.2081 508.443 84.3183C508.443 83.4211 508.605 82.6378 508.93 81.9686C509.258 81.2995 509.714 80.7799 510.297 80.4097C510.883 80.0396 511.564 79.8546 512.34 79.8546C513.117 79.8546 513.797 80.0396 514.379 80.4097C514.965 80.7799 515.421 81.2995 515.745 81.9686C516.074 82.6378 516.239 83.4211 516.239 84.3183C516.239 85.2081 516.074 85.9858 515.745 86.6511C515.421 87.3166 514.965 87.8344 514.379 88.2046C513.797 88.5746 513.117 88.7596 512.34 88.7596ZM512.34 87.5709C512.93 87.5709 513.416 87.4194 513.797 87.1167C514.177 86.8138 514.459 86.4156 514.643 85.9221C514.825 85.4287 514.916 84.8941 514.916 84.3183C514.916 83.7426 514.825 83.2061 514.643 82.7089C514.459 82.2117 514.177 81.8098 513.797 81.5032C513.416 81.1967 512.93 81.0434 512.34 81.0434C511.751 81.0434 511.266 81.1967 510.885 81.5032C510.504 81.8098 510.221 82.2117 510.039 82.7089C509.856 83.2061 509.764 83.7426 509.764 84.3183C509.764 84.8941 509.856 85.4287 510.039 85.9221C510.221 86.4156 510.504 86.8138 510.885 87.1167C511.266 87.4194 511.751 87.5709 512.34 87.5709ZM519.578 83.3987V88.5802H518.256V79.9667H519.532V81.3126H519.645C519.847 80.8752 520.152 80.5237 520.563 80.2583C520.973 79.9892 521.504 79.8546 522.154 79.8546C522.736 79.8546 523.245 79.9742 523.682 80.2134C524.119 80.4489 524.458 80.8078 524.702 81.2902C524.944 81.7686 525.066 82.3744 525.066 83.1071V88.5802H523.744V83.1968C523.744 82.5201 523.569 81.993 523.217 81.6153C522.867 81.2341 522.385 81.0434 521.773 81.0434C521.351 81.0434 520.973 81.135 520.642 81.3181C520.313 81.5013 520.053 81.7686 519.862 82.1201C519.672 82.4715 519.578 82.8977 519.578 83.3987ZM531.221 79.9667V81.0883H526.764V79.9667H531.221ZM528.063 77.903H529.384V86.1129C529.384 86.4867 529.438 86.7671 529.548 86.954C529.659 87.1372 529.801 87.2606 529.972 87.3241C530.148 87.3839 530.333 87.4139 530.528 87.4139C530.673 87.4139 530.792 87.4063 530.886 87.3914C530.979 87.3727 531.054 87.3577 531.11 87.3465L531.378 88.5354C531.289 88.569 531.164 88.6026 531.003 88.6364C530.843 88.6737 530.639 88.6924 530.392 88.6924C530.02 88.6924 529.654 88.612 529.295 88.4513C528.94 88.2905 528.645 88.0456 528.41 87.7166C528.179 87.3877 528.063 86.9727 528.063 86.4717V77.903ZM534.716 83.3987V88.5802H533.394V77.0955H534.716V81.3126H534.828C535.03 80.8677 535.332 80.5143 535.735 80.2527C536.142 79.9872 536.684 79.8546 537.359 79.8546C537.945 79.8546 538.459 79.9724 538.899 80.2079C539.34 80.4397 539.681 80.7967 539.924 81.2789C540.171 81.7575 540.294 82.3668 540.294 83.1071V88.5802H538.973V83.1968C538.973 82.5126 538.795 81.9836 538.44 81.6098C538.089 81.2322 537.602 81.0434 536.979 81.0434C536.545 81.0434 536.158 81.135 535.814 81.3181C535.474 81.5013 535.206 81.7686 535.007 82.1201C534.814 82.4715 534.716 82.8977 534.716 83.3987Z" fill="var(--fill-0, #615E83)"/>
<path id="Vector_25" d="M123.27 95.8474V84.0038H124.547V85.3722H124.703C124.8 85.2226 124.934 85.0319 125.107 84.8002C125.282 84.5645 125.533 84.3552 125.857 84.172C126.186 83.9851 126.63 83.8917 127.19 83.8917C127.914 83.8917 128.553 84.073 129.106 84.4356C129.658 84.7982 130.089 85.3123 130.399 85.9778C130.709 86.6431 130.864 87.4283 130.864 88.3331C130.864 89.2452 130.709 90.0359 130.399 90.7051C130.089 91.3705 129.66 91.8865 129.111 92.2528C128.562 92.6155 127.93 92.7967 127.212 92.7967C126.66 92.7967 126.217 92.7052 125.885 92.522C125.553 92.3351 125.297 92.1239 125.118 91.8883C124.939 91.649 124.8 91.451 124.703 91.294H124.592V95.8474H123.27ZM124.569 88.3106C124.569 88.9611 124.664 89.5349 124.854 90.0321C125.045 90.5256 125.323 90.9126 125.689 91.193C126.055 91.4696 126.502 91.608 127.033 91.608C127.586 91.608 128.047 91.4621 128.416 91.1706C128.79 90.8751 129.07 90.4789 129.257 89.9817C129.447 89.4808 129.542 88.9237 129.542 88.3106C129.542 87.7049 129.449 87.1591 129.262 86.6731C129.079 86.1834 128.8 85.7964 128.427 85.5123C128.058 85.2244 127.593 85.0805 127.033 85.0805C126.496 85.0805 126.044 85.2169 125.678 85.4899C125.312 85.759 125.036 86.1366 124.849 86.6226C124.662 87.1049 124.569 87.6676 124.569 88.3106ZM135.411 92.8192C134.866 92.8192 134.372 92.7164 133.927 92.5108C133.483 92.3015 133.13 92.0005 132.869 91.608C132.608 91.2116 132.477 90.7331 132.477 90.1723C132.477 89.6788 132.574 89.2789 132.768 88.9723C132.961 88.662 133.222 88.419 133.546 88.2433C133.87 88.0675 134.23 87.9367 134.622 87.8507C135.017 87.7611 135.415 87.69 135.815 87.6377C136.337 87.5703 136.761 87.5199 137.085 87.4862C137.414 87.4489 137.653 87.3872 137.802 87.3012C137.955 87.2152 138.031 87.0657 138.031 86.8526V86.8077C138.031 86.2545 137.881 85.8245 137.579 85.5179C137.279 85.2113 136.826 85.058 136.218 85.058C135.586 85.058 135.091 85.1964 134.733 85.473C134.375 85.7497 134.123 86.045 133.977 86.3591L132.723 85.9104C132.947 85.387 133.245 84.9795 133.619 84.6879C133.995 84.3926 134.407 84.187 134.85 84.0711C135.299 83.9515 135.739 83.8917 136.173 83.8917C136.449 83.8917 136.766 83.9253 137.125 83.9925C137.486 84.0562 137.835 84.1888 138.172 84.3907C138.511 84.5926 138.793 84.8973 139.017 85.3048C139.241 85.7124 139.354 86.2582 139.354 86.9423V92.6174H138.031V91.451H137.965C137.875 91.6379 137.726 91.8379 137.517 92.0509C137.307 92.264 137.029 92.4454 136.682 92.595C136.335 92.7444 135.912 92.8192 135.411 92.8192ZM135.613 91.6304C136.136 91.6304 136.576 91.5276 136.934 91.3219C137.296 91.1163 137.569 90.8509 137.752 90.5256C137.938 90.2004 138.031 89.8583 138.031 89.4994V88.2882C137.976 88.3554 137.852 88.4171 137.662 88.4732C137.475 88.5255 137.259 88.5723 137.012 88.6134C136.77 88.6508 136.533 88.6844 136.301 88.7143C136.074 88.7405 135.889 88.7629 135.747 88.7816C135.404 88.8265 135.082 88.8994 134.784 89.0004C134.489 89.0975 134.25 89.2452 134.066 89.4433C133.887 89.6378 133.798 89.9032 133.798 90.2397C133.798 90.6995 133.968 91.0472 134.307 91.2827C134.651 91.5145 135.086 91.6304 135.613 91.6304ZM147.859 85.9329L146.671 86.2693C146.597 86.0712 146.487 85.8787 146.341 85.6917C146.199 85.5011 146.006 85.3441 145.759 85.2207C145.512 85.0973 145.197 85.0357 144.813 85.0357C144.285 85.0357 143.847 85.1572 143.496 85.4001C143.149 85.6394 142.975 85.9441 142.975 86.3142C142.975 86.6431 143.095 86.903 143.334 87.0937C143.572 87.2844 143.946 87.4432 144.454 87.5703L145.731 87.8844C146.5 88.0713 147.073 88.3573 147.45 88.7424C147.827 89.1238 148.015 89.6153 148.015 90.2172C148.015 90.7107 147.873 91.1518 147.59 91.5406C147.31 91.9295 146.918 92.236 146.414 92.4603C145.91 92.6846 145.324 92.7967 144.655 92.7967C143.779 92.7967 143.052 92.6061 142.478 92.2248C141.902 91.8435 141.538 91.2864 141.385 90.5537L142.64 90.2397C142.759 90.7032 142.984 91.0509 143.317 91.2827C143.654 91.5145 144.092 91.6304 144.634 91.6304C145.249 91.6304 145.739 91.4995 146.1 91.2378C146.466 90.9724 146.649 90.6546 146.649 90.2845C146.649 89.9854 146.545 89.735 146.336 89.5331C146.126 89.3275 145.805 89.1742 145.372 89.0732L143.939 88.7368C143.151 88.5499 142.572 88.2601 142.203 87.8675C141.837 87.4713 141.654 86.9759 141.654 86.3815C141.654 85.8955 141.79 85.4656 142.063 85.0917C142.339 84.7178 142.714 84.4244 143.188 84.2113C143.666 83.9982 144.208 83.8917 144.813 83.8917C145.663 83.8917 146.332 84.0786 146.818 84.4524C147.307 84.8263 147.654 85.3198 147.859 85.9329ZM153.746 84.0038V85.1254H149.288V84.0038H153.746ZM150.588 81.9401H151.909V90.15C151.909 90.5238 151.963 90.8042 152.071 90.9911C152.184 91.1743 152.325 91.2977 152.497 91.3612C152.673 91.421 152.858 91.451 153.051 91.451C153.197 91.451 153.316 91.4434 153.41 91.4285C153.503 91.4098 153.577 91.3948 153.634 91.3836L153.903 92.5725C153.813 92.6061 153.688 92.6397 153.528 92.6735C153.367 92.7108 153.164 92.7295 152.917 92.7295C152.543 92.7295 152.178 92.6491 151.819 92.4884C151.465 92.3276 151.17 92.0827 150.935 91.7537C150.703 91.4248 150.588 91.0098 150.588 90.5088V81.9401ZM164.022 92.7744C163.283 92.7744 162.624 92.6473 162.046 92.393C161.47 92.1388 161.013 91.7855 160.673 91.3332C160.337 90.8771 160.155 90.3481 160.124 89.7462H161.536C161.566 90.1163 161.692 90.4359 161.916 90.7051C162.141 90.9706 162.433 91.1762 162.796 91.3219C163.158 91.4678 163.559 91.5406 164 91.5406C164.493 91.5406 164.93 91.4547 165.31 91.2827C165.691 91.1108 165.99 90.8714 166.206 90.5648C166.423 90.2584 166.531 89.9032 166.531 89.4994C166.531 89.0769 166.427 88.7049 166.217 88.3835C166.009 88.0582 165.702 87.804 165.299 87.6209C164.896 87.4377 164.404 87.3461 163.821 87.3461H162.902V86.1123H163.821C164.276 86.1123 164.676 86.0301 165.019 85.8656C165.367 85.7011 165.637 85.4693 165.831 85.1703C166.029 84.8711 166.128 84.5198 166.128 84.1159C166.128 83.7271 166.043 83.3889 165.87 83.101C165.699 82.8131 165.456 82.5888 165.143 82.4281C164.833 82.2673 164.467 82.1869 164.044 82.1869C163.649 82.1869 163.276 82.2598 162.925 82.4056C162.578 82.5476 162.294 82.7552 162.073 83.028C161.853 83.2973 161.734 83.6225 161.715 84.0038H160.371C160.394 83.4019 160.575 82.8747 160.914 82.4224C161.254 81.9663 161.698 81.6112 162.246 81.357C162.8 81.1027 163.407 80.9756 164.067 80.9756C164.776 80.9756 165.385 81.1195 165.893 81.4074C166.401 81.6915 166.791 82.0672 167.063 82.5345C167.336 83.0019 167.472 83.5066 167.472 84.0487C167.472 84.6955 167.302 85.2468 166.963 85.703C166.626 86.159 166.169 86.475 165.591 86.6507V86.7404C166.315 86.8601 166.881 87.1684 167.287 87.6656C167.694 88.1591 167.898 88.7704 167.898 89.4994C167.898 90.1238 167.728 90.6845 167.388 91.1817C167.052 91.6752 166.592 92.064 166.01 92.3481C165.428 92.6323 164.765 92.7744 164.022 92.7744ZM173.929 92.7744C173.085 92.7744 172.366 92.5444 171.773 92.0847C171.179 91.6211 170.725 90.9499 170.412 90.0714C170.099 89.1892 169.941 88.1236 169.941 86.8749C169.941 85.6338 170.099 84.5739 170.412 83.6954C170.73 82.8131 171.185 82.1402 171.778 81.6766C172.375 81.2093 173.093 80.9756 173.929 80.9756C174.766 80.9756 175.48 81.2093 176.074 81.6766C176.672 82.1402 177.127 82.8131 177.44 83.6954C177.758 84.5739 177.916 85.6338 177.916 86.8749C177.916 88.1236 177.76 89.1892 177.446 90.0714C177.132 90.9499 176.678 91.6211 176.085 92.0847C175.491 92.5444 174.772 92.7744 173.929 92.7744ZM173.929 91.5406C174.766 91.5406 175.415 91.1369 175.877 90.3293C176.34 89.5218 176.573 88.3704 176.573 86.8749C176.573 85.8805 176.466 85.0338 176.253 84.3347C176.044 83.6356 175.741 83.1028 175.346 82.7365C174.954 82.3701 174.482 82.1869 173.929 82.1869C173.1 82.1869 172.452 82.5962 171.986 83.415C171.519 84.23 171.286 85.3833 171.286 86.8749C171.286 87.8695 171.39 88.7143 171.599 89.4097C171.809 90.1051 172.108 90.6341 172.5 90.9967C172.897 91.3594 173.372 91.5406 173.929 91.5406ZM187.75 92.7967C187.034 92.7967 186.401 92.6155 185.852 92.2528C185.304 91.8865 184.873 91.3705 184.563 90.7051C184.254 90.0359 184.099 89.2452 184.099 88.3331C184.099 87.4283 184.254 86.6431 184.563 85.9778C184.873 85.3123 185.305 84.7982 185.858 84.4356C186.41 84.073 187.048 83.8917 187.773 83.8917C188.333 83.8917 188.775 83.9851 189.1 84.172C189.429 84.3552 189.679 84.5645 189.85 84.8002C190.026 85.0319 190.162 85.2226 190.259 85.3722H190.371V81.1326H191.693V92.6174H190.416V91.294H190.259C190.162 91.451 190.024 91.649 189.844 91.8883C189.665 92.1239 189.409 92.3351 189.077 92.522C188.745 92.7052 188.303 92.7967 187.75 92.7967ZM187.929 91.608C188.46 91.608 188.908 91.4696 189.273 91.193C189.639 90.9126 189.917 90.5256 190.108 90.0321C190.298 89.5349 190.394 88.9611 190.394 88.3106C190.394 87.6676 190.3 87.1049 190.113 86.6226C189.926 86.1366 189.65 85.759 189.284 85.4899C188.919 85.2169 188.467 85.0805 187.929 85.0805C187.369 85.0805 186.903 85.2244 186.529 85.5123C186.16 85.7964 185.881 86.1834 185.696 86.6731C185.512 87.1591 185.421 87.7049 185.421 88.3106C185.421 88.9237 185.514 89.4808 185.701 89.9817C185.892 90.4789 186.171 90.8751 186.54 91.1706C186.914 91.4621 187.377 91.608 187.929 91.608ZM196.828 92.8192C196.283 92.8192 195.788 92.7164 195.345 92.5108C194.9 92.3015 194.547 92.0005 194.286 91.608C194.024 91.2116 193.894 90.7331 193.894 90.1723C193.894 89.6788 193.991 89.2789 194.184 88.9723C194.379 88.662 194.638 88.419 194.964 88.2433C195.288 88.0675 195.646 87.9367 196.038 87.8507C196.434 87.7611 196.831 87.69 197.231 87.6377C197.754 87.5703 198.178 87.5199 198.503 87.4862C198.831 87.4489 199.07 87.3872 199.22 87.3012C199.373 87.2152 199.449 87.0657 199.449 86.8526V86.8077C199.449 86.2545 199.298 85.8245 198.995 85.5179C198.697 85.2113 198.243 85.058 197.635 85.058C197.004 85.058 196.509 85.1964 196.15 85.473C195.792 85.7497 195.541 86.045 195.394 86.3591L194.14 85.9104C194.365 85.387 194.663 84.9795 195.036 84.6879C195.413 84.3926 195.823 84.187 196.268 84.0711C196.717 83.9515 197.157 83.8917 197.59 83.8917C197.866 83.8917 198.183 83.9253 198.541 83.9925C198.904 84.0562 199.253 84.1888 199.589 84.3907C199.929 84.5926 200.211 84.8973 200.435 85.3048C200.659 85.7124 200.771 86.2582 200.771 86.9423V92.6174H199.449V91.451H199.382C199.293 91.6379 199.143 91.8379 198.933 92.0509C198.725 92.264 198.447 92.4454 198.1 92.595C197.752 92.7444 197.328 92.8192 196.828 92.8192ZM197.03 91.6304C197.552 91.6304 197.993 91.5276 198.351 91.3219C198.714 91.1163 198.986 90.8509 199.169 90.5256C199.356 90.2004 199.449 89.8583 199.449 89.4994V88.2882C199.393 88.3554 199.27 88.4171 199.08 88.4732C198.893 88.5255 198.677 88.5723 198.43 88.6134C198.188 88.6508 197.95 88.6844 197.719 88.7143C197.49 88.7405 197.306 88.7629 197.164 88.7816C196.82 88.8265 196.499 88.8994 196.201 89.0004C195.906 89.0975 195.667 89.2452 195.484 89.4433C195.305 89.6378 195.215 89.9032 195.215 90.2397C195.215 90.6995 195.385 91.0472 195.725 91.2827C196.069 91.5145 196.504 91.6304 197.03 91.6304ZM203.726 95.8474C203.502 95.8474 203.303 95.8287 203.127 95.7914C202.951 95.7576 202.83 95.724 202.763 95.6904L203.099 94.524C203.42 94.6062 203.704 94.6361 203.951 94.6137C204.196 94.5913 204.415 94.481 204.605 94.2828C204.8 94.0885 204.977 93.7725 205.138 93.3351L205.383 92.6622L202.203 84.0038H203.636L206.011 90.8677H206.101L208.475 84.0038H209.908L206.257 93.8735C206.093 94.3184 205.89 94.6866 205.647 94.9782C205.405 95.2735 205.122 95.4922 204.801 95.6344C204.484 95.7764 204.125 95.8474 203.726 95.8474ZM217.746 85.9329L216.559 86.2693C216.484 86.0712 216.374 85.8787 216.229 85.6917C216.087 85.5011 215.893 85.3441 215.646 85.2207C215.4 85.0973 215.084 85.0357 214.7 85.0357C214.173 85.0357 213.735 85.1572 213.383 85.4001C213.036 85.6394 212.863 85.9441 212.863 86.3142C212.863 86.6431 212.982 86.903 213.221 87.0937C213.46 87.2844 213.834 87.4432 214.341 87.5703L215.618 87.8844C216.388 88.0713 216.961 88.3573 217.337 88.7424C217.714 89.1238 217.903 89.6153 217.903 90.2172C217.903 90.7107 217.761 91.1518 217.478 91.5406C217.197 91.9295 216.805 92.236 216.302 92.4603C215.797 92.6846 215.212 92.7967 214.542 92.7967C213.666 92.7967 212.94 92.6061 212.364 92.2248C211.789 91.8435 211.426 91.2864 211.272 90.5537L212.527 90.2397C212.647 90.7032 212.872 91.0509 213.204 91.2827C213.541 91.5145 213.979 91.6304 214.521 91.6304C215.136 91.6304 215.626 91.4995 215.988 91.2378C216.354 90.9724 216.536 90.6546 216.536 90.2845C216.536 89.9854 216.433 89.735 216.223 89.5331C216.014 89.3275 215.693 89.1742 215.26 89.0732L213.826 88.7368C213.039 88.5499 212.46 88.2601 212.09 87.8675C211.724 87.4713 211.542 86.9759 211.542 86.3815C211.542 85.8955 211.678 85.4656 211.951 85.0917C212.226 84.7178 212.602 84.4244 213.076 84.2113C213.553 83.9982 214.095 83.8917 214.7 83.8917C215.551 83.8917 216.22 84.0786 216.704 84.4524C217.194 84.8263 217.541 85.3198 217.746 85.9329Z" fill="var(--fill-0, #9291A5)"/>
<path id="Vector_26" d="M52.3181 74.3233C53.2451 74.3233 54.1369 74.479 54.9934 74.7904C55.8558 75.1017 56.6244 75.5981 57.2991 76.2796C57.9796 76.961 58.5165 77.8658 58.9096 78.9937C59.3085 80.1158 59.5109 81.4935 59.5168 83.1267C59.5168 84.66 59.3437 86.0288 58.9976 87.2332C58.6573 88.4316 58.1674 89.4509 57.5279 90.2911C56.8884 91.131 56.1169 91.7715 55.2134 92.2121C54.3099 92.6468 53.3009 92.8642 52.1861 92.8642C50.9834 92.8642 49.9215 92.6321 49.0005 92.168C48.0794 91.698 47.3372 91.0606 46.7739 90.2558C46.2166 89.4451 45.8792 88.5345 45.7619 87.5239H49.5196C49.6663 88.182 49.9744 88.6931 50.4436 89.0573C50.913 89.4156 51.4938 89.5949 52.1861 89.5949C53.3595 89.5949 54.2512 89.0837 54.8614 88.0615C55.4716 87.0334 55.7796 85.6264 55.7854 83.8405H55.6622C55.3924 84.3693 55.0286 84.8245 54.571 85.2063C54.1133 85.5824 53.5883 85.8732 52.9958 86.0788C52.4091 86.2844 51.7842 86.3872 51.1213 86.3872C50.0594 86.3872 49.1119 86.1376 48.2789 85.6382C47.4457 85.1387 46.7886 84.4515 46.3076 83.5761C45.8265 82.7008 45.5859 81.7021 45.5859 80.58C45.58 79.3698 45.8587 78.2917 46.4219 77.3459C46.9851 76.4 47.7713 75.6598 48.7805 75.1252C49.7954 74.5848 50.9746 74.3174 52.3181 74.3233ZM52.3445 77.3195C51.752 77.3195 51.2239 77.4605 50.7605 77.7425C50.3028 78.0245 49.9391 78.4034 49.6692 78.8792C49.4053 79.355 49.2762 79.8867 49.2821 80.4742C49.2821 81.0676 49.4111 81.6021 49.6692 82.078C49.9333 82.5481 50.2911 82.924 50.7429 83.206C51.2005 83.4821 51.7226 83.6202 52.3094 83.6202C52.7493 83.6202 53.1571 83.538 53.5326 83.3734C53.908 83.2089 54.2337 82.9828 54.5094 82.6949C54.791 82.4012 55.011 82.0634 55.1694 81.6814C55.3279 81.2996 55.4071 80.8942 55.4071 80.4654C55.4012 79.8955 55.2663 79.3727 55.0022 78.8968C54.7382 78.4209 54.3745 78.0391 53.911 77.7513C53.4475 77.4634 52.9254 77.3195 52.3445 77.3195ZM65.5406 90.1501L65.4437 91.1193C65.3675 91.8948 65.2208 92.6673 65.0037 93.4369C64.7925 94.2124 64.5696 94.9145 64.335 95.5431C64.1061 96.1717 63.9213 96.6652 63.7805 97.0235H61.3516C61.4396 96.6769 61.5599 96.1922 61.7124 95.5695C61.8649 94.9527 62.0088 94.2594 62.1436 93.4898C62.2785 92.7202 62.3637 91.936 62.3989 91.137L62.4429 90.1501H65.5406ZM74.9305 92.8642C73.5752 92.8642 72.3696 92.6439 71.3136 92.2033C70.2634 91.7567 69.4391 91.1488 68.8407 90.3792C68.2422 89.6095 67.9431 88.7371 67.9431 87.7619C67.9431 87.0099 68.1132 86.3196 68.4535 85.691C68.7996 85.0565 69.269 84.5308 69.8615 84.1137C70.454 83.6907 71.117 83.4204 71.8503 83.3029V83.1796C70.8882 82.9857 70.108 82.5186 69.5095 81.7784C68.9111 81.0323 68.6118 80.1658 68.6118 79.1788C68.6118 78.2448 68.8847 77.4135 69.4303 76.685C69.9759 75.9506 70.7239 75.3749 71.6744 74.9578C72.6306 74.5348 73.7161 74.3233 74.9305 74.3233C76.1449 74.3233 77.2274 74.5348 78.1778 74.9578C79.1341 75.3808 79.885 75.9594 80.4306 76.6938C80.9763 77.4223 81.252 78.2506 81.2579 79.1788C81.252 80.1717 80.947 81.0382 80.3427 81.7784C79.7383 82.5186 78.9639 82.9857 78.0194 83.1796V83.3029C78.741 83.4204 79.3951 83.6907 79.9819 84.1137C80.5744 84.5308 81.0437 85.0565 81.3899 85.691C81.7419 86.3196 81.9208 87.0099 81.9266 87.7619C81.9208 88.7371 81.6187 89.6095 81.0203 90.3792C80.4218 91.1488 79.5946 91.7567 78.5386 92.2033C77.4884 92.6439 76.2857 92.8642 74.9305 92.8642ZM74.9305 90.0619C75.5348 90.0619 76.0628 89.9532 76.5146 89.7359C76.9663 89.5125 77.3183 89.2071 77.5706 88.8194C77.8287 88.4257 77.9578 87.9734 77.9578 87.4622C77.9578 86.9394 77.8257 86.4782 77.5617 86.0788C77.2978 85.6734 76.9399 85.3562 76.4881 85.127C76.0364 84.8921 75.5171 84.7745 74.9305 84.7745C74.3497 84.7745 73.8304 84.8921 73.3728 85.127C72.9152 85.3562 72.5544 85.6734 72.2904 86.0788C72.0323 86.4782 71.9032 86.9394 71.9032 87.4622C71.9032 87.9734 72.0293 88.4257 72.2815 88.8194C72.5339 89.2071 72.8888 89.5125 73.3465 89.7359C73.804 89.9532 74.3321 90.0619 74.9305 90.0619ZM74.9305 81.9987C75.435 81.9987 75.8839 81.8959 76.2769 81.6903C76.67 81.4847 76.978 81.1998 77.2009 80.8355C77.4238 80.4712 77.5353 80.0512 77.5353 79.5754C77.5353 79.1054 77.4238 78.6941 77.2009 78.3417C76.978 77.9833 76.673 77.7042 76.2857 77.5045C75.8985 77.2989 75.4467 77.1961 74.9305 77.1961C74.4201 77.1961 73.9683 77.2989 73.5752 77.5045C73.1821 77.7042 72.8742 77.9833 72.6512 78.3417C72.4342 78.6941 72.3256 79.1054 72.3256 79.5754C72.3256 80.0512 72.4371 80.4712 72.66 80.8355C72.8829 81.1998 73.1909 81.4847 73.584 81.6903C73.9772 81.8959 74.4259 81.9987 74.9305 81.9987ZM84.3182 89.4451V86.4401L91.8425 74.5701H94.4298V78.7294H92.8985L88.1551 86.2462V86.3872H98.8474V89.4451H84.3182ZM92.9689 92.6175V88.5286L93.0393 87.198V74.5701H96.6122V92.6175H92.9689ZM107.969 92.8642C106.725 92.8642 105.616 92.6351 104.642 92.1768C103.674 91.7186 102.906 91.0871 102.337 90.2821C101.768 89.4773 101.471 88.555 101.448 87.5151H105.144C105.185 88.2143 105.478 88.7812 106.024 89.2159C106.57 89.6506 107.218 89.8681 107.969 89.8681C108.567 89.8681 109.095 89.7359 109.553 89.4715C110.016 89.2012 110.377 88.8282 110.635 88.3523C110.899 87.8706 111.031 87.3183 111.031 86.6957C111.031 86.0612 110.896 85.5031 110.627 85.0213C110.363 84.5396 109.996 84.1636 109.527 83.8934C109.057 83.6231 108.52 83.485 107.916 83.4792C107.388 83.4792 106.875 83.5878 106.376 83.8053C105.883 84.0226 105.499 84.3193 105.223 84.6952L101.835 84.0873L102.689 74.5701H113.706V77.6896H105.83L105.364 82.2102H105.47C105.786 81.7638 106.265 81.3936 106.904 81.0999C107.544 80.8061 108.259 80.6593 109.051 80.6593C110.137 80.6593 111.105 80.9149 111.955 81.426C112.806 81.937 113.478 82.6391 113.971 83.5321C114.463 84.4191 114.707 85.4414 114.701 86.5987C114.707 87.8147 114.425 88.8958 113.856 89.8416C113.293 90.7815 112.504 91.5218 111.489 92.0623C110.48 92.5968 109.307 92.8642 107.969 92.8642Z" fill="var(--fill-0, #1E1B39)"/>
<path id="Vector_27" d="M54.188 48.8318C54.1016 48.1012 53.7511 47.534 53.1367 47.1302C52.5223 46.7265 51.7686 46.5246 50.8758 46.5246C50.223 46.5246 49.6518 46.6304 49.1622 46.8419C48.6773 47.0534 48.2982 47.3442 48.0246 47.7143C47.7557 48.0843 47.6213 48.505 47.6213 48.976C47.6213 49.3701 47.7149 49.7091 47.9021 49.9926C48.0942 50.2714 48.3389 50.5045 48.6366 50.692C48.9342 50.8746 49.2462 51.0261 49.5726 51.1462C49.899 51.2616 50.199 51.3553 50.4726 51.4274L51.9702 51.8312C52.3542 51.9321 52.7815 52.0715 53.2519 52.2493C53.7271 52.4272 54.1808 52.67 54.6128 52.9776C55.0496 53.2804 55.4096 53.6697 55.6928 54.1456C55.976 54.6215 56.1176 55.2054 56.1176 55.8976C56.1176 56.6956 55.9088 57.4165 55.4911 58.0606C55.0784 58.7047 54.4735 59.2165 53.6767 59.5963C52.8847 59.976 51.9223 60.166 50.7894 60.166C49.7334 60.166 48.8189 59.9953 48.0462 59.654C47.2781 59.3128 46.6733 58.8369 46.2317 58.2264C45.7949 57.616 45.5476 56.907 45.4901 56.0995H47.3333C47.3814 56.6571 47.5685 57.1185 47.8949 57.4838C48.2262 57.8443 48.6438 58.1135 49.1477 58.2913C49.6565 58.4643 50.2038 58.5508 50.7894 58.5508C51.471 58.5508 52.0831 58.4403 52.6255 58.2192C53.1679 57.9933 53.5975 57.6808 53.9144 57.2819C54.2311 56.8782 54.3895 56.4071 54.3895 55.8688C54.3895 55.3784 54.2527 54.9796 53.9791 54.6719C53.7055 54.3643 53.3455 54.1143 52.8991 53.9221C52.4527 53.7298 51.9702 53.5616 51.4519 53.4174L49.6374 52.8983C48.4854 52.5665 47.5733 52.0931 46.9013 51.4779C46.2292 50.8626 45.8932 50.0575 45.8932 49.0625C45.8932 48.2358 46.1165 47.5148 46.5629 46.8995C47.0141 46.2795 47.6189 45.7988 48.3774 45.4576C49.1405 45.1115 49.9926 44.9385 50.9335 44.9385C51.8838 44.9385 52.7287 45.109 53.468 45.4503C54.2071 45.7868 54.7928 46.2483 55.2247 46.8347C55.6616 47.4211 55.892 48.0868 55.916 48.8318H54.188ZM58.823 59.9064V48.8318H60.5224V59.9064H58.823ZM59.6871 46.9861C59.356 46.9861 59.0703 46.8731 58.8302 46.6472C58.595 46.4213 58.4774 46.1497 58.4774 45.8325C58.4774 45.5152 58.595 45.2437 58.8302 45.0178C59.0703 44.7918 59.356 44.6789 59.6871 44.6789C60.0183 44.6789 60.3015 44.7918 60.5368 45.0178C60.7767 45.2437 60.8968 45.5152 60.8968 45.8325C60.8968 46.1497 60.7767 46.4213 60.5368 46.6472C60.3015 46.8731 60.0183 46.9861 59.6871 46.9861ZM68.0988 64.29C67.278 64.29 66.5724 64.1843 65.9819 63.9728C65.3915 63.7661 64.8995 63.4921 64.5059 63.1509C64.1171 62.8144 63.8074 62.4539 63.577 62.0694L64.9307 61.1176C65.0843 61.3195 65.2788 61.5502 65.514 61.8098C65.7492 62.0741 66.0708 62.3024 66.4787 62.4947C66.8916 62.6918 67.4316 62.7904 68.0988 62.7904C68.9916 62.7904 69.7284 62.574 70.3093 62.1415C70.8901 61.7089 71.1805 61.0311 71.1805 60.1082V57.8587H71.0365C70.9117 58.0606 70.7341 58.3106 70.5036 58.6086C70.2781 58.9017 69.9517 59.1638 69.5244 59.3944C69.102 59.6204 68.5308 59.7333 67.8108 59.7333C66.9179 59.7333 66.1164 59.5218 65.4059 59.0988C64.7003 58.6758 64.1411 58.0606 63.7282 57.2531C63.3202 56.4456 63.1162 55.4651 63.1162 54.3114C63.1162 53.177 63.3155 52.1892 63.7138 51.3481C64.1122 50.5021 64.6666 49.8484 65.3771 49.387C66.0875 48.9207 66.9084 48.6876 67.8396 48.6876C68.5596 48.6876 69.1308 48.8078 69.5532 49.0481C69.9805 49.2836 70.3068 49.5528 70.5325 49.8556C70.7629 50.1536 70.9405 50.3988 71.0653 50.591H71.2381V48.8318H72.8797V60.2236C72.8797 61.1754 72.6638 61.9491 72.2317 62.5452C71.8045 63.146 71.2285 63.5858 70.5036 63.8647C69.7836 64.1482 68.982 64.29 68.0988 64.29ZM68.0412 58.2048C68.7228 58.2048 69.2988 58.0485 69.7693 57.7361C70.2397 57.4238 70.5972 56.9743 70.8421 56.3878C71.0869 55.8014 71.2093 55.0997 71.2093 54.2826C71.2093 53.4847 71.0893 52.7805 70.8493 52.1701C70.6093 51.5596 70.2541 51.0813 69.7836 50.7353C69.3132 50.3892 68.7324 50.2161 68.0412 50.2161C67.3212 50.2161 66.7212 50.3988 66.2412 50.764C65.7659 51.1294 65.4083 51.6197 65.1683 52.2349C64.9331 52.8502 64.8155 53.5327 64.8155 54.2826C64.8155 55.0517 64.9355 55.7318 65.1755 56.323C65.4203 56.9094 65.7804 57.3709 66.2555 57.7073C66.7356 58.039 67.3308 58.2048 68.0412 58.2048ZM77.6895 53.2443V59.9064H75.9903V48.8318H77.6319V50.5623H77.7759C78.0351 49.9999 78.4288 49.548 78.9567 49.2068C79.4848 48.8606 80.1664 48.6876 81.0016 48.6876C81.7504 48.6876 82.4057 48.8414 82.9673 49.149C83.5289 49.4519 83.9657 49.9133 84.2777 50.5334C84.5897 51.1486 84.7457 51.9273 84.7457 52.8694V59.9064H83.0465V52.9848C83.0465 52.1148 82.8209 51.437 82.3696 50.9515C81.9185 50.4613 81.2993 50.2161 80.512 50.2161C79.9696 50.2161 79.4848 50.3338 79.0576 50.5695C78.6351 50.805 78.3015 51.1486 78.0567 51.6004C77.8119 52.0523 77.6895 52.6003 77.6895 53.2443ZM94.1871 52.7829V54.3691H87.7356V52.7829H94.1871ZM104.147 55.3784V48.8318H105.846V59.9064H104.147V58.0317H104.032C103.772 58.5941 103.369 59.0724 102.822 59.4665C102.275 59.8559 101.583 60.0506 100.748 60.0506C100.057 60.0506 99.4426 59.8992 98.905 59.5963C98.3674 59.2887 97.945 58.8273 97.6378 58.212C97.3305 57.5919 97.177 56.8108 97.177 55.8688V48.8318H98.8762V55.7534C98.8762 56.5609 99.1018 57.2051 99.5531 57.6857C100.009 58.1663 100.59 58.4067 101.295 58.4067C101.718 58.4067 102.147 58.2985 102.584 58.0823C103.026 57.8659 103.396 57.5343 103.693 57.0873C103.996 56.6403 104.147 56.0707 104.147 55.3784ZM108.958 64.0593V48.8318H110.6V50.591H110.802C110.926 50.3988 111.099 50.1536 111.32 49.8556C111.546 49.5528 111.867 49.2836 112.285 49.0481C112.707 48.8078 113.279 48.6876 113.999 48.6876C114.929 48.6876 115.75 48.9207 116.461 49.387C117.172 49.8532 117.726 50.5141 118.124 51.3698C118.522 52.2253 118.722 53.2347 118.722 54.3979C118.722 55.5707 118.522 56.5874 118.124 57.4478C117.726 58.3033 117.174 58.9667 116.468 59.4377C115.763 59.9039 114.949 60.1371 114.027 60.1371C113.317 60.1371 112.748 60.0193 112.321 59.7838C111.894 59.5434 111.565 59.2719 111.334 58.9691C111.104 58.6615 110.926 58.4067 110.802 58.2048H110.658V64.0593H108.958ZM110.629 54.3691C110.629 55.2054 110.751 55.9433 110.996 56.5825C111.241 57.217 111.598 57.7146 112.069 58.075C112.539 58.4307 113.116 58.6086 113.797 58.6086C114.507 58.6086 115.1 58.4211 115.576 58.0462C116.056 57.6665 116.415 57.157 116.655 56.5177C116.9 55.8736 117.022 55.1574 117.022 54.3691C117.022 53.5904 116.903 52.8887 116.663 52.2638C116.427 51.634 116.07 51.1366 115.589 50.7713C115.115 50.4012 114.517 50.2161 113.797 50.2161C113.105 50.2161 112.525 50.3916 112.054 50.7425C111.584 51.0886 111.229 51.574 110.989 52.1989C110.749 52.819 110.629 53.5423 110.629 54.3691ZM129.148 51.312L127.622 51.7447C127.525 51.4899 127.384 51.2423 127.196 51.0021C127.014 50.7568 126.765 50.555 126.448 50.3963C126.13 50.2377 125.725 50.1584 125.23 50.1584C124.555 50.1584 123.99 50.3147 123.539 50.6271C123.092 50.9347 122.869 51.3265 122.869 51.8023C122.869 52.2253 123.023 52.5594 123.33 52.8045C123.638 53.0496 124.118 53.2539 124.77 53.4174L126.412 53.8212C127.401 54.0614 128.138 54.4291 128.622 54.9242C129.106 55.4145 129.35 56.0466 129.35 56.8205C129.35 57.455 129.167 58.0221 128.802 58.5221C128.442 59.022 127.938 59.4161 127.291 59.7045C126.642 59.9929 125.888 60.1371 125.029 60.1371C123.901 60.1371 122.967 59.892 122.228 59.4016C121.49 58.9113 121.021 58.1952 120.824 57.2531L122.437 56.8493C122.591 57.4453 122.881 57.8923 123.309 58.1903C123.74 58.4883 124.304 58.6375 125.001 58.6375C125.793 58.6375 126.421 58.4692 126.887 58.1327C127.357 57.7915 127.593 57.3828 127.593 56.907C127.593 56.5225 127.459 56.2004 127.189 55.9408C126.92 55.6765 126.508 55.4794 125.951 55.3497L124.107 54.9171C123.095 54.6767 122.351 54.3042 121.876 53.7995C121.405 53.29 121.17 52.6532 121.17 51.8889C121.17 51.264 121.345 50.7113 121.696 50.2305C122.05 49.7499 122.533 49.3726 123.143 49.0986C123.757 48.8246 124.453 48.6876 125.23 48.6876C126.325 48.6876 127.185 48.928 127.809 49.4086C128.437 49.8893 128.883 50.5238 129.148 51.312Z" fill="var(--fill-0, #9291A5)"/>
</g>
<defs>
<filter id="filter0_d_1304_248" x="0.759766" y="0.511963" width="586.483" height="474.465" filterUnits="userSpaceOnUse" color-interpolation-filters="sRGB">
<feFlood flood-opacity="0" result="BackgroundImageFix"/>
<feColorMatrix in="SourceAlpha" type="matrix" values="0 0 0 0 0 0 0 0 0 0 0 0 0 0 0 0 0 0 127 0" result="hardAlpha"/>
<feOffset dy="2"/>
<feGaussianBlur stdDeviation="3"/>
<feComposite in2="hardAlpha" operator="out"/>
<feColorMatrix type="matrix" values="0 0 0 0 0.0509804 0 0 0 0 0.0392157 0 0 0 0 0.172549 0 0 0 0.08 0"/>
<feBlend mode="normal" in2="BackgroundImageFix" result="effect1_dropShadow_1304_248"/>
<feBlend mode="normal" in="SourceGraphic" in2="effect1_dropShadow_1304_248" result="shape"/>
</filter>
</defs>
</svg>
