<svg width="588" height="370" viewBox="0 0 588 370" fill="none" xmlns="http://www.w3.org/2000/svg">
<g clip-path="url(#clip0_24216_3480)">
<g filter="url(#filter0_d_24216_3480)">
<path d="M558.294 4.50244H29.2658C16.8328 4.50244 6.75391 14.5813 6.75391 27.0143V443.483C6.75391 455.916 16.8328 465.995 29.2658 465.995H558.294C570.727 465.995 580.806 455.916 580.806 443.483V27.0143C580.806 14.5813 570.727 4.50244 558.294 4.50244Z" fill="white"/>
</g>
<path d="M168.672 384.108V124.659" stroke="#E5E5EF" stroke-width="1.5" stroke-linecap="round" stroke-dasharray="4 7"/>
<path d="M292.934 384.108V124.659" stroke="#E5E5EF" stroke-width="1.5" stroke-linecap="round" stroke-dasharray="4 7"/>
<path d="M417.199 384.108V124.659" stroke="#E5E5EF" stroke-width="1.5" stroke-linecap="round" stroke-dasharray="4 7"/>
<g style="mix-blend-mode:multiply" opacity="0.33">
<path d="M17.7018 327.926C14.5012 327.33 9.03318 330.157 6.69922 331.644V465.995H580.806V312.063C578.055 312.063 578.556 312.063 574.055 307.106C569.554 302.149 568.304 299.918 560.802 303.635C553.301 307.353 552.301 303.635 547.3 296.943C542.299 290.251 539.799 292.233 533.797 294.464C527.797 296.695 526.796 287.524 520.415 281.327C514.033 275.131 511.293 288.763 508.793 298.43C506.308 308.039 500.611 316.912 495.386 325.051L495.291 325.2C490.04 333.378 482.288 321.977 479.788 317.02C477.287 312.063 476.537 311.319 469.036 312.063C461.534 312.806 459.284 309.584 456.783 303.635C454.283 297.687 454.783 299.174 449.032 294.464C443.28 289.755 440.531 292.977 437.28 292.233C434.029 291.49 430.279 282.815 427.778 277.857C425.278 272.9 425.527 269.43 418.027 271.661C410.633 273.86 409.069 271.243 405.195 264.76L405.024 264.473C401.023 257.781 398.272 255.798 390.271 252.328C382.27 248.857 384.77 250.345 378.769 252.328C372.768 254.311 369.767 251.585 366.016 246.875C362.266 242.166 363.516 232.747 353.264 236.465C343.013 240.182 340.761 231.26 338.511 221.841C336.261 212.422 330.01 212.422 323.758 214.405C317.508 216.388 314.757 202.755 314.257 193.337C313.756 183.919 313.256 180.201 306.005 180.201C298.754 180.201 299.254 195.072 296.503 214.405C293.753 233.738 295.254 234.234 287.002 234.978C278.75 235.722 278.75 235.722 274.249 250.345C269.749 264.969 267.999 264.473 259.997 264.473C251.995 264.473 248.995 276.123 246.244 288.268C243.526 300.269 237.635 297.023 228.81 292.161L228.491 291.986C219.489 287.028 217.489 288.268 211.738 270.669C205.986 253.072 198.735 261.251 195.485 272.157C192.234 283.063 190.484 284.55 184.983 288.268C179.482 291.986 173.981 292.977 171.98 299.669C169.98 306.362 163.228 311.814 157.478 307.849C151.727 303.883 147.476 304.875 144.225 311.814C140.974 318.754 137.724 318.507 133.973 319.251C130.223 319.994 122.221 319.251 118.22 326.19C114.22 333.13 108.719 331.644 105.718 330.157C102.717 328.669 96.4664 327.926 94.466 330.157C92.4656 332.386 86.4645 340.318 79.8337 327.926C73.2029 315.533 65.7106 323.712 64.2104 326.19L64.1503 326.29C62.618 328.824 59.1373 334.579 53.7084 331.644C48.2074 328.67 43.7065 327.926 39.4557 331.644C35.205 335.361 31.2042 336.848 28.2037 334.617C25.2031 332.388 21.7024 328.669 17.7018 327.926Z" fill="url(#paint0_linear_24216_3480)"/>
</g>
<path d="M8.94922 330.421C11.265 328.945 16.6905 326.142 19.8661 326.731C23.8357 327.47 27.309 331.158 30.2863 333.372C33.2635 335.585 37.2331 334.11 41.4507 330.421C45.6684 326.731 50.1343 327.47 55.5925 330.421C61.0507 333.372 64.5241 327.47 66.0127 325.01C67.5013 322.551 74.9353 314.435 81.5145 326.731C88.0936 339.028 94.0481 331.158 96.0329 328.945C98.0176 326.731 104.22 327.47 107.197 328.945C110.175 330.421 115.633 331.897 119.603 325.01C123.571 318.124 131.511 318.862 135.233 318.124C138.954 317.387 142.18 317.632 145.405 310.746C148.631 303.86 152.848 302.877 158.554 306.811C164.261 310.746 170.959 305.336 172.944 298.695C174.929 292.055 180.387 291.072 185.845 287.383C191.303 283.693 193.04 282.218 196.266 271.397C199.49 260.576 206.685 252.46 212.392 269.922C218.099 287.383 220.083 286.153 229.015 291.071C237.946 295.99 243.901 299.434 246.63 287.383C249.359 275.332 252.336 263.773 260.276 263.773C268.215 263.773 269.951 264.264 274.417 249.756C278.883 235.245 278.883 235.245 287.071 234.507C295.257 233.77 293.769 233.278 296.497 214.094C299.227 194.912 298.731 180.157 305.925 180.157C313.12 180.157 313.617 183.845 314.113 193.191C314.609 202.536 317.339 216.062 323.541 214.094C329.743 212.128 335.946 212.128 338.179 221.473C340.411 230.819 342.644 239.671 352.816 235.983C362.988 232.294 361.748 241.639 365.47 246.312C369.192 250.985 372.169 253.691 378.123 251.723C384.077 249.756 381.597 248.28 389.535 251.723C397.474 255.165 400.204 257.133 404.174 263.774C408.143 270.413 409.632 273.118 417.074 270.905C424.518 268.691 424.27 272.135 426.751 277.053C429.232 281.972 432.953 290.58 436.179 291.318C439.404 292.055 442.133 288.859 447.839 293.531C453.546 298.203 453.049 296.728 455.53 302.63C458.011 308.533 460.244 311.729 467.688 310.992C475.13 310.254 475.874 310.992 478.356 315.911C480.837 320.829 488.528 332.142 493.737 324.027C498.948 315.911 504.654 307.057 507.135 297.466C509.616 287.875 512.334 274.349 518.667 280.497C524.998 286.645 525.991 295.744 531.945 293.531C537.9 291.318 540.381 289.35 545.342 295.99C550.305 302.63 551.297 306.32 558.74 302.63C566.183 298.942 567.423 301.155 571.889 306.073C576.355 310.992 575.859 310.992 578.588 310.992" stroke="url(#paint1_linear_24216_3480)" stroke-width="4" stroke-linecap="round"/>
<path d="M203.797 259.636V383.827" stroke="#9291A5" stroke-width="2" stroke-linecap="round" stroke-dasharray="7 7"/>
<g filter="url(#filter1_d_24216_3480)">
<path d="M204.01 270.716C210.751 270.716 216.216 265.251 216.216 258.51C216.216 251.769 210.751 246.305 204.01 246.305C197.269 246.305 191.805 251.769 191.805 258.51C191.805 265.251 197.269 270.716 204.01 270.716Z" fill="#4A3AFF"/>
<path d="M204.009 268.465C209.507 268.465 213.964 264.008 213.964 258.51C213.964 253.013 209.507 248.556 204.009 248.556C198.511 248.556 194.055 253.013 194.055 258.51C194.055 264.008 198.511 268.465 204.009 268.465Z" stroke="white" stroke-width="4"/>
</g>
<g filter="url(#filter2_d_24216_3480)">
<path fill-rule="evenodd" clip-rule="evenodd" d="M176.466 181.205C171.493 181.205 167.461 185.235 167.461 190.209V219.475C167.461 224.448 171.493 228.479 176.466 228.479H194.966C194.979 228.495 194.994 228.512 195.009 228.528L202.35 236.566C203.242 237.544 204.782 237.544 205.675 236.566L213.016 228.528C213.031 228.512 213.045 228.495 213.06 228.479H231.56C236.533 228.479 240.565 224.448 240.565 219.475V190.209C240.565 185.235 236.533 181.205 231.56 181.205H176.466Z" fill="white"/>
</g>
<path d="M193.433 211.775C192.631 211.775 191.911 211.62 191.27 211.314C190.635 211.002 190.128 210.576 189.748 210.034C189.369 209.493 189.167 208.875 189.141 208.181H191.06C191.107 208.743 191.356 209.205 191.808 209.567C192.26 209.93 192.801 210.111 193.433 210.111C193.936 210.111 194.381 209.996 194.769 209.766C195.161 209.531 195.469 209.209 195.69 208.801C195.916 208.391 196.029 207.924 196.029 207.399C196.029 206.867 195.913 206.391 195.684 205.973C195.453 205.556 195.136 205.227 194.73 204.988C194.33 204.75 193.869 204.628 193.349 204.624C192.953 204.624 192.555 204.692 192.154 204.829C191.752 204.965 191.429 205.145 191.181 205.367L189.371 205.098L190.106 198.497H197.308V200.192H191.751L191.334 203.857H191.411C191.668 203.61 192.006 203.402 192.428 203.236C192.855 203.07 193.311 202.987 193.797 202.987C194.594 202.987 195.304 203.176 195.927 203.557C196.554 203.936 197.046 204.454 197.404 205.11C197.766 205.763 197.945 206.512 197.942 207.361C197.945 208.21 197.754 208.966 197.365 209.631C196.981 210.297 196.449 210.821 195.767 211.205C195.088 211.584 194.31 211.775 193.433 211.775ZM200.718 211.596L206.435 200.288V200.192H199.822V198.497H208.483V200.25L202.784 211.596H200.718ZM209.377 209.037V207.438L215.036 198.497H216.296V200.851H215.496L211.449 207.259V207.361H219.206V209.037H209.377ZM215.586 211.596V208.551L215.599 207.821V198.497H217.473V211.596H215.586Z" fill="#1E1B39"/>
<path d="M44 123.252H543.257" stroke="#E5E5EF"/>
<path d="M482.826 86.169V100.904H481.042V88.0396H480.957L477.359 90.4283V88.6152L481.042 86.169H482.826ZM487.064 100.904V99.6089L491.928 94.2848C492.499 93.6612 492.969 93.1192 493.338 92.6587C493.707 92.1934 493.981 91.7569 494.159 91.3492C494.341 90.9367 494.432 90.505 494.432 90.0542C494.432 89.5361 494.307 89.0877 494.058 88.7087C493.813 88.3298 493.478 88.0373 493.051 87.831C492.624 87.6247 492.144 87.5216 491.612 87.5216C491.045 87.5216 490.551 87.6391 490.129 87.8742C489.713 88.1044 489.389 88.4282 489.158 88.8454C488.933 89.2627 488.82 89.752 488.82 90.3132H487.123C487.123 89.4498 487.321 88.6919 487.719 88.0396C488.118 87.3872 488.659 86.8788 489.346 86.5143C490.036 86.1498 490.81 85.9675 491.669 85.9675C492.532 85.9675 493.298 86.1498 493.964 86.5143C494.632 86.8788 495.154 87.3705 495.533 87.9892C495.911 88.6081 496.102 89.2964 496.102 90.0542C496.102 90.5962 496.003 91.1262 495.807 91.6442C495.614 92.1575 495.279 92.7307 494.799 93.3638C494.324 93.9921 493.665 94.7596 492.821 95.6662L489.511 99.206V99.3211H496.361V100.904H487.064ZM500.598 101.019C500.243 101.019 499.939 100.892 499.684 100.638C499.43 100.384 499.303 100.079 499.303 99.7241C499.303 99.3691 499.43 99.0645 499.684 98.8103C499.939 98.556 500.243 98.429 500.598 98.429C500.953 98.429 501.258 98.556 501.512 98.8103C501.766 99.0645 501.893 99.3691 501.893 99.7241C501.893 99.9591 501.833 100.175 501.714 100.372C501.598 100.568 501.443 100.727 501.246 100.846C501.054 100.962 500.838 101.019 500.598 101.019ZM505.075 100.904L511.665 87.867V87.7518H504.067V86.169H513.508V87.8382L506.946 100.904H505.075ZM520.596 101.105C519.751 101.105 518.992 100.938 518.315 100.602C517.639 100.266 517.097 99.8056 516.69 99.2204C516.281 98.6352 516.058 97.9685 516.02 97.2202H517.747C517.814 97.887 518.116 98.4385 518.654 98.875C519.195 99.3067 519.843 99.5226 520.596 99.5226C521.2 99.5226 521.738 99.3811 522.208 99.0981C522.683 98.815 523.054 98.4266 523.323 97.9325C523.596 97.4337 523.733 96.8701 523.733 96.2417C523.733 95.599 523.592 95.0259 523.308 94.5222C523.03 94.0137 522.646 93.6132 522.158 93.3206C521.668 93.028 521.109 92.8794 520.481 92.8745C520.031 92.8698 519.567 92.9393 519.093 93.0832C518.618 93.2223 518.226 93.4022 517.92 93.6228L516.251 93.4213L517.142 86.169H524.797V87.7518H518.639L518.122 92.0975H518.207C518.51 91.8576 518.888 91.6586 519.344 91.5004C519.8 91.342 520.275 91.2629 520.769 91.2629C521.671 91.2629 522.474 91.4788 523.179 91.9104C523.889 92.3374 524.445 92.9226 524.848 93.666C525.256 94.4095 525.46 95.2584 525.46 96.2129C525.46 97.1531 525.249 97.9925 524.827 98.7312C524.409 99.4651 523.834 100.045 523.1 100.472C522.366 100.894 521.531 101.105 520.596 101.105ZM535.829 98.1411V97.3642C535.829 96.8269 535.94 96.3353 536.16 95.8892C536.385 95.4383 536.712 95.0785 537.138 94.81C537.571 94.5366 538.093 94.3999 538.708 94.3999C539.331 94.3999 539.853 94.5366 540.276 94.81C540.698 95.0785 541.017 95.4383 541.232 95.8892C541.448 96.3353 541.556 96.8269 541.556 97.3642V98.1411C541.556 98.6784 541.446 99.1724 541.226 99.6233C541.009 100.069 540.689 100.429 540.262 100.703C539.84 100.971 539.321 101.105 538.708 101.105C538.084 101.105 537.558 100.971 537.132 100.703C536.705 100.429 536.381 100.069 536.16 99.6233C535.94 99.1724 535.829 98.6784 535.829 98.1411ZM537.297 97.3642V98.1411C537.297 98.5872 537.403 98.9877 537.613 99.3427C537.825 99.6929 538.19 99.8679 538.708 99.8679C539.211 99.8679 539.566 99.6929 539.772 99.3427C539.983 98.9877 540.089 98.5872 540.089 98.1411V97.3642C540.089 96.9181 539.988 96.52 539.787 96.1698C539.586 95.8149 539.225 95.6374 538.708 95.6374C538.203 95.6374 537.842 95.8149 537.621 96.1698C537.405 96.52 537.297 96.9181 537.297 97.3642ZM528.491 89.7088V88.9318C528.491 88.3945 528.601 87.9029 528.821 87.4568C529.047 87.006 529.373 86.6463 529.801 86.3776C530.232 86.1042 530.755 85.9675 531.369 85.9675C531.992 85.9675 532.515 86.1042 532.937 86.3776C533.359 86.6463 533.678 87.006 533.895 87.4568C534.11 87.9029 534.218 88.3945 534.218 88.9318V89.7088C534.218 90.246 534.107 90.74 533.887 91.191C533.671 91.637 533.35 91.9968 532.923 92.2702C532.501 92.5387 531.982 92.6731 531.369 92.6731C530.745 92.6731 530.219 92.5387 529.793 92.2702C529.366 91.9968 529.042 91.637 528.821 91.191C528.601 90.74 528.491 90.246 528.491 89.7088ZM529.958 88.9318V89.7088C529.958 90.1549 530.064 90.5554 530.275 90.9103C530.486 91.2605 530.851 91.4355 531.369 91.4355C531.872 91.4355 532.228 91.2605 532.434 90.9103C532.645 90.5554 532.75 90.1549 532.75 89.7088V88.9318C532.75 88.4857 532.65 88.0876 532.448 87.7374C532.247 87.3825 531.886 87.205 531.369 87.205C530.866 87.205 530.503 87.3825 530.282 87.7374C530.066 88.0876 529.958 88.4857 529.958 88.9318ZM529.038 100.904L539.168 86.169H540.808L530.678 100.904H529.038Z" fill="#04CE00"/>
<path d="M454.471 105.269C461.233 105.269 466.715 99.7869 466.715 93.0246C466.715 86.2622 461.233 80.7803 454.471 80.7803C447.709 80.7803 442.227 86.2622 442.227 93.0246C442.227 99.7869 447.709 105.269 454.471 105.269Z" fill="#E1F6E3"/>
<path d="M457.22 91.7201L456.891 92.0487C455.133 93.8069 453.375 95.565 451.617 97.3236C451.261 97.6792 450.84 97.7571 450.421 97.5629C450.016 97.3727 449.794 97.0247 449.853 96.6038C449.906 96.2998 450.05 96.0189 450.265 95.7976C451.966 94.0666 453.688 92.3578 455.403 90.6423L455.727 90.3173C455.623 90.2994 455.517 90.287 455.411 90.2804C454.723 90.2773 454.035 90.284 453.348 90.2752C452.803 90.2691 452.427 89.8944 452.421 89.3736C452.414 88.8057 452.754 88.4248 453.323 88.4213C454.906 88.411 456.487 88.4099 458.068 88.4178C458.707 88.4214 459.066 88.7668 459.078 89.3988C459.108 90.9676 459.125 92.5365 459.13 94.1056C459.132 94.6808 458.758 95.019 458.186 95.0144C457.647 95.0093 457.292 94.6628 457.276 94.1041C457.258 93.4408 457.257 92.7771 457.247 92.1133C457.245 92.0087 457.232 91.9062 457.22 91.7201Z" fill="#04CE00"/>
<path d="M461.042 44.1282V70.3239H455.504V49.3853H455.35L449.352 53.1458V48.2341L455.836 44.1282H461.042ZM471.834 66.7424L471.693 68.1493C471.583 69.2749 471.369 70.3962 471.054 71.5134C470.747 72.639 470.424 73.658 470.083 74.5704C469.75 75.4828 469.481 76.199 469.277 76.7193H465.746C465.874 76.2161 466.049 75.5126 466.27 74.6088C466.492 73.7134 466.701 72.7072 466.897 71.5902C467.093 70.473 467.217 69.3347 467.269 68.175L467.332 66.7424H471.834ZM485.982 70.8994C483.781 70.8908 481.888 70.3494 480.302 69.2749C478.725 68.2006 477.509 66.6443 476.656 64.6063C475.812 62.5683 475.394 60.1168 475.403 57.2516C475.403 54.3949 475.825 51.9605 476.67 49.9481C477.522 47.9356 478.737 46.405 480.314 45.3561C481.901 44.2987 483.79 43.77 485.982 43.77C488.172 43.77 490.057 44.2987 491.634 45.3561C493.22 46.4135 494.441 47.9484 495.293 49.9608C496.146 51.9647 496.568 54.3949 496.559 57.2516C496.559 60.1252 496.132 62.5811 495.28 64.6191C494.436 66.6571 493.225 68.2134 491.648 69.2878C490.07 70.3621 488.181 70.8994 485.982 70.8994ZM485.982 66.3075C487.482 66.3075 488.68 65.5528 489.576 64.0435C490.471 62.5342 490.914 60.2702 490.906 57.2516C490.906 55.2648 490.701 53.6105 490.292 52.2887C489.891 50.9671 489.319 49.9736 488.577 49.3085C487.845 48.6434 486.979 48.3108 485.982 48.3108C484.489 48.3108 483.295 49.0569 482.4 50.5492C481.504 52.0414 481.053 54.2756 481.044 57.2516C481.044 59.264 481.244 60.9439 481.645 62.2912C482.055 63.63 482.63 64.6361 483.371 65.3098C484.113 65.9749 484.983 66.3075 485.982 66.3075ZM500.509 70.3239V66.3331L509.833 57.6992C510.625 56.9318 511.291 56.2411 511.829 55.6271C512.373 55.0132 512.788 54.412 513.069 53.8237C513.351 53.2268 513.491 52.583 513.491 51.8923C513.491 51.1248 513.317 50.4639 512.967 49.9097C512.617 49.3469 512.139 48.9162 511.534 48.6178C510.928 48.3108 510.242 48.1574 509.475 48.1574C508.674 48.1574 507.974 48.3193 507.377 48.6434C506.78 48.9674 506.32 49.4321 505.996 50.0375C505.672 50.643 505.51 51.3636 505.51 52.1992H500.252C500.252 50.4853 500.64 48.9973 501.417 47.7353C502.192 46.4732 503.28 45.4968 504.678 44.8061C506.077 44.1155 507.689 43.77 509.513 43.77C511.389 43.77 513.022 44.1026 514.412 44.7677C515.81 45.4243 516.897 46.3367 517.674 47.505C518.449 48.6732 518.838 50.012 518.838 51.5213C518.838 52.5105 518.642 53.4868 518.249 54.4504C517.865 55.4139 517.179 56.4841 516.19 57.661C515.201 58.8291 513.806 60.2318 512.008 61.8691L508.183 65.6168V65.7958H519.183V70.3239H500.509ZM524.232 70.3239L535.091 48.8352V48.6562H522.442V44.1282H540.822V48.7202L529.95 70.3239H524.232Z" fill="#1E1B39"/>
<path d="M45.5664 92.2986V74.2892H52.6717C54.0318 74.2892 55.1926 74.5324 56.154 75.019C57.1213 75.4997 57.857 76.1827 58.3612 77.068C58.8712 77.9473 59.1262 78.9821 59.1262 80.1722C59.1262 81.3681 58.8683 82.3969 58.3524 83.2587C57.8365 84.1147 57.089 84.7712 56.1101 85.2285C55.1369 85.6858 53.9585 85.9144 52.5749 85.9144H47.8176V82.8542H51.9594C52.6863 82.8542 53.2901 82.7545 53.7709 82.5553C54.2516 82.3559 54.6092 82.0569 54.8438 81.6583C55.0841 81.2596 55.2043 80.7642 55.2043 80.1722C55.2043 79.5742 55.0841 79.07 54.8438 78.6596C54.6092 78.2492 54.2487 77.9386 53.7621 77.7275C53.2813 77.5106 52.6746 77.4021 51.9418 77.4021H49.3741V92.2986H45.5664ZM55.2922 84.103L59.7682 92.2986H55.5648L51.1856 84.103H55.2922ZM67.6847 92.5625C66.2953 92.5625 65.0994 92.2811 64.0969 91.7183C63.1002 91.1496 62.3323 90.3464 61.7929 89.3087C61.2536 88.2653 60.9839 87.0312 60.9839 85.6067C60.9839 84.2172 61.2536 82.9979 61.7929 81.9485C62.3323 80.8991 63.0914 80.0812 64.0705 79.495C65.0554 78.9088 66.2103 78.6157 67.5352 78.6157C68.4263 78.6157 69.2558 78.7593 70.0238 79.0466C70.7977 79.328 71.4718 79.753 72.0464 80.3217C72.6268 80.8903 73.0781 81.6055 73.4006 82.4673C73.723 83.3232 73.8843 84.3257 73.8843 85.4747V86.5036H62.4789V84.1821H70.358C70.358 83.6427 70.2407 83.1649 70.0063 82.7487C69.7717 82.3324 69.4464 82.0071 69.0302 81.7725C68.6198 81.5322 68.142 81.412 67.5967 81.412C67.0281 81.412 66.5239 81.5439 66.0843 81.8078C65.6505 82.0658 65.3104 82.4145 65.0641 82.8542C64.818 83.288 64.6919 83.7717 64.6861 84.3051V86.5124C64.6861 87.1807 64.8092 87.7581 65.0554 88.2447C65.3075 88.7313 65.6622 89.1066 66.1194 89.3703C66.5767 89.6341 67.119 89.7661 67.7462 89.7661C68.1624 89.7661 68.5436 89.7074 68.8895 89.5902C69.2354 89.473 69.5314 89.297 69.7776 89.0626C70.0238 88.8281 70.2115 88.5408 70.3404 88.2008L73.8052 88.4294C73.6292 89.2619 73.2687 89.9888 72.7235 90.6103C72.1842 91.2258 71.4865 91.7066 70.6305 92.0525C69.7805 92.3924 68.7985 92.5625 67.6847 92.5625ZM80.1805 92.5537C79.3188 92.5537 78.5508 92.4042 77.8765 92.1052C77.2024 91.8003 76.6689 91.3519 76.2762 90.7597C75.8892 90.1618 75.6957 89.4172 75.6957 88.5261C75.6957 87.7758 75.8335 87.1456 76.109 86.6354C76.3846 86.1254 76.7598 85.715 77.2346 85.4044C77.7095 85.0937 78.2489 84.8591 78.8526 84.7009C79.4624 84.5426 80.1014 84.4312 80.7698 84.3667C81.5553 84.2846 82.1885 84.2084 82.6692 84.1381C83.1498 84.0619 83.4986 83.9505 83.7155 83.8039C83.9326 83.6574 84.041 83.4405 84.041 83.1532V83.1004C84.041 82.5435 83.8651 82.1126 83.5134 81.8078C83.1675 81.503 82.675 81.3504 82.036 81.3504C81.3618 81.3504 80.8254 81.4999 80.4268 81.799C80.0281 82.0921 79.7643 82.4614 79.6353 82.9069L76.1706 82.6255C76.3465 81.8048 76.6924 81.0955 77.2083 80.4975C77.7241 79.8937 78.3896 79.4305 79.2044 79.108C80.0252 78.7798 80.975 78.6157 82.0536 78.6157C82.804 78.6157 83.5222 78.7036 84.208 78.8794C84.8998 79.0554 85.5124 79.328 86.046 79.6973C86.5852 80.0666 87.0103 80.5415 87.321 81.1218C87.6317 81.6963 87.787 82.3852 87.787 83.1883V92.2986H84.2344V90.4255H84.1289C83.912 90.8476 83.6218 91.22 83.2583 91.5424C82.8949 91.859 82.4581 92.1081 81.948 92.2899C81.438 92.4657 80.8489 92.5537 80.1805 92.5537ZM81.2533 89.9683C81.8044 89.9683 82.291 89.8598 82.7131 89.6429C83.1352 89.4202 83.4664 89.1212 83.7068 88.746C83.9472 88.3708 84.0673 87.9457 84.0673 87.4709V86.0375C83.9501 86.1137 83.7889 86.1841 83.5837 86.2486C83.3844 86.3072 83.1587 86.3629 82.9066 86.4156C82.6544 86.4626 82.4024 86.5066 82.1503 86.5475C81.8983 86.5828 81.6696 86.615 81.4644 86.6443C81.0247 86.7088 80.6408 86.8114 80.3124 86.9521C79.9841 87.0928 79.7291 87.2833 79.5474 87.5236C79.3657 87.7581 79.2747 88.0513 79.2747 88.4031C79.2747 88.9131 79.4595 89.3029 79.8288 89.5726C80.204 89.8364 80.6788 89.9683 81.2533 89.9683ZM94.4395 74.2892V92.2986H90.6934V74.2892H94.4395ZM105.856 83.417V86.3893H97.6426V83.417H105.856ZM116.233 78.7915V81.6055H108.098V78.7915H116.233ZM109.945 75.5555H113.691V88.148C113.691 88.4939 113.744 88.7636 113.85 88.957C113.955 89.1446 114.101 89.2765 114.289 89.3527C114.482 89.4289 114.705 89.4671 114.957 89.4671C115.133 89.4671 115.309 89.4525 115.485 89.4231C115.661 89.388 115.796 89.3615 115.889 89.344L116.478 92.1316C116.291 92.1901 116.027 92.2576 115.687 92.3339C115.347 92.4159 114.934 92.4657 114.448 92.4833C113.545 92.5185 112.754 92.3982 112.073 92.1227C111.399 91.8473 110.874 91.4192 110.499 90.8389C110.124 90.2585 109.939 89.5257 109.945 88.6405V75.5555ZM118.673 92.2986V78.7915H122.419V92.2986H118.673ZM120.555 77.0504C119.998 77.0504 119.52 76.8658 119.121 76.4963C118.728 76.1212 118.532 75.6727 118.532 75.1509C118.532 74.6351 118.728 74.1925 119.121 73.8231C119.52 73.4479 119.998 73.2603 120.555 73.2603C121.111 73.2603 121.586 73.4479 121.979 73.8231C122.377 74.1925 122.577 74.6351 122.577 75.1509C122.577 75.6727 122.377 76.1212 121.979 76.4963C121.586 76.8658 121.111 77.0504 120.555 77.0504ZM125.42 92.2986V78.7915H128.99V81.1746H129.148C129.429 80.3832 129.899 79.7589 130.555 79.3015C131.212 78.8443 131.998 78.6157 132.912 78.6157C133.838 78.6157 134.627 78.8472 135.278 79.3103C135.928 79.7676 136.362 80.3891 136.579 81.1746H136.72C136.995 80.4008 137.493 79.7823 138.214 79.3191C138.942 78.8502 139.8 78.6157 140.791 78.6157C142.052 78.6157 143.075 79.0172 143.86 79.8204C144.652 80.6177 145.047 81.7491 145.047 83.2148V92.2986H141.31V83.9534C141.31 83.2031 141.111 82.6403 140.712 82.265C140.314 81.8898 139.815 81.7022 139.217 81.7022C138.536 81.7022 138.006 81.9191 137.626 82.353C137.244 82.781 137.054 83.3467 137.054 84.0502V92.2986H133.422V83.8743C133.422 83.2118 133.231 82.6842 132.85 82.2914C132.475 81.8986 131.98 81.7022 131.364 81.7022C130.948 81.7022 130.573 81.8078 130.239 82.0188C129.91 82.224 129.65 82.5142 129.456 82.8894C129.263 83.2587 129.166 83.6926 129.166 84.1909V92.2986H125.42ZM154.162 92.5625C152.773 92.5625 151.576 92.2811 150.573 91.7183C149.577 91.1496 148.81 90.3464 148.271 89.3087C147.73 88.2653 147.461 87.0312 147.461 85.6067C147.461 84.2172 147.73 82.9979 148.271 81.9485C148.81 80.8991 149.568 80.0812 150.548 79.495C151.532 78.9088 152.687 78.6157 154.012 78.6157C154.904 78.6157 155.733 78.7593 156.501 79.0466C157.275 79.328 157.949 79.753 158.524 80.3217C159.104 80.8903 159.556 81.6055 159.878 82.4673C160.201 83.3232 160.362 84.3257 160.362 85.4747V86.5036H148.956V84.1821H156.835C156.835 83.6427 156.718 83.1649 156.483 82.7487C156.249 82.3324 155.923 82.0071 155.507 81.7725C155.097 81.5322 154.619 81.412 154.074 81.412C153.506 81.412 153.001 81.5439 152.561 81.8078C152.128 82.0658 151.788 82.4145 151.541 82.8542C151.295 83.288 151.169 83.7717 151.163 84.3051V86.5124C151.163 87.1807 151.286 87.7581 151.532 88.2447C151.785 88.7313 152.139 89.1066 152.596 89.3703C153.054 89.6341 153.596 89.7661 154.224 89.7661C154.639 89.7661 155.021 89.7074 155.366 89.5902C155.713 89.473 156.009 89.297 156.254 89.0626C156.501 88.8281 156.689 88.5408 156.817 88.2008L160.282 88.4294C160.106 89.2619 159.746 89.9888 159.201 90.6103C158.661 91.2258 157.964 91.7066 157.108 92.0525C156.258 92.3924 155.276 92.5625 154.162 92.5625ZM174.64 92.5625C173.256 92.5625 172.067 92.2694 171.069 91.6831C170.079 91.091 169.317 90.2702 168.783 89.2208C168.255 88.1714 167.992 86.9638 167.992 85.5979C167.992 84.2143 168.259 83.0008 168.792 81.9573C169.331 80.9079 170.097 80.09 171.087 79.5038C172.078 78.9117 173.256 78.6157 174.623 78.6157C175.801 78.6157 176.832 78.8297 177.718 79.2576C178.603 79.6856 179.304 80.2864 179.82 81.0603C180.335 81.8341 180.62 82.7428 180.673 83.7863H177.137C177.038 83.1121 176.774 82.5699 176.346 82.1595C175.924 81.7433 175.37 81.5352 174.684 81.5352C174.104 81.5352 173.596 81.6934 173.163 82.01C172.735 82.3207 172.401 82.7751 172.16 83.373C171.92 83.9711 171.8 84.695 171.8 85.5451C171.8 86.4068 171.917 87.1397 172.151 87.7435C172.392 88.3474 172.729 88.8075 173.163 89.1241C173.596 89.4406 174.104 89.599 174.684 89.599C175.113 89.599 175.496 89.511 175.836 89.3352C176.182 89.1593 176.467 88.9043 176.689 88.5701C176.918 88.2301 177.068 87.8226 177.137 87.3478H180.673C180.614 88.3796 180.333 89.2882 179.829 90.0738C179.33 90.8535 178.641 91.4632 177.762 91.9029C176.883 92.3426 175.842 92.5625 174.64 92.5625ZM191.733 86.5475V78.7915H195.479V92.2986H191.883V89.8452H191.742C191.437 90.6366 190.929 91.2727 190.22 91.7534C189.517 92.2341 188.658 92.4746 187.644 92.4746C186.741 92.4746 185.946 92.2694 185.261 91.859C184.575 91.4486 184.038 90.8653 183.651 90.109C183.271 89.3527 183.077 88.447 183.072 87.3917V78.7915H186.818V86.7235C186.823 87.5207 187.037 88.1509 187.459 88.6141C187.881 89.0772 188.447 89.3087 189.157 89.3087C189.608 89.3087 190.03 89.2062 190.423 89.001C190.816 88.7899 191.132 88.4793 191.373 88.0689C191.618 87.6585 191.739 87.1514 191.733 86.5475ZM209.714 82.6432L206.285 82.8542C206.226 82.5611 206.1 82.2973 205.906 82.0627C205.713 81.8224 205.457 81.6318 205.141 81.4911C204.83 81.3446 204.458 81.2713 204.024 81.2713C203.444 81.2713 202.954 81.3945 202.556 81.6406C202.157 81.8811 201.958 82.2034 201.958 82.608C201.958 82.9304 202.086 83.2031 202.345 83.4258C202.603 83.6486 203.045 83.8274 203.672 83.9622L206.117 84.4546C207.431 84.7243 208.41 85.1581 209.055 85.7561C209.699 86.354 210.022 87.1397 210.022 88.1128C210.022 88.9981 209.761 89.7748 209.239 90.4432C208.723 91.1115 208.014 91.6333 207.111 92.0085C206.214 92.3778 205.179 92.5625 204.006 92.5625C202.219 92.5625 200.794 92.1901 199.733 91.4457C198.678 90.6952 198.059 89.6752 197.878 88.3854L201.562 88.192C201.673 88.7372 201.943 89.1534 202.371 89.4406C202.799 89.722 203.347 89.8627 204.015 89.8627C204.672 89.8627 205.2 89.7368 205.598 89.4847C206.003 89.2267 206.208 88.8955 206.214 88.491C206.208 88.1509 206.064 87.8725 205.783 87.6556C205.501 87.4328 205.068 87.2627 204.481 87.1456L202.142 86.6795C200.823 86.4156 199.842 85.9584 199.197 85.3077C198.557 84.6569 198.238 83.8274 198.238 82.819C198.238 81.9514 198.473 81.2039 198.941 80.5766C199.416 79.9493 200.082 79.4658 200.938 79.1257C201.799 78.7857 202.808 78.6157 203.963 78.6157C205.669 78.6157 207.011 78.9762 207.99 79.6973C208.975 80.4184 209.55 81.4003 209.714 82.6432ZM219.564 78.7915V81.6055H211.431V78.7915H219.564ZM213.278 75.5555H217.024V88.148C217.024 88.4939 217.077 88.7636 217.182 88.957C217.287 89.1446 217.434 89.2765 217.622 89.3527C217.815 89.4289 218.038 89.4671 218.29 89.4671C218.466 89.4671 218.641 89.4525 218.817 89.4231C218.994 89.388 219.128 89.3615 219.222 89.344L219.811 92.1316C219.624 92.1901 219.36 92.2576 219.02 92.3339C218.68 92.4159 218.267 92.4657 217.78 92.4833C216.876 92.5185 216.085 92.3982 215.405 92.1227C214.731 91.8473 214.207 91.4192 213.832 90.8389C213.456 90.2585 213.271 89.5257 213.278 88.6405V75.5555ZM227.962 92.5625C226.597 92.5625 225.415 92.2723 224.419 91.6918C223.429 91.1056 222.663 90.2907 222.124 89.2473C221.585 88.1979 221.315 86.9813 221.315 85.5979C221.315 84.2026 221.585 82.9832 222.124 81.9397C222.663 80.8903 223.429 80.0754 224.419 79.495C225.415 78.9088 226.597 78.6157 227.962 78.6157C229.329 78.6157 230.507 78.9088 231.498 79.495C232.494 80.0754 233.263 80.8903 233.802 81.9397C234.341 82.9832 234.611 84.2026 234.611 85.5979C234.611 86.9813 234.341 88.1979 233.802 89.2473C233.263 90.2907 232.494 91.1056 231.498 91.6918C230.507 92.2723 229.329 92.5625 227.962 92.5625ZM227.98 89.6605C228.602 89.6605 229.121 89.4847 229.537 89.1329C229.954 88.7753 230.267 88.2887 230.478 87.6731C230.694 87.0575 230.803 86.3571 230.803 85.5714C230.803 84.7859 230.694 84.0853 230.478 83.4697C230.267 82.8542 229.954 82.3676 229.537 82.01C229.121 81.6524 228.602 81.4736 227.98 81.4736C227.354 81.4736 226.826 81.6524 226.398 82.01C225.976 82.3676 225.656 82.8542 225.439 83.4697C225.228 84.0853 225.123 84.7859 225.123 85.5714C225.123 86.3571 225.228 87.0575 225.439 87.6731C225.656 88.2887 225.976 88.7753 226.398 89.1329C226.826 89.4847 227.354 89.6605 227.98 89.6605ZM237.047 92.2986V78.7915H240.617V81.1746H240.775C241.056 80.3832 241.526 79.7589 242.182 79.3015C242.839 78.8443 243.624 78.6157 244.539 78.6157C245.465 78.6157 246.253 78.8472 246.905 79.3103C247.556 79.7676 247.989 80.3891 248.206 81.1746H248.347C248.623 80.4008 249.12 79.7823 249.842 79.3191C250.569 78.8502 251.428 78.6157 252.418 78.6157C253.679 78.6157 254.702 79.0172 255.488 79.8204C256.279 80.6177 256.674 81.7491 256.674 83.2148V92.2986H252.937V83.9534C252.937 83.2031 252.738 82.6403 252.339 82.265C251.94 81.8898 251.442 81.7022 250.845 81.7022C250.164 81.7022 249.633 81.9191 249.252 82.353C248.871 82.781 248.681 83.3467 248.681 84.0502V92.2986H245.049V83.8743C245.049 83.2118 244.859 82.6842 244.477 82.2914C244.102 81.8986 243.607 81.7022 242.991 81.7022C242.575 81.7022 242.2 81.8078 241.866 82.0188C241.537 82.224 241.277 82.5142 241.083 82.8894C240.89 83.2587 240.793 83.6926 240.793 84.1909V92.2986H237.047ZM265.789 92.5625C264.399 92.5625 263.204 92.2811 262.201 91.7183C261.205 91.1496 260.437 90.3464 259.897 89.3087C259.357 88.2653 259.088 87.0312 259.088 85.6067C259.088 84.2172 259.357 82.9979 259.897 81.9485C260.437 80.8991 261.196 80.0812 262.175 79.495C263.16 78.9088 264.315 78.6157 265.639 78.6157C266.531 78.6157 267.36 78.7593 268.128 79.0466C268.901 79.328 269.576 79.753 270.151 80.3217C270.73 80.8903 271.183 81.6055 271.505 82.4673C271.827 83.3232 271.989 84.3257 271.989 85.4747V86.5036H260.583V84.1821H268.462C268.462 83.6427 268.345 83.1649 268.11 82.7487C267.876 82.3324 267.551 82.0071 267.134 81.7725C266.724 81.5322 266.246 81.412 265.701 81.412C265.133 81.412 264.629 81.5439 264.189 81.8078C263.755 82.0658 263.414 82.4145 263.169 82.8542C262.922 83.288 262.796 83.7717 262.791 84.3051V86.5124C262.791 87.1807 262.913 87.7581 263.16 88.2447C263.412 88.7313 263.766 89.1066 264.223 89.3703C264.68 89.6341 265.223 89.7661 265.851 89.7661C266.266 89.7661 266.648 89.7074 266.993 89.5902C267.339 89.473 267.635 89.297 267.882 89.0626C268.128 88.8281 268.316 88.5408 268.444 88.2008L271.909 88.4294C271.733 89.2619 271.373 89.9888 270.827 90.6103C270.288 91.2258 269.59 91.7066 268.735 92.0525C267.885 92.3924 266.902 92.5625 265.789 92.5625ZM274.434 92.2986V78.7915H278.065V81.1482H278.206C278.452 80.3099 278.865 79.6768 279.446 79.2489C280.026 78.8149 280.694 78.598 281.451 78.598C281.639 78.598 281.84 78.6097 282.057 78.6333C282.275 78.6567 282.465 78.689 282.629 78.73V82.0539C282.454 82.0013 282.209 81.9543 281.899 81.9132C281.588 81.8723 281.304 81.8518 281.047 81.8518C280.495 81.8518 280.002 81.9719 279.569 82.2123C279.141 82.4468 278.801 82.7751 278.549 83.1972C278.302 83.6193 278.18 84.1059 278.18 84.6569V92.2986H274.434ZM295.804 82.6432L292.374 82.8542C292.316 82.5611 292.19 82.2973 291.996 82.0627C291.803 81.8224 291.548 81.6318 291.231 81.4911C290.92 81.3446 290.549 81.2713 290.114 81.2713C289.535 81.2713 289.045 81.3945 288.646 81.6406C288.247 81.8811 288.048 82.2034 288.048 82.608C288.048 82.9304 288.177 83.2031 288.435 83.4258C288.693 83.6486 289.135 83.8274 289.763 83.9622L292.208 84.4546C293.52 84.7243 294.5 85.1581 295.145 85.7561C295.79 86.354 296.111 87.1397 296.111 88.1128C296.111 88.9981 295.851 89.7748 295.329 90.4432C294.814 91.1115 294.103 91.6333 293.201 92.0085C292.305 92.3778 291.269 92.5625 290.097 92.5625C288.309 92.5625 286.884 92.1901 285.824 91.4457C284.768 90.6952 284.15 89.6752 283.967 88.3854L287.653 88.192C287.764 88.7372 288.033 89.1534 288.461 89.4406C288.89 89.722 289.438 89.8627 290.105 89.8627C290.763 89.8627 291.289 89.7368 291.689 89.4847C292.093 89.2267 292.298 88.8955 292.305 88.491C292.298 88.1509 292.155 87.8725 291.874 87.6556C291.592 87.4328 291.158 87.2627 290.571 87.1456L288.232 86.6795C286.913 86.4156 285.932 85.9584 285.287 85.3077C284.647 84.6569 284.329 83.8274 284.329 82.819C284.329 81.9514 284.563 81.2039 285.032 80.5766C285.506 79.9493 286.172 79.4658 287.028 79.1257C287.89 78.7857 288.898 78.6157 290.053 78.6157C291.759 78.6157 293.102 78.9762 294.081 79.6973C295.066 80.4184 295.64 81.4003 295.804 82.6432Z" fill="#1E1B39"/>
<path d="M53.8437 48.6051C53.7574 47.8761 53.4072 47.31 52.7932 46.9072C52.1793 46.5042 51.4262 46.3029 50.534 46.3029C49.8817 46.3029 49.311 46.4083 48.8217 46.6194C48.3372 46.8304 47.9583 47.1206 47.6849 47.49C47.4162 47.8593 47.282 48.2789 47.282 48.7491C47.282 49.1424 47.3755 49.4805 47.5626 49.7635C47.7545 50.0417 47.9991 50.2744 48.2965 50.4615C48.5938 50.6437 48.9056 50.7948 49.2318 50.9147C49.5579 51.0298 49.8578 51.1233 50.1312 51.1954L51.6277 51.5982C52.0114 51.6989 52.4383 51.8381 52.9084 52.0155C53.3832 52.193 53.8365 52.4352 54.2682 52.7421C54.7047 53.0444 55.0644 53.4329 55.3474 53.9078C55.6304 54.3826 55.7719 54.9654 55.7719 55.6561C55.7719 56.4523 55.5633 57.1718 55.1459 57.8145C54.7334 58.4573 54.1291 58.9681 53.3328 59.347C52.5414 59.726 51.5797 59.9154 50.4477 59.9154C49.3925 59.9154 48.4787 59.7451 47.7064 59.4046C46.939 59.064 46.3347 58.5891 45.8934 57.9801C45.4569 57.3709 45.2099 56.6634 45.1523 55.8576H46.9942C47.0421 56.4139 47.2292 56.8744 47.5554 57.239C47.8863 57.5987 48.3037 57.8673 48.8073 58.0448C49.3157 58.2175 49.8625 58.3038 50.4477 58.3038C51.1288 58.3038 51.7404 58.1935 52.2824 57.9729C52.8244 57.7474 53.2537 57.4356 53.5703 57.0375C53.8868 56.6346 54.0451 56.1645 54.0451 55.6274C54.0451 55.1381 53.9084 54.74 53.635 54.433C53.3616 54.126 53.0019 53.8766 52.5558 53.6847C52.1097 53.4928 51.6277 53.325 51.1097 53.1811L49.2966 52.663C48.1454 52.3321 47.234 51.8597 46.5625 51.2457C45.891 50.6317 45.5552 49.8283 45.5552 48.8354C45.5552 48.0104 45.7783 47.2909 46.2244 46.677C46.6753 46.0582 47.2796 45.5785 48.0375 45.2379C48.8001 44.8926 49.6515 44.7199 50.5917 44.7199C51.5413 44.7199 52.3855 44.8902 53.1242 45.2307C53.8629 45.5665 54.4481 46.027 54.8797 46.6122C55.3162 47.1974 55.5464 47.8617 55.5705 48.6051H53.8437ZM63.2815 48.6051V50.0441H57.5545V48.6051H63.2815ZM59.2236 45.9574H60.9216V56.4907C60.9216 56.9703 60.9911 57.3301 61.1302 57.5699C61.2741 57.8049 61.4564 57.9632 61.6771 58.0448C61.9025 58.1216 62.1399 58.16 62.3893 58.16C62.5764 58.16 62.7299 58.1503 62.8498 58.1311C62.9697 58.1072 63.0657 58.0879 63.1376 58.0736L63.483 59.5989C63.3678 59.642 63.2072 59.6853 63.0009 59.7284C62.7947 59.7763 62.5333 59.8003 62.2167 59.8003C61.737 59.8003 61.267 59.6972 60.8065 59.491C60.3508 59.2847 59.9719 58.9705 59.6697 58.5484C59.3723 58.1263 59.2236 57.5939 59.2236 56.9512V45.9574ZM69.0877 59.9154C68.3874 59.9154 67.7519 59.7835 67.1811 59.5198C66.6103 59.2511 66.157 58.865 65.8213 58.3613C65.4855 57.8529 65.3177 57.239 65.3177 56.5195C65.3177 55.8864 65.4424 55.3731 65.6918 54.9798C65.9412 54.5817 66.2745 54.2699 66.6919 54.0445C67.1092 53.819 67.5696 53.6512 68.0732 53.5409C68.5817 53.4257 69.0926 53.3345 69.6057 53.2675C70.2773 53.1811 70.8217 53.1163 71.239 53.0732C71.6611 53.0252 71.9681 52.9461 72.1599 52.8357C72.3566 52.7254 72.4549 52.5336 72.4549 52.2602V52.2025C72.4549 51.4927 72.2607 50.9411 71.8721 50.5478C71.4884 50.1544 70.9057 49.9578 70.1238 49.9578C69.3132 49.9578 68.6777 50.1353 68.2172 50.4902C67.7567 50.8452 67.4329 51.2241 67.2458 51.627L65.6342 51.0514C65.922 50.3799 66.3057 49.857 66.7854 49.4829C67.2699 49.104 67.7975 48.8402 68.3682 48.6915C68.9439 48.5381 69.5098 48.4613 70.0662 48.4613C70.4212 48.4613 70.8289 48.5044 71.2894 48.5907C71.7546 48.6723 72.2031 48.8426 72.6348 49.1016C73.0713 49.3606 73.4334 49.7516 73.7212 50.2744C74.009 50.7972 74.1529 51.4975 74.1529 52.3752V59.6564H72.4549V58.16H72.3686C72.2535 58.3997 72.0617 58.6563 71.793 58.9298C71.5244 59.2032 71.167 59.4358 70.721 59.6276C70.2749 59.8195 69.7304 59.9154 69.0877 59.9154ZM69.3467 58.3901C70.0183 58.3901 70.5843 58.2582 71.0447 57.9944C71.51 57.7307 71.8602 57.3901 72.0952 56.9728C72.3351 56.5554 72.4549 56.1166 72.4549 55.6561V54.102C72.383 54.1883 72.2246 54.2675 71.9801 54.3395C71.7402 54.4066 71.4621 54.4666 71.1454 54.5193C70.8336 54.5673 70.5291 54.6104 70.2317 54.6488C69.9391 54.6824 69.7017 54.7111 69.5194 54.7351C69.0782 54.7928 68.6656 54.8863 68.2819 55.0157C67.903 55.1404 67.596 55.3299 67.361 55.5842C67.1308 55.8336 67.0156 56.1741 67.0156 56.6059C67.0156 57.1958 67.2339 57.6418 67.6704 57.9441C68.1116 58.2415 68.6705 58.3901 69.3467 58.3901ZM82.0583 48.6051V50.0441H76.3311V48.6051H82.0583ZM78.0004 45.9574H79.6984V56.4907C79.6984 56.9703 79.7679 57.3301 79.9069 57.5699C80.0509 57.8049 80.2331 57.9632 80.4537 58.0448C80.6792 58.1216 80.9167 58.16 81.1661 58.16C81.3531 58.16 81.5066 58.1503 81.6265 58.1311C81.7465 58.1072 81.8424 58.0879 81.9143 58.0736L82.2596 59.5989C82.1446 59.642 81.9839 59.6853 81.7777 59.7284C81.5713 59.7763 81.31 59.8003 80.9933 59.8003C80.5137 59.8003 80.0437 59.6972 79.5832 59.491C79.1276 59.2847 78.7486 58.9705 78.4465 58.5484C78.1491 58.1263 78.0004 57.5939 78.0004 56.9512V45.9574ZM84.6124 59.6564V48.6051H86.3104V59.6564H84.6124ZM85.4758 46.7633C85.1449 46.7633 84.8594 46.6506 84.6196 46.4251C84.3845 46.1996 84.267 45.9287 84.267 45.6121C84.267 45.2956 84.3845 45.0245 84.6196 44.7991C84.8594 44.5736 85.1449 44.4609 85.4758 44.4609C85.8067 44.4609 86.0897 44.5736 86.3248 44.7991C86.5646 45.0245 86.6846 45.2956 86.6846 45.6121C86.6846 45.9287 86.5646 46.1996 86.3248 46.4251C86.0897 46.6506 85.8067 46.7633 85.4758 46.7633ZM97.2484 51.0802L95.7231 51.5119C95.6271 51.2577 95.4856 51.0106 95.2985 50.7708C95.1163 50.5262 94.8668 50.3247 94.5503 50.1665C94.2337 50.0082 93.8284 49.9291 93.3343 49.9291C92.658 49.9291 92.0944 50.0848 91.6436 50.3966C91.1975 50.7037 90.9744 51.0946 90.9744 51.5694C90.9744 51.9915 91.128 52.3249 91.4349 52.5695C91.7419 52.8142 92.2216 53.018 92.8739 53.1811L94.5143 53.584C95.5023 53.8238 96.2387 54.1908 96.7232 54.6848C97.2076 55.1741 97.4498 55.8048 97.4498 56.577C97.4498 57.2102 97.2675 57.7761 96.903 58.275C96.5433 58.7739 96.0396 59.1671 95.392 59.455C94.7445 59.7428 93.9915 59.8866 93.1329 59.8866C92.0057 59.8866 91.0728 59.642 90.3341 59.1528C89.5955 58.6636 89.1278 57.9489 88.9311 57.0087L90.5428 56.6059C90.6963 57.2006 90.9865 57.6467 91.4133 57.9441C91.845 58.2415 92.4086 58.3901 93.1042 58.3901C93.8956 58.3901 94.5239 58.2223 94.9892 57.8866C95.4592 57.546 95.6943 57.1383 95.6943 56.6634C95.6943 56.2797 95.56 55.9583 95.2913 55.6993C95.0227 55.4355 94.6102 55.2388 94.0538 55.1093L92.2119 54.6776C91.1999 54.4377 90.4564 54.0661 89.9815 53.5624C89.5115 53.0539 89.2765 52.4184 89.2765 51.6557C89.2765 51.0323 89.4515 50.4806 89.8017 50.001C90.1566 49.5213 90.6387 49.1448 91.2478 48.8713C91.8618 48.5979 92.5573 48.4613 93.3343 48.4613C94.428 48.4613 95.2866 48.701 95.9101 49.1808C96.5385 49.6604 96.9845 50.2935 97.2484 51.0802ZM104.812 48.6051V50.0441H99.0848V48.6051H104.812ZM100.754 45.9574H102.452V56.4907C102.452 56.9703 102.522 57.3301 102.661 57.5699C102.805 57.8049 102.987 57.9632 103.207 58.0448C103.433 58.1216 103.67 58.16 103.92 58.16C104.107 58.16 104.26 58.1503 104.38 58.1311C104.5 58.1072 104.596 58.0879 104.668 58.0736L105.013 59.5989C104.898 59.642 104.738 59.6853 104.531 59.7284C104.325 59.7763 104.064 59.8003 103.747 59.8003C103.267 59.8003 102.797 59.6972 102.337 59.491C101.881 59.2847 101.502 58.9705 101.2 58.5484C100.903 58.1263 100.754 57.5939 100.754 56.9512V45.9574ZM107.366 59.6564V48.6051H109.064V59.6564H107.366ZM108.229 46.7633C107.898 46.7633 107.613 46.6506 107.373 46.4251C107.138 46.1996 107.021 45.9287 107.021 45.6121C107.021 45.2956 107.138 45.0245 107.373 44.7991C107.613 44.5736 107.898 44.4609 108.229 44.4609C108.56 44.4609 108.843 44.5736 109.078 44.7991C109.318 45.0245 109.438 45.2956 109.438 45.6121C109.438 45.9287 109.318 46.1996 109.078 46.4251C108.843 46.6506 108.56 46.7633 108.229 46.7633ZM116.664 59.8866C115.627 59.8866 114.736 59.642 113.987 59.1528C113.239 58.6636 112.664 57.9897 112.26 57.1311C111.857 56.2725 111.656 55.2916 111.656 54.1883C111.656 53.066 111.862 52.0755 112.275 51.2169C112.692 50.3535 113.273 49.6796 114.015 49.1952C114.764 48.7059 115.637 48.4613 116.635 48.4613C117.411 48.4613 118.113 48.6051 118.736 48.893C119.36 49.1808 119.87 49.5836 120.268 50.1017C120.667 50.6197 120.913 51.2241 121.01 51.9148H119.311C119.182 51.4111 118.894 50.9651 118.448 50.5765C118.007 50.1832 117.411 49.9866 116.664 49.9866C116.002 49.9866 115.421 50.1593 114.923 50.5046C114.429 50.8452 114.042 51.3272 113.764 51.9507C113.491 52.5695 113.354 53.2962 113.354 54.1308C113.354 54.9846 113.489 55.728 113.757 56.3612C114.03 56.9943 114.414 57.486 114.908 57.8361C115.407 58.1863 115.992 58.3613 116.664 58.3613C117.105 58.3613 117.506 58.2846 117.865 58.1311C118.225 57.9776 118.529 57.757 118.779 57.4692C119.029 57.1814 119.206 56.836 119.311 56.4332H121.01C120.913 57.0855 120.676 57.673 120.297 58.1959C119.923 58.7139 119.426 59.1264 118.808 59.4333C118.194 59.7356 117.479 59.8866 116.664 59.8866ZM131.319 51.0802L129.794 51.5119C129.698 51.2577 129.556 51.0106 129.37 50.7708C129.187 50.5262 128.939 50.3247 128.621 50.1665C128.305 50.0082 127.9 49.9291 127.405 49.9291C126.729 49.9291 126.165 50.0848 125.715 50.3966C125.269 50.7037 125.045 51.0946 125.045 51.5694C125.045 51.9915 125.199 52.3249 125.507 52.5695C125.813 52.8142 126.292 53.018 126.945 53.1811L128.585 53.584C129.573 53.8238 130.309 54.1908 130.795 54.6848C131.279 55.1741 131.521 55.8048 131.521 56.577C131.521 57.2102 131.338 57.7761 130.974 58.275C130.615 58.7739 130.11 59.1671 129.463 59.455C128.816 59.7428 128.063 59.8866 127.204 59.8866C126.077 59.8866 125.144 59.642 124.406 59.1528C123.666 58.6636 123.199 57.9489 123.002 57.0087L124.614 56.6059C124.767 57.2006 125.057 57.6467 125.484 57.9441C125.916 58.2415 126.48 58.3901 127.175 58.3901C127.967 58.3901 128.595 58.2223 129.06 57.8866C129.531 57.546 129.766 57.1383 129.766 56.6634C129.766 56.2797 129.631 55.9583 129.363 55.6993C129.094 55.4355 128.682 55.2388 128.125 55.1093L126.283 54.6776C125.271 54.4377 124.527 54.0661 124.052 53.5624C123.583 53.0539 123.348 52.4184 123.348 51.6557C123.348 51.0323 123.522 50.4806 123.873 50.001C124.228 49.5213 124.71 49.1448 125.319 48.8713C125.933 48.5979 126.629 48.4613 127.405 48.4613C128.5 48.4613 129.357 48.701 129.981 49.1808C130.61 49.6604 131.056 50.2935 131.319 51.0802Z" fill="#9291A5"/>
</g>
<defs>
<filter id="filter0_d_24216_3480" x="0.753906" y="0.502441" width="586.051" height="473.493" filterUnits="userSpaceOnUse" color-interpolation-filters="sRGB">
<feFlood flood-opacity="0" result="BackgroundImageFix"/>
<feColorMatrix in="SourceAlpha" type="matrix" values="0 0 0 0 0 0 0 0 0 0 0 0 0 0 0 0 0 0 127 0" result="hardAlpha"/>
<feOffset dy="2"/>
<feGaussianBlur stdDeviation="3"/>
<feComposite in2="hardAlpha" operator="out"/>
<feColorMatrix type="matrix" values="0 0 0 0 0.0509804 0 0 0 0 0.0392157 0 0 0 0 0.172549 0 0 0 0.08 0"/>
<feBlend mode="normal" in2="BackgroundImageFix" result="effect1_dropShadow_24216_3480"/>
<feBlend mode="normal" in="SourceGraphic" in2="effect1_dropShadow_24216_3480" result="shape"/>
</filter>
<filter id="filter1_d_24216_3480" x="183.805" y="246.305" width="40.4102" height="40.4114" filterUnits="userSpaceOnUse" color-interpolation-filters="sRGB">
<feFlood flood-opacity="0" result="BackgroundImageFix"/>
<feColorMatrix in="SourceAlpha" type="matrix" values="0 0 0 0 0 0 0 0 0 0 0 0 0 0 0 0 0 0 127 0" result="hardAlpha"/>
<feOffset dy="8"/>
<feGaussianBlur stdDeviation="4"/>
<feComposite in2="hardAlpha" operator="out"/>
<feColorMatrix type="matrix" values="0 0 0 0 0.0509804 0 0 0 0 0.0392157 0 0 0 0 0.172549 0 0 0 0.08 0"/>
<feBlend mode="normal" in2="BackgroundImageFix" result="effect1_dropShadow_24216_3480"/>
<feBlend mode="normal" in="SourceGraphic" in2="effect1_dropShadow_24216_3480" result="shape"/>
</filter>
<filter id="filter2_d_24216_3480" x="151.461" y="167.205" width="105.105" height="88.0947" filterUnits="userSpaceOnUse" color-interpolation-filters="sRGB">
<feFlood flood-opacity="0" result="BackgroundImageFix"/>
<feColorMatrix in="SourceAlpha" type="matrix" values="0 0 0 0 0 0 0 0 0 0 0 0 0 0 0 0 0 0 127 0" result="hardAlpha"/>
<feOffset dy="2"/>
<feGaussianBlur stdDeviation="8"/>
<feComposite in2="hardAlpha" operator="out"/>
<feColorMatrix type="matrix" values="0 0 0 0 0.0509804 0 0 0 0 0.0392157 0 0 0 0 0.172549 0 0 0 0.12 0"/>
<feBlend mode="normal" in2="BackgroundImageFix" result="effect1_dropShadow_24216_3480"/>
<feBlend mode="normal" in="SourceGraphic" in2="effect1_dropShadow_24216_3480" result="shape"/>
</filter>
<linearGradient id="paint0_linear_24216_3480" x1="293.753" y1="180.201" x2="293.753" y2="438.802" gradientUnits="userSpaceOnUse">
<stop stop-color="#765DFF"/>
<stop offset="0.46679" stop-color="#CFCAFF"/>
<stop offset="1" stop-color="white"/>
</linearGradient>
<linearGradient id="paint1_linear_24216_3480" x1="8.94922" y1="246.564" x2="578.588" y2="246.564" gradientUnits="userSpaceOnUse">
<stop stop-color="#4A3AFF"/>
<stop offset="1" stop-color="#6D3AFF"/>
</linearGradient>
<clipPath id="clip0_24216_3480">
<rect width="587.559" height="475" rx="16" fill="white"/>
</clipPath>
</defs>
</svg>
