<svg width="588" height="370" viewBox="0 0 588 370" fill="none" xmlns="http://www.w3.org/2000/svg">
<g filter="url(#filter0_d_24216_3535)">
<path d="M558.294 4.50244H29.2658C16.8328 4.50244 6.75391 14.5813 6.75391 27.0143V443.483C6.75391 455.916 16.8328 465.995 29.2658 465.995H558.294C570.727 465.995 580.806 455.916 580.806 443.483V27.0143C580.806 14.5813 570.727 4.50244 558.294 4.50244Z" fill="white"/>
</g>
<path d="M52.6016 378.881C51.7585 378.881 51.0403 378.651 50.4472 378.193C49.854 377.731 49.4007 377.061 49.0873 376.184C48.774 375.304 48.6172 374.24 48.6172 372.994C48.6172 371.756 48.774 370.698 49.0873 369.821C49.4044 368.941 49.8595 368.269 50.4527 367.806C51.0496 367.34 51.7659 367.107 52.6016 367.107C53.4372 367.107 54.1517 367.34 54.7448 367.806C55.3417 368.269 55.7969 368.941 56.1103 369.821C56.4273 370.698 56.5859 371.756 56.5859 372.994C56.5859 374.24 56.4292 375.304 56.1159 376.184C55.8025 377.061 55.3492 377.731 54.7561 378.193C54.1629 378.651 53.4447 378.881 52.6016 378.881ZM52.6016 377.65C53.4372 377.65 54.0864 377.247 54.5489 376.442C55.0116 375.636 55.2429 374.487 55.2429 372.994C55.2429 372.002 55.1366 371.157 54.9239 370.459C54.715 369.762 54.4129 369.23 54.0173 368.864C53.6256 368.499 53.1538 368.316 52.6016 368.316C51.7733 368.316 51.1261 368.725 50.6598 369.542C50.1935 370.355 49.9602 371.506 49.9602 372.994C49.9602 373.987 50.0647 374.83 50.2736 375.523C50.4825 376.218 50.7829 376.746 51.1746 377.107C51.5701 377.47 52.0457 377.65 52.6016 377.65Z" fill="#615E83"/>
<path d="M52.4457 320.382C51.7892 320.382 51.1979 320.251 50.6718 319.99C50.1458 319.729 49.7243 319.371 49.4071 318.916C49.09 318.462 48.9165 317.943 48.8867 317.361H50.2298C50.282 317.879 50.517 318.308 50.9348 318.647C51.3564 318.984 51.8601 319.152 52.4457 319.152C52.9158 319.152 53.3336 319.041 53.6993 318.821C54.0686 318.601 54.3577 318.298 54.5667 317.915C54.7793 317.526 54.8856 317.088 54.8856 316.6C54.8856 316.1 54.7756 315.653 54.5554 315.262C54.3391 314.866 54.0406 314.555 53.6601 314.327C53.2796 314.1 52.845 313.984 52.3562 313.981C52.0055 313.977 51.6455 314.031 51.2762 314.143C50.9068 314.251 50.6028 314.391 50.3641 314.563L49.0658 314.406L49.7597 308.765H55.7138V309.996H50.9236L50.5207 313.376H50.5878C50.823 313.189 51.1176 313.035 51.4721 312.911C51.8264 312.789 52.1958 312.727 52.58 312.727C53.2814 312.727 53.9063 312.894 54.4547 313.231C55.0068 313.563 55.4396 314.018 55.7529 314.596C56.0701 315.175 56.2286 315.834 56.2286 316.577C56.2286 317.308 56.0645 317.961 55.7362 318.536C55.4117 319.107 54.9639 319.558 54.3931 319.89C53.8223 320.219 53.1732 320.382 52.4457 320.382ZM62.1898 320.382C61.3466 320.382 60.6284 320.153 60.0353 319.694C59.4421 319.231 58.9889 318.562 58.6754 317.685C58.3621 316.805 58.2054 315.741 58.2054 314.495C58.2054 313.257 58.3621 312.199 58.6754 311.322C58.9926 310.442 59.4477 309.771 60.0409 309.308C60.6378 308.841 61.3541 308.608 62.1898 308.608C63.0254 308.608 63.7398 308.841 64.333 309.308C64.9299 309.771 65.3851 310.442 65.6985 311.322C66.0155 312.199 66.1741 313.257 66.1741 314.495C66.1741 315.741 66.0174 316.805 65.7041 317.685C65.3907 318.562 64.9374 319.231 64.3443 319.694C63.7511 320.153 63.0329 320.382 62.1898 320.382ZM62.1898 319.152C63.0254 319.152 63.6745 318.749 64.1371 317.943C64.5998 317.137 64.8311 315.988 64.8311 314.495C64.8311 313.503 64.7247 312.658 64.5121 311.96C64.3032 311.262 64.0009 310.731 63.6055 310.365C63.2138 309.999 62.7419 309.817 62.1898 309.817C61.3615 309.817 60.7143 310.226 60.248 311.043C59.7817 311.855 59.5484 313.007 59.5484 314.495C59.5484 315.488 59.6529 316.331 59.8618 317.024C60.0707 317.719 60.371 318.247 60.7627 318.608C61.1583 318.97 61.6339 319.152 62.1898 319.152Z" fill="#615E83"/>
<path d="M52.8936 250.267V261.727H51.5058V251.721H51.4386L48.6406 253.579V252.169L51.5058 250.267H52.8936ZM59.9277 261.884C59.0847 261.884 58.3665 261.654 57.7733 261.195C57.1802 260.732 56.7269 260.063 56.4135 259.186C56.1001 258.306 55.9435 257.243 55.9435 255.997C55.9435 254.758 56.1001 253.701 56.4135 252.824C56.7306 251.944 57.1858 251.272 57.7789 250.809C58.3758 250.343 59.0921 250.11 59.9277 250.11C60.7635 250.11 61.4779 250.343 62.0711 250.809C62.668 251.272 63.1231 251.944 63.4364 252.824C63.7535 253.701 63.9121 254.758 63.9121 255.997C63.9121 257.243 63.7554 258.306 63.4421 259.186C63.1287 260.063 62.6754 260.732 62.0822 261.195C61.489 261.654 60.7709 261.884 59.9277 261.884ZM59.9277 260.652C60.7635 260.652 61.4126 260.249 61.8751 259.444C62.3377 258.638 62.569 257.488 62.569 255.997C62.569 255.004 62.4628 254.159 62.25 253.462C62.0411 252.764 61.739 252.232 61.3435 251.867C60.9518 251.501 60.4799 251.318 59.9277 251.318C59.0995 251.318 58.4523 251.726 57.986 252.544C57.5196 253.357 57.2864 254.508 57.2864 255.997C57.2864 256.989 57.3909 257.832 57.5999 258.526C57.8088 259.22 58.1091 259.747 58.5008 260.11C58.8962 260.471 59.3719 260.652 59.9277 260.652ZM69.7767 261.884C68.9336 261.884 68.2155 261.654 67.6223 261.195C67.0291 260.732 66.5758 260.063 66.2624 259.186C65.9491 258.306 65.7924 257.243 65.7924 255.997C65.7924 254.758 65.9491 253.701 66.2624 252.824C66.5795 251.944 67.0347 251.272 67.6278 250.809C68.2247 250.343 68.941 250.11 69.7767 250.11C70.6124 250.11 71.3268 250.343 71.92 250.809C72.5169 251.272 72.972 251.944 73.2854 252.824C73.6024 253.701 73.761 254.758 73.761 255.997C73.761 257.243 73.6043 258.306 73.291 259.186C72.9776 260.063 72.5243 260.732 71.9312 261.195C71.338 261.654 70.6198 261.884 69.7767 261.884ZM69.7767 260.652C70.6124 260.652 71.2615 260.249 71.724 259.444C72.1867 258.638 72.418 257.488 72.418 255.997C72.418 255.004 72.3117 254.159 72.099 253.462C71.8901 252.764 71.588 252.232 71.1924 251.867C70.8007 251.501 70.3289 251.318 69.7767 251.318C68.9485 251.318 68.3012 251.726 67.8349 252.544C67.3686 253.357 67.1353 254.508 67.1353 255.997C67.1353 256.989 67.2398 257.832 67.4488 258.526C67.6577 259.22 67.958 259.747 68.3497 260.11C68.7452 260.471 69.2208 260.652 69.7767 260.652Z" fill="#615E83"/>
<path d="M86.7891 256.736H540.826" stroke="#E5E5EF" stroke-width="1.5" stroke-linecap="round" stroke-dasharray="4 7"/>
<path d="M86.7891 316.609H540.826" stroke="#E5E5EF" stroke-width="1.5" stroke-linecap="round" stroke-dasharray="4 7"/>
<path d="M542.764 250.959C369.322 331.657 165.954 369.409 85.9492 378.198L542.764 378.237V250.959Z" fill="#E5EAFC"/>
<path d="M543.254 301.519C417.255 346.701 186.155 371.491 86.3555 378.237C323.749 364.094 489.868 350.244 543.254 345.088V301.519Z" fill="#C6D2FD"/>
<mask id="mask0_24216_3535" style="mask-type:alpha" maskUnits="userSpaceOnUse" x="85" y="312" width="294" height="67">
<path d="M378.929 312.301H85.9492V378.238H378.929V312.301Z" fill="#D9D9D9"/>
</mask>
<g mask="url(#mask0_24216_3535)">
<path d="M542.764 250.959C369.322 331.658 165.954 369.409 85.9492 378.198L542.764 378.237V250.959Z" fill="#C6D2FD"/>
<path d="M543.258 301.52C417.259 346.702 186.159 371.49 86.3594 378.237C323.753 364.094 489.872 350.245 543.258 345.087V301.52Z" fill="#93AAFD"/>
</g>
<path d="M379.043 312.302V378.168" stroke="#2D5BFF" stroke-width="1.5" stroke-linecap="round" stroke-dasharray="4 7"/>
<path d="M378.926 318.775C382.966 318.775 386.242 315.499 386.242 311.458C386.242 307.417 382.966 304.142 378.926 304.142C374.885 304.142 371.609 307.417 371.609 311.458C371.609 315.499 374.885 318.775 378.926 318.775Z" fill="#2D5BFF" stroke="white" stroke-width="2"/>
<path fill-rule="evenodd" clip-rule="evenodd" d="M342.934 246.821C337.962 246.821 333.93 250.853 333.93 255.826V278.634C333.93 283.607 337.962 287.638 342.934 287.638H370.669L377.46 293.469C378.304 294.194 379.549 294.194 380.393 293.469L387.184 287.638H414.919C419.892 287.638 423.924 283.607 423.924 278.634V255.826C423.924 250.853 419.892 246.821 414.919 246.821H342.934Z" fill="#1E1B39"/>
<path d="M348.152 274.495V258.123H349.201V274.495H348.152ZM351.683 263.034C351.605 262.387 351.295 261.884 350.749 261.526C350.203 261.167 349.534 260.988 348.741 260.988C348.161 260.988 347.653 261.082 347.219 261.269C346.788 261.457 346.451 261.715 346.208 262.043C345.97 262.371 345.85 262.745 345.85 263.162C345.85 263.512 345.934 263.813 346.099 264.064C346.27 264.312 346.487 264.519 346.752 264.684C347.016 264.846 347.293 264.981 347.584 265.087C347.873 265.19 348.14 265.273 348.383 265.337L349.713 265.695C350.054 265.785 350.434 265.908 350.851 266.066C351.273 266.224 351.676 266.439 352.06 266.711C352.449 266.98 352.768 267.326 353.019 267.748C353.271 268.17 353.396 268.688 353.396 269.302C353.396 270.009 353.212 270.65 352.84 271.22C352.473 271.792 351.936 272.246 351.228 272.582C350.525 272.92 349.671 273.088 348.664 273.088C347.725 273.088 346.914 272.937 346.227 272.634C345.545 272.331 345.008 271.909 344.615 271.368C344.228 270.826 344.008 270.197 343.957 269.481H345.595C345.636 269.976 345.803 270.385 346.093 270.709C346.387 271.029 346.759 271.268 347.205 271.425C347.658 271.578 348.144 271.656 348.664 271.656C349.27 271.656 349.813 271.557 350.295 271.361C350.777 271.161 351.159 270.884 351.44 270.53C351.721 270.171 351.862 269.754 351.862 269.277C351.862 268.842 351.741 268.487 351.497 268.215C351.254 267.942 350.935 267.72 350.538 267.55C350.141 267.379 349.713 267.23 349.253 267.102L347.641 266.642C346.618 266.348 345.807 265.928 345.211 265.382C344.613 264.836 344.315 264.121 344.315 263.239C344.315 262.506 344.513 261.867 344.91 261.321C345.311 260.77 345.848 260.344 346.521 260.041C347.2 259.735 347.956 259.581 348.791 259.581C349.636 259.581 350.386 259.733 351.043 260.035C351.7 260.334 352.22 260.742 352.604 261.263C352.992 261.783 353.196 262.373 353.217 263.034H351.683ZM355.775 272.858V271.707L360.098 266.974C360.605 266.42 361.022 265.938 361.351 265.528C361.679 265.115 361.923 264.727 362.08 264.364C362.242 263.999 362.323 263.615 362.323 263.214C362.323 262.753 362.212 262.354 361.99 262.018C361.773 261.681 361.475 261.421 361.095 261.238C360.716 261.054 360.289 260.963 359.817 260.963C359.313 260.963 358.873 261.066 358.499 261.276C358.128 261.481 357.84 261.768 357.635 262.139C357.435 262.511 357.335 262.945 357.335 263.444H355.825C355.825 262.676 356.002 262.003 356.357 261.423C356.71 260.842 357.192 260.391 357.802 260.067C358.415 259.743 359.104 259.581 359.867 259.581C360.635 259.581 361.315 259.743 361.907 260.067C362.5 260.391 362.965 260.828 363.301 261.378C363.638 261.928 363.807 262.54 363.807 263.214C363.807 263.696 363.719 264.166 363.545 264.627C363.373 265.084 363.075 265.592 362.65 266.155C362.228 266.714 361.641 267.396 360.89 268.202L357.948 271.349V271.451H364.038V272.858H355.775ZM371.104 273.037C370.26 273.037 369.507 272.892 368.846 272.602C368.19 272.312 367.668 271.909 367.279 271.394C366.895 270.873 366.687 270.269 366.652 269.584H368.264C368.298 270.006 368.443 270.369 368.7 270.677C368.955 270.98 369.29 271.214 369.704 271.38C370.117 271.547 370.575 271.63 371.078 271.63C371.641 271.63 372.14 271.532 372.575 271.335C373.01 271.139 373.351 270.867 373.598 270.517C373.846 270.168 373.969 269.763 373.969 269.302C373.969 268.821 373.849 268.396 373.611 268.029C373.372 267.658 373.022 267.369 372.562 267.159C372.101 266.951 371.539 266.846 370.873 266.846H369.825V265.439H370.873C371.393 265.439 371.85 265.345 372.242 265.158C372.639 264.97 372.948 264.706 373.17 264.364C373.396 264.023 373.508 263.623 373.508 263.162C373.508 262.719 373.41 262.333 373.215 262.005C373.019 261.677 372.741 261.421 372.383 261.238C372.029 261.054 371.612 260.963 371.13 260.963C370.677 260.963 370.251 261.045 369.85 261.212C369.454 261.374 369.13 261.61 368.879 261.922C368.627 262.229 368.49 262.6 368.469 263.034H366.934C366.96 262.349 367.167 261.747 367.555 261.231C367.942 260.711 368.45 260.306 369.077 260.016C369.707 259.726 370.401 259.581 371.155 259.581C371.965 259.581 372.66 259.745 373.24 260.074C373.82 260.398 374.266 260.826 374.577 261.359C374.888 261.892 375.044 262.468 375.044 263.086C375.044 263.823 374.85 264.452 374.462 264.972C374.078 265.492 373.556 265.852 372.895 266.053V266.155C373.722 266.291 374.368 266.644 374.832 267.211C375.297 267.774 375.53 268.471 375.53 269.302C375.53 270.014 375.335 270.653 374.948 271.22C374.564 271.783 374.04 272.227 373.374 272.551C372.709 272.875 371.953 273.037 371.104 273.037ZM380.018 271.067L379.915 271.757C379.843 272.244 379.732 272.764 379.583 273.319C379.438 273.872 379.286 274.395 379.128 274.885C378.971 275.375 378.84 275.766 378.739 276.056H377.587C377.643 275.782 377.715 275.422 377.805 274.974C377.895 274.527 377.984 274.027 378.074 273.472C378.167 272.922 378.244 272.36 378.303 271.783L378.38 271.067H380.018ZM386.579 273.037C385.701 273.037 384.925 272.882 384.251 272.57C383.582 272.255 383.06 271.821 382.684 271.272C382.309 270.717 382.124 270.087 382.128 269.379C382.124 268.824 382.233 268.313 382.455 267.844C382.676 267.371 382.979 266.976 383.363 266.661C383.75 266.341 384.183 266.138 384.661 266.053V265.976C384.034 265.814 383.535 265.463 383.164 264.922C382.793 264.376 382.61 263.755 382.614 263.06C382.61 262.395 382.779 261.8 383.12 261.276C383.461 260.751 383.929 260.338 384.527 260.035C385.128 259.733 385.812 259.581 386.579 259.581C387.338 259.581 388.016 259.733 388.613 260.035C389.21 260.338 389.679 260.751 390.02 261.276C390.365 261.8 390.54 262.395 390.544 263.06C390.54 263.755 390.351 264.376 389.976 264.922C389.604 265.463 389.111 265.814 388.498 265.976V266.053C388.971 266.138 389.397 266.341 389.777 266.661C390.157 266.976 390.459 267.371 390.685 267.844C390.911 268.313 391.026 268.824 391.03 269.379C391.026 270.087 390.835 270.717 390.455 271.272C390.079 271.821 389.557 272.255 388.888 272.57C388.223 272.882 387.453 273.037 386.579 273.037ZM386.579 271.63C387.172 271.63 387.684 271.534 388.114 271.342C388.545 271.151 388.877 270.879 389.111 270.53C389.347 270.18 389.466 269.771 389.47 269.302C389.466 268.807 389.338 268.37 389.087 267.991C388.834 267.612 388.491 267.314 388.057 267.095C387.625 266.878 387.134 266.77 386.579 266.77C386.02 266.77 385.522 266.878 385.083 267.095C384.648 267.314 384.305 267.612 384.053 267.991C383.805 268.37 383.685 268.807 383.688 269.302C383.685 269.771 383.797 270.18 384.027 270.53C384.262 270.879 384.597 271.151 385.031 271.342C385.467 271.534 385.982 271.63 386.579 271.63ZM386.579 265.413C387.048 265.413 387.463 265.32 387.826 265.132C388.193 264.944 388.481 264.682 388.689 264.345C388.899 264.009 389.005 263.615 389.01 263.162C389.005 262.719 388.901 262.333 388.696 262.005C388.491 261.672 388.207 261.417 387.845 261.238C387.484 261.054 387.062 260.963 386.579 260.963C386.089 260.963 385.66 261.054 385.293 261.238C384.927 261.417 384.644 261.672 384.443 262.005C384.243 262.333 384.145 262.719 384.149 263.162C384.145 263.615 384.245 264.009 384.449 264.345C384.658 264.682 384.947 264.944 385.312 265.132C385.679 265.32 386.101 265.413 386.579 265.413ZM393.175 270.171V268.867L398.931 259.76H399.876V261.781H399.237L394.889 268.662V268.764H402.64V270.171H393.175ZM399.34 272.858V269.775V269.167V259.76H400.849V272.858H399.34ZM409.206 259.581C409.743 259.585 410.28 259.688 410.818 259.888C411.355 260.088 411.845 260.42 412.288 260.885C412.732 261.346 413.089 261.975 413.357 262.772C413.626 263.57 413.759 264.569 413.759 265.771C413.759 266.935 413.649 267.97 413.427 268.874C413.21 269.773 412.894 270.532 412.481 271.151C412.071 271.769 411.573 272.238 410.984 272.558C410.4 272.877 409.739 273.037 409.002 273.037C408.268 273.037 407.614 272.892 407.039 272.602C406.467 272.308 405.997 271.9 405.632 271.38C405.269 270.856 405.036 270.249 404.934 269.558H406.495C406.636 270.159 406.915 270.655 407.332 271.048C407.754 271.435 408.311 271.63 409.002 271.63C410.012 271.63 410.809 271.189 411.394 270.306C411.982 269.424 412.276 268.177 412.276 266.565H412.174C411.935 266.923 411.651 267.232 411.323 267.492C410.995 267.752 410.63 267.953 410.23 268.094C409.829 268.234 409.402 268.304 408.95 268.304C408.2 268.304 407.511 268.118 406.884 267.748C406.262 267.373 405.763 266.859 405.388 266.207C405.017 265.55 404.831 264.8 404.831 263.956C404.831 263.154 405.01 262.421 405.369 261.755C405.732 261.086 406.238 260.553 406.891 260.157C407.547 259.76 408.32 259.568 409.206 259.581ZM409.206 260.988C408.668 260.988 408.186 261.123 407.754 261.391C407.328 261.655 406.989 262.013 406.738 262.466C406.49 262.912 406.367 263.41 406.367 263.956C406.367 264.501 406.486 264.998 406.725 265.445C406.968 265.888 407.299 266.243 407.716 266.508C408.138 266.768 408.618 266.897 409.155 266.897C409.56 266.897 409.937 266.818 410.287 266.661C410.637 266.499 410.941 266.279 411.201 266.002C411.466 265.721 411.673 265.403 411.822 265.049C411.971 264.691 412.045 264.318 412.045 263.93C412.045 263.418 411.923 262.938 411.675 262.49C411.432 262.043 411.095 261.681 410.664 261.404C410.238 261.126 409.752 260.988 409.206 260.988Z" fill="white"/>
<path d="M48.1472 201.628L62.4002 173.424V173.189H45.7969V167.247H69.9213V173.274L55.6514 201.628H48.1472ZM86.9987 202.099C84.6261 202.099 82.5108 201.662 80.6529 200.789C78.8062 199.916 77.34 198.713 76.2545 197.18C75.1689 195.646 74.6036 193.889 74.5589 191.908H81.6099C81.6882 193.24 82.2477 194.32 83.2886 195.148C84.3295 195.977 85.5662 196.391 86.9987 196.391C88.1403 196.391 89.1476 196.139 90.0206 195.636C90.9048 195.12 91.5931 194.41 92.0855 193.503C92.5891 192.585 92.8409 191.533 92.8409 190.347C92.8409 189.139 92.5836 188.075 92.0687 187.158C91.565 186.239 90.8656 185.523 89.9702 185.008C89.0749 184.494 88.0508 184.23 86.898 184.219C85.8907 184.219 84.9114 184.426 83.9601 184.84C83.02 185.254 82.2869 185.819 81.7609 186.536L75.2975 185.378L76.9259 167.247H97.9445V173.189H82.9193L82.0295 181.802H82.2309C82.8353 180.951 83.7475 180.247 84.9674 179.686C86.1873 179.127 87.5528 178.848 89.0636 178.848C91.1342 178.848 92.9808 179.334 94.6037 180.307C96.2266 181.281 97.5081 182.619 98.4481 184.32C99.3882 186.01 99.8528 187.958 99.8415 190.162C99.8528 192.48 99.3155 194.538 98.2299 196.34C97.1554 198.131 95.6502 199.542 93.7139 200.57C91.7889 201.589 89.5506 202.099 86.9987 202.099ZM123.731 195.182V193.369C123.731 191.992 124.021 190.727 124.603 189.574C125.197 188.411 126.053 187.482 127.172 186.787C128.303 186.083 129.68 185.731 131.302 185.731C132.947 185.731 134.33 186.077 135.448 186.772C136.58 187.465 137.429 188.394 138 189.558C138.582 190.711 138.874 191.981 138.874 193.369V195.182C138.874 196.559 138.582 197.828 138 198.992C137.418 200.146 136.563 201.069 135.432 201.762C134.301 202.468 132.925 202.82 131.302 202.82C129.657 202.82 128.275 202.468 127.155 201.762C126.036 201.069 125.185 200.146 124.603 198.992C124.021 197.828 123.731 196.559 123.731 195.182ZM128.616 193.369V195.182C128.616 195.977 128.806 196.726 129.187 197.431C129.578 198.137 130.284 198.489 131.302 198.489C132.32 198.489 133.015 198.142 133.384 197.448C133.765 196.755 133.955 195.999 133.955 195.182V193.369C133.955 192.552 133.776 191.791 133.418 191.086C133.059 190.38 132.354 190.028 131.302 190.028C130.295 190.028 129.595 190.38 129.204 191.086C128.812 191.791 128.616 192.552 128.616 193.369ZM106.087 175.507V173.693C106.087 172.306 106.383 171.035 106.976 169.882C107.57 168.718 108.426 167.79 109.545 167.095C110.675 166.402 112.041 166.055 113.641 166.055C115.298 166.055 116.686 166.402 117.805 167.095C118.924 167.79 119.775 168.718 120.356 169.882C120.938 171.035 121.23 172.306 121.23 173.693V175.507C121.23 176.895 120.933 178.164 120.34 179.317C119.758 180.471 118.901 181.394 117.771 182.087C116.652 182.77 115.276 183.111 113.641 183.111C112.007 183.111 110.625 182.765 109.495 182.07C108.375 181.365 107.525 180.443 106.943 179.3C106.372 178.147 106.087 176.883 106.087 175.507ZM111.005 173.693V175.507C111.005 176.324 111.196 177.079 111.576 177.773C111.968 178.467 112.656 178.814 113.641 178.814C114.671 178.814 115.37 178.467 115.739 177.773C116.12 177.079 116.31 176.324 116.31 175.507V173.693C116.31 172.876 116.131 172.115 115.773 171.411C115.415 170.705 114.705 170.353 113.641 170.353C112.645 170.353 111.957 170.711 111.576 171.427C111.196 172.144 111.005 172.899 111.005 173.693ZM108.303 201.628L131.94 167.247H136.339L112.701 201.628H108.303Z" fill="#1E1B39"/>
<path d="M44 123.252H543.257" stroke="#E5E5EF"/>
<path d="M520.248 47.2625H429.438C417.005 47.2625 406.926 57.3413 406.926 69.7743V69.7868C406.926 82.2197 417.005 92.2986 429.438 92.2986H520.248C532.681 92.2986 542.76 82.2197 542.76 69.7868V69.7743C542.76 57.3413 532.681 47.2625 520.248 47.2625Z" fill="#F8F8FF"/>
<path d="M426.324 63.9417H427.981L431.876 73.4548H432.011L435.905 63.9417H437.561V75.4022H436.263V66.6949H436.152L432.57 75.4022H431.316L427.735 66.6949H427.623V75.4022H426.324V63.9417ZM443.657 75.5813C442.881 75.5813 442.2 75.3966 441.614 75.0273C441.032 74.658 440.578 74.1412 440.249 73.4772C439.925 72.8131 439.762 72.0371 439.762 71.1493C439.762 70.2539 439.925 69.4724 440.249 68.8045C440.578 68.1367 441.032 67.6182 441.614 67.2489C442.2 66.8796 442.881 66.6949 443.657 66.6949C444.433 66.6949 445.111 66.8796 445.693 67.2489C446.28 67.6182 446.735 68.1367 447.059 68.8045C447.387 69.4724 447.552 70.2539 447.552 71.1493C447.552 72.0371 447.387 72.8131 447.059 73.4772C446.735 74.1412 446.28 74.658 445.693 75.0273C445.111 75.3966 444.433 75.5813 443.657 75.5813ZM443.657 74.3949C444.246 74.3949 444.731 74.2439 445.111 73.9416C445.492 73.6394 445.774 73.2422 445.957 72.7498C446.139 72.2573 446.231 71.7238 446.231 71.1493C446.231 70.5748 446.139 70.0394 445.957 69.5432C445.774 69.047 445.492 68.646 445.111 68.34C444.731 68.0342 444.246 67.8812 443.657 67.8812C443.067 67.8812 442.582 68.0342 442.202 68.34C441.821 68.646 441.54 69.047 441.356 69.5432C441.174 70.0394 441.083 70.5748 441.083 71.1493C441.083 71.7238 441.174 72.2573 441.356 72.7498C441.54 73.2422 441.821 73.6394 442.202 73.9416C442.582 74.2439 443.067 74.3949 443.657 74.3949ZM450.888 70.2315V75.4022H449.568V66.8067H450.843V68.1498H450.956C451.157 67.7133 451.463 67.3627 451.873 67.0978C452.284 66.8291 452.813 66.6949 453.462 66.6949C454.044 66.6949 454.554 66.8143 454.99 67.053C455.426 67.288 455.766 67.6462 456.008 68.1274C456.251 68.605 456.372 69.2093 456.372 69.9405V75.4022H455.052V70.0301C455.052 69.3549 454.876 68.8288 454.526 68.452C454.175 68.0715 453.694 67.8812 453.082 67.8812C452.661 67.8812 452.284 67.9726 451.952 68.1554C451.623 68.3382 451.364 68.605 451.174 68.9556C450.984 69.3063 450.888 69.7316 450.888 70.2315ZM462.523 66.8067V67.9259H458.069V66.8067H462.523ZM459.367 64.7475H460.689V72.94C460.689 73.313 460.743 73.5928 460.851 73.7793C460.962 73.9621 461.104 74.0853 461.276 74.1487C461.451 74.2084 461.636 74.2382 461.83 74.2382C461.975 74.2382 462.094 74.2308 462.188 74.2158C462.281 74.1971 462.356 74.1823 462.412 74.171L462.681 75.3574C462.591 75.391 462.466 75.4246 462.305 75.4581C462.145 75.4955 461.941 75.5141 461.696 75.5141C461.322 75.5141 460.956 75.4339 460.598 75.2734C460.244 75.113 459.949 74.8687 459.715 74.5405C459.483 74.2121 459.367 73.798 459.367 73.2981V64.7475ZM466.016 70.2315V75.4022H464.695V63.9417H466.016V68.1498H466.127C466.329 67.7059 466.632 67.3533 467.034 67.0922C467.441 66.8273 467.981 66.6949 468.657 66.6949C469.243 66.6949 469.755 66.8124 470.195 67.0474C470.637 67.2787 470.978 67.6349 471.22 68.1162C471.466 68.5937 471.589 69.2019 471.589 69.9405V75.4022H470.268V70.0301C470.268 69.3473 470.092 68.8194 469.737 68.4464C469.386 68.0697 468.9 67.8812 468.276 67.8812C467.844 67.8812 467.456 67.9726 467.112 68.1554C466.772 68.3382 466.504 68.605 466.306 68.9556C466.113 69.3063 466.016 69.7316 466.016 70.2315Z" fill="#615E83"/>
<path fill-rule="evenodd" clip-rule="evenodd" d="M514.063 66.913C513.792 67.1847 513.792 67.6253 514.063 67.897L518.799 72.6335C518.805 72.6385 518.809 72.6433 518.814 72.6481C518.95 72.784 519.128 72.852 519.306 72.8519C519.485 72.852 519.663 72.784 519.799 72.6481C519.803 72.6433 519.808 72.6385 519.812 72.6335L524.549 67.897C524.821 67.6253 524.821 67.1847 524.549 66.913C524.278 66.6413 523.836 66.6413 523.565 66.913L519.306 71.1719L515.048 66.913C514.775 66.6413 514.335 66.6413 514.063 66.913Z" fill="#615E83"/>
<path d="M55.3346 79.4685C55.2643 78.7592 54.9623 78.2081 54.4289 77.8153C53.8954 77.4225 53.1714 77.2261 52.2568 77.2261C51.6354 77.2261 51.1107 77.314 50.6827 77.4899C50.2547 77.6599 49.9265 77.8973 49.6978 78.2022C49.475 78.5071 49.3637 78.8529 49.3637 79.2398C49.352 79.5623 49.4193 79.8437 49.566 80.084C49.7184 80.3244 49.9265 80.5326 50.1902 80.7084C50.4541 80.8785 50.759 81.0279 51.1048 81.1569C51.4507 81.28 51.8201 81.3855 52.2128 81.4734L53.8309 81.8604C54.6164 82.0362 55.3376 82.2707 55.9941 82.5639C56.6507 82.857 57.2193 83.2175 57.7001 83.6455C58.1808 84.0734 58.5531 84.5776 58.8169 85.158C59.0866 85.7384 59.2244 86.4038 59.2302 87.1542C59.2244 88.2564 58.943 89.2119 58.386 90.021C57.8349 90.8241 57.0377 91.4484 55.9941 91.894C54.9564 92.3336 53.7048 92.5535 52.2393 92.5535C50.7853 92.5535 49.519 92.3307 48.4404 91.8852C47.3675 91.4397 46.5291 90.7801 45.9254 89.9066C45.3273 89.0272 45.0138 87.9397 44.9844 86.6442H48.669C48.71 87.248 48.883 87.7521 49.1878 88.1566C49.4986 88.5553 49.9118 88.8572 50.4277 89.0624C50.9495 89.2618 51.5387 89.3614 52.1953 89.3614C52.8401 89.3614 53.4 89.2676 53.8749 89.08C54.3556 88.8924 54.7278 88.6315 54.9917 88.2973C55.2554 87.9632 55.3873 87.5792 55.3873 87.1454C55.3873 86.7409 55.2672 86.4008 55.0268 86.1253C54.7923 85.8497 54.4464 85.6153 53.9891 85.4218C53.5378 85.2283 52.9837 85.0525 52.3272 84.8942L50.3662 84.4018C48.8477 84.0324 47.6489 83.4549 46.7696 82.6694C45.8901 81.8838 45.4534 80.8257 45.4593 79.4949C45.4534 78.4044 45.7436 77.4518 46.3299 76.6369C46.922 75.8221 47.734 75.186 48.7657 74.7287C49.7975 74.2715 50.97 74.0427 52.2832 74.0427C53.6198 74.0427 54.7865 74.2715 55.7831 74.7287C56.7855 75.186 57.5652 75.8221 58.1222 76.6369C58.6791 77.4518 58.9664 78.3956 58.9839 79.4685H55.3346ZM65.5727 92.5535C64.7108 92.5535 63.9428 92.4041 63.2687 92.105C62.5945 91.8002 62.0611 91.3517 61.6682 90.7596C61.2814 90.1617 61.0879 89.4171 61.0879 88.526C61.0879 87.7756 61.2257 87.1454 61.5012 86.6353C61.7767 86.1253 62.1519 85.7149 62.6268 85.4042C63.1016 85.0936 63.641 84.859 64.2448 84.7007C64.8545 84.5425 65.4935 84.431 66.1618 84.3666C66.9474 84.2845 67.5805 84.2083 68.0613 84.1379C68.542 84.0617 68.8908 83.9503 69.1077 83.8038C69.3246 83.6572 69.433 83.4403 69.433 83.153V83.1003C69.433 82.5433 69.2572 82.1124 68.9055 81.8076C68.5596 81.5028 68.0671 81.3503 67.4281 81.3503C66.7539 81.3503 66.2176 81.4998 65.8189 81.7988C65.4202 82.092 65.1565 82.4613 65.0275 82.9068L61.5628 82.6254C61.7386 81.8047 62.0845 81.0954 62.6003 80.4973C63.1163 79.8936 63.7817 79.4304 64.5966 79.1079C65.4173 78.7797 66.367 78.6156 67.4457 78.6156C68.1961 78.6156 68.9142 78.7035 69.6002 78.8793C70.292 79.0552 70.9045 79.3278 71.438 79.6971C71.9774 80.0665 72.4025 80.5413 72.7131 81.1217C73.0239 81.6962 73.1792 82.3851 73.1792 83.1882V92.2985H69.6265V90.4254H69.521C69.3041 90.8475 69.014 91.2198 68.6504 91.5422C68.287 91.8588 67.8502 92.1079 67.3402 92.2897C66.8301 92.4655 66.241 92.5535 65.5727 92.5535ZM66.6455 89.9682C67.1966 89.9682 67.6832 89.8597 68.1053 89.6428C68.5274 89.42 68.8585 89.1211 69.099 88.7459C69.3393 88.3706 69.4595 87.9456 69.4595 87.4707V86.0374C69.3422 86.1136 69.181 86.1839 68.9758 86.2484C68.7765 86.3071 68.5508 86.3628 68.2987 86.4155C68.0466 86.4624 67.7945 86.5064 67.5425 86.5474C67.2904 86.5826 67.0617 86.6148 66.8565 86.6442C66.4169 86.7087 66.0328 86.8112 65.7045 86.9519C65.3763 87.0926 65.1212 87.2832 64.9396 87.5235C64.7578 87.758 64.6669 88.0512 64.6669 88.4029C64.6669 88.9129 64.8515 89.3027 65.221 89.5724C65.5961 89.8363 66.071 89.9682 66.6455 89.9682ZM79.8316 74.289V92.2985H76.0855V74.289H79.8316ZM88.9881 92.5623C87.5986 92.5623 86.4027 92.2809 85.4002 91.7181C84.4036 91.1495 83.6356 90.3463 83.0963 89.3086C82.557 88.2651 82.2873 87.0311 82.2873 85.6065C82.2873 84.2171 82.557 82.9977 83.0963 81.9483C83.6356 80.8989 84.3949 80.0811 85.3739 79.4949C86.3588 78.9087 87.5136 78.6156 88.8386 78.6156C89.7296 78.6156 90.5592 78.7592 91.3272 79.0464C92.101 79.3278 92.7752 79.7529 93.3497 80.3215C93.9301 80.8902 94.3816 81.6054 94.7039 82.4671C95.0264 83.323 95.1876 84.3256 95.1876 85.4746V86.5035H83.7822V84.182H91.6613C91.6613 83.6426 91.5441 83.1648 91.3096 82.7485C91.0751 82.3323 90.7497 82.007 90.3335 81.7724C89.9231 81.5321 89.4453 81.4119 88.9002 81.4119C88.3315 81.4119 87.8272 81.5438 87.3876 81.8076C86.9538 82.0656 86.6137 82.4143 86.3676 82.8541C86.1213 83.2879 85.9952 83.7716 85.9894 84.305V86.5123C85.9894 87.1805 86.1125 87.758 86.3588 88.2446C86.6108 88.7311 86.9655 89.1064 87.4228 89.3701C87.88 89.634 88.4223 89.7659 89.0496 89.7659C89.4659 89.7659 89.8469 89.7073 90.1928 89.5901C90.5387 89.4728 90.8347 89.2969 91.081 89.0624C91.3272 88.8279 91.5148 88.5407 91.6438 88.2007L95.1085 88.4293C94.9325 89.2618 94.572 89.9887 94.0269 90.6101C93.4875 91.2257 92.7899 91.7064 91.934 92.0523C91.0839 92.3923 90.1019 92.5623 88.9881 92.5623ZM108.871 82.643L105.441 82.8541C105.382 82.561 105.256 82.2971 105.063 82.0626C104.869 81.8223 104.614 81.6317 104.298 81.491C103.987 81.3444 103.615 81.2712 103.181 81.2712C102.601 81.2712 102.111 81.3943 101.713 81.6405C101.314 81.8809 101.115 82.2033 101.115 82.6078C101.115 82.9303 101.244 83.2029 101.501 83.4257C101.759 83.6484 102.202 83.8273 102.829 83.962L105.274 84.4545C106.587 84.7241 107.566 85.158 108.211 85.756C108.856 86.3539 109.178 87.1396 109.178 88.1126C109.178 88.9979 108.917 89.7747 108.396 90.4431C107.88 91.1113 107.17 91.6332 106.268 92.0083C105.371 92.3776 104.336 92.5623 103.163 92.5623C101.375 92.5623 99.9509 92.19 98.8898 91.4455C97.8345 90.6951 97.216 89.6751 97.0342 88.3853L100.719 88.1919C100.83 88.737 101.1 89.1532 101.528 89.4405C101.956 89.7219 102.504 89.8626 103.172 89.8626C103.829 89.8626 104.356 89.7366 104.755 89.4845C105.16 89.2265 105.365 88.8954 105.371 88.4908C105.365 88.1508 105.221 87.8723 104.94 87.6554C104.658 87.4327 104.225 87.2626 103.638 87.1454L101.299 86.6793C99.9801 86.4155 98.9982 85.9583 98.3533 85.3075C97.7143 84.6567 97.3948 83.8273 97.3948 82.8189C97.3948 81.9513 97.6293 81.2037 98.0983 80.5765C98.5732 79.9492 99.2386 79.4656 100.095 79.1256C100.956 78.7855 101.965 78.6156 103.12 78.6156C104.825 78.6156 106.168 78.9761 107.147 79.6971C108.132 80.4182 108.706 81.4002 108.871 82.643ZM123.354 97.6451C122.141 97.6451 121.099 97.478 120.232 97.1438C119.37 96.8155 118.684 96.3671 118.174 95.7984C117.664 95.2298 117.333 94.5908 117.18 93.8813L120.646 93.4153C120.75 93.685 120.918 93.937 121.147 94.1716C121.375 94.406 121.677 94.5937 122.053 94.7344C122.433 94.8809 122.897 94.9542 123.442 94.9542C124.257 94.9542 124.928 94.7549 125.455 94.3562C125.989 93.9635 126.256 93.3039 126.256 92.3776V89.9066H126.097C125.934 90.2818 125.687 90.6364 125.359 90.9706C125.03 91.3048 124.608 91.5774 124.092 91.7885C123.577 91.9995 122.961 92.105 122.245 92.105C121.231 92.105 120.308 91.8705 119.476 91.4015C118.649 90.9266 117.989 90.2026 117.498 89.2294C117.01 88.2504 116.767 87.0135 116.767 85.5186C116.767 83.9885 117.017 82.7105 117.514 81.6845C118.013 80.6586 118.676 79.8906 119.502 79.3805C120.335 78.8705 121.246 78.6156 122.237 78.6156C122.994 78.6156 123.626 78.7444 124.136 79.0024C124.646 79.2546 125.057 79.5711 125.368 79.9521C125.684 80.3274 125.927 80.6967 126.097 81.0601H126.238V78.7914H129.958V92.4304C129.958 93.5794 129.676 94.5409 129.114 95.3147C128.551 96.0886 127.771 96.6689 126.775 97.0559C125.784 97.4486 124.644 97.6451 123.354 97.6451ZM123.433 89.291C124.037 89.291 124.547 89.1415 124.964 88.8426C125.386 88.5378 125.708 88.1039 125.93 87.5411C126.159 86.9724 126.274 86.2924 126.274 85.5009C126.274 84.7095 126.162 84.0236 125.939 83.4432C125.717 82.857 125.394 82.4026 124.971 82.0802C124.549 81.7578 124.037 81.5966 123.433 81.5966C122.817 81.5966 122.298 81.7636 121.876 82.0978C121.454 82.4261 121.134 82.8834 120.918 83.4696C120.701 84.0559 120.593 84.7329 120.593 85.5009C120.593 86.2806 120.701 86.9548 120.918 87.5235C121.141 88.0863 121.461 88.523 121.876 88.8338C122.298 89.1386 122.817 89.291 123.433 89.291ZM139.041 92.5623C137.676 92.5623 136.494 92.2721 135.498 91.6917C134.507 91.1055 133.742 90.2905 133.203 89.2471C132.664 88.1977 132.394 86.9812 132.394 85.5977C132.394 84.2024 132.664 82.9831 133.203 81.9395C133.742 80.8902 134.507 80.0752 135.498 79.4949C136.494 78.9087 137.676 78.6156 139.041 78.6156C140.408 78.6156 141.586 78.9087 142.577 79.4949C143.573 80.0752 144.342 80.8902 144.881 81.9395C145.42 82.9831 145.69 84.2024 145.69 85.5977C145.69 86.9812 145.42 88.1977 144.881 89.2471C144.342 90.2905 143.573 91.1055 142.577 91.6917C141.586 92.2721 140.408 92.5623 139.041 92.5623ZM139.059 89.6603C139.681 89.6603 140.2 89.4845 140.616 89.1328C141.033 88.7752 141.345 88.2886 141.557 87.673C141.773 87.0574 141.882 86.3569 141.882 85.5713C141.882 84.7857 141.773 84.0851 141.557 83.4696C141.345 82.8541 141.033 82.3675 140.616 82.0099C140.2 81.6523 139.681 81.4734 139.059 81.4734C138.432 81.4734 137.905 81.6523 137.477 82.0099C137.055 82.3675 136.735 82.8541 136.518 83.4696C136.307 84.0851 136.201 84.7857 136.201 85.5713C136.201 86.3569 136.307 87.0574 136.518 87.673C136.735 88.2886 137.055 88.7752 137.477 89.1328C137.905 89.4845 138.432 89.6603 139.059 89.6603ZM151.978 92.5535C151.116 92.5535 150.348 92.4041 149.674 92.105C148.999 91.8002 148.466 91.3517 148.073 90.7596C147.686 90.1617 147.492 89.4171 147.492 88.526C147.492 87.7756 147.631 87.1454 147.905 86.6353C148.181 86.1253 148.556 85.7149 149.031 85.4042C149.506 85.0936 150.045 84.859 150.65 84.7007C151.26 84.5425 151.898 84.431 152.566 84.3666C153.352 84.2845 153.985 84.2083 154.465 84.1379C154.947 84.0617 155.295 83.9503 155.512 83.8038C155.729 83.6572 155.837 83.4403 155.837 83.153V83.1003C155.837 82.5433 155.662 82.1124 155.31 81.8076C154.964 81.5028 154.472 81.3503 153.833 81.3503C153.159 81.3503 152.622 81.4998 152.223 81.7988C151.825 82.092 151.561 82.4613 151.432 82.9068L147.967 82.6254C148.143 81.8047 148.49 81.0954 149.005 80.4973C149.521 79.8936 150.186 79.4304 151.001 79.1079C151.822 78.7797 152.771 78.6156 153.851 78.6156C154.6 78.6156 155.319 78.7035 156.005 78.8793C156.696 79.0552 157.31 79.3278 157.842 79.6971C158.382 80.0665 158.807 80.5413 159.117 81.1217C159.428 81.6962 159.583 82.3851 159.583 83.1882V92.2985H156.031V90.4254H155.925C155.709 90.8475 155.419 91.2198 155.055 91.5422C154.692 91.8588 154.255 92.1079 153.745 92.2897C153.235 92.4655 152.645 92.5535 151.978 92.5535ZM153.05 89.9682C153.601 89.9682 154.088 89.8597 154.51 89.6428C154.932 89.42 155.263 89.1211 155.503 88.7459C155.744 88.3706 155.864 87.9456 155.864 87.4707V86.0374C155.746 86.1136 155.585 86.1839 155.38 86.2484C155.181 86.3071 154.955 86.3628 154.703 86.4155C154.451 86.4624 154.199 86.5064 153.948 86.5474C153.695 86.5826 153.466 86.6148 153.261 86.6442C152.822 86.7087 152.437 86.8112 152.109 86.9519C151.781 87.0926 151.525 87.2832 151.344 87.5235C151.163 87.758 151.072 88.0512 151.072 88.4029C151.072 88.9129 151.256 89.3027 151.625 89.5724C152 89.8363 152.475 89.9682 153.05 89.9682ZM166.237 74.289V92.2985H162.49V74.289H166.237Z" fill="#1E1B39"/>
<path d="M53.8437 48.6051C53.7574 47.8761 53.4072 47.31 52.7932 46.9072C52.1793 46.5042 51.4262 46.3029 50.534 46.3029C49.8817 46.3029 49.311 46.4083 48.8217 46.6194C48.3372 46.8304 47.9583 47.1206 47.6849 47.49C47.4162 47.8593 47.282 48.2789 47.282 48.7491C47.282 49.1424 47.3755 49.4805 47.5626 49.7635C47.7545 50.0417 47.9991 50.2744 48.2965 50.4615C48.5938 50.6437 48.9056 50.7948 49.2318 50.9147C49.5579 51.0298 49.8578 51.1233 50.1312 51.1954L51.6277 51.5982C52.0114 51.6989 52.4383 51.8381 52.9084 52.0155C53.3832 52.193 53.8365 52.4352 54.2682 52.7421C54.7047 53.0444 55.0644 53.4329 55.3474 53.9078C55.6304 54.3826 55.7719 54.9654 55.7719 55.6561C55.7719 56.4523 55.5633 57.1718 55.1459 57.8145C54.7334 58.4573 54.1291 58.9681 53.3328 59.347C52.5414 59.726 51.5797 59.9154 50.4477 59.9154C49.3925 59.9154 48.4787 59.7451 47.7064 59.4046C46.939 59.064 46.3347 58.5891 45.8934 57.9801C45.4569 57.3709 45.2099 56.6634 45.1523 55.8576H46.9942C47.0421 56.4139 47.2292 56.8744 47.5554 57.239C47.8863 57.5987 48.3037 57.8673 48.8073 58.0448C49.3157 58.2175 49.8625 58.3038 50.4477 58.3038C51.1288 58.3038 51.7404 58.1935 52.2824 57.9729C52.8244 57.7474 53.2537 57.4356 53.5703 57.0375C53.8868 56.6346 54.0451 56.1645 54.0451 55.6274C54.0451 55.1381 53.9084 54.74 53.635 54.433C53.3616 54.126 53.0019 53.8766 52.5558 53.6847C52.1097 53.4928 51.6277 53.325 51.1097 53.1811L49.2966 52.663C48.1454 52.3321 47.234 51.8597 46.5625 51.2457C45.891 50.6317 45.5552 49.8283 45.5552 48.8354C45.5552 48.0104 45.7783 47.2909 46.2244 46.677C46.6753 46.0582 47.2796 45.5785 48.0375 45.2379C48.8001 44.8926 49.6515 44.7199 50.5917 44.7199C51.5413 44.7199 52.3855 44.8902 53.1242 45.2307C53.8629 45.5665 54.4481 46.027 54.8797 46.6122C55.3162 47.1974 55.5464 47.8617 55.5705 48.6051H53.8437ZM63.2815 48.6051V50.0441H57.5545V48.6051H63.2815ZM59.2236 45.9574H60.9216V56.4907C60.9216 56.9703 60.9911 57.3301 61.1302 57.5699C61.2741 57.8049 61.4564 57.9632 61.6771 58.0448C61.9025 58.1216 62.1399 58.16 62.3893 58.16C62.5764 58.16 62.7299 58.1503 62.8498 58.1311C62.9697 58.1072 63.0657 58.0879 63.1376 58.0736L63.483 59.5989C63.3678 59.642 63.2072 59.6853 63.0009 59.7284C62.7947 59.7763 62.5333 59.8003 62.2167 59.8003C61.737 59.8003 61.267 59.6972 60.8065 59.491C60.3508 59.2847 59.9719 58.9705 59.6697 58.5484C59.3723 58.1263 59.2236 57.5939 59.2236 56.9512V45.9574ZM69.0877 59.9154C68.3874 59.9154 67.7519 59.7835 67.1811 59.5198C66.6103 59.2511 66.157 58.865 65.8213 58.3613C65.4855 57.8529 65.3177 57.239 65.3177 56.5195C65.3177 55.8864 65.4424 55.3731 65.6918 54.9798C65.9412 54.5817 66.2745 54.2699 66.6919 54.0445C67.1092 53.819 67.5696 53.6512 68.0732 53.5409C68.5817 53.4257 69.0926 53.3345 69.6057 53.2675C70.2773 53.1811 70.8217 53.1163 71.239 53.0732C71.6611 53.0252 71.9681 52.9461 72.1599 52.8357C72.3566 52.7254 72.4549 52.5336 72.4549 52.2602V52.2025C72.4549 51.4927 72.2607 50.9411 71.8721 50.5478C71.4884 50.1544 70.9057 49.9578 70.1238 49.9578C69.3132 49.9578 68.6777 50.1353 68.2172 50.4902C67.7567 50.8452 67.4329 51.2241 67.2458 51.627L65.6342 51.0514C65.922 50.3799 66.3057 49.857 66.7854 49.4829C67.2699 49.104 67.7975 48.8402 68.3682 48.6915C68.9439 48.5381 69.5098 48.4613 70.0662 48.4613C70.4212 48.4613 70.8289 48.5044 71.2894 48.5907C71.7546 48.6723 72.2031 48.8426 72.6348 49.1016C73.0713 49.3606 73.4334 49.7516 73.7212 50.2744C74.009 50.7972 74.1529 51.4975 74.1529 52.3752V59.6564H72.4549V58.16H72.3686C72.2535 58.3997 72.0617 58.6563 71.793 58.9298C71.5244 59.2032 71.167 59.4358 70.721 59.6276C70.2749 59.8195 69.7304 59.9154 69.0877 59.9154ZM69.3467 58.3901C70.0183 58.3901 70.5843 58.2582 71.0447 57.9944C71.51 57.7307 71.8602 57.3901 72.0952 56.9728C72.3351 56.5554 72.4549 56.1166 72.4549 55.6561V54.102C72.383 54.1883 72.2246 54.2675 71.9801 54.3395C71.7402 54.4066 71.4621 54.4666 71.1454 54.5193C70.8336 54.5673 70.5291 54.6104 70.2317 54.6488C69.9391 54.6824 69.7017 54.7111 69.5194 54.7351C69.0782 54.7928 68.6656 54.8863 68.2819 55.0157C67.903 55.1404 67.596 55.3299 67.361 55.5842C67.1308 55.8336 67.0156 56.1741 67.0156 56.6059C67.0156 57.1958 67.2339 57.6418 67.6704 57.9441C68.1116 58.2415 68.6705 58.3901 69.3467 58.3901ZM82.0583 48.6051V50.0441H76.3311V48.6051H82.0583ZM78.0004 45.9574H79.6984V56.4907C79.6984 56.9703 79.7679 57.3301 79.9069 57.5699C80.0509 57.8049 80.2331 57.9632 80.4537 58.0448C80.6792 58.1216 80.9167 58.16 81.1661 58.16C81.3531 58.16 81.5066 58.1503 81.6265 58.1311C81.7465 58.1072 81.8424 58.0879 81.9143 58.0736L82.2596 59.5989C82.1446 59.642 81.9839 59.6853 81.7777 59.7284C81.5713 59.7763 81.31 59.8003 80.9933 59.8003C80.5137 59.8003 80.0437 59.6972 79.5832 59.491C79.1276 59.2847 78.7486 58.9705 78.4465 58.5484C78.1491 58.1263 78.0004 57.5939 78.0004 56.9512V45.9574ZM84.6124 59.6564V48.6051H86.3104V59.6564H84.6124ZM85.4758 46.7633C85.1449 46.7633 84.8594 46.6506 84.6196 46.4251C84.3845 46.1996 84.267 45.9287 84.267 45.6121C84.267 45.2956 84.3845 45.0245 84.6196 44.7991C84.8594 44.5736 85.1449 44.4609 85.4758 44.4609C85.8067 44.4609 86.0897 44.5736 86.3248 44.7991C86.5646 45.0245 86.6846 45.2956 86.6846 45.6121C86.6846 45.9287 86.5646 46.1996 86.3248 46.4251C86.0897 46.6506 85.8067 46.7633 85.4758 46.7633ZM97.2484 51.0802L95.7231 51.5119C95.6271 51.2577 95.4856 51.0106 95.2985 50.7708C95.1163 50.5262 94.8668 50.3247 94.5503 50.1665C94.2337 50.0082 93.8284 49.9291 93.3343 49.9291C92.658 49.9291 92.0944 50.0848 91.6436 50.3966C91.1975 50.7037 90.9744 51.0946 90.9744 51.5694C90.9744 51.9915 91.128 52.3249 91.4349 52.5695C91.7419 52.8142 92.2216 53.018 92.8739 53.1811L94.5143 53.584C95.5023 53.8238 96.2387 54.1908 96.7232 54.6848C97.2076 55.1741 97.4498 55.8048 97.4498 56.577C97.4498 57.2102 97.2675 57.7761 96.903 58.275C96.5433 58.7739 96.0396 59.1671 95.392 59.455C94.7445 59.7428 93.9915 59.8866 93.1329 59.8866C92.0057 59.8866 91.0728 59.642 90.3341 59.1528C89.5955 58.6636 89.1278 57.9489 88.9311 57.0087L90.5428 56.6059C90.6963 57.2006 90.9865 57.6467 91.4133 57.9441C91.845 58.2415 92.4086 58.3901 93.1042 58.3901C93.8956 58.3901 94.5239 58.2223 94.9892 57.8866C95.4592 57.546 95.6943 57.1383 95.6943 56.6634C95.6943 56.2797 95.56 55.9583 95.2913 55.6993C95.0227 55.4355 94.6102 55.2388 94.0538 55.1093L92.2119 54.6776C91.1999 54.4377 90.4564 54.0661 89.9815 53.5624C89.5115 53.0539 89.2765 52.4184 89.2765 51.6557C89.2765 51.0323 89.4515 50.4806 89.8017 50.001C90.1566 49.5213 90.6387 49.1448 91.2478 48.8713C91.8618 48.5979 92.5573 48.4613 93.3343 48.4613C94.428 48.4613 95.2866 48.701 95.9101 49.1808C96.5385 49.6604 96.9845 50.2935 97.2484 51.0802ZM104.812 48.6051V50.0441H99.0848V48.6051H104.812ZM100.754 45.9574H102.452V56.4907C102.452 56.9703 102.522 57.3301 102.661 57.5699C102.805 57.8049 102.987 57.9632 103.207 58.0448C103.433 58.1216 103.67 58.16 103.92 58.16C104.107 58.16 104.26 58.1503 104.38 58.1311C104.5 58.1072 104.596 58.0879 104.668 58.0736L105.013 59.5989C104.898 59.642 104.738 59.6853 104.531 59.7284C104.325 59.7763 104.064 59.8003 103.747 59.8003C103.267 59.8003 102.797 59.6972 102.337 59.491C101.881 59.2847 101.502 58.9705 101.2 58.5484C100.903 58.1263 100.754 57.5939 100.754 56.9512V45.9574ZM107.366 59.6564V48.6051H109.064V59.6564H107.366ZM108.229 46.7633C107.898 46.7633 107.613 46.6506 107.373 46.4251C107.138 46.1996 107.021 45.9287 107.021 45.6121C107.021 45.2956 107.138 45.0245 107.373 44.7991C107.613 44.5736 107.898 44.4609 108.229 44.4609C108.56 44.4609 108.843 44.5736 109.078 44.7991C109.318 45.0245 109.438 45.2956 109.438 45.6121C109.438 45.9287 109.318 46.1996 109.078 46.4251C108.843 46.6506 108.56 46.7633 108.229 46.7633ZM116.664 59.8866C115.627 59.8866 114.736 59.642 113.987 59.1528C113.239 58.6636 112.664 57.9897 112.26 57.1311C111.857 56.2725 111.656 55.2916 111.656 54.1883C111.656 53.066 111.862 52.0755 112.275 51.2169C112.692 50.3535 113.273 49.6796 114.015 49.1952C114.764 48.7059 115.637 48.4613 116.635 48.4613C117.411 48.4613 118.113 48.6051 118.736 48.893C119.36 49.1808 119.87 49.5836 120.268 50.1017C120.667 50.6197 120.913 51.2241 121.01 51.9148H119.311C119.182 51.4111 118.894 50.9651 118.448 50.5765C118.007 50.1832 117.411 49.9866 116.664 49.9866C116.002 49.9866 115.421 50.1593 114.923 50.5046C114.429 50.8452 114.042 51.3272 113.764 51.9507C113.491 52.5695 113.354 53.2962 113.354 54.1308C113.354 54.9846 113.489 55.728 113.757 56.3612C114.03 56.9943 114.414 57.486 114.908 57.8361C115.407 58.1863 115.992 58.3613 116.664 58.3613C117.105 58.3613 117.506 58.2846 117.865 58.1311C118.225 57.9776 118.529 57.757 118.779 57.4692C119.029 57.1814 119.206 56.836 119.311 56.4332H121.01C120.913 57.0855 120.676 57.673 120.297 58.1959C119.923 58.7139 119.426 59.1264 118.808 59.4333C118.194 59.7356 117.479 59.8866 116.664 59.8866ZM131.319 51.0802L129.794 51.5119C129.698 51.2577 129.556 51.0106 129.37 50.7708C129.187 50.5262 128.939 50.3247 128.621 50.1665C128.305 50.0082 127.9 49.9291 127.405 49.9291C126.729 49.9291 126.165 50.0848 125.715 50.3966C125.269 50.7037 125.045 51.0946 125.045 51.5694C125.045 51.9915 125.199 52.3249 125.507 52.5695C125.813 52.8142 126.292 53.018 126.945 53.1811L128.585 53.584C129.573 53.8238 130.309 54.1908 130.795 54.6848C131.279 55.1741 131.521 55.8048 131.521 56.577C131.521 57.2102 131.338 57.7761 130.974 58.275C130.615 58.7739 130.11 59.1671 129.463 59.455C128.816 59.7428 128.063 59.8866 127.204 59.8866C126.077 59.8866 125.144 59.642 124.406 59.1528C123.666 58.6636 123.199 57.9489 123.002 57.0087L124.614 56.6059C124.767 57.2006 125.057 57.6467 125.484 57.9441C125.916 58.2415 126.48 58.3901 127.175 58.3901C127.967 58.3901 128.595 58.2223 129.06 57.8866C129.531 57.546 129.766 57.1383 129.766 56.6634C129.766 56.2797 129.631 55.9583 129.363 55.6993C129.094 55.4355 128.682 55.2388 128.125 55.1093L126.283 54.6776C125.271 54.4377 124.527 54.0661 124.052 53.5624C123.583 53.0539 123.348 52.4184 123.348 51.6557C123.348 51.0323 123.522 50.4806 123.873 50.001C124.228 49.5213 124.71 49.1448 125.319 48.8713C125.933 48.5979 126.629 48.4613 127.405 48.4613C128.5 48.4613 129.357 48.701 129.981 49.1808C130.61 49.6604 131.056 50.2935 131.319 51.0802Z" fill="#9291A5"/>
<defs>
<filter id="filter0_d_24216_3535" x="0.753906" y="0.502441" width="586.051" height="473.493" filterUnits="userSpaceOnUse" color-interpolation-filters="sRGB">
<feFlood flood-opacity="0" result="BackgroundImageFix"/>
<feColorMatrix in="SourceAlpha" type="matrix" values="0 0 0 0 0 0 0 0 0 0 0 0 0 0 0 0 0 0 127 0" result="hardAlpha"/>
<feOffset dy="2"/>
<feGaussianBlur stdDeviation="3"/>
<feComposite in2="hardAlpha" operator="out"/>
<feColorMatrix type="matrix" values="0 0 0 0 0.0509804 0 0 0 0 0.0392157 0 0 0 0 0.172549 0 0 0 0.08 0"/>
<feBlend mode="normal" in2="BackgroundImageFix" result="effect1_dropShadow_24216_3535"/>
<feBlend mode="normal" in="SourceGraphic" in2="effect1_dropShadow_24216_3535" result="shape"/>
</filter>
</defs>
</svg>
