<svg preserveAspectRatio="none" width="100%" height="100%" overflow="visible" style="display: block;" viewBox="0 0 194.451 281" fill="none" xmlns="http://www.w3.org/2000/svg">
<g id="Vector">
<path d="M2.90981 280.604C2.03591 280.604 1.23663 280.152 0.771602 279.394C0.303413 278.631 0.268071 277.734 0.674836 276.933L12.1191 254.386L68.5889 246.888L56.8254 268.097C54.8791 271.606 51.3442 274.024 47.3688 274.566L3.26859 280.58C3.14891 280.596 3.02791 280.604 2.90981 280.604Z" fill="var(--fill-0, white)"/>
<path d="M67.8617 247.383L56.4791 267.905C54.5935 271.305 51.1674 273.649 47.3152 274.174L3.21473 280.188C3.11271 280.202 3.0099 280.209 2.90946 280.209C2.17423 280.209 1.50094 279.827 1.10841 279.188C0.713766 278.545 0.683988 277.788 1.02696 277.113L12.3771 254.751L67.8617 247.383ZM69.3158 246.392C50.1641 248.935 31.0124 251.478 11.8607 254.021C8.01445 261.599 4.16823 269.177 0.322019 276.755C-0.680528 278.73 0.789954 281 2.90972 281C3.0447 281 3.1823 280.991 3.32176 280.972L47.4222 274.958C51.5413 274.396 55.1545 271.925 57.1709 268.289C61.219 260.99 65.2674 253.691 69.3158 246.392Z" fill="#2E2E2E"/>
<path d="M133.644 77.5851C133.229 78.7442 132.859 80.0225 132.581 81.4147C131.349 87.575 132.521 92.9199 133.644 96.3076C136.41 96.0949 139.176 95.8821 141.942 95.6694C141.162 89.0739 140.382 82.4784 139.601 75.8832C137.616 76.4502 135.63 77.0175 133.644 77.5851Z" fill="#2E2E2E"/>
<path d="M144.04 67.2991C143.136 63.4924 139.927 60.6606 136.082 60.257C132.093 59.8381 128.246 62.1192 126.668 65.8634C124.253 65.1553 122.732 62.7872 123.076 60.3957C123.257 59.1324 123.938 58.0154 124.918 57.2462C126.459 56.0367 127.892 54.7025 129.156 53.2057C129.392 52.9257 129.659 52.6505 129.959 52.3874C131.856 50.7221 134.503 50.0657 137.24 50.4327C139.012 50.6702 140.794 50.8255 142.581 50.7886C144.49 50.7493 147.12 51.1584 149.328 53.1867C151.149 54.8594 151.88 56.8956 152.173 58.3711C152.432 59.6749 152.844 60.9453 153.454 62.1268C154.449 64.0573 155.525 66.891 155.68 70.4122C155.686 70.5403 155.69 70.6671 155.693 70.7931C155.791 74.8186 156.825 78.7489 158.694 82.3157C159.865 84.5496 160.321 87.0252 159.897 89.4226C159.359 92.4703 157.556 94.5012 156.626 95.4068C154.892 96.3363 148.661 99.582 144.338 97.1712C138.684 94.018 137.084 81.6313 144.04 67.2991Z" fill="#2E2E2E"/>
<path d="M178.813 273.258C178.664 273.258 178.521 273.173 178.454 273.029L147.97 207.411C147.878 207.213 147.964 206.978 148.162 206.886C148.36 206.794 148.596 206.88 148.687 207.078L179.171 272.696C179.263 272.894 179.177 273.129 178.979 273.221C178.925 273.246 178.869 273.258 178.813 273.258Z" fill="#2E2E2E"/>
<path d="M71.602 273.257C71.5461 273.257 71.4894 273.246 71.4357 273.22C71.2377 273.128 71.1517 272.893 71.2435 272.695L101.727 207.078C101.82 206.879 102.055 206.794 102.253 206.886C102.451 206.978 102.536 207.213 102.445 207.411L71.9608 273.028C71.8938 273.173 71.7509 273.257 71.602 273.257Z" fill="#2E2E2E"/>
<path d="M181.324 280.743C182.99 280.349 184.022 278.68 183.628 277.013C183.235 275.347 181.565 274.315 179.899 274.709C178.233 275.102 177.201 276.772 177.594 278.438C177.988 280.104 179.657 281.136 181.324 280.743Z" fill="#2E2E2E"/>
<path d="M70.1814 281C71.8936 281 73.2816 279.612 73.2816 277.9C73.2816 276.188 71.8936 274.8 70.1814 274.8C68.4692 274.8 67.0812 276.188 67.0812 277.9C67.0812 279.612 68.4692 281 70.1814 281Z" fill="#2E2E2E"/>
<path d="M95.7191 208.536H154.954C158.286 208.536 160.987 205.835 160.987 202.503V201.911C160.987 198.578 158.286 195.877 154.954 195.877H95.7191C92.3869 195.877 89.6859 198.578 89.6859 201.911V202.503C89.6859 205.835 92.3872 208.536 95.7191 208.536Z" fill="#2E2E2E"/>
<path d="M80.4584 243.698L85.7089 253.794C86.756 255.81 89.5575 256.002 90.8696 254.145L114.414 220.8C117.03 217.097 117.053 212.147 114.475 208.419L110.071 202.046L109.919 202.152C100.154 215.971 90.3908 229.791 80.6253 243.61L80.4584 243.698Z" fill="var(--fill-0, white)"/>
<path d="M88.4012 255.825C88.3218 255.825 88.242 255.822 88.1624 255.816C86.9618 255.734 85.9137 255.046 85.358 253.976L80.1072 243.88C80.0392 243.749 80.0494 243.591 80.1346 243.47L108.927 202.468C108.949 202.437 108.975 202.409 109.005 202.386L109.826 201.736C109.912 201.668 110.021 201.64 110.13 201.655C110.238 201.672 110.334 201.732 110.397 201.822L114.801 208.194C117.465 212.047 117.439 217.205 114.737 221.028L91.1927 254.373C90.5423 255.293 89.5118 255.825 88.4012 255.825ZM80.9197 243.728L86.0597 253.611C86.4873 254.435 87.2935 254.964 88.2161 255.027C89.1385 255.089 90.0109 254.675 90.5468 253.916L114.091 220.572C116.602 217.018 116.626 212.225 114.151 208.644L109.986 202.618L109.541 202.97L80.9197 243.728Z" fill="#2E2E2E"/>
<path d="M43.8125 174.239L80.718 244.928L80.8867 244.84C90.7456 230.94 100.602 217.04 110.46 203.14C103.155 192.502 95.8506 181.864 88.5456 171.226H153.864L110.247 138.886H65.2361C47.0875 138.887 35.4133 158.149 43.8125 174.239Z" fill="#F15C2A"/>
<path d="M6.42908 264.724L62.7093 258.29L62.7146 258.293C74.1939 237.594 85.6759 216.894 97.1555 196.198C116.021 196.128 134.887 196.058 153.75 195.99C154.477 195.988 154.984 195.265 154.737 194.582C150.047 181.469 145.356 168.354 140.666 155.241L88.8422 155.171C72.41 155.15 57.3647 164.372 49.9266 179.023C35.4289 207.589 20.9263 236.157 6.42908 264.724Z" fill="#F15C2A"/>
<path d="M153.023 196.387C152.805 196.387 152.628 196.211 152.627 195.993C152.626 195.775 152.803 195.597 153.021 195.596L153.749 195.594C153.75 195.594 153.75 195.594 153.75 195.594C153.968 195.594 154.145 195.77 154.146 195.988C154.147 196.206 153.97 196.384 153.752 196.384L153.024 196.387C153.023 196.387 153.023 196.387 153.023 196.387Z" fill="#2E2E2E"/>
<path d="M79.7727 196.592C79.555 196.592 79.3778 196.416 79.3773 196.198C79.3767 195.98 79.5531 195.802 79.7716 195.801L153.022 195.597H153.023C153.24 195.597 153.418 195.773 153.418 195.991C153.419 196.209 153.242 196.387 153.024 196.388L79.7738 196.592H79.7727Z" fill="#2E2E2E"/>
<path d="M185.131 153.964C185.401 157.511 185.744 168.097 178.961 178.644C170.58 191.676 157.411 195.176 154.494 195.878C152.467 189.011 149.122 180.413 143.431 171.411C132.35 153.882 118.128 143.924 109.603 138.928C126.6 138.706 143.597 138.483 160.595 138.261C168.774 143.496 176.952 148.73 185.131 153.964Z" fill="var(--fill-0, white)"/>
<path d="M154.494 196.273C154.323 196.273 154.166 196.161 154.115 195.99C151.564 187.35 147.857 179.152 143.097 171.622C134.815 158.521 123.163 147.333 109.403 139.269C109.25 139.179 109.175 138.998 109.221 138.826C109.266 138.655 109.42 138.534 109.598 138.532L160.59 137.866C160.667 137.861 160.743 137.886 160.808 137.928L185.345 153.631C185.449 153.698 185.516 153.81 185.526 153.934C185.913 159.021 185.619 169.024 179.294 178.858C171.422 191.099 159.393 195.107 154.587 196.262C154.556 196.269 154.525 196.273 154.494 196.273ZM111.009 139.305C124.353 147.373 135.659 158.377 143.765 171.199C148.498 178.686 152.198 186.827 154.766 195.403C159.699 194.16 171.103 190.132 178.629 178.43C184.748 168.915 185.108 159.237 184.751 154.19L160.482 138.658L111.009 139.305Z" fill="#2E2E2E"/>
<path d="M124.602 90.031C118.452 89.3991 106.507 134.185 106.506 134.187C108.999 135.435 112.217 136.757 116.092 137.689C121.925 139.091 126.997 139.065 130.559 138.752C130.342 116.545 129.218 90.5055 124.602 90.031Z" fill="var(--fill-0, white)"/>
<path d="M126.568 139.324C123.001 139.324 119.461 138.905 115.999 138.073C112.664 137.272 109.411 136.083 106.329 134.541C106.162 134.457 106.076 134.267 106.124 134.085C106.248 133.623 109.188 122.646 112.899 111.669C115.08 105.217 117.078 100.102 118.837 96.4637C121.17 91.6402 123.014 89.4725 124.642 89.6383C127.148 89.8959 130.528 95.2669 130.954 138.749C130.957 138.956 130.799 139.129 130.594 139.147C129.25 139.265 127.907 139.324 126.568 139.324ZM106.972 133.977C109.914 135.423 113.011 136.541 116.184 137.304C120.745 138.4 125.445 138.765 130.16 138.389C129.737 97.1217 126.473 90.6208 124.562 90.4244C123.239 90.2858 120.078 92.9046 113.649 111.921C110.245 121.99 107.491 132.058 106.972 133.977Z" fill="#2E2E2E"/>
<path d="M162.764 89.5541C162.592 88.7058 161.864 88.0857 161 88.0494C155.021 87.7987 148.538 87.7781 141.623 88.1163C135.646 88.4084 130.031 88.9349 124.815 89.6055C124.106 96.3724 123.605 103.66 123.432 111.413C123.196 122.008 123.611 131.807 124.39 140.667C130.614 142.976 138.818 145.376 148.644 146.624C158.821 147.917 167.64 147.58 174.387 146.837C170.513 127.743 166.639 108.648 162.764 89.5541Z" fill="var(--fill-0, white)"/>
<path d="M162.413 147.89C157.794 147.89 153.175 147.599 148.594 147.017C140.291 145.962 132.101 143.951 124.252 141.038C124.108 140.985 124.009 140.854 123.995 140.702C123.142 130.996 122.82 121.139 123.036 111.404C123.198 104.139 123.664 96.7909 124.421 89.5646C124.441 89.3821 124.582 89.2369 124.764 89.2134C130.333 88.4974 135.998 87.9955 141.603 87.7213C148.041 87.4066 154.573 87.3836 161.016 87.6544C162.065 87.6984 162.944 88.4473 163.152 89.4757L174.775 146.758C174.797 146.867 174.772 146.98 174.707 147.07C174.641 147.16 174.541 147.218 174.43 147.23C170.44 147.67 166.426 147.89 162.413 147.89ZM124.761 140.383C132.483 143.228 140.533 145.196 148.693 146.232C157.05 147.293 165.533 147.38 173.913 146.491L162.377 89.6328C162.241 88.9622 161.668 88.4734 160.983 88.4447C154.564 88.1758 148.057 88.1982 141.642 88.5117C136.162 88.7798 130.624 89.2661 125.176 89.9587C124.44 97.0632 123.986 104.283 123.827 111.422C123.613 121.044 123.927 130.787 124.761 140.383Z" fill="#2E2E2E"/>
<path d="M145.665 73.0106C146.328 74.9749 147.101 77.0393 148.005 79.1806C149.368 82.4079 150.82 85.3167 152.26 87.9036C146.234 94.8507 140.676 98.5275 138.219 97.052C137.813 96.8081 135.877 95.4544 137.155 88.329C136.587 84.9958 136.02 81.6626 135.453 78.3294C138.857 76.5566 142.261 74.7835 145.665 73.0106Z" fill="var(--fill-0, white)"/>
<path d="M139.489 97.7671C138.93 97.7671 138.435 97.6435 138.015 97.391C137.045 96.8084 135.595 94.856 136.753 88.3274L135.063 78.3958C135.034 78.2266 135.118 78.0581 135.27 77.9785L145.482 72.6595C145.585 72.6059 145.705 72.6001 145.812 72.6434C145.92 72.6866 146.003 72.7744 146.039 72.8838C146.737 74.9511 147.521 77.0179 148.369 79.0264C149.617 81.9824 151.043 84.9043 152.606 87.7108C152.687 87.8561 152.668 88.0367 152.559 88.1624C147.242 94.2916 142.454 97.7671 139.489 97.7671ZM135.891 78.5472L137.544 88.2626C137.552 88.3077 137.552 88.3538 137.544 88.3989C136.374 94.9219 137.92 96.4119 138.422 96.7132C140.63 98.04 145.983 94.4827 151.78 87.8532C150.256 85.0963 148.864 82.2315 147.641 79.3346C146.845 77.4494 146.105 75.5139 145.439 73.5742L135.891 78.5472Z" fill="#2E2E2E"/>
<path d="M132.261 58.3306C134.784 57.0054 137.929 57.0199 140.403 58.139C143.534 59.5557 145.603 62.7497 146.353 66.2856C147.148 66.0067 148 65.9883 148.794 66.3015C150.762 67.0778 151.622 69.568 150.717 71.8633C149.812 74.1563 147.486 75.3871 145.52 74.6155C142.785 80.49 135.554 83.7792 130.985 82.1592C130.313 81.9209 129.885 81.6425 129.709 81.521C124.112 77.6722 124.677 62.3145 132.261 58.3306Z" fill="var(--fill-0, white)"/>
<path d="M133.512 82.9562C132.558 82.9562 131.658 82.8173 130.853 82.5318C130.343 82.3512 129.883 82.1208 129.484 81.8469C126.829 80.0205 125.311 75.5301 125.616 70.4061C125.884 65.8992 127.722 60.2683 132.078 57.9806C134.628 56.6412 137.88 56.5639 140.566 57.7789C143.496 59.1047 145.747 62.0802 146.645 65.7874C147.43 65.599 148.215 65.648 148.94 65.9337C151.107 66.7889 152.069 69.5142 151.085 72.0086C150.154 74.3662 147.81 75.688 145.725 75.1011C143.23 80.1012 137.831 82.9562 133.512 82.9562ZM132.445 58.6805C128.381 60.815 126.661 66.1615 126.405 70.4527C126.116 75.306 127.501 79.5226 129.932 81.195C130.274 81.4299 130.673 81.6289 131.117 81.7863C131.823 82.0367 132.62 82.1583 133.467 82.1583C137.576 82.1585 142.901 79.3035 145.162 74.4482C145.25 74.2589 145.47 74.1708 145.664 74.247C147.425 74.938 149.525 73.8031 150.349 71.7178C151.173 69.6292 150.41 67.3642 148.649 66.6693C147.972 66.4019 147.224 66.3985 146.484 66.6587C146.376 66.6964 146.258 66.6859 146.159 66.6302C146.06 66.5746 145.99 66.4787 145.966 66.3674C145.192 62.7123 143.051 59.7708 140.24 58.4991C137.771 57.3822 134.785 57.452 132.445 58.6805Z" fill="#2E2E2E"/>
<path d="M65.2823 141.557H141.05C142.55 141.557 143.766 140.341 143.766 138.841V138.575C143.766 137.075 142.55 135.859 141.05 135.859H65.2823C63.7823 135.859 62.5665 137.075 62.5665 138.575V138.841C62.5665 140.341 63.7826 141.557 65.2823 141.557Z" fill="#2E2E2E"/>
<path d="M52.3789 100.278L61.6312 139.6C61.9008 140.747 62.9239 141.557 64.1015 141.557H111.596C113.232 141.557 114.441 140.031 114.066 138.438L104.814 99.1152C104.544 97.9687 103.521 97.1586 102.344 97.1586H54.8495C53.213 97.1586 52.004 98.6847 52.3789 100.278Z" fill="#2E2E2E"/>
<path d="M79.6611 113.185C80.6446 113.185 81.4419 112.388 81.4419 111.404C81.4419 110.421 80.6446 109.623 79.6611 109.623C78.6777 109.623 77.8804 110.421 77.8804 111.404C77.8804 112.388 78.6777 113.185 79.6611 113.185Z" fill="#F15C2A"/>
<path d="M121.092 135.829H85.2942C85.0759 135.829 84.8987 135.652 84.8987 135.433C84.8987 135.215 85.0759 135.038 85.2942 135.038H121.092C121.31 135.038 121.487 135.215 121.487 135.433C121.487 135.652 121.31 135.829 121.092 135.829Z" fill="var(--fill-0, white)"/>
<path d="M164.388 114.711C163.746 111.613 163.188 108.236 162.792 104.605C162.137 98.6045 162.052 93.1265 162.26 88.3292C165.826 90.7199 170.874 94.5595 175.876 100.243C187.75 113.735 200.28 138.652 190.556 154.071C189.506 155.736 187.384 159.101 183.323 160.879C172.786 165.492 156.143 156.382 141.207 137.558C140.527 136.701 139.492 136.199 138.398 136.199H125.879C126.545 134.457 128.037 131.255 131.198 128.327C131.232 128.296 131.267 128.264 131.301 128.232C135.224 124.646 140.934 123.806 145.756 126.042C153.669 129.711 161.581 133.381 169.494 137.051C167.792 129.604 166.09 122.157 164.388 114.711Z" fill="var(--fill-0, white)"/>
<path d="M171.089 142.233C170.923 142.233 170.768 142.128 170.714 141.961C169.392 137.949 168.187 133.844 167.132 129.762C163.687 116.432 161.643 102.616 161.058 88.6977C161.049 88.4795 161.218 88.2952 161.436 88.286C161.656 88.2775 161.839 88.446 161.848 88.6645C162.431 102.527 164.466 116.287 167.898 129.564C168.949 133.63 170.149 137.718 171.465 141.714C171.533 141.921 171.42 142.145 171.213 142.213C171.172 142.226 171.13 142.233 171.089 142.233Z" fill="#2E2E2E"/>
<path d="M177.324 162.469C166.885 162.47 153.326 153.468 140.897 137.804C140.288 137.036 139.377 136.595 138.399 136.595H125.879C125.748 136.595 125.627 136.531 125.553 136.424C125.479 136.316 125.463 136.18 125.509 136.058C126.673 133.017 128.547 130.243 130.929 128.037L131.035 127.94C135.074 124.248 140.918 123.362 145.922 125.683L169.66 136.692C169.858 136.784 169.944 137.019 169.852 137.217C169.761 137.415 169.526 137.502 169.327 137.409L145.59 126.4C140.875 124.214 135.372 125.048 131.568 128.524L131.466 128.617C129.314 130.611 127.593 133.086 126.463 135.804H138.399C139.62 135.804 140.756 136.354 141.517 137.312C148.796 146.486 156.607 153.522 164.106 157.661C171.508 161.747 178.099 162.734 183.164 160.517C187.115 158.787 189.213 155.459 190.222 153.86C195.654 145.247 193.652 134.279 191.017 126.595C187.956 117.672 182.186 107.919 175.581 100.506C171.496 95.9213 166.758 91.8798 161.498 88.4938C161.315 88.3757 161.262 88.1311 161.38 87.9474C161.498 87.7636 161.743 87.7112 161.926 87.829C167.246 91.2537 172.039 95.3419 176.172 99.9803C182.842 107.467 188.672 117.32 191.764 126.338C194.456 134.186 196.489 145.404 190.891 154.282C189.84 155.947 187.655 159.414 183.481 161.241C181.596 162.067 179.528 162.468 177.324 162.469Z" fill="#2E2E2E"/>
<path d="M149.069 72.1298C149.03 72.1298 148.991 72.124 148.952 72.1118C148.743 72.047 148.627 71.8256 148.692 71.6168C148.791 71.2981 148.923 70.6567 148.693 69.9402C148.354 68.8828 147.462 68.388 147.197 68.2614C147 68.1673 146.916 67.9314 147.011 67.7342C147.104 67.537 147.341 67.454 147.537 67.5475C147.875 67.7086 149.01 68.3392 149.446 69.6987C149.742 70.6219 149.573 71.4438 149.447 71.8517C149.394 72.0209 149.238 72.1298 149.069 72.1298Z" fill="#2E2E2E"/>
<path d="M148.963 66.5216C148.218 66.3603 147.186 66.2707 146.197 66.7344C145.325 67.143 145.175 67.6586 144.601 67.9046C143.062 68.5647 140.612 66.3684 139.601 65.2452C136.394 61.6818 136.648 56.6704 136.835 54.8201C137.498 54.6687 141.419 53.841 144.92 56.3092C148.053 58.5176 149.622 62.499 148.963 66.5216Z" fill="#2E2E2E"/>
<path d="M129.498 138.657C129.477 138.657 129.455 138.655 129.433 138.651C129.217 138.615 129.072 138.411 129.108 138.196C129.381 136.561 129.972 135.03 130.865 133.644C131.631 132.457 132.593 131.421 133.725 130.564C133.899 130.432 134.147 130.467 134.279 130.641C134.411 130.815 134.377 131.063 134.203 131.195C133.145 131.995 132.245 132.964 131.53 134.073C130.696 135.367 130.143 136.798 129.888 138.326C129.856 138.52 129.688 138.657 129.498 138.657Z" fill="#2E2E2E"/>
<path d="M135.255 138.657C135.234 138.657 135.212 138.655 135.19 138.651C134.974 138.615 134.829 138.411 134.865 138.196C135.112 136.72 135.645 135.338 136.451 134.089C137.142 133.017 138.01 132.082 139.031 131.309C139.206 131.177 139.454 131.212 139.586 131.386C139.717 131.56 139.683 131.808 139.509 131.94C138.561 132.657 137.756 133.524 137.116 134.517C136.369 135.676 135.874 136.958 135.645 138.326C135.613 138.52 135.445 138.657 135.255 138.657Z" fill="#2E2E2E"/>
<path d="M80.9281 245.288C80.786 245.288 80.6484 245.211 80.5778 245.076L43.4622 174.423C41.9469 171.519 41.0314 168.438 40.7408 165.262C40.7211 165.044 40.8811 164.852 41.0986 164.832C41.3163 164.813 41.5085 164.972 41.5285 165.19C41.8096 168.262 42.6961 171.246 44.1629 174.056L81.2779 244.708C81.3794 244.902 81.3051 245.141 81.1116 245.242C81.0531 245.273 80.9903 245.288 80.9281 245.288Z" fill="#2E2E2E"/>
<path d="M94.0646 26.5098C93.8463 26.5098 93.6691 26.3329 93.6691 26.1143V23.8736H91.4284C91.2101 23.8736 91.0329 23.6967 91.0329 23.4781C91.0329 23.2596 91.2101 23.0827 91.4284 23.0827H94.0646C94.2828 23.0827 94.46 23.2596 94.46 23.4781V26.1143C94.46 26.3326 94.2828 26.5098 94.0646 26.5098Z" fill="#2E2E2E"/>
<path d="M94.0646 68.434C93.8463 68.434 93.6691 68.2571 93.6691 68.0386V62.7981C93.6691 62.5795 93.8463 62.4027 94.0646 62.4027C94.2828 62.4027 94.46 62.5795 94.46 62.7981V68.0386C94.46 68.2569 94.2828 68.434 94.0646 68.434ZM94.0646 57.953C93.8463 57.953 93.6691 57.7761 93.6691 57.5576V52.3171C93.6691 52.0985 93.8463 51.9217 94.0646 51.9217C94.2828 51.9217 94.46 52.0985 94.46 52.3171V57.5576C94.46 57.7759 94.2828 57.953 94.0646 57.953ZM94.0646 47.4717C93.8463 47.4717 93.6691 47.2949 93.6691 47.0763V41.8358C93.6691 41.6173 93.8463 41.4404 94.0646 41.4404C94.2828 41.4404 94.46 41.6173 94.46 41.8358V47.0763C94.46 47.2949 94.2828 47.4717 94.0646 47.4717ZM94.0646 36.9907C93.8463 36.9907 93.6691 36.8139 93.6691 36.5953V31.3548C93.6691 31.1363 93.8463 30.9594 94.0646 30.9594C94.2828 30.9594 94.46 31.1363 94.46 31.3548V36.5953C94.46 36.8139 94.2828 36.9907 94.0646 36.9907Z" fill="#2E2E2E"/>
<path d="M94.0646 76.3108C93.8463 76.3108 93.6691 76.1339 93.6691 75.9153V73.2791C93.6691 73.0606 93.8463 72.8837 94.0646 72.8837C94.2828 72.8837 94.46 73.0606 94.46 73.2791V75.9153C94.46 76.1336 94.2828 76.3108 94.0646 76.3108Z" fill="#2E2E2E"/>
<path d="M94.1798 55.2184C109.428 55.2184 121.789 42.8573 121.789 27.6092C121.789 12.3611 109.428 0 94.1798 0C78.9317 0 66.5706 12.3611 66.5706 27.6092C66.5706 42.8573 78.9317 55.2184 94.1798 55.2184Z" fill="#F15C2A"/>
<path d="M92.0376 36.3349C91.7555 36.3349 91.4813 36.2342 91.2654 36.0494L81.269 27.481C80.7715 27.0547 80.714 26.3057 81.1403 25.8083C81.5671 25.3108 82.316 25.2536 82.8132 25.6797L91.9023 33.4704L109.22 12.9624C109.643 12.462 110.391 12.3987 110.892 12.8213C111.392 13.2439 111.456 13.9923 111.033 14.4929L92.9442 35.9139C92.7401 36.1554 92.448 36.3056 92.133 36.331C92.1011 36.3336 92.0692 36.3349 92.0376 36.3349Z" fill="var(--fill-0, white)"/>
</g>
</svg>
