<svg width="220" height="40" viewBox="0 0 220 40" fill="none" xmlns="http://www.w3.org/2000/svg">
<g clip-path="url(#clip0_24487_3668)">
<path fill-rule="evenodd" clip-rule="evenodd" d="M38.1752 0.937332C39.4597 -0.302594 41.4846 -0.308232 42.7759 0.895827L42.8982 1.01546L43.3157 1.45736C47.5453 6.0489 49.1213 11.3997 48.7171 16.6254C48.3069 21.9248 45.8838 26.9222 42.5035 30.8713C39.1253 34.8179 34.615 37.9259 29.7396 39.2749C24.803 40.6406 19.4037 40.2052 14.7169 36.866C10.7418 34.0336 9.22833 29.4562 9.12552 25.0094C6.89485 23.9052 4.54775 22.5328 2.08509 20.8638L1.43438 20.4178L1.29576 20.3169C-0.102363 19.2389 -0.422042 17.2437 0.596937 15.779C1.61622 14.3143 3.60094 13.917 5.10137 14.848L5.24571 14.9424L5.83852 15.3493C7.31378 16.3491 8.72145 17.2159 10.06 17.9641C10.9234 14.9059 12.3542 11.9696 14.2391 9.5492C17.0629 5.92322 21.2968 3.02347 26.4836 3.45611C31.1556 3.84608 34.6076 6.27842 36.3894 9.71115C38.1147 13.0351 38.1402 17.0336 36.6324 20.4723C35.0951 23.9779 31.9743 26.8985 27.4849 28.1019C24.2541 28.9679 20.4692 28.9084 16.1986 27.7487V27.7503C14.4986 27.2885 12.717 26.6507 10.8551 25.8224C10.4374 25.6366 10.0738 25.9205 10.8551 26.4132C13.0538 27.9882 16.1511 29.3084 17.0474 29.7515C17.471 30.4431 17.9963 31.0104 18.5984 31.4394C21.3691 33.4135 24.6103 33.7752 27.9554 32.8497C31.3618 31.9072 34.776 29.6346 37.4242 26.541C40.0703 23.4497 41.7763 19.7458 42.0574 16.1119C42.3227 12.683 41.3423 9.16045 38.3888 5.95943L38.0969 5.65099L37.9804 5.52403C36.8181 4.19612 36.8913 2.17717 38.1752 0.937332ZM25.9274 10.1002C23.7845 9.92141 21.5229 11.0599 19.5133 13.6403C17.9829 15.6055 16.8248 18.159 16.2344 20.7865C20.4401 22.2375 23.5743 22.2474 25.7521 21.6638C28.2733 20.988 29.785 19.458 30.5126 17.7989C31.2695 16.0726 31.1919 14.1916 30.458 12.7776C29.7805 11.4725 28.4167 10.308 25.9274 10.1002Z" fill="url(#paint0_radial_24487_3668)"/>
<path d="M137.085 13.6026C135.225 13.6026 134.03 12.1927 134.289 10.3013C134.548 8.40993 136.129 7 137.99 7C139.851 7 141.045 8.40993 140.787 10.3013C140.528 12.1927 138.947 13.6026 137.085 13.6026Z" fill="white"/>
<path d="M132.012 32.1384L134.338 15.1504H139.414L137.088 32.1384H132.012Z" fill="white"/>
<path fill-rule="evenodd" clip-rule="evenodd" d="M140.931 23.8161L138.797 39.3941H143.873L145.121 30.2811C145.963 31.7942 147.547 32.5852 149.543 32.5852C153.334 32.5852 158.051 29.7653 158.861 23.8504C159.61 18.3826 156.392 14.7031 151.079 14.7031C145.969 14.7031 141.713 18.1075 140.931 23.8161ZM153.746 23.6441C153.411 26.0857 151.624 27.7707 149.323 27.7707C147.021 27.7707 145.696 26.0857 146.03 23.6441C146.364 21.2025 148.152 19.5175 150.453 19.5175C152.754 19.5175 154.08 21.2025 153.746 23.6441Z" fill="white"/>
<path d="M165.622 32.5852C161.325 32.5852 158.87 30.2467 159.249 26.9798H164.258C164.169 27.8739 164.751 28.321 166.138 28.321C167.695 28.321 168.278 27.7707 168.377 27.0486C168.522 25.9891 167.482 25.8288 166.103 25.6164L166.098 25.6155C166.002 25.6006 165.904 25.5855 165.805 25.5699C163.551 25.226 159.841 24.6414 160.401 20.5491C160.872 17.1103 163.875 14.7031 168.037 14.7031C172.199 14.7031 174.437 17.1447 174.12 20.2052H169.179C169.151 19.4143 168.536 18.9673 167.521 18.9673C166.269 18.9673 165.672 19.6206 165.578 20.3084C165.443 21.2933 166.53 21.4633 167.954 21.6861L168.16 21.7183C170.515 22.0622 174.114 22.7156 173.563 26.7391C173.082 30.2467 169.92 32.5852 165.622 32.5852Z" fill="white"/>
<path d="M194.293 22.5781L192.984 32.1381H198.06L199.369 22.5781C199.681 20.3084 200.872 19.5175 202.395 19.5175C203.884 19.5175 204.858 20.3084 204.547 22.5781L203.238 32.1381H208.314L209.623 22.5781C209.934 20.3084 211.125 19.5175 212.614 19.5175C214.137 19.5175 215.112 20.3084 214.801 22.5781L213.491 32.1381H218.567L219.877 22.5781C220.626 17.1103 217.842 14.7031 213.781 14.7031C211.379 14.7031 209.288 15.6316 207.792 17.4198C206.785 15.6316 204.915 14.7031 202.546 14.7031C198.485 14.7031 195.043 17.1103 194.293 22.5781Z" fill="white"/>
<path d="M175.44 23.9539C174.653 29.6968 177.574 32.5854 182.515 32.5854C187.455 32.5854 191.171 29.6624 191.954 23.9539L193.159 15.1504H188.083L186.878 23.9539C186.51 26.6362 185.069 27.771 183.174 27.771C181.278 27.771 180.148 26.6362 180.516 23.9539L181.721 15.1504H176.645L175.44 23.9539Z" fill="white"/>
<path fill-rule="evenodd" clip-rule="evenodd" d="M113.156 23.6441C112.45 28.8024 115.654 32.5852 120.933 32.5852C126.212 32.5852 130.452 28.8024 131.159 23.6441C131.865 18.4858 128.661 14.7031 123.382 14.7031C118.103 14.7031 113.862 18.4858 113.156 23.6441ZM126.015 23.6441C125.681 26.0857 123.893 27.7707 121.592 27.7707C119.291 27.7707 117.965 26.0857 118.299 23.6441C118.634 21.2025 120.422 19.5175 122.722 19.5175C125.024 19.5175 126.35 21.2025 126.015 23.6441Z" fill="white"/>
<path fill-rule="evenodd" clip-rule="evenodd" d="M96.9939 30.9879C94.9434 29.4098 93.9266 26.7814 94.3562 23.6441C95.0626 18.4858 99.303 14.7031 104.582 14.7031C109.861 14.7031 113.065 18.4858 112.359 23.6441C111.676 28.6267 107.696 32.3258 102.669 32.5721C103.853 33.2561 105.573 33.8092 106.837 34.2157C107.259 34.3515 107.631 34.471 107.914 34.5735C109.062 34.8651 109.795 35.952 109.618 37.2482C109.41 38.7679 108.029 39.9998 106.533 39.9998H98.41C95.4191 39.9998 93.332 37.5359 93.7482 34.4965H102.41C100.431 33.7186 98.3397 32.1627 96.9939 30.9879ZM102.793 27.7707C105.093 27.7707 106.881 26.0857 107.216 23.6441C107.55 21.2025 106.224 19.5175 103.923 19.5175C101.622 19.5175 99.8342 21.2025 99.4998 23.6441C99.1654 26.0857 100.491 27.7707 102.793 27.7707Z" fill="white"/>
<path fill-rule="evenodd" clip-rule="evenodd" d="M75.5581 23.6441C74.8516 28.8024 78.0559 32.5852 83.3349 32.5852C88.614 32.5852 92.8544 28.8024 93.5608 23.6441C94.2673 18.4858 91.063 14.7031 85.784 14.7031C80.505 14.7031 76.2644 18.4858 75.5581 23.6441ZM88.4172 23.6441C88.0828 26.0857 86.2954 27.7707 83.9943 27.7707C81.6932 27.7707 80.3673 26.0857 80.7017 23.6441C81.0361 21.2025 82.8235 19.5175 85.1246 19.5175C87.4257 19.5175 88.7516 21.2025 88.4172 23.6441Z" fill="white"/>
<path d="M57.7383 32.1387L60.8184 9.64844H66.3004L63.9268 26.9804H74.3833L73.6768 32.1387H57.7383Z" fill="white"/>
</g>
<defs>
<radialGradient id="paint0_radial_24487_3668" cx="0" cy="0" r="1" gradientTransform="matrix(49.8387 29.2857 -3.30798 40.8696 24.3891 20)" gradientUnits="userSpaceOnUse">
<stop stop-color="#007BFF"/>
<stop offset="1" stop-color="#0056B3"/>
</radialGradient>
<clipPath id="clip0_24487_3668">
<rect width="220" height="40" fill="white"/>
</clipPath>
</defs>
</svg>
