<svg width="36" height="36" viewBox="0 0 36 36" fill="none" xmlns="http://www.w3.org/2000/svg">
<path d="M15.9844 25.3179C15.4236 25.0504 14.7522 25.2882 14.4846 25.8489C14.2171 26.4097 14.4548 27.0812 15.0156 27.3488L15.9844 25.3179ZM17.1666 28.0001L16.1974 28.5711C16.4083 28.9291 16.7997 29.1419 17.2149 29.124C17.6301 29.1062 18.0018 28.8608 18.1814 28.4859L17.1666 28.0001ZM21.0333 24.8239C21.5803 24.5293 21.7851 23.8471 21.4907 23.3001C21.196 22.753 20.5139 22.5483 19.9668 22.8428L21.0333 24.8239ZM24.375 25.5C24.375 29.0208 21.5208 31.875 18 31.875V34.125C22.7634 34.125 26.625 30.2634 26.625 25.5H24.375ZM18 31.875C14.4792 31.875 11.625 29.0208 11.625 25.5H9.375C9.375 30.2634 13.2365 34.125 18 34.125V31.875ZM11.625 25.5C11.625 21.9792 14.4792 19.125 18 19.125V16.875C13.2365 16.875 9.375 20.7366 9.375 25.5H11.625ZM18 19.125C21.5208 19.125 24.375 21.9792 24.375 25.5H26.625C26.625 20.7366 22.7634 16.875 18 16.875V19.125ZM15.4999 26.3334C15.0156 27.3487 15.016 27.3491 15.0156 27.3488C15.0154 27.3488 15.0144 27.3482 15.0141 27.348C15.0137 27.3479 15.0146 27.3482 15.0141 27.348C15.0134 27.3476 15.0111 27.3465 15.0103 27.3462C15.0088 27.3455 15.0075 27.3448 15.0065 27.3442C15.0042 27.3432 15.0029 27.3425 15.0023 27.3421C15.0012 27.3417 15.0033 27.3428 15.0084 27.3455C15.0188 27.351 15.0406 27.3631 15.0723 27.3825C15.1356 27.4213 15.2361 27.4881 15.3575 27.5863C15.6005 27.7831 15.9205 28.1011 16.1974 28.5711L18.1359 27.4289C17.6985 26.6865 17.1852 26.1713 16.7734 25.8378C16.5675 25.6709 16.3853 25.5483 16.2477 25.464C16.1789 25.4219 16.1208 25.389 16.0761 25.365C16.0539 25.353 16.0348 25.3431 16.0194 25.3353C16.0117 25.3314 16.005 25.3279 15.9991 25.3251C15.9961 25.3236 15.9934 25.3224 15.991 25.3212C15.9898 25.3206 15.9886 25.32 15.9876 25.3194C15.987 25.3193 15.9864 25.319 15.9859 25.3187C15.9857 25.3185 15.9861 25.3187 15.9859 25.3187C15.9855 25.3185 15.9844 25.3179 15.4999 26.3334ZM17.1666 28.0001C18.1813 28.4859 18.1814 28.4858 18.1814 28.4859C18.1817 28.4853 18.1821 28.4844 18.1831 28.4823C18.1851 28.4781 18.1885 28.4711 18.1935 28.4612C18.2031 28.4413 18.2184 28.4108 18.2389 28.3704C18.2799 28.2897 18.3417 28.1709 18.4216 28.024C18.5825 27.7293 18.8137 27.3279 19.096 26.9007C19.6942 25.9953 20.3979 25.1659 21.0333 24.8239L19.9668 22.8428C18.7997 23.471 17.8367 24.7251 17.2188 25.6603C16.893 26.1535 16.629 26.612 16.4463 26.9468C16.3548 27.1148 16.2828 27.2532 16.233 27.351C16.2081 27.4 16.1887 27.439 16.1751 27.4667C16.1683 27.4804 16.163 27.4914 16.1592 27.4993C16.1573 27.5032 16.1556 27.5065 16.1544 27.509C16.1538 27.5101 16.1534 27.5112 16.1529 27.5121C16.1528 27.5126 16.1531 27.5118 16.1529 27.5121C16.1528 27.5124 16.1523 27.5136 16.1521 27.5136C16.1521 27.5139 16.152 27.5141 17.1666 28.0001Z" fill="#FFC107"/>
<path d="M26.25 12V10.875H26.2473L26.25 12ZM14.325 12.8994C14.8217 13.2726 15.5269 13.1725 15.9001 12.6758C16.2733 12.179 16.1733 11.4738 15.6765 11.1006L14.325 12.8994ZM29.3325 23.4561C28.8131 23.7972 28.6685 24.4946 29.0096 25.014C29.3505 25.5333 30.048 25.6779 30.5674 25.337L29.3325 23.4561ZM5.42215 24.9725C5.92414 25.3386 6.62789 25.2285 6.99402 24.7265C7.36014 24.2246 7.25001 23.5208 6.74802 23.1546L5.42215 24.9725ZM24.3488 14.4879C24.0658 15.0411 24.2852 15.719 24.8384 16.0017C25.3916 16.2844 26.0694 16.0653 26.3521 15.5121L24.3488 14.4879ZM18 4.125C21.9351 4.125 25.125 7.31498 25.125 11.25H27.375C27.375 6.07233 23.1777 1.875 18 1.875V4.125ZM26.25 13.125C29.3566 13.125 31.875 15.6433 31.875 18.75H34.125C34.125 14.4008 30.5993 10.875 26.25 10.875V13.125ZM26.2191 13.1251L26.2527 13.125L26.2473 10.875L26.2136 10.8751L26.2191 13.1251ZM25.125 11.25C25.125 11.4691 25.1151 11.6856 25.0959 11.8991L27.3368 12.1011C27.3621 11.8205 27.375 11.5366 27.375 11.25H25.125ZM4.125 18C4.125 14.6861 6.65445 11.9616 9.88721 11.654L9.67406 9.41412C5.29749 9.8306 1.875 13.5149 1.875 18H4.125ZM9.88721 11.654C10.0886 11.6348 10.293 11.625 10.5 11.625V9.375C10.2217 9.375 9.94619 9.38822 9.67406 9.41412L9.88721 11.654ZM10.9015 10.6304C11.2148 6.98607 14.2739 4.125 18 4.125V1.875C13.0958 1.875 9.07221 5.63979 8.65977 10.4377L10.9015 10.6304ZM10.5 11.625C11.9367 11.625 13.2595 12.0989 14.325 12.8994L15.6765 11.1006C14.2347 10.0173 12.4408 9.375 10.5 9.375V11.625ZM31.875 18.75C31.875 20.7171 30.8663 22.4492 29.3325 23.4561L30.5674 25.337C32.7078 23.9316 34.125 21.5065 34.125 18.75H31.875ZM6.74802 23.1546C5.15591 21.9935 4.125 20.1171 4.125 18H1.875C1.875 20.8664 3.2743 23.4058 5.42215 24.9725L6.74802 23.1546ZM25.0959 11.8991C25.0125 12.8251 24.7519 13.699 24.3488 14.4879L26.3521 15.5121C26.8838 14.4721 27.227 13.3197 27.3368 12.1011L25.0959 11.8991Z" fill="#FFC107"/>
</svg>
