<svg width="36" height="36" viewBox="0 0 36 36" fill="none" xmlns="http://www.w3.org/2000/svg">
<path d="M11.25 6.75C8.76473 6.75 6.75 8.76473 6.75 11.25C6.75 12.103 6.98733 12.9006 7.39956 13.5803C5.32091 13.9778 3.75 15.8055 3.75 18C3.75 20.1945 5.32091 22.0222 7.39956 22.4197M11.25 6.75C11.25 4.67894 12.9289 3 15 3C17.071 3 18.75 4.67894 18.75 6.75V9M11.25 6.75C11.25 7.97687 11.8392 9.06612 12.75 9.75028M7.39956 22.4197C6.98733 23.0995 6.75 23.8971 6.75 24.75C6.75 27.2353 8.76473 29.25 11.25 29.25C11.25 31.321 12.9289 33 15 33C17.071 33 18.75 31.321 18.75 29.25V27M7.39956 22.4197C7.93422 21.5382 8.7631 20.8549 9.75 20.506" stroke="#477BFF" stroke-width="2.25" stroke-linecap="round" stroke-linejoin="round"/>
<path d="M26.25 13.5H23.25C21.8358 13.5 21.1287 13.5 20.6894 13.9393C20.25 14.3787 20.25 15.0858 20.25 16.5V19.5C20.25 20.9142 20.25 21.6213 20.6894 22.0606C21.1287 22.5 21.8358 22.5 23.25 22.5H26.25C27.6642 22.5 28.3713 22.5 28.8106 22.0606C29.25 21.6213 29.25 20.9142 29.25 19.5V16.5C29.25 15.0858 29.25 14.3787 28.8106 13.9393C28.3713 13.5 27.6642 13.5 26.25 13.5Z" stroke="#477BFF" stroke-width="2.25" stroke-linecap="round" stroke-linejoin="round"/>
<path d="M22.5 22.5V25.5M27 22.5V25.5M22.5 10.5V13.5M27 10.5V13.5M20.25 15.75H17.25M20.25 20.25H17.25M32.25 15.75H29.25M32.25 20.25H29.25" stroke="#477BFF" stroke-width="2.25" stroke-linecap="round" stroke-linejoin="round"/>
</svg>
