<svg width="40" height="40" viewBox="0 0 40 40" fill="none" xmlns="http://www.w3.org/2000/svg">
<path d="M8.33327 11.6667L6.30192 13.021C4.84574 13.9918 4.11764 14.4772 3.72305 15.2174C3.32847 15.9577 3.3314 16.8277 3.33723 18.5677C3.34428 20.6626 3.36375 22.7971 3.41767 24.9569C3.54557 30.0812 3.60954 32.6434 5.49354 34.5274C7.37754 36.4116 9.9743 36.4764 15.1678 36.6062C18.3989 36.6869 21.6012 36.6869 24.832 36.6062C30.0257 36.4764 32.6224 36.4116 34.5064 34.5274C36.3904 32.6434 36.4544 30.0812 36.5822 24.9569C36.6362 22.7971 36.6555 20.6626 36.6627 18.5677C36.6685 16.8277 36.6714 15.9577 36.2769 15.2174C35.8822 14.4772 35.1542 13.9918 33.6979 13.021L31.6665 11.6667" stroke="#F1762A" stroke-width="2.5" stroke-linejoin="round"/>
<path d="M3.33203 16.6667L14.8537 23.5797C17.3604 25.0837 18.6137 25.8357 19.9987 25.8357C21.3837 25.8357 22.637 25.0837 25.1437 23.5797L36.6654 16.6667" stroke="#F1762A" stroke-width="2.5" stroke-linejoin="round"/>
<path d="M8.33203 19.9999V9.99992C8.33203 6.85722 8.33203 5.28587 9.30835 4.30957C10.2847 3.33325 11.856 3.33325 14.9987 3.33325L24.9987 3.33325C28.1414 3.33325 29.7127 3.33325 30.6891 4.30957C31.6654 5.28587 31.6654 6.85722 31.6654 9.99992V19.9999" stroke="#F1762A" stroke-width="2.5"/>
<path d="M16.668 16.6667H23.3346M16.668 10H23.3346" stroke="#F1762A" stroke-width="2.5" stroke-linecap="round" stroke-linejoin="round"/>
</svg>
