<svg width="36" height="36" viewBox="0 0 36 36" fill="none" xmlns="http://www.w3.org/2000/svg">
<path d="M16.5 14.25H18.75C19.9926 14.25 21 15.2574 21 16.5M16.5 14.25H14.25C13.0074 14.25 12 15.2574 12 16.5V17.25C12 18.4926 13.0074 19.5 14.25 19.5H18.75C19.9926 19.5 21 20.5074 21 21.75V22.5C21 23.7426 19.9926 24.75 18.75 24.75H16.5M16.5 14.25V12M16.5 24.75H14.25C13.0074 24.75 12 23.7426 12 22.5M16.5 24.75V27" stroke="#0ED70E" stroke-width="2.25" stroke-linecap="round" stroke-linejoin="round"/>
<path d="M18 6.0824C17.5076 6.02795 17.007 6 16.5 6C9.04416 6 3 12.0442 3 19.5C3 26.9557 9.04416 33 16.5 33C23.9557 33 30 26.9557 30 19.5C30 18.993 29.9721 18.4924 29.9177 18" stroke="#0ED70E" stroke-width="2.25" stroke-linecap="round" stroke-linejoin="round"/>
<path d="M27.75 3V13.5M33 8.25H22.5" stroke="#0ED70E" stroke-width="2.25" stroke-linecap="round" stroke-linejoin="round"/>
</svg>
