<svg width="256" height="87" viewBox="0 0 256 87" fill="none" xmlns="http://www.w3.org/2000/svg">
<rect x="1" y="1" width="254" height="85" rx="11" fill="white"/>
<rect x="1" y="1" width="254" height="85" rx="11" stroke="#F5F5F5" stroke-width="2" stroke-linecap="round"/>
<g clip-path="url(#clip0_315_591)">
<path d="M52.273 34.582L20.7131 16.6263C19.1493 15.7335 17.7579 15.8286 16.896 16.6996L43.353 43.5349L48.371 41.1342C50.9785 39.6537 54.8776 36.0688 52.273 34.582Z" fill="#34A853"/>
<path d="M43.2888 43.4683L49.7687 47.5664C52.3727 49.0532 54.6708 50.5046 52.0788 52.3904L20.7597 70.3654C19.0776 71.3204 17.6363 71.1677 16.7925 70.108L25.1583 59.9948L43.2888 43.4683Z" fill="#EA4335"/>
<path d="M63.0487 40.7018L52.1687 34.5347L43.2925 43.4737L52.0784 52.3938L63.0422 46.0968C63.3682 45.9118 63.6536 45.7119 63.8979 45.5009C64.1426 45.2899 64.3465 45.0678 64.5098 44.8383C64.5505 44.781 64.5888 44.723 64.6244 44.665C65.4456 43.3252 64.9207 41.7705 63.0487 40.7018Z" fill="#FBBC04"/>
<path d="M16.9131 16.6854C16.3393 17.2643 15.9987 18.185 16 19.39L16.052 67.5587C16.0532 68.6295 16.3241 69.5246 16.7885 70.1079L43.2903 43.466L16.9131 16.6854Z" fill="#4285F4"/>
<path d="M64.315 41.7214C65.1838 43.0761 64.7363 44.8464 62.7143 45.9595L20.4734 70.2204C18.848 71.143 17.4441 70.7862 16.5874 69.8196C17.3892 71.0949 18.8833 71.4256 20.7746 70.3575L63.0154 46.0969C65.1346 44.9545 65.5274 43.1457 64.315 41.7214Z" fill="#CCCCCC"/>
</g>
<path d="M87.944 34.064V32.624H90.856C91.56 32.624 92.184 32.512 92.728 32.288C93.2827 32.0533 93.752 31.7333 94.136 31.328C94.5307 30.9227 94.8293 30.448 95.032 29.904C95.2347 29.36 95.336 28.7733 95.336 28.144C95.336 27.4827 95.2347 26.8853 95.032 26.352C94.8293 25.808 94.5307 25.3387 94.136 24.944C93.752 24.5387 93.2827 24.2293 92.728 24.016C92.184 23.8027 91.56 23.696 90.856 23.696H87.944V22.256H90.696C91.752 22.256 92.6693 22.4213 93.448 22.752C94.2267 23.072 94.872 23.5093 95.384 24.064C95.9067 24.608 96.296 25.2213 96.552 25.904C96.808 26.576 96.936 27.264 96.936 27.968V28.32C96.936 29.0027 96.808 29.6853 96.552 30.368C96.296 31.0507 95.9067 31.6693 95.384 32.224C94.872 32.7787 94.2267 33.2267 93.448 33.568C92.6693 33.8987 91.752 34.064 90.696 34.064H87.944ZM86.696 34.064V22.256H88.264V34.064H86.696ZM103.064 34.288C102.318 34.288 101.662 34.16 101.096 33.904C100.531 33.648 100.051 33.312 99.6562 32.896C99.2723 32.4693 98.9789 31.9947 98.7763 31.472C98.5843 30.9493 98.4883 30.416 98.4883 29.872V29.584C98.4883 29.04 98.5896 28.5067 98.7923 27.984C98.9949 27.4507 99.2936 26.976 99.6883 26.56C100.083 26.1333 100.563 25.7973 101.128 25.552C101.694 25.296 102.339 25.168 103.064 25.168C103.79 25.168 104.435 25.296 105 25.552C105.566 25.7973 106.046 26.1333 106.44 26.56C106.835 26.976 107.134 27.4507 107.336 27.984C107.539 28.5067 107.64 29.04 107.64 29.584V29.872C107.64 30.416 107.539 30.9493 107.336 31.472C107.144 31.9947 106.851 32.4693 106.456 32.896C106.072 33.312 105.598 33.648 105.032 33.904C104.467 34.16 103.811 34.288 103.064 34.288ZM103.064 32.912C103.704 32.912 104.248 32.7733 104.696 32.496C105.155 32.208 105.502 31.824 105.736 31.344C105.982 30.864 106.104 30.3253 106.104 29.728C106.104 29.12 105.982 28.576 105.736 28.096C105.491 27.616 105.139 27.2373 104.68 26.96C104.232 26.6827 103.694 26.544 103.064 26.544C102.446 26.544 101.907 26.6827 101.448 26.96C100.99 27.2373 100.638 27.616 100.392 28.096C100.147 28.576 100.024 29.12 100.024 29.728C100.024 30.3253 100.142 30.864 100.376 31.344C100.622 31.824 100.968 32.208 101.416 32.496C101.875 32.7733 102.424 32.912 103.064 32.912ZM112.281 34L114.009 25.744H116.089L118.105 34H116.793L114.777 25.776H115.289L113.545 34H112.281ZM111.497 34V32.784H113.273V34H111.497ZM111.145 34L108.729 25.456H110.201L112.553 34H111.145ZM117.113 34V32.784H118.889V34H117.113ZM117.833 34L119.881 25.456H121.273L119.177 34H117.833ZM123.347 34V25.456H124.563V29.12H124.371C124.371 28.2773 124.483 27.568 124.707 26.992C124.942 26.4053 125.294 25.9627 125.763 25.664C126.232 25.3547 126.824 25.2 127.539 25.2H127.603C128.68 25.2 129.475 25.536 129.987 26.208C130.51 26.88 130.771 27.8507 130.771 29.12V34H129.235V28.8C129.235 28.1387 129.048 27.6107 128.675 27.216C128.302 26.8107 127.79 26.608 127.139 26.608C126.467 26.608 125.923 26.816 125.507 27.232C125.091 27.648 124.883 28.2027 124.883 28.896V34H123.347ZM133.677 34V22.32H135.213V34H133.677ZM132.493 23.536V22.32H135.213V23.536H132.493ZM142.096 34.288C141.349 34.288 140.693 34.16 140.128 33.904C139.562 33.648 139.082 33.312 138.688 32.896C138.304 32.4693 138.01 31.9947 137.808 31.472C137.616 30.9493 137.52 30.416 137.52 29.872V29.584C137.52 29.04 137.621 28.5067 137.824 27.984C138.026 27.4507 138.325 26.976 138.72 26.56C139.114 26.1333 139.594 25.7973 140.16 25.552C140.725 25.296 141.37 25.168 142.096 25.168C142.821 25.168 143.466 25.296 144.032 25.552C144.597 25.7973 145.077 26.1333 145.472 26.56C145.866 26.976 146.165 27.4507 146.368 27.984C146.57 28.5067 146.672 29.04 146.672 29.584V29.872C146.672 30.416 146.57 30.9493 146.368 31.472C146.176 31.9947 145.882 32.4693 145.488 32.896C145.104 33.312 144.629 33.648 144.064 33.904C143.498 34.16 142.842 34.288 142.096 34.288ZM142.096 32.912C142.736 32.912 143.28 32.7733 143.728 32.496C144.186 32.208 144.533 31.824 144.767 31.344C145.013 30.864 145.135 30.3253 145.135 29.728C145.135 29.12 145.013 28.576 144.767 28.096C144.522 27.616 144.17 27.2373 143.712 26.96C143.264 26.6827 142.725 26.544 142.096 26.544C141.477 26.544 140.938 26.6827 140.48 26.96C140.021 27.2373 139.669 27.616 139.424 28.096C139.178 28.576 139.056 29.12 139.056 29.728C139.056 30.3253 139.173 30.864 139.408 31.344C139.653 31.824 140 32.208 140.448 32.496C140.906 32.7733 141.456 32.912 142.096 32.912ZM154.14 34V31.44H153.884V28.48C153.884 27.8933 153.729 27.4507 153.42 27.152C153.121 26.8533 152.679 26.704 152.092 26.704C151.761 26.704 151.42 26.7093 151.068 26.72C150.716 26.7307 150.38 26.7413 150.06 26.752C149.74 26.7627 149.463 26.7787 149.228 26.8V25.456C149.463 25.4347 149.708 25.4187 149.964 25.408C150.231 25.3867 150.503 25.376 150.78 25.376C151.057 25.3653 151.324 25.36 151.58 25.36C152.455 25.36 153.169 25.4667 153.724 25.68C154.279 25.8827 154.689 26.2187 154.956 26.688C155.223 27.1573 155.356 27.792 155.356 28.592V34H154.14ZM151.34 34.224C150.7 34.224 150.145 34.1173 149.676 33.904C149.217 33.68 148.86 33.36 148.604 32.944C148.359 32.528 148.236 32.0267 148.236 31.44C148.236 30.832 148.369 30.3253 148.636 29.92C148.913 29.5147 149.313 29.2107 149.836 29.008C150.359 28.7947 150.988 28.688 151.724 28.688H154.044V29.84H151.66C151.041 29.84 150.567 29.9893 150.236 30.288C149.905 30.5867 149.74 30.9707 149.74 31.44C149.74 31.9093 149.905 32.288 150.236 32.576C150.567 32.864 151.041 33.008 151.66 33.008C152.023 33.008 152.369 32.944 152.7 32.816C153.031 32.6773 153.303 32.4533 153.516 32.144C153.74 31.824 153.863 31.3867 153.884 30.832L154.3 31.44C154.247 32.048 154.097 32.56 153.852 32.976C153.617 33.3813 153.287 33.6907 152.86 33.904C152.444 34.1173 151.937 34.224 151.34 34.224ZM161.743 34.288C161.135 34.288 160.575 34.176 160.063 33.952C159.551 33.728 159.103 33.4133 158.719 33.008C158.346 32.6027 158.052 32.1333 157.839 31.6C157.636 31.0667 157.535 30.4907 157.535 29.872V29.584C157.535 28.976 157.636 28.4053 157.839 27.872C158.042 27.3387 158.324 26.8693 158.687 26.464C159.06 26.0587 159.498 25.744 159.999 25.52C160.511 25.2853 161.076 25.168 161.695 25.168C162.346 25.168 162.938 25.3067 163.471 25.584C164.004 25.8507 164.442 26.272 164.783 26.848C165.124 27.424 165.316 28.1707 165.359 29.088L164.719 28.064V22.32H166.255V34H165.039V30.208H165.487C165.444 31.1787 165.242 31.968 164.879 32.576C164.516 33.1733 164.058 33.6107 163.503 33.888C162.959 34.1547 162.372 34.288 161.743 34.288ZM161.951 32.944C162.474 32.944 162.948 32.8267 163.375 32.592C163.802 32.3573 164.143 32.0213 164.399 31.584C164.655 31.136 164.783 30.6133 164.783 30.016V29.28C164.783 28.6933 164.65 28.1973 164.383 27.792C164.127 27.376 163.78 27.0613 163.343 26.848C162.916 26.624 162.447 26.512 161.935 26.512C161.37 26.512 160.868 26.6453 160.431 26.912C160.004 27.1787 159.668 27.552 159.423 28.032C159.188 28.512 159.071 29.0773 159.071 29.728C159.071 30.3787 159.194 30.9493 159.439 31.44C159.684 31.92 160.026 32.2933 160.463 32.56C160.9 32.816 161.396 32.944 161.951 32.944ZM176.175 34.096C175.535 34.096 174.98 34.0053 174.511 33.824C174.052 33.6427 173.695 33.3333 173.439 32.896C173.194 32.448 173.071 31.8453 173.071 31.088V22.864H174.543V31.28C174.543 31.7387 174.666 32.096 174.911 32.352C175.167 32.5973 175.524 32.72 175.983 32.72H177.487V34.096H176.175ZM171.599 26.608V25.456H177.487V26.608H171.599ZM179.66 34V22.32H181.196V29.296H180.812C180.812 28.4533 180.918 27.728 181.132 27.12C181.356 26.5013 181.697 26.0267 182.156 25.696C182.614 25.3653 183.201 25.2 183.916 25.2H183.98C185.004 25.2 185.777 25.5413 186.3 26.224C186.822 26.896 187.084 27.8613 187.084 29.12V34H185.548V28.8C185.548 28.1067 185.35 27.568 184.956 27.184C184.572 26.8 184.07 26.608 183.452 26.608C182.769 26.608 182.22 26.8373 181.804 27.296C181.398 27.744 181.196 28.336 181.196 29.072V34H179.66ZM193.526 34.288C192.779 34.288 192.134 34.16 191.59 33.904C191.046 33.648 190.603 33.312 190.262 32.896C189.921 32.4693 189.665 31.9947 189.494 31.472C189.334 30.9493 189.254 30.416 189.254 29.872V29.584C189.254 29.0293 189.334 28.4907 189.494 27.968C189.665 27.4453 189.921 26.976 190.262 26.56C190.603 26.1333 191.035 25.7973 191.558 25.552C192.091 25.296 192.715 25.168 193.43 25.168C194.358 25.168 195.121 25.3707 195.718 25.776C196.326 26.1707 196.774 26.6827 197.062 27.312C197.361 27.9413 197.51 28.6133 197.51 29.328V30.016H189.926V28.864H196.39L196.038 29.488C196.038 28.88 195.942 28.3573 195.75 27.92C195.558 27.472 195.27 27.1253 194.886 26.88C194.502 26.6347 194.017 26.512 193.43 26.512C192.822 26.512 192.315 26.6507 191.91 26.928C191.515 27.2053 191.217 27.584 191.014 28.064C190.822 28.544 190.726 29.0987 190.726 29.728C190.726 30.336 190.822 30.8853 191.014 31.376C191.217 31.856 191.526 32.24 191.942 32.528C192.358 32.8053 192.886 32.944 193.526 32.944C194.198 32.944 194.742 32.7947 195.158 32.496C195.585 32.1973 195.841 31.8507 195.926 31.456H197.366C197.249 32.0427 197.014 32.5493 196.662 32.976C196.31 33.4027 195.867 33.728 195.334 33.952C194.801 34.176 194.198 34.288 193.526 34.288ZM208.499 34V31.44H208.243V28.48C208.243 27.8933 208.089 27.4507 207.779 27.152C207.481 26.8533 207.038 26.704 206.451 26.704C206.121 26.704 205.779 26.7093 205.427 26.72C205.075 26.7307 204.739 26.7413 204.419 26.752C204.099 26.7627 203.822 26.7787 203.587 26.8V25.456C203.822 25.4347 204.067 25.4187 204.323 25.408C204.59 25.3867 204.862 25.376 205.139 25.376C205.417 25.3653 205.683 25.36 205.939 25.36C206.814 25.36 207.529 25.4667 208.083 25.68C208.638 25.8827 209.049 26.2187 209.315 26.688C209.582 27.1573 209.715 27.792 209.715 28.592V34H208.499ZM205.699 34.224C205.059 34.224 204.505 34.1173 204.035 33.904C203.577 33.68 203.219 33.36 202.963 32.944C202.718 32.528 202.595 32.0267 202.595 31.44C202.595 30.832 202.729 30.3253 202.995 29.92C203.273 29.5147 203.673 29.2107 204.195 29.008C204.718 28.7947 205.347 28.688 206.083 28.688H208.403V29.84H206.019C205.401 29.84 204.926 29.9893 204.595 30.288C204.265 30.5867 204.099 30.9707 204.099 31.44C204.099 31.9093 204.265 32.288 204.595 32.576C204.926 32.864 205.401 33.008 206.019 33.008C206.382 33.008 206.729 32.944 207.059 32.816C207.39 32.6773 207.662 32.4533 207.875 32.144C208.099 31.824 208.222 31.3867 208.243 30.832L208.659 31.44C208.606 32.048 208.457 32.56 208.211 32.976C207.977 33.3813 207.646 33.6907 207.219 33.904C206.803 34.1173 206.297 34.224 205.699 34.224ZM212.535 37.2V25.456H213.751V29.152L213.463 29.12C213.516 28.2027 213.708 27.456 214.039 26.88C214.38 26.2933 214.823 25.8613 215.367 25.584C215.911 25.3067 216.503 25.168 217.143 25.168C217.761 25.168 218.321 25.2853 218.823 25.52C219.335 25.7547 219.772 26.0747 220.135 26.48C220.497 26.8853 220.775 27.3547 220.967 27.888C221.159 28.4213 221.255 28.9867 221.255 29.584V29.872C221.255 30.4693 221.153 31.0347 220.951 31.568C220.748 32.1013 220.46 32.5707 220.087 32.976C219.724 33.3813 219.287 33.7013 218.775 33.936C218.273 34.1707 217.719 34.288 217.111 34.288C216.503 34.288 215.921 34.1547 215.367 33.888C214.812 33.6213 214.353 33.1893 213.991 32.592C213.628 31.9947 213.42 31.2107 213.367 30.24L214.071 31.52V37.2H212.535ZM216.871 32.944C217.447 32.944 217.948 32.8107 218.375 32.544C218.801 32.2667 219.132 31.888 219.367 31.408C219.601 30.9173 219.719 30.3573 219.719 29.728C219.719 29.088 219.601 28.528 219.367 28.048C219.132 27.568 218.801 27.1947 218.375 26.928C217.948 26.6507 217.447 26.512 216.871 26.512C216.359 26.512 215.884 26.6293 215.447 26.864C215.009 27.088 214.657 27.4187 214.391 27.856C214.135 28.2827 214.007 28.8 214.007 29.408V30.144C214.007 30.7307 214.14 31.232 214.407 31.648C214.673 32.064 215.025 32.384 215.463 32.608C215.9 32.832 216.369 32.944 216.871 32.944ZM223.566 37.2V25.456H224.782V29.152L224.494 29.12C224.547 28.2027 224.739 27.456 225.07 26.88C225.411 26.2933 225.854 25.8613 226.398 25.584C226.942 25.3067 227.534 25.168 228.174 25.168C228.792 25.168 229.352 25.2853 229.854 25.52C230.366 25.7547 230.803 26.0747 231.166 26.48C231.528 26.8853 231.806 27.3547 231.998 27.888C232.19 28.4213 232.286 28.9867 232.286 29.584V29.872C232.286 30.4693 232.184 31.0347 231.982 31.568C231.779 32.1013 231.491 32.5707 231.118 32.976C230.755 33.3813 230.318 33.7013 229.806 33.936C229.304 34.1707 228.75 34.288 228.142 34.288C227.534 34.288 226.952 34.1547 226.398 33.888C225.843 33.6213 225.384 33.1893 225.022 32.592C224.659 31.9947 224.451 31.2107 224.398 30.24L225.102 31.52V37.2H223.566ZM227.902 32.944C228.478 32.944 228.979 32.8107 229.406 32.544C229.832 32.2667 230.163 31.888 230.398 31.408C230.632 30.9173 230.75 30.3573 230.75 29.728C230.75 29.088 230.632 28.528 230.398 28.048C230.163 27.568 229.832 27.1947 229.406 26.928C228.979 26.6507 228.478 26.512 227.902 26.512C227.39 26.512 226.915 26.6293 226.478 26.864C226.04 27.088 225.688 27.4187 225.422 27.856C225.166 28.2827 225.038 28.8 225.038 29.408V30.144C225.038 30.7307 225.171 31.232 225.438 31.648C225.704 32.064 226.056 32.384 226.494 32.608C226.931 32.832 227.4 32.944 227.902 32.944Z" fill="#666666"/>
<path d="M93.56 65.38C92.2533 65.38 91.1133 65.1667 90.14 64.74C89.1667 64.3 88.36 63.7133 87.72 62.98C87.0933 62.2467 86.6267 61.4333 86.32 60.54C86.0133 59.6467 85.86 58.7533 85.86 57.86V57.42C85.86 56.5 86.0133 55.6 86.32 54.72C86.6267 53.84 87.0867 53.04 87.7 52.32C88.3267 51.6 89.1 51.0267 90.02 50.6C90.9533 50.1733 92.0267 49.96 93.24 49.96C94.56 49.96 95.7267 50.2067 96.74 50.7C97.7533 51.18 98.5667 51.8533 99.18 52.72C99.7933 53.5733 100.147 54.5667 100.24 55.7H96.96C96.88 55.1667 96.6667 54.7 96.32 54.3C95.9867 53.9 95.5533 53.5867 95.02 53.36C94.5 53.1333 93.9067 53.02 93.24 53.02C92.6 53.02 92.0267 53.1333 91.52 53.36C91.0267 53.5867 90.6 53.9067 90.24 54.32C89.8933 54.7333 89.6267 55.2267 89.44 55.8C89.2667 56.36 89.18 56.98 89.18 57.66C89.18 58.3667 89.2733 59.0133 89.46 59.6C89.66 60.1733 89.9467 60.6733 90.32 61.1C90.6933 61.5133 91.1533 61.8333 91.7 62.06C92.26 62.2867 92.88 62.4 93.56 62.4C94.4667 62.4 95.2533 62.2133 95.92 61.84C96.5867 61.4667 97.0667 60.9733 97.36 60.36L96.96 62.6V59.12H99.98V62.24C99.3533 63.2533 98.4867 64.0333 97.38 64.58C96.2867 65.1133 95.0133 65.38 93.56 65.38ZM93.14 59.76V57.4H101.18V59.76H93.14ZM107.86 65.38C106.9 65.38 106.047 65.2333 105.3 64.94C104.553 64.6333 103.92 64.22 103.4 63.7C102.893 63.18 102.507 62.5867 102.24 61.92C101.973 61.24 101.84 60.5267 101.84 59.78V59.32C101.84 58.56 101.973 57.84 102.24 57.16C102.52 56.4667 102.92 55.86 103.44 55.34C103.973 54.82 104.613 54.4133 105.36 54.12C106.107 53.8133 106.94 53.66 107.86 53.66C108.807 53.66 109.647 53.8133 110.38 54.12C111.127 54.4133 111.76 54.82 112.28 55.34C112.8 55.86 113.2 56.4667 113.48 57.16C113.76 57.84 113.9 58.56 113.9 59.32V59.78C113.9 60.5267 113.767 61.24 113.5 61.92C113.233 62.5867 112.84 63.18 112.32 63.7C111.813 64.22 111.187 64.6333 110.44 64.94C109.693 65.2333 108.833 65.38 107.86 65.38ZM107.86 62.68C108.487 62.68 109.007 62.5467 109.42 62.28C109.833 62.0133 110.147 61.64 110.36 61.16C110.587 60.68 110.7 60.1467 110.7 59.56C110.7 58.9333 110.587 58.3867 110.36 57.92C110.133 57.44 109.807 57.06 109.38 56.78C108.967 56.5 108.46 56.36 107.86 56.36C107.273 56.36 106.767 56.5 106.34 56.78C105.913 57.06 105.587 57.44 105.36 57.92C105.147 58.3867 105.04 58.9333 105.04 59.56C105.04 60.1467 105.147 60.68 105.36 61.16C105.573 61.64 105.893 62.0133 106.32 62.28C106.747 62.5467 107.26 62.68 107.86 62.68ZM120.873 65.38C119.913 65.38 119.06 65.2333 118.313 64.94C117.567 64.6333 116.933 64.22 116.413 63.7C115.907 63.18 115.52 62.5867 115.253 61.92C114.987 61.24 114.853 60.5267 114.853 59.78V59.32C114.853 58.56 114.987 57.84 115.253 57.16C115.533 56.4667 115.933 55.86 116.453 55.34C116.987 54.82 117.627 54.4133 118.373 54.12C119.12 53.8133 119.953 53.66 120.873 53.66C121.82 53.66 122.66 53.8133 123.393 54.12C124.14 54.4133 124.773 54.82 125.293 55.34C125.813 55.86 126.213 56.4667 126.493 57.16C126.773 57.84 126.913 58.56 126.913 59.32V59.78C126.913 60.5267 126.78 61.24 126.513 61.92C126.247 62.5867 125.853 63.18 125.333 63.7C124.827 64.22 124.2 64.6333 123.453 64.94C122.707 65.2333 121.847 65.38 120.873 65.38ZM120.873 62.68C121.5 62.68 122.02 62.5467 122.433 62.28C122.847 62.0133 123.16 61.64 123.373 61.16C123.6 60.68 123.713 60.1467 123.713 59.56C123.713 58.9333 123.6 58.3867 123.373 57.92C123.147 57.44 122.82 57.06 122.393 56.78C121.98 56.5 121.473 56.36 120.873 56.36C120.287 56.36 119.78 56.5 119.353 56.78C118.927 57.06 118.6 57.44 118.373 57.92C118.16 58.3867 118.053 58.9333 118.053 59.56C118.053 60.1467 118.16 60.68 118.373 61.16C118.587 61.64 118.907 62.0133 119.333 62.28C119.76 62.5467 120.273 62.68 120.873 62.68ZM132.867 69.36C132.333 69.36 131.787 69.34 131.227 69.3C130.667 69.26 130.153 69.2067 129.687 69.14V66.44C130.153 66.5067 130.667 66.56 131.227 66.6C131.8 66.6533 132.32 66.68 132.787 66.68C133.653 66.68 134.353 66.58 134.887 66.38C135.433 66.18 135.833 65.8733 136.087 65.46C136.34 65.06 136.467 64.54 136.467 63.9V61.72L137.047 60.44C137.02 61.4133 136.827 62.2467 136.467 62.94C136.12 63.6333 135.633 64.1667 135.007 64.54C134.38 64.9 133.633 65.08 132.767 65.08C132.02 65.08 131.34 64.9467 130.727 64.68C130.127 64.4 129.613 64.0133 129.187 63.52C128.76 63.0267 128.433 62.4533 128.207 61.8C127.98 61.1333 127.867 60.4133 127.867 59.64V59.18C127.867 58.4067 127.987 57.6867 128.227 57.02C128.467 56.3533 128.813 55.7733 129.267 55.28C129.72 54.7867 130.26 54.4067 130.887 54.14C131.513 53.86 132.207 53.72 132.967 53.72C133.847 53.72 134.607 53.9133 135.247 54.3C135.9 54.6867 136.413 55.2533 136.787 56C137.16 56.7467 137.36 57.6467 137.387 58.7L136.947 58.82V54.04H139.487V63.7C139.487 65.0467 139.247 66.1333 138.767 66.96C138.287 67.7867 137.553 68.3933 136.567 68.78C135.593 69.1667 134.36 69.36 132.867 69.36ZM133.767 62.38C134.26 62.38 134.707 62.2733 135.107 62.06C135.507 61.8333 135.82 61.5133 136.047 61.1C136.287 60.6867 136.407 60.1867 136.407 59.6V59.02C136.407 58.4467 136.28 57.9667 136.027 57.58C135.787 57.18 135.467 56.88 135.067 56.68C134.667 56.4667 134.24 56.36 133.787 56.36C133.253 56.36 132.78 56.4867 132.367 56.74C131.953 56.9933 131.633 57.3467 131.407 57.8C131.18 58.2533 131.067 58.7867 131.067 59.4C131.067 60.0267 131.18 60.5667 131.407 61.02C131.647 61.46 131.967 61.8 132.367 62.04C132.78 62.2667 133.247 62.38 133.767 62.38ZM141.798 65V50.4H145.018V65H141.798ZM140.498 52.76V50.4H145.018V52.76H140.498ZM152.386 65.38C151.453 65.38 150.626 65.22 149.906 64.9C149.2 64.58 148.606 64.1533 148.126 63.62C147.66 63.0733 147.3 62.4667 147.046 61.8C146.806 61.12 146.686 60.4267 146.686 59.72V59.32C146.686 58.5867 146.806 57.8867 147.046 57.22C147.3 56.54 147.66 55.9333 148.126 55.4C148.593 54.8667 149.173 54.4467 149.866 54.14C150.573 53.82 151.373 53.66 152.266 53.66C153.44 53.66 154.426 53.9267 155.226 54.46C156.04 54.98 156.66 55.6667 157.086 56.52C157.513 57.36 157.726 58.28 157.726 59.28V60.36H148.026V58.54H155.786L154.746 59.38C154.746 58.7267 154.653 58.1667 154.466 57.7C154.28 57.2333 154 56.88 153.626 56.64C153.266 56.3867 152.813 56.26 152.266 56.26C151.706 56.26 151.233 56.3867 150.846 56.64C150.46 56.8933 150.166 57.2667 149.966 57.76C149.766 58.24 149.666 58.8333 149.666 59.54C149.666 60.1933 149.76 60.7667 149.946 61.26C150.133 61.74 150.426 62.1133 150.826 62.38C151.226 62.6467 151.746 62.78 152.386 62.78C152.973 62.78 153.453 62.6667 153.826 62.44C154.2 62.2133 154.453 61.9333 154.586 61.6H157.526C157.366 62.3333 157.053 62.9867 156.586 63.56C156.12 64.1333 155.533 64.58 154.826 64.9C154.12 65.22 153.306 65.38 152.386 65.38ZM165.906 60.82V57.98H168.526C169.033 57.98 169.466 57.88 169.826 57.68C170.199 57.48 170.486 57.2 170.686 56.84C170.886 56.4667 170.986 56.04 170.986 55.56C170.986 55.0533 170.886 54.62 170.686 54.26C170.486 53.8867 170.199 53.6067 169.826 53.42C169.466 53.22 169.033 53.12 168.526 53.12H165.906V50.28H168.366C169.606 50.28 170.666 50.4867 171.546 50.9C172.439 51.3133 173.119 51.9 173.586 52.66C174.066 53.42 174.306 54.3333 174.306 55.4V55.72C174.306 56.76 174.066 57.6667 173.586 58.44C173.119 59.2 172.439 59.7867 171.546 60.2C170.666 60.6133 169.606 60.82 168.366 60.82H165.906ZM163.026 65V50.28H166.306V65H163.026ZM175.726 65V50.4H178.946V65H175.726ZM174.426 52.76V50.4H178.946V52.76H174.426ZM187.914 65V61.76H187.374V58.24C187.374 57.68 187.241 57.26 186.974 56.98C186.708 56.7 186.281 56.56 185.694 56.56C185.401 56.56 185.014 56.5667 184.534 56.58C184.054 56.5933 183.561 56.6133 183.054 56.64C182.548 56.6667 182.088 56.6933 181.674 56.72V54.02C181.981 53.9933 182.341 53.9667 182.754 53.94C183.168 53.9133 183.594 53.8933 184.034 53.88C184.474 53.8667 184.888 53.86 185.274 53.86C186.394 53.86 187.334 54.02 188.094 54.34C188.868 54.66 189.454 55.1467 189.854 55.8C190.254 56.44 190.454 57.2667 190.454 58.28V65H187.914ZM184.414 65.28C183.628 65.28 182.934 65.14 182.334 64.86C181.748 64.58 181.288 64.18 180.954 63.66C180.621 63.1267 180.454 62.4933 180.454 61.76C180.454 60.96 180.661 60.3067 181.074 59.8C181.488 59.28 182.068 58.9 182.814 58.66C183.561 58.4067 184.421 58.28 185.394 58.28H187.734V60.06H185.374C184.814 60.06 184.381 60.2 184.074 60.48C183.781 60.7467 183.634 61.1133 183.634 61.58C183.634 62.02 183.781 62.38 184.074 62.66C184.381 62.9267 184.814 63.06 185.374 63.06C185.734 63.06 186.054 63 186.334 62.88C186.628 62.7467 186.868 62.5267 187.054 62.22C187.241 61.9133 187.348 61.4867 187.374 60.94L188.134 61.74C188.068 62.5 187.881 63.14 187.574 63.66C187.281 64.18 186.868 64.58 186.334 64.86C185.814 65.14 185.174 65.28 184.414 65.28ZM192.254 69.34V66.62H194.534C194.881 66.62 195.174 66.5733 195.414 66.48C195.654 66.4 195.847 66.26 195.994 66.06C196.141 65.86 196.261 65.5867 196.354 65.24L199.054 54.04H202.094L199.034 65.88C198.821 66.7333 198.521 67.4133 198.134 67.92C197.761 68.4267 197.254 68.7867 196.614 69C195.987 69.2267 195.187 69.34 194.214 69.34H192.254ZM195.694 64.76V62.26H198.014V64.76H195.694ZM194.374 64.76L191.014 54.04H194.234L197.414 64.76H194.374Z" fill="#1A1A1A"/>
<defs>
<clipPath id="clip0_315_591">
<rect width="49" height="55" fill="white" transform="translate(16 16)"/>
</clipPath>
</defs>
</svg>
