<svg preserveAspectRatio="none" width="100%" height="100%" overflow="visible" style="display: block;" viewBox="0 0 317.347 314.405" fill="none" xmlns="http://www.w3.org/2000/svg">
<g id="woman">
<path id="Vector" d="M140.834 120.817L168.205 126.021L171.86 121.951L187.028 130.676L180.229 143.164L139.952 134.091L140.834 120.817Z" fill="var(--fill-0, #FFCBBB)"/>
<path id="Vector_2" d="M79.7618 195.722L78.4668 150.289C78.0526 135.758 91.9576 125.066 105.894 129.2C133.481 136.453 158.793 142.942 173.553 149.072L169.756 172.236L79.7618 195.722Z" fill="var(--fill-0, #282626)"/>
<path id="Vector_3" d="M57.0656 298.748C56.6166 300.241 56.1073 301.675 55.5291 303.042C54.2939 305.962 50.8788 307.278 47.9746 306.005L19.9844 293.743L25.3682 281.454L35.1966 278.65C35.2061 278.647 35.2158 278.645 35.2252 278.642C36.8425 278.176 38.1816 277.037 38.9595 275.545L44.2665 265.364L70.6215 274.505L57.0656 298.748Z" fill="var(--fill-0, #FFCBBB)"/>
<path id="Vector_4" d="M170.792 166.587L90.242 176.169C78.5262 177.562 68.2625 184.671 62.8385 195.149L30.4769 257.662C40.4356 271.616 54.612 279.492 76.7149 275.677L103.426 212.536C144.349 212.169 189.08 214.562 202.151 194.01L170.792 166.587Z" fill="var(--fill-0, #282626)"/>
<path id="Vector_5" d="M170.79 166.587L90.2411 176.169C78.5254 177.562 68.2618 184.671 62.838 195.149" stroke="var(--stroke-0, #EBEBEB)" stroke-width="3" stroke-miterlimit="10" stroke-linecap="round"/>
<path id="Vector_6" d="M217.943 30.4087C228.687 38.0527 231.797 47.6734 225.771 59.6589C222.998 65.0521 223.174 68.1938 223.742 71.037L181.151 62.0631C170.319 56.7859 169.77 49.1796 178.533 37.0363C180.29 27.7398 202.307 14.8186 217.943 30.4087Z" fill="var(--fill-0, #282626)"/>
<path id="Vector_7" d="M199.947 20.0919C195.934 20.7972 190.246 16.8014 193.433 10.8314C194.992 7.91099 198.426 6.48896 201.549 7.58727C201.572 7.5953 201.595 7.60333 201.618 7.6116C201.98 4.83605 201.592 1.84004 206.159 0.299856C207.495 -0.150526 208.97 -0.106098 210.234 0.518436C211.768 1.27624 212.776 2.74199 212.938 5.34338C214.201 3.29138 215.687 1.60611 218.178 1.57421C220.082 1.54987 221.835 2.53971 222.972 4.06714C224.434 6.03171 224.519 8.14846 223.257 10.4141C224.518 10.3276 225.754 10.4042 226.823 11.6263C227.894 12.8498 228.225 14.5739 227.734 16.1233C227.19 17.8376 225.886 18.4907 223.969 18.2868C226.061 18.8005 228.271 20.8532 227.559 23.7079C227.259 24.9107 226.478 25.9298 225.471 26.6524C223.097 28.3564 221.157 27.8961 219.299 27.027L199.947 20.0919Z" fill="var(--fill-0, #282626)"/>
<path id="Vector_8" d="M198.231 23.3355C198.297 22.7079 197.144 21.314 199.948 20.0923C205.689 17.887 214.963 20.3556 219.299 27.0274C219.766 27.8053 219.902 29.9943 217.943 30.4079C212.446 24.9433 205.892 22.537 198.231 23.3355Z" fill="var(--fill-0, #048FFF)"/>
<path id="Vector_9" d="M180.219 66.688C179.841 65.3938 180.557 64.1177 181.678 63.6711C180.523 60.4777 178.534 52.323 178.729 50.3144C181.233 53.4525 196.311 63.3942 214.149 49.5653C212.785 45.8319 218.236 42.526 221.817 47.7051C223.575 50.4642 223.931 55.6669 217.61 57.2866C218.206 61.1103 219.199 64.492 221.627 68.2217C220.327 69.2347 208.616 76.3799 207.123 77.0787C196.789 81.9158 189.375 77.5973 184.228 68.8417L184.229 68.8443C182.118 69.4753 180.809 68.7089 180.219 66.688Z" fill="var(--fill-0, #FFCBBB)"/>
<g id="Group">
<path id="Vector_10" d="M227.272 74.4446C224.203 71.8814 223.09 70.3285 221.627 68.2218L205.914 75.5522C207.546 77.742 209.456 80.4125 210.476 83.5685C206.421 88.3896 206.143 93.9158 210.476 95.1949C215.095 95.7284 220.982 89.4423 227.272 74.4446Z" fill="var(--fill-0, #FFCBBB)"/>
<g id="Clip path group">
<mask id="mask0_1304_200" style="mask-type:luminance" maskUnits="userSpaceOnUse" x="205" y="68" width="23" height="28">
<g id="XMLID_00000034067044252418891590000002003385587782072252_">
<path id="Vector_11" d="M227.272 74.4446C224.203 71.8814 223.09 70.3285 221.627 68.2218L205.914 75.5522C207.546 77.742 209.456 80.4125 210.476 83.5685C206.421 88.3896 206.143 93.9158 210.476 95.1949C215.095 95.7284 220.982 89.4423 227.272 74.4446Z" fill="var(--fill-0, white)"/>
</g>
</mask>
<g mask="url(#mask0_1304_200)">
<path id="Vector_12" d="M207.122 77.0777C207.122 77.0777 206.205 82.1085 209.898 82.0346C213.591 81.9606 218.334 69.7568 218.334 69.7568C214.975 72.5418 211.501 75.2215 207.122 77.0777Z" fill="var(--fill-0, #282626)"/>
</g>
</g>
</g>
<path id="Vector_13" d="M187.895 61.1585C188.675 60.7009 188.912 59.6557 188.424 58.8241C187.936 57.9924 186.908 57.6893 186.128 58.1469C185.348 58.6046 185.111 59.6497 185.599 60.4814C186.087 61.313 187.115 61.6162 187.895 61.1585Z" fill="var(--fill-0, #282626)"/>
<path id="Vector_14" d="M195.847 69.7573C196.685 71.78 193.365 74.2306 191.674 72.2054" stroke="var(--stroke-0, #282626)" stroke-width="3" stroke-miterlimit="10" stroke-linecap="round"/>
<path id="Vector_15" d="M226.441 73.7348C221.268 85.4892 215.992 95.042 210.247 94.5502C206.673 93.2754 207.242 89.2929 210.476 83.5685C208.744 84.185 207.083 84.9558 205.478 85.8481C203.043 87.2026 200.799 88.8759 198.748 90.7613L196.658 92.682C193.206 121.46 184.97 141.063 171.504 150.64C162.964 160.181 166.5 173.948 178.776 183.022C187.046 189.366 194.517 193.324 202.151 194.009C227.082 176.305 259.683 146.3 226.441 73.7348Z" fill="var(--fill-0, #F15C2A)"/>
<path id="Vector_16" d="M196.658 92.6821C186.289 102.674 177.334 112.802 167.701 124.953C171.101 130.517 175.331 135.446 183.465 137.39C192.39 127.877 198.163 114.612 196.658 92.6821Z" fill="var(--fill-0, #F15C2A)"/>
<path id="Vector_17" d="M195.102 103.252C191.019 126.302 183.251 142.286 171.504 150.641" stroke="var(--stroke-0, #282626)" stroke-width="3" stroke-miterlimit="10" stroke-linecap="round"/>
<path id="Vector_18" d="M251.035 136.54C251.485 152.646 248.464 164.946 240.721 172.069C235.564 176.813 227.714 177.111 222.125 172.885C213.131 166.083 201.745 153.766 189.385 144.256C178.636 141.691 172.406 133.599 167.301 124.13L186.717 123.73L199.327 131.069L225.593 144.614L225.859 141.811L251.035 136.54Z" fill="var(--fill-0, #FFCBBB)"/>
<path id="Vector_19" d="M226.442 73.7348C250.111 80.7494 255.327 108.734 258.353 139.208C248.689 143.915 231.353 145.636 222.101 143.056C222.915 127.796 222.819 112.827 221.301 98.3086L226.442 73.7348Z" fill="var(--fill-0, #F15C2A)"/>
<path id="Vector_20" d="M258.353 139.209C248.689 143.916 231.353 145.637 222.101 143.057C222.915 127.797 222.819 112.827 221.301 98.3089" stroke="var(--stroke-0, #282626)" stroke-width="3" stroke-miterlimit="10" stroke-linecap="round"/>
<path id="Vector_21" d="M167.885 124.13L157.793 130.292C156.651 130.989 156.297 132.485 157.004 133.621C157.699 134.735 159.158 135.088 160.285 134.414L170.342 128.4L167.885 124.13Z" fill="var(--fill-0, #FFCBBB)"/>
<path id="Vector_22" d="M169.757 128.4L158.928 134.873C157.764 135.568 157.43 137.102 158.2 138.218C158.902 139.236 160.273 139.534 161.334 138.901L172.389 132.301L169.757 128.4Z" fill="var(--fill-0, #FFCBBB)"/>
<path id="Vector_23" d="M175.332 135.856L165.954 141.467C164.935 142.076 163.619 141.804 162.925 140.84C162.143 139.753 162.459 138.229 163.609 137.543L172.39 132.301L175.332 135.856Z" fill="var(--fill-0, #FFCBBB)"/>
<path id="Vector_24" d="M175.33 135.856L179.419 139.565L172.08 143.858C171.017 144.48 169.662 144.262 168.848 143.339C167.788 142.136 168.072 140.268 169.442 139.435L175.33 135.856Z" fill="var(--fill-0, #FFCBBB)"/>
<g id="Group_2">
<path id="Vector_25" d="M167.637 124.281L157.793 130.292C156.65 130.99 156.296 132.485 157.004 133.621C157.698 134.735 159.157 135.088 160.284 134.415L170.341 128.4" stroke="var(--stroke-0, #282626)" stroke-width="3" stroke-miterlimit="10" stroke-linecap="round"/>
<path id="Vector_26" d="M158.927 134.873C157.764 135.568 157.43 137.102 158.2 138.218C158.901 139.236 160.272 139.534 161.333 138.901L172.389 132.301" stroke="var(--stroke-0, #282626)" stroke-width="3" stroke-miterlimit="10" stroke-linecap="round"/>
<path id="Vector_27" d="M175.332 135.856L165.954 141.466C164.935 142.076 163.619 141.804 162.925 140.84C162.143 139.753 162.459 138.229 163.609 137.543L172.39 132.301" stroke="var(--stroke-0, #282626)" stroke-width="3" stroke-miterlimit="10" stroke-linecap="round"/>
<path id="Vector_28" d="M179.419 139.565L172.08 143.859C171.017 144.481 169.662 144.263 168.848 143.339C167.788 142.137 168.072 140.268 169.442 139.435" stroke="var(--stroke-0, #282626)" stroke-width="3" stroke-miterlimit="10" stroke-linecap="round"/>
</g>
<path id="Vector_29" d="M81.3412 82.4611L103.292 125.508L152.532 137.045L127.979 84.8355L81.3412 82.4611Z" fill="var(--fill-0, #687989)"/>
<path id="Vector_30" d="M103.425 129.443V125.509L152.533 137.046V141.791L103.425 129.443Z" fill="var(--fill-0, #5C6B77)"/>
<path id="Vector_31" d="M152.533 141.791L199.417 152.148V147.401L152.533 137.046V141.791Z" fill="var(--fill-0, #687989)"/>
<path id="Vector_32" d="M141.613 314.398H188.651C244.371 314.691 279.757 305.425 300.084 271.022C306.297 260.506 310.264 248.82 311.994 236.729C321.648 169.25 322.122 109.711 279.882 107.939C266.94 108.045 255.941 115.84 246.615 128.838C245.777 130.007 244.909 131.155 244.047 132.305C236.942 141.779 227.517 162.832 217.875 176.773C216.66 178.277 215.431 179.708 214.193 181.07C200.673 195.944 181.186 203.892 161.096 203.228C133.828 202.326 106.462 204.874 87.4346 222.767C58.079 249.346 63.4814 299.096 106.183 311.239C115.191 313.842 127.554 313.801 141.613 314.398Z" fill="var(--fill-0, #E2F0FB)"/>
<path id="Vector_33" d="M56.1956 309.697L1.94666 285.931L0 290.374L54.249 314.141L56.1956 309.697Z" fill="var(--fill-0, #038FFF)"/>
<path id="Vector_34" d="M26.6971 296.748L1.95521 285.909L2.92499 283.696C5.37617 278.101 11.8988 275.552 17.4938 278.003L25.3705 281.453C29.3118 284.834 29.7083 290.805 26.6971 296.748Z" fill="var(--fill-0, #038FFF)"/>
</g>
</svg>
