<svg preserveAspectRatio="none" width="100%" height="100%" overflow="visible" style="display: block;" viewBox="0 0 377.405 92.6326" fill="none" xmlns="http://www.w3.org/2000/svg">
<g id="ornament">
<g id="Group">
<path id="Vector" d="M326.66 3.67903H331.019" stroke="var(--stroke-0, #282626)" stroke-width="3" stroke-miterlimit="10" stroke-linecap="round"/>
<path id="Vector_2" d="M326.66 3.67903H331.019" stroke="var(--stroke-0, #282626)" stroke-width="3" stroke-miterlimit="10" stroke-linecap="round"/>
<path id="Vector_3" d="M328.839 1.5V5.85888" stroke="var(--stroke-0, #282626)" stroke-width="3" stroke-miterlimit="10" stroke-linecap="round"/>
<path id="Vector_4" d="M328.839 1.5V5.85888" stroke="var(--stroke-0, #282626)" stroke-width="3" stroke-miterlimit="10" stroke-linecap="round"/>
</g>
<path id="Vector_5" d="M325.289 58.885C327.25 58.885 328.839 57.2957 328.839 55.3353C328.839 53.3749 327.25 51.7856 325.289 51.7856C323.329 51.7856 321.74 53.3749 321.74 55.3353C321.74 57.2957 323.329 58.885 325.289 58.885Z" fill="var(--fill-0, #F15C2A)"/>
<path id="Vector_6" d="M371.408 14.7095L369.889 8.94327L375.655 10.463L371.408 14.7095Z" fill="var(--fill-0, #048FFF)"/>
<path id="Vector_7" d="M321.74 19.5595C329.238 19.5061 336.742 21.3635 343.35 24.9078C346.346 26.5149 349.223 28.5252 351.155 31.3226C353.088 34.12 353.948 37.8215 352.737 40.9984C351.526 44.1753 347.932 46.4698 344.644 45.6052C343.961 45.4256 343.267 45.0843 342.931 44.4638C342.406 43.4973 343 42.2241 343.937 41.6477C344.873 41.0716 346.033 41.0222 347.133 41.0428C358.76 41.2609 370.063 47.9089 375.904 57.9652" stroke="var(--stroke-0, #282626)" stroke-width="3" stroke-miterlimit="10" stroke-linecap="round"/>
<path id="Vector_8" d="M92.1847 75.7719L97.9509 74.2521L96.4311 80.0183L92.1847 75.7719Z" fill="var(--fill-0, #048FFF)"/>
<g id="Group_2">
<path id="Vector_9" d="M51.4688 34.5666H47.1099" stroke="var(--stroke-0, #282626)" stroke-width="3" stroke-miterlimit="10" stroke-linecap="round"/>
<path id="Vector_10" d="M51.4688 34.5666H47.1099" stroke="var(--stroke-0, #282626)" stroke-width="3" stroke-miterlimit="10" stroke-linecap="round"/>
<path id="Vector_11" d="M49.2899 32.3876V36.7465" stroke="var(--stroke-0, #282626)" stroke-width="3" stroke-miterlimit="10" stroke-linecap="round"/>
<path id="Vector_12" d="M49.2899 32.3876V36.7465" stroke="var(--stroke-0, #282626)" stroke-width="3" stroke-miterlimit="10" stroke-linecap="round"/>
</g>
<path id="Vector_13" d="M81.8633 34.5661C81.9772 44.0788 78.7824 53.5996 72.9532 61.1181C67.1242 68.6367 58.6997 74.1029 49.4584 76.363C44.5782 77.5563 39.2191 77.8252 34.717 75.5959C30.2148 73.3666 26.9777 68.0835 28.3596 63.2534C30.013 57.4741 37.921 55.0517 43.1257 58.0596C48.3303 61.0676 50.4311 67.9897 48.9407 73.8132C47.4505 79.6367 42.9912 84.3439 37.8412 87.4445C32.6911 90.5451 23.146 91.8998 19.4979 90.6973" stroke="var(--stroke-0, #282626)" stroke-width="3" stroke-miterlimit="10" stroke-linecap="round"/>
<path id="Vector_14" d="M3.54966 51.7874C5.51008 51.7874 7.09931 50.1982 7.09931 48.2377C7.09931 46.2773 5.51008 44.6881 3.54966 44.6881C1.58924 44.6881 0 46.2773 0 48.2377C0 50.1982 1.58924 51.7874 3.54966 51.7874Z" fill="var(--fill-0, #F15C2A)"/>
</g>
</svg>
