<svg preserveAspectRatio="none" width="100%" height="100%" overflow="visible" style="display: block;" viewBox="0 0 30 30" fill="none" xmlns="http://www.w3.org/2000/svg">
<g id="language-circle">
<path id="Vector" d="M15 27.5C21.9036 27.5 27.5 21.9036 27.5 15C27.5 8.09644 21.9036 2.5 15 2.5C8.09644 2.5 2.5 8.09644 2.5 15C2.5 21.9036 8.09644 27.5 15 27.5Z" stroke="var(--stroke-0, #9154E1)" stroke-width="1.875"/>
<path id="Vector_2" d="M8.75 10.4741H14.375M14.375 10.4741H18.125M14.375 10.4741V8.75M21.25 10.4741H18.125M18.125 10.4741C17.4656 12.832 16.0849 15.0609 14.5089 17.0197M14.5089 17.0197C13.2039 18.6417 11.7651 20.0785 10.4911 21.25M14.5089 17.0197C13.7054 16.0776 12.5804 14.5533 12.2589 13.8636M14.5089 17.0197L16.9196 19.5259" stroke="var(--stroke-0, #9154E1)" stroke-width="1.875" stroke-linecap="round" stroke-linejoin="round"/>
</g>
</svg>
