<svg preserveAspectRatio="none" width="100%" height="100%" overflow="visible" style="display: block;" viewBox="0 0 30 30" fill="none" xmlns="http://www.w3.org/2000/svg">
<g id="chat-delay-01">
<path id="Vector" d="M27.5 13.75C27.5 14.7135 27.4831 15.654 27.4511 16.5621C27.3465 19.529 27.2941 21.0124 26.0874 22.2283C24.8807 23.444 23.3554 23.5093 20.3046 23.6398C19.3873 23.679 18.4373 23.7084 17.4616 23.7269C16.5353 23.7444 16.072 23.7533 15.665 23.9083C15.258 24.0633 14.9156 24.3569 14.2306 24.9441L11.5063 27.2802C11.3409 27.422 11.1302 27.5 10.9124 27.5C10.4085 27.5 10 27.0915 10 26.5876V23.6524C9.89803 23.6482 9.79644 23.6441 9.69524 23.6398C6.64461 23.5093 5.11931 23.444 3.91259 22.2281C2.70586 21.0124 2.65352 19.529 2.54886 16.5621C2.51682 15.654 2.5 14.7135 2.5 13.75C2.5 12.7865 2.51682 11.846 2.54886 10.9379C2.65352 7.97104 2.70586 6.48761 3.91259 5.27181C5.11931 4.05601 6.64462 3.99075 9.69525 3.86024C11.369 3.78863 13.1511 3.75 15 3.75" stroke="var(--stroke-0, #FF5820)" stroke-width="1.875" stroke-linecap="round" stroke-linejoin="round"/>
<path id="Vector_2" d="M15.0061 13.75H15.0173M10.0117 13.75H10.0229" stroke="var(--stroke-0, #FF5820)" stroke-width="2.5" stroke-linecap="round" stroke-linejoin="round"/>
<path id="Vector_3" d="M23.125 6.875L24.2188 5.78125M27.5 6.875C27.5 9.29125 25.5412 11.25 23.125 11.25C20.7088 11.25 18.75 9.29125 18.75 6.875C18.75 4.45875 20.7088 2.5 23.125 2.5C25.5412 2.5 27.5 4.45875 27.5 6.875Z" stroke="var(--stroke-0, #FF5820)" stroke-width="1.875" stroke-linecap="round"/>
</g>
</svg>
