<svg preserveAspectRatio="none" width="100%" height="100%" overflow="visible" style="display: block;" viewBox="0 0 34 34" fill="none" xmlns="http://www.w3.org/2000/svg">
<g id="user-multiple-03">
<path id="Vector" d="M23.375 28.3333V25.4581C23.375 23.6981 22.5827 21.9724 20.9813 21.2424C19.028 20.352 16.6854 19.8333 14.1667 19.8333C11.648 19.8333 9.30538 20.352 7.35205 21.2424C5.75063 21.9724 4.95833 23.6981 4.95833 25.4581V28.3333" stroke="var(--stroke-0, #7B19D8)" stroke-width="2.125" stroke-linecap="round" stroke-linejoin="round"/>
<path id="Vector_2" d="M29.0417 28.3347V25.4593C29.0417 23.6994 28.2493 21.9737 26.6479 21.2437C26.2787 21.0754 25.8955 20.9203 25.5 20.7796" stroke="var(--stroke-0, #7B19D8)" stroke-width="2.125" stroke-linecap="round" stroke-linejoin="round"/>
<path id="Vector_3" d="M14.1667 15.5833C16.9051 15.5833 19.125 13.3634 19.125 10.625C19.125 7.88659 16.9051 5.66667 14.1667 5.66667C11.4283 5.66667 9.20833 7.88659 9.20833 10.625C9.20833 13.3634 11.4283 15.5833 14.1667 15.5833Z" stroke="var(--stroke-0, #7B19D8)" stroke-width="2.125" stroke-linecap="round" stroke-linejoin="round"/>
<path id="Vector_4" d="M21.25 5.87142C23.2981 6.48098 24.7917 8.37828 24.7917 10.6244C24.7917 12.8706 23.2981 14.7679 21.25 15.3775" stroke="var(--stroke-0, #7B19D8)" stroke-width="2.125" stroke-linecap="round" stroke-linejoin="round"/>
</g>
</svg>
