<svg preserveAspectRatio="none" width="100%" height="100%" overflow="visible" style="display: block;" viewBox="0 0 30 30" fill="none" xmlns="http://www.w3.org/2000/svg">
<g id="document-attachment">
<path id="Vector" d="M25.6249 13.125V12.5C25.6249 7.78595 25.6249 5.42894 24.1605 3.96446C22.696 2.5 20.339 2.5 15.6249 2.5H14.375C9.66104 2.5 7.30404 2.5 5.83958 3.96445C4.37511 5.4289 4.37509 7.7859 4.37505 12.4999L4.375 18.125C4.37496 22.2343 4.37495 24.289 5.50985 25.6719C5.71765 25.9251 5.94983 26.1573 6.20303 26.3651C7.58596 27.5 9.64061 27.5 13.7499 27.5" stroke="var(--stroke-0, #0ED70E)" stroke-width="1.875" stroke-linecap="round" stroke-linejoin="round"/>
<path id="Vector_2" d="M9.375 8.75H20.625" stroke="var(--stroke-0, #0ED70E)" stroke-width="1.875" stroke-linecap="round" stroke-linejoin="round"/>
<path id="Vector_3" d="M9.375 15H16.875" stroke="var(--stroke-0, #0ED70E)" stroke-width="1.875" stroke-linecap="round" stroke-linejoin="round"/>
<path id="Vector_4" d="M25.625 25V21.25C25.625 19.4633 23.9461 17.5 21.875 17.5C19.8039 17.5 18.125 19.4633 18.125 21.25V25.625C18.125 26.6605 18.9645 27.5 20 27.5C21.0355 27.5 21.875 26.6605 21.875 25.625V21.25" stroke="var(--stroke-0, #0ED70E)" stroke-width="1.875" stroke-linecap="round" stroke-linejoin="round"/>
</g>
</svg>
