<svg preserveAspectRatio="none" width="100%" height="100%" overflow="visible" style="display: block;" viewBox="0 0 30 30" fill="none" xmlns="http://www.w3.org/2000/svg">
<g id="calendar-02">
<path id="Vector" d="M20 2.5V7.5M10 2.5V7.5" stroke="var(--stroke-0, #9154E1)" stroke-width="1.875" stroke-linecap="round" stroke-linejoin="round"/>
<path id="Vector_2" d="M16.25 5H13.75C9.03595 5 6.67894 5 5.21446 6.46446C3.75 7.92894 3.75 10.286 3.75 15V17.5C3.75 22.214 3.75 24.5711 5.21446 26.0355C6.67894 27.5 9.03595 27.5 13.75 27.5H16.25C20.964 27.5 23.3211 27.5 24.7855 26.0355C26.25 24.5711 26.25 22.214 26.25 17.5V15C26.25 10.286 26.25 7.92894 24.7855 6.46446C23.3211 5 20.964 5 16.25 5Z" stroke="var(--stroke-0, #9154E1)" stroke-width="1.875" stroke-linecap="round" stroke-linejoin="round"/>
<path id="Vector_3" d="M3.75 12.5H26.25" stroke="var(--stroke-0, #9154E1)" stroke-width="1.875" stroke-linecap="round" stroke-linejoin="round"/>
<path id="Vector_4" d="M13.75 17.5H20M10 17.5H10.0112M16.25 22.5H10M20 22.5H19.9888" stroke="var(--stroke-0, #9154E1)" stroke-width="1.875" stroke-linecap="round" stroke-linejoin="round"/>
</g>
</svg>
