<svg preserveAspectRatio="none" width="100%" height="100%" overflow="visible" style="display: block;" viewBox="0 0 40 40" fill="none" xmlns="http://www.w3.org/2000/svg">
<g id="calendar-02">
<path id="Vector" d="M26.6667 3.33333V10M13.3333 3.33333V10" stroke="var(--stroke-0, white)" stroke-width="2.5" stroke-linecap="round" stroke-linejoin="round"/>
<path id="Vector_2" d="M21.6667 6.66667H18.3333C12.0479 6.66667 8.90525 6.66667 6.95262 8.61928C5 10.5719 5 13.7146 5 20V23.3333C5 29.6187 5 32.7615 6.95262 34.714C8.90525 36.6667 12.0479 36.6667 18.3333 36.6667H21.6667C27.952 36.6667 31.0948 36.6667 33.0473 34.714C35 32.7615 35 29.6187 35 23.3333V20C35 13.7146 35 10.5719 33.0473 8.61928C31.0948 6.66667 27.952 6.66667 21.6667 6.66667Z" stroke="var(--stroke-0, white)" stroke-width="2.5" stroke-linecap="round" stroke-linejoin="round"/>
<path id="Vector_3" d="M5 16.6667H35" stroke="var(--stroke-0, white)" stroke-width="2.5" stroke-linecap="round" stroke-linejoin="round"/>
<path id="Vector_4" d="M18.3333 23.3333H26.6667M13.3333 23.3333H13.3483M21.6667 30H13.3333M26.6667 30H26.6517" stroke="var(--stroke-0, white)" stroke-width="2.5" stroke-linecap="round" stroke-linejoin="round"/>
</g>
</svg>
