<svg preserveAspectRatio="none" width="100%" height="100%" overflow="visible" style="display: block;" viewBox="0 0 48 48" fill="none" xmlns="http://www.w3.org/2000/svg">
<g id="earth">
<path id="Vector" d="M24 44C12.9543 44 4 35.0456 4 24C4 18.4149 6.2893 13.3645 9.98074 9.73604M24 44C22.074 42.5728 22.3814 40.911 23.3476 39.2494C24.8332 36.6948 24.8332 36.6948 24.8332 33.2888C24.8332 29.8828 26.8572 28.2858 34 29.7142C37.2094 30.3562 39.5482 25.9218 43.7146 27.386M24 44C33.8916 44 42.106 36.8192 43.7146 27.386M9.98074 9.73604C11.6793 9.9153 12.6303 10.8253 14.2099 12.4943C17.2088 15.663 20.2076 15.9274 22.207 14.8712C25.2058 13.2869 22.6858 10.7206 26.2054 9.32596C28.3632 8.47102 28.7744 6.23198 27.7532 4.35158M9.98074 9.73604C13.5899 6.18842 18.5394 4 24 4C25.2828 4 26.5374 4.12078 27.7532 4.35158M43.7146 27.386C43.9022 26.2854 44 25.1542 44 24C44 14.2371 37.0048 6.1081 27.7532 4.35158" stroke="var(--stroke-0, white)" stroke-width="3" stroke-linejoin="round"/>
</g>
</svg>
