<svg preserveAspectRatio="none" width="100%" height="100%" overflow="visible" style="display: block;" viewBox="0 0 40 40" fill="none" xmlns="http://www.w3.org/2000/svg">
<g id="heart-check">
<path id="Vector" d="M21.6667 33.8375C20.2542 34.4175 18.6243 34.2315 17.3512 33.2795C12.649 29.7633 3.33333 21.7247 3.33333 14.4907C3.33333 9.70938 6.8421 5.83333 11.6667 5.83333C14.1667 5.83333 16.6667 6.66667 20 10C23.3333 6.66667 25.8333 5.83333 28.3333 5.83333C33.1578 5.83333 36.6667 9.70938 36.6667 14.4907C36.6667 15.2098 36.5747 15.9369 36.4042 16.6667" stroke="var(--stroke-0, #F1762A)" stroke-width="2.5" stroke-linecap="round" stroke-linejoin="round"/>
<path id="Vector_2" d="M23.3333 28.3333C23.3333 28.3333 25 28.3333 26.6667 31.6667C26.6667 31.6667 31.9608 23.3333 36.6667 21.6667" stroke="var(--stroke-0, #F1762A)" stroke-width="2.5" stroke-linecap="round" stroke-linejoin="round"/>
</g>
</svg>
