<svg preserveAspectRatio="none" width="100%" height="100%" overflow="visible" style="display: block;" viewBox="0 0 30 30" fill="none" xmlns="http://www.w3.org/2000/svg">
<g id="settings-05">
<path id="Vector" d="M3.125 15C3.125 9.40207 3.125 6.60311 4.86405 4.86405C6.60311 3.125 9.40207 3.125 15 3.125C20.5979 3.125 23.3969 3.125 25.136 4.86405C26.875 6.60311 26.875 9.40207 26.875 15C26.875 20.5979 26.875 23.3969 25.136 25.136C23.3969 26.875 20.5979 26.875 15 26.875C9.40207 26.875 6.60311 26.875 4.86405 25.136C3.125 23.3969 3.125 20.5979 3.125 15Z" stroke="var(--stroke-0, #2F6BED)" stroke-width="1.875" stroke-linejoin="round"/>
<path id="Vector_2" d="M10.625 12.5C9.58946 12.5 8.75 11.6605 8.75 10.625C8.75 9.58946 9.58946 8.75 10.625 8.75C11.6605 8.75 12.5 9.58946 12.5 10.625C12.5 11.6605 11.6605 12.5 10.625 12.5Z" stroke="var(--stroke-0, #2F6BED)" stroke-width="1.875"/>
<path id="Vector_3" d="M19.375 21.25C20.4105 21.25 21.25 20.4105 21.25 19.375C21.25 18.3395 20.4105 17.5 19.375 17.5C18.3395 17.5 17.5 18.3395 17.5 19.375C17.5 20.4105 18.3395 21.25 19.375 21.25Z" stroke="var(--stroke-0, #2F6BED)" stroke-width="1.875"/>
<path id="Vector_4" d="M12.5 10.625H21.25" stroke="var(--stroke-0, #2F6BED)" stroke-width="1.875" stroke-linecap="round"/>
<path id="Vector_5" d="M17.5 19.375H8.75" stroke="var(--stroke-0, #2F6BED)" stroke-width="1.875" stroke-linecap="round"/>
</g>
</svg>
