<svg preserveAspectRatio="none" width="100%" height="100%" overflow="visible" style="display: block;" viewBox="0 0 16 16" fill="none" xmlns="http://www.w3.org/2000/svg">
<g id="bitcoin-key">
<path id="Vector" d="M5.66634 1.33333C3.82539 1.33333 2.33301 2.82571 2.33301 4.66666C2.33301 5.90047 3.00334 6.97773 3.99967 7.55406V11.8954C3.99967 12.4404 3.99967 12.7129 4.10117 12.9579C4.20266 13.203 4.39535 13.3957 4.78072 13.7811L5.66634 14.6667L7.07181 13.2612C7.13661 13.1964 7.16907 13.1639 7.19594 13.1288C7.26654 13.0365 7.31181 12.9273 7.32714 12.812C7.33301 12.7681 7.33301 12.7223 7.33301 12.6306C7.33301 12.5564 7.33301 12.5193 7.32907 12.4833C7.31874 12.3887 7.28834 12.2975 7.23987 12.2157C7.22141 12.1845 7.19914 12.1549 7.15467 12.0955L6.33301 11L6.79967 10.3778C7.06401 10.0253 7.19614 9.84913 7.26461 9.64386C7.33301 9.43859 7.33301 9.21833 7.33301 8.77779V7.55406C8.32934 6.97773 8.99967 5.90047 8.99967 4.66666C8.99967 2.82571 7.50727 1.33333 5.66634 1.33333Z" stroke="var(--stroke-0, white)" stroke-linejoin="round"/>
<path id="Vector_2" d="M5.66699 4.66667H5.67298" stroke="var(--stroke-0, white)" stroke-width="1.33333" stroke-linecap="round" stroke-linejoin="round"/>
<path id="Vector_3" d="M10.417 13V9M11.667 9V8M11.667 14V13M10.417 11H12.917M12.917 11C13.3312 11 13.667 11.3358 13.667 11.75V12.25C13.667 12.6642 13.3312 13 12.917 13H9.66699M12.917 11C13.3312 11 13.667 10.6642 13.667 10.25V9.75C13.667 9.3358 13.3312 9 12.917 9H9.66699" stroke="var(--stroke-0, white)" stroke-linecap="round" stroke-linejoin="round"/>
</g>
</svg>
