<svg width="26" height="26" viewBox="0 0 26 26" fill="none" xmlns="http://www.w3.org/2000/svg">
<path d="M12.8086 0C5.73455 0 0 5.73455 0 12.8086C0 19.8826 5.73455 25.6172 12.8086 25.6172C19.8826 25.6172 25.6172 19.8826 25.6172 12.8086C25.6172 5.73455 19.8825 0 12.8086 0ZM9.39123 19.001H6.57898V9.91536H9.39123V19.001ZM7.9717 8.72553C7.05325 8.72553 6.30868 7.97489 6.30868 7.04908C6.30868 6.12317 7.05335 5.37258 7.9717 5.37258C8.89005 5.37258 9.63462 6.12317 9.63462 7.04908C9.63467 7.97494 8.8901 8.72553 7.9717 8.72553ZM19.9302 19.001H17.1315V14.2318C17.1315 12.9237 16.6347 12.1936 15.6004 12.1936C14.4747 12.1936 13.8866 12.954 13.8866 14.2318V19.001H11.1893V9.91536H13.8866V11.139C13.8866 11.139 14.698 9.63822 16.6245 9.63822C18.5511 9.63822 19.9302 10.8146 19.9302 13.2481L19.9302 19.001Z" fill="url(#paint0_linear_18_4168)"/>
<defs>
<linearGradient id="paint0_linear_18_4168" x1="3.75154" y1="3.75154" x2="21.8656" y2="21.8656" gradientUnits="userSpaceOnUse">
<stop stop-color="#2489BE"/>
<stop offset="1" stop-color="#0575B3"/>
</linearGradient>
</defs>
</svg>
