<svg preserveAspectRatio="none" width="100%" height="100%" overflow="visible" style="display: block;" viewBox="0 0 40 40" fill="none" xmlns="http://www.w3.org/2000/svg">
<g id="security">
<path id="Vector" d="M31.1813 5.82557C28.0275 4.25637 24.1682 3.33333 20 3.33333C15.8318 3.33333 11.9725 4.25637 8.8186 5.82558C7.27197 6.5951 6.49865 6.97987 5.74933 8.18965C5 9.39943 5 10.5708 5 12.9136V18.7285C5 28.2008 12.5706 33.4673 16.955 35.723C18.1778 36.3521 18.7892 36.6666 20 36.6666C21.2108 36.6666 21.8222 36.3521 23.0448 35.723C27.4293 33.4673 35 28.2008 35 18.7285V12.9136C35 10.5708 35 9.39943 34.2507 8.18965C33.5013 6.97987 32.728 6.5951 31.1813 5.82557Z" stroke="var(--stroke-0, #477BFF)" stroke-width="2.5" stroke-linecap="round" stroke-linejoin="round"/>
<path id="Vector_2" d="M20 15V16.6666M18.3333 15.8333C18.3333 16.2754 18.509 16.6993 18.8215 17.0118C19.134 17.3245 19.558 17.5 20 17.5C20.442 17.5 20.866 17.3245 21.1785 17.0118C21.491 16.6993 21.6667 16.2754 21.6667 15.8333C21.6667 15.3913 21.491 14.9674 21.1785 14.6548C20.866 14.3423 20.442 14.1667 20 14.1667C19.558 14.1667 19.134 14.3423 18.8215 14.6548C18.509 14.9674 18.3333 15.3913 18.3333 15.8333Z" stroke="var(--stroke-0, #477BFF)" stroke-width="2.5" stroke-linecap="round" stroke-linejoin="round"/>
<path id="Vector_3" d="M21.25 23.3333H18.75L20 17.5L21.25 23.3333Z" stroke="var(--stroke-0, #477BFF)" stroke-width="2.5" stroke-linecap="round" stroke-linejoin="round"/>
</g>
</svg>
