<svg preserveAspectRatio="none" width="100%" height="100%" overflow="visible" style="display: block;" viewBox="0 0 30 30" fill="none" xmlns="http://www.w3.org/2000/svg">
<g id="workflow-square-01">
<path id="Vector" d="M7.5 6.875C7.5 5.70672 7.5 5.1226 7.7512 4.6875C7.91576 4.40246 8.15246 4.16576 8.4375 4.0012C8.8726 3.75 9.45672 3.75 10.625 3.75H14.375C15.5432 3.75 16.1274 3.75 16.5625 4.0012C16.8475 4.16576 17.0842 4.40246 17.2487 4.6875C17.5 5.1226 17.5 5.70672 17.5 6.875C17.5 8.04328 17.5 8.6274 17.2487 9.0625C17.0842 9.34754 16.8475 9.58424 16.5625 9.7488C16.1274 10 15.5432 10 14.375 10H10.625C9.45672 10 8.8726 10 8.4375 9.7488C8.15246 9.58424 7.91576 9.34754 7.7512 9.0625C7.5 8.6274 7.5 8.04328 7.5 6.875Z" stroke="var(--stroke-0, #FF0000)" stroke-width="1.875"/>
<path id="Vector_2" d="M7.5 19.375C7.5 18.2068 7.5 17.6226 7.7512 17.1875C7.91576 16.9025 8.15246 16.6658 8.4375 16.5013C8.8726 16.25 9.45672 16.25 10.625 16.25H14.375C15.5432 16.25 16.1274 16.25 16.5625 16.5013C16.8475 16.6658 17.0842 16.9025 17.2487 17.1875C17.5 17.6226 17.5 18.2068 17.5 19.375C17.5 20.5432 17.5 21.1274 17.2487 21.5625C17.0842 21.8475 16.8475 22.0842 16.5625 22.2487C16.1274 22.5 15.5432 22.5 14.375 22.5H10.625C9.45672 22.5 8.8726 22.5 8.4375 22.2487C8.15246 22.0842 7.91576 21.8475 7.7512 21.5625C7.5 21.1274 7.5 20.5432 7.5 19.375Z" stroke="var(--stroke-0, #FF0000)" stroke-width="1.875"/>
<path id="Vector_3" d="M26.0497 21.426C27.0166 20.4591 27.5 19.9757 27.5 19.375C27.5 18.7743 27.0166 18.2909 26.0497 17.324L25.801 17.0753C24.8341 16.1084 24.3507 15.625 23.75 15.625C23.1493 15.625 22.6659 16.1084 21.699 17.0753L21.4503 17.324C20.4834 18.2909 20 18.7743 20 19.375C20 19.9757 20.4834 20.4591 21.4503 21.426L21.699 21.6747C22.6659 22.6416 23.1493 23.125 23.75 23.125C24.3507 23.125 24.8341 22.6416 25.801 21.6747L26.0497 21.426Z" stroke="var(--stroke-0, #FF0000)" stroke-width="1.875"/>
<path id="Vector_4" d="M7.50735 6.875H2.50961M2.50961 6.875V2.5M2.50961 6.875V15C2.50961 16.3796 2.32049 18.0849 3.62019 18.9536C4.25046 19.375 5.12785 19.375 6.88264 19.375M17.5028 19.375H20.0017M23.75 15.625V11.875C23.75 9.51798 23.75 8.33946 23.0181 7.60724C22.2862 6.875 21.1082 6.875 18.7522 6.875H17.5028" stroke="var(--stroke-0, #FF0000)" stroke-width="1.875" stroke-linecap="round" stroke-linejoin="round"/>
<path id="Vector_5" d="M27.5 27.5C26.3351 27.5 25.7528 27.5 25.2934 27.3369C24.6808 27.1194 24.1941 26.7022 23.9404 26.1771C23.75 25.7834 23.75 25.2841 23.75 24.2858V23.75" stroke="var(--stroke-0, #FF0000)" stroke-width="1.875" stroke-linecap="round" stroke-linejoin="round"/>
</g>
</svg>
