<svg preserveAspectRatio="none" width="100%" height="100%" overflow="visible" style="display: block;" viewBox="0 0 16 16" fill="none" xmlns="http://www.w3.org/2000/svg">
<g id="link-06">
<path id="Vector" d="M9.00065 8.66634V7.66634C9.00065 6.73001 9.00065 6.26188 8.77592 5.92558C8.67865 5.77999 8.55365 5.65499 8.40805 5.55771C8.11432 5.36141 7.71992 5.3366 7.00065 5.33346C6.89658 5.33301 6.78565 5.33301 6.66732 5.33301C5.73101 5.33301 5.26286 5.33301 4.92656 5.55771C4.78097 5.65499 4.65597 5.77999 4.55869 5.92558C4.33398 6.26188 4.33398 6.73001 4.33398 7.66634V11.6663C4.33398 12.6027 4.33398 13.0708 4.55869 13.4071C4.65597 13.5527 4.78097 13.6777 4.92656 13.7749C5.26286 13.9997 5.73101 13.9997 6.66732 13.9997C7.60365 13.9997 8.07178 13.9997 8.40805 13.7749C8.55365 13.6777 8.67865 13.5527 8.77592 13.4071C8.90085 13.2201 8.95632 12.9925 8.98098 12.6663" stroke="var(--stroke-0, #F15C2A)" stroke-linecap="round"/>
<path id="Vector_2" d="M7 7.33333V8.33333C7 9.26967 7 9.7378 7.22473 10.0741C7.322 10.2197 7.447 10.3447 7.5926 10.4419C7.88633 10.6383 8.28073 10.6631 9 10.6662C9.10407 10.6667 9.215 10.6667 9.33333 10.6667C10.2697 10.6667 10.7378 10.6667 11.0741 10.4419C11.2197 10.3447 11.3447 10.2197 11.4419 10.0741C11.6667 9.7378 11.6667 9.26967 11.6667 8.33333V4.33333C11.6667 3.39703 11.6667 2.92887 11.4419 2.59257C11.3447 2.44699 11.2197 2.32199 11.0741 2.22471C10.7378 2 10.2697 2 9.33333 2C8.397 2 7.92887 2 7.5926 2.22471C7.447 2.32199 7.322 2.44699 7.22473 2.59257C7.0998 2.7795 7.04433 3.00717 7.01967 3.33333" stroke="var(--stroke-0, #F15C2A)" stroke-linecap="round"/>
</g>
</svg>
