<svg preserveAspectRatio="none" width="100%" height="100%" overflow="visible" style="display: block;" viewBox="0 0 48 48" fill="none" xmlns="http://www.w3.org/2000/svg">
<g id="magic-wand-03">
<path id="Vector" d="M30 30L33 33" stroke="var(--stroke-0, white)" stroke-width="3" stroke-linecap="round" stroke-linejoin="round"/>
<path id="Vector_2" d="M33.8783 38.1186C32.7072 36.9478 32.7072 35.0493 33.8783 33.8783C35.0493 32.7072 36.9478 32.7072 38.1186 33.8783L42.1218 37.8815C43.2928 39.0523 43.2928 40.9508 42.1218 42.1218C40.9508 43.2928 39.0523 43.2928 37.8815 42.1218L33.8783 38.1186Z" stroke="var(--stroke-0, white)" stroke-width="3" stroke-linecap="round"/>
<path id="Vector_3" d="M10.7864 7.1547L16.3631 9.03432C17.1341 9.30122 18.3042 9.1267 18.9667 8.65472L22.8788 5.86472C25.3818 4.08166 27.4534 5.1451 27.4556 8.23604L27.477 13.4685C27.4806 14.3547 28.097 15.4543 28.8478 15.9321L32.845 18.4382C36.0068 20.424 35.6472 22.775 32.0438 23.6884L27.0286 24.9548C26.1224 25.1832 25.1876 26.1182 24.9488 27.035L23.6826 32.0512C22.7798 35.6448 20.4082 36.0042 18.4334 32.8524L15.9278 28.8544C15.4501 28.1036 14.3507 27.4872 13.4647 27.4836L8.23316 27.462C5.1533 27.4492 4.07954 25.3878 5.86228 22.8844L8.65176 18.9716C9.11314 18.3194 9.28764 17.1492 9.02078 16.378L7.14152 10.8003C6.12706 7.76848 7.76568 6.12954 10.7864 7.1547Z" stroke="var(--stroke-0, white)" stroke-width="3" stroke-linecap="round" stroke-linejoin="round"/>
</g>
</svg>
