<svg width="36" height="36" viewBox="0 0 36 36" fill="none" xmlns="http://www.w3.org/2000/svg">
<path d="M30.7499 15.75V15C30.7499 9.34314 30.7498 6.51473 28.9926 4.75736C27.2352 3 24.4068 3 18.7498 3H17.25C11.5932 3 8.76485 3 7.00749 4.75734C5.25014 6.51468 5.25011 9.34308 5.25006 14.9999L5.25 21.75C5.24996 26.6811 5.24994 29.1468 6.61182 30.8063C6.86118 31.1102 7.13979 31.3887 7.44363 31.6382C9.10316 33 11.5687 33 16.4999 33" stroke="url(#paint0_radial_315_771)" stroke-width="2.25" stroke-linecap="round" stroke-linejoin="round"/>
<path d="M11.25 10.5H24.75" stroke="url(#paint1_radial_315_771)" stroke-width="2.25" stroke-linecap="round" stroke-linejoin="round"/>
<path d="M11.25 18H20.25" stroke="url(#paint2_radial_315_771)" stroke-width="2.25" stroke-linecap="round" stroke-linejoin="round"/>
<path d="M30.75 30V25.5C30.75 23.3559 28.7354 21 26.25 21C23.7646 21 21.75 23.3559 21.75 25.5V30.75C21.75 31.9926 22.7574 33 24 33C25.2426 33 26.25 31.9926 26.25 30.75V25.5" stroke="url(#paint3_radial_315_771)" stroke-width="2.25" stroke-linecap="round" stroke-linejoin="round"/>
<defs>
<radialGradient id="paint0_radial_315_771" cx="0" cy="0" r="1" gradientTransform="matrix(26.0542 21.9643 -1.72931 30.6522 17.9999 18)" gradientUnits="userSpaceOnUse">
<stop stop-color="#007BFF"/>
<stop offset="1" stop-color="#0056B3"/>
</radialGradient>
<radialGradient id="paint1_radial_315_771" cx="0" cy="0" r="1" gradientTransform="matrix(13.7935 0.732143 -0.915525 1.02174 18 11)" gradientUnits="userSpaceOnUse">
<stop stop-color="#007BFF"/>
<stop offset="1" stop-color="#0056B3"/>
</radialGradient>
<radialGradient id="paint2_radial_315_771" cx="0" cy="0" r="1" gradientTransform="matrix(9.19565 0.732143 -0.61035 1.02174 15.75 18.5)" gradientUnits="userSpaceOnUse">
<stop stop-color="#007BFF"/>
<stop offset="1" stop-color="#0056B3"/>
</radialGradient>
<radialGradient id="paint3_radial_315_771" cx="0" cy="0" r="1" gradientTransform="matrix(9.19565 8.78571 -0.61035 12.2609 26.25 27)" gradientUnits="userSpaceOnUse">
<stop stop-color="#007BFF"/>
<stop offset="1" stop-color="#0056B3"/>
</radialGradient>
</defs>
</svg>
