 <svg width="40" height="40" viewBox="0 0 40 40" fill="none" xmlns="http://www.w3.org/2000/svg">
              <path d="M20.0068 20H20.0218M26.666 20H26.681M13.3477 20H13.3626" stroke="#0ED70E" stroke-width="3.33333"
                stroke-linecap="round" stroke-linejoin="round" />
              <path
                d="M35.8346 20.0001C35.8346 28.7446 28.7458 35.8334 20.0013 35.8334C17.2878 35.8334 14.7336 35.1507 12.5013 33.9479C9.38759 32.2701 7.29234 33.8299 5.4445 34.1097C5.1642 34.1522 4.88504 34.0504 4.68459 33.8501C4.38032 33.5457 4.3224 33.0752 4.49047 32.6791C5.21572 30.9697 5.88164 27.7304 4.97365 25.0001C4.45097 23.4284 4.16797 21.7472 4.16797 20.0001C4.16797 11.2556 11.2568 4.16675 20.0013 4.16675C28.7458 4.16675 35.8346 11.2556 35.8346 20.0001Z"
                stroke="#0ED70E" stroke-width="2.5" stroke-linecap="round" stroke-linejoin="round" />
            </svg>  