<svg width="27" height="27" viewBox="0 0 27 27" fill="none" xmlns="http://www.w3.org/2000/svg">
<path d="M20.2888 14.3984L19.2408 10.8399C18.7882 9.30296 18.5618 8.53448 17.9429 8.13044C17.324 7.72641 16.505 7.81249 14.867 7.98465L10.4649 8.44733C8.82689 8.61949 8.00788 8.70557 7.48649 9.22945C6.96509 9.75334 6.90349 10.5521 6.78025 12.1496L6.49498 15.8481C6.23919 19.1639 6.1113 20.8219 7.14382 21.7935C8.17632 22.765 9.87632 22.5863 13.2763 22.229L14.9823 22.0496C18.3824 21.6923 20.0824 21.5136 20.8903 20.3487C21.6983 19.1836 21.2284 17.5885 20.2888 14.3984Z" stroke="url(#paint0_radial_315_1350)" stroke-width="1.5" stroke-linecap="round"/>
<path d="M12.1224 17.9931L11.5649 12.6889M13.1188 12.5256L12.9795 11.1996M13.8157 19.1557L13.6763 17.8298M11.8436 15.341L14.9515 15.0143M14.9515 15.0143C15.4665 14.9602 15.9307 15.3616 15.9884 15.9109L16.0581 16.5739C16.1158 17.1232 15.7452 17.6123 15.2303 17.6664L11.19 18.0911M14.9515 15.0143C15.4665 14.9602 15.8371 14.4711 15.7794 13.9218L15.7097 13.2588C15.6519 12.7095 15.1877 12.3081 14.6728 12.3622L10.6325 12.7869" stroke="url(#paint1_radial_315_1350)" stroke-width="1.5" stroke-linecap="round" stroke-linejoin="round"/>
<path d="M22.0349 11.2534C22.1826 11.1583 22.3077 11.0449 22.415 10.9072C22.934 10.2413 22.8317 9.26811 22.6271 7.32167C22.4226 5.37523 22.3203 4.40201 21.6741 3.85856C21.028 3.31512 20.0904 3.41366 18.2151 3.61076L6.28082 4.86511C4.40553 5.06221 3.46789 5.16076 2.94887 5.82667C2.42984 6.49258 2.53213 7.4658 2.73671 9.41224C2.94129 11.3587 3.04358 12.3319 3.68971 12.8753C3.82328 12.9877 3.96929 13.0726 4.13348 13.1349" stroke="url(#paint2_radial_315_1350)" stroke-width="1.5" stroke-linecap="round"/>
<defs>
<radialGradient id="paint0_radial_315_1350" cx="0" cy="0" r="1" gradientTransform="matrix(16.3135 8.59184 0.483536 14.3323 13.3976 15.1776)" gradientUnits="userSpaceOnUse">
<stop stop-color="#007BFF"/>
<stop offset="1" stop-color="#0056B3"/>
</radialGradient>
<radialGradient id="paint1_radial_315_1350" cx="0" cy="0" r="1" gradientTransform="matrix(5.69295 5.29105 0.517181 8.16458 13.3976 15.1777)" gradientUnits="userSpaceOnUse">
<stop stop-color="#007BFF"/>
<stop offset="1" stop-color="#0056B3"/>
</radialGradient>
<radialGradient id="paint2_radial_315_1350" cx="0" cy="0" r="1" gradientTransform="matrix(20.9351 3.68904 -0.494496 8.27091 12.6661 8.21602)" gradientUnits="userSpaceOnUse">
<stop stop-color="#007BFF"/>
<stop offset="1" stop-color="#0056B3"/>
</radialGradient>
</defs>
</svg>
