<svg width="36" height="36" viewBox="0 0 36 36" fill="none" xmlns="http://www.w3.org/2000/svg">
<path d="M5.15901 12.841C5.81802 13.5 6.87869 13.5 9 13.5C11.1213 13.5 12.182 13.5 12.841 12.841C13.5 12.182 13.5 11.1213 13.5 9C13.5 6.87869 13.5 5.81802 12.841 5.15901C12.182 4.5 11.1213 4.5 9 4.5C6.87869 4.5 5.81802 4.5 5.15901 5.15901C4.5 5.81802 4.5 6.87869 4.5 9C4.5 11.1213 4.5 12.182 5.15901 12.841Z" stroke="url(#paint0_radial_315_735)" stroke-width="2.25" stroke-linecap="round" stroke-linejoin="round"/>
<path d="M23.1589 12.841C23.818 13.5 24.8787 13.5 27 13.5C29.1213 13.5 30.1819 13.5 30.841 12.841C31.5 12.182 31.5 11.1213 31.5 9C31.5 6.87869 31.5 5.81802 30.841 5.15901C30.1819 4.5 29.1213 4.5 27 4.5C24.8787 4.5 23.818 4.5 23.1589 5.15901C22.5 5.81802 22.5 6.87869 22.5 9C22.5 11.1213 22.5 12.182 23.1589 12.841Z" stroke="url(#paint1_radial_315_735)" stroke-width="2.25" stroke-linecap="round" stroke-linejoin="round"/>
<path d="M23.1589 30.841C23.818 31.5 24.8787 31.5 27 31.5C29.1213 31.5 30.1819 31.5 30.841 30.841C31.5 30.1819 31.5 29.1213 31.5 27C31.5 24.8787 31.5 23.818 30.841 23.1589C30.1819 22.5 29.1213 22.5 27 22.5C24.8787 22.5 23.818 22.5 23.1589 23.1589C22.5 23.818 22.5 24.8787 22.5 27C22.5 29.1213 22.5 30.1819 23.1589 30.841Z" stroke="url(#paint2_radial_315_735)" stroke-width="2.25" stroke-linecap="round" stroke-linejoin="round"/>
<path d="M5.15901 30.841C5.81802 31.5 6.87869 31.5 9 31.5C11.1213 31.5 12.182 31.5 12.841 30.841C13.5 30.1819 13.5 29.1213 13.5 27C13.5 24.8787 13.5 23.818 12.841 23.1589C12.182 22.5 11.1213 22.5 9 22.5C6.87869 22.5 5.81802 22.5 5.15901 23.1589C4.5 23.818 4.5 24.8787 4.5 27C4.5 29.1213 4.5 30.1819 5.15901 30.841Z" stroke="url(#paint3_radial_315_735)" stroke-width="2.25" stroke-linecap="round" stroke-linejoin="round"/>
<path d="M18 9H13.5" stroke="url(#paint4_radial_315_735)" stroke-width="2.25" stroke-linecap="round" stroke-linejoin="round"/>
<path d="M22.5 27H18" stroke="url(#paint5_radial_315_735)" stroke-width="2.25" stroke-linecap="round" stroke-linejoin="round"/>
<path d="M27 18V13.5" stroke="url(#paint6_radial_315_735)" stroke-width="2.25" stroke-linecap="round" stroke-linejoin="round"/>
<path d="M9 22.5V18" stroke="url(#paint7_radial_315_735)" stroke-width="2.25" stroke-linecap="round" stroke-linejoin="round"/>
<defs>
<radialGradient id="paint0_radial_315_735" cx="0" cy="0" r="1" gradientTransform="matrix(9.19565 6.58929 -0.61035 9.19565 9 9)" gradientUnits="userSpaceOnUse">
<stop stop-color="#007BFF"/>
<stop offset="1" stop-color="#0056B3"/>
</radialGradient>
<radialGradient id="paint1_radial_315_735" cx="0" cy="0" r="1" gradientTransform="matrix(9.19565 6.58929 -0.61035 9.19565 27 9)" gradientUnits="userSpaceOnUse">
<stop stop-color="#007BFF"/>
<stop offset="1" stop-color="#0056B3"/>
</radialGradient>
<radialGradient id="paint2_radial_315_735" cx="0" cy="0" r="1" gradientTransform="matrix(9.19565 6.58929 -0.61035 9.19565 27 27)" gradientUnits="userSpaceOnUse">
<stop stop-color="#007BFF"/>
<stop offset="1" stop-color="#0056B3"/>
</radialGradient>
<radialGradient id="paint3_radial_315_735" cx="0" cy="0" r="1" gradientTransform="matrix(9.19565 6.58929 -0.61035 9.19565 9 27)" gradientUnits="userSpaceOnUse">
<stop stop-color="#007BFF"/>
<stop offset="1" stop-color="#0056B3"/>
</radialGradient>
<radialGradient id="paint4_radial_315_735" cx="0" cy="0" r="1" gradientTransform="matrix(4.59783 0.732143 -0.305175 1.02174 15.75 9.5)" gradientUnits="userSpaceOnUse">
<stop stop-color="#007BFF"/>
<stop offset="1" stop-color="#0056B3"/>
</radialGradient>
<radialGradient id="paint5_radial_315_735" cx="0" cy="0" r="1" gradientTransform="matrix(4.59783 0.732143 -0.305175 1.02174 20.25 27.5)" gradientUnits="userSpaceOnUse">
<stop stop-color="#007BFF"/>
<stop offset="1" stop-color="#0056B3"/>
</radialGradient>
<radialGradient id="paint6_radial_315_735" cx="0" cy="0" r="1" gradientTransform="matrix(1.02174 3.29464 -0.0678166 4.59783 27.5 15.75)" gradientUnits="userSpaceOnUse">
<stop stop-color="#007BFF"/>
<stop offset="1" stop-color="#0056B3"/>
</radialGradient>
<radialGradient id="paint7_radial_315_735" cx="0" cy="0" r="1" gradientTransform="matrix(1.02174 3.29464 -0.0678166 4.59783 9.5 20.25)" gradientUnits="userSpaceOnUse">
<stop stop-color="#007BFF"/>
<stop offset="1" stop-color="#0056B3"/>
</radialGradient>
</defs>
</svg>
