<svg preserveAspectRatio="none" width="100%" height="100%" overflow="visible" style="display: block;" viewBox="0 0 24.5755 23.9689" fill="none" xmlns="http://www.w3.org/2000/svg">
<g id="Group">
<path id="Vector" d="M12.2878 0C5.50232 0 0 5.50136 0 12.2878C0 17.717 3.52083 22.323 8.40319 23.9478C9.01727 24.0615 9.24278 23.6812 9.24278 23.3566C9.24278 23.0637 9.23131 22.0956 9.22611 21.0689C5.80753 21.8122 5.08619 19.6191 5.08619 19.6191C4.52723 18.1988 3.72186 17.8212 3.72186 17.8212C2.60704 17.0585 3.8059 17.0741 3.8059 17.0741C5.03983 17.1608 5.68957 18.3404 5.68957 18.3404C6.7855 20.219 8.56413 19.6758 9.26533 19.362C9.37558 18.5677 9.69408 18.0257 10.0455 17.7188C7.31622 17.408 4.44705 16.3544 4.44705 11.6461C4.44705 10.3046 4.92708 9.20837 5.71318 8.34787C5.58558 8.03833 5.16502 6.78859 5.8322 5.09602C5.8322 5.09602 6.86405 4.76575 9.21223 6.35559C10.1923 6.08324 11.2435 5.94678 12.2878 5.94216C13.3321 5.94678 14.3841 6.08324 15.3661 6.35559C17.7115 4.76575 18.7419 5.09602 18.7419 5.09602C19.4107 6.78859 18.99 8.03833 18.8624 8.34787C19.6502 9.20837 20.127 10.3045 20.127 11.6461C20.127 16.3656 17.2524 17.4048 14.5162 17.709C14.9569 18.0903 15.3496 18.8382 15.3496 19.9845C15.3496 21.6286 15.3354 22.9519 15.3354 23.3566C15.3354 23.6836 15.5565 24.0668 16.1795 23.9461C21.0592 22.3195 24.5755 17.7152 24.5755 12.2878C24.5755 5.50136 19.074 0 12.2878 0Z" fill="var(--fill-0, white)"/>
<path id="Vector_2" d="M4.60175 17.5046C4.57476 17.5656 4.47858 17.5839 4.39118 17.5421C4.30203 17.502 4.25192 17.4187 4.28083 17.3574C4.30733 17.2946 4.40351 17.2771 4.49246 17.3193C4.5818 17.3593 4.63268 17.4433 4.60175 17.5046ZM5.20619 18.0439C5.14759 18.0982 5.03301 18.073 4.95524 17.9871C4.87486 17.9015 4.85983 17.787 4.91929 17.7317C4.97971 17.6775 5.09083 17.7028 5.1714 17.7886C5.25177 17.8752 5.26738 17.9891 5.20609 18.044M5.62087 18.7339C5.54551 18.7862 5.42235 18.7372 5.34631 18.6279C5.27105 18.5187 5.27105 18.3876 5.34795 18.3351C5.42428 18.2826 5.54551 18.3298 5.62261 18.4382C5.69778 18.5494 5.69778 18.6804 5.62078 18.734M6.32207 19.5331C6.25471 19.6073 6.11131 19.5875 6.00626 19.4861C5.8989 19.387 5.86893 19.2464 5.93649 19.1721C6.00462 19.0977 6.14889 19.1186 6.25471 19.2191C6.36139 19.318 6.39387 19.4597 6.32207 19.5331ZM7.22835 19.803C7.19876 19.8991 7.06056 19.9429 6.9214 19.902C6.78244 19.8599 6.69146 19.7472 6.71951 19.6499C6.74842 19.5531 6.88719 19.5075 7.02741 19.5512C7.16619 19.5932 7.25726 19.705 7.22835 19.803ZM8.2599 19.9174C8.26337 20.0187 8.14532 20.1028 7.99922 20.1046C7.85225 20.1078 7.73343 20.0258 7.73189 19.9261C7.73189 19.8238 7.84724 19.7405 7.99411 19.7381C8.14021 19.7352 8.2599 19.8166 8.2599 19.9174ZM9.27315 19.8785C9.29069 19.9774 9.18912 20.079 9.04408 20.1059C8.90145 20.132 8.76942 20.071 8.75121 19.973C8.73347 19.8716 8.83698 19.7701 8.97932 19.7438C9.12464 19.7185 9.25465 19.778 9.27315 19.8785Z" fill="var(--fill-0, #161614)"/>
</g>
</svg>
