<svg width="36" height="36" viewBox="0 0 36 36" fill="none" xmlns="http://www.w3.org/2000/svg">
<path d="M26.2164 12.0001C26.2275 12 26.2388 12 26.25 12C29.978 12 33 15.022 33 18.75C33 21.689 31.1217 24.1893 28.5 25.1159M26.2164 12.0001C26.2386 11.753 26.25 11.5028 26.25 11.25C26.25 6.69365 22.5564 3 18 3C13.6849 3 10.1435 6.31293 9.78063 10.534M26.2164 12.0001C26.063 13.7017 25.3929 15.2544 24.3642 16.5M9.78063 10.534C5.97597 10.8961 3 14.1005 3 18C3 21.0754 4.85115 23.7186 7.5 24.876M9.78063 10.534C10.0174 10.5115 10.2573 10.5 10.5 10.5C12.1887 10.5 13.7471 11.0581 15.0007 12" stroke="url(#paint0_radial_315_691)" stroke-width="2.25" stroke-linecap="round" stroke-linejoin="round"/>
<path d="M27.375 31.875L24 28.5V25.5M27.375 30.75C26.7537 30.75 26.25 31.2537 26.25 31.875C26.25 32.4963 26.7537 33 27.375 33C27.9963 33 28.5 32.4963 28.5 31.875C28.5 31.2537 27.9963 30.75 27.375 30.75Z" stroke="url(#paint1_radial_315_691)" stroke-width="2.25" stroke-linecap="round" stroke-linejoin="round"/>
<path d="M8.625 31.875L12 28.5V25.5M8.625 30.75C9.24631 30.75 9.75 31.2537 9.75 31.875C9.75 32.4963 9.24631 33 8.625 33C8.00369 33 7.5 32.4963 7.5 31.875C7.5 31.2537 8.00369 30.75 8.625 30.75Z" stroke="url(#paint2_radial_315_691)" stroke-width="2.25" stroke-linecap="round" stroke-linejoin="round"/>
<path d="M18 31.875V25.5M18 30.75C17.3787 30.75 16.875 31.2537 16.875 31.875C16.875 32.4963 17.3787 33 18 33C18.6213 33 19.125 32.4963 19.125 31.875C19.125 31.2537 18.6213 30.75 18 30.75Z" stroke="url(#paint3_radial_315_691)" stroke-width="2.25" stroke-linecap="round" stroke-linejoin="round"/>
<defs>
<radialGradient id="paint0_radial_315_691" cx="0" cy="0" r="1" gradientTransform="matrix(30.6522 16.192 -2.0345 22.5966 18 14.0579)" gradientUnits="userSpaceOnUse">
<stop stop-color="#007BFF"/>
<stop offset="1" stop-color="#0056B3"/>
</radialGradient>
<radialGradient id="paint1_radial_315_691" cx="0" cy="0" r="1" gradientTransform="matrix(4.59783 5.49107 -0.305175 7.66304 26.25 29.25)" gradientUnits="userSpaceOnUse">
<stop stop-color="#007BFF"/>
<stop offset="1" stop-color="#0056B3"/>
</radialGradient>
<radialGradient id="paint2_radial_315_691" cx="0" cy="0" r="1" gradientTransform="matrix(4.59783 5.49107 -0.305175 7.66304 9.75 29.25)" gradientUnits="userSpaceOnUse">
<stop stop-color="#007BFF"/>
<stop offset="1" stop-color="#0056B3"/>
</radialGradient>
<radialGradient id="paint3_radial_315_691" cx="0" cy="0" r="1" gradientTransform="matrix(2.29891 5.49107 -0.152587 7.66304 18 29.25)" gradientUnits="userSpaceOnUse">
<stop stop-color="#007BFF"/>
<stop offset="1" stop-color="#0056B3"/>
</radialGradient>
</defs>
</svg>
