<svg width="36" height="36" viewBox="0 0 36 36" fill="none" xmlns="http://www.w3.org/2000/svg">
<path d="M20.247 3H12.7471C11.5044 3 10.4971 4.00736 10.4971 5.25C10.4971 6.49264 11.5044 7.5 12.7471 7.5H20.247C21.4897 7.5 22.497 6.49264 22.497 5.25C22.497 4.00736 21.4897 3 20.247 3Z" stroke="#7B19D8" stroke-width="2.25" stroke-linecap="round" stroke-linejoin="round"/>
<path d="M10.4971 22.5H15.6399M10.4971 16.5H22.497" stroke="#7B19D8" stroke-width="2.25" stroke-linecap="round" stroke-linejoin="round"/>
<path d="M28.4971 20.25V14.2239C28.4971 9.98136 28.4971 7.86006 27.1791 6.54206C26.2171 5.58011 24.8272 5.32022 22.4971 5.25M17.997 32.9993H13.4971C9.25444 32.9993 7.13311 32.9993 5.81511 31.6812C4.49709 30.3632 4.49707 28.2419 4.49707 23.9993L4.49709 14.224C4.49707 9.98137 4.49707 7.86006 5.81509 6.54204C6.77703 5.58011 8.16684 5.32022 10.4969 5.25" stroke="#7B19D8" stroke-width="2.25" stroke-linecap="round" stroke-linejoin="round"/>
<path d="M20.9971 30C20.9971 30 22.4971 30 23.9971 33C23.9971 33 27.2618 25.5 31.4971 24" stroke="#7B19D8" stroke-width="2.25" stroke-linecap="round" stroke-linejoin="round"/>
</svg>
