<svg width="36" height="36" viewBox="0 0 36 36" fill="none" xmlns="http://www.w3.org/2000/svg">
<path d="M18 33C19.6569 33 21 31.6569 21 30C21 28.3431 19.6569 27 18 27C16.3431 27 15 28.3431 15 30C15 31.6569 16.3431 33 18 33Z" stroke="url(#paint0_radial_315_755)" stroke-width="2.25" stroke-linecap="round" stroke-linejoin="round"/>
<path d="M18 3C13.4436 3 9.75 6.69365 9.75 11.25C9.75 15.0264 12.2872 18.21 15.75 19.1895L18 22.5L20.25 19.1895C23.7128 18.21 26.25 15.0264 26.25 11.25C26.25 6.69365 22.5564 3 18 3Z" stroke="url(#paint1_radial_315_755)" stroke-width="2.25" stroke-linecap="round" stroke-linejoin="round"/>
<path d="M18 7.5V11.25L20.25 12.75" stroke="url(#paint2_radial_315_755)" stroke-width="2.25" stroke-linecap="round" stroke-linejoin="round"/>
<path d="M21 30H31.5M15 30H4.5" stroke="url(#paint3_radial_315_755)" stroke-width="2.25" stroke-linecap="round" stroke-linejoin="round"/>
<defs>
<radialGradient id="paint0_radial_315_755" cx="0" cy="0" r="1" gradientTransform="matrix(6.13043 4.39286 -0.4069 6.13043 18 30)" gradientUnits="userSpaceOnUse">
<stop stop-color="#007BFF"/>
<stop offset="1" stop-color="#0056B3"/>
</radialGradient>
<radialGradient id="paint1_radial_315_755" cx="0" cy="0" r="1" gradientTransform="matrix(16.8587 14.2768 -1.11897 19.9239 18 12.75)" gradientUnits="userSpaceOnUse">
<stop stop-color="#007BFF"/>
<stop offset="1" stop-color="#0056B3"/>
</radialGradient>
<radialGradient id="paint2_radial_315_755" cx="0" cy="0" r="1" gradientTransform="matrix(2.29891 3.84375 -0.152587 5.36413 19.125 10.125)" gradientUnits="userSpaceOnUse">
<stop stop-color="#007BFF"/>
<stop offset="1" stop-color="#0056B3"/>
</radialGradient>
<radialGradient id="paint3_radial_315_755" cx="0" cy="0" r="1" gradientTransform="matrix(27.587 0.732143 -1.83105 1.02174 18 30.5)" gradientUnits="userSpaceOnUse">
<stop stop-color="#007BFF"/>
<stop offset="1" stop-color="#0056B3"/>
</radialGradient>
</defs>
</svg>
