<svg width="20" height="20" viewBox="0 0 20 20" fill="none" xmlns="http://www.w3.org/2000/svg">
<path d="M15.8255 15.8332H15.8334H15.8255ZM15.8255 15.8332C15.3066 16.3478 14.3662 16.2196 13.7067 16.2196C12.8972 16.2196 12.5073 16.3779 11.9296 16.9557C11.4377 17.4477 10.7782 18.3332 10.0001 18.3332C9.222 18.3332 8.5625 17.4477 8.07056 16.9557C7.49282 16.3779 7.10299 16.2196 6.29346 16.2196C5.63398 16.2196 4.69356 16.3478 4.17466 15.8332C3.65159 15.3145 3.78031 14.3702 3.78031 13.7064C3.78031 12.8677 3.59688 12.482 2.99956 11.8847C2.11103 10.9962 1.66676 10.5518 1.66675 9.99984C1.66676 9.44775 2.11101 9.0035 2.99954 8.11498C3.53275 7.58177 3.78031 7.0534 3.78031 6.29322C3.78031 5.63371 3.65216 4.69329 4.16675 4.17437C4.68544 3.65132 5.62975 3.78005 6.29348 3.78005C7.05364 3.78005 7.58201 3.5325 8.11521 2.99931C9.00375 2.11077 9.448 1.6665 10.0001 1.6665C10.5522 1.6665 10.9964 2.11077 11.8849 2.99931C12.418 3.5324 12.9463 3.78005 13.7067 3.78005C14.3662 3.78005 15.3067 3.6519 15.8256 4.1665C16.3486 4.6852 16.2198 5.6295 16.2198 6.29322C16.2198 7.13199 16.4033 7.51765 17.0006 8.11498C17.8892 9.0035 18.3334 9.44775 18.3334 9.99984C18.3334 10.5518 17.8892 10.9962 17.0006 11.8847C16.4032 12.482 16.2198 12.8677 16.2198 13.7064C16.2198 14.3702 16.3486 15.3145 15.8255 15.8332Z" fill="white"/>
<path d="M15.8255 15.8332H15.8334M15.8255 15.8332C15.3066 16.3478 14.3662 16.2196 13.7067 16.2196C12.8972 16.2196 12.5073 16.3779 11.9296 16.9557C11.4377 17.4477 10.7782 18.3332 10.0001 18.3332C9.222 18.3332 8.5625 17.4477 8.07056 16.9557C7.49281 16.3779 7.10299 16.2196 6.29346 16.2196C5.63398 16.2196 4.69356 16.3478 4.17466 15.8332C3.65159 15.3145 3.78031 14.3702 3.78031 13.7064C3.78031 12.8677 3.59688 12.482 2.99956 11.8847C2.11103 10.9962 1.66676 10.5518 1.66675 9.99984C1.66676 9.44775 2.11101 9.0035 2.99954 8.11498C3.53275 7.58177 3.78031 7.0534 3.78031 6.29322C3.78031 5.63371 3.65216 4.69329 4.16675 4.17437C4.68544 3.65132 5.62975 3.78005 6.29348 3.78005C7.05364 3.78005 7.58201 3.5325 8.11521 2.99931C9.00375 2.11077 9.448 1.6665 10.0001 1.6665C10.5522 1.6665 10.9964 2.11077 11.8849 2.99931C12.418 3.5324 12.9463 3.78005 13.7067 3.78005C14.3662 3.78005 15.3067 3.6519 15.8256 4.1665C16.3486 4.6852 16.2198 5.6295 16.2198 6.29322C16.2198 7.13199 16.4033 7.51765 17.0006 8.11498C17.8892 9.0035 18.3334 9.44775 18.3334 9.99984C18.3334 10.5518 17.8892 10.9962 17.0006 11.8847C16.4032 12.482 16.2198 12.8677 16.2198 13.7064C16.2198 14.3702 16.3486 15.3145 15.8255 15.8332Z" stroke="url(#paint0_radial_396_2980)" stroke-width="1.25"/>
<path d="M7.5 10.7439L9 12.0832L12.5 7.9165" stroke="url(#paint1_radial_396_2980)" stroke-width="1.25" stroke-linecap="round" stroke-linejoin="round"/>
<defs>
<radialGradient id="paint0_radial_396_2980" cx="0" cy="0" r="1" gradientTransform="matrix(17.029 12.2024 -1.13028 17.029 10.0001 9.99984)" gradientUnits="userSpaceOnUse">
<stop stop-color="#007BFF"/>
<stop offset="1" stop-color="#0056B3"/>
</radialGradient>
<radialGradient id="paint1_radial_396_2980" cx="0" cy="0" r="1" gradientTransform="matrix(5.1087 3.0506 -0.339083 4.25725 10 9.99984)" gradientUnits="userSpaceOnUse">
<stop stop-color="#007BFF"/>
<stop offset="1" stop-color="#0056B3"/>
</radialGradient>
</defs>
</svg>
