 <svg width="40" height="40" viewBox="0 0 40 40" fill="none" xmlns="http://www.w3.org/2000/svg">
              <path
                d="M26.668 16.6667L30.2503 17.7414C32.539 18.4281 33.6833 18.7714 34.3423 19.6571C35.0013 20.5427 35.0013 21.7376 35.0013 24.1269V36.6667"
                stroke="#7B19D8" stroke-width="2.5" stroke-linejoin="round" />
              <path d="M13.332 15H18.332M13.332 21.6667H18.332" stroke="#7B19D8" stroke-width="2.5"
                stroke-linecap="round" stroke-linejoin="round" />
              <path
                d="M20.0013 36.6666V31.6666C20.0013 30.0953 20.0013 29.3096 19.5131 28.8214C19.025 28.3333 18.2393 28.3333 16.668 28.3333H15.0013C13.43 28.3333 12.6443 28.3333 12.1561 28.8214C11.668 29.3096 11.668 30.0953 11.668 31.6666V36.6666"
                stroke="#7B19D8" stroke-width="2.5" stroke-linejoin="round" />
              <path d="M3.33203 36.6667H36.6654" stroke="#7B19D8" stroke-width="2.5" stroke-linecap="round" />
              <path
                d="M5 36.6666L5 11.1953C5 7.01074 5 4.91844 6.31863 3.88032C7.63728 2.84221 9.57903 3.40584 13.4625 4.53309L21.7958 6.95196C24.1393 7.63221 25.3112 7.97232 25.9888 8.89934C26.6667 9.82637 26.6667 11.089 26.6667 13.6142V36.6666"
                stroke="#7B19D8" stroke-width="2.5" stroke-linecap="round" stroke-linejoin="round" />
            </svg>  