<svg preserveAspectRatio="none" width="100%" height="100%" overflow="visible" style="display: block;" viewBox="0 0 588.308 417" fill="none" xmlns="http://www.w3.org/2000/svg">
<g id="Chart 65">
<g id="Group" filter="url(#filter0_d_1304_71)">
<path id="Vector" d="M559.005 4.50806H29.3023C16.8535 4.50806 6.76172 14.5998 6.76172 27.0486V384.969C6.76172 397.418 16.8535 407.509 29.3023 407.509H559.005C571.454 407.509 581.546 397.418 581.546 384.969V27.0486C581.546 14.5998 571.454 4.50806 559.005 4.50806Z" fill="var(--fill-0, white)"/>
</g>
<path id="Vector_2" d="M88.0356 330.214V344.968H84.9163V333.175H84.8299L81.4512 335.293V332.527L85.1036 330.214H88.0356ZM97.2045 345.17C96.4457 345.166 95.7132 345.038 95.0073 344.788C94.3062 344.539 93.6769 344.132 93.1198 343.571C92.5628 343.008 92.1208 342.265 91.7943 341.337C91.4726 340.411 91.3116 339.272 91.3116 337.922C91.3165 336.684 91.4582 335.577 91.7366 334.602C92.02 333.621 92.4235 332.791 92.947 332.109C93.4752 331.427 94.1068 330.909 94.8416 330.553C95.5764 330.193 96.4001 330.013 97.3126 330.013C98.2972 330.013 99.1665 330.204 99.9204 330.589C100.674 330.968 101.28 331.485 101.736 332.138C102.197 332.791 102.475 333.523 102.572 334.335H99.4954C99.3753 333.821 99.1232 333.417 98.739 333.124C98.3548 332.831 97.8793 332.685 97.3126 332.685C96.352 332.685 95.6221 333.103 95.1226 333.939C94.6279 334.774 94.3757 335.91 94.3661 337.346H94.467C94.6879 336.909 94.9856 336.537 95.3603 336.229C95.7397 335.917 96.1696 335.679 96.6498 335.517C97.1349 335.348 97.6463 335.265 98.1843 335.265C99.0584 335.265 99.8364 335.471 100.518 335.885C101.2 336.293 101.738 336.854 102.132 337.569C102.526 338.285 102.723 339.104 102.723 340.026C102.723 341.025 102.49 341.914 102.024 342.692C101.563 343.469 100.917 344.08 100.086 344.522C99.2601 344.958 98.2995 345.175 97.2045 345.17ZM97.1901 342.721C97.6703 342.721 98.1002 342.605 98.4796 342.375C98.859 342.144 99.1568 341.832 99.3729 341.438C99.5891 341.044 99.6971 340.602 99.6971 340.113C99.6971 339.623 99.5891 339.183 99.3729 338.795C99.1616 338.406 98.8687 338.096 98.4941 337.865C98.1195 337.635 97.692 337.52 97.2117 337.52C96.8515 337.52 96.5177 337.586 96.2104 337.722C95.9078 337.856 95.6412 338.043 95.4108 338.283C95.185 338.523 95.0073 338.801 94.8777 339.119C94.7479 339.431 94.6831 339.765 94.6831 340.12C94.6831 340.595 94.7912 341.031 95.0073 341.424C95.2282 341.817 95.5259 342.133 95.9006 342.367C96.28 342.603 96.7099 342.721 97.1901 342.721Z" fill="var(--fill-0, #1E1B39)"/>
<path id="Vector_3" d="M58.1211 323C65.8342 323 72.2062 329.326 72.2062 336.963C72.1956 345.048 66.1097 351.179 58.1 351.158C50.0905 351.136 44.015 344.946 44.0549 336.89C44.0906 329.297 50.4689 323 58.1211 323ZM58.1 347.645C63.8792 347.662 68.6113 343.043 68.6303 337.375C68.6471 331.173 64.2492 326.623 58.2178 326.601C52.1864 326.581 47.6224 331.119 47.6077 337.1C47.6005 338.482 47.8667 339.853 48.3909 341.132C48.9151 342.411 49.6871 343.574 50.6623 344.555C51.6376 345.534 52.797 346.312 54.0737 346.842C55.3505 347.372 56.7196 347.645 58.1021 347.645H58.1Z" fill="var(--fill-0, #FF718B)"/>
<path id="Vector_4" d="M61.3619 342.164C60.3907 342.067 59.7096 341.86 59.0811 341.967C58.1012 342.107 57.1489 342.397 56.2576 342.827C55.0699 343.447 54.0735 343.457 53.4785 342.568C52.8478 341.62 53.1568 340.592 54.332 339.849C56.6025 338.418 59.0347 337.946 61.6437 338.702C62.678 339.001 63.1447 339.785 62.9639 340.767C62.9106 341.153 62.719 341.508 62.4246 341.765C62.1302 342.022 61.7528 342.164 61.3619 342.164Z" fill="var(--fill-0, #FF718B)"/>
<path id="Vector_5" d="M54.5698 331.834C55.0452 331.831 55.5031 332.013 55.8456 332.342C56.1881 332.673 56.3883 333.123 56.403 333.598C56.3735 334.054 56.1813 334.484 55.8616 334.81C55.5417 335.137 55.1155 335.338 54.6602 335.376C54.2039 335.371 53.7662 335.194 53.4347 334.88C53.1031 334.567 52.9019 334.14 52.8713 333.685C52.8514 333.449 52.8807 333.212 52.957 332.989C53.0334 332.766 53.1553 332.561 53.3149 332.386C53.4744 332.213 53.6684 332.074 53.8845 331.979C54.1004 331.884 54.3338 331.834 54.5698 331.834Z" fill="var(--fill-0, #FF718B)"/>
<path id="Vector_6" d="M61.5987 335.358C61.1227 335.344 60.6709 335.145 60.3392 334.804C60.0075 334.462 59.822 334.005 59.8223 333.529C59.8617 333.075 60.0664 332.65 60.3977 332.337C60.729 332.023 61.1638 331.842 61.6196 331.828C61.8561 331.828 62.0901 331.876 62.3076 331.968C62.5252 332.061 62.722 332.196 62.886 332.366C63.0501 332.536 63.1782 332.738 63.2625 332.958C63.3469 333.179 63.3859 333.414 63.3771 333.651C63.3582 334.109 63.1625 334.543 62.8311 334.862C62.4996 335.18 62.0581 335.357 61.5987 335.358Z" fill="var(--fill-0, #FF718B)"/>
<path id="Vector_7" d="M57.5413 287.96V302.714H55.8123L47.7725 291.13H47.6285V302.714H45.8419V287.96H47.5709L55.6394 299.573H55.7834V287.96H57.5413ZM65.525 302.945C64.4589 302.945 63.5392 302.709 62.7659 302.238C61.9975 301.763 61.4044 301.1 60.9865 300.25C60.5735 299.395 60.367 298.401 60.367 297.268C60.367 296.134 60.5735 295.136 60.9865 294.27C61.4044 293.401 61.9855 292.724 62.7299 292.239C63.4791 291.749 64.3532 291.504 65.3521 291.504C65.9285 291.504 66.4976 291.6 67.0595 291.793C67.6214 291.985 68.133 292.297 68.5939 292.729C69.055 293.157 69.4224 293.724 69.6961 294.429C69.9699 295.136 70.1068 296.005 70.1068 297.037V297.757H61.5773V296.288H68.3779C68.3779 295.663 68.253 295.106 68.0032 294.616C67.7583 294.127 67.4077 293.74 66.9515 293.456C66.5 293.174 65.9669 293.032 65.3521 293.032C64.675 293.032 64.0891 293.199 63.5944 293.536C63.1045 293.868 62.7275 294.299 62.4633 294.833C62.1992 295.366 62.0672 295.937 62.0672 296.547V297.527C62.0672 298.362 62.2112 299.071 62.4994 299.652C62.7923 300.229 63.1982 300.668 63.7168 300.97C64.2356 301.268 64.8383 301.417 65.525 301.417C65.9717 301.417 66.3751 301.355 66.7353 301.23C67.1004 301.1 67.4149 300.908 67.6791 300.654C67.9432 300.394 68.1473 300.072 68.2914 299.688L69.9339 300.149C69.7611 300.707 69.4704 301.196 69.0622 301.618C68.654 302.036 68.1498 302.363 67.5494 302.599C66.949 302.829 66.2743 302.945 65.525 302.945ZM77.1595 307.093C76.3383 307.093 75.6323 306.989 75.0415 306.777C74.4508 306.571 73.9586 306.297 73.5648 305.955C73.1757 305.619 72.8659 305.259 72.6354 304.875L73.9898 303.924C74.1435 304.126 74.3379 304.356 74.5732 304.615C74.8087 304.88 75.1304 305.108 75.5386 305.3C75.9517 305.496 76.492 305.596 77.1595 305.596C78.0528 305.596 78.79 305.379 79.3711 304.948C79.9523 304.515 80.2429 303.837 80.2429 302.916V300.668H80.0987C79.974 300.87 79.7962 301.119 79.5656 301.417C79.3399 301.71 79.0134 301.972 78.5859 302.202C78.1633 302.428 77.5918 302.541 76.8714 302.541C75.9781 302.541 75.176 302.33 74.4653 301.907C73.7592 301.484 73.1997 300.87 72.7867 300.063C72.3785 299.256 72.1744 298.276 72.1744 297.124C72.1744 295.99 72.3736 295.003 72.7722 294.163C73.1709 293.318 73.7256 292.664 74.4364 292.203C75.1472 291.738 75.9685 291.504 76.9002 291.504C77.6206 291.504 78.1921 291.624 78.6148 291.865C79.0421 292.099 79.3687 292.369 79.5945 292.671C79.825 292.97 80.0027 293.214 80.1276 293.406H80.3005V291.649H81.943V303.031C81.943 303.982 81.7268 304.755 81.2946 305.35C80.8672 305.951 80.2909 306.39 79.5656 306.669C78.8452 306.953 78.0432 307.093 77.1595 307.093ZM77.1019 301.013C77.7839 301.013 78.3602 300.858 78.8308 300.545C79.3016 300.233 79.6593 299.785 79.9043 299.199C80.1492 298.613 80.2717 297.912 80.2717 297.094C80.2717 296.298 80.1516 295.593 79.9115 294.984C79.6713 294.374 79.3159 293.896 78.8452 293.55C78.3746 293.204 77.7935 293.032 77.1019 293.032C76.3814 293.032 75.7812 293.214 75.3008 293.579C74.8255 293.944 74.4676 294.434 74.2275 295.049C73.9921 295.663 73.8745 296.345 73.8745 297.094C73.8745 297.863 73.9946 298.543 74.2347 299.133C74.4796 299.719 74.8399 300.18 75.3153 300.516C75.7956 300.847 76.3911 301.013 77.1019 301.013ZM88.3114 302.973C87.6101 302.973 86.9738 302.841 86.4023 302.577C85.8308 302.308 85.3769 301.922 85.0407 301.417C84.7045 300.908 84.5364 300.293 84.5364 299.573C84.5364 298.939 84.6613 298.425 84.911 298.031C85.1608 297.632 85.4946 297.32 85.9124 297.094C86.3303 296.869 86.7913 296.701 87.2956 296.591C87.8046 296.475 88.3161 296.383 88.83 296.317C89.5024 296.23 90.0475 296.166 90.4653 296.122C90.888 296.075 91.1953 295.994 91.3875 295.884C91.5844 295.774 91.6829 295.582 91.6829 295.308V295.251C91.6829 294.539 91.4883 293.987 91.0993 293.594C90.7151 293.199 90.1315 293.002 89.3487 293.002C88.5371 293.002 87.9007 293.18 87.4396 293.536C86.9785 293.891 86.6544 294.27 86.4671 294.674L84.8534 294.098C85.1416 293.425 85.5258 292.902 86.006 292.528C86.4911 292.148 87.0194 291.884 87.591 291.734C88.1672 291.581 88.734 291.504 89.2911 291.504C89.6464 291.504 90.0548 291.547 90.5157 291.634C90.9816 291.715 91.4306 291.886 91.863 292.146C92.2999 292.405 92.6626 292.796 92.9508 293.32C93.2388 293.843 93.383 294.544 93.383 295.423V302.714H91.6829V301.215H91.5964C91.4811 301.455 91.289 301.712 91.0201 301.986C90.751 302.26 90.3933 302.493 89.9467 302.685C89.5 302.877 88.9549 302.973 88.3114 302.973ZM88.5707 301.446C89.2431 301.446 89.8097 301.314 90.2708 301.049C90.7367 300.785 91.0872 300.444 91.3227 300.027C91.5627 299.609 91.6829 299.169 91.6829 298.708V297.152C91.6107 297.239 91.4523 297.318 91.2074 297.39C90.9672 297.457 90.6887 297.517 90.3717 297.57C90.0595 297.619 89.7545 297.661 89.4568 297.7C89.1638 297.733 88.926 297.763 88.7436 297.786C88.3018 297.844 87.8887 297.937 87.5045 298.067C87.1251 298.192 86.8177 298.382 86.5824 298.636C86.3518 298.886 86.2366 299.227 86.2366 299.66C86.2366 300.25 86.4552 300.696 86.8921 301C87.334 301.297 87.8935 301.446 88.5707 301.446ZM101.298 291.649V293.089H95.564V291.649H101.298ZM97.2353 288.998H98.9354V299.544C98.9354 300.025 99.005 300.384 99.1443 300.624C99.2885 300.86 99.471 301.019 99.6919 301.1C99.9176 301.177 100.155 301.215 100.405 301.215C100.592 301.215 100.746 301.206 100.866 301.187C100.986 301.163 101.082 301.144 101.154 301.129L101.5 302.656C101.385 302.699 101.224 302.743 101.017 302.786C100.811 302.834 100.549 302.858 100.232 302.858C99.7519 302.858 99.2813 302.754 98.8202 302.548C98.3639 302.342 97.9845 302.027 97.6819 301.605C97.3842 301.182 97.2353 300.649 97.2353 300.006V288.998ZM103.856 302.714V291.649H105.556V302.714H103.856ZM104.72 289.804C104.389 289.804 104.103 289.691 103.863 289.466C103.628 289.24 103.51 288.969 103.51 288.652C103.51 288.334 103.628 288.064 103.863 287.837C104.103 287.612 104.389 287.499 104.72 287.499C105.052 287.499 105.335 287.612 105.57 287.837C105.81 288.064 105.931 288.334 105.931 288.652C105.931 288.969 105.81 289.24 105.57 289.466C105.335 289.691 105.052 289.804 104.72 289.804ZM117.718 291.649L113.626 302.714H111.897L107.805 291.649H109.65L112.704 300.467H112.82L115.874 291.649H117.718ZM124.205 302.945C123.139 302.945 122.219 302.709 121.446 302.238C120.678 301.763 120.085 301.1 119.667 300.25C119.254 299.395 119.047 298.401 119.047 297.268C119.047 296.134 119.254 295.136 119.667 294.27C120.085 293.401 120.666 292.724 121.41 292.239C122.16 291.749 123.033 291.504 124.033 291.504C124.609 291.504 125.178 291.6 125.74 291.793C126.301 291.985 126.813 292.297 127.274 292.729C127.735 293.157 128.102 293.724 128.376 294.429C128.65 295.136 128.787 296.005 128.787 297.037V297.757H120.257V296.288H127.058C127.058 295.663 126.934 295.106 126.683 294.616C126.439 294.127 126.088 293.74 125.632 293.456C125.18 293.174 124.647 293.032 124.033 293.032C123.355 293.032 122.769 293.199 122.275 293.536C121.784 293.868 121.408 294.299 121.144 294.833C120.879 295.366 120.747 295.937 120.747 296.547V297.527C120.747 298.362 120.892 299.071 121.179 299.652C121.472 300.229 121.879 300.668 122.397 300.97C122.916 301.268 123.519 301.417 124.205 301.417C124.651 301.417 125.055 301.355 125.416 301.23C125.781 301.1 126.095 300.908 126.359 300.654C126.624 300.394 126.828 300.072 126.972 299.688L128.614 300.149C128.442 300.707 128.151 301.196 127.743 301.618C127.334 302.036 126.83 302.363 126.229 302.599C125.63 302.829 124.955 302.945 124.205 302.945Z" fill="var(--fill-0, #615E83)"/>
<path id="Vector_8" d="M236.668 342.375V339.918L242.827 330.214H244.945V333.615H243.691L239.809 339.759V339.875H248.561V342.375H236.668ZM243.749 344.968V341.626L243.806 340.538V330.214H246.731V344.968H243.749ZM256.028 345.17C255.01 345.17 254.103 344.983 253.305 344.608C252.513 344.234 251.884 343.717 251.418 343.059C250.952 342.401 250.709 341.647 250.69 340.797H253.716C253.749 341.369 253.989 341.832 254.437 342.188C254.883 342.543 255.414 342.721 256.028 342.721C256.518 342.721 256.951 342.613 257.325 342.396C257.705 342.176 258 341.87 258.211 341.481C258.427 341.088 258.535 340.636 258.535 340.127C258.535 339.608 258.425 339.152 258.204 338.758C257.988 338.365 257.688 338.057 257.304 337.837C256.919 337.616 256.48 337.503 255.985 337.497C255.553 337.497 255.133 337.586 254.724 337.764C254.322 337.942 254.006 338.185 253.781 338.491L251.007 337.994L251.706 330.214H260.725V332.765H254.278L253.896 336.46H253.982C254.242 336.095 254.634 335.793 255.157 335.553C255.68 335.312 256.266 335.192 256.915 335.192C257.803 335.192 258.595 335.401 259.292 335.819C259.988 336.237 260.538 336.811 260.942 337.541C261.345 338.266 261.545 339.102 261.539 340.048C261.545 341.042 261.314 341.925 260.848 342.698C260.387 343.467 259.74 344.072 258.91 344.514C258.084 344.951 257.123 345.17 256.028 345.17Z" fill="var(--fill-0, #1E1B39)"/>
<path id="Vector_9" d="M198.529 336.928C198.529 329.3 204.925 322.99 212.646 323C220.294 323 226.667 329.334 226.679 336.926C226.694 344.985 220.582 351.153 212.593 351.158C204.605 351.162 198.529 345.021 198.529 336.928ZM212.562 347.65C218.268 347.679 223.094 343.034 223.125 337.489C223.159 331.258 218.723 326.63 212.69 326.606C206.701 326.581 202.229 331.061 202.076 336.992C201.935 342.465 206.581 347.752 212.562 347.645V347.65Z" fill="var(--fill-0, #FFEB3A)"/>
<path id="Vector_10" d="M212.526 342.555C210.987 342.555 209.448 342.572 207.912 342.555C206.717 342.538 206.019 341.863 206.019 340.789C206.019 339.715 206.736 339.006 207.912 338.998C211.056 338.977 214.202 338.977 217.348 338.998C218.519 338.998 219.18 339.72 219.163 340.828C219.148 341.889 218.51 342.531 217.361 342.551C215.74 342.585 214.132 342.555 212.526 342.555Z" fill="var(--fill-0, #FFEB3A)"/>
<path id="Vector_11" d="M208.939 335.379C208.482 335.372 208.043 335.193 207.712 334.877C207.381 334.563 207.18 334.134 207.149 333.678C207.131 333.442 207.163 333.207 207.24 332.984C207.317 332.762 207.44 332.558 207.6 332.384C207.76 332.21 207.954 332.073 208.171 331.978C208.386 331.884 208.619 331.834 208.855 331.834C209.312 331.83 209.754 331.999 210.091 332.309C210.429 332.617 210.635 333.043 210.671 333.499C210.676 333.974 210.499 334.433 210.177 334.781C209.855 335.131 209.413 335.344 208.939 335.379Z" fill="var(--fill-0, #FFEB3A)"/>
<path id="Vector_12" d="M215.856 331.834C216.085 331.823 216.312 331.856 216.526 331.934C216.741 332.012 216.938 332.131 217.106 332.286C217.274 332.44 217.409 332.626 217.504 332.834C217.599 333.041 217.652 333.265 217.66 333.493C217.677 333.97 217.507 334.435 217.186 334.789C216.863 335.142 216.417 335.356 215.94 335.385C215.015 335.408 214.097 334.511 214.106 333.585C214.128 333.128 214.32 332.695 214.643 332.371C214.967 332.048 215.399 331.856 215.856 331.834Z" fill="var(--fill-0, #FFEB3A)"/>
<path id="Vector_13" d="M212.015 287.96V302.714H210.286L202.247 291.13H202.103V302.714H200.316V287.96H202.045L210.114 299.573H210.258V287.96H212.015ZM219.999 302.945C218.933 302.945 218.013 302.709 217.24 302.238C216.471 301.763 215.878 301.1 215.46 300.25C215.048 299.395 214.842 298.401 214.842 297.268C214.842 296.134 215.048 295.136 215.46 294.27C215.878 293.401 216.46 292.724 217.204 292.239C217.953 291.749 218.827 291.504 219.826 291.504C220.402 291.504 220.971 291.6 221.534 291.793C222.095 291.985 222.607 292.297 223.068 292.73C223.529 293.157 223.896 293.724 224.17 294.429C224.444 295.136 224.581 296.005 224.581 297.037V297.757H216.051V296.288H222.851C222.851 295.663 222.727 295.106 222.477 294.616C222.233 294.127 221.882 293.74 221.426 293.456C220.974 293.174 220.441 293.032 219.826 293.032C219.149 293.032 218.563 293.2 218.068 293.536C217.578 293.868 217.202 294.299 216.938 294.833C216.673 295.366 216.541 295.937 216.541 296.547V297.527C216.541 298.362 216.685 299.071 216.974 299.652C217.266 300.229 217.673 300.668 218.191 300.97C218.709 301.268 219.312 301.417 219.999 301.417C220.446 301.417 220.849 301.355 221.209 301.23C221.574 301.1 221.889 300.908 222.153 300.654C222.417 300.394 222.621 300.072 222.766 299.688L224.408 300.149C224.235 300.707 223.945 301.196 223.537 301.618C223.127 302.037 222.624 302.363 222.023 302.599C221.423 302.829 220.748 302.945 219.999 302.945ZM234.141 298.19V291.649H235.84V302.714H234.141V300.841H234.026C233.765 301.403 233.362 301.881 232.815 302.274C232.268 302.663 231.576 302.858 230.74 302.858C230.049 302.858 229.434 302.707 228.896 302.404C228.358 302.096 227.935 301.635 227.628 301.021C227.321 300.401 227.167 299.621 227.167 298.679V291.649H228.867V298.564C228.867 299.371 229.093 300.015 229.545 300.495C230.001 300.975 230.582 301.215 231.288 301.215C231.711 301.215 232.14 301.108 232.578 300.891C233.019 300.675 233.389 300.344 233.687 299.897C233.99 299.45 234.141 298.881 234.141 298.19ZM243.767 291.649V293.089H238.032V291.649H243.767ZM239.704 288.998H241.404V299.544C241.404 300.025 241.473 300.384 241.613 300.624C241.757 300.86 241.94 301.019 242.161 301.1C242.386 301.177 242.624 301.215 242.874 301.215C243.061 301.215 243.214 301.206 243.335 301.187C243.454 301.163 243.55 301.144 243.622 301.129L243.968 302.656C243.853 302.699 243.692 302.743 243.486 302.786C243.28 302.834 243.017 302.858 242.701 302.858C242.22 302.858 241.749 302.754 241.288 302.548C240.832 302.342 240.453 302.028 240.15 301.605C239.853 301.182 239.704 300.649 239.704 300.006V288.998ZM246.324 302.714V291.649H247.967V293.32H248.082C248.284 292.772 248.649 292.328 249.178 291.987C249.705 291.646 250.301 291.475 250.964 291.475C251.089 291.475 251.245 291.479 251.432 291.483C251.619 291.488 251.761 291.494 251.856 291.504V293.233C251.799 293.219 251.667 293.197 251.461 293.169C251.259 293.135 251.045 293.118 250.82 293.118C250.282 293.118 249.802 293.231 249.379 293.456C248.961 293.677 248.63 293.985 248.384 294.378C248.144 294.768 248.025 295.212 248.025 295.712V302.714H246.324ZM257.129 302.973C256.428 302.973 255.791 302.841 255.22 302.578C254.648 302.308 254.194 301.922 253.858 301.417C253.522 300.908 253.353 300.293 253.353 299.573C253.353 298.939 253.478 298.426 253.728 298.031C253.978 297.632 254.312 297.32 254.729 297.095C255.147 296.869 255.608 296.701 256.113 296.591C256.622 296.475 257.133 296.383 257.647 296.317C258.32 296.23 258.864 296.166 259.282 296.122C259.705 296.075 260.013 295.995 260.204 295.884C260.402 295.774 260.5 295.582 260.5 295.308V295.251C260.5 294.54 260.306 293.987 259.917 293.594C259.533 293.2 258.949 293.002 258.166 293.002C257.354 293.002 256.717 293.18 256.256 293.536C255.795 293.892 255.472 294.27 255.284 294.674L253.671 294.098C253.958 293.425 254.343 292.902 254.823 292.528C255.309 292.148 255.837 291.884 256.409 291.734C256.984 291.581 257.551 291.504 258.108 291.504C258.463 291.504 258.872 291.547 259.333 291.634C259.799 291.715 260.248 291.887 260.68 292.146C261.117 292.405 261.48 292.796 261.768 293.32C262.056 293.843 262.2 294.544 262.2 295.423V302.714H260.5V301.215H260.414C260.298 301.455 260.106 301.712 259.837 301.986C259.569 302.26 259.21 302.493 258.764 302.685C258.318 302.877 257.772 302.973 257.129 302.973ZM257.388 301.446C258.061 301.446 258.627 301.314 259.087 301.049C259.554 300.786 259.905 300.444 260.14 300.027C260.38 299.609 260.5 299.169 260.5 298.708V297.152C260.428 297.239 260.27 297.318 260.024 297.39C259.784 297.457 259.506 297.517 259.189 297.57C258.877 297.619 258.571 297.661 258.274 297.7C257.981 297.734 257.743 297.763 257.56 297.787C257.119 297.844 256.706 297.938 256.322 298.067C255.942 298.192 255.635 298.382 255.4 298.636C255.169 298.886 255.054 299.227 255.054 299.66C255.054 300.25 255.273 300.697 255.71 301C256.152 301.297 256.711 301.446 257.388 301.446ZM267.004 287.96V302.714H265.303V287.96H267.004Z" fill="var(--fill-0, #615E83)"/>
<path id="Vector_14" d="M371.08 344.968V342.721L376.332 337.858C376.78 337.425 377.154 337.036 377.456 336.69C377.764 336.345 377.997 336.006 378.155 335.675C378.314 335.339 378.393 334.976 378.393 334.587C378.393 334.155 378.295 333.783 378.097 333.47C377.901 333.154 377.632 332.911 377.29 332.743C376.95 332.57 376.563 332.483 376.131 332.483C375.68 332.483 375.285 332.574 374.949 332.757C374.614 332.94 374.354 333.202 374.172 333.543C373.989 333.884 373.898 334.29 373.898 334.76H370.937C370.937 333.795 371.155 332.956 371.592 332.246C372.029 331.535 372.641 330.985 373.429 330.596C374.217 330.208 375.124 330.013 376.152 330.013C377.209 330.013 378.129 330.2 378.912 330.575C379.699 330.945 380.312 331.459 380.749 332.117C381.185 332.774 381.404 333.528 381.404 334.379C381.404 334.936 381.294 335.486 381.073 336.028C380.856 336.571 380.47 337.174 379.913 337.837C379.356 338.495 378.571 339.285 377.557 340.207L375.404 342.318V342.418H381.599V344.968H371.08ZM387.223 342.951L387.144 343.743C387.082 344.378 386.961 345.009 386.783 345.638C386.611 346.272 386.428 346.846 386.237 347.36C386.048 347.874 385.897 348.277 385.782 348.57H383.794C383.867 348.287 383.965 347.891 384.09 347.381C384.215 346.878 384.332 346.311 384.442 345.682C384.553 345.052 384.623 344.412 384.651 343.758L384.687 342.951H387.223ZM394.577 330.214V344.968H391.457V333.175H391.371L387.993 335.293V332.527L391.644 330.214H394.577ZM404.502 330.214V344.968H401.383V333.175H401.296L397.917 335.293V332.527L401.57 330.214H404.502ZM413.462 345.17C412.386 345.17 411.428 344.985 410.587 344.616C409.752 344.24 409.092 343.726 408.607 343.074C408.126 342.416 407.879 341.657 407.864 340.797H411.005C411.025 341.158 411.143 341.475 411.358 341.748C411.579 342.017 411.872 342.226 412.237 342.375C412.602 342.524 413.013 342.598 413.469 342.598C413.945 342.598 414.365 342.514 414.73 342.346C415.095 342.178 415.38 341.945 415.587 341.647C415.794 341.349 415.897 341.006 415.897 340.617C415.897 340.224 415.786 339.875 415.565 339.572C415.35 339.266 415.038 339.024 414.629 338.852C414.225 338.68 413.745 338.593 413.188 338.593H411.812V336.301H413.188C413.66 336.301 414.074 336.22 414.435 336.057C414.8 335.893 415.083 335.668 415.285 335.38C415.486 335.087 415.587 334.746 415.587 334.356C415.587 333.987 415.499 333.663 415.321 333.385C415.148 333.101 414.903 332.88 414.586 332.721C414.274 332.563 413.909 332.483 413.49 332.483C413.068 332.483 412.681 332.561 412.331 332.714C411.98 332.863 411.7 333.077 411.488 333.355C411.277 333.634 411.164 333.961 411.15 334.335H408.16C408.174 333.485 408.417 332.736 408.888 332.088C409.358 331.439 409.992 330.932 410.789 330.567C411.591 330.198 412.496 330.013 413.505 330.013C414.524 330.013 415.414 330.198 416.178 330.567C416.941 330.937 417.534 331.437 417.957 332.066C418.385 332.691 418.596 333.392 418.591 334.169C418.596 334.995 418.339 335.685 417.82 336.237C417.307 336.789 416.637 337.14 415.811 337.289V337.404C416.896 337.543 417.722 337.92 418.288 338.535C418.861 339.145 419.144 339.909 419.139 340.825C419.144 341.666 418.901 342.413 418.411 343.066C417.926 343.72 417.256 344.234 416.402 344.608C415.546 344.983 414.567 345.17 413.462 345.17Z" fill="var(--fill-0, #1E1B39)"/>
<path id="Vector_15" d="M346.753 351.158C338.72 351.147 332.704 345.044 332.717 336.921C332.729 329.353 339.131 323 346.766 323C354.435 323 360.887 329.38 360.868 336.984C360.858 345.084 354.79 351.17 346.753 351.158ZM336.291 337.264C336.137 342.002 339.978 347.701 346.779 347.713C353.229 347.713 357.289 342.49 357.309 337.281C357.328 331.207 352.714 326.559 346.74 326.595C340.768 326.63 336.291 331.199 336.291 337.264Z" fill="var(--fill-0, #7FE47E)"/>
<path id="Vector_16" d="M346.731 344.426C344.101 344.426 341.843 342.881 340.973 340.502C340.552 339.356 340.924 338.286 341.862 337.939C342.873 337.565 343.803 338.021 344.265 339.181C344.727 340.342 345.581 340.863 346.767 340.888C347.952 340.913 348.814 340.285 349.313 339.207C349.869 337.998 350.783 337.524 351.784 337.966C352.709 338.372 353.006 339.394 352.542 340.577C351.604 342.971 349.409 344.443 346.731 344.426Z" fill="var(--fill-0, #7FE47E)"/>
<path id="Vector_17" d="M344.865 333.632C344.866 334.087 344.691 334.525 344.379 334.855C344.066 335.187 343.638 335.385 343.183 335.41C342.948 335.429 342.711 335.399 342.488 335.322C342.265 335.245 342.061 335.124 341.887 334.964C341.714 334.804 341.575 334.61 341.479 334.395C341.385 334.178 341.336 333.945 341.335 333.709C341.322 333.483 341.353 333.256 341.431 333.043C341.507 332.83 341.628 332.635 341.784 332.471C341.939 332.306 342.126 332.174 342.335 332.085C342.543 331.996 342.768 331.951 342.994 331.951C344.068 331.914 344.838 332.614 344.865 333.632Z" fill="var(--fill-0, #7FE47E)"/>
<path id="Vector_18" d="M351.849 333.673C351.852 333.909 351.806 334.142 351.714 334.36C351.623 334.576 351.488 334.772 351.318 334.934C351.147 335.097 350.945 335.223 350.724 335.303C350.503 335.384 350.267 335.418 350.032 335.403C349.576 335.383 349.145 335.192 348.822 334.87C348.5 334.548 348.309 334.116 348.287 333.661C348.292 333.425 348.343 333.193 348.439 332.978C348.535 332.763 348.674 332.569 348.846 332.409C349.019 332.247 349.221 332.123 349.443 332.043C349.664 331.963 349.9 331.929 350.135 331.941C350.363 331.935 350.591 331.976 350.803 332.06C351.015 332.146 351.207 332.273 351.367 332.436C351.528 332.598 351.654 332.792 351.736 333.005C351.819 333.218 351.858 333.445 351.849 333.673Z" fill="var(--fill-0, #7FE47E)"/>
<path id="Vector_19" d="M334.504 302.714V287.96H339.489C340.646 287.96 341.593 288.168 342.328 288.587C343.067 289 343.615 289.559 343.97 290.266C344.326 290.971 344.503 291.759 344.503 292.628C344.503 293.497 344.326 294.287 343.97 294.998C343.619 295.709 343.077 296.276 342.342 296.699C341.608 297.116 340.665 297.326 339.518 297.326H335.944V295.74H339.461C340.253 295.74 340.89 295.603 341.37 295.33C341.85 295.056 342.198 294.686 342.413 294.221C342.635 293.749 342.746 293.219 342.746 292.628C342.746 292.037 342.635 291.509 342.413 291.043C342.198 290.578 341.848 290.213 341.362 289.948C340.877 289.68 340.234 289.545 339.431 289.545H336.29V302.714H334.504ZM351.526 302.945C350.528 302.945 349.651 302.707 348.897 302.231C348.149 301.756 347.563 301.091 347.14 300.235C346.722 299.381 346.513 298.382 346.513 297.239C346.513 296.086 346.722 295.08 347.14 294.221C347.563 293.361 348.149 292.693 348.897 292.218C349.651 291.742 350.528 291.504 351.526 291.504C352.526 291.504 353.4 291.742 354.149 292.218C354.903 292.693 355.489 293.361 355.907 294.221C356.33 295.08 356.541 296.086 356.541 297.239C356.541 298.382 356.33 299.381 355.907 300.235C355.489 301.091 354.903 301.756 354.149 302.231C353.4 302.707 352.526 302.945 351.526 302.945ZM351.526 301.417C352.286 301.417 352.91 301.223 353.4 300.834C353.89 300.444 354.253 299.933 354.488 299.299C354.723 298.666 354.841 297.978 354.841 297.239C354.841 296.499 354.723 295.81 354.488 295.171C354.253 294.533 353.89 294.017 353.4 293.622C352.91 293.229 352.286 293.032 351.526 293.032C350.768 293.032 350.144 293.229 349.653 293.622C349.164 294.017 348.801 294.533 348.566 295.171C348.33 295.81 348.213 296.499 348.213 297.239C348.213 297.978 348.33 298.666 348.566 299.299C348.801 299.933 349.164 300.444 349.653 300.834C350.144 301.223 350.768 301.417 351.526 301.417ZM366.975 294.127L365.446 294.559C365.351 294.304 365.21 294.057 365.022 293.817C364.839 293.571 364.59 293.37 364.273 293.212C363.955 293.053 363.55 292.974 363.055 292.974C362.378 292.974 361.814 293.13 361.362 293.442C360.916 293.749 360.693 294.141 360.693 294.616C360.693 295.039 360.846 295.372 361.154 295.618C361.461 295.863 361.941 296.067 362.594 296.23L364.237 296.634C365.225 296.874 365.964 297.241 366.448 297.736C366.933 298.226 367.176 298.857 367.176 299.63C367.176 300.265 366.994 300.832 366.629 301.331C366.268 301.83 365.764 302.224 365.115 302.512C364.467 302.801 363.713 302.945 362.853 302.945C361.725 302.945 360.791 302.699 360.051 302.21C359.312 301.72 358.843 301.004 358.646 300.063L360.26 299.66C360.414 300.255 360.704 300.701 361.132 301C361.564 301.297 362.128 301.446 362.825 301.446C363.617 301.446 364.246 301.278 364.712 300.942C365.183 300.601 365.418 300.193 365.418 299.717C365.418 299.333 365.284 299.01 365.015 298.751C364.745 298.487 364.333 298.29 363.776 298.161L361.931 297.729C360.918 297.489 360.173 297.116 359.699 296.612C359.227 296.103 358.992 295.467 358.992 294.703C358.992 294.079 359.168 293.526 359.518 293.046C359.873 292.566 360.356 292.189 360.966 291.915C361.581 291.641 362.277 291.504 363.055 291.504C364.15 291.504 365.01 291.744 365.635 292.225C366.264 292.705 366.71 293.339 366.975 294.127ZM369.735 302.714V291.649H371.435V302.714H369.735ZM370.599 289.804C370.268 289.804 369.983 289.691 369.743 289.466C369.507 289.24 369.39 288.969 369.39 288.652C369.39 288.334 369.507 288.064 369.743 287.837C369.983 287.612 370.268 287.499 370.599 287.499C370.931 287.499 371.215 287.612 371.45 287.837C371.69 288.064 371.81 288.334 371.81 288.652C371.81 288.969 371.69 289.24 371.45 289.466C371.215 289.691 370.931 289.804 370.599 289.804ZM379.362 291.649V293.089H373.627V291.649H379.362ZM375.299 288.998H376.998V299.544C376.998 300.025 377.068 300.384 377.207 300.624C377.351 300.86 377.534 301.019 377.755 301.1C377.981 301.177 378.218 301.215 378.468 301.215C378.655 301.215 378.81 301.206 378.929 301.187C379.05 301.163 379.145 301.144 379.218 301.129L379.564 302.656C379.447 302.699 379.287 302.743 379.08 302.786C378.874 302.834 378.612 302.858 378.296 302.858C377.816 302.858 377.344 302.754 376.883 302.548C376.427 302.342 376.047 302.027 375.745 301.605C375.448 301.182 375.299 300.649 375.299 300.006V288.998ZM381.919 302.714V291.649H383.619V302.714H381.919ZM382.783 289.804C382.452 289.804 382.166 289.691 381.926 289.466C381.69 289.24 381.573 288.969 381.573 288.652C381.573 288.334 381.69 288.064 381.926 287.837C382.166 287.612 382.452 287.499 382.783 287.499C383.115 287.499 383.398 287.612 383.633 287.837C383.873 288.064 383.994 288.334 383.994 288.652C383.994 288.969 383.873 289.24 383.633 289.466C383.398 289.691 383.115 289.804 382.783 289.804ZM395.781 291.649L391.689 302.714H389.96L385.868 291.649H387.713L390.767 300.467H390.882L393.937 291.649H395.781ZM402.269 302.945C401.202 302.945 400.283 302.709 399.51 302.238C398.741 301.763 398.148 301.1 397.73 300.25C397.316 299.395 397.11 298.401 397.11 297.268C397.11 296.134 397.316 295.136 397.73 294.27C398.148 293.401 398.729 292.724 399.474 292.239C400.222 291.749 401.097 291.504 402.095 291.504C402.672 291.504 403.241 291.6 403.803 291.793C404.365 291.985 404.877 292.297 405.338 292.729C405.798 293.157 406.166 293.724 406.44 294.429C406.714 295.136 406.85 296.005 406.85 297.037V297.757H398.321V296.288H405.121C405.121 295.663 404.996 295.106 404.747 294.616C404.501 294.127 404.151 293.74 403.694 293.456C403.243 293.174 402.71 293.032 402.095 293.032C401.419 293.032 400.833 293.199 400.338 293.536C399.848 293.868 399.471 294.299 399.206 294.833C398.943 295.366 398.811 295.937 398.811 296.547V297.527C398.811 298.362 398.954 299.071 399.243 299.652C399.536 300.229 399.941 300.668 400.46 300.97C400.979 301.268 401.581 301.417 402.269 301.417C402.715 301.417 403.118 301.355 403.479 301.23C403.844 301.1 404.159 300.908 404.422 300.654C404.686 300.394 404.891 300.072 405.034 299.688L406.678 300.149C406.504 300.707 406.214 301.196 405.805 301.618C405.397 302.036 404.893 302.363 404.293 302.599C403.692 302.829 403.018 302.945 402.269 302.945Z" fill="var(--fill-0, #615E83)"/>
<path id="Vector_20" d="M58.693 238.473C50.7768 238.473 44.3594 232.056 44.3594 224.14V204.925C44.3594 197.009 50.7768 190.592 58.693 190.592H77.6374C85.5537 190.592 91.9712 197.009 91.9712 204.925V224.14C91.9712 232.056 85.5538 238.473 77.6374 238.473H58.693Z" fill="var(--fill-0, #FF718B)"/>
<path id="Vector_21" d="M115.322 238.473C107.406 238.473 100.988 232.056 100.988 224.14V204.925C100.988 197.009 107.406 190.592 115.322 190.592H195.766C203.682 190.592 210.1 197.009 210.1 204.925V224.14C210.1 232.056 203.682 238.473 195.766 238.473H115.322Z" fill="var(--fill-0, #FFEB3A)"/>
<path id="Vector_22" d="M233.38 238.473C225.463 238.473 219.045 232.056 219.045 224.14V204.925C219.045 197.009 225.463 190.592 233.38 190.592H529.614C537.53 190.592 543.948 197.009 543.948 204.925V224.14C543.948 232.056 537.53 238.473 529.614 238.473H233.38Z" fill="var(--fill-0, #7FE47E)"/>
<path id="Vector_23" d="M44.3594 123.533H543.947" stroke="var(--stroke-0, #E5E5EF)"/>
<path id="Vector_24" d="M45.9277 92.5407V74.5082H53.0421C54.4039 74.5082 55.5662 74.7518 56.5288 75.239C57.4973 75.7204 58.234 76.4041 58.7389 77.2905C59.2495 78.1711 59.5049 79.207 59.5049 80.3987C59.5049 81.5961 59.2466 82.6263 58.7301 83.4892C58.2135 84.3462 57.4651 85.0037 56.4848 85.4615C55.5104 85.9194 54.3305 86.1483 52.9452 86.1483H48.1818V83.0841H52.3289C53.0567 83.0841 53.6614 82.9844 54.1426 82.7848C54.624 82.5852 54.982 82.2859 55.2169 81.8867C55.4575 81.4876 55.5779 80.9916 55.5779 80.3987C55.5779 79.8 55.4575 79.2951 55.2169 78.8843C54.982 78.4734 54.6211 78.1622 54.1338 77.9509C53.6525 77.7337 53.045 77.6252 52.3112 77.6252H49.7402V92.5407H45.9277ZM55.6659 84.3345L60.1477 92.5407H55.9389L51.5541 84.3345H55.6659ZM68.0743 92.8047C66.6831 92.8047 65.4856 92.523 64.4819 91.9595C63.484 91.3901 62.715 90.586 62.175 89.547C61.6349 88.5021 61.3648 87.2665 61.3648 85.8401C61.3648 84.449 61.6349 83.2279 62.175 82.1772C62.715 81.1265 63.4751 80.3077 64.4554 79.7207C65.4415 79.1337 66.598 78.8402 67.9246 78.8402C68.8168 78.8402 69.6474 78.984 70.4163 79.2716C71.1912 79.5534 71.8663 79.979 72.4415 80.5483C73.0226 81.1177 73.4745 81.8339 73.7974 82.6968C74.1203 83.5538 74.2817 84.5575 74.2817 85.7081V86.7382H62.8618V84.4137H70.751C70.751 83.8736 70.6335 83.3953 70.3988 82.9785C70.1639 82.5618 69.8382 82.2359 69.4214 82.0012C69.0105 81.7604 68.5321 81.6402 67.9861 81.6402C67.4168 81.6402 66.912 81.7723 66.4717 82.0363C66.0374 82.2947 65.6969 82.6439 65.4503 83.0841C65.2038 83.5185 65.0776 84.0028 65.0718 84.537V86.747C65.0718 87.4162 65.1951 87.9944 65.4415 88.4816C65.694 88.9688 66.0491 89.3444 66.5069 89.6086C66.9648 89.8728 67.5078 90.0049 68.1359 90.0049C68.5526 90.0049 68.9342 89.9462 69.2805 89.8287C69.6269 89.7113 69.9233 89.5352 70.1697 89.3005C70.4163 89.0656 70.6042 88.778 70.7333 88.4375L74.2025 88.6665C74.0263 89.5 73.6653 90.2279 73.1194 90.8501C72.5794 91.4664 71.8809 91.9478 71.0239 92.2941C70.1727 92.6346 69.1896 92.8047 68.0743 92.8047ZM88.9749 79.0164L84.2467 92.5407H80.0203L75.2921 79.0164H79.2543L82.063 88.6929H82.2039L85.0039 79.0164H88.9749ZM90.8943 92.5407V79.0164H94.6452V92.5407H90.8943ZM92.7786 77.273C92.2209 77.273 91.7425 77.088 91.3434 76.7182C90.9501 76.3426 90.7534 75.8935 90.7534 75.3711C90.7534 74.8545 90.9501 74.4113 91.3434 74.0415C91.7425 73.6659 92.2209 73.478 92.7786 73.478C93.3362 73.478 93.8117 73.6659 94.205 74.0415C94.6041 74.4113 94.8037 74.8545 94.8037 75.3711C94.8037 75.8935 94.6041 76.3426 94.205 76.7182C93.8117 77.088 93.3362 77.273 92.7786 77.273ZM103.813 92.8047C102.422 92.8047 101.225 92.523 100.221 91.9595C99.223 91.3901 98.4541 90.586 97.914 89.547C97.374 88.5021 97.104 87.2665 97.104 85.8401C97.104 84.449 97.374 83.2279 97.914 82.1772C98.4541 81.1265 99.2142 80.3077 100.195 79.7207C101.181 79.1337 102.337 78.8402 103.664 78.8402C104.556 78.8402 105.386 78.984 106.155 79.2716C106.93 79.5534 107.605 79.979 108.181 80.5483C108.762 81.1177 109.214 81.8339 109.536 82.6968C109.859 83.5538 110.021 84.5575 110.021 85.7081V86.7382H98.6008V84.4137H106.49C106.49 83.8736 106.373 83.3953 106.138 82.9785C105.903 82.5618 105.577 82.2359 105.16 82.0012C104.75 81.7604 104.271 81.6402 103.725 81.6402C103.156 81.6402 102.651 81.7723 102.211 82.0363C101.776 82.2947 101.436 82.6439 101.189 83.0841C100.943 83.5185 100.817 84.0028 100.811 84.537V86.747C100.811 87.4162 100.934 87.9944 101.181 88.4816C101.433 88.9688 101.788 89.3444 102.246 89.6086C102.704 89.8728 103.247 90.0049 103.875 90.0049C104.292 90.0049 104.673 89.9462 105.02 89.8287C105.366 89.7113 105.662 89.5352 105.909 89.3005C106.155 89.0656 106.343 88.778 106.472 88.4375L109.942 88.6665C109.765 89.5 109.404 90.2279 108.859 90.8501C108.318 91.4664 107.62 91.9478 106.763 92.2941C105.912 92.6346 104.929 92.8047 103.813 92.8047ZM115.039 92.5407L111.359 79.0164H115.154L117.249 88.103H117.373L119.556 79.0164H123.281L125.499 88.0502H125.614L127.674 79.0164H131.461L127.789 92.5407H123.818L121.494 84.0351H121.326L119.002 92.5407H115.039ZM144.714 82.8728L141.28 83.0841C141.221 82.7907 141.095 82.5265 140.902 82.2917C140.708 82.0511 140.453 81.8603 140.136 81.7194C139.825 81.5727 139.452 81.4993 139.018 81.4993C138.436 81.4993 137.946 81.6226 137.547 81.8691C137.148 82.1097 136.949 82.4326 136.949 82.8377C136.949 83.1604 137.077 83.4334 137.335 83.6564C137.594 83.8796 138.037 84.0586 138.665 84.1936L141.113 84.6867C142.428 84.9567 143.408 85.391 144.053 85.9898C144.699 86.5885 145.023 87.3751 145.023 88.3495C145.023 89.2359 144.761 90.0137 144.238 90.6828C143.722 91.352 143.012 91.8744 142.108 92.25C141.21 92.6199 140.174 92.8047 139 92.8047C137.209 92.8047 135.783 92.432 134.721 91.6865C133.665 90.9352 133.045 89.9138 132.863 88.6225L136.552 88.4287C136.664 88.9747 136.934 89.3914 137.362 89.679C137.791 89.9608 138.339 90.1017 139.009 90.1017C139.666 90.1017 140.195 89.9754 140.593 89.7231C140.998 89.4648 141.204 89.1331 141.21 88.7281C141.204 88.3877 141.06 88.1089 140.778 87.8917C140.497 87.6685 140.063 87.4984 139.475 87.3809L137.134 86.9143C135.813 86.6502 134.829 86.1922 134.184 85.5407C133.544 84.8892 133.224 84.0586 133.224 83.049C133.224 82.1801 133.458 81.4318 133.928 80.8037C134.404 80.1756 135.07 79.6913 135.926 79.3509C136.79 79.0104 137.8 78.8402 138.956 78.8402C140.664 78.8402 142.008 79.2012 142.988 79.9232C143.975 80.6452 144.549 81.6285 144.714 82.8728ZM162.06 97.6123V90.3746H161.945C161.769 90.7503 161.52 91.123 161.197 91.4929C160.88 91.8568 160.466 92.1591 159.956 92.3998C159.451 92.6404 158.834 92.7608 158.106 92.7608C157.08 92.7608 156.149 92.4966 155.316 91.9683C154.487 91.4342 153.83 90.6505 153.344 89.6174C152.861 88.5784 152.621 87.3046 152.621 85.7961C152.621 84.2464 152.87 82.9579 153.369 81.9307C153.869 80.8976 154.531 80.1257 155.36 79.615C156.193 79.0985 157.106 78.8402 158.097 78.8402C158.855 78.8402 159.486 78.9694 159.991 79.2277C160.501 79.48 160.913 79.797 161.224 80.1785C161.54 80.5542 161.782 80.9241 161.945 81.288H162.104V79.0164H165.802V97.6123H162.06ZM159.295 89.7759C159.899 89.7759 160.41 89.6115 160.827 89.2828C161.25 88.9483 161.573 88.4816 161.796 87.8828C162.025 87.2841 162.139 86.5826 162.139 85.7785C162.139 84.9743 162.027 84.2757 161.804 83.6829C161.581 83.09 161.259 82.6322 160.836 82.3093C160.413 81.9865 159.899 81.825 159.295 81.825C158.679 81.825 158.159 81.9924 157.737 82.327C157.314 82.6615 156.994 83.1253 156.776 83.7181C156.56 84.311 156.451 84.9977 156.451 85.7785C156.451 86.5651 156.56 87.2607 156.776 87.8652C157 88.464 157.32 88.9335 157.737 89.274C158.159 89.6086 158.679 89.7759 159.295 89.7759ZM177.486 86.7822V79.0164H181.237V92.5407H177.635V90.0841H177.495C177.189 90.8765 176.682 91.5134 175.972 91.9947C175.268 92.4761 174.408 92.7167 173.392 92.7167C172.488 92.7167 171.693 92.5113 171.005 92.1004C170.319 91.6894 169.782 91.1054 169.395 90.3482C169.013 89.591 168.819 88.6841 168.813 87.6275V79.0164H172.564V86.9583C172.57 87.7567 172.785 88.3877 173.207 88.8514C173.63 89.3151 174.196 89.547 174.906 89.547C175.358 89.547 175.78 89.4443 176.174 89.2388C176.567 89.0275 176.885 88.7163 177.125 88.3054C177.372 87.8946 177.492 87.3868 177.486 86.7822ZM188.094 92.7959C187.231 92.7959 186.462 92.6463 185.787 92.3469C185.112 92.0416 184.578 91.5926 184.185 90.9998C183.797 90.401 183.603 89.6556 183.603 88.7633C183.603 88.0119 183.742 87.3809 184.017 86.8703C184.293 86.3596 184.668 85.9487 185.144 85.6376C185.619 85.3265 186.159 85.0917 186.764 84.9332C187.375 84.7747 188.014 84.6632 188.684 84.5986C189.47 84.5165 190.104 84.4402 190.585 84.3697C191.067 84.2933 191.416 84.1819 191.633 84.0351C191.851 83.8884 191.959 83.6712 191.959 83.3836V83.3307C191.959 82.7731 191.783 82.3416 191.43 82.0363C191.084 81.7311 190.592 81.5785 189.952 81.5785C189.277 81.5785 188.739 81.7282 188.34 82.0275C187.941 82.321 187.677 82.6909 187.548 83.137L184.079 82.8552C184.255 82.0334 184.602 81.3232 185.118 80.7245C185.634 80.1198 186.3 79.6562 187.116 79.3333C187.939 79.0045 188.889 78.8402 189.97 78.8402C190.72 78.8402 191.439 78.9282 192.127 79.1044C192.819 79.2804 193.433 79.5534 193.966 79.9232C194.507 80.2931 194.932 80.7684 195.243 81.3496C195.554 81.9249 195.71 82.6146 195.71 83.4187V92.5407H192.153V90.6652H192.047C191.83 91.0878 191.54 91.4605 191.176 91.7834C190.812 92.1003 190.374 92.3499 189.864 92.5318C189.353 92.7079 188.763 92.7959 188.094 92.7959ZM189.168 90.2073C189.719 90.2073 190.207 90.0987 190.63 89.8816C191.053 89.6585 191.384 89.3591 191.624 88.9834C191.865 88.6078 191.986 88.1822 191.986 87.7067V86.2716C191.869 86.3479 191.706 86.4183 191.501 86.4829C191.302 86.5415 191.075 86.5973 190.823 86.6502C190.57 86.6972 190.319 86.7411 190.067 86.7822C189.814 86.8174 189.584 86.8498 189.379 86.8791C188.94 86.9436 188.554 87.0464 188.226 87.1873C187.897 87.3282 187.642 87.5189 187.46 87.7596C187.278 87.9944 187.187 88.2878 187.187 88.64C187.187 89.1507 187.372 89.5411 187.742 89.8111C188.117 90.0753 188.592 90.2073 189.168 90.2073ZM202.371 74.5082V92.5407H198.62V74.5082H202.371ZM205.376 92.5407V79.0164H209.127V92.5407H205.376ZM207.259 77.273C206.703 77.273 206.224 77.088 205.825 76.7182C205.431 76.3426 205.235 75.8935 205.235 75.3711C205.235 74.8545 205.431 74.4113 205.825 74.0415C206.224 73.6659 206.703 73.478 207.259 73.478C207.817 73.478 208.293 73.6659 208.686 74.0415C209.085 74.4113 209.285 74.8545 209.285 75.3711C209.285 75.8935 209.085 76.3426 208.686 76.7182C208.293 77.088 207.817 77.273 207.259 77.273ZM219.404 79.0164V81.8339H211.057V79.0164H219.404ZM212.968 92.5407V78.039C212.968 77.0587 213.158 76.2457 213.54 75.6C213.927 74.9543 214.455 74.47 215.125 74.1471C215.794 73.8244 216.554 73.663 217.405 73.663C217.981 73.663 218.506 73.7069 218.982 73.795C219.463 73.8831 219.821 73.9623 220.056 74.0328L219.386 76.8503C219.24 76.8033 219.058 76.7593 218.841 76.7182C218.629 76.6771 218.412 76.6566 218.189 76.6566C217.637 76.6566 217.253 76.7857 217.035 77.0441C216.819 77.2964 216.71 77.6515 216.71 78.1094V92.5407H212.968ZM221.695 92.5407V79.0164H225.446V92.5407H221.695ZM223.58 77.273C223.022 77.273 222.544 77.088 222.144 76.7182C221.751 76.3426 221.555 75.8935 221.555 75.3711C221.555 74.8545 221.751 74.4113 222.144 74.0415C222.544 73.6659 223.022 73.478 223.58 73.478C224.138 73.478 224.613 73.6659 225.007 74.0415C225.406 74.4113 225.605 74.8545 225.605 75.3711C225.605 75.8935 225.406 76.3426 225.007 76.7182C224.613 77.088 224.138 77.273 223.58 77.273ZM234.562 92.8047C233.176 92.8047 231.985 92.5113 230.987 91.9243C229.995 91.3314 229.232 90.5097 228.698 89.4589C228.169 88.4082 227.905 87.199 227.905 85.8313C227.905 84.446 228.173 83.2309 228.707 82.1861C229.247 81.1354 230.013 80.3165 231.005 79.7295C231.997 79.1366 233.177 78.8402 234.544 78.8402C235.724 78.8402 236.757 79.0544 237.643 79.4829C238.53 79.9114 239.231 80.5132 239.748 81.288C240.264 82.0628 240.55 82.9727 240.601 84.0175H237.063C236.962 83.3424 236.698 82.7994 236.27 82.3885C235.848 81.9718 235.292 81.7635 234.606 81.7635C234.024 81.7635 233.517 81.9219 233.083 82.2389C232.654 82.55 232.319 83.0049 232.079 83.6037C231.838 84.2024 231.718 84.9273 231.718 85.7785C231.718 86.6414 231.835 87.3751 232.07 87.9797C232.311 88.5843 232.648 89.0451 233.083 89.362C233.517 89.679 234.024 89.8375 234.606 89.8375C235.034 89.8375 235.418 89.7495 235.76 89.5733C236.106 89.3973 236.39 89.1419 236.613 88.8074C236.842 88.4669 236.992 88.0589 237.063 87.5834H240.601C240.543 88.6166 240.261 89.5264 239.756 90.313C239.258 91.0937 238.568 91.7042 237.687 92.1444C236.807 92.5846 235.765 92.8047 234.562 92.8047ZM246.86 92.7959C245.998 92.7959 245.228 92.6463 244.553 92.3469C243.878 92.0416 243.343 91.5926 242.95 90.9998C242.564 90.401 242.37 89.6556 242.37 88.7633C242.37 88.0119 242.507 87.3809 242.783 86.8703C243.059 86.3596 243.435 85.9487 243.91 85.6376C244.386 85.3265 244.926 85.0917 245.53 84.9332C246.141 84.7747 246.781 84.6632 247.45 84.5986C248.236 84.5165 248.87 84.4402 249.352 84.3697C249.833 84.2933 250.182 84.1819 250.4 84.0351C250.616 83.8884 250.725 83.6712 250.725 83.3836V83.3307C250.725 82.7731 250.55 82.3416 250.197 82.0363C249.851 81.7311 249.357 81.5785 248.718 81.5785C248.043 81.5785 247.506 81.7282 247.107 82.0275C246.708 82.321 246.443 82.6909 246.314 83.137L242.845 82.8552C243.021 82.0334 243.367 81.3232 243.884 80.7245C244.401 80.1198 245.067 79.6562 245.883 79.3333C246.704 79.0045 247.655 78.8402 248.735 78.8402C249.487 78.8402 250.206 78.9282 250.892 79.1044C251.585 79.2804 252.198 79.5534 252.733 79.9232C253.273 80.2931 253.699 80.7684 254.01 81.3496C254.321 81.9249 254.476 82.6146 254.476 83.4187V92.5407H250.919V90.6652H250.813C250.596 91.0878 250.305 91.4605 249.942 91.7834C249.578 92.1003 249.141 92.3499 248.629 92.5318C248.119 92.7079 247.529 92.7959 246.86 92.7959ZM247.934 90.2073C248.486 90.2073 248.973 90.0987 249.396 89.8816C249.818 89.6585 250.15 89.3591 250.391 88.9834C250.631 88.6078 250.751 88.1822 250.751 87.7067V86.2716C250.634 86.3479 250.473 86.4183 250.268 86.4829C250.067 86.5415 249.842 86.5973 249.589 86.6502C249.337 86.6972 249.085 86.7411 248.832 86.7822C248.58 86.8174 248.351 86.8498 248.146 86.8791C247.705 86.9436 247.321 87.0464 246.992 87.1873C246.664 87.3282 246.408 87.5189 246.226 87.7596C246.044 87.9944 245.953 88.2878 245.953 88.64C245.953 89.1507 246.138 89.5411 246.508 89.8111C246.883 90.0753 247.359 90.2073 247.934 90.2073ZM264.58 79.0164V81.8339H256.435V79.0164H264.58ZM258.284 75.7761H262.035V88.3848C262.035 88.731 262.088 89.001 262.194 89.1948C262.299 89.3826 262.447 89.5147 262.634 89.591C262.827 89.6673 263.051 89.7054 263.303 89.7054C263.479 89.7054 263.655 89.6908 263.832 89.6615C264.007 89.6262 264.143 89.5998 264.236 89.5822L264.827 92.3733C264.639 92.432 264.374 92.4995 264.033 92.5758C263.693 92.658 263.279 92.7079 262.793 92.7255C261.889 92.7608 261.096 92.6404 260.415 92.3645C259.741 92.0886 259.214 91.6601 258.839 91.079C258.464 90.4979 258.279 89.7641 258.284 88.8778V75.7761ZM267.023 92.5407V79.0164H270.774V92.5407H267.023ZM268.908 77.273C268.35 77.273 267.871 77.088 267.472 76.7182C267.079 76.3426 266.883 75.8935 266.883 75.3711C266.883 74.8545 267.079 74.4113 267.472 74.0415C267.871 73.6659 268.35 73.478 268.908 73.478C269.465 73.478 269.94 73.6659 270.333 74.0415C270.732 74.4113 270.933 74.8545 270.933 75.3711C270.933 75.8935 270.732 76.3426 270.333 76.7182C269.94 77.088 269.465 77.273 268.908 77.273ZM279.89 92.8047C278.521 92.8047 277.339 92.5142 276.341 91.9331C275.349 91.3461 274.582 90.5302 274.043 89.4853C273.503 88.4346 273.233 87.2166 273.233 85.8313C273.233 84.4342 273.503 83.2133 274.043 82.1684C274.582 81.1177 275.349 80.3018 276.341 79.7207C277.339 79.1337 278.521 78.8402 279.89 78.8402C281.257 78.8402 282.437 79.1337 283.428 79.7207C284.427 80.3018 285.196 81.1177 285.735 82.1684C286.275 83.2133 286.546 84.4342 286.546 85.8313C286.546 87.2166 286.275 88.4346 285.735 89.4853C285.196 90.5302 284.427 91.3461 283.428 91.9331C282.437 92.5142 281.257 92.8047 279.89 92.8047ZM279.906 89.8992C280.529 89.8992 281.048 89.7231 281.465 89.3709C281.882 89.0127 282.197 88.5256 282.407 87.9093C282.625 87.2929 282.733 86.5914 282.733 85.8049C282.733 85.0183 282.625 84.3169 282.407 83.7005C282.197 83.0841 281.882 82.5969 281.465 82.2389C281.048 81.8808 280.529 81.7018 279.906 81.7018C279.279 81.7018 278.75 81.8808 278.322 82.2389C277.899 82.5969 277.579 83.0841 277.363 83.7005C277.151 84.3169 277.045 85.0183 277.045 85.8049C277.045 86.5914 277.151 87.2929 277.363 87.9093C277.579 88.5256 277.899 89.0127 278.322 89.3709C278.75 89.7231 279.279 89.8992 279.906 89.8992ZM292.735 84.7219V92.5407H288.985V79.0164H292.56V81.4024H292.718C293.017 80.6158 293.52 79.9936 294.224 79.5358C294.929 79.072 295.782 78.8402 296.786 78.8402C297.725 78.8402 298.544 79.0457 299.243 79.4566C299.94 79.8675 300.484 80.4544 300.871 81.2176C301.259 81.9748 301.453 82.8787 301.453 83.9294V92.5407H297.701V84.5986C297.708 83.7709 297.496 83.1253 297.068 82.6615C296.639 82.192 296.049 81.9571 295.298 81.9571C294.793 81.9571 294.347 82.0657 293.959 82.2829C293.578 82.5001 293.279 82.817 293.061 83.2338C292.85 83.6447 292.741 84.1407 292.735 84.7219Z" fill="var(--fill-0, #1E1B39)"/>
<path id="Vector_25" d="M58.019 49.7136H56.2323C56.1267 49.1997 55.9418 48.7482 55.6777 48.3592C55.4183 47.9702 55.1014 47.6436 54.7267 47.3794C54.357 47.1105 53.9463 46.9088 53.4949 46.7743C53.0434 46.6399 52.5728 46.5726 52.0828 46.5726C51.1896 46.5726 50.3804 46.7983 49.6551 47.2498C48.9347 47.7012 48.3608 48.3664 47.9334 49.2453C47.5107 50.1242 47.2994 51.2024 47.2994 52.4799C47.2994 53.7574 47.5107 54.8356 47.9334 55.7145C48.3608 56.5934 48.9347 57.2586 49.6551 57.71C50.3804 58.1615 51.1896 58.3872 52.0828 58.3872C52.5728 58.3872 53.0434 58.3199 53.4949 58.1855C53.9463 58.051 54.357 57.8517 54.7267 57.5876C55.1014 57.3186 55.4183 56.9896 55.6777 56.6005C55.9418 56.2068 56.1267 55.7553 56.2323 55.2462H58.019C57.8846 56.0003 57.6395 56.675 57.2842 57.2706C56.9287 57.8661 56.4869 58.3728 55.9586 58.7906C55.4303 59.2036 54.8372 59.5182 54.1792 59.7344C53.5261 59.9504 52.8272 60.0585 52.0828 60.0585C50.8245 60.0585 49.7055 59.7511 48.7258 59.1363C47.746 58.5217 46.9753 57.6475 46.4133 56.5141C45.8514 55.3808 45.5704 54.036 45.5704 52.4799C45.5704 50.9238 45.8514 49.579 46.4133 48.4457C46.9753 47.3123 47.746 46.4381 48.7258 45.8233C49.7055 45.2087 50.8245 44.9013 52.0828 44.9013C52.8272 44.9013 53.5261 45.0093 54.1792 45.2255C54.8372 45.4416 55.4303 45.7585 55.9586 46.1764C56.4869 46.5894 56.9287 47.0937 57.2842 47.6893C57.6395 48.2799 57.8846 48.9548 58.019 49.7136ZM65.1708 60.0873C64.1718 60.0873 63.2953 59.8496 62.5413 59.3742C61.7921 58.8987 61.2061 58.2335 60.7835 57.3786C60.3657 56.5238 60.1568 55.5248 60.1568 54.3818C60.1568 53.2291 60.3657 52.2229 60.7835 51.3632C61.2061 50.5035 61.7921 49.836 62.5413 49.3605C63.2953 48.8851 64.1718 48.6473 65.1708 48.6473C66.1697 48.6473 67.0438 48.8851 67.793 49.3605C68.547 49.836 69.133 50.5035 69.5508 51.3632C69.9734 52.2229 70.1847 53.2291 70.1847 54.3818C70.1847 55.5248 69.9734 56.5238 69.5508 57.3786C69.133 58.2335 68.547 58.8987 67.793 59.3742C67.0438 59.8496 66.1697 60.0873 65.1708 60.0873ZM65.1708 58.5601C65.9296 58.5601 66.5539 58.3656 67.0438 57.9765C67.5337 57.5876 67.8963 57.076 68.1316 56.4421C68.3669 55.8081 68.4846 55.1213 68.4846 54.3818C68.4846 53.6421 68.3669 52.9529 68.1316 52.3142C67.8963 51.6754 67.5337 51.1591 67.0438 50.7654C66.5539 50.3716 65.9296 50.1746 65.1708 50.1746C64.412 50.1746 63.7876 50.3716 63.2977 50.7654C62.8079 51.1591 62.4452 51.6754 62.2099 52.3142C61.9745 52.9529 61.8569 53.6421 61.8569 54.3818C61.8569 55.1213 61.9745 55.8081 62.2099 56.4421C62.4452 57.076 62.8079 57.5876 63.2977 57.9765C63.7876 58.3656 64.412 58.5601 65.1708 58.5601ZM72.78 59.8569V48.7915H74.4226V50.5205H74.5666C74.7971 49.9297 75.1693 49.4711 75.6832 49.1445C76.1971 48.813 76.8142 48.6473 77.5346 48.6473C78.2646 48.6473 78.8722 48.813 79.3572 49.1445C79.8472 49.4711 80.2289 49.9297 80.5026 50.5205H80.6179C80.9013 49.9489 81.3264 49.4951 81.8931 49.1589C82.4597 48.8179 83.1393 48.6473 83.9318 48.6473C84.9211 48.6473 85.7304 48.9572 86.3596 49.5767C86.9887 50.1915 87.3032 51.1496 87.3032 52.451V59.8569H85.6031V52.451C85.6031 51.6346 85.3798 51.0511 84.9332 50.7006C84.4864 50.3499 83.9606 50.1746 83.3555 50.1746C82.5775 50.1746 81.9748 50.4099 81.5473 50.8807C81.1198 51.3465 80.9061 51.9372 80.9061 52.6528V59.8569H79.1771V52.2782C79.1771 51.6491 78.973 51.1423 78.5648 50.7581C78.1566 50.3691 77.6306 50.1746 76.9871 50.1746C76.5453 50.1746 76.1323 50.2922 75.7481 50.5277C75.3686 50.763 75.0612 51.0895 74.8259 51.5074C74.5954 51.9203 74.4801 52.3983 74.4801 52.941V59.8569H72.78ZM90.4118 59.8569V48.7915H92.0543V50.5205H92.1984C92.429 49.9297 92.8011 49.4711 93.315 49.1445C93.8289 48.813 94.446 48.6473 95.1665 48.6473C95.8965 48.6473 96.5039 48.813 96.989 49.1445C97.4789 49.4711 97.8608 49.9297 98.1345 50.5205H98.2497C98.5332 49.9489 98.9582 49.4951 99.5248 49.1589C100.092 48.8179 100.771 48.6473 101.564 48.6473C102.553 48.6473 103.362 48.9572 103.991 49.5767C104.62 50.1915 104.935 51.1496 104.935 52.451V59.8569H103.235V52.451C103.235 51.6346 103.012 51.0511 102.565 50.7006C102.118 50.3499 101.592 50.1746 100.987 50.1746C100.209 50.1746 99.6065 50.4099 99.1791 50.8807C98.7517 51.3465 98.5379 51.9372 98.5379 52.6528V59.8569H96.8089V52.2782C96.8089 51.6491 96.6048 51.1423 96.1966 50.7581C95.7884 50.3691 95.2625 50.1746 94.619 50.1746C94.1771 50.1746 93.764 50.2922 93.3798 50.5277C93.0005 50.763 92.693 51.0895 92.4577 51.5074C92.2272 51.9203 92.1119 52.3983 92.1119 52.941V59.8569H90.4118ZM115.018 55.3326V48.7915H116.717V59.8569H115.018V57.9837H114.902C114.642 58.5457 114.239 59.0235 113.691 59.4173C113.144 59.8064 112.453 60.0009 111.617 60.0009C110.925 60.0009 110.31 59.8496 109.773 59.547C109.235 59.2397 108.812 58.7786 108.505 58.1638C108.197 57.5443 108.044 56.7638 108.044 55.8226V48.7915H109.744V55.7073C109.744 56.5141 109.969 57.1577 110.421 57.638C110.877 58.1182 111.458 58.3584 112.164 58.3584C112.587 58.3584 113.017 58.2503 113.453 58.0342C113.896 57.8181 114.266 57.4867 114.563 57.0401C114.865 56.5934 115.018 56.0243 115.018 55.3326ZM121.532 53.2003V59.8569H119.831V48.7915H121.473V50.5205H121.617C121.877 49.9585 122.271 49.507 122.8 49.1661C123.327 48.8202 124.009 48.6473 124.845 48.6473C125.595 48.6473 126.25 48.8011 126.812 49.1084C127.373 49.411 127.811 49.8721 128.123 50.4916C128.435 51.1063 128.592 51.8844 128.592 52.8257V59.8569H126.891V52.941C126.891 52.0717 126.665 51.3945 126.214 50.9094C125.763 50.4196 125.143 50.1746 124.355 50.1746C123.813 50.1746 123.327 50.2922 122.9 50.5277C122.477 50.763 122.144 51.1063 121.899 51.5578C121.654 52.0093 121.532 52.5568 121.532 53.2003ZM131.698 59.8569V48.7915H133.398V59.8569H131.698ZM132.562 46.9472C132.231 46.9472 131.946 46.8344 131.706 46.6087C131.47 46.3829 131.352 46.1115 131.352 45.7946C131.352 45.4776 131.47 45.2063 131.706 44.9806C131.946 44.7548 132.231 44.642 132.562 44.642C132.893 44.642 133.177 44.7548 133.413 44.9806C133.653 45.2063 133.772 45.4776 133.772 45.7946C133.772 46.1115 133.653 46.3829 133.413 46.6087C133.177 46.8344 132.893 46.9472 132.562 46.9472ZM141.325 48.7915V50.2323H135.59V48.7915H141.325ZM137.262 46.1404H138.961V56.6871C138.961 57.1673 139.031 57.5275 139.17 57.7677C139.314 58.003 139.497 58.1615 139.718 58.2431C139.944 58.3199 140.181 58.3584 140.431 58.3584C140.618 58.3584 140.772 58.3488 140.892 58.3295C141.012 58.3055 141.108 58.2863 141.18 58.2719L141.526 59.7992C141.41 59.8424 141.25 59.8856 141.043 59.9289C140.837 59.9769 140.575 60.0009 140.259 60.0009C139.778 60.0009 139.307 59.8977 138.846 59.6911C138.39 59.4846 138.01 59.17 137.708 58.7474C137.411 58.3248 137.262 57.7917 137.262 57.1481V46.1404ZM144.976 64.0063C144.689 64.0063 144.432 63.9823 144.206 63.9342C143.98 63.8911 143.824 63.8478 143.738 63.8046L144.17 62.3061C144.583 62.4118 144.948 62.4503 145.265 62.4214C145.581 62.3927 145.863 62.2509 146.108 61.9964C146.358 61.7467 146.586 61.3408 146.792 60.7789L147.109 59.9144L143.017 48.7915H144.861L147.916 57.6091H148.032L151.086 48.7915H152.93L148.233 61.4705C148.021 62.042 147.76 62.5151 147.448 62.8897C147.136 63.2692 146.773 63.55 146.36 63.7326C145.952 63.9151 145.49 64.0063 144.976 64.0063Z" fill="var(--fill-0, #9291A5)"/>
</g>
<defs>
<filter id="filter0_d_1304_71" x="0.761719" y="0.508057" width="586.784" height="415.001" filterUnits="userSpaceOnUse" color-interpolation-filters="sRGB">
<feFlood flood-opacity="0" result="BackgroundImageFix"/>
<feColorMatrix in="SourceAlpha" type="matrix" values="0 0 0 0 0 0 0 0 0 0 0 0 0 0 0 0 0 0 127 0" result="hardAlpha"/>
<feOffset dy="2"/>
<feGaussianBlur stdDeviation="3"/>
<feComposite in2="hardAlpha" operator="out"/>
<feColorMatrix type="matrix" values="0 0 0 0 0.0509804 0 0 0 0 0.0392157 0 0 0 0 0.172549 0 0 0 0.08 0"/>
<feBlend mode="normal" in2="BackgroundImageFix" result="effect1_dropShadow_1304_71"/>
<feBlend mode="normal" in="SourceGraphic" in2="effect1_dropShadow_1304_71" result="shape"/>
</filter>
</defs>
</svg>
