<svg preserveAspectRatio="none" width="100%" height="100%" overflow="visible" style="display: block;" viewBox="0 0 50.1101 48.8811" fill="none" xmlns="http://www.w3.org/2000/svg">
<g id="emoji_00000090273456294284901140000005836258626247210406_">
<path id="Vector" d="M50.1101 48.8811L43.996 37.5436C46.6022 33.6977 48.1247 29.0579 48.1247 24.0623C48.1247 10.7732 37.3517 0 24.0623 0C10.7729 0 0 10.773 0 24.0623C0 37.3517 10.7729 48.1247 24.0623 48.1247C29.1578 48.1247 33.8825 46.5395 37.7726 43.8371L50.1101 48.8811Z" fill="var(--fill-0, #048FFF)"/>
<g id="Group">
<path id="Vector_2" d="M36.8833 24.3445C38.4767 26.2857 38.5171 28.0086 36.2803 29.4108C37.9389 31.1902 36.491 34.1423 34.8327 34.6582C28.3861 36.0694 23.113 35.9009 18.6386 34.6582C15.6196 31.8684 15.9929 22.688 20.2369 20.0022C23.8892 19.2098 25.6499 18.3435 25.7858 10.0053C28.508 9.71115 31.6331 9.27588 30.4901 18.1928H34.8988C37.2467 18.1928 39.0519 20.4214 38.4004 22.6771C38.1714 23.4706 37.686 24.0441 36.8833 24.3445Z" fill="var(--fill-0, white)"/>
<path id="Vector_3" d="M18.6398 20.0023C14.3959 22.688 14.0226 31.8682 17.0415 34.6579H12.2418C8.01163 30.9814 9.20306 22.771 13.2823 20.0023H18.6398Z" fill="var(--fill-0, white)"/>
</g>
</g>
</svg>
