<svg preserveAspectRatio="none" width="100%" height="100%" overflow="visible" style="display: block;" viewBox="0 0 111.066 52.0289" fill="none" xmlns="http://www.w3.org/2000/svg">
<g id="bubble_chat">
<path id="Vector" d="M101.378 36.2453H9.68843C4.33758 36.2453 0 31.9078 0 26.5569V9.68843C0 4.33758 4.33758 0 9.68843 0H101.378C106.729 0 111.066 4.33758 111.066 9.68843V26.5569C111.066 31.9075 106.728 36.2453 101.378 36.2453Z" fill="var(--fill-0, #E2F0FB)"/>
<g id="Group">
<path id="Vector_2" d="M52.9915 12.7422H13.2626C11.8622 12.7422 10.7272 11.607 10.7272 10.2069C10.7272 8.80655 11.8624 7.67157 13.2626 7.67157H52.9915C54.3919 7.67157 55.5269 8.80679 55.5269 10.2069C55.5271 11.607 54.3919 12.7422 52.9915 12.7422Z" fill="var(--fill-0, #048FFF)"/>
<path id="Vector_3" d="M98.7605 20.658H12.3064C11.4342 20.658 10.7274 19.951 10.7274 19.079C10.7274 18.207 11.4344 17.5 12.3064 17.5H98.7605C99.6327 17.5 100.339 18.207 100.339 19.079C100.339 19.9512 99.6324 20.658 98.7605 20.658Z" fill="var(--fill-0, #048FFF)"/>
<path id="Vector_4" d="M98.7605 28.5737H12.3064C11.4342 28.5737 10.7274 27.8667 10.7274 26.9947C10.7274 26.1225 11.4344 25.4157 12.3064 25.4157H98.7605C99.6327 25.4157 100.339 26.1228 100.339 26.9947C100.339 27.8667 99.6324 28.5737 98.7605 28.5737Z" fill="var(--fill-0, #048FFF)"/>
</g>
<path id="Vector_5" d="M77.568 36.2459L75.5946 52.0289L91.3119 36.2459H77.568Z" fill="var(--fill-0, #E2F0FB)"/>
</g>
</svg>
