<svg preserveAspectRatio="none" width="100%" height="100%" overflow="visible" style="display: block;" viewBox="0 0 50.1101 48.8809" fill="none" xmlns="http://www.w3.org/2000/svg">
<g id="emoji">
<path id="Vector" d="M0 48.8809L6.11419 37.5436C3.50797 33.6977 1.98547 29.0579 1.98547 24.0623C1.98547 10.7732 12.7584 0 26.0478 0C39.3372 0 50.1101 10.773 50.1101 24.0623C50.1101 37.3517 39.3372 48.1247 26.0478 48.1247C20.9523 48.1247 16.2276 46.5395 12.3376 43.8372L0 48.8809Z" fill="var(--fill-0, #F15C2A)"/>
<path id="Vector_2" d="M26.0469 36.5991C19.4169 32.9685 13.5895 28.8528 13.2057 21.4459C13.2057 17.7187 16.2271 14.6973 19.9543 14.6973C22.6411 14.6973 24.9609 16.2676 26.0469 18.5403C27.1327 16.2676 29.4527 14.6973 32.1395 14.6973C35.8667 14.6973 38.8881 17.7187 38.8881 21.4459C38.5043 28.8528 32.6771 32.9685 26.0469 36.5991Z" fill="var(--fill-0, white)"/>
</g>
</svg>
