<svg preserveAspectRatio="none" width="100%" height="100%" overflow="visible" style="display: block;" viewBox="0 0 233.494 54.5482" fill="none" xmlns="http://www.w3.org/2000/svg">
<g id="rating">
<path id="Vector" d="M216.776 54.5482H16.718C7.485 54.5482 0 47.0634 0 37.8303V16.718C0 7.485 7.48476 0 16.718 0H216.776C226.009 0 233.494 7.48476 233.494 16.718V37.8303C233.494 47.0634 226.009 54.5482 216.776 54.5482Z" fill="var(--fill-0, #FFF2E1)"/>
<g id="Group">
<path id="Vector_2" d="M36.8761 13.1873L39.3531 20.8109C39.5825 21.5172 40.2406 21.9955 40.9833 21.9955H48.9992C50.6597 21.9955 51.3502 24.1203 50.0068 25.0965L43.5219 29.8081C42.9213 30.2446 42.6698 31.0185 42.8993 31.7246L45.3762 39.3482C45.8895 40.9274 44.0817 42.2408 42.7383 41.2646L36.2535 36.553C35.6526 36.1165 34.8392 36.1165 34.2383 36.553L27.7534 41.2646C26.41 42.2405 24.6023 40.9274 25.1156 39.3482L27.5925 31.7246C27.822 31.0183 27.5705 30.2446 26.9698 29.8081L20.485 25.0965C19.1416 24.1203 19.8321 21.9955 21.4926 21.9955H29.5085C30.2512 21.9955 30.9093 21.5172 31.1387 20.8109L33.6156 13.1873C34.1289 11.6081 36.3631 11.6081 36.8761 13.1873Z" fill="var(--fill-0, #F15C2A)"/>
<path id="Vector_3" d="M77.6261 13.1872L80.103 20.8109C80.3325 21.5172 80.9906 21.9954 81.7333 21.9954H89.7491C91.4096 21.9954 92.1001 24.1203 90.7567 25.0965L84.2719 29.8081C83.6709 30.2446 83.4198 31.0184 83.6492 31.7245L86.1261 39.3481C86.6394 40.9274 84.8317 42.2407 83.4883 41.2646L77.0034 36.5529C76.4027 36.1165 75.5891 36.1165 74.9882 36.5529L68.5034 41.2646C67.16 42.2405 65.3523 40.9274 65.8655 39.3481L68.3424 31.7245C68.5719 31.0182 68.3205 30.2446 67.7198 29.8081L61.2349 25.0965C59.8915 24.1203 60.582 21.9954 62.2425 21.9954H70.2584C71.0011 21.9954 71.6592 21.5172 71.8886 20.8109L74.3656 13.1872C74.8786 11.608 77.1131 11.608 77.6261 13.1872Z" fill="var(--fill-0, #F15C2A)"/>
<path id="Vector_4" d="M118.378 13.1872L120.855 20.8109C121.084 21.5172 121.742 21.9954 122.485 21.9954H130.501C132.161 21.9954 132.852 24.1203 131.509 25.0965L125.024 29.8081C124.423 30.2446 124.172 31.0184 124.401 31.7245L126.878 39.3481C127.391 40.9274 125.583 42.2407 124.24 41.2646L117.755 36.5529C117.155 36.1165 116.341 36.1165 115.74 36.5529L109.255 41.2646C107.912 42.2405 106.104 40.9274 106.617 39.3481L109.094 31.7245C109.324 31.0182 109.072 30.2446 108.472 29.8081L101.987 25.0965C100.643 24.1203 101.334 21.9954 102.994 21.9954H111.01C111.753 21.9954 112.411 21.5172 112.64 20.8109L115.117 13.1872C115.63 11.608 117.865 11.608 118.378 13.1872Z" fill="var(--fill-0, #F15C2A)"/>
<path id="Vector_5" d="M159.127 13.1872L161.604 20.8109C161.833 21.5172 162.491 21.9954 163.234 21.9954H171.25C172.91 21.9954 173.601 24.1203 172.257 25.0965L165.773 29.8081C165.172 30.2446 164.92 31.0184 165.15 31.7245L167.627 39.3481C168.14 40.9274 166.333 42.2407 164.989 41.2646L158.504 36.5529C157.904 36.1165 157.09 36.1165 156.489 36.5529L150.004 41.2646C148.661 42.2405 146.853 40.9274 147.366 39.3481L149.843 31.7245C150.073 31.0182 149.821 30.2446 149.221 29.8081L142.736 25.0965C141.392 24.1203 142.083 21.9954 143.743 21.9954H151.759C152.502 21.9954 153.16 21.5172 153.39 20.8109L155.866 13.1872C156.379 11.608 158.614 11.608 159.127 13.1872Z" fill="var(--fill-0, #F15C2A)"/>
<path id="Vector_6" d="M199.877 13.1872L202.354 20.8109C202.584 21.5172 203.242 21.9954 203.985 21.9954H212.001C213.661 21.9954 214.351 24.1203 213.008 25.0965L206.523 29.8081C205.923 30.2446 205.671 31.0184 205.901 31.7245L208.378 39.3481C208.891 40.9274 207.083 42.2407 205.74 41.2646L199.255 36.5529C198.654 36.1165 197.841 36.1165 197.24 36.5529L190.755 41.2646C189.411 42.2405 187.604 40.9274 188.117 39.3481L190.594 31.7245C190.823 31.0182 190.572 30.2446 189.971 29.8081L183.486 25.0965C182.143 24.1203 182.833 21.9954 184.494 21.9954H192.51C193.252 21.9954 193.911 21.5172 194.14 20.8109L196.617 13.1872C197.13 11.608 199.364 11.608 199.877 13.1872Z" fill="var(--fill-0, #CECECE)"/>
</g>
</g>
</svg>
