<svg preserveAspectRatio="none" width="100%" height="100%" overflow="visible" style="display: block;" viewBox="0 0 40 40" fill="none" xmlns="http://www.w3.org/2000/svg">
<g id="global">
<path id="Vector" d="M36.6667 20C36.6667 10.7952 29.2047 3.33333 20 3.33333C10.7952 3.33333 3.33333 10.7952 3.33333 20C3.33333 29.2047 10.7952 36.6667 20 36.6667C29.2047 36.6667 36.6667 29.2047 36.6667 20Z" stroke="var(--stroke-0, #7B19D8)" stroke-width="2.5"/>
<path id="Vector_2" d="M33.3333 9.49832C31.7755 9.6106 29.7802 10.2137 28.3965 12.0046C25.8975 15.2394 23.3983 15.5093 21.7323 14.431C19.2332 12.8137 21.3333 10.1939 18.4002 8.77025C16.4885 7.84237 16.222 5.31742 17.286 3.33333" stroke="var(--stroke-0, #7B19D8)" stroke-width="2.5" stroke-linejoin="round"/>
<path id="Vector_3" d="M3.33333 18.3333C4.60417 19.4368 6.3841 20.447 8.48123 20.447C12.8141 20.447 13.6806 21.2748 13.6806 24.5863C13.6806 27.8978 13.6806 27.8978 14.5472 30.3813C15.1108 31.9968 15.3079 33.6123 14.1843 35" stroke="var(--stroke-0, #7B19D8)" stroke-width="2.5" stroke-linejoin="round"/>
<path id="Vector_4" d="M36.6667 22.4205C35.1882 21.5685 33.3333 21.218 31.4557 22.5675C27.8628 25.1496 25.3857 23.01 24.2698 25.1481C22.6275 28.2958 28.4928 29.2851 23.3333 36.6666" stroke="var(--stroke-0, #7B19D8)" stroke-width="2.5" stroke-linejoin="round"/>
</g>
</svg>
