<svg preserveAspectRatio="none" width="100%" height="100%" overflow="visible" style="display: block;" viewBox="0 0 34 34" fill="none" xmlns="http://www.w3.org/2000/svg">
<g id="id-verified">
<path id="Vector" d="M22.9174 26.1458C23.3433 26.3502 23.8714 26.8784 24.127 27.3044C24.2121 27.9005 24.6381 25.6007 26.7164 24.2379M30.4583 25.5014C30.4583 28.6309 27.9212 31.168 24.7917 31.168C21.6621 31.168 19.125 28.6309 19.125 25.5014C19.125 22.3717 21.6621 19.8347 24.7917 19.8347C27.9212 19.8347 30.4583 22.3717 30.4583 25.5014Z" stroke="var(--stroke-0, #7B19D8)" stroke-width="2.125" stroke-linecap="round"/>
<path id="Vector_2" d="M15.5944 19.8347C17.1592 19.8347 18.4277 18.5662 18.4277 17.0014C18.4277 15.4366 17.1592 14.168 15.5944 14.168C14.0296 14.168 12.7611 15.4366 12.7611 17.0014C12.7611 18.5662 14.0296 19.8347 15.5944 19.8347Z" stroke="var(--stroke-0, #7B19D8)" stroke-width="2.125"/>
<path id="Vector_3" d="M10.6358 25.5014C11.9817 24.2264 13.115 23.5181 15.6297 23.3764M27.6359 16.2931C27.6359 15.1597 27.6713 11.6889 27.4942 10.2722C27.388 9.10347 27.0692 7.50972 25.6172 6.58888C24.7317 6.12847 23.8817 5.70347 19.8088 5.66805M11.2733 5.66805C8.22751 5.66805 5.85459 5.91597 4.68586 7.36805C3.69419 8.72332 3.75321 10.2722 3.65876 10.7681C3.44626 13.4243 3.58793 22.7035 3.58793 24.2618C3.58793 25.891 3.48168 29.2025 5.71293 30.3181C7.62543 31.2743 9.60876 31.1327 16.338 31.1681" stroke="var(--stroke-0, #7B19D8)" stroke-width="2.125" stroke-linecap="round"/>
<path id="Vector_4" d="M15.3817 2.83482C14.5317 2.83482 13.8233 2.83482 13.115 3.57857C12.5129 4.14523 12.6063 4.64564 12.3713 5.52648C12.0404 6.76607 11.8751 7.41983 12.3359 7.93482C12.7582 8.48774 13.4682 8.48954 14.0951 8.49111L14.1067 8.49116C14.7088 8.53378 16.7325 8.51426 17.3297 8.49116C17.9711 8.46631 18.4875 8.43065 18.9234 7.86398C19.313 7.35752 19.0819 6.51469 18.8526 5.63273C18.6262 4.76256 18.7109 4.32232 18.1088 3.57857C17.2588 2.72857 16.2317 2.83482 15.3817 2.83482Z" stroke="var(--stroke-0, #7B19D8)" stroke-width="2.125" stroke-linecap="round"/>
</g>
</svg>
