<svg preserveAspectRatio="none" width="100%" height="100%" overflow="visible" style="display: block;" viewBox="0 0 48 48" fill="none" xmlns="http://www.w3.org/2000/svg">
<g id="user-multiple">
<path id="Vector" d="M26 22C26 17.5817 22.4182 14 18 14C13.5817 14 10 17.5817 10 22C10 26.4182 13.5817 30 18 30C22.4182 30 26 26.4182 26 22Z" stroke="var(--stroke-0, white)" stroke-width="3" stroke-linecap="round" stroke-linejoin="round"/>
<path id="Vector_2" d="M22.0772 15.1155C22.0262 14.7509 22 14.3785 22 14C22 9.58172 25.5818 6 30 6C34.4182 6 38 9.58172 38 14C38 18.4183 34.4182 22 30 22C28.5108 22 27.1168 21.5932 25.9228 20.8846" stroke="var(--stroke-0, white)" stroke-width="3" stroke-linecap="round" stroke-linejoin="round"/>
<path id="Vector_3" d="M30 42C30 35.3726 24.6274 30 18 30C11.3726 30 6 35.3726 6 42" stroke="var(--stroke-0, white)" stroke-width="3" stroke-linecap="round" stroke-linejoin="round"/>
<path id="Vector_4" d="M42 34C42 27.3726 36.6274 22 30 22" stroke="var(--stroke-0, white)" stroke-width="3" stroke-linecap="round" stroke-linejoin="round"/>
</g>
</svg>
