<svg preserveAspectRatio="none" width="100%" height="100%" overflow="visible" style="display: block;" viewBox="0 0 30 30" fill="none" xmlns="http://www.w3.org/2000/svg">
<g id="web-security">
<path id="Vector" d="M23.75 25.625C24.2819 25.3863 24.7368 25.0765 25.136 24.6744C26.875 22.9224 26.875 20.1026 26.875 14.4631C26.875 8.82368 26.875 6.00393 25.136 4.25196C23.3969 2.5 20.5979 2.5 15 2.5C9.40207 2.5 6.60311 2.5 4.86405 4.25196C3.125 6.00393 3.125 8.82368 3.125 14.4631C3.125 20.1026 3.125 22.9224 4.86405 24.6744C5.2632 25.0765 5.71816 25.3863 6.25 25.625" stroke="var(--stroke-0, #2F6BED)" stroke-width="1.875" stroke-linecap="round"/>
<path id="Vector_2" d="M3.125 10.625H26.875" stroke="var(--stroke-0, #2F6BED)" stroke-width="1.875" stroke-linejoin="round"/>
<path id="Vector_3" d="M8.75 6.875H8.76122" stroke="var(--stroke-0, #2F6BED)" stroke-width="2.5" stroke-linecap="round" stroke-linejoin="round"/>
<path id="Vector_4" d="M13.75 6.875H13.7612" stroke="var(--stroke-0, #2F6BED)" stroke-width="2.5" stroke-linecap="round" stroke-linejoin="round"/>
<path id="Vector_5" d="M12.8245 20.4725C11.4745 20.4725 10.8964 21.4469 10.7464 22.0466C10.5964 22.6462 10.5964 24.82 10.6864 25.7194C10.9864 26.8437 11.7364 27.3085 12.4714 27.4584C13.1464 27.5184 15.9964 27.4959 16.8214 27.4959C18.0214 27.5184 18.9214 27.0686 19.2964 25.7194C19.3714 25.2696 19.4464 22.7961 19.2589 22.0466C18.8614 20.8472 17.95 20.4725 17.2 20.4725M12.8245 20.4725H17.2M12.8245 20.4725C12.8245 20.3975 12.8227 19.4395 12.8245 18.8966C12.8261 18.4005 12.7825 17.9222 13.0195 17.4845C13.9075 15.7185 16.4575 15.8984 17.0875 17.6974C17.1966 17.9935 17.2032 18.463 17.2 18.8966C17.1959 19.4506 17.2 20.4725 17.2 20.4725" stroke="var(--stroke-0, #2F6BED)" stroke-width="1.875" stroke-linecap="round"/>
</g>
</svg>
