<svg preserveAspectRatio="none" width="100%" height="100%" overflow="visible" style="display: block;" viewBox="0 0 40 40" fill="none" xmlns="http://www.w3.org/2000/svg">
<g id="artificial-intelligence-03">
<path id="Vector" d="M26.6667 36.6667V35.8333C26.6667 33.9923 28.2202 32.5008 29.8705 31.685C31.4743 30.8923 32.8238 29.5852 32.9942 28.0522L33.3333 25L36.6667 23.3333L32.5 17.0833C32.5 9.48942 26.3438 3.33333 18.75 3.33333C16.8267 3.33333 14.9956 3.72823 13.3333 4.44137M10.8333 28.327V36.6667M10.8333 28.327C8.56545 26.7273 6.80313 24.4587 5.83333 21.8083M10.8333 28.327C12.0844 29.2095 13.4894 29.8885 15 30.3158" stroke="var(--stroke-0, #7B19D8)" stroke-width="2.5" stroke-linecap="round" stroke-linejoin="round"/>
<path id="Vector_2" d="M4.58333 5.41667L10 9.16667H16.6667M5.83333 5.41667C5.83333 6.10702 5.27368 6.66667 4.58333 6.66667C3.89298 6.66667 3.33333 6.10702 3.33333 5.41667C3.33333 4.72632 3.89298 4.16667 4.58333 4.16667C5.27368 4.16667 5.83333 4.72632 5.83333 5.41667Z" stroke="var(--stroke-0, #7B19D8)" stroke-width="2.5" stroke-linecap="round" stroke-linejoin="round"/>
<path id="Vector_3" d="M4.58333 14.5833H16.6667M5.83333 14.5833C5.83333 15.2737 5.27368 15.8333 4.58333 15.8333C3.89298 15.8333 3.33333 15.2737 3.33333 14.5833C3.33333 13.893 3.89298 13.3333 4.58333 13.3333C5.27368 13.3333 5.83333 13.893 5.83333 14.5833Z" stroke="var(--stroke-0, #7B19D8)" stroke-width="2.5" stroke-linecap="round" stroke-linejoin="round"/>
</g>
</svg>
