<svg preserveAspectRatio="none" width="100%" height="100%" overflow="visible" style="display: block;" viewBox="0 0 152 152" fill="none" xmlns="http://www.w3.org/2000/svg">
<g id="Hero level text" filter="url(#filter0_d_1325_73)">
<rect x="52" y="52" width="48" height="48" rx="24" fill="var(--fill-0, white)"/>
<rect x="52.75" y="52.75" width="46.5" height="46.5" rx="23.25" stroke="var(--stroke-0, #F5F5F5)" stroke-width="1.5" stroke-linecap="round" stroke-linejoin="round"/>
<path id="Vector" d="M76 63.1914C68.9259 63.1914 63.1914 68.926 63.1914 76C63.1914 83.074 68.9259 88.8086 76 88.8086C83.074 88.8086 88.8086 83.074 88.8086 76C88.8086 68.926 83.0739 63.1914 76 63.1914ZM72.5826 82.1924H69.7704V73.1068H72.5826V82.1924ZM71.1631 71.9169C70.2446 71.9169 69.5001 71.1663 69.5001 70.2405C69.5001 69.3146 70.2447 68.564 71.1631 68.564C72.0814 68.564 72.826 69.3146 72.826 70.2405C72.8261 71.1664 72.0815 71.9169 71.1631 71.9169ZM83.1215 82.1924H80.3229V77.4232C80.3229 76.1151 79.8261 75.385 78.7918 75.385C77.6661 75.385 77.078 76.1454 77.078 77.4232V82.1924H74.3807V73.1068H77.078V74.3304C77.078 74.3304 77.8894 72.8296 79.8159 72.8296C81.7425 72.8296 83.1216 74.006 83.1216 76.4395L83.1215 82.1924Z" fill="url(#paint0_linear_1325_73)"/>
</g>
<defs>
<filter id="filter0_d_1325_73" x="0" y="0" width="152" height="152" filterUnits="userSpaceOnUse" color-interpolation-filters="sRGB">
<feFlood flood-opacity="0" result="BackgroundImageFix"/>
<feColorMatrix in="SourceAlpha" type="matrix" values="0 0 0 0 0 0 0 0 0 0 0 0 0 0 0 0 0 0 127 0" result="hardAlpha"/>
<feMorphology radius="16" operator="erode" in="SourceAlpha" result="effect1_dropShadow_1325_73"/>
<feOffset/>
<feGaussianBlur stdDeviation="34"/>
<feComposite in2="hardAlpha" operator="out"/>
<feColorMatrix type="matrix" values="0 0 0 0 0.945098 0 0 0 0 0.360784 0 0 0 0 0.164706 0 0 0 0.07 0"/>
<feBlend mode="normal" in2="BackgroundImageFix" result="effect1_dropShadow_1325_73"/>
<feBlend mode="normal" in="SourceGraphic" in2="effect1_dropShadow_1325_73" result="shape"/>
</filter>
<linearGradient id="paint0_linear_1325_73" x1="66.9429" y1="66.943" x2="85.057" y2="85.057" gradientUnits="userSpaceOnUse">
<stop stop-color="#2489BE"/>
<stop offset="1" stop-color="#0575B3"/>
</linearGradient>
</defs>
</svg>
