<svg preserveAspectRatio="none" width="100%" height="100%" overflow="visible" style="display: block;" viewBox="0 0 30 30" fill="none" xmlns="http://www.w3.org/2000/svg">
<g id="mobile-programming-01">
<path id="Vector" d="M6.25 10C6.263 6.69451 6.38501 4.92626 7.52986 3.78141C8.81126 2.5 10.8737 2.5 14.9985 2.5C19.1233 2.5 21.1856 2.5 22.467 3.78141C23.6119 4.92626 23.7339 6.69451 23.7469 10M6.25 20C6.263 23.3055 6.38501 25.0737 7.52986 26.2186C8.81126 27.5 10.8737 27.5 14.9985 27.5C19.1233 27.5 21.1856 27.5 22.467 26.2186C23.6119 25.0737 23.7339 23.3055 23.7469 20" stroke="var(--stroke-0, #9154E1)" stroke-width="1.875" stroke-linecap="round"/>
<path id="Vector_2" d="M13.75 23.75H16.25" stroke="var(--stroke-0, #9154E1)" stroke-width="1.875" stroke-linecap="round" stroke-linejoin="round"/>
<path id="Vector_3" d="M20 12.5L21.5331 13.8215C22.1777 14.377 22.5 14.6549 22.5 15C22.5 15.3451 22.1777 15.623 21.5331 16.1785L20 17.5" stroke="var(--stroke-0, #9154E1)" stroke-width="1.875" stroke-linecap="round" stroke-linejoin="round"/>
<path id="Vector_4" d="M10 12.5L8.46682 13.8215C7.82227 14.377 7.5 14.6549 7.5 15C7.5 15.3451 7.82227 15.623 8.46682 16.1785L10 17.5" stroke="var(--stroke-0, #9154E1)" stroke-width="1.875" stroke-linecap="round" stroke-linejoin="round"/>
<path id="Vector_5" d="M16.25 11.25L13.75 18.75" stroke="var(--stroke-0, #9154E1)" stroke-width="1.875" stroke-linecap="round" stroke-linejoin="round"/>
</g>
</svg>
