<svg preserveAspectRatio="none" width="100%" height="100%" overflow="visible" style="display: block;" viewBox="0 0 30 30" fill="none" xmlns="http://www.w3.org/2000/svg">
<g id="cloud-saving-done-02">
<path id="Vector" d="M13.3204 21.0982C12.853 20.8754 12.2935 21.0735 12.0705 21.5407C11.8476 22.0081 12.0457 22.5676 12.513 22.7906L13.3204 21.0982ZM14.3055 23.3334L13.4979 23.8092C13.6736 24.1076 13.9997 24.2849 14.3457 24.27C14.6917 24.2551 15.0015 24.0506 15.1511 23.7383L14.3055 23.3334ZM17.5277 20.6866C17.9836 20.4411 18.1542 19.8726 17.9089 19.4167C17.6634 18.9609 17.0949 18.7903 16.639 19.0356L17.5277 20.6866ZM20.3125 21.25C20.3125 24.184 17.934 26.5625 15 26.5625V28.4375C18.9695 28.4375 22.1875 25.2195 22.1875 21.25H20.3125ZM15 26.5625C12.066 26.5625 9.6875 24.184 9.6875 21.25H7.8125C7.8125 25.2195 11.0304 28.4375 15 28.4375V26.5625ZM9.6875 21.25C9.6875 18.316 12.066 15.9375 15 15.9375V14.0625C11.0304 14.0625 7.8125 17.2805 7.8125 21.25H9.6875ZM15 15.9375C17.934 15.9375 20.3125 18.316 20.3125 21.25H22.1875C22.1875 17.2805 18.9695 14.0625 15 14.0625V15.9375ZM12.9166 21.9445C12.513 22.7906 12.5134 22.7909 12.513 22.7906C12.5129 22.7906 12.512 22.7901 12.5118 22.79C12.5121 22.7901 12.5114 22.7899 12.5118 22.79C12.5111 22.7896 12.5092 22.7888 12.5086 22.7885C12.5074 22.7879 12.5063 22.7874 12.5054 22.7869C12.5035 22.786 12.5024 22.7854 12.5019 22.7851C12.501 22.7847 12.5027 22.7856 12.507 22.7879C12.5156 22.7925 12.5339 22.8026 12.5602 22.8187C12.613 22.8511 12.6968 22.9067 12.7979 22.9886C13.0004 23.1526 13.2671 23.4176 13.4979 23.8092L15.1133 22.8574C14.7488 22.2388 14.321 21.8094 13.9779 21.5315C13.8062 21.3924 13.6544 21.2902 13.5398 21.22C13.4824 21.1849 13.434 21.1575 13.3967 21.1375C13.3782 21.1275 13.3624 21.1192 13.3495 21.1127C13.3431 21.1095 13.3375 21.1066 13.3326 21.1042C13.3301 21.103 13.3279 21.102 13.3259 21.101C13.3249 21.1005 13.3239 21.1 13.323 21.0995C13.3225 21.0994 13.322 21.0991 13.3216 21.0989C13.3217 21.0989 13.3214 21.0988 13.3216 21.0989C13.3212 21.0988 13.3204 21.0982 12.9166 21.9445ZM14.3055 23.3334C15.1511 23.7383 15.1511 23.7381 15.1511 23.7383C15.1514 23.7378 15.1517 23.737 15.1526 23.7352C15.1542 23.7317 15.1571 23.7259 15.1612 23.7176C15.1692 23.7011 15.182 23.6756 15.1991 23.642C15.2332 23.5748 15.2848 23.4757 15.3514 23.3534C15.4854 23.1077 15.6781 22.7732 15.9134 22.4172C16.4119 21.6627 16.9982 20.9716 17.5277 20.6866L16.639 19.0356C15.6664 19.5591 14.8639 20.6042 14.349 21.3836C14.0775 21.7946 13.8575 22.1766 13.7053 22.4556C13.629 22.5956 13.569 22.711 13.5275 22.7925C13.5067 22.8334 13.4906 22.8659 13.4792 22.8889C13.4736 22.9004 13.4691 22.9095 13.466 22.9161C13.4644 22.9194 13.463 22.9221 13.462 22.9241C13.4615 22.9251 13.4611 22.926 13.4608 22.9268C13.4609 22.9265 13.4606 22.9271 13.4608 22.9268C13.4606 22.927 13.4602 22.928 13.4601 22.928C13.4601 22.9282 13.46 22.9284 14.3055 23.3334Z" fill="var(--fill-0, #9154E1)"/>
<path id="Vector_2" d="M21.875 10V9.0625H21.8727L21.875 10ZM11.9375 10.7495C12.3514 11.0605 12.9391 10.9771 13.2501 10.5631C13.5611 10.1492 13.4778 9.56149 13.0638 9.25048L11.9375 10.7495ZM24.4438 19.5467C24.0109 19.831 23.8904 20.4121 24.1746 20.845C24.4588 21.2778 25.04 21.3983 25.4729 21.1141L24.4438 19.5467ZM4.51846 20.8104C4.93679 21.1155 5.52324 21.0238 5.82835 20.6054C6.13345 20.1871 6.04168 19.6006 5.62335 19.2955L4.51846 20.8104ZM20.2906 12.0733C20.0549 12.5342 20.2376 13.0991 20.6986 13.3347C21.1596 13.5704 21.7245 13.3878 21.9601 12.9268L20.2906 12.0733ZM15 3.4375C18.2792 3.4375 20.9375 6.09581 20.9375 9.375H22.8125C22.8125 5.06027 19.3148 1.5625 15 1.5625V3.4375ZM21.875 10.9375C24.4639 10.9375 26.5625 13.0361 26.5625 15.625H28.4375C28.4375 12.0006 25.4994 9.0625 21.875 9.0625V10.9375ZM21.8493 10.9376L21.8773 10.9375L21.8727 9.0625L21.8446 9.06258L21.8493 10.9376ZM20.9375 9.375C20.9375 9.55758 20.9293 9.73799 20.9133 9.91593L22.7806 10.0842C22.8018 9.85041 22.8125 9.61384 22.8125 9.375H20.9375ZM3.4375 15C3.4375 12.2384 5.54537 9.96803 8.23934 9.71166L8.06171 7.8451C4.41457 8.19216 1.5625 11.2624 1.5625 15H3.4375ZM8.23934 9.71166C8.40716 9.69569 8.57749 9.6875 8.75 9.6875V7.8125C8.51809 7.8125 8.28849 7.82351 8.06171 7.8451L8.23934 9.71166ZM9.08459 8.85867C9.34565 5.82172 11.8949 3.4375 15 3.4375V1.5625C10.9132 1.5625 7.56018 4.69982 7.21648 8.69809L9.08459 8.85867ZM8.75 9.6875C9.94726 9.6875 11.0496 10.0824 11.9375 10.7495L13.0638 9.25048C11.8623 8.34779 10.3673 7.8125 8.75 7.8125V9.6875ZM26.5625 15.625C26.5625 17.2643 25.7219 18.7076 24.4438 19.5467L25.4729 21.1141C27.2565 19.943 28.4375 17.9221 28.4375 15.625H26.5625ZM5.62335 19.2955C4.29659 18.3279 3.4375 16.7642 3.4375 15H1.5625C1.5625 17.3886 2.72859 19.5049 4.51846 20.8104L5.62335 19.2955ZM20.9133 9.91593C20.8438 10.6876 20.6266 11.4158 20.2906 12.0733L21.9601 12.9268C22.4031 12.0601 22.6891 11.0997 22.7806 10.0842L20.9133 9.91593Z" fill="var(--fill-0, #9154E1)"/>
</g>
</svg>
