<svg preserveAspectRatio="none" width="100%" height="100%" overflow="visible" style="display: block;" viewBox="0 0 33.416 33.416" fill="none" xmlns="http://www.w3.org/2000/svg">
<g id="Group 29">
<path id="Vector" d="M16.708 33.416C25.9356 33.416 33.416 25.9356 33.416 16.708C33.416 7.48042 25.9356 0 16.708 0C7.48042 0 0 7.48042 0 16.708C0 25.9356 7.48042 33.416 16.708 33.416Z" fill="var(--fill-0, white)"/>
<path id="Vector_2" fill-rule="evenodd" clip-rule="evenodd" d="M16.7073 3.26873C24.1294 3.26873 30.1462 9.28555 30.1462 16.7077C30.1462 24.1298 24.1294 30.1466 16.7073 30.1466C9.28515 30.1466 3.26833 24.1298 3.26833 16.7077C3.26833 9.28555 9.28515 3.26873 16.7073 3.26873Z" fill="url(#paint0_linear_1325_125)"/>
<path id="Vector_3" d="M18.4543 30.0336V19.6532H21.3808L21.7687 15.9997H18.4543L18.4592 14.171C18.4592 13.2181 18.5498 12.7078 19.9185 12.7078H21.7482V9.05372H18.821C15.3051 9.05372 14.0677 10.8259 14.0677 13.8067V16H11.876V19.6538H14.0677V29.8865C14.9216 30.0566 15.8043 30.1465 16.7082 30.1465C17.292 30.1465 17.8753 30.1088 18.4543 30.0336Z" fill="var(--fill-0, white)"/>
</g>
<defs>
<linearGradient id="paint0_linear_1325_125" x1="16.7073" y1="3.02386" x2="16.7073" y2="31.2927" gradientUnits="userSpaceOnUse">
<stop stop-color="#00B2FF"/>
<stop offset="1" stop-color="#006AFF"/>
</linearGradient>
</defs>
</svg>
