<svg preserveAspectRatio="none" width="100%" height="100%" overflow="visible" style="display: block;" viewBox="0 0 40 40" fill="none" xmlns="http://www.w3.org/2000/svg">
<g id="progress">
<path id="Vector" d="M20 35C28.2843 35 35 28.2843 35 20C35 11.7157 28.2843 5 20 5C11.7157 5 5 11.7157 5 20C5 28.2843 11.7157 35 20 35Z" stroke="var(--stroke-0, #F1762A)" stroke-width="2.5" stroke-linecap="round" stroke-linejoin="round"/>
<path id="Vector_2" d="M19.9998 10C21.7551 10 23.4796 10.4621 24.9998 11.3398C26.5199 12.2174 27.7823 13.4798 28.6601 15C29.5378 16.5202 29.9998 18.2447 29.9998 20C29.9998 21.7553 29.5378 23.4798 28.6601 25C27.7823 26.5202 26.5199 27.7825 24.9998 28.6603C23.4796 29.538 21.7551 30 19.9998 30C18.2444 30 16.52 29.538 14.9998 28.6603C13.4796 27.7825 12.2172 26.5202 11.3395 25L19.9998 20V10Z" stroke="var(--stroke-0, #F1762A)" stroke-width="2.5" stroke-linecap="round" stroke-linejoin="round"/>
</g>
</svg>
