<svg preserveAspectRatio="none" width="100%" height="100%" overflow="visible" style="display: block;" viewBox="0 0 34 34" fill="none" xmlns="http://www.w3.org/2000/svg">
<g id="star-face">
<path id="Vector" d="M31.1667 17C31.1667 24.824 24.824 31.1667 17 31.1667C9.17596 31.1667 2.83333 24.824 2.83333 17M12.0417 3.72528C13.5849 3.14861 15.2557 2.83333 17 2.83333C18.7443 2.83333 20.4152 3.14861 21.9583 3.72528" stroke="var(--stroke-0, #7B19D8)" stroke-width="2.125" stroke-linecap="round" stroke-linejoin="round"/>
<path id="Vector_2" d="M10.6509 7.69711L11.3988 9.20531C11.5008 9.41526 11.7728 9.61663 12.0023 9.6552L13.3579 9.88229C14.2248 10.028 14.4288 10.6621 13.8041 11.2876L12.7502 12.3502C12.5717 12.5302 12.474 12.8772 12.5292 13.1258L12.8309 14.4411C13.0689 15.4823 12.5207 15.8851 11.6071 15.3409L10.3365 14.5826C10.107 14.4455 9.72876 14.4455 9.49504 14.5826L8.22443 15.3409C7.31503 15.8851 6.76259 15.4781 7.00057 14.4411L7.30228 13.1258C7.35753 12.8772 7.25979 12.5302 7.08131 12.3502L6.02742 11.2876C5.40699 10.6621 5.60672 10.028 6.47363 9.88229L7.82922 9.6552C8.05445 9.61663 8.32642 9.41526 8.4284 9.20531L9.17633 7.69711C9.58428 6.87874 10.2472 6.87874 10.6509 7.69711Z" stroke="var(--stroke-0, #7B19D8)" stroke-width="2.125" stroke-linecap="round" stroke-linejoin="round"/>
<path id="Vector_3" d="M24.8176 7.69711L25.5654 9.20531C25.6674 9.41526 25.9394 9.61663 26.1689 9.6552L27.5245 9.88229C28.3914 10.028 28.5954 10.6621 27.9706 11.2876L26.9168 12.3502C26.7383 12.5302 26.6405 12.8772 26.6958 13.1258L26.9975 14.4411C27.2355 15.4823 26.6873 15.8851 25.7737 15.3409L24.5031 14.5826C24.2736 14.4455 23.8955 14.4455 23.6617 14.5826L22.3911 15.3409C21.4817 15.8851 20.9292 15.4781 21.1672 14.4411L21.469 13.1258C21.5241 12.8772 21.4265 12.5302 21.248 12.3502L20.1941 11.2876C19.5736 10.6621 19.7734 10.028 20.6402 9.88229L21.9959 9.6552C22.2211 9.61663 22.4931 9.41526 22.5951 9.20531L23.343 7.69711C23.751 6.87874 24.4138 6.87874 24.8176 7.69711Z" stroke="var(--stroke-0, #7B19D8)" stroke-width="2.125" stroke-linecap="round" stroke-linejoin="round"/>
<path id="Vector_4" d="M11.3333 21.25C12.6255 22.9704 14.6828 24.0833 17 24.0833C19.3172 24.0833 21.3745 22.9704 22.6667 21.25" stroke="var(--stroke-0, #7B19D8)" stroke-width="2.125" stroke-linecap="round" stroke-linejoin="round"/>
</g>
</svg>
