<svg preserveAspectRatio="none" width="100%" height="100%" overflow="visible" style="display: block;" viewBox="0 0 162.746 115.647" fill="none" xmlns="http://www.w3.org/2000/svg">
<g id="Vector">
<path d="M52.9363 23.2552C52.421 24.3175 52.2678 25.1033 52.3959 25.7805C52.5215 26.6968 53.0388 27.0416 53.7998 26.8832C60.9146 25.8555 75.7197 32.0679 81.2421 33.9309C82.5477 34.3358 83.7895 32.7559 83.0225 31.1624C81.8334 29.5771 67.1739 21.8893 61.3881 21.0006C59.1195 20.6598 55.0964 19.704 52.9363 23.2552Z" fill="var(--fill-0, #F15C2A)"/>
<path d="M114.456 8.62952C115.158 9.1179 115.535 9.55623 115.698 10.0216C115.948 10.6355 115.749 11.0253 115.217 11.1837C110.412 12.9461 103.404 21.8215 100.628 24.8486C99.9585 25.5421 98.6184 24.9763 98.5258 23.7235C98.6999 22.3333 105.089 12.5871 108.379 10.0784C109.671 9.09972 111.838 7.14463 114.456 8.62952Z" fill="var(--fill-0, #F15C2A)"/>
<path d="M78.2737 0.527122C79.2262 -0.0456804 80.1735 -0.188656 80.606 0.282601C86.9981 6.73993 89.8127 16.2777 91.2994 24.9066C91.3668 25.1107 91.3457 25.3926 91.2495 25.6796C91.1975 25.9277 90.9852 26.175 90.6684 26.3521C90.3292 26.5485 90.0491 26.5916 89.9388 26.3845C87.2786 22.0525 71.3919 4.67602 78.2737 0.527122Z" fill="var(--fill-0, #F15C2A)"/>
<path d="M39.3317 65.5612C37.9436 65.7194 36.5355 65.6042 35.1909 65.2219C33.8468 64.8397 32.5925 64.199 31.503 63.3367C30.5411 62.6729 29.7405 61.8096 29.1587 60.8084C28.5774 59.8071 28.2294 58.6934 28.14 57.5467C28.0502 56.4003 28.2217 55.2499 28.6409 54.1779C29.0606 53.106 29.7186 52.1394 30.5669 51.3475C32.0667 49.737 34.0807 48.6725 36.2823 48.3261C42.0455 47.261 47.9155 46.8335 53.7821 47.0518C55.0781 47.0266 56.367 47.2551 57.5732 47.7236C58.7799 48.1927 59.8793 48.8918 60.8077 49.7812C61.7357 50.6702 62.474 51.7313 62.9788 52.9016C63.4832 54.072 63.7444 55.3283 63.7467 56.5968C64.8482 62.9299 64.4234 69.4215 62.5066 75.5534C55.7596 95.3194 38.4166 100.699 20.2909 92.4581C15.1949 90.2311 10.8874 86.5701 7.91929 81.9428C3.90796 76.3291 1.29629 69.8779 0.294686 63.1081C-0.466702 57.0918 0.252421 50.9911 2.39285 45.3146C4.53283 39.638 8.03171 34.5502 12.5972 30.4764C16.9878 25.9948 22.4533 22.657 28.5012 20.7635C32.3641 19.1274 36.7193 18.9688 40.709 20.319C41.611 20.6568 42.4053 21.2242 43.0095 21.9624C43.6137 22.7006 44.0058 23.5827 44.1452 24.5173C44.2846 25.4519 44.1658 26.4048 43.8018 27.2774C43.4373 28.1499 42.8411 28.9102 42.0742 29.4795C40.6177 30.5433 39.0576 31.4642 37.4161 32.2286C32.3495 34.7596 27.8231 38.2094 24.0766 42.3953C21.6243 45.1014 19.8096 48.3032 18.7606 51.7749C17.7113 55.2465 17.4533 58.9043 18.0046 62.491C18.7761 67.3832 21.0821 71.9262 24.6025 75.4909C35.4556 87.1387 51.8087 78.4242 50.4692 63.794C46.4503 64.3722 42.9104 65.0483 39.3317 65.5612Z" fill="var(--fill-0, #F15C2A)"/>
<path d="M108.894 102.073C90.407 110.959 71.4786 98.5506 69.1981 76.022C67.5079 59.9243 75.618 38.3737 97.5144 31.9346C102.169 30.6031 107.097 30.4458 111.841 31.4771C117.509 33.0522 122.537 36.3264 126.215 40.8381C129.892 45.3497 132.036 50.8712 132.341 56.6245C134.126 75.7593 124.164 95.0635 108.894 102.073ZM118.312 67.2042C118.718 62.829 117.534 58.4467 114.968 54.8293C113.622 52.6146 111.536 50.9221 109.063 50.0399C106.59 49.1582 103.886 49.1414 101.41 49.9933C91.5582 53.1033 83.5154 67.0096 84.9325 77.9286C84.9598 79.6236 85.3648 81.2941 86.1196 82.8229C86.8745 84.3518 87.9609 85.7022 89.3029 86.7801C90.6446 87.8575 92.2097 88.6364 93.8882 89.0619C95.5672 89.487 97.3191 89.549 99.0213 89.2431C104.191 88.0031 108.828 85.2129 112.286 81.2617C115.744 77.3106 117.851 72.396 118.312 67.2042Z" fill="var(--fill-0, #F15C2A)"/>
<path d="M145.176 109.954C144.73 111.857 143.53 113.505 141.839 114.537C140.148 115.568 138.105 115.898 136.159 115.454C134.213 115.01 132.523 113.829 131.462 112.169C130.401 110.51 130.055 108.509 130.501 106.607C130.946 104.704 132.146 103.056 133.837 102.024C135.528 100.993 137.572 100.663 139.518 101.107C141.464 101.551 143.153 102.732 144.215 104.391C145.276 106.051 145.622 108.052 145.176 109.954ZM147.174 38.4715C148.342 37.0382 149.954 36.0148 151.769 35.5537C153.584 35.0927 155.505 35.2188 157.246 35.9132C159.024 36.53 160.533 37.7249 161.523 39.2978C162.512 40.8708 162.92 42.7262 162.679 44.5535C162.165 47.4725 161.44 50.3514 160.511 53.1686C157.818 62.7441 155.179 72.3242 152.388 81.7843C151.165 85.5476 149.688 89.1275 148.083 92.9077C147.537 94.0854 146.714 95.1184 145.681 95.9225C145.028 96.5391 144.226 96.9836 143.349 97.215C142.471 97.4468 141.548 97.4578 140.664 97.2474C139.779 97.037 138.962 96.612 138.288 96.0117C137.615 95.411 137.106 94.6545 136.81 93.8122C136.306 92.3038 136.104 90.715 136.217 89.1343C136.832 82.6041 137.451 76.0215 138.501 69.4789C140.116 60.1534 142.433 50.9598 145.433 41.9734C145.8 40.7662 146.384 39.6337 147.159 38.6295L147.174 38.4715Z" fill="var(--fill-0, #F15C2A)"/>
</g>
</svg>
