<svg preserveAspectRatio="none" width="100%" height="100%" overflow="visible" style="display: block;" viewBox="0 0 32.25 30" fill="none" xmlns="http://www.w3.org/2000/svg">
<g id="Frame">
<path id="Vector" d="M2.47797 12.8492C2.78299 11.4766 4.00043 10.5 5.40653 10.5H9L6.00002 24H3.73987C1.82062 24 0.394962 22.2227 0.811305 20.3492L2.47797 12.8492Z" fill="var(--fill-0, #FFC228)"/>
<path id="Vector_2" d="M29.4639 6H15.9646L15.5083 8.1288C15.2118 9.51187 13.9894 10.5 12.5749 10.5H9L10.7412 2.3716C11.0375 0.988305 12.26 0 13.6747 0H27.0385C28.9484 0 30.372 1.76095 29.972 3.62844L29.4639 6Z" fill="var(--fill-0, #FF0A0A)"/>
<path id="Vector_3" d="M23.222 27.6284C22.9257 29.0117 21.7033 30 20.2885 30H8.42475C6.51486 30 5.09121 28.2391 5.49129 26.3716L5.99935 24H23.9993L23.222 27.6284Z" fill="var(--fill-0, #07E0B0)"/>
<path id="Vector_4" d="M28.9702 12.75C30.9219 12.75 32.3539 14.5842 31.8806 16.4776L30.5681 21.7276C30.2342 23.0631 29.0343 24 27.6577 24H24L25.3125 18.75H10.5L11.2773 15.1216C11.5737 13.7383 12.7961 12.75 14.2108 12.75H28.9702Z" fill="var(--fill-0, #6F3BFD)"/>
</g>
</svg>
