<svg preserveAspectRatio="none" width="100%" height="100%" overflow="visible" style="display: block;" viewBox="0 0 24 24" fill="none" xmlns="http://www.w3.org/2000/svg">
<g id="Group 1000003539">
<path id="Vector" d="M12 24C18.6274 24 24 18.6274 24 12C24 5.37258 18.6274 0 12 0C5.37258 0 0 5.37258 0 12C0 18.6274 5.37258 24 12 24Z" fill="var(--fill-0, white)" fill-opacity="0.16"/>
<path id="Vector_2" fill-rule="evenodd" clip-rule="evenodd" d="M12 2.34794C17.3307 2.34794 21.6521 6.66934 21.6521 12C21.6521 17.3307 17.3307 21.6521 12 21.6521C6.6693 21.6521 2.3479 17.3307 2.3479 12C2.3479 6.66934 6.6693 2.34794 12 2.34794Z" fill="url(#paint0_linear_1304_20)"/>
<path id="Vector_3" d="M13.2541 21.5711V14.1156H15.356L15.6346 11.4917H13.2541L13.2577 10.1782C13.2577 9.49386 13.3227 9.12732 14.3057 9.12732H15.6198V6.50291H13.5175C10.9923 6.50291 10.1036 7.77575 10.1036 9.91659V11.4919H8.52945V14.1161H10.1036V21.4654C10.7169 21.5876 11.3509 21.6521 12 21.6521C12.4194 21.6521 12.8383 21.6251 13.2541 21.5711Z" fill="var(--fill-0, #477BFF)"/>
</g>
<defs>
<linearGradient id="paint0_linear_1304_20" x1="12" y1="2.17207" x2="12" y2="22.4753" gradientUnits="userSpaceOnUse">
<stop stop-color="#F0F0F0"/>
<stop offset="1" stop-color="white"/>
</linearGradient>
</defs>
</svg>
