<svg preserveAspectRatio="none" width="100%" height="100%" overflow="visible" style="display: block;" viewBox="0 0 24 24" fill="none" xmlns="http://www.w3.org/2000/svg">
<g id="linkedin-icon" clip-path="url(#clip0_1304_17)">
<path id="Vector" d="M12 2.46308e-05C5.37253 2.46308e-05 5.32039e-07 5.37255 5.32039e-07 12C5.32039e-07 18.6274 5.37253 24 12 24C18.6274 24 24 18.6274 24 12C24 5.37255 18.6273 2.46308e-05 12 2.46308e-05ZM8.79836 17.8014H6.16364V9.28942H8.79836V17.8014ZM7.46845 8.17471C6.60798 8.17471 5.91041 7.47146 5.91041 6.6041C5.91041 5.73664 6.60807 5.03343 7.46845 5.03343C8.32882 5.03343 9.02638 5.73664 9.02638 6.6041C9.02643 7.47151 8.32887 8.17471 7.46845 8.17471ZM18.672 17.8014H16.05V13.3333C16.05 12.1079 15.5845 11.4238 14.6155 11.4238C13.5609 11.4238 13.01 12.1363 13.01 13.3333V17.8014H10.483V9.28942H13.01V10.4358C13.01 10.4358 13.7701 9.02978 15.575 9.02978C17.3799 9.02978 18.672 10.1319 18.672 12.4118L18.672 17.8014Z" fill="url(#paint0_linear_1304_17)"/>
</g>
<defs>
<linearGradient id="paint0_linear_1304_17" x1="3.51471" y1="3.51473" x2="20.4852" y2="20.4853" gradientUnits="userSpaceOnUse">
<stop stop-color="white"/>
<stop offset="1" stop-color="#F0F0F0"/>
</linearGradient>
<clipPath id="clip0_1304_17">
<rect width="24" height="24" fill="white"/>
</clipPath>
</defs>
</svg>
