 <svg width="33" height="30" viewBox="0 0 33 30" fill="none" xmlns="http://www.w3.org/2000/svg">
          <g clip-path="url(#clip0_24216_2752)">
            <path
              d="M2.4776 12.8492C2.78263 11.4766 4.00007 10.5 5.40617 10.5H8.99963L5.99965 24H3.7395C1.82026 24 0.394595 22.2227 0.810938 20.3492L2.4776 12.8492Z"
              fill="#FFC228" />
            <path
              d="M29.4639 6H15.9646L15.5083 8.1288C15.2118 9.51188 13.9894 10.5 12.5749 10.5H9L10.7412 2.3716C11.0375 0.988305 12.26 0 13.6747 0H27.0385C28.9484 0 30.372 1.76095 29.972 3.62844L29.4639 6Z"
              fill="#FF0A0A" />
            <path
              d="M23.2203 27.6284C22.924 29.0117 21.7016 30 20.2868 30H8.42304C6.51315 30 5.0895 28.2391 5.48958 26.3716L5.99765 24H23.9976L23.2203 27.6284Z"
              fill="#07E0B0" />
            <path
              d="M28.9702 12.75C30.9219 12.75 32.354 14.5842 31.8806 16.4776L30.5681 21.7276C30.2342 23.0631 29.0343 24 27.6577 24H24L25.3125 18.75H10.5L11.2773 15.1216C11.5737 13.7383 12.7961 12.75 14.2108 12.75H28.9702Z"
              fill="#6F3BFD" />
          </g>
          <defs>
            <clipPath id="clip0_24216_2752">
              <rect width="32.25" height="30" fill="white" />
            </clipPath>
          </defs>
        </svg>