<svg width="226" height="46" viewBox="0 0 226 46" fill="none" xmlns="http://www.w3.org/2000/svg">
<path d="M1.08507 43.5572C0.534783 43.5102 0.0506054 43.9182 0.00362468 44.4685C-0.0433561 45.0188 0.364651 45.503 0.914934 45.55L1 44.5536L1.08507 43.5572ZM219.128 27.2202C219.606 27.4969 220.217 27.3337 220.494 26.8558L225.003 19.0669C225.28 18.589 225.117 17.9772 224.639 17.7005C224.161 17.4238 223.549 17.5869 223.273 18.0649L219.264 24.9883L212.341 20.98C211.863 20.7033 211.251 20.8664 210.974 21.3444C210.698 21.8223 210.861 22.4341 211.339 22.7108L219.128 27.2202ZM1 44.5536C0.914934 45.55 0.915407 45.55 0.916064 45.5501C0.91653 45.5501 0.917374 45.5502 0.918305 45.5502C0.920169 45.5504 0.922771 45.5506 0.926107 45.5509C0.932779 45.5515 0.942388 45.5522 0.954899 45.5533C0.979922 45.5553 1.01655 45.5582 1.06452 45.5618C1.16046 45.5691 1.30175 45.5793 1.4862 45.5915C1.8551 45.6158 2.39671 45.6477 3.09352 45.6787C4.48703 45.7407 6.50189 45.7989 8.9979 45.7848C13.9883 45.7565 20.9106 45.439 28.6406 44.2809C44.068 41.9695 62.8712 36.2865 75.8795 22.7057L75.1573 22.014L74.4352 21.3223C61.8801 34.4299 43.6046 40.0166 28.3442 42.303C20.7303 43.4437 13.9064 43.757 8.98657 43.7848C6.52747 43.7988 4.54621 43.7414 3.18238 43.6807C2.50052 43.6504 1.97315 43.6193 1.61774 43.5958C1.44004 43.5841 1.30535 43.5743 1.21584 43.5675C1.17108 43.5641 1.13762 43.5615 1.11574 43.5597C1.10479 43.5588 1.09674 43.5582 1.09162 43.5578C1.08906 43.5575 1.08723 43.5574 1.08614 43.5573C1.08559 43.5573 1.08532 43.5572 1.08505 43.5572C1.08496 43.5572 1.08507 43.5572 1 44.5536ZM75.1573 22.014L75.8795 22.7057C79.0479 19.3979 81.6627 17.1414 83.8399 15.7054C86.0237 14.265 87.6967 13.6971 88.9977 13.6547C91.452 13.5748 93.1235 15.3954 94.7699 18.6509C95.5759 20.2447 96.3125 22.0518 97.1206 23.9471C97.9198 25.8215 98.7815 27.7634 99.8126 29.5329C101.875 33.0726 104.726 36.1051 109.346 36.5232L109.436 35.5273L109.526 34.5313C105.852 34.1988 103.466 31.8309 101.541 28.526C100.578 26.8734 99.7573 25.032 98.9604 23.1628C98.1724 21.3146 97.3989 19.4179 96.5546 17.7483C94.9003 14.4771 92.7102 11.5328 88.9326 11.6558C87.1177 11.7148 85.0821 12.4902 82.7387 14.0359C80.3888 15.5858 77.6576 17.9581 74.4352 21.3223L75.1573 22.014ZM109.436 35.5273L109.346 36.5232C117.753 37.2839 126.342 36.9048 136.939 33.1483C147.509 29.4009 160.033 22.309 176.352 9.72149L175.741 8.92968L175.13 8.13787C158.902 20.6552 146.568 27.6127 136.27 31.2632C125.999 34.9045 117.708 35.2717 109.526 34.5313L109.436 35.5273ZM175.741 8.92968L176.352 9.72149C184.363 3.5416 190.934 1.62753 196.248 2.05795C201.561 2.48823 205.812 5.27727 209.154 8.9054C212.502 12.5393 214.883 16.9603 216.432 20.5023C217.204 22.2681 217.764 23.8032 218.13 24.8944C218.313 25.4397 218.447 25.8735 218.535 26.1689C218.579 26.3165 218.611 26.4296 218.633 26.5046C218.643 26.5422 218.651 26.5702 218.656 26.5883C218.658 26.5973 218.66 26.6039 218.661 26.608C218.662 26.61 218.662 26.6114 218.662 26.6121C218.662 26.6125 218.662 26.6125 218.662 26.6127C218.662 26.6127 218.662 26.6124 219.629 26.3547C220.595 26.0971 220.595 26.0965 220.594 26.0958C220.594 26.0953 220.594 26.0944 220.594 26.0935C220.593 26.0917 220.593 26.0892 220.592 26.0861C220.59 26.0798 220.588 26.071 220.585 26.0597C220.579 26.0371 220.569 26.0045 220.558 25.9624C220.534 25.878 220.499 25.7553 220.452 25.5976C220.358 25.2823 220.217 24.8268 220.026 24.2583C219.644 23.1217 219.064 21.5302 218.264 19.7011C216.669 16.0533 214.181 11.4108 210.625 7.55035C207.064 3.68409 202.377 0.547808 196.41 0.0644736C190.444 -0.418721 183.392 1.76529 175.13 8.13787L175.741 8.92968Z" fill="url(#paint0_linear_18_880)"/>
<defs>
<linearGradient id="paint0_linear_18_880" x1="0.129682" y1="34.0966" x2="218.758" y2="15.8977" gradientUnits="userSpaceOnUse">
<stop stop-color="#F1762A"/>
<stop offset="0.485577" stop-color="#477BFF"/>
<stop offset="1" stop-color="#0ED70E"/>
</linearGradient>
</defs>
</svg>