<svg width="39" height="30" viewBox="0 0 39 30" fill="none" xmlns="http://www.w3.org/2000/svg">
<g clip-path="url(#clip0_24216_2805)">
<path d="M9.33594 0L17.0865 6.62165C17.5466 7.01476 17.8119 7.59165 17.8119 8.19922V13.1897L10.0613 6.56801C9.60114 6.17489 9.33594 5.598 9.33594 4.9904V0Z" fill="#7B19D8"/>
<path d="M9.33594 30.0002L17.0865 23.3785C17.5466 22.9854 17.8119 22.4085 17.8119 21.801V16.8105L10.0613 23.4322C9.60114 23.8253 9.33594 24.4022 9.33594 25.0098V30.0002Z" fill="#7B19D8"/>
<path d="M0.0898438 6.98291L7.73505 13.478C8.1057 13.793 8.57505 13.9657 9.06008 13.9657H15.2256L7.59923 7.47205C7.22831 7.15621 6.75823 6.98291 6.27244 6.98291H0.0898438Z" fill="#7B19D8"/>
<path d="M0.0898438 23.0175L7.68803 16.5261C8.05935 16.2088 8.53043 16.0347 9.0174 16.0347H15.244L7.59878 22.5297C7.2281 22.8447 6.75873 23.0175 6.27372 23.0175H0.0898438Z" fill="#7B19D8"/>
<path d="M28.3432 0L20.5925 6.62165C20.1324 7.01476 19.8672 7.59165 19.8672 8.19922V13.1897L27.6178 6.56801C28.0779 6.17489 28.3432 5.598 28.3432 4.9904V0Z" fill="#7B19D8"/>
<path d="M28.3432 30.0002L20.5925 23.3785C20.1324 22.9854 19.8672 22.4085 19.8672 21.801V16.8105L27.6178 23.4322C28.0779 23.8253 28.3432 24.4022 28.3432 25.0098V30.0002Z" fill="#7B19D8"/>
<path d="M37.5889 6.98291L29.9437 13.478C29.5731 13.793 29.1037 13.9657 28.6187 13.9657H22.4531L30.0796 7.47205C30.4504 7.15621 30.9205 6.98291 31.4063 6.98291H37.5889Z" fill="#7B19D8"/>
<path d="M37.5877 23.0175L29.9895 16.5261C29.6182 16.2088 29.1471 16.0347 28.6601 16.0347H22.4336L30.0787 22.5297C30.4494 22.8447 30.9188 23.0175 31.4038 23.0175H37.5877Z" fill="#7B19D8"/>
</g>
<defs>
<clipPath id="clip0_24216_2805">
<rect width="38.25" height="30" fill="white"/>
</clipPath>
</defs>
</svg>
