<svg width="44" height="30" viewBox="0 0 44 30" fill="none" xmlns="http://www.w3.org/2000/svg">
<g clip-path="url(#clip0_24216_2793)">
<path fill-rule="evenodd" clip-rule="evenodd" d="M18.4969 0C22.1624 0.000118168 25.134 2.90592 25.1341 6.48918C25.1341 6.68899 25.1248 6.88799 25.1118 7.08621H30.7024C36.1403 7.08621 38.2757 13.9805 33.751 16.9292L27.8348 20.7841C26.5612 21.6145 26.9104 23.5307 28.399 23.88C28.8857 23.9941 29.3998 23.8994 29.8106 23.6201L33.2431 21.1445C33.3734 21.0506 33.5306 21 33.6919 21H43.1191C43.4904 21 43.6414 21.4711 43.3378 21.6818L33.3587 28.6048C31.4925 29.8739 29.1597 30.3036 26.9491 29.785C20.1889 28.1989 18.6046 19.5011 24.3889 15.7312L28.3363 13.1593H22.2786H18.4019C17.2886 13.1593 16.2378 12.8944 15.3128 12.4268C16.2986 13.0901 18.7354 13.8283 20.7912 13.9688C20.9743 13.9688 21.2719 14.1289 20.9176 14.4887L8.4714 26.78C8.32875 26.9209 8.13525 27 7.9335 27H0.380913C0.0421845 27 -0.127404 26.596 0.11218 26.3597L14.6414 12.0354C12.8512 10.8532 11.6739 8.85098 11.6737 6.58012C11.6737 2.94656 14.6869 0 18.4039 0H18.4969ZM18.6314 5.06186C17.7736 5.06186 17.0783 5.51503 17.0783 6.07403C17.0786 6.53489 17.5518 6.92257 18.1986 7.04469C18.2615 7.07135 18.331 7.08621 18.4039 7.08621H18.865C18.8658 7.08169 18.8651 7.07689 18.8659 7.07237C19.6121 6.99864 20.1842 6.58081 20.1845 6.07403C20.1845 5.51503 19.4891 5.06186 18.6314 5.06186Z" fill="#2E2E2E"/>
</g>
<defs>
<clipPath id="clip0_24216_2793">
<rect width="43.5" height="30" fill="white"/>
</clipPath>
</defs>
</svg>
