<svg width="30" height="30" viewBox="0 0 30 30" fill="none" xmlns="http://www.w3.org/2000/svg">
<g clip-path="url(#clip0_24216_2799)">
<path d="M22.5 21V9C22.5 8.17155 21.8284 7.5 21 7.5H20.9246C20.5268 7.5 20.1453 7.65818 19.864 7.93943L7.93943 19.864C7.65818 20.1453 7.5 20.5268 7.5 20.9246V30H0L0 20.9246C1.61484e-05 18.5376 0.948173 16.2484 2.63599 14.5606L14.5606 2.63599C16.2484 0.948173 18.5376 1.60297e-05 20.9246 0L21 0C25.9706 0 30 4.02944 30 9V21C30 25.9706 25.9706 30 21 30H10.5V22.5H21C21.8284 22.5 22.5 21.8284 22.5 21ZM0 0L12.75 0L5.25 7.5H0L0 0Z" fill="#F1762A"/>
</g>
<defs>
<clipPath id="clip0_24216_2799">
<rect width="30" height="30" fill="white"/>
</clipPath>
</defs>
</svg>
