<svg width="30" height="30" viewBox="0 0 30 30" fill="none" xmlns="http://www.w3.org/2000/svg">
<g clip-path="url(#clip0_24216_2775)">
<path d="M9.8223 15.2651L13.2197 16.8354L12.7845 20.7395L6.71157 27.6211C3.18645 25.3517 0.673633 21.6461 0 17.3309L9.8223 15.2651Z" fill="#15E3FF"/>
<path d="M18.8874 19.455L23.4312 27.2842C20.9942 28.9954 18.025 30 14.8211 30C13.781 30 12.7656 29.894 11.7852 29.6925L12.7847 20.7395L15.3576 17.8242L18.8874 19.455Z" fill="#477BFF"/>
<path d="M29.3283 11.1606C29.6515 12.3856 29.8239 13.6719 29.8239 14.9985C29.8239 18.0858 28.891 20.9551 27.2922 23.3404L18.8896 19.4553L16.918 16.0591L19.3947 13.2518L29.3283 11.1606Z" fill="#FD4873"/>
<path d="M15.1004 0C19.6143 0.0820613 23.6409 2.15775 26.3375 5.38381L19.3935 13.252L15.7358 14.0219L13.8906 10.8431L15.1004 0Z" fill="#FFC700"/>
<path d="M13.8899 10.8428L13.4816 14.4949L9.82501 15.2645L0.386719 10.9008C1.57542 6.7051 4.54414 3.25747 8.42521 1.42529L13.8899 10.8428Z" fill="#00E7B9"/>
</g>
<defs>
<clipPath id="clip0_24216_2775">
<rect width="30" height="30" fill="white"/>
</clipPath>
</defs>
</svg>
