<svg width="26" height="26" viewBox="0 0 26 26" fill="none" xmlns="http://www.w3.org/2000/svg">
<path d="M11.9708 24.7786C18.582 25.2409 24.3163 20.2562 24.7786 13.6449C25.2409 7.03365 20.2562 1.29938 13.6449 0.837078C7.03365 0.374772 1.29938 5.3595 0.837078 11.9708C0.374772 18.582 5.3595 24.3163 11.9708 24.7786Z" fill="white" fill-opacity="0.16"/>
<path fill-rule="evenodd" clip-rule="evenodd" d="M13.4824 3.17916C18.8001 3.55101 22.8096 8.16333 22.4377 13.481C22.0659 18.7988 17.4536 22.8082 12.1358 22.4363C6.81812 22.0645 2.8087 17.4522 3.18055 12.1344C3.5524 6.81673 8.16472 2.8073 13.4824 3.17916Z" fill="url(#paint0_linear_24216_1634)"/>
<path d="M13.3909 22.4431L13.911 15.0058L16.0077 15.1524L16.4687 12.5543L14.094 12.3882L14.1892 11.0782C14.2369 10.3955 14.3273 10.0344 15.308 10.103L16.6189 10.1947L16.802 7.57663L14.7048 7.42998C12.1857 7.25383 11.2104 8.46158 11.061 10.5972L10.9512 12.1686L9.38083 12.0588L9.19778 14.6767L10.7681 14.7865L10.2554 22.1179C10.8587 22.2825 11.4866 22.3911 12.1342 22.4364C12.5525 22.4657 12.9723 22.4679 13.3909 22.4431Z" fill="#477BFF"/>
<defs>
<linearGradient id="paint0_linear_24216_1634" x1="13.4947" y1="3.00371" x2="12.0784" y2="23.2575" gradientUnits="userSpaceOnUse">
<stop stop-color="#F0F0F0"/>
<stop offset="1" stop-color="white"/>
</linearGradient>
</defs>
</svg>
