<svg width="16" height="16" viewBox="0 0 16 16" fill="none" xmlns="http://www.w3.org/2000/svg">
<path d="M14 8.70141V8.81727M14 8.81727C14 8.23414 13.5716 7.73641 12.9871 7.64054L12.1818 7.50847V8.10494M14 8.81727V10.2921C14 11.5885 14 12.2367 13.7993 12.7527C13.4925 13.5418 12.861 14.1653 12.0617 14.4683C11.5391 14.6663 10.8825 14.6663 9.56947 14.6663C8.88087 14.6663 8.53653 14.6663 8.21613 14.5968C7.72727 14.4907 7.27273 14.2663 6.89347 13.9439C6.64484 13.7325 6.43825 13.4605 6.02507 12.9167L4.20447 10.52C3.92473 10.1517 3.93277 9.64327 4.22403 9.28381C4.60468 8.81401 5.31441 8.77521 5.74527 9.20061L6.66667 10.1701V4.33301C6.66667 3.78072 7.1144 3.33301 7.66667 3.33301C8.21893 3.33301 8.66667 3.78072 8.66667 4.33301V6.31547M12.1818 8.10494C12.1818 7.44607 11.6391 6.91194 10.9697 6.91194H10.3637V7.50847M12.1818 8.10494V8.70141M8.66667 6.31547H9.15153C9.82093 6.31547 10.3637 6.84961 10.3637 7.50847M8.66667 6.31547V8.10494M10.3637 7.50847V8.10494" stroke="white" stroke-linecap="round" stroke-linejoin="round"/>
<path d="M4.66667 5.33301H4.11765C3.11938 5.33301 2.62025 5.33301 2.31012 5.04011C2 4.74722 2 4.27581 2 3.33301C2 2.3902 2 1.91879 2.31012 1.6259C2.62025 1.33301 3.11938 1.33301 4.11765 1.33301H11.8823C12.8806 1.33301 13.3797 1.33301 13.6899 1.6259C14 1.91879 14 2.3902 14 3.33301C14 4.27581 14 4.74722 13.6899 5.04011C13.3797 5.33301 12.8806 5.33301 11.8823 5.33301H11" stroke="white" stroke-linecap="round" stroke-linejoin="round"/>
</svg>
