<svg width="27" height="26" viewBox="0 0 27 26" fill="none" xmlns="http://www.w3.org/2000/svg">
<g clip-path="url(#clip0_24216_1645)">
<path d="M12.2579 0.863811C5.48892 1.33714 0.383755 7.20892 0.857155 13.9789C1.23588 19.3948 5.06942 23.744 10.0532 25.0242C10.6737 25.0948 10.8722 24.6998 10.8495 24.376C10.8291 24.0837 10.7501 23.1188 10.6733 22.0949C7.31492 23.0749 6.44236 20.9375 6.44236 20.9375C5.78569 19.5596 4.95594 19.2391 4.95594 19.2391C3.79063 18.556 4.98765 18.488 4.98765 18.488C6.22464 18.4884 6.95507 19.6198 6.95507 19.6198C8.17938 21.4174 9.91579 20.7515 10.5934 20.3894C10.648 19.5894 10.9279 19.0265 11.257 18.6959C8.51272 18.5762 5.57705 17.7253 5.24861 13.0285C5.15503 11.6903 5.55742 10.5632 6.28158 9.64997C6.1327 9.35008 5.62599 8.13272 6.17347 6.39774C6.17347 6.39774 7.17977 5.9963 9.63313 7.41846C10.5918 7.07841 11.631 6.86895 12.6724 6.79149C13.7145 6.72326 14.7734 6.78601 15.772 6.98919C18.0008 5.23962 19.0517 5.4972 19.0517 5.4972C19.837 7.13899 19.5044 8.41504 19.3987 8.73273C20.2447 9.53618 20.7967 10.5964 20.8903 11.9347C21.2195 16.6427 18.4245 17.88 15.7162 18.3742C16.1824 18.7239 16.6263 19.4425 16.7063 20.5861C16.821 22.2262 16.8991 23.5472 16.9273 23.951C16.9501 24.2772 17.1975 24.644 17.8105 24.4802C22.5648 22.5171 25.7514 17.6787 25.3728 12.2646C24.8994 5.49462 19.0275 0.390431 12.2579 0.863811Z" fill="white"/>
<path d="M5.8116 18.8619C5.78893 18.9247 5.69427 18.9496 5.60415 18.914C5.51243 18.8802 5.45663 18.8007 5.4812 18.7375C5.50325 18.673 5.59797 18.6488 5.68965 18.6847C5.78156 18.7183 5.83818 18.7986 5.8116 18.8619ZM6.45218 19.3577C6.39752 19.416 6.28146 19.3989 6.19789 19.3186C6.11173 19.2388 6.08875 19.1256 6.14421 19.0664C6.2007 19.008 6.31332 19.0256 6.39967 19.1055C6.48589 19.1863 6.50941 19.2988 6.45209 19.3578M6.91399 20.0172C6.84246 20.0746 6.71618 20.0343 6.63271 19.9306C6.55001 19.8269 6.54086 19.6961 6.61392 19.6384C6.68639 19.5807 6.81063 19.6193 6.8951 19.7221C6.97784 19.8277 6.98698 19.9584 6.9139 20.0173M7.66923 20.7655C7.60721 20.8442 7.46277 20.8344 7.35091 20.7406C7.23691 20.6493 7.1972 20.5111 7.25941 20.4323C7.32219 20.3533 7.46756 20.3641 7.58013 20.457C7.69345 20.5482 7.73573 20.6872 7.66923 20.7655ZM8.59212 20.9715C8.56932 21.0695 8.43451 21.1228 8.29284 21.0917C8.15127 21.0594 8.05265 20.9533 8.07385 20.8543C8.09593 20.7557 8.23119 20.7005 8.37412 20.7344C8.51548 20.7665 8.61413 20.8718 8.59212 20.9715ZM9.62915 21.0136C9.63968 21.1145 9.52778 21.2066 9.38216 21.2186C9.23578 21.232 9.11152 21.1585 9.10303 21.0592C9.09589 20.9571 9.20516 20.866 9.3515 20.8533C9.49704 20.8403 9.62212 20.9132 9.62915 21.0136ZM10.6372 20.9042C10.6616 21.0016 10.5674 21.11 10.4246 21.1471C10.2841 21.183 10.1481 21.1313 10.1231 21.0348C10.0984 20.9349 10.1945 20.8265 10.3347 20.7903C10.4779 20.755 10.6117 20.8052 10.6372 20.9042Z" fill="#161614"/>
</g>
<defs>
<clipPath id="clip0_24216_1645">
<rect width="24.6711" height="24" fill="white" transform="translate(0 1.72097) rotate(-4)"/>
</clipPath>
</defs>
</svg>
