 <svg width="35" height="35" viewBox="0 0 35 35" fill="none" xmlns="http://www.w3.org/2000/svg">
              <path
                d="M10.0142 6.88545C7.38718 6.02386 5.84432 5.83057 4.94491 6.76194C3.66005 8.09246 4.71479 10.6552 6.82428 15.7807L10.3176 24.2685C12.3325 29.1641 13.3399 31.6119 14.8683 31.5034C16.3968 31.395 17.0533 28.8106 18.3665 23.642C18.7575 22.103 18.953 21.3335 19.4747 20.7932C19.9964 20.253 20.7587 20.0307 22.2831 19.5863C27.4027 18.0935 29.9626 17.3472 30.0177 15.8158C30.0598 14.6443 28.6171 13.8298 25.7144 12.6864"
                stroke="#7B19D8" stroke-width="2.125" stroke-linecap="round" stroke-linejoin="round" />
              <path
                d="M16.3872 5.97462C17.2773 8.25659 19.1197 10.0359 21.4313 10.8457C19.1494 11.7357 17.3702 13.5781 16.5603 15.8898C15.6703 13.6078 13.8279 11.8285 11.5162 11.0187C13.7982 10.1287 15.5774 8.28626 16.3872 5.97462Z"
                stroke="#7B19D8" stroke-width="2.125" stroke-linecap="round" stroke-linejoin="round" />
              <path
                d="M22.3604 3.03709C22.6783 3.85207 23.3363 4.48753 24.1619 4.77674C23.3469 5.09459 22.7114 5.75263 22.4222 6.57821C22.1044 5.76323 21.4465 5.12777 20.6207 4.83855C21.4359 4.5207 22.0712 3.86267 22.3604 3.03709Z"
                stroke="#7B19D8" stroke-width="2.125" stroke-linecap="round" stroke-linejoin="round" />
            </svg>