  <svg width="16" height="16" viewBox="0 0 16 16" fill="none" xmlns="http://www.w3.org/2000/svg">
            <path
              d="M14.6654 8.00016C14.6654 11.682 11.6806 14.6668 7.9987 14.6668C4.3168 14.6668 1.33203 11.682 1.33203 8.00016M5.66536 1.75324C6.39159 1.48186 7.17783 1.3335 7.9987 1.3335C8.81956 1.3335 9.60583 1.48186 10.332 1.75324"
              stroke="white" stroke-linecap="round" stroke-linejoin="round" />
            <path
              d="M5.0135 3.62233L5.36546 4.33207C5.41345 4.43087 5.54144 4.52564 5.64943 4.54378L6.28736 4.65065C6.6953 4.7192 6.7913 5.01762 6.49734 5.312L6.00139 5.81204C5.9174 5.89672 5.8714 6.06004 5.8974 6.17699L6.03938 6.79596C6.15137 7.28596 5.8934 7.4755 5.46345 7.21943L4.86552 6.86256C4.75752 6.79803 4.57954 6.79803 4.46956 6.86256L3.87162 7.21943C3.44367 7.4755 3.1837 7.28396 3.29569 6.79596L3.43767 6.17699C3.46367 6.06004 3.41768 5.89672 3.33368 5.81204L2.83774 5.312C2.54577 5.01762 2.63976 4.7192 3.04772 4.65065L3.68564 4.54378C3.79163 4.52564 3.91962 4.43087 3.96761 4.33207L4.31958 3.62233C4.51155 3.23722 4.82352 3.23722 5.0135 3.62233Z"
              stroke="white" stroke-linecap="round" stroke-linejoin="round" />
            <path
              d="M11.6776 3.62233L12.0295 4.33207C12.0775 4.43087 12.2055 4.52564 12.3135 4.54378L12.9514 4.65065C13.3594 4.7192 13.4554 5.01762 13.1614 5.312L12.6654 5.81204C12.5814 5.89672 12.5354 6.06004 12.5614 6.17699L12.7034 6.79596C12.8154 7.28596 12.5574 7.4755 12.1275 7.21943L11.5296 6.86256C11.4216 6.79803 11.2436 6.79803 11.1336 6.86256L10.5357 7.21943C10.1078 7.4755 9.84776 7.28396 9.95976 6.79596L10.1018 6.17699C10.1277 6.06004 10.0818 5.89672 9.99776 5.81204L9.50182 5.312C9.20982 5.01762 9.30382 4.7192 9.71176 4.65065L10.3497 4.54378C10.4557 4.52564 10.5837 4.43087 10.6317 4.33207L10.9836 3.62233C11.1756 3.23722 11.4876 3.23722 11.6776 3.62233Z"
              stroke="white" stroke-linecap="round" stroke-linejoin="round" />
            <path
              d="M5.33203 10C5.94011 10.8096 6.90823 11.3333 7.9987 11.3333C9.08916 11.3333 10.0573 10.8096 10.6654 10"
              stroke="white" stroke-linecap="round" stroke-linejoin="round" />
          </svg>