 <svg width="62" height="62" viewBox="0 0 62 62" fill="none" xmlns="http://www.w3.org/2000/svg">
              <rect y="1.04736" width="60" height="60" rx="12" transform="rotate(-1 0 1.04736)" fill="#0ED70E"
                fill-opacity="0.08" />
              <path
                d="M27.3055 28.1886C27.5322 27.8939 27.7911 27.6257 28.0777 27.3889C29.1539 26.4995 30.6552 26.3024 33.2768 26.2231C33.9462 26.2029 34.2808 26.1927 34.496 26.4005C34.7111 26.6083 34.7126 26.9431 34.7158 27.6128C34.7281 30.2353 34.5837 31.7423 33.7323 32.8489C33.5057 33.1436 33.2467 33.4118 32.9602 33.6486C31.884 34.538 30.3826 34.7354 27.7609 34.8147C27.0915 34.8351 26.7569 34.8452 26.5417 34.6374C26.3266 34.4296 26.325 34.0948 26.3219 33.4251C26.3096 30.8024 26.4542 29.2951 27.3055 28.1886Z"
                stroke="#0ED70E" stroke-width="2.125" stroke-linecap="round" stroke-linejoin="round" />
              <path
                d="M26.4053 38.3761C26.5017 40.5691 26.7389 41.8945 27.5454 42.8704C27.7821 43.1568 28.0503 43.4158 28.345 43.6425C29.7217 44.7017 31.7188 44.6668 35.7129 44.5971C39.7069 44.5274 41.7039 44.4925 43.043 43.3859C43.3294 43.1491 43.5884 42.8809 43.8151 42.5864C44.8743 41.2095 44.8394 39.2125 44.7697 35.2185C44.7 31.2244 44.6651 29.2273 43.5585 27.8884C43.3217 27.6018 43.0535 27.3429 42.759 27.1162C41.7555 26.3443 40.4227 26.1535 38.2276 26.1337"
                stroke="#0ED70E" stroke-width="2.125" stroke-linecap="round" />
              <path
                d="M16.3566 30.7666C16.4711 32.012 16.7073 32.8505 17.2478 33.5027C17.4468 33.7428 17.6722 33.9599 17.9197 34.1499C18.5899 34.664 19.4351 34.8704 20.6801 34.9417L21.3884 34.9294M16.1835 20.8514C16.2549 19.6064 16.4613 18.7612 16.9755 18.091C17.1654 17.8434 17.3825 17.618 17.6226 17.4191C18.2748 16.8785 19.1134 16.6424 20.3587 16.5279M30.2739 16.3548C31.5189 16.4261 32.3641 16.6326 33.0343 17.1468C33.2819 17.3367 33.5073 17.5537 33.7062 17.7938C34.2468 18.446 34.4829 19.2846 34.5974 20.53L34.6098 21.2382M16.2454 24.3925L16.2948 27.2254M26.7328 16.4166L23.8999 16.4661"
                stroke="#0ED70E" stroke-width="2.125" stroke-linecap="round" />
            </svg>