<svg preserveAspectRatio="none" width="100%" height="100%" overflow="visible" style="display: block;" viewBox="0 0 30 432" fill="none" xmlns="http://www.w3.org/2000/svg">
<g id="Group 2">
<path id="Vector 3" d="M15 15.283V422.83" stroke="url(#paint0_linear_0_19)" stroke-width="2" stroke-linecap="round" stroke-linejoin="round" stroke-dasharray="4 4"/>
<g id="Frame 2147227155">
<rect x="1" y="1" width="28" height="28" rx="14" fill="var(--fill-0, white)"/>
<rect x="1" y="1" width="28" height="28" rx="14" stroke="url(#paint1_radial_0_19)" stroke-width="2"/>
<circle id="Ellipse 7" cx="15" cy="15" r="8" fill="url(#paint2_radial_0_19)"/>
</g>
<g id="Frame 2147227156">
<rect x="4" y="82.9999" width="22" height="22" rx="11" fill="var(--fill-0, white)"/>
<rect x="4" y="82.9999" width="22" height="22" rx="11" stroke="var(--stroke-0, #E0E0E0)" stroke-width="2"/>
<circle id="Ellipse 7_2" cx="15" cy="93.9999" r="6" fill="var(--fill-0, #F5F5F5)"/>
</g>
<g id="Frame 2147227158">
<rect x="4" y="246" width="22" height="22" rx="11" fill="var(--fill-0, white)"/>
<rect x="4" y="246" width="22" height="22" rx="11" stroke="var(--stroke-0, #E0E0E0)" stroke-width="2"/>
<circle id="Ellipse 7_3" cx="15" cy="257" r="6" fill="var(--fill-0, #F5F5F5)"/>
</g>
<g id="Frame 2147227159">
<rect x="4" y="164" width="22" height="22" rx="11" fill="var(--fill-0, white)"/>
<rect x="4" y="164" width="22" height="22" rx="11" stroke="var(--stroke-0, #E0E0E0)" stroke-width="2"/>
<circle id="Ellipse 7_4" cx="15" cy="175" r="6" fill="var(--fill-0, #F5F5F5)"/>
</g>
<g id="Frame 2147227160">
<rect x="4" y="327" width="22" height="22" rx="11" fill="var(--fill-0, white)"/>
<rect x="4" y="327" width="22" height="22" rx="11" stroke="var(--stroke-0, #E0E0E0)" stroke-width="2"/>
<circle id="Ellipse 7_5" cx="15" cy="338" r="6" fill="var(--fill-0, #F5F5F5)"/>
</g>
<g id="Frame 2147227157">
<rect x="4" y="409" width="22" height="22" rx="11" fill="var(--fill-0, white)"/>
<rect x="4" y="409" width="22" height="22" rx="11" stroke="var(--stroke-0, #E0E0E0)" stroke-width="2"/>
<circle id="Ellipse 7_6" cx="15" cy="420" r="6" fill="var(--fill-0, #F5F5F5)"/>
</g>
</g>
<defs>
<linearGradient id="paint0_linear_0_19" x1="15.5" y1="15.283" x2="15.5" y2="422.83" gradientUnits="userSpaceOnUse">
<stop stop-color="#0056B3"/>
<stop offset="0.164461" stop-color="#007DFC"/>
<stop offset="0.20017" stop-color="#E0E0E0"/>
</linearGradient>
<radialGradient id="paint1_radial_0_19" cx="0" cy="0" r="1" gradientTransform="matrix(30.6522 21.9643 -2.0345 30.6522 15 15)" gradientUnits="userSpaceOnUse">
<stop stop-color="#007BFF"/>
<stop offset="1" stop-color="#0056B3"/>
</radialGradient>
<radialGradient id="paint2_radial_0_19" cx="0" cy="0" r="1" gradientTransform="matrix(16.3478 11.7143 -1.08507 16.3478 15 15)" gradientUnits="userSpaceOnUse">
<stop stop-color="#007BFF"/>
<stop offset="1" stop-color="#0056B3"/>
</radialGradient>
</defs>
</svg>
